<svg width="180" height="156" viewBox="0 0 180 156" fill="none" xmlns="http://www.w3.org/2000/svg">
<path d="M179.679 111.997C175.978 146.209 167.978 156 103.644 156C39.3089 156 13 127.48 13 102.97C13 78.4602 50.424 76.0937 83.4174 71.7542C142.765 63.9483 184.078 71.348 179.679 111.997Z" fill="#FCEAD9"/>
<path d="M53.2109 21.9318C54.8991 21.9318 56.2668 20.609 56.2668 18.9785C56.2668 17.348 54.8991 16.0273 53.2109 16.0273C51.5227 16.0273 50.1572 17.348 50.1572 18.9785C50.1572 20.609 51.5227 21.9318 53.2109 21.9318Z" fill="#0F172A"/>
<path d="M133.256 70.0568L132.256 65.2358C132.197 64.9549 132.065 64.6949 131.872 64.4829C131.678 64.2709 131.432 64.1145 131.158 64.0303C130.883 63.946 130.592 63.9369 130.313 64.0038C130.034 64.0708 129.778 64.2114 129.572 64.4109C123.456 70.5547 122.808 70.4479 122.808 71.6361C122.823 75.7006 122.783 79.3356 122.845 79.8912L119.93 83.4237C112.946 78.6048 104.069 76.5917 95.6963 77.8119C94.7646 63.4001 93.7901 46.6568 93.7367 32.3048L90.5099 29.4776C90.4498 29.1583 90.2932 28.8651 90.0611 28.6378C89.9065 28.4941 89.7248 28.3827 89.5267 28.31C89.3286 28.2373 89.1179 28.2049 88.9071 28.2146L73.8243 28.8215L73.6555 24.5818C73.6191 23.6458 73.2131 22.7824 72.5164 22.1499C71.8198 21.5173 70.9351 21.201 70.0012 21.2523L64.3809 21.5237C63.9535 17.2156 62.0388 13.1574 59.1517 10.8815C55.1876 7.75298 49.6977 8.22312 46.099 12.0013C43.6458 14.5785 42.2033 18.5661 42.0452 22.6285L36.3821 22.9021C35.4664 22.9415 34.6036 23.3425 33.9831 24.0171C33.3626 24.6917 33.0349 25.5849 33.0719 26.5008L33.2344 30.4371L18.0981 31.044C17.8876 31.0523 17.6807 31.1019 17.4894 31.1902C17.2981 31.2785 17.1261 31.4036 16.9832 31.5584C16.8403 31.7132 16.7293 31.8947 16.6566 32.0924C16.5839 32.2902 16.5509 32.5003 16.5595 32.7108L20.1859 123.229C20.2025 123.643 20.3783 124.034 20.6767 124.321C20.975 124.607 21.3727 124.768 21.7865 124.768C21.8079 124.768 21.8293 124.768 21.8506 124.764L67.3962 122.952C72.4929 142.396 92.4396 150.373 108.446 146.029C119.789 142.949 129.226 133.758 132.794 122.558C136.876 109.76 133.036 94.3885 122.473 85.3747L125.819 81.3209C131.046 81.1905 131.773 81.6521 132.579 80.87L139.951 73.7239C140.175 73.5073 140.331 73.2301 140.4 72.9263C140.469 72.6224 140.448 72.305 140.339 72.013C140.231 71.7209 140.039 71.4669 139.789 71.2819C139.538 71.0969 139.239 70.989 138.928 70.9714C137.01 70.8645 135.11 70.558 133.256 70.0568ZM82.883 136.87L82.6479 136.722C76.8139 133.119 72.9203 127.646 70.8624 120.817C62.3316 92.04 94.1064 69.8218 116.795 87.2232L113.739 90.9288C110.511 88.5674 106.765 87.0113 102.814 86.3898C98.8626 85.7683 94.8201 86.0995 91.0227 87.3557C76.8203 92.0122 69.9649 107.792 75.754 121.34C77.7115 125.861 80.9482 129.71 85.0656 132.415C89.1829 135.119 94.0013 136.561 98.9274 136.562C121.802 136.562 132.775 108.565 116.207 92.9739L119.248 89.2876C130.352 99.6925 129.583 112.397 129.655 112.7C129.655 126.388 119.599 137.786 107.463 140.913C99.8677 142.872 91.0056 141.761 82.883 136.87ZM100.77 106.646C97.3418 105.078 93.5038 107.681 93.5038 111.529C93.5038 114.478 95.8224 116.872 98.6796 116.872C102.633 116.872 105.185 112.444 103.124 108.832L107.777 103.195C114.872 110.892 109.343 123.353 98.9296 123.353C92.3049 123.353 86.9112 117.91 86.9112 111.313C86.9112 101.889 97.3226 96.1323 105.311 101.144L100.77 106.646ZM107.369 98.6497C97.3632 91.978 83.7057 99.0985 83.7057 111.313C83.7057 115.115 85.1204 118.75 87.6762 121.545C96.9144 131.848 114.171 125.206 114.171 111.313C114.17 107.344 112.613 103.534 109.832 100.701L114.171 95.4442C116.318 97.4919 118.028 99.9541 119.197 102.682C120.365 105.41 120.968 108.346 120.968 111.313C120.968 123.469 111.08 133.356 98.9274 133.356C94.6276 133.355 90.4219 132.097 86.8279 129.736C83.2339 127.376 80.4083 124.016 78.6987 120.071C73.6533 108.262 79.607 94.4698 92.025 90.4009C95.3086 89.3151 98.8023 89.0209 102.221 89.5423C105.64 90.0638 108.887 91.386 111.698 93.4013L107.369 98.6497ZM36.5232 26.1033L42.2012 25.8298C42.2717 26.3426 42.3401 26.8576 42.4576 27.3598C42.566 27.7607 42.8258 28.1039 43.1822 28.317C43.5386 28.5302 43.9638 28.5966 44.3683 28.5025C44.7727 28.4083 45.1249 28.1608 45.3504 27.8121C45.576 27.4634 45.6575 27.0408 45.5776 26.6333C44.5561 22.2396 45.7507 17.0147 48.4198 14.211C50.8901 11.6209 54.4845 11.2833 57.1686 13.3989C59.6667 15.3692 61.2545 19.3205 61.2716 23.2739V23.2803C61.2738 23.9001 61.246 24.5198 61.1669 25.131C61.1402 25.3399 61.155 25.5521 61.2104 25.7553C61.2658 25.9585 61.3608 26.1488 61.4898 26.3154C61.6188 26.4819 61.7793 26.6213 61.9623 26.7257C62.1452 26.8302 62.347 26.8975 62.5559 26.9239C62.977 26.9726 63.4005 26.8545 63.7356 26.5948C64.0707 26.3352 64.2908 25.9547 64.3489 25.5348C64.3809 25.2677 64.3788 25.0006 64.4002 24.7313L70.1551 24.4535C70.1615 24.4535 70.4478 24.7078 70.4521 24.7078L70.6829 30.5076L70.6765 30.5525C70.6765 30.5696 70.6872 30.5824 70.6872 30.5974L70.7983 33.3754C70.8029 33.4377 70.795 33.5002 70.775 33.5593C70.755 33.6184 70.7234 33.6729 70.6819 33.7196C70.6405 33.7662 70.5901 33.8041 70.5337 33.8308C70.4773 33.8576 70.4162 33.8728 70.3538 33.8755L37.1322 35.7689C37.0716 35.7725 37.0109 35.764 36.9537 35.7438C36.8964 35.7236 36.8438 35.6922 36.7988 35.6513C36.7529 35.6104 36.7155 35.5609 36.6887 35.5055C36.662 35.4502 36.6464 35.3901 36.6428 35.3287L36.2753 26.3747C36.2724 26.3059 36.2968 26.2387 36.3433 26.1879C36.3897 26.137 36.4544 26.1066 36.5232 26.1033ZM23.323 121.498L19.829 34.1832L33.3647 33.6404L33.4395 35.4782C33.4627 35.9622 33.5815 36.4367 33.7889 36.8746C33.9963 37.3124 34.2882 37.7049 34.6479 38.0295C35.0076 38.3541 35.428 38.6042 35.8848 38.7657C36.3416 38.9271 36.8258 38.9966 37.3096 38.9701L70.529 37.0767C71.4965 37.0291 72.4055 36.5996 73.0566 35.8824C73.7076 35.1652 74.0475 34.219 74.0016 33.2515L73.9525 32.0249L87.4347 31.4821C87.6527 36.9442 86.6868 12.7941 89.3473 79.4232C88.7404 79.6455 88.1399 79.8805 87.5501 80.1413C74.1961 85.2551 66.2016 98.0236 66.3277 111.762C66.1461 114.431 66.285 117.126 66.7209 119.772L23.323 121.498ZM130.813 78.1175H126.014V72.3156L129.709 68.7383L130.311 71.6446C130.369 71.922 130.499 72.1791 130.689 72.3897C130.879 72.6003 131.121 72.7569 131.39 72.8435C132.6 73.2345 133.925 73.5487 135.286 73.7816L130.813 78.1175Z" fill="#0F172A"/>
<path d="M48.4433 56.611C52.3818 56.611 54.3478 55.2497 56.1877 53.1448C57.6922 51.4245 58.0277 51.1253 61.2738 51.9908C61.4875 52.0036 71.2278 55.207 80.8913 49.2768C81.254 49.0541 81.5134 48.6964 81.6124 48.2824C81.7114 47.8684 81.6419 47.432 81.4191 47.0693C81.1964 46.7066 80.8387 46.4472 80.4247 46.3482C80.0107 46.2492 79.5743 46.3187 79.2116 46.5415C74.3436 49.5333 68.1356 50.4629 62.6072 49.0289C58.9808 48.0587 57.8076 48.1827 56.4848 48.7725C52.6061 50.4992 54.1149 54.8159 44.2954 52.9311C39.1771 51.9501 34.1197 50.6743 29.1484 49.1101C28.9456 49.0386 28.7305 49.0087 28.5158 49.0221C28.3012 49.0355 28.0914 49.0919 27.8991 49.1881C27.7067 49.2843 27.5356 49.4181 27.3961 49.5818C27.2566 49.7454 27.1514 49.9355 27.0868 50.1406C27.0223 50.3458 26.9997 50.5618 27.0203 50.7759C27.041 50.9899 27.1046 51.1976 27.2072 51.3866C27.3099 51.5756 27.4495 51.742 27.6178 51.8759C27.7861 52.0098 27.9796 52.1085 28.1868 52.166C32.7728 53.6106 43.6992 56.611 48.4433 56.611ZM51.9971 76.3845C57.2199 73.3265 50.6722 74.115 79.3569 73.07C79.782 73.0544 80.1835 72.8706 80.473 72.559C80.7626 72.2474 80.9165 71.8336 80.9009 71.4085C80.8853 70.9834 80.7015 70.582 80.3899 70.2924C80.0783 70.0029 79.6645 69.849 79.2394 69.8645C49.999 70.933 56.2882 70.1488 50.373 73.6214C44.507 77.0705 36.551 71.0613 29.2339 71.3091C28.8095 71.3242 28.4084 71.5071 28.1188 71.8176C27.8291 72.1281 27.6745 72.5409 27.6889 72.9653C27.6949 73.176 27.7427 73.3834 27.8294 73.5755C27.9162 73.7676 28.0401 73.9406 28.1941 74.0845C28.3482 74.2284 28.5292 74.3403 28.7267 74.4137C28.9243 74.4872 29.1344 74.5208 29.345 74.5125C36.006 74.3116 44.6159 80.7183 51.9971 76.3845ZM58.0875 94.1984C56.9549 94.6258 55.5552 94.395 54.0807 94.1493C43.9193 92.4397 47.9475 99.2631 34.1917 93.9249C33.9947 93.8442 33.7835 93.8036 33.5706 93.8054C33.3577 93.8072 33.1473 93.8514 32.9516 93.9355C32.756 94.0195 32.579 94.1417 32.4312 94.2949C32.2833 94.4481 32.1674 94.6293 32.0903 94.8278C32.0132 95.0263 31.9764 95.2381 31.9821 95.451C31.9879 95.6638 32.0359 95.8734 32.1235 96.0675C32.2111 96.2616 32.3365 96.4362 32.4924 96.5813C32.6483 96.7264 32.8315 96.8389 33.0313 96.9124C36.1727 98.1305 39.2607 99.2011 42.323 99.2011C46.3234 99.2011 47.9689 97.4594 50.0738 97.0876C52.6446 96.6474 55.9334 98.4425 59.2265 97.1945C59.4256 97.1214 59.6082 97.0096 59.7638 96.8655C59.9193 96.7214 60.0447 96.5479 60.1327 96.3549C60.2207 96.162 60.2696 95.9535 60.2764 95.7416C60.2833 95.5296 60.248 95.3184 60.1726 95.1202C60.0973 94.922 59.9834 94.7407 59.8374 94.5869C59.6915 94.433 59.5165 94.3096 59.3226 94.2239C59.1286 94.1382 58.9196 94.0918 58.7076 94.0874C58.4956 94.083 58.2848 94.1208 58.0875 94.1984Z" fill="black"/>
</svg>
