<svg width="128" height="129" viewBox="0 0 128 129" fill="none" xmlns="http://www.w3.org/2000/svg">
<path d="M44.7012 69.059C44.2557 71.1324 44.5883 73.2973 45.6357 75.1414C46.6831 76.9854 48.3722 78.3798 50.3812 79.059C52.293 79.7938 54.3756 79.9638 56.3812 79.549C58.4109 79.1313 60.2559 78.081 61.6512 76.549C62.8774 75.1393 63.6632 73.4009 63.9112 71.549C64.1654 69.2195 63.7124 66.8675 62.6112 64.799C62.2812 64.169 62.7912 63.799 63.6912 64.079C64.3343 64.3241 64.9052 64.7276 65.351 65.252C65.7967 65.7764 66.1029 66.4048 66.2412 67.079C66.9565 70.0264 66.5502 73.1345 65.1012 75.799C64.375 77.0911 63.4273 78.2453 62.3012 79.209C61.1414 80.1428 59.8193 80.8547 58.4012 81.309C55.0093 82.4385 51.3091 82.1871 48.1012 80.609C46.354 79.6847 44.8917 78.3018 43.8712 76.609C42.8759 74.9758 42.3053 73.1193 42.2112 71.209C42.1032 68.2477 43.0172 65.3393 44.7999 62.9722C46.5825 60.605 49.1253 58.9232 52.0012 58.209C54.7027 57.5717 57.5462 58.0092 59.9312 59.429C60.4492 59.7244 60.944 60.0587 61.4112 60.429C63.1212 61.899 63.3412 62.649 63.1312 63.369C63.0975 63.5413 63.0438 63.7091 62.9712 63.869C62.8312 64.089 62.5512 64.099 62.1812 63.929C61.6913 63.6486 61.235 63.3131 60.8212 62.929C60.4412 62.569 60.0012 62.299 59.5912 61.929C59.1812 61.559 58.7412 61.379 58.2812 61.169C57.4004 60.7165 56.451 60.4124 55.4712 60.269C53.4932 60.0098 51.4869 60.4522 49.8012 61.519C48.4853 62.3211 47.3575 63.3972 46.4947 64.6741C45.6319 65.951 45.0543 67.3989 44.8012 68.919L44.7012 69.059Z" fill="#0F172A"/>
<path d="M33.2809 68.719C32.9304 71.7923 33.2721 74.905 34.2809 77.829C35.2347 80.7684 36.9089 83.4223 39.1509 85.549C40.7988 87.0748 42.692 88.3121 44.7509 89.209C48.4529 90.8993 52.5414 91.5628 56.5879 91.13C60.6345 90.6971 64.4901 89.184 67.7509 86.749C70.5687 84.5046 72.748 81.5598 74.0709 78.209C75.7018 73.8877 76.0694 69.1915 75.1309 64.669C74.8409 63.279 75.4709 63.229 76.3909 64.329C77.732 66.2018 78.3855 68.4801 78.2409 70.779C78.068 76.0642 76.1399 81.1414 72.7609 85.209C69.3867 89.2701 64.7002 92.0253 59.5109 92.999C53.2713 94.3048 46.7695 93.2727 41.2409 90.099C38.2364 88.3011 35.7247 85.786 33.9309 82.779C33.0399 81.2885 32.3378 79.6929 31.8409 78.029C31.5786 77.2048 31.3616 76.3669 31.1909 75.519C31.0509 74.669 30.9109 73.819 30.8509 72.959C30.6815 70.8462 30.7993 68.7202 31.2009 66.639C31.5831 64.563 32.2353 62.5458 33.1409 60.639C34.4824 57.7451 36.3431 55.1217 38.6309 52.899C40.8905 50.6593 43.5587 48.8737 46.4909 47.639C51.0517 45.6514 56.1786 45.3849 60.9209 46.889C61.949 47.2229 62.9516 47.6306 63.9209 48.109C67.4909 50.109 68.2309 51.269 68.4609 52.259C68.5285 52.4804 68.5721 52.7083 68.5909 52.939C68.5909 53.239 68.1709 53.209 67.5909 52.939C67.1826 52.7263 66.7914 52.4822 66.4209 52.209C65.9609 51.949 65.4209 51.649 64.8709 51.279C63.1516 50.2446 61.3019 49.4442 59.3709 48.899C57.4129 48.3977 55.3874 48.2121 53.3709 48.349C49.2587 48.689 45.3464 50.2685 42.1509 52.879C37.2258 56.784 34.0446 62.4779 33.3009 68.719H33.2809Z" fill="#0F172A"/>
<path d="M21.6408 66.329C20.8878 71.1756 21.2052 76.1282 22.5708 80.839C23.263 83.1815 24.2156 85.4389 25.4108 87.569C26.6173 89.6931 28.0928 91.6526 29.8008 93.399C32.3142 95.9517 35.251 98.0494 38.4808 99.599C44.2328 102.392 50.6268 103.597 57.0008 103.089C63.3952 102.641 69.5334 100.398 74.7108 96.619C79.2399 93.1818 82.788 88.6165 85.0008 83.379C87.7821 76.6632 88.479 69.2661 87.0008 62.149C86.5308 59.969 87.1808 60.029 88.2608 61.809C89.836 64.8765 90.5284 68.3211 90.2608 71.759C90.0757 75.7173 89.2448 79.6188 87.8008 83.309C86.2973 86.9847 84.2179 90.3974 81.6408 93.419C79.03 96.4231 75.917 98.9506 72.4408 100.889C68.9665 102.801 65.1985 104.122 61.2908 104.799C56.5762 105.619 51.7555 105.619 47.0408 104.799C44.654 104.364 42.3112 103.715 40.0408 102.859C37.788 101.972 35.6304 100.859 33.6008 99.539C29.1555 96.6252 25.5112 92.644 23.0008 87.959C20.5168 83.2753 19.1318 78.0876 18.9508 72.789C18.8254 69.5474 19.1451 66.3038 19.9008 63.149C20.6643 60.0277 21.792 57.007 23.2608 54.149C25.5232 49.8073 28.5364 45.9003 32.1608 42.609C35.8099 39.3626 40.0506 36.8501 44.6508 35.209C48.2102 33.9685 51.9623 33.3725 55.7308 33.449C59.4943 33.5512 63.2051 34.3585 66.6708 35.829C67.0608 35.989 67.4508 36.119 67.8208 36.299L68.9208 36.859C69.6693 37.2143 70.3972 37.6116 71.1008 38.049C72.9647 39.1945 74.7012 40.5354 76.2808 42.049C76.9804 42.7523 77.5373 43.5842 77.9208 44.499C78.0478 44.7893 78.1483 45.0906 78.2208 45.399C78.2208 45.769 77.7508 45.609 76.8508 44.989C76.4008 44.689 75.8508 44.269 75.2108 43.749C74.5708 43.229 73.7608 42.749 72.9208 42.069C70.3549 40.1846 67.5331 38.6761 64.5408 37.589C61.5276 36.4986 58.3548 35.914 55.1508 35.859C48.5828 35.8586 42.1873 37.9613 36.9008 41.859C32.9025 44.7363 29.5054 48.3678 26.9008 52.549C24.2593 56.7464 22.4908 61.433 21.7008 66.329H21.6408Z" fill="#0F172A"/>
<path d="M11.591 65.749C10.2501 75.0764 12.0066 84.5861 16.591 92.819C18.1439 95.5212 20.0175 98.026 22.171 100.279C23.7389 101.927 25.4526 103.43 27.291 104.769C29.1405 106.1 31.0896 107.287 33.121 108.319C47.421 115.699 65.851 114.929 79.361 105.859C85.3344 101.79 90.1565 96.2476 93.361 89.769C97.4007 81.4676 98.9133 72.1625 97.711 63.009C97.311 60.199 97.971 60.399 98.991 62.759C99.6267 64.4023 100.07 66.1137 100.311 67.859C100.624 70.3592 100.624 72.8888 100.311 75.389C99.0814 85.3002 94.7074 94.5562 87.831 101.799C84.4091 105.37 80.4097 108.338 76.001 110.579C71.5591 112.783 66.7971 114.271 61.891 114.989C58.9434 115.406 55.9677 115.594 52.991 115.549C49.9684 115.467 46.9579 115.132 43.991 114.549C38.0216 113.374 32.3451 111.026 27.291 107.639C21.7188 103.929 17.1528 98.8952 14.001 92.989C10.8956 87.1158 9.13317 80.6262 8.841 73.989C8.49892 65.8369 10.2186 57.7302 13.841 50.419C16.619 44.9225 20.3155 39.9408 24.771 35.689C29.2292 31.4777 34.4307 28.1309 40.111 25.819C44.502 24.0711 49.1585 23.0837 53.881 22.899C58.598 22.7429 63.3034 23.4582 67.761 25.009L69.241 25.499C69.731 25.669 70.181 25.909 70.661 26.109C71.591 26.539 72.561 26.929 73.481 27.419C80.281 31.229 81.791 33.419 82.641 34.849C82.8414 35.1692 83.0186 35.5034 83.171 35.849C83.271 36.269 82.671 36.049 81.521 35.299C80.951 34.929 80.231 34.419 79.411 33.789L76.411 31.789C73.0019 29.5885 69.2985 27.8815 65.411 26.719C61.4748 25.5912 57.3813 25.1116 53.291 25.299C49.1464 25.4976 45.0609 26.362 41.191 27.859C37.2868 29.4084 33.6181 31.4952 30.291 34.059L29.351 34.759L28.461 35.529L26.721 37.109L25.061 38.779C24.4944 39.3205 23.9602 39.8948 23.461 40.499L21.921 42.279C21.441 42.899 20.981 43.539 20.511 44.169C19.511 45.399 18.761 46.779 17.891 48.089C16.2868 50.7973 14.9473 53.6538 13.891 56.619C13.3557 58.0949 12.8951 59.5968 12.511 61.119C12.291 61.879 12.201 62.659 12.031 63.429C11.861 64.199 11.691 64.959 11.631 65.739L11.591 65.749Z" fill="#0F172A"/>
<path d="M79.811 55.019C77.701 56.319 75.591 57.639 73.501 59.019C72.741 59.509 72.031 60.079 71.261 60.559L63.161 65.689C61.961 66.459 60.821 67.309 59.701 68.159C58.3222 69.311 56.8391 70.3321 55.271 71.209C54.791 71.449 54.411 70.889 54.391 70.059C54.3709 69.5772 54.4593 69.097 54.6497 68.6539C54.8401 68.2108 55.1276 67.8161 55.491 67.499C58.3694 65.1725 61.4216 63.0697 64.621 61.209C66.621 60.109 68.381 58.639 70.261 57.359C72.341 55.959 74.451 54.589 76.551 53.209L80.431 50.689C82.381 49.399 84.381 48.159 86.281 46.819C87.771 45.819 89.121 44.619 90.561 43.539C90.881 43.309 91.171 43.039 91.501 42.819C92.761 42.029 93.301 41.989 94.021 42.589C94.181 42.729 94.361 42.859 94.501 43.009C94.971 43.529 94.751 44.329 93.971 45.069C91.5393 47.2873 88.9232 49.2945 86.151 51.069L79.861 55.149L79.811 55.019Z" fill="#0F172A"/>
<path d="M97.2412 51.749C93.1012 52.939 85.3613 49.209 85.3613 49.209C85.3613 49.209 83.9312 39.709 87.7512 36.509C88.2912 36.059 92.1912 32.969 94.7512 32.079C95.7512 31.729 93.2312 41.949 94.4612 42.889C94.4612 42.889 103.531 44.089 105.091 45.749L97.2412 51.749Z" fill="#0F172A"/>
<path d="M92.8512 38.049C93.0812 36.499 93.4712 34.049 93.4512 34.419C93.476 34.3375 93.476 34.2505 93.4512 34.169H93.2512L93.0112 34.269C93.0112 34.269 93.0112 34.269 92.9212 34.269L92.6612 34.419L92.1412 34.729C91.1412 35.359 90.1412 36.089 89.2212 36.799L88.5912 37.259C88.4212 37.409 88.3012 37.549 88.1412 37.679C87.9894 37.83 87.8552 37.9977 87.7412 38.179C87.6018 38.356 87.4811 38.547 87.3812 38.749C86.9243 39.6101 86.6071 40.5384 86.4412 41.499C86.0528 43.5481 85.9351 45.6393 86.0912 47.719V48.179V48.489L86.3312 48.609L86.6612 48.749C86.9912 48.899 87.3312 49.029 87.6612 49.169C88.3412 49.429 89.0312 49.669 89.7212 49.879C91.9084 50.5638 94.1895 50.9013 96.4812 50.879C97.1112 50.879 97.3012 51.429 96.7412 52.159C96.2875 52.6281 95.7259 52.9791 95.1053 53.1813C94.4848 53.3835 93.8242 53.4307 93.1812 53.319C91.6727 53.0808 90.1896 52.7025 88.7512 52.189C88.0412 51.949 87.3512 51.669 86.6612 51.379L85.6612 50.929L84.8112 50.529L83.9312 50.209C83.8712 49.699 83.8112 49.209 83.7612 48.669V48.319V48.109V47.689C83.7612 47.129 83.7612 46.569 83.7612 45.999C83.7668 44.865 83.8469 43.7325 84.0012 42.609C84.2233 40.9488 84.6918 39.331 85.3912 37.809C85.7833 36.9801 86.3297 36.2334 87.0012 35.609C87.6512 35.079 88.2612 34.609 88.9112 34.159C89.5612 33.709 90.3412 33.159 91.0912 32.729L91.6612 32.389C91.8712 32.269 92.2412 32.049 92.5212 31.919C93.078 31.6141 93.6687 31.3758 94.2812 31.209C94.5193 31.1654 94.7632 31.1654 95.0012 31.209C95.1044 31.1999 95.2081 31.1999 95.3112 31.209C95.4227 31.262 95.5139 31.3497 95.5712 31.459C95.8249 31.9092 95.943 32.4232 95.9112 32.939C95.8934 33.6092 95.8299 34.2774 95.7212 34.939L95.5312 36.209C95.3712 37.209 95.2112 38.269 95.0812 39.279C95.0212 39.789 94.9612 40.279 94.9312 40.789C94.9312 41.019 94.9312 41.329 94.9312 41.469C94.9213 41.6021 94.9213 41.7358 94.9312 41.869C94.9312 42.019 95.0212 42.219 95.2012 42.189L96.9612 42.499L99.0812 42.929C99.7912 43.079 100.491 43.239 101.201 43.419C102 43.6028 102.785 43.84 103.551 44.129L104.151 44.349L104.681 44.629C105.029 44.8112 105.363 45.0185 105.681 45.249C105.841 45.379 106.021 45.499 106.161 45.629L105.791 46.019L105.051 46.829L104.051 47.679L103.191 48.409L101.821 49.579C101.411 49.919 101.031 50.279 100.611 50.579C99.0612 51.829 98.4712 52.089 97.7412 51.839C97.5726 51.7944 97.4086 51.7342 97.2512 51.659C96.7912 51.389 97.1812 50.569 98.2512 49.569C99.0412 48.819 99.8512 48.089 100.691 47.359L101.951 46.279L102.101 46.149C102.101 46.149 102.001 46.149 101.991 46.149H101.911L101.141 45.929C100.621 45.789 100.081 45.669 99.5512 45.549C98.7312 45.369 97.8912 45.209 97.0612 45.049L95.8012 44.829L95.0012 44.549L93.7112 44.369C93.5912 44.219 93.4612 44.129 93.3612 43.989L93.0012 43.569C92.8055 43.2407 92.6764 42.8772 92.6212 42.499C92.5588 42.1155 92.5287 41.7275 92.5312 41.339C92.5312 41.099 92.5312 40.869 92.5312 40.639C92.5312 39.729 92.6812 38.879 92.7912 38.049H92.8512Z" fill="#0F172A"/>
<path d="M14.5109 93.419C17.7474 99.5844 22.5831 104.765 28.5109 108.419C30.6851 109.733 32.9665 110.86 35.3309 111.789C43.7679 115.145 52.9964 115.986 61.9009 114.209C65.8374 113.439 69.6385 112.091 73.1809 110.209C75.4338 109.006 77.5785 107.611 79.5909 106.039C81.5828 104.449 83.4732 102.735 85.2509 100.909C86.3709 99.789 86.7209 100.329 86.2509 101.759C85.921 102.713 85.4454 103.61 84.8409 104.419C84.4809 104.919 84.0709 105.419 83.6009 105.989C83.0919 106.505 82.5579 106.995 82.0009 107.459C73.2883 114.416 62.3245 117.932 51.1909 117.339C44.4653 117.074 37.8528 115.523 31.7109 112.769C24.9565 109.629 19.1559 104.753 14.9009 98.639C14.2109 97.739 13.6909 96.719 13.0809 95.759C12.4709 94.799 12.0309 93.759 11.5009 92.759C10.9709 91.759 10.6009 90.669 10.2009 89.619C9.80092 88.569 9.45092 87.479 9.12092 86.409C7.22171 79.8159 6.7916 72.8864 7.86092 66.109C8.25184 63.519 8.82323 60.9594 9.57092 58.449C10.3453 55.9673 11.3046 53.5472 12.4409 51.209C12.922 50.182 13.4561 49.1807 14.0409 48.209C16.2609 44.499 17.3409 43.569 18.3809 43.209C18.608 43.1198 18.8422 43.0495 19.0809 42.999C19.4009 42.999 19.3809 43.399 19.0809 44.119C18.7809 44.839 18.1409 45.829 17.3909 47.119C15.0073 51.0157 13.1193 55.1947 11.7709 59.559C10.4109 64.0238 9.70359 68.6618 9.67092 73.329C9.65404 80.3248 11.3391 87.2197 14.5809 93.419H14.5109Z" fill="#0F172A"/>
<path d="M53.3612 72.629C52.9631 72.5528 52.6024 72.3445 52.3374 72.0378C52.0725 71.7311 51.9188 71.3439 51.9012 70.939C51.8978 70.6357 51.9936 70.3396 52.1742 70.0958C52.3547 69.8521 52.6101 69.6741 52.9012 69.589C53.1058 69.5833 53.3093 69.6204 53.4987 69.6979C53.6882 69.7754 53.8593 69.8915 54.0012 70.039C54.0012 70.189 54.1912 70.289 54.2812 70.269H54.1512L54.2212 70.199C54.2683 70.1301 54.2991 70.0515 54.3112 69.969C54.3112 69.899 54.3112 69.899 54.3112 69.969C54.3112 70.039 54.3112 69.969 54.1512 69.839C54.0955 69.8011 54.035 69.7709 53.9712 69.749L53.8612 69.699C54.1217 69.7255 54.3844 69.6806 54.6212 69.569C54.7112 69.509 54.6212 69.569 54.6212 69.639C54.5915 69.7774 54.5915 69.9206 54.6212 70.059C54.6365 70.2145 54.6771 70.3665 54.7412 70.509C54.7731 70.5928 54.8133 70.6732 54.8612 70.749V70.809C54.8612 70.809 54.9312 70.909 54.7312 70.659L54.5012 70.419L54.1612 70.209C54.0975 70.1478 54.0271 70.0942 53.9512 70.049L53.8112 69.939C53.7309 69.89 53.6474 69.8466 53.5612 69.809C53.2712 69.809 53.6612 69.809 54.0012 69.539C54.2814 69.3201 54.5073 69.0395 54.6612 68.719C54.7112 68.589 54.6612 68.719 54.6612 68.999C54.659 69.1472 54.6897 69.2941 54.7512 69.429C54.5925 69.2559 54.398 69.1194 54.1812 69.029L54.0012 68.929C54.0057 68.8724 54.0057 68.8156 54.0012 68.759C54.0164 68.5626 54.0164 68.3654 54.0012 68.169C54.0012 68.049 54.0012 67.879 53.9112 67.829C53.8809 67.7302 53.8125 67.6474 53.7212 67.599C53.5142 67.4891 53.3004 67.3922 53.0812 67.309C52.4497 67.1542 51.7832 67.2397 51.2112 67.549C50.9675 67.677 50.7556 67.8582 50.5912 68.079C50.398 68.3409 50.2462 68.6309 50.1412 68.939C50.0407 69.1619 50.0195 69.4124 50.0812 69.649C50.1132 70.3952 50.2238 71.136 50.4112 71.859C50.5393 72.2577 50.7318 72.6326 50.9812 72.969C51.2012 73.299 51.3612 73.439 51.4112 73.529C51.6538 73.9422 52.0487 74.2438 52.5112 74.369C53.1989 74.5272 53.9135 74.5272 54.6012 74.369C54.8212 74.369 55.0312 74.189 55.3112 74.279C55.6027 74.3478 55.9058 74.3502 56.1983 74.2862C56.4908 74.2221 56.7652 74.0932 57.0012 73.909L59.1812 72.909C59.5939 72.7591 60.0188 72.6453 60.4512 72.569C60.8412 72.459 61.0812 73.039 61.0212 73.179C60.8412 73.569 61.2712 73.589 61.4612 73.749C61.5316 73.8056 61.5924 73.8731 61.6412 73.949C61.1489 74.7659 60.5651 75.5241 59.9012 76.209C59.1489 77.0628 58.2602 77.786 57.2712 78.349C57.2212 78.349 56.7512 78.629 55.9112 78.919C54.8266 79.3261 53.6797 79.5427 52.5212 79.559C51.1216 79.5975 49.7381 79.2516 48.5212 78.559C47.8236 78.1467 47.1874 77.6384 46.6312 77.049C46.1934 76.5886 45.8532 76.0443 45.6312 75.449C45.3928 74.9957 45.1824 74.5281 45.0012 74.049C44.0956 71.7486 44.0742 69.1942 44.9412 66.879C45.3009 66.0595 45.7647 65.2898 46.3212 64.589C46.9409 63.8456 47.7543 63.2884 48.6712 62.979C49.0121 62.8616 49.346 62.7247 49.6712 62.569C51.0343 61.982 52.5379 61.8014 54.0012 62.049C54.3997 62.1125 54.7914 62.2129 55.1712 62.349C55.5681 62.4827 55.9501 62.657 56.3112 62.869C56.6932 63.0962 57.0516 63.3609 57.3812 63.659C57.7061 63.9822 57.9976 64.3373 58.2512 64.719C58.4948 65.0992 58.696 65.505 58.8512 65.929C59.0114 66.3418 59.1255 66.7711 59.1912 67.209L59.2712 67.809C59.2808 67.9889 59.2808 68.1691 59.2712 68.349C59.2852 68.73 59.2651 69.1115 59.2112 69.489C59.1553 69.7885 59.0646 70.0804 58.9412 70.359C58.786 70.7618 58.5952 71.15 58.3712 71.519C58.0467 72.0852 57.5948 72.5679 57.0512 72.929C56.5021 73.2943 55.8756 73.527 55.2212 73.609C54.04 73.7431 52.8508 73.4369 51.8812 72.749C51.2889 72.337 50.8217 71.7695 50.5312 71.109C50.3464 70.67 50.2579 70.1964 50.2717 69.7203C50.2855 69.2442 50.4013 68.7766 50.6112 68.349C50.9385 67.7302 51.4165 67.2039 52.0012 66.819C52.4793 66.4712 53.0188 66.2168 53.5912 66.069C54.1642 65.9135 54.7683 65.9135 55.3412 66.069C55.837 66.2133 56.2935 66.4683 56.6763 66.8147C57.0592 67.1612 57.3583 67.5901 57.5512 68.069C57.8544 68.8418 57.8896 69.6939 57.6512 70.489C57.5027 71.004 57.2695 71.4906 56.9612 71.929C56.5085 72.4603 55.8662 72.7939 55.1712 72.859C54.5584 72.9111 53.9415 72.8328 53.3612 72.629Z" fill="#FCEAD9"/>
<path d="M97.7304 22.019C97.8404 22.179 97.6304 22.309 97.2304 22.429C97.0433 22.4756 96.8476 22.4756 96.6604 22.429C96.558 22.3528 96.4641 22.2656 96.3804 22.169C96.3804 22.109 96.1204 21.229 96.0304 20.929C95.9514 20.6457 95.911 20.3531 95.9104 20.059L95.8104 18.289C95.7907 18.1598 95.7907 18.0283 95.8104 17.899C95.9216 17.4614 95.9487 17.0067 95.8904 16.559C95.895 16.4765 95.8702 16.395 95.8204 16.329C95.7115 15.8401 95.6878 15.336 95.7504 14.839C95.8802 14.4515 95.9904 14.0576 96.0804 13.659C96.0804 13.659 96.0804 13.549 96.1604 13.499C96.2404 13.449 96.3204 13.259 96.3304 13.139C96.3562 12.966 96.3963 12.7954 96.4504 12.629C96.4504 12.549 96.6004 12.469 96.6904 12.389C96.7804 12.309 97.0604 12.389 97.0904 12.389C97.1204 12.389 97.3304 12.389 97.4504 12.389H97.5804C97.819 12.7229 98.0139 13.0858 98.1604 13.469L98.2404 14.219C98.2404 14.599 98.3404 14.989 98.3604 15.069C98.3646 15.1564 98.3438 15.2431 98.3004 15.319C98.3004 15.319 98.4604 16.489 98.4504 16.529C98.4504 16.769 98.5004 16.999 98.3204 17.229C98.3065 17.2746 98.3065 17.3234 98.3204 17.369C98.3186 17.7748 98.2818 18.1796 98.2104 18.579C98.2104 18.779 98.2104 18.989 98.2104 19.189C98.2202 19.225 98.2202 19.263 98.2104 19.299C98.2068 19.3456 98.2068 19.3924 98.2104 19.439C98.1755 19.925 98.1755 20.413 98.2104 20.899C98.2104 21.009 98.0204 21.549 98.0404 21.679C98.0604 21.809 97.6804 21.949 97.7304 22.019Z" fill="#0F172A"/>
<path d="M108.621 34.069C108.571 34.279 108.311 34.199 107.891 33.979C107.712 33.8601 107.562 33.703 107.451 33.519C107.435 33.3627 107.435 33.2053 107.451 33.049C107.758 32.5991 108.092 32.1683 108.451 31.759C108.689 31.4821 108.961 31.2368 109.261 31.029C109.861 30.589 110.451 30.159 111.061 29.759C111.194 29.6664 111.344 29.5987 111.501 29.559C112.03 29.3828 112.529 29.1264 112.981 28.799C113.061 28.749 113.151 28.719 113.191 28.609C113.673 28.2072 114.221 27.8925 114.811 27.679C115.313 27.5764 115.821 27.4996 116.331 27.449C116.401 27.449 116.461 27.389 116.551 27.449C116.628 27.4901 116.714 27.5117 116.801 27.5117C116.888 27.5117 116.974 27.4901 117.051 27.449C117.27 27.4186 117.492 27.4186 117.711 27.449C117.837 27.478 117.958 27.5252 118.071 27.589C118.181 27.639 118.191 27.909 118.171 27.939C118.151 27.969 118.171 28.149 118.231 28.249C118.239 28.2852 118.239 28.3228 118.231 28.359C117.937 28.7099 117.623 29.0437 117.291 29.359C117.291 29.359 116.931 29.559 116.571 29.809C116.211 30.059 115.821 30.259 115.751 30.319C115.662 30.3677 115.562 30.3918 115.461 30.389C115.461 30.389 114.331 31.139 114.291 31.159C114.041 31.269 113.841 31.469 113.521 31.439C113.463 31.4418 113.407 31.4628 113.361 31.499C112.961 31.738 112.547 31.9517 112.121 32.139C111.908 32.2502 111.705 32.3772 111.511 32.519H111.381C111.328 32.5102 111.274 32.5102 111.221 32.519C110.738 32.8195 110.277 33.1537 109.841 33.519C109.761 33.609 109.141 33.809 109.051 33.929C108.961 34.049 108.641 33.979 108.621 34.069Z" fill="#0F172A"/>
<path d="M110.35 47.579C110.13 47.579 110.18 47.269 110.35 46.849C110.462 46.6633 110.612 46.5032 110.79 46.379C110.927 46.3406 111.068 46.3139 111.21 46.299C111.29 46.299 112.11 46.629 112.42 46.679C112.692 46.7408 112.954 46.8383 113.2 46.969C113.71 47.199 114.2 47.449 114.73 47.649C114.848 47.7 114.956 47.771 115.05 47.859C115.39 48.1505 115.8 48.3472 116.24 48.429C116.31 48.429 116.38 48.479 116.47 48.429C116.97 48.4574 117.462 48.5759 117.92 48.779C118.26 49.039 118.62 49.259 118.92 49.509C118.92 49.509 119.04 49.509 119.07 49.649C119.1 49.789 119.25 49.909 119.37 49.959C119.546 50.0292 119.703 50.1386 119.83 50.279C119.901 50.3848 119.958 50.4991 120 50.619C120.016 50.7664 119.981 50.9148 119.9 51.039C119.8 51.109 119.82 51.269 119.79 51.399V51.529C119.593 51.6442 119.385 51.7413 119.17 51.819C118.952 51.892 118.728 51.9455 118.5 51.979L117.69 51.899L116.78 51.759C116.69 51.759 116.62 51.679 116.54 51.609C116.46 51.539 115.28 51.379 115.23 51.339C114.99 51.229 114.72 51.209 114.55 50.929C114.537 50.9059 114.518 50.8865 114.495 50.8725C114.472 50.8585 114.447 50.8505 114.42 50.849C113.998 50.6762 113.595 50.4582 113.22 50.199C113.02 50.0804 112.813 49.9736 112.6 49.879C112.569 49.8498 112.542 49.8161 112.52 49.779C112.52 49.779 112.45 49.689 112.4 49.669C111.91 49.399 111.52 48.999 111.03 48.739C110.91 48.679 110.58 48.119 110.45 48.049C110.32 47.979 110.43 47.579 110.35 47.579Z" fill="#0F172A"/>
</svg>
