<svg width="365" height="21" viewBox="0 0 365 21" fill="none" xmlns="http://www.w3.org/2000/svg">
<path d="M1.44065 1.5807C120.628 -3.47625 243.473 9.99612 363.613 3.50454C364.838 3.43858 364.949 4.79076 363.732 4.8952C244.239 15.0476 121.47 1.30586 1.57673 2.95487C0.360527 2.98785 0.215947 1.63567 1.44065 1.5807Z" fill="#0F172A"/>
<path d="M186.363 17.5925C225.188 17.4551 265.187 17.7959 304.054 18.0652C305.355 18.0652 305.5 18.9007 304.216 18.9722C265.28 21.1379 225.426 20.7806 186.287 18.4995C184.994 18.428 185.062 17.598 186.363 17.5925Z" fill="#0F172A"/>
<path d="M176.242 17.6311C170.736 17.698 165.232 17.4682 159.785 16.944C157.735 16.7461 157.99 15.7897 160.1 15.7622C165.603 15.6955 171.104 15.9254 176.548 16.4493C178.598 16.6472 178.351 17.6036 176.242 17.6311Z" fill="#0F172A"/>
</svg>
