<svg width="56" height="55" viewBox="0 0 56 55" fill="none" xmlns="http://www.w3.org/2000/svg">
<path d="M13.9751 37.3314C13.7451 37.8063 13.5849 38.3118 13.4996 38.8325C13.3735 39.5543 13.3277 40.3507 13.2246 41.2445C13.1906 41.608 13.1371 41.9695 13.0641 42.3273C13.0641 42.4247 13.0126 42.5278 12.9725 42.6481C12.9312 42.7736 12.8815 42.8961 12.8235 43.0148C12.7525 43.161 12.666 43.2993 12.5657 43.4273C12.3873 43.6417 12.164 43.8144 11.9116 43.9332C11.6591 44.052 11.3837 44.114 11.1048 44.1148C10.7604 44.1131 10.4233 44.0159 10.1308 43.834C9.75004 43.5714 9.45195 43.2058 9.27144 42.7799C9.04489 42.2479 8.89445 41.6866 8.82456 41.1127L8.773 40.7288C8.773 40.6773 8.773 40.5856 8.773 40.5627V40.196C8.773 39.9898 8.773 39.7491 8.773 39.4971C8.77856 39.3864 8.77856 39.2755 8.773 39.1648C8.773 38.8898 8.50373 38.6778 8.30894 38.8497C8.13459 39.0187 8.00301 39.2269 7.92508 39.457C7.83116 39.7263 7.75649 40.002 7.70165 40.282L7.65581 40.4538V40.5455L7.58133 40.746C7.48967 40.9924 7.39227 41.2387 7.3006 41.4908C7.24331 41.6283 7.11154 41.6455 6.92248 41.6741C6.79697 41.6851 6.67056 41.6698 6.55123 41.6294C6.43191 41.5889 6.32228 41.5242 6.22925 41.4392C5.97962 41.21 5.78395 40.9282 5.65633 40.6142C5.56619 40.4537 5.49688 40.2824 5.45008 40.1043C5.44397 39.7797 5.47085 39.4553 5.53029 39.1361C5.6163 38.6593 5.73304 38.1885 5.87977 37.7267C6.0142 37.3191 6.20719 36.9331 6.45269 36.5809C6.63673 36.2948 6.85833 36.0347 7.11154 35.8075C7.31428 35.6327 7.53977 35.4862 7.78185 35.3721C8.01592 35.2682 8.26573 35.2043 8.52092 35.183C8.82175 35.1555 9.12494 35.1946 9.40894 35.2976C9.54506 35.3533 9.67715 35.4184 9.80425 35.4924C9.89252 35.5578 9.97671 35.6286 10.0563 35.7043C10.21 35.8674 10.3463 36.046 10.4631 36.2372C10.5547 36.4224 10.6332 36.6139 10.698 36.8101C10.7723 37.0718 10.8183 37.3407 10.8355 37.6122C10.8928 38.1851 10.8928 38.8439 10.9157 39.4169V39.9153L10.9444 40.3221C10.9444 40.4939 10.973 40.6601 10.9959 40.8262C11.035 41.1239 11.1081 41.416 11.2136 41.6971C11.2389 41.7757 11.2776 41.8494 11.3282 41.9148C11.3626 41.9148 11.2709 41.9606 11.2194 42.0236L11.1391 42.1267L11.0933 42.184C11.0807 42.2064 11.0692 42.2293 11.0589 42.2528V42.1554V42.0866C11.0589 42.0523 11.122 42.3846 11.0876 42.2413C11.0876 42.1955 11.0876 42.2413 11.0246 42.1668L10.9558 42.1038H10.9214L10.8584 42.058C10.8094 42.0144 10.7532 41.9795 10.6923 41.9549C10.6949 41.9263 10.6949 41.8975 10.6923 41.8689C10.775 41.5558 10.8268 41.2354 10.847 40.9122L10.9386 39.6976C10.9799 38.7967 11.1299 37.9041 11.3855 37.0392C11.6158 36.3799 12.0415 35.8064 12.6058 35.395C12.909 35.1928 13.2501 35.0544 13.6084 34.9882C13.972 34.9024 14.3506 34.9024 14.7141 34.9882C15.2301 35.1239 15.6944 35.4089 16.049 35.8075C16.3497 36.1387 16.6076 36.5063 16.8167 36.9017C17.1943 37.6196 17.5272 38.3601 17.8136 39.1189C18.2622 40.2165 18.769 41.2894 19.3319 42.333C19.4464 42.5564 19.5897 42.757 19.6985 42.9575C19.8933 43.3413 19.9907 43.5705 19.9334 43.7767C19.8127 44.054 19.6418 44.3065 19.4292 44.5215C19.3147 44.659 19.2173 44.8195 19.1084 44.9627C19.0206 45.0836 18.9001 45.177 18.7611 45.2318C18.622 45.2866 18.4702 45.3006 18.3235 45.2721C18.1324 45.2432 17.9489 45.1766 17.7837 45.0763C17.6185 44.976 17.4748 44.8439 17.361 44.6877C16.7221 43.7209 16.2298 42.6648 15.9001 41.5538C15.5621 40.5226 15.2928 39.4913 14.9605 38.5976C14.8469 38.2966 14.7169 38.002 14.5709 37.7153C14.4802 37.5464 14.3727 37.3871 14.2501 37.2398C14.2042 37.1939 14.2501 37.1653 14.1756 37.2398C14.1011 37.3142 14.0667 37.3314 14.0209 37.4116L13.9751 37.3314Z" fill="#0772BA"/>
<path d="M40.8676 26.3544L42.1452 25.4721L43.3827 24.5382C43.8066 24.2403 44.1905 23.908 44.5915 23.5815C44.9926 23.2549 45.3821 22.9284 45.7373 22.5846C46.4684 21.9454 47.1484 21.25 47.7712 20.5049C48.316 19.8679 48.7306 19.1302 48.9915 18.3336C49.1312 17.8453 49.1528 17.3308 49.0545 16.8325C48.9308 16.3376 48.7065 15.8735 48.3957 15.469C47.6773 14.5852 46.7789 13.8645 45.7603 13.3549C44.6079 12.7581 43.3912 12.2948 42.1337 11.9742C39.4877 11.314 36.7713 10.9773 34.0441 10.9716C31.585 10.9753 29.1284 11.1283 26.6879 11.4299C23.5597 11.8023 20.4259 12.3179 17.3207 12.9596C16.3525 13.1429 16.4556 13.0169 17.229 12.6617C17.6129 12.4841 18.1686 12.2492 18.8446 11.9742C19.5207 11.6992 20.3228 11.4013 21.2051 11.1435L23.5655 10.456C24.3561 10.2497 25.1525 10.032 25.9545 9.83721C27.5705 9.43257 29.2104 9.13024 30.8644 8.932C34.2024 8.47644 37.5868 8.47644 40.9248 8.932C43.0332 9.21411 45.1031 9.73301 47.0952 10.4789C48.1769 10.9071 49.1858 11.5004 50.0858 12.2377C51.09 13.0482 51.8595 14.1124 52.3144 15.32C52.7859 16.6942 52.81 18.1824 52.3832 19.5711C51.9948 20.8179 51.3812 21.983 50.5728 23.0086C49.0926 24.797 47.4233 26.4202 45.5941 27.8497C43.4069 29.5724 41.0849 31.1166 38.6504 32.4674C34.975 34.4911 31.0982 36.1252 27.0832 37.3429C26.3212 37.6294 25.542 37.8242 24.7915 38.0648C24.041 38.3054 23.2618 38.5632 22.4999 38.758C20.9472 39.1247 19.4004 39.606 17.7962 39.8294C17.0972 39.9497 16.4155 40.1044 15.6993 40.2018C15.143 40.2765 14.5805 40.2938 14.0207 40.2534C13.6328 40.2429 13.2477 40.1832 12.8749 40.0757C12.602 40.003 12.3482 39.8722 12.1306 39.6922C11.9131 39.5123 11.737 39.2874 11.6144 39.033C11.4719 38.8033 11.3493 38.5618 11.2478 38.3112C11.0071 37.4976 12.0384 36.7643 13.8316 36.3976C15.1665 36.1742 16.4957 35.8247 17.842 35.5898C18.5181 35.481 19.1827 35.3034 19.853 35.1372L21.8639 34.6731C24.561 33.9821 27.2145 33.1308 29.8103 32.1237C33.6954 30.6245 37.3865 28.6645 40.8045 26.2856L40.8676 26.3544Z" fill="#0772BA"/>
<path d="M14.5936 46.4063C12.3913 45.9878 10.2319 45.3684 8.14256 44.5558C7.31373 44.2586 6.51867 43.8745 5.77069 43.41C4.94173 42.89 4.28264 42.1393 3.87433 41.2501C3.65371 40.7055 3.59213 40.1095 3.69673 39.5313C3.79632 39.0055 4.01159 38.5085 4.32694 38.0761C4.56385 37.7638 4.81625 37.4636 5.08319 37.1766C5.32954 36.9074 5.59881 36.6553 5.8509 36.3975C6.38944 35.899 6.92798 35.4178 7.49517 34.9881C8.48631 34.1975 9.50038 33.4871 10.4342 32.748C11.6431 31.7969 12.6801 30.7886 13.8717 29.8834C14.2384 29.6027 14.6509 30.0037 14.8113 30.6969C14.9094 31.1208 14.9023 31.5623 14.7904 31.9827C14.6786 32.4032 14.4654 32.7898 14.1696 33.1089C13.0005 34.2319 11.7605 35.2787 10.4571 36.2428C9.259 37.1003 8.11126 38.0261 7.01965 39.0157C6.77451 39.2211 6.56202 39.4626 6.38944 39.7318C6.35283 39.7996 6.33367 39.8754 6.33367 39.9524C6.33367 40.0294 6.35283 40.1052 6.38944 40.173C6.51645 40.4054 6.69962 40.6024 6.92225 40.7459C7.24463 40.9812 7.5879 41.1864 7.94777 41.3589C9.77164 42.2231 11.6962 42.8563 13.6769 43.2438C14.3014 43.3756 14.9374 43.4959 15.5676 43.6048L16.5243 43.7537L17.1259 43.8397C17.3837 43.8397 17.6587 43.9027 17.9394 43.9084C18.1228 43.9542 18.1514 43.7709 18.1514 43.6506C18.1627 43.5171 18.1627 43.383 18.1514 43.2495C18.1124 42.9616 18.055 42.6765 17.9795 42.3959C17.8535 41.9318 17.7103 41.462 17.5556 40.998C17.0743 39.56 16.4098 38.2079 15.7795 36.8157C15.642 36.5063 15.4816 36.2428 15.3613 35.899C14.9087 34.7246 14.966 34.2548 15.6363 33.7563C15.7802 33.6354 15.9334 33.5262 16.0946 33.4298C16.6676 33.149 17.2405 33.4298 17.7217 34.249C18.4379 35.4628 19.0659 36.7265 19.6009 38.0303C19.8759 38.6949 20.1452 39.3766 20.3743 40.0813C20.4889 40.4308 20.5978 40.7917 20.7009 41.1584L20.867 41.76C20.953 42.1037 21.0446 42.4475 21.1077 42.7969C21.3254 43.8282 21.4113 44.8709 21.0561 45.5641L20.9358 45.8334C20.8879 45.9221 20.8323 46.0065 20.7696 46.0855L20.7181 46.1428V46.1772C20.7181 46.1485 20.7754 46.2344 20.6493 46.1199L20.5405 46.2115L20.34 46.3777C20.2111 46.5107 20.0622 46.6228 19.8988 46.71C19.6891 46.7868 19.4688 46.8312 19.2457 46.8417C18.7347 46.8814 18.2213 46.8814 17.7103 46.8417L16.9196 46.7615L16.2952 46.687C15.7223 46.6126 15.1837 46.5266 14.6337 46.435L14.5936 46.4063Z" fill="#0772BA"/>
</svg>
