<svg width="128" height="129" viewBox="0 0 128 129" fill="none" xmlns="http://www.w3.org/2000/svg">
<path d="M70.7193 19.8655C69.1293 17.2555 69.7193 16.2355 74.5993 13.0755C79.4793 9.9155 74.5293 8.6055 74.5293 8.6055C68.8493 8.1755 65.1593 10.7555 63.5293 12.9455C61.8993 15.1355 64.6693 19.5255 64.6693 19.5255L70.7193 19.8655Z" fill="#221F1F"/>
<path d="M30.9295 50.0055C27.7283 55.0846 25.756 60.8405 25.1695 66.8155L24.9995 68.4455C24.9995 68.9855 24.9995 69.5355 24.9995 70.0855C24.976 71.1734 25.0127 72.2617 25.1095 73.3455C25.3643 77.2103 26.2283 81.0105 27.6695 84.6055C28.0595 85.4855 28.3395 86.4155 28.8095 87.2655L30.1595 89.8255C31.144 91.4884 32.2503 93.0761 33.4695 94.5755C34.5573 95.9062 35.7369 97.1593 36.9995 98.3255C37.6295 98.9055 38.3095 99.4255 38.9995 99.9855L39.9995 100.796C40.3395 101.056 40.6995 101.276 40.9995 101.516C44.6115 104.004 48.5986 105.898 52.8095 107.126C54.0995 107.566 53.8595 107.845 52.6395 107.826C51.8099 107.799 50.9839 107.705 50.1695 107.546C49.0169 107.294 47.894 106.922 46.8195 106.436C38.2517 102.627 31.3629 95.831 27.4395 87.3155C25.0606 82.1521 23.7835 76.5498 23.6895 70.8655C23.6895 70.0855 23.6895 69.3055 23.6895 68.5255L23.9195 66.2055C24.0787 64.6568 24.3392 63.1201 24.6995 61.6055C24.8522 60.8394 25.056 60.0844 25.3095 59.3455L25.9995 57.1155L26.8795 54.9655C27.1715 54.2368 27.5054 53.5257 27.8795 52.8355L29.2195 50.2955C29.7095 49.4855 30.2195 48.6955 30.7695 47.8855C31.2741 47.0912 31.8285 46.3297 32.4295 45.6055C32.9956 44.8368 33.6067 44.1022 34.2595 43.4055C38.1479 39.1085 42.8705 35.6483 48.1395 33.2355C52.1817 31.4142 56.5024 30.2884 60.9195 29.9055L62.3695 29.7655C62.8595 29.7655 63.3695 29.7655 63.8295 29.7655L66.1395 29.8255C66.7695 29.9055 67.2695 29.9955 67.6895 30.0755C68.2678 30.1706 68.8257 30.3634 69.3395 30.6455C69.5048 30.7297 69.6593 30.8338 69.7995 30.9555C70.0895 31.2655 68.6095 31.3055 66.0495 31.0655C58.0755 30.7767 50.2049 32.9407 43.4995 37.2655C38.4271 40.5215 34.1544 44.8797 30.9995 50.0155L30.9295 50.0055Z" fill="#221F1F"/>
<path d="M70.8399 33.2955C70.7399 33.1055 70.9799 32.9955 71.4299 32.9255C71.6408 32.9049 71.8536 32.9358 72.0499 33.0155C72.1509 33.1124 72.2414 33.2197 72.3199 33.3355C72.3199 33.3955 72.4399 34.3355 72.4899 34.6755C72.5301 34.9842 72.5301 35.2968 72.4899 35.6055C72.4199 36.2355 72.3599 36.8555 72.2899 37.4755C72.2734 37.6168 72.2364 37.7549 72.1799 37.8855C72.0083 38.3365 71.9137 38.8131 71.8999 39.2955C71.8754 39.3736 71.8754 39.4574 71.8999 39.5355C71.9421 40.0696 71.8948 40.607 71.7599 41.1255C71.5899 41.5255 71.4599 41.9255 71.3099 42.3355C71.3099 42.3855 71.3099 42.4555 71.2199 42.4955C71.1563 42.5309 71.1039 42.5833 71.0685 42.647C71.0332 42.7106 71.0163 42.7828 71.0199 42.8555C70.9842 43.0363 70.9236 43.2113 70.8399 43.3755C70.8399 43.4655 70.6899 43.5355 70.5999 43.6155C70.5099 43.6955 70.2599 43.6155 70.2399 43.6155C70.2199 43.6155 70.0299 43.6155 69.9199 43.6155H69.8099C69.6265 43.2314 69.4954 42.8244 69.4199 42.4055C69.4199 42.4055 69.4199 40.8755 69.4199 40.6955C69.423 40.6033 69.4507 40.5135 69.4999 40.4355C69.4999 40.4355 69.4999 39.1855 69.4999 39.1355C69.4999 38.8955 69.4999 38.6355 69.6899 38.4155C69.6899 38.4155 69.6899 38.3155 69.6899 38.2655C69.7583 37.8049 69.8619 37.3502 69.9999 36.9055C69.9999 36.6955 69.9999 36.4755 70.0799 36.2555C70.0799 36.2555 70.0799 36.1855 70.0799 36.1455C70.1041 36.1008 70.1242 36.0539 70.1399 36.0055C70.1399 35.4855 70.3199 35.0055 70.2999 34.4555C70.2999 34.3355 70.5599 33.7955 70.5499 33.6555C70.5399 33.5155 70.8799 33.3655 70.8399 33.2955Z" fill="#F39F51"/>
<path d="M104.12 74.2455C104.3 74.1355 104.41 74.3755 104.48 74.8255C104.497 75.0363 104.466 75.2483 104.39 75.4455C104.296 75.5494 104.192 75.6433 104.08 75.7255C104.02 75.7255 103.08 75.8555 102.77 75.9055C102.468 75.9506 102.161 75.9506 101.86 75.9055C101.26 75.8355 100.65 75.7855 100.04 75.7255C99.9029 75.7076 99.7687 75.6741 99.6397 75.6255C99.1999 75.4524 98.7322 75.3609 98.2597 75.3555C98.1848 75.3318 98.1045 75.3318 98.0297 75.3555C97.5099 75.3995 96.9865 75.3589 96.4797 75.2355C96.0897 75.0655 95.6997 74.9355 95.2997 74.7955C95.2997 74.7955 95.1797 74.7955 95.1397 74.7055C95.0997 74.6155 94.9097 74.5355 94.7897 74.5055C94.6141 74.467 94.4432 74.4101 94.2797 74.3355C94.1884 74.2709 94.1104 74.1894 94.0497 74.0955C93.9797 74.0155 94.0497 73.7555 94.0497 73.7355C94.0497 73.7155 94.0497 73.5255 94.0497 73.4155C94.0443 73.3757 94.0443 73.3353 94.0497 73.2955C94.421 73.115 94.8143 72.9839 95.2197 72.9055C95.2197 72.9055 96.7197 72.9055 96.8897 72.9055C96.9772 72.91 97.0626 72.9339 97.1397 72.9755C97.1397 72.9755 98.3597 72.9755 98.4097 72.9755C98.6497 72.9755 98.8997 72.9755 99.1197 73.1655C99.1651 73.1808 99.2142 73.1808 99.2597 73.1655C99.6749 73.2006 100.086 73.2708 100.49 73.3755C100.7 73.3755 100.92 73.3755 101.13 73.4355L101.24 73.4855C101.286 73.494 101.333 73.494 101.38 73.4855C101.88 73.5641 102.384 73.6175 102.89 73.6455C103 73.6455 103.53 73.8855 103.67 73.8755C103.81 73.8655 104 74.2855 104.12 74.2455Z" fill="#F39F51"/>
<path d="M27.1799 64.9155C27.0099 65.0155 26.9099 64.7855 26.8399 64.3355C26.825 64.1256 26.8522 63.9148 26.9199 63.7155C27.0096 63.6117 27.1102 63.5178 27.2199 63.4355C27.2799 63.4355 28.1599 63.2955 28.4599 63.2455C28.7448 63.2006 29.035 63.2006 29.3199 63.2455L31.0599 63.4055C31.1908 63.42 31.3188 63.4537 31.4399 63.5055C31.853 63.672 32.2945 63.7569 32.7399 63.7555C32.8146 63.7799 32.8952 63.7799 32.9699 63.7555C33.4621 63.7096 33.9585 63.7434 34.4399 63.8555C34.8099 64.0255 35.1799 64.1455 35.5599 64.2855C35.5599 64.2855 35.6699 64.2855 35.7099 64.3755C35.7499 64.4655 35.9299 64.5455 36.0499 64.5755C36.2154 64.6107 36.3764 64.6644 36.5299 64.7355C36.6178 64.8008 36.6925 64.8822 36.7499 64.9755C36.7736 65.0326 36.7857 65.0937 36.7857 65.1555C36.7857 65.2173 36.7736 65.2784 36.7499 65.3355C36.6599 65.4155 36.7499 65.5455 36.7499 65.6555C36.7499 65.7655 36.7499 65.7455 36.7499 65.7655C36.402 65.9558 36.028 66.0939 35.6399 66.1755C35.6399 66.1755 34.2199 66.1755 34.0599 66.1755C33.9722 66.1724 33.8865 66.1484 33.8099 66.1055C33.8099 66.1055 32.6499 66.1055 32.6099 66.1055C32.3799 66.1055 32.1499 66.1055 31.9399 65.9255C31.8943 65.9116 31.8455 65.9116 31.7999 65.9255C31.4047 65.8938 31.0132 65.8269 30.6299 65.7255C30.4299 65.7255 30.2199 65.7255 30.0199 65.6655C30.0199 65.6655 29.9499 65.6655 29.9199 65.6655C29.8768 65.6589 29.833 65.6589 29.7899 65.6655C29.3166 65.5892 28.839 65.5424 28.3599 65.5255C28.2399 65.5255 27.7399 65.2855 27.6099 65.2955C27.4799 65.3055 27.2499 64.8755 27.1799 64.9155Z" fill="#F39F51"/>
<path d="M60.14 109.065C60.25 109.235 60.01 109.335 59.56 109.395C59.3501 109.409 59.1396 109.382 58.94 109.315C58.839 109.226 58.7454 109.129 58.66 109.025C58.66 108.965 58.52 108.105 58.47 107.815C58.4306 107.537 58.4306 107.254 58.47 106.975C58.53 106.415 58.57 105.855 58.63 105.295C58.6492 105.172 58.6828 105.051 58.73 104.935C58.8953 104.532 58.9803 104.101 58.98 103.665C58.9968 103.631 59.0055 103.594 59.0055 103.555C59.0055 103.517 58.9968 103.48 58.98 103.445C58.938 102.966 58.9752 102.483 59.09 102.015C59.26 101.665 59.38 101.295 59.52 100.935C59.52 100.935 59.52 100.825 59.6 100.785C59.68 100.745 59.77 100.575 59.8 100.465C59.8336 100.303 59.8873 100.145 59.96 99.9955C60.0282 99.9131 60.1093 99.8422 60.2 99.7855C60.28 99.7255 60.54 99.7855 60.57 99.7855C60.6 99.7855 60.77 99.7855 60.88 99.8355H61C61.1817 100.177 61.3194 100.54 61.41 100.915C61.41 100.915 61.41 102.295 61.41 102.455C61.4065 102.537 61.3824 102.616 61.34 102.685C61.34 102.685 61.34 103.815 61.34 103.855C61.34 104.075 61.34 104.305 61.16 104.505C61.1447 104.551 61.1447 104.6 61.16 104.645C61.1317 105.027 61.0681 105.405 60.97 105.775C60.9401 105.971 60.9201 106.168 60.91 106.365C60.9135 106.399 60.9135 106.432 60.91 106.465C60.9043 106.509 60.9043 106.552 60.91 106.595C60.91 107.055 60.75 107.515 60.77 107.985C60.77 108.085 60.53 108.575 60.55 108.705C60.57 108.835 60.1 109.005 60.14 109.065Z" fill="#F39F51"/>
<path d="M104.85 71.6955C104.86 71.549 104.86 71.402 104.85 71.2555C104.85 70.4955 104.75 69.7155 104.71 68.9555C104.256 60.8422 101.323 53.0635 96.3088 46.6692C91.2943 40.275 84.4387 35.5731 76.6675 33.1981C68.8963 30.8231 60.5836 30.8895 52.8513 33.3881C45.1189 35.8867 38.3393 40.6974 33.4274 47.1708C28.5155 53.6443 25.7078 61.4688 25.3833 69.5883C25.0587 77.7078 27.233 85.7315 31.6125 92.5763C35.9921 99.4211 42.3662 104.757 49.8744 107.865C57.3826 110.973 65.6636 111.703 73.5995 109.956C78.4827 108.878 83.1155 106.879 87.2495 104.066C95.6043 98.4173 101.502 89.8067 103.75 79.9755C103.91 79.2755 104.15 78.5655 104.26 77.8655C104.26 77.7255 104.32 77.5755 104.34 77.4155C104.57 75.8355 104.2 74.5055 103.53 74.4155C102.86 74.3255 102.14 75.5155 101.94 76.9955C101.94 77.1255 101.94 77.2655 101.94 77.4055C101.895 78.1303 101.771 78.8479 101.57 79.5455L101 81.8255L100.24 83.9955C99.722 85.4325 99.1142 86.8353 98.4195 88.1955C95.3071 94.2467 90.6165 99.3438 84.8442 102.947C79.072 106.551 72.4328 108.527 65.6295 108.666C61.1077 108.711 56.613 107.963 52.3495 106.456C45.9195 104.197 40.2304 100.221 35.8992 94.959C31.568 89.6971 28.76 83.3498 27.7795 76.6055C27.1336 72.132 27.2758 67.58 28.1995 63.1555C30.0966 54.2395 35.1945 46.3276 42.5295 40.9155C47.9833 36.8334 54.4461 34.314 61.2238 33.6279C68.0014 32.9419 74.838 34.115 80.9992 37.0213C87.1604 39.9277 92.4136 44.4575 96.1945 50.1242C99.9754 55.791 102.141 62.3806 102.46 69.1855C102.532 69.8502 102.532 70.5208 102.46 71.1855V71.6155C102.4 73.1055 102.91 74.3655 103.58 74.4355C104.25 74.5055 104.79 73.2955 104.85 71.6955Z" fill="#232020"/>
<path d="M34.4896 32.6955C31.5035 35.1354 28.8179 37.9216 26.4896 40.9955C25.8796 41.7455 25.3088 42.5265 24.7796 43.3355C24.2077 44.1166 23.6834 44.9314 23.2096 45.7755C22.1984 47.4213 21.3029 49.1355 20.5296 50.9055C17.3198 57.9835 15.9442 65.7558 16.5296 73.5055C16.921 79.1579 18.309 84.6965 20.6296 89.8655C22.7015 94.4078 25.4271 98.6225 28.7196 102.375C32.0923 106.074 36.0029 109.242 40.3196 111.775C44.6668 114.294 49.3602 116.16 54.2496 117.315C59.1658 118.434 64.2212 118.815 69.2496 118.445C78.1924 117.751 86.7735 114.617 94.0596 109.385C96.3787 107.746 98.5322 105.884 100.49 103.826C102.47 101.791 104.255 99.5747 105.82 97.2055C108.969 92.4715 111.263 87.222 112.6 81.6955C113.38 78.2655 113.94 78.7755 113.95 81.9255C113.871 84.0975 113.535 86.2525 112.95 88.3455C112.121 91.3539 110.882 94.2341 109.27 96.9055C102.767 107.474 92.5941 115.271 80.6996 118.805C74.8343 120.591 68.7012 121.332 62.5796 120.995C59.5283 120.794 56.4984 120.346 53.5196 119.656C50.5485 118.926 47.6447 117.946 44.8396 116.726C38.0127 113.765 31.8812 109.408 26.8396 103.936C18.7731 94.9749 14.1942 83.4145 13.9372 71.3606C13.6802 59.3068 17.7623 47.5618 25.4396 38.2655C31.0201 31.3645 38.3122 26.047 46.5887 22.8431C54.8652 19.6391 63.837 18.6608 72.6096 20.0055C80.1236 21.1429 87.2825 23.9669 93.5496 28.2655C95.9527 29.9174 98.2108 31.7707 100.3 33.8055C101.3 34.8755 102.36 35.8655 103.3 37.0055L104.69 38.6755L105.97 40.4355C109.347 45.1628 111.909 50.4221 113.55 55.9955C114.283 58.4427 114.841 60.939 115.22 63.4655C115.72 66.8221 115.81 70.227 115.49 73.6055C115.416 74.5068 115.266 75.4 115.04 76.2755C114.9 76.8755 114.689 77.4564 114.41 78.0055C114.229 78.4415 114.015 78.8628 113.77 79.2655C113.04 80.0555 113.6 76.2655 113.32 69.5555C112.856 59.3559 109.418 49.5148 103.43 41.2455C100.406 37.0523 96.6858 33.4093 92.4296 30.4755C88.1627 27.4976 83.432 25.2471 78.4296 23.8155C70.9464 21.6778 63.0609 21.359 55.4296 22.8855C47.7799 24.4274 40.6205 27.808 34.5696 32.7355L34.4896 32.6955Z" fill="#221F1F"/>
<path d="M65.7394 73.1955C65.4594 73.1955 65.3594 72.9355 65.3594 72.4555C65.385 72.2451 65.4719 72.0468 65.6094 71.8855C65.7763 71.8336 65.9468 71.7935 66.1194 71.7655C66.2194 71.7655 67.5494 72.0955 68.0094 72.1955C68.4494 72.2999 68.8782 72.4472 69.2894 72.6355L71.8194 73.6355C72.0097 73.7157 72.1907 73.8163 72.3594 73.9355C72.9434 74.3216 73.5711 74.6371 74.2294 74.8755C74.3327 74.9352 74.45 74.9663 74.5694 74.9655C75.3143 75.197 76.0319 75.5088 76.7094 75.8955C77.2094 76.2755 77.7094 76.6055 78.2294 76.9755C78.3094 76.9755 78.3994 77.0555 78.4394 77.1555C78.4794 77.2555 78.7094 77.4555 78.8694 77.5655C79.1029 77.7052 79.3208 77.8695 79.5194 78.0555C79.6155 78.173 79.693 78.3045 79.7494 78.4455C79.8094 78.5655 79.5994 78.7555 79.5594 78.7555C79.5194 78.7555 79.4194 78.9255 79.3694 79.0155C79.3539 79.0514 79.3337 79.085 79.3094 79.1155C78.7534 79.0421 78.2024 78.9353 77.6594 78.7955L77.3194 78.6455L76.6094 78.3555L75.3894 77.8955C75.2698 77.846 75.1585 77.7786 75.0594 77.6955C75.0594 77.6955 73.3694 77.0855 73.3094 77.0555C72.9641 76.9426 72.6446 76.7625 72.3694 76.5255C72.3161 76.4737 72.2508 76.4359 72.1794 76.4155C71.6086 76.1793 71.0511 75.9122 70.5094 75.6155C70.2194 75.4755 69.9194 75.3755 69.6294 75.2455C69.5782 75.2189 69.5311 75.1853 69.4894 75.1455C69.432 75.0993 69.368 75.0622 69.2994 75.0355C68.6094 74.7655 67.9494 74.3855 67.2294 74.1755C67.0594 74.1255 66.3794 73.6255 66.2294 73.5755C66.0794 73.5255 65.8494 73.1955 65.7394 73.1955Z" fill="#F39F51"/>
<path d="M66.4998 69.1855C66.5798 69.4455 66.3198 69.6155 65.8598 69.7355C65.6488 69.7613 65.4352 69.7193 65.2498 69.6155C65.1561 69.4662 65.0758 69.3089 65.0098 69.1455C65.0098 69.0455 65.0098 67.6355 65.0098 67.1455C65.0163 66.6856 65.0631 66.2272 65.1498 65.7755L65.6098 63.0155C65.6454 62.8101 65.7024 62.6091 65.7798 62.4155C66.0238 61.7431 66.1915 61.0454 66.2798 60.3355C66.3148 60.2181 66.3148 60.093 66.2798 59.9755C66.34 59.1719 66.4876 58.3772 66.7198 57.6055C66.9798 56.9655 67.2098 56.4255 67.4398 55.8355C67.4398 55.7555 67.4398 55.6555 67.5798 55.5955C67.7198 55.5355 67.8098 55.2555 67.8798 55.0655C67.9695 54.8006 68.0869 54.5459 68.2298 54.3055C68.3265 54.1789 68.445 54.0705 68.5798 53.9855C68.6898 53.8955 68.9098 54.0755 68.9198 54.1255C68.9298 54.1755 69.0998 54.2255 69.2098 54.2655H69.3098C69.3412 54.8284 69.3412 55.3926 69.3098 55.9555L69.2498 56.3155C69.2498 56.5255 69.1698 56.8055 69.1198 57.0955C69.0298 57.6655 68.9498 58.2855 68.9398 58.4055C68.9145 58.5377 68.8708 58.6656 68.8098 58.7855C68.8098 58.7855 68.5898 60.6055 68.5798 60.6755C68.5358 61.0244 68.4309 61.3629 68.2698 61.6755C68.2346 61.7438 68.2142 61.8188 68.2098 61.8955C68.1298 62.5155 67.9498 63.1255 67.8098 63.7455C67.7298 64.0555 67.6998 64.3855 67.6398 64.6955C67.6242 64.7537 67.6042 64.8105 67.5798 64.8655C67.5475 64.9322 67.524 65.0028 67.5098 65.0755C67.3998 65.8355 67.1798 66.5755 67.1298 67.3355C67.1298 67.5155 66.7898 68.3355 66.7898 68.5155C66.7898 68.6955 66.4698 69.0755 66.4998 69.1855Z" fill="#F39F51"/>
<path d="M67.2697 72.7255C67.0997 73.0355 66.7597 72.4955 66.4597 72.7955C64.2897 74.9955 61.3797 69.9455 64.1397 68.7055C65.6497 68.0255 68.6397 70.3255 67.2697 72.7255Z" fill="#231F20"/>
<path d="M63.6797 75.0755C63.0534 74.7706 62.4977 74.3383 62.0483 73.8062C61.5988 73.274 61.2655 72.6539 61.0697 71.9854C60.9027 71.5001 60.8248 70.9885 60.8397 70.4755C60.9236 69.5788 61.3077 68.7367 61.9297 68.0855C62.4828 67.5007 63.1689 67.0582 63.9297 66.7955C64.592 66.553 65.2949 66.441 65.9997 66.4655C66.5119 66.4981 67.009 66.6524 67.4497 66.9154C67.8897 67.1721 68.2151 67.587 68.3597 68.0755C68.4497 68.3855 67.8297 68.5955 67.1997 68.7855L66.3597 69.0655C66.1097 69.1655 65.9797 69.2255 65.9397 69.2055C65.7186 69.0989 65.475 69.0474 65.2297 69.0554C64.7824 69.0883 64.3451 69.2036 63.9397 69.3955C63.8112 69.4532 63.6954 69.536 63.5993 69.6391C63.5031 69.7421 63.4285 69.8632 63.3797 69.9955C63.2843 70.2404 63.2433 70.5031 63.2597 70.7655C63.2835 71.1074 63.3786 71.4406 63.5387 71.7437C63.6989 72.0468 63.9206 72.3131 64.1897 72.5254C64.5212 72.8097 64.9344 72.9813 65.3697 73.0155C65.7256 72.9919 66.073 72.8964 66.3909 72.7348C66.7089 72.5733 66.9908 72.349 67.2197 72.0755C67.4039 71.8815 67.5426 71.6489 67.6256 71.3946C67.7086 71.1403 67.7339 70.8707 67.6997 70.6055C67.6777 70.5386 67.6474 70.4748 67.6097 70.4154C67.5397 70.2454 67.6097 70.1455 68.1297 69.6555L68.4397 69.3054C68.5176 69.2145 68.6142 69.1416 68.723 69.0915C68.8317 69.0414 68.95 69.0155 69.0697 69.0155C69.2176 69.0291 69.3599 69.0792 69.4838 69.1612C69.6077 69.2432 69.7093 69.3546 69.7797 69.4854C70.0728 69.9623 70.2156 70.5163 70.1897 71.0755C70.1822 71.6055 70.0594 72.1276 69.8297 72.6055C69.4227 73.4141 68.8128 74.1032 68.0597 74.6055C67.465 75.0349 66.7816 75.3254 66.0597 75.4555C65.6456 75.521 65.2238 75.521 64.8097 75.4555C64.4306 75.3974 64.0608 75.2898 63.7097 75.1355L63.6797 75.0755Z" fill="#221F1F"/>
<path d="M78.68 10.6955C76.9085 10.0209 75.0351 9.65231 73.14 9.60547C72.79 9.60547 72.44 9.60547 72.14 9.60547C71.84 9.60547 71.45 9.68547 71.14 9.70547C69.9444 9.81192 68.7677 10.0741 67.64 10.4855C66.5628 10.8976 65.614 11.5876 64.89 12.4855C64.2628 13.2834 63.9466 14.2819 64 15.2955C64.1668 16.6306 64.4615 17.9467 64.88 19.2255C64.96 19.6555 64.37 19.9055 63.64 19.7855C63.2347 19.7139 62.8514 19.5497 62.52 19.3055C62.3357 19.1762 62.1707 19.0213 62.03 18.8455C61.9054 18.6388 61.808 18.417 61.74 18.1855C61.1528 16.3872 61.2023 14.4416 61.88 12.6755C62.6383 10.9325 64.0332 9.54474 65.78 8.79547C67.6401 7.93222 69.6369 7.40089 71.68 7.22547C73.8569 7.08762 76.0414 7.32095 78.14 7.91547C79.4388 8.26936 80.6909 8.77624 81.87 9.42547C83.7458 10.3888 85.2531 11.9418 86.16 13.8455C86.8419 15.3804 87.0272 17.0901 86.69 18.7355C86.6 19.0855 86.52 19.4255 86.41 19.7355C86.2904 20.1992 86.0406 20.6191 85.69 20.9455C85.5724 21.0441 85.4337 21.1144 85.2845 21.1508C85.1354 21.1872 84.9799 21.1888 84.83 21.1555C84.6711 21.1443 84.5137 21.1175 84.36 21.0755C83.87 20.8955 83.72 20.2555 83.95 19.4955C84.2737 18.4342 84.3958 17.3217 84.31 16.2155C84.1787 15.2088 83.7544 14.263 83.09 13.4955C81.8972 12.1982 80.3828 11.2391 78.7 10.7155L78.68 10.6955Z" fill="#221F1F"/>
<path d="M15.2496 80.7054C15.614 82.7369 16.1152 84.7414 16.7496 86.7054L16.9596 87.4454L17.2496 88.1654L17.8196 89.6054L18.3796 91.0354L18.6696 91.7554L19.0196 92.4454C19.897 94.3108 20.8993 96.1149 22.0196 97.8454C22.5996 98.6954 23.0896 99.6054 23.7396 100.415L25.6596 102.835L26.3596 103.715L27.1496 104.525L28.7396 106.135C29.7958 107.208 30.9216 108.211 32.1096 109.135C40.422 115.901 50.6756 119.838 61.3796 120.375C66.1052 120.605 70.8388 120.14 75.4296 118.995C78.367 118.26 81.2345 117.27 83.9996 116.035L85.9996 115.035L86.9996 114.545L87.9996 113.995L89.9996 112.895L91.9096 111.675C93.4896 110.675 93.4996 111.085 92.3496 112.255C91.5628 113.068 90.6949 113.799 89.7596 114.435C89.1896 114.835 88.5496 115.265 87.8696 115.695C87.1896 116.125 86.3996 116.475 85.5996 116.875C74.0224 122.35 60.7996 123.229 48.5996 119.335C41.1689 117.008 34.3409 113.075 28.5996 107.815L26.3596 105.525C25.9996 105.135 25.5996 104.775 25.2696 104.355L24.2696 103.105C23.6096 102.265 22.9296 101.445 22.2696 100.595L20.5396 97.9054C20.2496 97.4554 19.9596 97.0154 19.6796 96.5554L18.9996 95.1454L17.5396 92.2954L16.3596 89.2954L15.7796 87.8154L15.3296 86.2854L14.7796 84.3954C14.5797 83.7694 14.4194 83.1315 14.2996 82.4854L13.5696 78.6254C13.2315 76.0296 13.0777 73.413 13.1096 70.7954C13.1201 68.8117 13.2604 66.8308 13.5296 64.8654C13.6283 63.8903 13.7853 62.9219 13.9996 61.9654L14.6096 59.0554L15.4996 56.2254C15.7713 55.2745 16.1054 54.3425 16.4996 53.4354C17.2149 51.5993 18.05 49.8121 18.9996 48.0854C20.4056 45.3955 22.0523 42.8384 23.9196 40.4454C25.7476 38.0519 27.7821 35.8234 29.9996 33.7854C30.9996 32.8854 31.9996 32.0454 33.0496 31.2154C34.4415 30.1291 35.916 29.1528 37.4596 28.2954C38.1474 27.8964 38.8929 27.6063 39.6696 27.4354C39.9296 27.4354 40.2396 27.3154 40.3996 27.3154C40.9596 27.3654 39.2396 28.4054 36.3096 30.4254C31.8949 33.5417 27.9801 37.3115 24.6996 41.6054C23.8696 42.7054 23.0596 43.8254 22.3096 44.9854C21.5596 46.1454 20.9296 47.3754 20.2296 48.5654C19.8996 49.1754 19.5496 49.7754 19.2296 50.3854L18.4096 52.2954C17.8168 53.5556 17.3123 54.8554 16.8996 56.1854L15.9996 59.1154C15.7396 60.1154 15.5696 61.1154 15.3496 62.1154C14.9307 64.1444 14.6467 66.1989 14.4996 68.2654C14.2418 72.4102 14.5173 76.5709 15.3196 80.6454L15.2496 80.7054Z" fill="#221F1F"/>
</svg>
