<svg width="180" height="156" viewBox="0 0 180 156" fill="none" xmlns="http://www.w3.org/2000/svg">
<path d="M179.679 111.997C175.978 146.209 167.978 156 103.644 156C39.3089 156 13 127.48 13 102.97C13 78.4602 50.424 76.0937 83.4174 71.7542C142.765 63.9483 184.078 71.348 179.679 111.997Z" fill="#FCEAD9"/>
<path d="M95.3095 125.364C114.564 113.525 110.142 84.0563 87.8237 78.6604C73.5785 75.4806 60.2181 84.1952 57.0147 97.6412C51.7577 119.721 75.9719 137.254 95.3095 125.364ZM102.218 94.2711C92.0164 94.0446 81.2759 93.5766 71.7108 92.4739C73.5849 88.3175 75.8245 84.7145 78.5021 81.4791C88.4135 79.8593 98.0726 85.1804 102.218 94.2733V94.2711ZM60.1326 98.3827C61.8208 91.2879 66.8427 85.627 73.4097 82.9366C71.378 85.9005 69.6524 89.0631 68.2596 92.3756C67.5821 93.707 68.5545 95.3375 69.9114 95.4764L70.0653 95.4956L71.621 98.7759C79.4424 99.4277 91.4074 99.7653 103.969 99.9619C105.439 109.11 101.285 117.928 93.6299 122.635C76.7541 133.013 55.5274 117.731 60.1326 98.3827Z" fill="#0F172A"/>
<path d="M10.4199 141.246C11.1572 142.922 12.6808 144.106 14.4011 144.621C17.9848 145.693 20.951 143.903 24.1222 142.505C28.2189 140.697 48.5138 130.534 52.5313 128.518C53.1336 128.439 53.7206 128.271 54.273 128.018C54.3243 128.067 54.3884 128.119 54.429 128.168C61.8443 137.009 73.7901 141.96 85.2871 140.727C103.383 138.821 119.667 121.319 115.825 100.094C126.661 100.18 137.139 100.158 145.044 100.137L146.148 97.235C147.334 97.1816 147.918 96.2029 147.743 95.3203C146.465 88.8901 144.306 80.7567 138.917 74.8715C129.134 64.1609 116.256 60.5686 105.33 62.4086C100.402 63.2612 92.6469 65.8171 87.9754 68.8772C87.2616 69.3474 86.58 69.8218 85.9047 70.3026C63.5176 67.3771 44.3574 86.9006 48.3792 109.548C44.6865 109.555 42.2695 112.869 42.1606 116.774C32.4095 121.881 21.8763 127.501 12.5932 132.361C10.2254 133.6 8.29145 137.784 9.70828 140.302C9.88565 140.62 10.1399 140.936 10.4199 141.246ZM105.868 65.5692C115.763 63.9023 127.537 67.1655 136.553 77.0362C140.919 81.8017 142.973 88.4221 144.212 94.0851C122.975 94.598 115.113 94.4313 114.331 94.4356C113.317 91.5097 111.933 88.7254 110.213 86.1505C105.55 78.5514 98.6625 73.5102 90.3218 71.2065C94.6749 68.5438 101.46 66.3321 105.868 65.5692ZM51.8667 96.5961C57.7435 71.7686 89.9991 64.8661 105.691 85.2166C120.421 104.402 107.98 133.675 81.3123 134.13C62.0367 134.13 47.2829 115.857 51.8646 96.5961H51.8667ZM49.1506 112.867C50.2637 116.818 52.0942 120.531 54.5508 123.819C54.0764 124.597 52.6467 125.469 51.871 125.36C50.6444 125.2 49.0652 124.422 48.1121 123.514C46.9367 122.39 46.146 120.928 45.552 118.776C44.7271 115.795 46.161 112.173 49.1506 112.867ZM14.0784 135.199C22.9811 130.54 32.8369 125.285 42.635 120.148C43.244 122.148 44.071 123.734 45.1737 125.022C35.3008 130.209 25.413 135.709 16.0893 140.588C15.4482 140.934 13.1232 139.836 12.5013 138.729C12.1338 138.081 13.0505 135.735 14.0784 135.199ZM94.2004 40.419C94.7048 43.9835 95.7882 47.8621 98.1197 51.2108C101.823 56.534 108.394 59.5407 114.245 57.8397C122.206 55.5317 124.315 49.2426 125.723 41.1712C130.751 40.5109 131.279 33.4289 128.313 31.4479C130.692 22.7055 126.503 14.4033 119.376 11.7791C114.893 10.1293 109.211 11.373 105.695 14.6576C99.9917 13.1895 93.7196 17.5489 92.9247 25.6759C92.7821 27.2794 92.8223 28.8939 93.0443 30.4884C90.8732 31.0526 89.7854 33.1212 90.0248 35.3308C90.2727 37.6323 92.3135 39.6881 94.2004 40.419ZM100.752 49.3815C98.515 46.1653 97.329 41.9448 97.0469 36.2326C103.387 36.5382 112.63 32.3219 117.107 26.6461C118.068 30.4649 119.714 34.0593 122.902 36.301C122.911 36.3501 122.939 36.3908 122.951 36.4378C122.699 40.1134 122.3 43.9535 120.825 47.4091C119.244 51.1146 116.451 53.8628 113.352 54.7603C108.52 56.1686 103.351 53.1169 100.752 49.3815ZM96.1152 25.99C96.7563 19.4145 101.787 16.4078 105.522 17.9721C105.831 18.1006 106.172 18.1297 106.499 18.0554C106.825 17.9811 107.12 17.8071 107.343 17.5575C109.839 14.7324 114.741 13.4951 118.269 14.788C125.076 17.2946 127.783 26.0734 124.202 33.2729C121.195 30.7662 120.109 26.2978 119.417 21.7609C119.16 20.062 116.771 19.9338 116.295 21.5494C114.493 27.6825 103.095 33.5892 96.7841 32.9994C96.143 30.2234 95.9164 28.0052 96.1152 25.99ZM62.494 66.2252C63.9429 66.2252 64.6438 64.4387 63.5881 63.4514L58.0982 58.3141C57.7868 58.0287 57.3753 57.8778 56.9532 57.8941C56.5311 57.9105 56.1326 58.0928 55.8442 58.4015C55.5558 58.7101 55.401 59.1202 55.4133 59.5424C55.4256 59.9646 55.6041 60.3649 55.9099 60.6562C61.4298 65.6205 61.3827 66.2252 62.494 66.2252ZM69.6529 60.9554C69.6997 61.1646 69.7881 61.3623 69.9127 61.5367C70.0373 61.7112 70.1957 61.8589 70.3784 61.971C70.5611 62.0832 70.7644 62.1575 70.9764 62.1897C71.1884 62.2219 71.4046 62.2112 71.6124 62.1583C71.8201 62.1054 72.0152 62.0113 72.1859 61.8817C72.3567 61.7521 72.4997 61.5895 72.6065 61.4036C72.7133 61.2177 72.7818 61.0123 72.8078 60.7995C72.8338 60.5867 72.8168 60.3709 72.7579 60.1647L69.2319 46.3448C69.1838 46.1368 69.0946 45.9405 68.9695 45.7674C68.8444 45.5944 68.686 45.448 68.5036 45.337C68.3212 45.226 68.1185 45.1526 67.9073 45.121C67.6961 45.0894 67.4808 45.1004 67.2739 45.1532C67.067 45.206 66.8728 45.2997 66.7026 45.4286C66.5324 45.5576 66.3897 45.7192 66.2828 45.9041C66.1759 46.0889 66.1071 46.2933 66.0803 46.5051C66.0535 46.717 66.0694 46.932 66.1269 47.1377L69.6529 60.9554ZM79.6476 59.6967C79.953 59.6966 80.252 59.6093 80.5095 59.445C80.7669 59.2807 80.972 59.0462 81.1007 58.7693C82.3585 56.0607 83.3955 53.255 84.2015 50.3795C84.2647 50.1749 84.2864 49.9597 84.2651 49.7467C84.2438 49.5336 84.18 49.327 84.0775 49.1389C83.975 48.9509 83.8359 48.7854 83.6684 48.652C83.5009 48.5187 83.3083 48.4202 83.1021 48.3625C82.8959 48.3049 82.6802 48.2891 82.4678 48.3161C82.2554 48.3432 82.0506 48.4125 81.8654 48.52C81.6802 48.6276 81.5185 48.7711 81.3897 48.9422C81.2609 49.1133 81.1678 49.3084 81.1157 49.5161C80.356 52.2246 79.3791 54.8673 78.1944 57.4187C78.081 57.6629 78.0309 57.9317 78.0487 58.2004C78.0666 58.4691 78.1519 58.7289 78.2967 58.9559C78.4415 59.1829 78.6412 59.3698 78.8773 59.4993C79.1134 59.6288 79.3783 59.6967 79.6476 59.6967Z" fill="#0F172A"/>
</svg>
