<svg width="19" height="25" viewBox="0 0 19 25" fill="none" xmlns="http://www.w3.org/2000/svg">
<g clip-path="url(#clip0_81_452)">
<path d="M4.32663 20.0449L10.8174 10.818C12.961 7.76294 15.2849 4.76935 17.2482 1.59122C17.7089 0.832567 16.8475 0.483998 16.2365 0.463494C15.355 0.432737 14.3433 0.791559 13.7824 1.49895C11.4585 4.44128 9.39507 7.65017 7.23147 10.7258L0.740648 19.9629C0.209763 20.7215 1.20142 21.1008 1.78238 21.1213C2.65384 21.1521 3.79574 20.8035 4.32663 20.0449Z" fill="#0F172A"/>
<path d="M11.9092 23.9508C14.0127 22.3822 16.1162 20.8136 18.2097 19.2348C18.4 19.0913 18.6705 18.6915 18.5703 18.4249C18.4802 18.1686 18.2698 18.0456 18.0294 17.9636C17.2982 17.7175 16.2264 17.9123 15.6054 18.3737C13.602 19.85 11.5987 21.3365 9.59534 22.823C9.33491 23.0178 8.96429 23.2639 8.89417 23.6227C8.83407 23.92 9.01437 24.1866 9.27481 24.2993C9.64542 24.4736 10.0962 24.4941 10.4968 24.4326C10.9676 24.3608 11.5085 24.2378 11.8992 23.9405L11.9092 23.9508Z" fill="#0F172A"/>
</g>
<defs>
<clipPath id="clip0_81_452">
<rect width="18" height="24" fill="white" transform="translate(0.590332 0.463379)"/>
</clipPath>
</defs>
</svg>
