<svg width="32" height="33" viewBox="0 0 32 33" fill="none" xmlns="http://www.w3.org/2000/svg">
<rect y="0.208984" width="32" height="32" rx="8" fill="#F9D2AE"/>
<g clip-path="url(#clip0_81_891)">
<path fill-rule="evenodd" clip-rule="evenodd" d="M19.2281 12.5743C18.4021 11.7865 17.2997 11.3573 16.1592 11.3749C14.0721 11.3749 12.2996 12.783 11.6675 14.679V14.679C11.3324 15.6726 11.3324 16.7485 11.6675 17.742H11.6705C12.3054 19.6351 14.075 21.0431 16.1621 21.0431C17.2395 21.0431 18.1644 20.7676 18.8812 20.2808V20.2789C19.7249 19.7204 20.301 18.8414 20.4803 17.8479H16.1592V14.7672H23.705C23.7991 15.3022 23.8432 15.849 23.8432 16.3928C23.8432 18.826 22.9736 20.8832 21.4606 22.2765L21.4621 22.2778C20.1364 23.5006 18.3168 24.209 16.1592 24.209C13.1344 24.209 10.3682 22.5041 9.01017 19.8027V19.8026C7.87551 17.5421 7.87552 14.8789 9.01018 12.6184H9.0102L9.01017 12.6184C10.3682 9.91398 13.1344 8.20904 16.1592 8.20904C18.1463 8.18552 20.0658 8.93217 21.5121 10.2902L19.2281 12.5743Z" fill="black"/>
</g>
<defs>
<clipPath id="clip0_81_891">
<rect width="16" height="16" fill="white" transform="translate(8 8.20898)"/>
</clipPath>
</defs>
</svg>
