<svg width="119" height="118" viewBox="0 0 119 118" fill="none" xmlns="http://www.w3.org/2000/svg">
<g clip-path="url(#clip0_1_1128)">
<path d="M31.7729 79.2648C30.8816 75.7067 29.9856 72.1887 28.9948 68.6651L27.8805 64.8252C26.6146 60.3037 25.3343 55.7862 23.9525 51.2958C23.3404 49.3013 22.6757 47.3131 21.9772 45.3727C21.0548 42.8867 20.1556 40.3713 19.2812 37.919C19.0208 37.1502 19.2392 37.1538 19.8021 37.6319C20.7215 38.4539 21.4332 39.4818 21.8792 40.6315C22.9222 43.1601 23.8363 45.7399 24.6181 48.361C25.4393 50.9621 26.2093 53.5847 26.9281 56.2287C27.7764 59.3946 28.8407 62.6423 29.7664 65.865C30.7847 69.4045 31.7706 72.9683 32.6895 76.5423C33.2718 78.7156 33.8107 80.9006 34.4481 83.1057C35.3715 86.4067 36.3204 89.7164 37.4639 92.9118C38.3553 95.3983 39.394 97.7677 40.4853 100.131C40.7323 100.647 40.9701 101.158 41.2171 101.674C42.1195 103.622 42.3324 104.271 42.0809 104.898C42.0408 105.041 41.9871 105.18 41.9205 105.313C41.6789 105.658 41.0563 104.986 40.2653 103.598C38.0017 99.2433 36.1513 94.6855 34.7385 89.985C33.613 86.4509 32.6811 82.8571 31.7313 79.2837L31.7729 79.2648Z" fill="#0F172A"/>
<path d="M56.6127 91.2364C60.2038 90.4683 63.7802 89.5877 67.3203 88.6003C68.617 88.2528 69.8794 87.8059 71.1703 87.4367C75.7032 86.0979 80.2007 84.5977 84.596 82.861C86.5459 82.0822 88.4744 81.2239 90.3551 80.3317C91.5549 79.7384 92.7567 79.1524 93.9377 78.5176C95.1186 77.8829 96.3412 77.3456 97.5541 76.7722C98.3161 76.4282 98.3038 76.6722 97.8533 77.2511C97.0737 78.1851 96.1477 78.9865 95.1115 79.624C92.6966 80.9855 90.18 82.1412 87.6483 83.2699C85.1167 84.3986 82.509 85.3302 79.8891 86.1875C76.7322 87.2431 73.5011 88.4272 70.2301 89.4046C66.6631 90.4846 63.0578 91.4506 59.4141 92.3027C57.1779 92.8243 54.9359 93.3241 52.6822 93.7804L42.4618 95.7425C39.827 96.2544 37.2643 96.8324 34.6454 97.3167C34.074 97.4154 33.5103 97.5432 32.9278 97.6294C30.7667 97.9677 30.0526 97.9106 29.5303 97.4682C29.4045 97.3799 29.2887 97.2782 29.185 97.1648C28.9314 96.7979 29.7522 96.3838 31.3278 96.0626C35.9477 95.1353 40.8174 94.242 45.7301 93.3061C49.3859 92.606 53.0337 91.9625 56.6532 91.1557L56.6127 91.2364Z" fill="#0F172A"/>
<path d="M40.3068 72.8631C40.8348 74.8336 41.3647 76.8113 41.8927 78.7818L42.5547 80.9338C43.2993 83.4519 44.0149 85.9777 44.9401 88.4164C45.01 88.6772 45.147 88.9277 45.2637 89.1605C45.287 89.2474 45.3006 89.2981 45.3688 89.3497C45.437 89.4013 45.4545 89.4665 45.5288 89.4544C45.6007 89.4432 45.6711 89.4243 45.7389 89.3981C45.8689 89.3715 45.9971 89.3371 46.1229 89.2952C46.3909 89.2234 46.6807 89.1457 46.956 89.072C47.6669 88.8271 48.3187 88.536 48.9962 88.2535C49.6737 87.9711 50.4063 87.7204 51.0586 87.4602C51.4599 87.3061 51.5563 87.521 51.3288 87.9469C50.971 88.5745 50.4446 89.0894 49.8092 89.4333C49.1178 89.7506 48.4659 90.0417 47.7701 90.3136C47.4079 90.4106 47.0631 90.5729 46.6883 90.6811C46.4933 90.7448 46.295 90.7979 46.0943 90.8402C45.9297 90.8723 45.7625 90.8885 45.5948 90.8887C45.4238 90.8879 45.2547 90.8944 45.0798 90.8791C44.3555 90.7549 43.9671 89.6244 43.9147 89.4288C43.7553 89.0367 43.6123 88.6479 43.4766 88.2572C43.2143 87.4812 42.9829 86.7046 42.7641 85.9169C42.2846 84.1275 41.6341 82.3374 41.1015 80.5234C40.4599 78.5057 39.9242 76.5063 39.3884 74.5068L38.4511 70.8058C38.2007 69.8713 38.001 68.9231 37.8013 67.975C37.6751 67.5041 37.6016 67.0269 37.5261 66.5424C37.4725 66.2673 37.4368 65.9889 37.4193 65.7092C37.3938 65.3821 37.404 65.0145 37.7106 64.8547C37.9412 64.7547 38.1853 64.6893 38.435 64.6605L39.0045 64.5545L40.0874 64.3653C40.7905 64.2194 41.4847 64.0334 42.1666 63.8082C42.4636 63.7286 42.7534 63.651 43.0257 63.5081C44.0576 63.0996 44.2463 62.9636 44.6377 62.9753C44.7174 62.9539 44.8188 62.9267 44.9029 62.9508C44.987 62.9748 45.0818 63.097 45.0116 63.3565C44.8409 63.7263 44.5652 64.0378 44.2189 64.2522C42.9787 64.9567 41.6098 65.4054 40.1932 65.5715L39.1702 65.7525L38.7283 65.8709C38.7716 66.1776 38.83 66.5114 38.8956 66.8432C39.3052 68.8066 39.814 70.8211 40.3458 72.806L40.3068 72.8631Z" fill="#0F172A"/>
<path d="M48.0707 74.6572L48.7164 77.3571C48.8038 77.6831 48.8911 78.0091 48.9785 78.3351C49.2852 79.4797 49.5142 80.6529 49.8064 81.8014C49.9442 82.3158 50.0801 82.8229 50.2667 83.3164L50.5992 84.2677C50.6935 84.5824 50.7616 84.9044 50.8028 85.2304C50.8004 85.2669 50.7884 85.3023 50.7681 85.3328L50.7247 85.3445L50.6402 85.4059L50.5967 85.4176C50.6909 85.3923 50.6474 85.404 50.5967 85.4176L50.517 85.4389C50.4527 85.4392 50.3889 85.4273 50.3291 85.4039C49.9728 85.2894 49.6722 85.046 49.4862 84.7213C48.9917 83.427 48.6178 82.0898 48.3692 80.7267C48.219 79.9051 47.9325 79.0967 47.7112 78.2709L46.9872 75.5687L46.5407 73.9025C46.3155 73.0621 46.0903 72.2218 45.8652 71.3814C45.6924 70.7367 45.4129 70.1283 45.1895 69.4971C45.1506 69.3522 45.1138 69.2146 45.0387 69.0794C44.8951 68.5433 44.9315 68.3316 45.2651 68.1568C45.3361 68.1099 45.4108 68.0691 45.4887 68.0348C45.7567 67.963 46.0245 68.0931 46.1834 68.4543C46.6656 69.5797 47.0551 70.7426 47.348 71.9314L48.0701 74.6263L48.0707 74.6572Z" fill="#0F172A"/>
<path d="M54.9426 63.2112C55.5657 65.5366 56.1908 67.8693 56.8791 70.1773L57.6493 72.7041C58.5162 75.6786 59.3778 78.6622 60.3494 81.5931C60.5715 82.248 60.7988 82.8936 61.0532 83.5243L61.2466 83.9849L61.3541 84.2123L61.389 84.3427C61.4065 84.4079 61.4337 84.5094 61.5428 84.5112C61.6227 84.5017 61.7008 84.4807 61.7747 84.449L62.3035 84.3073L62.912 84.1443L64.1232 83.68C64.918 83.3428 65.7539 83.0722 66.5473 82.7587C67.0244 82.5687 67.1135 82.7856 66.8175 83.2454C66.3318 83.9325 65.6767 84.4825 64.9159 84.8419C64.0618 85.2365 63.1803 85.5687 62.2783 85.836L62.0537 85.8961C61.9471 85.9324 61.8382 85.9616 61.7277 85.9835C61.5174 86.0015 61.3059 85.9983 61.0963 85.9741C61.0083 85.9356 60.8832 85.9613 60.8179 85.8623C60.7295 85.8175 60.6437 85.7679 60.5607 85.7139C60.4065 85.5658 60.2787 85.3926 60.1827 85.2017L60.0413 84.9057L59.9928 84.7246L59.8729 84.3064L59.6171 83.6994C59.0059 81.9687 58.5038 80.2397 58.0268 78.4885C57.4638 76.3876 56.7293 74.255 56.1132 72.1296C55.4299 69.7918 54.7683 67.4481 54.1284 65.0987L52.9637 60.752C52.3814 58.5787 51.7874 56.3619 51.3151 54.1358C51.191 53.6486 51.1048 53.1525 51.0573 52.6519C51.0418 52.5062 51.058 52.3589 51.1046 52.22C51.1784 52.1026 51.2868 52.0112 51.4149 51.9582C51.6949 51.8477 51.9866 51.7695 52.2843 51.7253C53.146 51.5798 53.9787 51.4421 54.7959 51.2464C55.1509 51.1513 55.5203 51.0523 55.8463 50.965C56.4634 50.6978 57.1035 50.4873 57.7587 50.3361C57.8457 50.3128 57.9543 50.2837 58.034 50.2623C58.1137 50.241 58.2294 50.4118 58.1017 50.7178C57.8818 51.1427 57.5346 51.4882 57.1087 51.706C55.5946 52.5465 53.8797 52.6954 52.3853 52.9716C52.5615 54.0364 52.7998 55.09 53.0988 56.127C53.7238 58.4597 54.3547 60.8141 54.9855 63.1686L54.9426 63.2112Z" fill="#0F172A"/>
<path d="M62.4348 65.6448L63.409 69.4834C63.5333 69.9471 63.6575 70.4107 63.7817 70.8744L65.0229 75.7673C65.217 76.4918 65.4111 77.2162 65.6632 77.9251L66.1117 79.2802C66.2412 79.7305 66.3407 80.1889 66.4095 80.6524C66.4141 80.701 66.4087 80.75 66.3937 80.7964C66.3937 80.7964 66.4073 80.8471 66.2108 80.9541L66.2978 80.9308L66.2688 80.9386L66.1963 80.958C66.124 80.9491 66.0543 80.9256 65.9914 80.8887C65.5814 80.6413 65.2543 80.2776 65.0515 79.8438C64.4027 77.9974 63.8715 76.1117 63.461 74.1981C63.2215 73.0433 62.8418 71.8871 62.5293 70.7208L60.8522 64.4616C60.5338 63.2735 60.2135 62.0782 59.8971 60.8973C59.6506 59.9773 59.2867 59.1119 58.9842 58.2147C58.9318 58.0191 58.8774 57.8162 58.7796 57.625C58.5855 56.9006 58.5967 56.5948 58.9076 56.3639C58.9873 56.3426 59.0475 56.2488 59.1214 56.2057C59.3831 56.0812 59.6767 56.3365 59.8763 56.8498C60.5091 58.4668 61.0478 60.1191 61.4896 61.7983L62.5145 65.6234L62.4348 65.6448Z" fill="#0F172A"/>
<path d="M69.4788 52.4056C70.2345 55.2261 71.0283 58.0338 71.86 60.8288L72.7898 63.864C73.8473 67.463 74.912 71.06 76.0637 74.6337C76.5724 76.2133 77.1448 77.7992 77.7631 79.2952C77.8116 79.4763 77.8194 79.5052 77.8914 79.5713C77.9635 79.6374 77.9303 79.7162 78.0534 79.6832L78.1983 79.6444L78.3867 79.5939L79.0024 79.4289C79.4226 79.3164 79.8273 79.1458 80.2411 78.9806C81.0673 78.6738 81.912 78.3776 82.7324 78.049C83.2978 77.8121 83.3744 78.0401 82.99 78.5468C82.3512 79.3032 81.548 79.9035 80.6417 80.3019C80.2298 80.4744 79.8141 80.6324 79.3819 80.787C79.1645 80.8453 78.9327 80.9074 78.7009 80.9695C78.5142 81.0186 78.3246 81.0564 78.1334 81.0827C77.9292 81.094 77.7245 81.0944 77.5203 81.0839C77.4323 81.0454 77.3304 81.0417 77.2636 80.9664C77.1701 80.9391 77.0861 80.8863 77.0209 80.814C76.8782 80.6662 76.7615 80.4953 76.6758 80.3086L76.5272 80.0145L76.4786 79.8334L76.3478 79.5191C76.1734 79.0999 76.0101 78.6934 75.8666 78.2737C75.567 77.4455 75.2965 76.6096 75.0278 75.7809C74.5011 74.1051 74.0054 72.4288 73.5386 70.7447C72.8592 68.2091 71.9662 65.6299 71.208 63.0611C70.3747 60.2407 69.5683 57.4052 68.7765 54.5659L67.3692 49.3137C66.6587 46.6622 65.9444 43.9963 65.3571 41.3118C65.1862 40.6743 65.0681 40.0305 64.946 39.3721L64.8614 38.8823L64.7954 38.636C64.7643 38.5201 64.7767 38.3926 64.7674 38.2708C64.7457 38.0426 64.7741 37.8124 64.8506 37.5963C64.8955 37.4982 64.9663 37.4143 65.0553 37.3535C65.1444 37.2926 65.2484 37.2573 65.3561 37.2512C66.0478 37.1668 66.3255 37.1312 66.7284 37.0699C67.1312 37.0085 67.4742 36.9554 67.8784 36.8704C68.2827 36.7854 68.7449 36.6848 69.1743 36.5775C69.7094 36.4462 70.2358 36.2818 70.7506 36.0853C71.0694 35.9999 71.2215 35.9591 71.416 35.8449C71.5081 35.7983 71.5944 35.7413 71.6734 35.675C71.7386 35.6575 71.7893 35.6439 71.829 35.7342C71.8821 35.8872 71.8771 36.0543 71.8151 36.2038C71.5606 36.7317 71.1168 37.1444 70.5719 37.36C69.8011 37.7093 68.9912 37.9654 68.1597 38.1228C67.754 38.2315 67.3361 38.2658 66.9241 38.3219C66.5121 38.3779 65.9 38.441 66.0474 38.4403C66.0474 38.4403 66.0474 38.4403 66.059 38.4838C66.0707 38.5272 66.059 38.4838 66.0745 38.5417L66.1755 38.9184C66.2607 39.4391 66.3826 39.9811 66.4992 40.5322C66.743 41.616 67.0163 42.723 67.2969 43.828C68.052 46.6461 68.8168 49.5004 69.5777 52.3402L69.4788 52.4056Z" fill="#0F172A"/>
<path d="M77.0944 54.8063L78.4637 60.1774L78.9858 62.1261C79.6012 64.4226 80.1658 66.7327 80.7522 69.037C81.0239 70.0512 81.2976 71.0727 81.6201 72.0733C81.7929 72.718 82.0183 73.3564 82.2147 74.0026C82.4112 74.6488 82.568 75.3211 82.6639 75.9399C82.6768 76.0075 82.6743 76.0772 82.6564 76.1438L82.6213 76.2153L82.5097 76.2918C82.6483 76.2003 82.5677 76.2762 82.5822 76.2724L82.5097 76.2918C82.4288 76.2639 82.3539 76.2207 82.2893 76.1645C81.8156 75.7347 81.449 75.2001 81.2188 74.6034C80.3852 71.9849 79.6312 69.3451 79.0328 66.6481C78.669 65.0296 78.1593 63.3881 77.7206 61.7508L76.2589 56.2958L75.3699 52.9778C74.9195 51.2971 74.4692 49.6164 74.0227 47.9502C73.6772 46.6606 73.2143 45.4259 72.8128 44.1591C72.7371 43.8766 72.6633 43.6013 72.5422 43.3232C72.2607 42.2727 72.2526 41.8945 72.544 41.5912C72.6193 41.5244 72.6815 41.4379 72.7534 41.3876C73.0001 41.236 73.3175 41.6091 73.5865 42.3523C74.4042 44.5635 75.0941 46.9643 75.7549 49.3728L77.203 54.7772L77.0944 54.8063Z" fill="#0F172A"/>
<path d="M41.5819 80.8682L41.1496 78.9652L40.7536 77.0526C40.6313 76.5962 40.509 76.1398 40.3867 75.6834C40.0533 74.0334 39.7436 72.3849 39.3595 70.7486C39.1654 70.0241 38.9713 69.2997 38.7265 68.5888C38.3487 67.7139 38.1297 66.7788 38.0796 65.8271C38.0817 65.516 38.4261 65.4393 38.888 65.5407C39.1601 65.6033 39.4233 65.6997 39.6715 65.8277C39.9474 65.9482 40.1706 66.164 40.3003 66.4356C40.7261 67.3094 41.1014 68.207 41.4244 69.1238C41.7033 70.0596 41.9246 71.0115 42.0872 71.9744C42.3553 73.1332 42.6996 74.273 43.1179 75.3864C43.4576 76.6541 43.8408 77.9103 44.137 79.1897L44.764 81.5297C45.0804 82.7105 45.3553 83.9102 45.7132 85.0722C46.0138 85.9622 46.4989 86.7873 46.8555 87.6545C46.9472 87.8405 47.0294 88.031 47.1016 88.2253C47.2104 88.5049 47.2045 88.8162 47.0853 89.0915C46.9409 89.3382 46.7199 89.531 46.4559 89.6406C46.3254 89.7228 46.1893 89.7956 46.0485 89.8585C45.8045 89.9436 45.54 89.9502 45.2922 89.8773C45.0443 89.8045 44.8254 89.6559 44.6662 89.4524C44.1294 88.7682 43.7001 88.0061 43.3929 87.1925C43.063 86.3957 42.7924 85.5598 42.5291 84.7219C42.1498 83.4802 41.8536 82.2008 41.5139 80.933L41.5819 80.8682Z" fill="#0F172A"/>
<path d="M56.8021 72.8457L56.1962 70.3526L55.6337 67.8478C55.4726 67.2465 55.3115 66.6452 55.1504 66.0439C54.6666 63.8908 54.2138 61.7371 53.6865 59.5956C53.4342 58.6538 53.1818 57.712 52.888 56.7891C52.4473 55.6147 52.1435 54.3934 51.9826 53.1495C51.9468 52.7553 52.2516 52.7047 52.6934 52.9046C52.9672 53.0244 53.2218 53.1838 53.4491 53.3777C53.7543 53.5829 53.9936 53.872 54.1381 54.2102C54.611 55.3957 55.084 56.5812 55.4647 57.7992C55.8454 59.0171 56.1247 60.2623 56.3697 61.5244C56.6589 63.0386 57.2443 64.5278 57.6718 66.0361C58.1163 67.6951 58.5627 69.3613 59.0092 71.0275L59.796 74.1089C60.2134 75.6664 60.6307 77.224 61.0785 78.7501C61.4495 79.9318 61.9813 81.0472 62.4063 82.1989C62.4762 82.4597 62.6166 82.6939 62.6957 82.96C62.829 83.3102 62.8557 83.6921 62.7723 84.0575C62.6949 84.317 62.5252 84.5392 62.2953 84.6823C62.185 84.77 62.0691 84.8504 61.9482 84.9228C61.5533 85.1296 61.0698 84.8321 60.6299 84.2045C59.5442 82.2078 58.7138 80.0825 58.1584 77.8787C57.6777 76.2294 57.2674 74.5535 56.821 72.8872L56.8021 72.8457Z" fill="#0F172A"/>
<path d="M71.9339 64.2644L71.1314 61.0086L70.3705 57.734C70.1608 56.9516 69.9492 56.162 69.7376 55.3723C69.0884 52.5725 68.4608 49.7668 67.7661 46.9713C67.4361 45.7398 67.1061 44.5082 66.7781 43.2839C66.246 41.7478 65.8464 40.169 65.5835 38.5648C65.5186 38.0619 65.8254 38.0186 66.2943 38.32C66.5807 38.5127 66.8424 38.7399 67.0735 38.9964C67.3881 39.3119 67.6304 39.6921 67.7835 40.1105C68.3574 41.6727 68.9313 43.2349 69.4057 44.8316C69.8801 46.4282 70.2676 48.0481 70.6082 49.6961C71.0178 51.6595 71.7221 53.6215 72.2757 55.6007C72.8581 57.774 73.4404 59.9474 74.0228 62.1207L75.0619 66.1438C75.6055 68.1723 76.1075 70.2196 76.6906 72.2219C77.1606 73.7731 77.7875 75.2435 78.3096 76.7574C78.4008 77.0979 78.5553 77.4137 78.663 77.7575C79.0046 79.0325 78.8617 79.5134 78.3849 79.9362C78.281 80.0399 78.1688 80.1349 78.0495 80.2202C77.6623 80.456 77.1458 80.0353 76.6457 79.1832C75.3687 76.4907 74.3558 73.6807 73.621 70.7926C73.0387 68.6193 72.4564 66.446 71.874 64.2726L71.9339 64.2644Z" fill="#0F172A"/>
<path d="M101.696 74.1483C101.734 74.1239 101.768 74.0939 101.797 74.0593L101.853 73.9819C101.89 73.9722 101.89 73.9722 101.842 73.9384L101.71 73.9115L101.612 73.8914C101.612 73.8914 101.359 73.8738 101.224 73.8633C100.745 73.8441 100.267 73.8558 99.7894 73.8128C98.1185 73.6627 96.466 73.4067 94.8168 73.1342L92.61 72.8093C91.6239 72.7244 90.6686 72.4237 89.8117 71.9286C89.5264 71.7332 89.7523 71.533 90.097 71.3707C90.4922 71.1601 90.9403 71.0697 91.3861 71.1107C93.1677 71.3554 95.0344 71.6861 96.9083 72.0148C98.0594 72.179 99.2197 72.27 100.382 72.2874L101.089 72.3156L101.442 72.3296L101.636 72.3318L101.938 72.3286C102.344 72.3054 102.713 72.3228 103.129 72.2812L104.334 72.1682L104.386 72.3638L104.25 72.7263C104.152 72.9699 104.061 73.1807 103.965 73.4006C103.869 73.6205 103.724 73.9231 103.583 74.1784L103.112 74.9413C102.835 75.3571 102.629 75.6298 102.38 75.976C101.64 76.9509 100.859 77.8901 100.145 78.8499C99.5682 79.5946 99.1122 80.3845 98.6101 81.148C98.5002 81.3172 98.4014 81.499 98.2895 81.661C97.8487 82.276 97.6179 82.4 97.1718 82.271C97.0664 82.2487 96.9626 82.2194 96.8611 82.1835C96.5512 82.0413 96.5096 81.6254 96.7593 81.1082C97.5485 79.5791 98.4975 78.1379 99.5905 76.8089L100.788 75.3079L101.363 74.5559L101.635 74.1802C101.688 74.1193 101.671 74.1705 101.693 74.1647L101.696 74.1483Z" fill="#0F172A"/>
<path d="M59.5552 36.3523C57.5197 38.2408 55.3572 39.9877 53.0828 41.5806C52.2482 42.1459 51.4586 42.7923 50.6123 43.3141C47.6156 45.1687 44.4945 46.8144 41.2713 48.2395L39.1129 49.1673C38.4156 49.4628 37.658 49.7357 36.9312 50.0081C35.9963 50.344 35.0483 50.6602 34.0722 50.9295C33.108 51.2166 32.1156 51.3992 31.1123 51.4741C30.465 51.4923 30.5721 51.3704 31.067 51.1601C31.3206 51.0922 31.6503 50.9029 32.0637 50.7067C32.477 50.5106 32.9507 50.337 33.4698 50.1591C34.4164 49.8667 35.3319 49.4583 36.29 49.0929L37.6826 48.4946C38.1452 48.3085 38.6078 48.1224 39.0771 47.9035C40.9047 47.1032 42.711 46.2232 44.5004 45.3089C46.6574 44.1481 48.7291 42.8353 50.6999 41.3805C51.7777 40.5637 52.9131 39.8169 53.9242 38.9248C54.9352 38.0328 56.0609 37.2497 57.0236 36.293L58.8941 34.5805C59.5234 34.0314 60.0473 33.3786 60.6249 32.7812C62.3681 30.9506 63.9838 29.0026 65.4607 26.951C66.0143 26.1194 66.4935 25.2999 66.9781 24.4712L67.7177 23.2326C67.9636 22.8173 68.1466 22.3412 68.3747 21.9463C68.6027 21.5513 68.7385 21.1888 68.9414 20.816C69.6857 19.4209 70.0235 19.0586 70.6862 18.982C70.827 18.9606 70.969 18.9484 71.1113 18.9457C71.5505 18.9911 71.5282 19.7192 71.0628 20.8222C70.3927 22.5166 69.5687 24.146 68.6014 25.6901C68.1032 26.4681 67.5906 27.2499 67.078 28.0317C66.5654 28.8135 65.9222 29.5138 65.3453 30.2585L63.9921 31.9023C63.5464 32.441 63.0344 32.9354 62.5572 33.4437C61.5922 34.4787 60.6634 35.504 59.5963 36.4189L59.5552 36.3523Z" fill="#0F172A"/>
<path d="M72.8035 15.3786L72.7763 15.2772L72.7608 15.2193C72.7511 15.183 72.7394 15.1396 72.7258 15.0888C72.7122 15.0381 72.6679 15.1044 72.6316 15.1141C72.564 15.1525 72.5007 15.1981 72.4429 15.2501C72.1476 15.5388 71.8291 15.8571 71.5424 16.1203C70.4263 17.0649 69.1828 17.8477 67.8484 18.4456C67.2526 18.714 66.6587 18.9896 66.0623 19.227C65.3077 19.5715 64.5069 19.8044 63.6852 19.9183C63.4389 19.9843 63.4052 19.7138 63.5493 19.4112C63.7213 19.0374 64.0206 18.737 64.3938 18.5637C65.8733 17.9421 67.2885 17.2834 68.7192 16.5662C69.5674 16.0787 70.3471 15.4807 71.0379 14.788L71.4964 14.3545L72.1657 13.6938C72.4127 13.4568 72.6453 13.2236 72.8837 13.0122C73.0988 12.8 73.3249 12.5995 73.5613 12.4114L73.8146 13.7334L74.1086 15.2075L74.2988 16.2358C74.4837 17.2917 74.5832 18.3608 74.5963 19.4327C74.638 20.2692 74.6028 21.1078 74.4911 21.9378C74.4712 22.1215 74.4397 22.3037 74.3966 22.4834C74.2206 23.1595 74.0159 23.323 73.6285 23.3259C73.5488 23.3472 73.4502 23.3271 73.3608 23.3122C73.0743 23.257 72.9449 22.919 73.0284 22.4773C73.2619 21.1311 73.3329 19.7617 73.24 18.3986C73.1929 17.8754 73.144 17.345 73.0549 16.8098C72.987 16.5563 72.9659 16.2746 72.9178 16.008L72.7923 15.3661L72.8035 15.3786Z" fill="#0F172A"/>
</g>
<defs>
<clipPath id="clip0_1_1128">
<rect width="96" height="96" fill="white" transform="translate(0.5 25) rotate(-15)"/>
</clipPath>
</defs>
</svg>
