<svg width="97" height="96" viewBox="0 0 97 96" fill="none" xmlns="http://www.w3.org/2000/svg">
<path d="M18.3051 62.7451C18.27 62.7599 18.2391 62.7831 18.2151 62.8126L18.2526 62.7601C18.3223 62.6727 18.385 62.58 18.4401 62.4826C18.4803 62.4086 18.5129 62.3307 18.5376 62.2501C18.5792 62.1714 18.6023 62.0842 18.6051 61.9951V61.9276C18.5076 63.8626 18.6051 62.4676 18.5526 62.8951H17.9151C17.4404 62.9247 16.9689 62.9925 16.5051 63.0976C15.5226 63.3001 14.5026 63.6301 13.3851 63.9001C12.9351 63.9976 12.4551 64.1926 11.7951 64.3426C11.4216 64.4284 11.0378 64.4612 10.6551 64.4401C10.1293 64.4108 9.62803 64.2077 9.23011 63.8626C9.14011 63.7726 9.0426 63.6751 8.9601 63.5776C8.85011 63.4257 8.75706 63.2623 8.6826 63.0901C8.60219 62.8721 8.56896 62.6395 8.5851 62.4076C8.59887 62.1961 8.65498 61.9896 8.7501 61.8001C8.98344 61.382 9.32551 61.0347 9.7401 60.7951C10.265 60.4982 10.8145 60.2473 11.3826 60.0451L12.7476 59.5051C12.9617 59.4374 13.1535 59.313 13.3026 59.1451C13.3324 59.105 13.3485 59.0564 13.3485 59.0064C13.3485 58.9564 13.3324 58.9078 13.3026 58.8676C13.2395 58.8156 13.1593 58.7889 13.0776 58.7926C12.682 58.8424 12.2908 58.9226 11.9076 59.0326L11.4801 59.1151C11.1007 59.1775 10.7171 59.2101 10.3326 59.2126C9.87469 59.2216 9.41996 59.1348 8.9976 58.9576C8.50992 58.7437 8.11394 58.3636 7.88011 57.8851C7.72398 57.5883 7.66869 57.2487 7.7226 56.9176C7.78805 56.6005 7.94747 56.3104 8.1801 56.0851C8.50283 55.7644 8.88495 55.5097 9.3051 55.3351C9.98806 55.0834 10.6904 54.8878 11.4051 54.7501L15.0426 54.0001L15.5001 53.8501L15.7551 53.7751C15.8928 53.7274 16.0259 53.6672 16.1526 53.5951C16.2726 53.5351 16.4001 53.3926 16.3176 53.2501C16.2938 53.1821 16.2562 53.1196 16.2071 53.0667C16.1581 53.0138 16.0987 52.9716 16.0326 52.9426C15.8663 52.8604 15.6853 52.812 15.5001 52.8001C15.1465 52.7611 14.7907 52.746 14.4351 52.7551C13.6674 52.7781 12.9014 52.8407 12.1401 52.9426C10.6026 53.0527 9.07415 53.2657 7.5651 53.5801C6.6351 53.7376 6.62761 53.4376 7.31761 52.8301C8.50235 51.9327 9.92851 51.4103 11.4126 51.3301C12.1626 51.2626 13.0101 51.1501 13.8726 51.1201C14.3122 51.0941 14.753 51.0941 15.1926 51.1201H15.5376H15.7326C15.8311 51.1278 15.9289 51.1428 16.0251 51.1651C16.3972 51.2418 16.7594 51.3601 17.1051 51.5176C17.4047 51.6338 17.6734 51.8173 17.8906 52.054C18.1078 52.2907 18.2676 52.5742 18.3576 52.8826L18.4626 53.3326C18.4626 53.4826 18.4626 53.6401 18.4101 53.7901C18.3248 54.072 18.1731 54.3292 17.9676 54.5401C17.4026 54.9919 16.7558 55.3306 16.0626 55.5376C15.6501 55.6726 15.2451 55.7851 14.8401 55.8901C13.2426 56.2501 11.6301 56.5051 10.2951 56.9626C10.0326 57.0417 9.78074 57.1525 9.54511 57.2926H9.50761C9.45094 57.2462 9.38777 57.2083 9.32011 57.1801L9.23011 57.1351C9.26761 57.1351 9.2301 57.1351 9.3051 57.1351C9.3801 57.1351 9.6276 57.0001 9.5901 57.0601C9.6135 57.1199 9.64984 57.1738 9.69652 57.2179C9.74321 57.262 9.79907 57.2952 9.8601 57.3151C10.1241 57.3983 10.4018 57.4289 10.6776 57.4051H10.9851C11.1161 57.3922 11.2463 57.3722 11.3751 57.3451C11.7556 57.249 12.1311 57.1339 12.5001 57.0001C13.3326 56.7676 14.2026 56.4901 14.9151 56.3326C15.4493 56.2108 15.9948 56.1455 16.5426 56.1376C16.9016 56.1343 17.2595 56.1771 17.6076 56.2651C17.8214 56.318 18.021 56.4173 18.1921 56.556C18.3632 56.6947 18.5016 56.8694 18.5976 57.0676C18.7 57.3035 18.7363 57.5627 18.7026 57.8176C18.6666 58.0185 18.5901 58.2099 18.4776 58.3801C17.9159 59.1801 17.1454 59.8104 16.2501 60.2026C15.5526 60.5326 14.7501 60.8701 13.9026 61.2001L12.6426 61.6801L11.8551 61.9951C11.4272 62.1555 11.0214 62.3697 10.6476 62.6326C10.6476 62.6326 10.5801 62.6776 10.5801 62.6851C10.5801 62.6926 10.5801 62.7376 10.4601 62.6326C10.4064 62.5979 10.3484 62.5702 10.2876 62.5501C10.2051 62.5501 10.2426 62.5501 10.2051 62.5501C10.1676 62.5501 10.1376 62.5501 10.1526 62.5501H10.2126C10.6926 62.2501 10.5276 62.4226 10.6251 62.4301C10.9749 62.4965 11.3362 62.4627 11.6676 62.3326L12.4176 62.1076L13.2501 61.8601C14.2776 61.5976 15.3426 61.2526 16.4826 61.0501C17.2228 60.9015 17.9793 60.851 18.7326 60.9001C19.0612 60.9481 19.3645 61.1037 19.5951 61.3426C19.795 61.5332 19.9533 61.763 20.0601 62.0176C20.1754 62.3084 20.2015 62.627 20.1351 62.9326C20.0647 63.2125 19.9255 63.4703 19.7301 63.6826C19.1262 64.2347 18.3812 64.6086 17.5776 64.7626C17.2251 64.8676 16.8726 64.9201 16.5276 64.9876C16.2216 65.0352 15.9186 65.1003 15.6201 65.1826C14.7236 65.4235 13.8742 65.814 13.1076 66.3376C12.766 66.566 12.475 66.8622 12.2526 67.2076C12.1711 67.3553 12.1129 67.5147 12.0801 67.6801C12.0706 67.7423 12.0706 67.8055 12.0801 67.8676H12.0201C11.9226 67.9126 11.9151 67.9126 11.8851 67.9426C11.8551 67.9726 11.8851 67.9426 11.9301 67.8676C11.9492 67.8346 11.9643 67.7993 11.9751 67.7626C12.0322 67.772 12.0905 67.772 12.1476 67.7626C12.3492 67.7466 12.5482 67.7063 12.7401 67.6426C13.1985 67.5058 13.647 67.3379 14.0826 67.1401C15.0051 66.7501 15.8601 66.2776 16.9101 65.8951C17.6784 65.6519 18.4596 65.4516 19.2501 65.2951C19.6759 65.211 20.1069 65.1559 20.5401 65.1301C20.7916 65.1225 21.0431 65.1426 21.2901 65.1901C21.666 65.2508 22.0086 65.442 22.2576 65.7301C22.3497 65.8449 22.4349 65.9651 22.5126 66.0901C22.5854 66.2279 22.6481 66.3708 22.7001 66.5176C22.8126 66.8791 22.8126 67.2662 22.7001 67.6276C22.4693 68.1671 22.0726 68.6189 21.5676 68.9176C20.8531 69.3515 20.0999 69.7181 19.3176 70.0126L17.4651 70.7626C15.2151 71.7451 14.8026 72.0076 14.0076 72.0151C13.8276 72.0151 13.6401 72.0751 13.4826 72.0676C13.3251 72.0601 13.1526 71.7676 13.3851 71.2351C13.7721 70.4953 14.3595 69.8793 15.0801 69.4576C16.34 68.7382 17.6481 68.1067 18.9951 67.5676C19.5281 67.3574 20.0321 67.0802 20.4951 66.7426C20.5401 66.7426 20.5326 66.6976 20.5551 66.6751C20.6226 66.7342 20.6954 66.787 20.7726 66.8326C20.9601 66.9901 21.1851 67.0051 21.0576 66.9901C20.9784 66.9944 20.9002 67.0095 20.8251 67.0351C20.8251 67.0351 20.6676 67.0351 20.6001 67.1026C20.5471 67.1212 20.4967 67.1464 20.4501 67.1776C20.4412 67.173 20.4332 67.1667 20.4268 67.159C20.4203 67.1512 20.4155 67.1423 20.4126 67.1326C22.0326 65.9701 20.8626 66.8101 21.2226 66.5476C21.1936 66.5951 21.161 66.6402 21.1251 66.6826C21.0771 66.7536 21.0416 66.8322 21.0201 66.9151C21.0201 66.9751 20.9151 67.1401 20.8926 67.2526C20.8701 67.3651 20.8926 67.3801 20.8926 67.3876H20.7501C20.6577 67.3808 20.565 67.3808 20.4726 67.3876C20.1873 67.4088 19.904 67.4514 19.6251 67.5151C18.9753 67.6519 18.3341 67.8272 17.7051 68.0401C17.2476 68.1976 16.5501 68.5501 15.8826 68.8426C15.1653 69.1822 14.4291 69.4802 13.6776 69.7351C13.3303 69.8497 12.9741 69.935 12.6126 69.9901C12.3645 70.028 12.1132 70.0406 11.8626 70.0276C11.4579 70.0347 11.058 69.9392 10.7001 69.7501C10.2512 69.4459 9.93066 68.9865 9.8001 68.4601C9.73269 68.1448 9.71748 67.8204 9.75511 67.5001C9.83268 67.018 10.0006 66.5549 10.2501 66.1351C10.65 65.465 11.1929 64.8913 11.8401 64.4551C12.3855 64.0822 12.9687 63.768 13.5801 63.5176C14.1578 63.2827 14.7586 63.1093 15.3726 63.0001C16.1226 62.8651 16.5201 62.8576 16.9851 62.7676C17.3662 62.7094 17.7372 62.5983 18.0876 62.4376L18.1626 62.3926C18.1626 62.3926 18.4326 62.6176 18.5451 62.6401C18.5722 62.6468 18.6005 62.6468 18.6276 62.6401H18.5826C18.5383 62.629 18.4919 62.629 18.4476 62.6401C18.3912 62.6559 18.3379 62.6813 18.2901 62.7151L18.3051 62.7451Z" fill="#0F172A"/>
<path d="M86.8248 19.8526C86.8792 19.8149 86.9251 19.7664 86.9598 19.7101C86.9688 19.6969 86.9744 19.6817 86.9761 19.6658C86.9778 19.65 86.9756 19.634 86.9697 19.6192C86.9637 19.6044 86.9543 19.5912 86.9421 19.5809C86.9299 19.5706 86.9154 19.5635 86.8998 19.5601C86.8322 19.5341 86.7574 19.5341 86.6898 19.5601L86.5923 19.5976L86.3373 19.7476C86.1478 19.8728 85.965 20.008 85.7898 20.1526C85.038 20.7874 84.3543 21.4987 83.7498 22.2751C83.09 23.1851 82.3549 24.0381 81.5523 24.8251C81.1873 25.1822 80.7637 25.474 80.2998 25.6876C80.129 25.7493 79.9534 25.797 79.7748 25.8301C79.5463 25.8669 79.3134 25.8669 79.0848 25.8301C78.848 25.7525 78.627 25.6331 78.4323 25.4776C78.1984 25.2747 78.0179 25.0174 77.9068 24.7284C77.7956 24.4394 77.7572 24.1275 77.7948 23.8201C77.8303 23.5237 77.906 23.2335 78.0198 22.9576C78.2255 22.5292 78.477 22.1243 78.7698 21.7501C79.3068 21.0794 79.8854 20.4431 80.5023 19.8451C80.7948 19.5451 81.0648 19.3051 81.3123 19.0276C81.5598 18.7501 81.8448 18.4351 82.0623 18.1351C82.5671 17.5621 83.0261 16.9502 83.4348 16.3051C83.6168 16.0233 83.7653 15.7213 83.8773 15.4051C83.9091 15.3001 83.9292 15.192 83.9373 15.0826C83.9373 15.0001 83.9373 15.0151 83.9373 15.0001H84.2448C84.2448 15.0001 84.2448 15.0001 84.2448 15.0601C84.2373 15.0997 84.2373 15.1404 84.2448 15.1801H84.1923H84.0873C83.8863 15.2683 83.6973 15.3817 83.5248 15.5176C83.1128 15.8366 82.7266 16.1877 82.3698 16.5676C81.6198 17.3176 80.8698 18.1801 80.1198 19.0201L78.9123 20.4151C78.4456 20.9591 77.9446 21.4726 77.4123 21.9526C77.1105 22.2486 76.7538 22.483 76.3623 22.6426C76.1895 22.7077 76.007 22.7432 75.8223 22.7476C75.6272 22.7197 75.4359 22.6694 75.2523 22.5976C74.8812 22.461 74.5721 22.1946 74.3823 21.8476C74.2163 21.4921 74.1615 21.0948 74.2248 20.7076C74.3152 20.1581 74.4924 19.6264 74.7498 19.1326C74.9673 18.6901 75.1398 18.3826 75.3573 18.0226C75.7698 17.3326 76.2123 16.6801 76.6473 16.0426C77.0823 15.4051 77.5173 14.7676 77.9148 14.1451C78.1023 13.8301 78.3048 13.5226 78.4698 13.2226C78.6243 12.9649 78.7429 12.6874 78.8223 12.3976C78.9198 12.1726 78.8598 12.0376 78.9873 11.9326C79.1148 11.8276 79.4523 11.8351 79.7373 12.3601C79.9667 13.0261 79.9825 13.7472 79.7823 14.4226C79.5556 15.2515 79.1932 16.0371 78.7098 16.7476L77.4123 18.7051L76.8198 19.6501C76.5948 20.0401 76.5873 20.0626 76.5873 20.0551C76.5873 20.0551 76.5873 20.0551 76.6923 19.9651C77.7273 18.8926 78.7473 17.6476 79.8348 16.4551C80.3899 15.8337 80.9783 15.2428 81.5973 14.6851C81.9345 14.3792 82.2957 14.1008 82.6773 13.8526C82.9126 13.6981 83.1641 13.5699 83.4273 13.4701C83.7984 13.3207 84.2046 13.2817 84.5973 13.3576C84.7485 13.4053 84.8963 13.4629 85.0398 13.5301L85.1823 13.6051L85.2948 13.7401C85.5947 14.1101 85.7493 14.5767 85.7298 15.0526C85.7165 15.3938 85.6481 15.7307 85.5273 16.0501C85.3307 16.5608 85.0792 17.0486 84.7773 17.5051C84.2257 18.3465 83.6194 19.1507 82.9623 19.9126C82.6623 20.2726 82.2648 20.7076 81.9423 21.0301C81.6198 21.3526 81.2748 21.7051 80.9673 22.0501C80.6655 22.3742 80.385 22.7174 80.1273 23.0776C79.931 23.3351 79.7859 23.6279 79.6998 23.9401C79.6998 23.9776 79.6998 23.9776 79.6998 23.9926C79.6998 24.0076 79.8123 23.8801 79.6998 23.9926C79.6998 23.9926 79.6098 24.1201 79.6173 24.1051C79.6252 24.0428 79.6252 23.9798 79.6173 23.9176C79.9774 23.7464 80.3009 23.507 80.5698 23.2126C81.2833 22.4474 81.9543 21.6437 82.5798 20.8051C83.2919 19.911 84.1133 19.1097 85.0248 18.4201C85.2639 18.2391 85.5144 18.0738 85.7748 17.9251C86.1258 17.7209 86.5049 17.5693 86.8998 17.4751C87.2651 17.3769 87.6467 17.3549 88.0208 17.4104C88.395 17.4659 88.7537 17.5977 89.0748 17.7976C89.256 17.9227 89.4044 18.0895 89.5075 18.284C89.6106 18.4785 89.6654 18.695 89.6673 18.9151C89.6606 19.3673 89.5282 19.8088 89.2848 20.1901C89.1569 20.4006 89.0166 20.6035 88.8648 20.7976L88.6323 21.0976L88.4298 21.3151C88.1748 21.6076 87.9498 21.8326 87.6798 22.0651C86.6973 23.0101 85.6698 23.8651 84.6798 24.7276C83.9356 25.3043 83.2543 25.9579 82.6473 26.6776C82.5286 26.8452 82.4257 27.0235 82.3398 27.2101C82.3088 27.2752 82.2837 27.343 82.2648 27.4126C82.2198 27.4576 82.3623 27.4126 82.1223 27.4126C82.0548 27.4126 82.0398 27.4126 81.9873 27.4126C81.9348 27.4126 81.9048 27.4576 81.9198 27.4126C81.953 27.3826 81.9765 27.3435 81.9873 27.3001C81.9873 27.3001 81.9873 27.2326 82.0323 27.1276C82.0773 27.0226 82.0323 27.1276 82.0323 27.0901C82.0972 27.0953 82.1624 27.0953 82.2273 27.0901C82.3262 27.0675 82.4238 27.04 82.5198 27.0076L82.7823 26.9176C82.9538 26.813 83.1168 26.6951 83.2698 26.5651L83.8323 26.0926L84.9648 25.1101C85.7148 24.4501 86.4648 23.7976 87.3198 23.1826C87.6456 22.9345 87.9863 22.7066 88.3398 22.5001C88.7275 22.2474 89.1565 22.0646 89.6073 21.9601C89.9616 21.8807 90.3329 21.9426 90.6423 22.1326C90.9449 22.3457 91.1522 22.6687 91.2198 23.0326C91.2559 23.1596 91.276 23.2906 91.2798 23.4226C91.2878 23.4924 91.2878 23.5628 91.2798 23.6326C91.2876 23.7324 91.2876 23.8327 91.2798 23.9326C91.2023 24.1969 91.0887 24.4493 90.9423 24.6826C90.4944 25.3499 89.9927 25.9794 89.4423 26.5651C88.9098 27.1351 88.3698 27.6826 87.8373 28.2301L86.4648 29.6701C85.891 30.2984 85.2852 30.8967 84.6498 31.4626C84.3584 31.7373 84.0102 31.9446 83.6298 32.0701C83.4878 32.1392 83.3544 32.2248 83.2323 32.3251C83.1348 32.3851 83.0598 32.3776 82.9848 32.2426C82.8943 32.0324 82.8681 31.8001 82.9098 31.5751C83.0642 30.7933 83.4182 30.0647 83.9373 29.4601C84.8298 28.3351 85.8048 27.3301 86.7648 26.3176L88.1898 24.8176C88.4248 24.5726 88.6423 24.3226 88.8423 24.0676C89.0153 23.8679 89.1685 23.6518 89.2998 23.4226V23.3851L89.4123 23.4376C89.5473 23.5051 89.7798 23.5351 89.8623 23.5726L90.0273 23.6101H89.2773C89.2736 23.5777 89.2736 23.545 89.2773 23.5126C89.3895 23.4848 89.4997 23.4498 89.6073 23.4076C89.9523 23.3476 90.1173 23.0701 90.0348 23.2126C90.015 23.2558 89.9999 23.3011 89.9898 23.3476C89.9898 23.4001 89.9898 23.4526 89.9898 23.5726C89.9747 23.672 89.9747 23.7732 89.9898 23.8726C89.9898 23.8726 89.9898 24.0526 89.9898 24.0301C89.7927 24.0985 89.604 24.1891 89.4273 24.3001C89.1873 24.4426 88.9173 24.6376 88.6773 24.8251C87.6198 25.5751 86.5698 26.5651 85.4748 27.5326L84.8523 28.0726L84.5073 28.3576L84.3123 28.5076L84.2073 28.5901L84.0423 28.6951C83.8377 28.823 83.6187 28.9262 83.3898 29.0026C83.2131 29.0656 83.0328 29.1182 82.8498 29.1601C82.6042 29.2203 82.3527 29.253 82.0998 29.2576C81.895 29.2513 81.6914 29.2236 81.4923 29.1751C81.3402 29.1273 81.1942 29.0619 81.0573 28.9801C80.899 28.8958 80.7588 28.7811 80.6448 28.6426C80.4127 28.3804 80.2594 28.0581 80.2023 27.7126C80.1917 27.6003 80.1917 27.4873 80.2023 27.3751C80.1931 27.2778 80.1931 27.1799 80.2023 27.0826C80.2368 26.824 80.3075 26.5715 80.4123 26.3326C80.558 25.9921 80.7389 25.6678 80.9523 25.3651C81.1497 25.0774 81.3704 24.8065 81.6123 24.5551C81.8373 24.3226 82.0473 24.1276 82.2573 23.9326C83.1048 23.1826 83.9223 22.5001 84.7173 21.8026C85.1148 21.4576 85.4673 21.1051 85.8723 20.7526L86.4123 20.2276L86.6673 19.9576L86.8623 19.7401L86.8248 19.8526Z" fill="#0F172A"/>
<path d="M41.5774 42.9075C42.4999 40.9725 43.4899 39.0525 44.5774 37.185C44.8624 36.705 45.0874 36.285 45.4399 35.76C45.7938 35.2595 46.2124 34.8081 46.6849 34.4175C47.5485 33.701 48.4748 33.0634 49.4524 32.5125C50.8324 31.71 52.2199 30.975 53.6374 30.315C56.1424 29.145 58.6699 28.065 61.1749 27C62.4199 26.4525 63.6574 25.89 64.8649 25.29C66.0687 24.7098 67.2204 24.0273 68.3074 23.25C70.123 21.7103 71.7789 19.9917 73.2499 18.12C74.2249 16.9275 75.1549 15.6975 76.1074 14.4675C76.5949 13.86 77.0599 13.2375 77.6074 12.66C78.1549 12.0825 78.6649 11.5125 79.2274 10.965C79.9249 10.2825 79.9774 10.5 79.6174 11.28C79.4449 11.6625 79.1899 12.2025 78.8674 12.84C78.7024 13.155 78.5374 13.5 78.3274 13.845C78.1174 14.19 77.8699 14.5425 77.5774 14.9025C75.7419 17.5272 73.7165 20.0139 71.5174 22.3425C70.9474 22.92 70.3549 23.475 69.7399 24.015C69.0987 24.5791 68.4056 25.0813 67.6699 25.515C66.265 26.3336 64.8124 27.0674 63.3199 27.7125C59.8174 29.2875 56.1874 30.885 52.7299 32.6025C50.8456 33.4666 49.0809 34.5707 47.4799 35.8875C47.1256 36.2035 46.8198 36.5699 46.5724 36.975L45.7999 38.3175C45.2674 39.2325 44.7649 40.17 44.2999 41.115C43.0924 43.4475 42.0049 45.8475 40.9249 48.2475C40.0928 50.0362 39.408 51.8899 38.8774 53.79C38.6449 54.735 38.3524 55.755 38.8174 56.2425C39.2824 56.73 40.1974 56.7675 41.0149 56.355C42.3016 55.6401 43.4436 54.6913 44.3824 53.5575C45.3663 52.4503 46.2287 51.2409 46.9549 49.95C47.2774 49.3875 47.5549 48.81 47.8324 48.2175C48.3424 47.1225 48.5824 46.3725 48.8374 45.8625C49.003 45.4835 49.2398 45.1398 49.5349 44.85C49.6319 44.7443 49.7373 44.6465 49.8499 44.5575C50.0149 44.46 50.0974 44.6775 50.1199 45.165C50.1142 45.897 49.9927 46.6235 49.7599 47.3175C48.847 50.1009 47.3513 52.6577 45.3724 54.8175C44.3441 55.9976 43.1183 56.9899 41.7499 57.75C41.3413 57.9556 40.9077 58.1068 40.4599 58.2C40.2135 58.2524 39.9617 58.275 39.7099 58.2675H39.2974C39.1553 58.2355 39.015 58.1954 38.8774 58.1475C38.6045 58.0638 38.3499 57.9289 38.1274 57.75C37.8735 57.584 37.6544 57.37 37.4824 57.12C37.1499 56.6275 36.9843 56.0412 37.0099 55.4475C37.0202 54.8081 37.1007 54.1718 37.2499 53.55C37.3849 53.0025 37.5349 52.4625 37.7074 51.93C38.0449 50.8725 38.4574 49.8375 38.8624 48.825C39.7174 46.8075 40.5949 44.8725 41.5099 42.8925L41.5774 42.9075Z" fill="#0F172A"/>
<path d="M75.0204 42.3C76.2729 40.4625 77.5854 38.6775 78.9204 36.9225C79.4079 36.2775 79.8579 35.61 80.3529 34.98C81.2229 33.87 82.1004 32.73 83.0304 31.6575C83.9604 30.585 84.9054 29.52 85.8729 28.4775C86.7279 27.555 87.5904 26.6175 88.4604 25.71C89.5326 24.4555 90.8299 23.4126 92.2854 22.635C92.7729 22.41 92.8104 22.7025 92.6004 23.1675C92.2935 23.8158 91.8745 24.4048 91.3629 24.9075C89.0754 27.0675 86.9454 29.5125 84.7479 31.9275C83.4204 33.3525 82.2729 35.0325 81.0504 36.6375C79.7154 38.3925 78.3954 40.1625 77.1429 41.97C76.3929 43.08 75.6429 44.22 74.8929 45.36C73.8204 47.1075 72.7254 48.8625 71.7804 50.67C71.0304 52.0725 70.4754 53.5125 69.8979 54.9525C69.7779 55.2675 69.6654 55.5825 69.5454 55.905C69.0879 57.09 68.8404 57.405 68.3979 57.57C68.3083 57.6123 68.2156 57.6474 68.1204 57.675C67.8804 57.735 67.7304 57.12 67.9554 56.175C68.3106 54.744 68.7951 53.3483 69.4029 52.005C70.0179 50.6475 70.7229 49.3125 71.4654 48.0075C72.5754 46.0725 73.7154 44.1675 74.9754 42.285L75.0204 42.3Z" fill="#0F172A"/>
<path d="M25.8424 49.2976C24.0574 49.6876 22.2698 50.0601 20.4799 50.4151C19.8198 50.5426 19.1749 50.7076 18.5224 50.8276C16.2124 51.2401 13.8949 51.5776 11.5774 51.9751C10.5499 52.1326 9.52235 52.3201 8.50235 52.4926C7.84985 52.6126 7.18985 52.7101 6.52985 52.8001C5.86037 52.8375 5.18933 52.8375 4.51985 52.8001C4.10735 52.8001 4.15235 52.6651 4.48235 52.4776C4.63985 52.3726 4.88735 52.2976 5.16485 52.1101L5.61485 51.8326C5.68985 51.7801 5.77985 51.7501 5.86235 51.6826L6.13235 51.6226C8.76485 51.1426 11.4199 50.7526 14.1049 50.3626C15.7174 50.1451 17.3598 49.7326 18.9798 49.3876C20.7649 49.0026 22.5449 48.5976 24.3199 48.1726L27.5974 47.3551C29.2474 46.9276 30.9124 46.5226 32.5549 46.0726C33.8299 45.7276 35.0598 45.3226 36.3498 44.9851C36.6348 44.9101 36.9123 44.8276 37.2123 44.7751C38.3074 44.5726 38.8324 44.7751 38.9974 45.2551C39.0429 45.3408 39.0685 45.4356 39.0723 45.5326C39.0723 45.6526 38.9374 45.7051 38.7873 45.8401C38.5703 46.0095 38.3108 46.1158 38.0373 46.1476C36.9949 46.3876 35.8549 46.7476 34.7074 47.0626L31.2048 48.0001C29.4423 48.4651 27.6423 48.8701 25.8498 49.3051L25.8424 49.2976Z" fill="#0F172A"/>
<path d="M70.1224 64.8375C70.1224 64.755 70.1749 64.6574 70.2049 64.5675C70.2349 64.4775 70.2049 64.3425 70.2049 64.335C70.2049 64.3275 70.2049 64.335 70.1524 64.155C70.0719 63.9898 69.9818 63.8295 69.8824 63.675C69.6724 63.345 69.4249 63 69.1324 62.67C68.6149 61.9875 68.0524 61.3275 67.4749 60.675C66.8974 60.0225 66.4549 59.61 65.9749 59.0625C64.2499 57.135 62.4274 55.2675 60.4999 53.4525C59.6524 52.6275 58.8124 51.8175 57.9424 51.0825C56.8344 50.1761 55.6584 49.3562 54.4249 48.63C54.0499 48.375 54.1174 48.2475 54.5899 48.12C54.9544 48.0172 55.336 47.9902 55.7114 48.0405C56.0867 48.0908 56.4478 48.2174 56.7724 48.4125C58.1347 49.2283 59.3938 50.2053 60.5224 51.3225L62.1724 52.875C62.7424 53.4 63.2749 53.955 63.7999 54.525C65.0599 55.8825 66.4849 57.165 67.7824 58.545C68.5324 59.295 69.1924 60.045 69.8674 60.8775C70.2049 61.2825 70.5349 61.695 70.8499 62.1225C71.1984 62.5704 71.5 63.0529 71.7499 63.5625C71.856 63.7984 71.9122 64.0537 71.9149 64.3125C71.8843 64.9607 71.7095 65.5939 71.4033 66.166C71.0971 66.7382 70.6672 67.2349 70.1449 67.62C69.7352 67.9504 69.2869 68.2299 68.8099 68.4524C68.3201 68.7031 67.7891 68.8631 67.2424 68.925C66.9534 68.9587 66.6614 68.9587 66.3724 68.925C66.1178 68.8629 65.8674 68.7852 65.6224 68.6925C65.1381 68.4899 64.6757 68.2386 64.2424 67.9425C63.5927 67.5321 62.9713 67.0786 62.3824 66.585C61.7989 66.1146 61.2407 65.6139 60.7099 65.085C60.4849 64.845 60.2599 64.6125 60.0499 64.335C59.2324 63.4275 59.2399 62.9175 59.2999 62.535C59.3057 62.4461 59.3207 62.3581 59.3449 62.2725C59.3449 62.16 59.5174 62.1675 59.7499 62.2725C60.0922 62.3879 60.4138 62.5575 60.7024 62.775L62.2024 64.0125C62.6974 64.44 63.1849 64.875 63.7024 65.2725C64.2199 65.67 64.7074 66.06 65.2024 66.3825C65.6379 66.6938 66.1256 66.9249 66.6424 67.065C66.7249 67.1025 66.7849 67.065 66.8599 67.065C66.9349 67.065 67.0024 67.065 67.0549 67.065C67.1121 67.0572 67.1701 67.0572 67.2274 67.065C67.3165 67.0459 67.4042 67.0209 67.4899 66.99C67.8816 66.8625 68.2568 66.6888 68.6074 66.4725C69.2839 66.1171 69.8147 65.5359 70.1074 64.83L70.1224 64.8375Z" fill="#0F172A"/>
<path d="M58.85 70.1476C59.5408 70.6814 60.2969 71.125 61.1 71.4676C61.376 71.5613 61.6595 71.6316 61.9475 71.6776C62.3737 71.7976 62.8289 71.7603 63.23 71.5726C63.7525 71.2948 64.2538 70.9789 64.73 70.6276C65.1407 70.3221 65.5045 69.9583 65.81 69.5476C66.1591 69.0228 66.4795 68.4795 66.77 67.9201C66.8675 67.7476 67.115 67.8151 67.3325 68.0701C67.4662 68.23 67.5587 68.4203 67.6019 68.6243C67.645 68.8282 67.6375 69.0397 67.58 69.2401C67.2847 70.002 66.8236 70.6886 66.23 71.2501C65.6847 71.7897 65.06 72.2424 64.3775 72.5926C63.9166 72.8858 63.4094 73.0988 62.8775 73.2226C62.3578 73.3282 61.8221 73.3282 61.3025 73.2226C60.3042 72.9722 59.354 72.5592 58.49 72.0001C57.965 71.6776 57.47 71.3251 56.99 70.9651C56.24 70.4176 55.565 69.8101 54.8675 69.2326C54.3275 68.7826 53.7425 68.3851 53.2025 67.9126C53.0755 67.8186 52.9552 67.7158 52.8425 67.6051C52.43 67.1776 52.415 66.9301 52.745 66.5326C52.82 66.4426 52.895 66.3451 52.9775 66.2626C53.1069 66.1338 53.2789 66.0566 53.4611 66.0456C53.6434 66.0345 53.8234 66.0903 53.9675 66.2026C54.9488 66.8897 55.8834 67.6413 56.765 68.4526C57.4375 69.0569 58.1437 69.6228 58.88 70.1476H58.85Z" fill="#0F172A"/>
<path d="M52.64 74.5649C53.3677 75.1274 54.1519 75.6125 54.9801 76.0124C55.2659 76.129 55.559 76.2267 55.8576 76.3049C56.0813 76.3751 56.3133 76.4154 56.5476 76.4249C56.6374 76.4333 56.7277 76.4333 56.8175 76.4249C56.93 76.4249 57.0876 76.3199 57.2151 76.2749C57.768 76.0685 58.2943 75.7966 58.7826 75.4649C59.1992 75.1685 59.5598 74.8002 59.8476 74.3774C60.1738 73.8395 60.4428 73.2689 60.6501 72.6749C60.7101 72.5174 61.0101 72.4949 61.3026 72.7274C61.4794 72.8714 61.611 73.0633 61.6815 73.2801C61.752 73.4969 61.7584 73.7295 61.7001 73.9499C61.4389 74.7783 60.9535 75.5181 60.2976 76.0874C59.7005 76.6382 59.0062 77.0732 58.2501 77.3699L57.5901 77.6399L57.4176 77.7149L57.1851 77.7974C57.0276 77.8499 56.8776 77.8574 56.7201 77.8949C56.176 77.9382 55.6287 77.8771 55.1076 77.7149C54.1149 77.3695 53.1777 76.882 52.3251 76.2674C51.8076 75.9224 51.3051 75.5174 50.8251 75.1649C50.0751 74.5874 49.3926 73.9499 48.6876 73.3424C48.1476 72.8624 47.5551 72.4574 47.0376 71.9324C46.9176 71.8199 46.7976 71.7074 46.6926 71.5874C46.3026 71.1149 46.2801 70.8374 46.5351 70.5449C46.589 70.4677 46.6492 70.3949 46.7151 70.3274C46.9476 70.1324 47.2701 70.1849 47.5851 70.4249C48.5526 71.1224 49.4826 71.9699 50.4576 72.7874C51.2076 73.3949 51.9126 74.0024 52.7076 74.5349L52.64 74.5649Z" fill="#0F172A"/>
<path d="M40.3474 72.8325C41.2924 73.695 42.2524 74.5575 43.2649 75.3375C43.6249 75.6375 44.0149 75.8625 44.4049 76.1475C45.0539 76.6293 45.7273 77.0774 46.4224 77.49C47.1038 77.8775 47.8395 78.1606 48.6049 78.33C49.2796 78.4958 49.9801 78.5289 50.6674 78.4275C51.4725 78.2809 52.1928 77.8364 52.6849 77.1825C52.8574 76.98 53.0749 77.0925 53.1799 77.4525C53.2451 77.7238 53.2333 78.008 53.1458 78.2729C53.0584 78.5379 52.8988 78.7733 52.6849 78.9525C52.2123 79.3371 51.6497 79.5952 51.0499 79.7025C50.4972 79.8136 49.9313 79.8439 49.3699 79.7925C48.8455 79.7527 48.3258 79.6648 47.8174 79.53C47.561 79.4683 47.3102 79.3855 47.0674 79.2825C46.8063 79.1902 46.555 79.0722 46.3174 78.93C45.2287 78.346 44.1745 77.7 43.1599 76.995C42.0724 76.245 41.0449 75.3675 40.0474 74.4975C39.4249 73.965 38.8324 73.4025 38.2324 72.855C37.3324 72.0075 36.4624 71.1225 35.6074 70.245C34.9324 69.5625 34.2424 68.925 33.5899 68.2125C33.4474 68.0475 33.3049 67.8975 33.1699 67.725C32.6749 67.0875 32.6524 66.7575 32.9074 66.4425C32.9595 66.3615 33.0198 66.2861 33.0874 66.2175C33.3199 66.015 33.7024 66.1575 34.0324 66.5475C35.1349 67.6875 36.3349 68.91 37.5649 70.1175C38.4799 71.0175 39.4174 71.91 40.3774 72.7725L40.3474 72.8325Z" fill="#0F172A"/>
<path d="M20.8095 69.075L24.222 67.8899C24.642 67.7474 25.0395 67.56 25.467 67.425C26.967 66.9375 28.467 66.5325 29.967 66.1725C30.6495 66.0225 31.332 65.835 32.022 65.7C32.4753 65.5956 32.9373 65.5328 33.402 65.5125C33.8978 65.5171 34.3866 65.6297 34.8345 65.8425C35.1195 65.9925 34.962 66.195 34.677 66.4125C34.3551 66.6799 33.9898 66.8905 33.597 67.035C32.0595 67.23 30.3495 67.665 28.617 68.04C27.5753 68.325 26.551 68.6706 25.5495 69.075L22.137 70.2825L20.0295 71.0325L16.8345 72.1875C16.0095 72.495 15.222 72.885 14.3595 73.155C14.1679 73.2173 13.9725 73.2674 13.7745 73.305C13.0245 73.44 12.6945 73.305 12.5595 72.915C12.5195 72.8319 12.4918 72.7435 12.477 72.6525C12.4714 72.5797 12.4826 72.5066 12.51 72.439C12.5373 72.3713 12.5799 72.3109 12.6345 72.2625C12.7789 72.1394 12.9439 72.0429 13.122 71.9775C14.4045 71.3925 15.9045 70.875 17.4045 70.29L20.787 69.03L20.8095 69.075Z" fill="#0F172A"/>
<path d="M19.3474 62.6401C18.8433 61.5955 18.4172 60.5151 18.0724 59.4076C17.9374 59.0101 17.7874 58.6126 17.6899 58.2001C17.3358 56.7281 17.2143 55.2097 17.3299 53.7001C17.3749 53.0401 17.4574 52.3726 17.5624 51.7201C17.6322 51.2959 17.7325 50.8774 17.8624 50.4676C18.009 50.0589 18.2246 49.6784 18.4999 49.3426C18.6649 49.1251 18.9199 49.3426 19.1299 49.6501C19.3697 50.0107 19.4831 50.4406 19.4524 50.8726C19.0334 52.3205 18.8213 53.8203 18.8224 55.3276C18.8517 56.2957 19.0261 57.2538 19.3399 58.1701C19.6279 59.2121 19.9965 60.2302 20.4424 61.2151C20.7199 61.8301 21.0274 62.4301 21.3574 63.0151C21.8539 63.9092 22.4286 64.7575 23.0749 65.5501C23.5812 66.1346 24.1467 66.6649 24.7624 67.1326L25.1524 67.4101C25.6174 67.7701 25.6399 67.9276 25.6024 68.3176C25.6024 68.4076 25.6024 68.5051 25.6024 68.5876C25.6474 68.8801 25.1374 69.0451 24.5974 68.8126C23.8776 68.4614 23.2231 67.9896 22.6624 67.4176C22.1095 66.8692 21.6074 66.2717 21.1624 65.6326C20.4808 64.6796 19.8716 63.6768 19.3399 62.6326L19.3474 62.6401Z" fill="#0F172A"/>
<path d="M79.8129 28.2001C79.6292 27.7793 79.4136 27.3731 79.1679 26.9851L78.8004 26.3926L78.3579 25.8451C78.1282 25.5756 77.8774 25.3248 77.6079 25.0951L76.9704 24.4351L76.2654 23.8351C75.7963 23.4184 75.2947 23.0397 74.7654 22.7026C74.2873 22.411 73.7855 22.1602 73.2654 21.9526C72.5829 21.7169 71.9228 21.4207 71.2929 21.0676C71.0979 20.9476 71.1954 20.7076 71.4654 20.5051C71.6334 20.3835 71.8248 20.2981 72.0274 20.2542C72.2301 20.2103 72.4397 20.2089 72.6429 20.2501C73.03 20.3171 73.4093 20.4226 73.7754 20.5651C74.1354 20.7151 74.5254 20.8726 74.8554 21.0376C75.2169 21.1989 75.5633 21.3921 75.8904 21.6151C76.2302 21.8235 76.5559 22.054 76.8654 22.3051C77.2329 22.6201 77.6154 22.9126 78.0129 23.1976C78.4104 23.4826 78.7629 23.8426 79.1154 24.1726C79.4679 24.5026 79.8654 24.9826 80.1729 25.4026C80.4804 25.8226 80.8029 26.2801 81.0504 26.7601C81.2004 27.0526 81.3654 27.3451 81.5079 27.6376L81.8904 28.5526C82.2397 29.4917 82.4911 30.4644 82.6404 31.4551C82.7911 32.2163 82.8739 32.9893 82.8879 33.7651C82.8879 33.9451 82.8879 34.1176 82.8879 34.2901C82.8653 34.4288 82.8276 34.5646 82.7754 34.6951C82.7195 34.7886 82.6485 34.8722 82.5654 34.9426C82.4255 35.0551 82.2498 35.1136 82.0704 35.1076C81.9856 35.1149 81.9002 35.1149 81.8154 35.1076C81.5529 35.1076 81.3579 34.7626 81.2229 34.3576C81.0729 33.1651 80.9154 32.0101 80.6904 30.8176C80.5085 29.9282 80.2189 29.0644 79.8279 28.2451L79.8129 28.2001Z" fill="#0F172A"/>
<path d="M79.1227 71.9174C79.0177 71.9174 79.0177 71.7824 79.1227 71.5199C79.1728 71.4064 79.2384 71.3004 79.3177 71.2049C79.3879 71.1676 79.4606 71.135 79.5352 71.1074C79.5727 71.1074 80.0152 71.1899 80.1727 71.1974C80.315 71.2144 80.454 71.2523 80.5852 71.3099C80.8552 71.4149 81.1327 71.4974 81.4102 71.5874C81.4738 71.6078 81.5325 71.641 81.5827 71.6849C81.7628 71.8268 81.9779 71.9175 82.2052 71.9474C82.2238 71.9567 82.2444 71.9615 82.2652 71.9615C82.286 71.9615 82.3065 71.9567 82.3252 71.9474C82.5857 71.9407 82.8437 72.0001 83.0752 72.1199C83.2368 72.2605 83.4072 72.3908 83.5852 72.5099C83.5852 72.5099 83.6452 72.5099 83.6527 72.5849C83.6602 72.6599 83.7427 72.7199 83.8027 72.7499C83.8844 72.7921 83.9601 72.8451 84.0277 72.9074C84.0609 72.9646 84.0885 73.0249 84.1102 73.0874C84.1151 73.1727 84.0914 73.2572 84.0427 73.3274C83.9902 73.3724 83.9977 73.4624 83.9827 73.5374V73.6124C83.7776 73.7196 83.5577 73.7954 83.3302 73.8374L82.9402 73.7849L82.4827 73.7399C82.4377 73.7399 82.4002 73.7399 82.3627 73.6724L81.7252 73.5524C81.6127 73.4924 81.4777 73.4924 81.3952 73.3424C81.3952 73.3424 81.3577 73.3424 81.3277 73.3424C81.1221 73.2678 80.9258 73.1696 80.7427 73.0499C80.6452 72.9974 80.5402 72.9599 80.4352 72.9149C80.3302 72.8699 80.4352 72.9149 80.3902 72.8699C80.3452 72.8249 80.3902 72.8249 80.3302 72.8174C80.0827 72.7199 79.8727 72.5549 79.5802 72.4724C79.5202 72.4724 79.3177 72.2024 79.2502 72.1799C79.1827 72.1574 79.1677 71.9099 79.1227 71.9174Z" fill="#0F172A"/>
<path d="M69.6876 80.6476C69.5976 80.5726 69.7626 80.5051 70.0701 80.4376C70.2193 80.415 70.371 80.415 70.5201 80.4376C70.5978 80.4752 70.673 80.5178 70.7451 80.5651C70.8428 80.7698 70.928 80.9802 71.0001 81.1951C71.0517 81.3367 71.0746 81.4871 71.0676 81.6376C71.0676 81.9376 71.0676 82.2376 71.0676 82.5301C71.0644 82.5982 71.0465 82.6647 71.0151 82.7251C70.914 82.9296 70.87 83.1577 70.8876 83.3851C70.8784 83.4024 70.8736 83.4218 70.8736 83.4414C70.8736 83.461 70.8784 83.4803 70.8876 83.4976C70.9539 83.7432 70.9539 84.002 70.8876 84.2476C70.7775 84.4244 70.6773 84.6072 70.5876 84.7951C70.5876 84.7951 70.5876 84.8476 70.5276 84.8626C70.4676 84.8776 70.4001 84.9676 70.3851 85.0276C70.3633 85.1118 70.3251 85.1908 70.2726 85.2601C70.2726 85.2601 70.1676 85.3276 70.1001 85.3651C70.0063 85.3861 69.909 85.3861 69.8151 85.3651C69.7476 85.3201 69.6501 85.3651 69.5676 85.3651H69.5001C69.3494 85.1964 69.2277 85.0038 69.1401 84.7951V84.4276C69.1401 84.2476 69.1401 84.0526 69.1401 84.0151C69.1401 83.9776 69.1401 83.9326 69.1926 83.8951C69.2451 83.8576 69.1401 83.3251 69.1476 83.3101C69.1551 83.2951 69.1476 83.0851 69.2676 82.9876C69.2724 82.977 69.2749 82.9655 69.2749 82.9539C69.2749 82.9422 69.2724 82.9307 69.2676 82.9201C69.2764 82.7287 69.3118 82.5394 69.3726 82.3576C69.3801 82.2603 69.3801 82.1625 69.3726 82.0651V82.0201C69.3784 81.998 69.3784 81.9748 69.3726 81.9526C69.399 81.7259 69.399 81.4969 69.3726 81.2701C69.3726 81.2176 69.5076 80.9701 69.4926 80.9101C69.4776 80.8501 69.7251 80.6776 69.6876 80.6476Z" fill="#0F172A"/>
<path d="M24.2895 26.3625C24.1845 26.3625 24.1995 26.235 24.2895 26.0025C24.3299 25.8964 24.3911 25.7995 24.4695 25.7175C24.5334 25.6817 24.6014 25.654 24.672 25.635C24.672 25.635 25.122 25.74 25.272 25.77C25.408 25.7949 25.5379 25.8458 25.6545 25.92L26.4045 26.3175C26.4588 26.3487 26.5071 26.3893 26.547 26.4375C26.687 26.6021 26.8645 26.7307 27.0645 26.8125C27.0645 26.8125 27.1245 26.8125 27.1695 26.8125C27.4003 26.8792 27.6131 26.9972 27.792 27.1575C27.9045 27.3225 28.032 27.465 28.1595 27.6225C28.1595 27.6225 28.2045 27.6225 28.2045 27.6975C28.2045 27.7725 28.2495 27.84 28.2945 27.885C28.357 27.9377 28.4124 27.9982 28.4595 28.065C28.4688 28.1272 28.4688 28.1903 28.4595 28.2525C28.4433 28.3336 28.4012 28.4073 28.3395 28.4625C28.2795 28.4625 28.2645 28.575 28.227 28.6425V28.71C28.0235 28.744 27.8156 28.744 27.612 28.71L27.2895 28.5675L26.907 28.4175C26.8695 28.4175 26.847 28.3575 26.8245 28.3275C26.802 28.2975 26.307 28.1175 26.292 28.095C26.277 28.0725 26.0895 28.005 26.052 27.855C26.052 27.855 26.052 27.855 26.007 27.8025C25.8445 27.7019 25.6936 27.5837 25.557 27.45C25.4793 27.3882 25.3965 27.333 25.3095 27.285C25.3095 27.285 25.3095 27.285 25.3095 27.24C25.2989 27.2171 25.2836 27.1966 25.2645 27.18C25.0807 27.0421 24.8878 26.9168 24.687 26.805C24.642 26.805 24.4845 26.55 24.4245 26.5275C24.3645 26.505 24.327 26.355 24.2895 26.3625Z" fill="#0F172A"/>
<path d="M37.9475 15.0001C37.88 14.8651 38.075 14.7976 38.42 14.7676C38.5826 14.7669 38.7435 14.8001 38.8925 14.8651C38.9691 14.9425 39.037 15.028 39.095 15.1201C39.095 15.1651 39.155 15.8701 39.1775 16.1176C39.1949 16.3464 39.1772 16.5766 39.125 16.8001L38.9075 18.1501C38.8933 18.2504 38.8602 18.3471 38.81 18.4351C38.6618 18.7474 38.5801 19.0871 38.57 19.4326C38.5576 19.461 38.5512 19.4916 38.5512 19.5226C38.5512 19.5536 38.5576 19.5842 38.57 19.6126C38.5918 19.9887 38.5539 20.3659 38.4575 20.7301C38.318 21.0049 38.1952 21.2879 38.09 21.5776C38.09 21.6226 38.09 21.6676 38.03 21.6976C37.97 21.7276 37.895 21.8701 37.8725 21.9601C37.849 22.088 37.8138 22.2135 37.7675 22.3351C37.7196 22.4082 37.6586 22.4718 37.5875 22.5226C37.4962 22.5601 37.3938 22.5601 37.3025 22.5226C37.235 22.4626 37.1375 22.5226 37.055 22.5226C37.0226 22.5263 36.9899 22.5263 36.9575 22.5226C36.7863 22.2475 36.655 21.9495 36.5675 21.6376L36.5 20.3326C36.5042 20.2626 36.5276 20.1952 36.5675 20.1376C36.5675 20.1001 36.5675 19.1926 36.5675 19.1551C36.6125 18.9751 36.5675 18.7801 36.755 18.6226C36.7696 18.5865 36.7696 18.5462 36.755 18.5101C36.8094 18.1965 36.8896 17.8879 36.995 17.5876C37.0354 17.4318 37.068 17.2741 37.0925 17.1151C37.1029 17.0876 37.1182 17.0622 37.1375 17.0401C37.158 17.0067 37.1755 16.9715 37.19 16.9351C37.2848 16.5698 37.3574 16.1991 37.4075 15.8251C37.4075 15.7351 37.6475 15.3601 37.6475 15.2626C37.6475 15.1651 38 15.0676 37.9475 15.0001Z" fill="#0F172A"/>
<path d="M48.2901 51.5549C47.9301 52.0949 47.5401 52.6199 47.1351 53.1224C46.9926 53.3099 46.8426 53.4899 46.6851 53.6699C46.1251 54.2826 45.5263 54.8588 44.8926 55.3949L44.0526 56.1449C43.6912 56.4404 43.3047 56.7039 42.8976 56.9324C42.7701 56.9999 42.7476 56.9324 42.8076 56.8124C42.9009 56.6193 43.0308 56.446 43.1901 56.3024C43.5276 55.9649 43.8801 55.6649 44.2326 55.3649C44.5851 55.0649 44.9376 54.7499 45.2826 54.4274C45.6955 54.0304 46.0767 53.6015 46.4226 53.1449C46.8225 52.6641 47.198 52.1635 47.5476 51.6449C47.7651 51.3224 47.9751 50.9849 48.1701 50.6474C48.4673 50.1355 48.7352 49.6071 48.9726 49.0649C49.1451 48.6374 49.2801 48.2099 49.4226 47.7824L49.5126 47.4974C49.6476 47.1524 49.7376 47.0624 49.8951 47.0249H50.0001C50.1051 47.0249 50.1426 47.1974 50.1051 47.4824C50.0337 47.9045 49.9309 48.3206 49.7976 48.7274C49.6502 49.1378 49.4773 49.5385 49.2801 49.9274C48.989 50.5185 48.6634 51.092 48.3051 51.6449L48.2901 51.5549Z" fill="#0F172A"/>
</svg>
