<svg width="128" height="129" viewBox="0 0 128 129" fill="none" xmlns="http://www.w3.org/2000/svg">
<path d="M23.7405 83.869C23.6937 83.8887 23.6525 83.9196 23.6205 83.959L23.6705 83.889C23.7634 83.7724 23.847 83.6487 23.9205 83.519C23.974 83.4202 24.0175 83.3164 24.0505 83.209C24.106 83.104 24.1367 82.9877 24.1405 82.869V82.779C24.0105 85.359 24.1405 83.499 24.0705 84.069H23.2205C22.5876 84.1084 21.9589 84.1987 21.3405 84.339C20.0305 84.609 18.6705 85.049 17.1805 85.409C16.5805 85.539 15.9405 85.799 15.0605 85.999C14.5624 86.1134 14.0507 86.1571 13.5405 86.129C12.8393 86.0898 12.171 85.819 11.6405 85.359C11.5205 85.239 11.3905 85.109 11.2805 84.979C11.1338 84.7764 11.0097 84.5585 10.9105 84.329C10.8032 84.0383 10.7589 83.7281 10.7805 83.419C10.7988 83.137 10.8736 82.8615 11.0005 82.609C11.3116 82.0514 11.7677 81.5884 12.3205 81.269C13.0203 80.8731 13.753 80.5385 14.5105 80.269L16.3305 79.549C16.6159 79.4586 16.8716 79.2928 17.0705 79.069C17.1102 79.0155 17.1317 78.9506 17.1317 78.884C17.1317 78.8173 17.1102 78.7524 17.0705 78.699C16.9863 78.6296 16.8794 78.594 16.7705 78.599C16.243 78.6653 15.7214 78.7722 15.2105 78.919L14.6405 79.029C14.1346 79.1122 13.6231 79.1556 13.1105 79.159C12.4999 79.171 11.8936 79.0552 11.3305 78.819C10.6802 78.5337 10.1522 78.027 9.84047 77.389C9.6323 76.9932 9.55859 76.5404 9.63047 76.099C9.71773 75.6761 9.93029 75.2893 10.2405 74.989C10.6708 74.5614 11.1803 74.2217 11.7405 73.989C12.6511 73.6534 13.5875 73.3925 14.5405 73.209L19.3905 72.209L20.0005 72.009L20.3405 71.909C20.5241 71.8453 20.7015 71.765 20.8705 71.669C21.0305 71.589 21.2005 71.399 21.0905 71.209C21.0587 71.1182 21.0085 71.0349 20.9432 70.9644C20.8778 70.8938 20.7986 70.8375 20.7105 70.799C20.4887 70.6893 20.2474 70.6247 20.0005 70.609C19.529 70.5569 19.0546 70.5368 18.5805 70.549C17.5568 70.5796 16.5355 70.6631 15.5205 70.799C13.4704 70.9457 11.4325 71.2297 9.42047 71.649C8.18047 71.859 8.17047 71.459 9.09047 70.649C10.6701 69.4524 12.5717 68.7559 14.5505 68.649C15.5505 68.559 16.6805 68.409 17.8305 68.369C18.4166 68.3342 19.0043 68.3342 19.5905 68.369H20.0505H20.3105C20.4418 68.3792 20.5722 68.3992 20.7005 68.429C21.1966 68.5312 21.6796 68.6889 22.1405 68.899C22.5399 69.0538 22.8982 69.2985 23.1878 69.6141C23.4775 69.9297 23.6905 70.3078 23.8105 70.719L23.9505 71.319C23.9505 71.519 23.9505 71.729 23.8805 71.929C23.7668 72.3048 23.5644 72.6477 23.2905 72.929C22.5371 73.5313 21.6747 73.9829 20.7505 74.259C20.2005 74.439 19.6605 74.589 19.1205 74.729C16.9905 75.209 14.8405 75.549 13.0605 76.159C12.7105 76.2644 12.3746 76.4121 12.0605 76.599H12.0105C11.9349 76.537 11.8507 76.4865 11.7605 76.449L11.6405 76.389C11.6905 76.389 11.6405 76.389 11.7405 76.389C11.8405 76.389 12.1705 76.209 12.1205 76.289C12.1517 76.3687 12.2001 76.4405 12.2624 76.4993C12.3246 76.5581 12.3991 76.6024 12.4805 76.629C12.8324 76.7399 13.2028 76.7807 13.5705 76.749H13.9805C14.1551 76.7317 14.3287 76.705 14.5005 76.669C15.0079 76.5408 15.5085 76.3873 16.0005 76.209C17.1105 75.899 18.2705 75.529 19.2205 75.319C19.9327 75.1566 20.66 75.0694 21.3905 75.059C21.8691 75.0545 22.3464 75.1116 22.8105 75.229C23.0956 75.2995 23.3616 75.4319 23.5897 75.6168C23.8179 75.8017 24.0025 76.0346 24.1305 76.299C24.267 76.6134 24.3154 76.9591 24.2705 77.299C24.2225 77.5668 24.1204 77.822 23.9705 78.049C23.2215 79.1155 22.1942 79.956 21.0005 80.479C20.0705 80.919 19.0005 81.369 17.8705 81.809L16.1905 82.449L15.1405 82.869C14.5699 83.0827 14.0288 83.3684 13.5305 83.719C13.5305 83.719 13.4405 83.779 13.4405 83.789C13.4405 83.799 13.4405 83.859 13.2805 83.719C13.2088 83.6726 13.1315 83.6357 13.0505 83.609C12.9405 83.609 12.9905 83.609 12.9405 83.609C12.8905 83.609 12.8505 83.609 12.8705 83.609H12.9505C13.5905 83.209 13.3705 83.439 13.5005 83.449C13.9668 83.5374 14.4486 83.4923 14.8905 83.319L15.8905 83.019L17.0005 82.689C18.3705 82.339 19.7905 81.879 21.3105 81.609C22.2973 81.4107 23.306 81.3435 24.3105 81.409C24.7485 81.4729 25.153 81.6804 25.4605 81.999C25.727 82.253 25.9381 82.5594 26.0805 82.899C26.2342 83.2867 26.269 83.7114 26.1805 84.119C26.0866 84.4921 25.9009 84.8358 25.6405 85.119C24.8353 85.8551 23.8419 86.3535 22.7705 86.559C22.3005 86.699 21.8305 86.769 21.3705 86.859C20.9625 86.9223 20.5585 87.0091 20.1605 87.119C18.9651 87.4402 17.8325 87.9608 16.8105 88.659C16.355 88.9635 15.967 89.3583 15.6705 89.819C15.5618 90.0159 15.4842 90.2284 15.4405 90.449C15.4278 90.5318 15.4278 90.6161 15.4405 90.699H15.3605C15.2305 90.759 15.2205 90.759 15.1805 90.799C15.1405 90.839 15.1805 90.799 15.2405 90.699C15.266 90.6549 15.2861 90.6079 15.3005 90.559C15.3766 90.5715 15.4543 90.5715 15.5305 90.559C15.7993 90.5376 16.0645 90.4839 16.3205 90.399C16.9316 90.2165 17.5297 89.9926 18.1105 89.729C19.3405 89.209 20.4805 88.579 21.8805 88.069C22.9048 87.7447 23.9464 87.4776 25.0005 87.269C25.5682 87.1568 26.1428 87.0833 26.7205 87.049C27.0557 87.0388 27.3911 87.0656 27.7205 87.129C28.2217 87.2099 28.6785 87.4648 29.0105 87.849C29.1333 88.002 29.2468 88.1623 29.3505 88.329C29.4476 88.5126 29.5311 88.7031 29.6005 88.899C29.7505 89.3809 29.7505 89.897 29.6005 90.379C29.2928 91.0982 28.7638 91.7007 28.0905 92.099C27.1378 92.6775 26.1335 93.1662 25.0905 93.559L22.6205 94.559C19.6205 95.869 19.0705 96.219 18.0105 96.229C17.7705 96.229 17.5205 96.309 17.3105 96.299C17.1005 96.289 16.8705 95.899 17.1805 95.189C17.6964 94.2025 18.4796 93.3812 19.4405 92.819C21.1204 91.8598 22.8645 91.0178 24.6605 90.299C25.3711 90.0187 26.0432 89.649 26.6605 89.199C26.7205 89.199 26.7105 89.139 26.7405 89.109C26.8305 89.1878 26.9275 89.2581 27.0305 89.319C27.2805 89.529 27.5805 89.549 27.4105 89.529C27.3049 89.5346 27.2005 89.5548 27.1005 89.589C27.1005 89.589 26.8905 89.589 26.8005 89.679C26.7298 89.7037 26.6626 89.7373 26.6005 89.779C26.5885 89.7728 26.578 89.7644 26.5694 89.7541C26.5608 89.7437 26.5543 89.7318 26.5505 89.719C28.7105 88.169 27.1505 89.289 27.6305 88.939C27.5918 89.0022 27.5483 89.0624 27.5005 89.119C27.4364 89.2136 27.3891 89.3184 27.3605 89.429C27.3605 89.509 27.2205 89.729 27.1905 89.879C27.1605 90.029 27.1905 90.049 27.1905 90.059H27.0005C26.8773 90.0499 26.7536 90.0499 26.6305 90.059C26.2501 90.0871 25.8723 90.1439 25.5005 90.229C24.634 90.4113 23.7792 90.6451 22.9405 90.929C22.3305 91.139 21.4005 91.609 20.5105 91.999C19.5541 92.4517 18.5725 92.849 17.5705 93.189C17.1075 93.3418 16.6325 93.4555 16.1505 93.529C15.8197 93.5795 15.4846 93.5962 15.1505 93.579C14.6109 93.5883 14.0777 93.461 13.6005 93.209C13.0019 92.8033 12.5745 92.1907 12.4005 91.489C12.3106 91.0685 12.2903 90.636 12.3405 90.209C12.4439 89.5662 12.6678 88.9487 13.0005 88.389C13.5337 87.4954 14.2576 86.7305 15.1205 86.149C15.8476 85.6517 16.6252 85.2327 17.4405 84.899C18.2107 84.5858 19.0118 84.3545 19.8305 84.209C20.8305 84.029 21.3605 84.019 21.9805 83.899C22.4885 83.8213 22.9833 83.6732 23.4505 83.459L23.5505 83.399C23.5505 83.399 23.9105 83.699 24.0605 83.729C24.0966 83.7379 24.1343 83.7379 24.1705 83.729H24.1105C24.0514 83.7141 23.9896 83.7141 23.9305 83.729C23.8552 83.75 23.7842 83.7838 23.7205 83.829L23.7405 83.869Z" fill="#0F172A"/>
<path d="M115.1 26.679C115.172 26.6287 115.234 26.564 115.28 26.489C115.292 26.4714 115.299 26.4511 115.301 26.43C115.304 26.4088 115.301 26.3875 115.293 26.3677C115.285 26.348 115.272 26.3305 115.256 26.3167C115.24 26.303 115.221 26.2935 115.2 26.289C115.11 26.2543 115.01 26.2543 114.92 26.289L114.79 26.339L114.45 26.539C114.197 26.7059 113.953 26.8862 113.72 27.079C112.717 27.9253 111.806 28.8738 111 29.909C110.12 31.1223 109.14 32.2597 108.07 33.309C107.583 33.7852 107.018 34.1742 106.4 34.459C106.172 34.5412 105.938 34.6048 105.7 34.649C105.395 34.6981 105.084 34.6981 104.78 34.649C104.464 34.5455 104.169 34.3864 103.91 34.179C103.598 33.9084 103.357 33.5654 103.209 33.18C103.061 32.7947 103.01 32.3788 103.06 31.969C103.107 31.5738 103.208 31.1869 103.36 30.819C103.634 30.2478 103.969 29.708 104.36 29.209C105.076 28.3147 105.847 27.4663 106.67 26.669C107.06 26.269 107.42 25.949 107.75 25.579C108.08 25.209 108.46 24.789 108.75 24.389C109.423 23.6249 110.035 22.8091 110.58 21.949C110.822 21.5733 111.02 21.1705 111.17 20.749C111.212 20.609 111.239 20.4648 111.25 20.319C111.25 20.209 111.25 20.229 111.25 20.209H111.66C111.66 20.209 111.66 20.209 111.66 20.289C111.65 20.3418 111.65 20.3961 111.66 20.449H111.59H111.45C111.182 20.5665 110.93 20.7177 110.7 20.899C110.15 21.3243 109.635 21.7924 109.16 22.299C108.16 23.299 107.16 24.449 106.16 25.569L104.55 27.429C103.928 28.1543 103.259 28.839 102.55 29.479C102.147 29.8736 101.672 30.1861 101.15 30.399C100.919 30.4858 100.676 30.5331 100.43 30.539C100.17 30.5018 99.9146 30.4347 99.6698 30.339C99.1749 30.1569 98.7628 29.8016 98.5098 29.339C98.2885 28.865 98.2153 28.3352 98.2998 27.819C98.4203 27.0863 98.6565 26.3774 98.9998 25.719C99.2898 25.129 99.5198 24.719 99.8098 24.239C100.36 23.319 100.95 22.449 101.53 21.599C102.11 20.749 102.69 19.899 103.22 19.069C103.47 18.649 103.74 18.239 103.96 17.839C104.166 17.4954 104.324 17.1253 104.43 16.739C104.56 16.439 104.48 16.259 104.65 16.119C104.82 15.979 105.27 15.989 105.65 16.689C105.956 17.577 105.977 18.5384 105.71 19.439C105.407 20.5441 104.924 21.5916 104.28 22.539L102.55 25.149L101.76 26.409C101.46 26.929 101.45 26.959 101.45 26.949C101.45 26.949 101.45 26.949 101.59 26.829C102.97 25.399 104.33 23.739 105.78 22.149C106.52 21.3204 107.304 20.5326 108.13 19.789C108.579 19.3811 109.061 19.0099 109.57 18.679C109.884 18.473 110.219 18.302 110.57 18.169C111.064 17.9698 111.606 17.9177 112.13 18.019C112.331 18.0825 112.528 18.1594 112.72 18.249L112.91 18.349L113.06 18.529C113.46 19.0223 113.666 19.6445 113.64 20.279C113.622 20.7339 113.531 21.183 113.37 21.609C113.108 22.2899 112.772 22.9404 112.37 23.549C111.634 24.6708 110.826 25.7431 109.95 26.759C109.55 27.239 109.02 27.819 108.59 28.249C108.16 28.679 107.7 29.149 107.29 29.609C106.887 30.0411 106.513 30.4987 106.17 30.979C105.908 31.3224 105.715 31.7127 105.6 32.129C105.6 32.179 105.6 32.179 105.6 32.199C105.6 32.219 105.75 32.049 105.6 32.199C105.6 32.199 105.48 32.369 105.49 32.349C105.5 32.266 105.5 32.182 105.49 32.099C105.97 31.8707 106.401 31.5515 106.76 31.159C107.711 30.1387 108.606 29.0671 109.44 27.949C110.389 26.7568 111.484 25.6884 112.7 24.769C113.019 24.5277 113.353 24.3072 113.7 24.109C114.168 23.8367 114.673 23.6346 115.2 23.509C115.687 23.3781 116.196 23.3487 116.694 23.4227C117.193 23.4967 117.672 23.6724 118.1 23.939C118.341 24.1058 118.539 24.3282 118.677 24.5875C118.814 24.8469 118.887 25.1354 118.89 25.429C118.881 26.032 118.704 26.6206 118.38 27.129C118.209 27.4097 118.022 27.6802 117.82 27.939L117.51 28.339L117.24 28.629C116.9 29.019 116.6 29.319 116.24 29.629C114.93 30.889 113.56 32.029 112.24 33.179C111.247 33.9479 110.339 34.8194 109.53 35.779C109.371 36.0024 109.234 36.2401 109.12 36.489C109.078 36.5758 109.045 36.6662 109.02 36.759C108.96 36.819 109.15 36.759 108.83 36.759C108.74 36.759 108.72 36.759 108.65 36.759C108.58 36.759 108.54 36.819 108.56 36.759C108.604 36.719 108.635 36.6668 108.65 36.609C108.65 36.609 108.65 36.519 108.71 36.379C108.77 36.239 108.71 36.379 108.71 36.329C108.796 36.3359 108.883 36.3359 108.97 36.329C109.102 36.2989 109.232 36.2622 109.36 36.219L109.71 36.099C109.938 35.9595 110.156 35.8023 110.36 35.629L111.11 34.999L112.62 33.689C113.62 32.809 114.62 31.939 115.76 31.119C116.194 30.7882 116.648 30.4843 117.12 30.209C117.637 29.8721 118.209 29.6284 118.81 29.489C119.282 29.3831 119.777 29.4656 120.19 29.719C120.593 30.0031 120.87 30.4338 120.96 30.919C121.008 31.0883 121.035 31.263 121.04 31.439C121.05 31.532 121.05 31.6259 121.04 31.719C121.05 31.8521 121.05 31.9858 121.04 32.119C120.936 32.4714 120.785 32.8079 120.59 33.119C119.993 34.0087 119.324 34.8481 118.59 35.629C117.88 36.389 117.16 37.119 116.45 37.849L114.62 39.769C113.855 40.6067 113.047 41.4044 112.2 42.159C111.811 42.5252 111.347 42.8017 110.84 42.969C110.65 43.0612 110.473 43.1753 110.31 43.309C110.18 43.389 110.08 43.379 109.98 43.199C109.859 42.9188 109.824 42.609 109.88 42.309C110.086 41.2665 110.558 40.2951 111.25 39.489C112.44 37.989 113.74 36.649 115.02 35.299L116.92 33.299C117.233 32.9723 117.523 32.639 117.79 32.299C118.02 32.0326 118.225 31.7446 118.4 31.439V31.389L118.55 31.459C118.73 31.549 119.04 31.589 119.15 31.639L119.37 31.689H118.37C118.365 31.6458 118.365 31.6022 118.37 31.559C118.519 31.5219 118.666 31.4752 118.81 31.419C119.27 31.339 119.49 30.969 119.38 31.159C119.353 31.2166 119.333 31.277 119.32 31.339C119.32 31.409 119.32 31.479 119.32 31.639C119.3 31.7715 119.3 31.9064 119.32 32.039C119.32 32.039 119.32 32.279 119.32 32.249C119.057 32.3402 118.805 32.461 118.57 32.609C118.25 32.799 117.89 33.059 117.57 33.309C116.16 34.309 114.76 35.629 113.3 36.919L112.47 37.639L112.01 38.019L111.75 38.219L111.61 38.329L111.39 38.469C111.117 38.6395 110.825 38.7772 110.52 38.879C110.284 38.963 110.044 39.0331 109.8 39.089C109.472 39.1693 109.137 39.2129 108.8 39.219C108.527 39.2105 108.255 39.1737 107.99 39.109C107.787 39.0453 107.592 38.958 107.41 38.849C107.199 38.7366 107.012 38.5836 106.86 38.399C106.55 38.0494 106.346 37.6196 106.27 37.159C106.256 37.0093 106.256 36.8586 106.27 36.709C106.257 36.5793 106.257 36.4487 106.27 36.319C106.316 35.9741 106.41 35.6375 106.55 35.319C106.744 34.8649 106.985 34.4326 107.27 34.029C107.533 33.6454 107.827 33.2841 108.15 32.949C108.45 32.639 108.73 32.379 109.01 32.119C110.14 31.119 111.23 30.209 112.29 29.279C112.82 28.819 113.29 28.349 113.83 27.879L114.55 27.179L114.89 26.819L115.15 26.529L115.1 26.679Z" fill="#0F172A"/>
<path d="M54.7702 57.419C56.0002 54.839 57.3202 52.279 58.7702 49.789C59.1502 49.149 59.4502 48.589 59.9202 47.889C60.392 47.2216 60.9502 46.6197 61.5802 46.099C62.7317 45.1436 63.9667 44.2935 65.2702 43.559C67.1102 42.489 68.9602 41.509 70.8502 40.629C74.1902 39.069 77.5602 37.629 80.9002 36.209C82.5602 35.479 84.2102 34.729 85.8202 33.929C87.4252 33.1554 88.9609 32.2454 90.4102 31.209C92.831 29.1561 95.0388 26.8645 97.0002 24.369C98.3002 22.779 99.5402 21.139 100.81 19.499C101.46 18.689 102.08 17.859 102.81 17.089C103.54 16.319 104.22 15.559 104.97 14.829C105.9 13.919 105.97 14.209 105.49 15.249C105.26 15.759 104.92 16.479 104.49 17.329C104.27 17.749 104.05 18.209 103.77 18.669C103.49 19.129 103.16 19.599 102.77 20.079C100.323 23.5786 97.6223 26.8941 94.6902 29.999C93.9302 30.769 93.1402 31.509 92.3202 32.229C91.4652 32.9811 90.5411 33.6507 89.5602 34.229C87.687 35.3204 85.7502 36.2988 83.7602 37.159C79.0902 39.259 74.2502 41.389 69.6402 43.679C67.1278 44.831 64.7749 46.3032 62.6402 48.059C62.1678 48.4802 61.7601 48.9688 61.4302 49.509L60.4002 51.299C59.6902 52.519 59.0202 53.769 58.4002 55.029C56.7902 58.139 55.3402 61.339 53.9002 64.539C52.7907 66.9239 51.8777 69.3955 51.1702 71.929C50.8602 73.189 50.4702 74.549 51.0902 75.199C51.7102 75.849 52.9302 75.899 54.0202 75.349C55.7358 74.3957 57.2585 73.1307 58.5102 71.619C59.822 70.1427 60.9719 68.5302 61.9402 66.809C62.3702 66.059 62.7402 65.289 63.1102 64.499C63.7902 63.039 64.1102 62.039 64.4502 61.359C64.671 60.8536 64.9867 60.3953 65.3802 60.009C65.5096 59.868 65.65 59.7376 65.8002 59.619C66.0202 59.489 66.1302 59.779 66.1602 60.429C66.1526 61.405 65.9906 62.3736 65.6802 63.299C64.463 67.0102 62.4687 70.4192 59.8302 73.299C58.4591 74.8725 56.8247 76.1955 55.0002 77.209C54.4555 77.483 53.8772 77.6847 53.2802 77.809C52.9517 77.8787 52.6159 77.909 52.2802 77.899H51.7302C51.5407 77.8562 51.3537 77.8028 51.1702 77.739C50.8063 77.6273 50.4669 77.4475 50.1702 77.209C49.8316 76.9876 49.5395 76.7022 49.3102 76.369C48.8668 75.7123 48.646 74.9306 48.6802 74.139C48.694 73.2865 48.8013 72.4381 49.0002 71.609C49.1802 70.879 49.3802 70.159 49.6102 69.449C50.0602 68.039 50.6102 66.659 51.1502 65.309C52.2902 62.619 53.4602 60.039 54.6802 57.399L54.7702 57.419Z" fill="#0F172A"/>
<path d="M99.3605 56.609C101.031 54.159 102.781 51.779 104.561 49.439C105.211 48.579 105.811 47.689 106.471 46.849C107.631 45.369 108.801 43.849 110.041 42.419C111.281 40.989 112.541 39.569 113.831 38.179C114.971 36.949 116.121 35.699 117.281 34.489C118.71 32.8164 120.44 31.4258 122.381 30.389C123.031 30.089 123.081 30.479 122.801 31.099C122.391 31.9633 121.833 32.7487 121.151 33.419C118.101 36.299 115.261 39.559 112.331 42.779C110.561 44.679 109.031 46.919 107.401 49.059C105.621 51.399 103.861 53.759 102.191 56.169C101.191 57.649 100.191 59.169 99.1905 60.689C97.7605 63.019 96.3005 65.359 95.0405 67.769C94.0405 69.639 93.3005 71.559 92.5305 73.479C92.3705 73.899 92.2205 74.319 92.0605 74.749C91.4505 76.329 91.1205 76.749 90.5305 76.969C90.4111 77.0254 90.2874 77.0722 90.1605 77.109C89.8405 77.189 89.6405 76.369 89.9405 75.109C90.4141 73.201 91.0601 71.34 91.8705 69.549C92.6905 67.739 93.6305 65.959 94.6205 64.219C96.1005 61.639 97.6205 59.099 99.3005 56.589L99.3605 56.609Z" fill="#0F172A"/>
<path d="M33.7901 65.939C31.4101 66.459 29.0268 66.9556 26.6401 67.4289C25.7601 67.5989 24.9001 67.8189 24.0301 67.9789C20.9501 68.5289 17.8601 68.9789 14.7701 69.5089C13.4001 69.7189 12.0301 69.9689 10.6701 70.1989C9.80013 70.3589 8.92013 70.4889 8.04013 70.6089C7.14749 70.6589 6.25276 70.6589 5.36013 70.6089C4.81013 70.6089 4.87013 70.4289 5.31013 70.1789C5.52013 70.0389 5.85013 69.9389 6.22013 69.6889L6.82013 69.3189C6.92013 69.2489 7.04013 69.209 7.15013 69.1189L7.51013 69.0389C11.0201 68.3989 14.5601 67.8789 18.1401 67.3589C20.2901 67.0689 22.4801 66.5189 24.6401 66.0589C27.0201 65.5456 29.3935 65.0056 31.7601 64.439L36.1301 63.3489C38.3301 62.7789 40.5501 62.2389 42.7401 61.6389C44.4401 61.1789 46.0801 60.6389 47.8001 60.1889C48.1801 60.0889 48.5501 59.9789 48.9501 59.9089C50.4101 59.6389 51.1101 59.9089 51.3301 60.5489C51.3909 60.6632 51.425 60.7897 51.4301 60.9189C51.4301 61.0789 51.2501 61.1489 51.0501 61.3289C50.7607 61.5548 50.4148 61.6966 50.0501 61.7389C48.6601 62.0589 47.1401 62.5389 45.6101 62.9589L40.9401 64.2089C38.5901 64.8289 36.1901 65.3689 33.8001 65.9489L33.7901 65.939Z" fill="#0F172A"/>
<path d="M92.8298 86.659C92.8298 86.549 92.8998 86.419 92.9398 86.299C92.9798 86.179 92.9398 85.999 92.9398 85.989C92.9398 85.979 92.9398 85.989 92.8698 85.749C92.7626 85.5288 92.6424 85.3151 92.5098 85.109C92.2298 84.669 91.8998 84.209 91.5098 83.769C90.8198 82.859 90.0698 81.979 89.2998 81.109C88.5298 80.239 87.9398 79.689 87.2998 78.959C84.9998 76.389 82.5698 73.899 79.9998 71.479C78.8698 70.379 77.7498 69.299 76.5898 68.319C75.1125 67.1106 73.5445 66.0174 71.8998 65.049C71.3998 64.709 71.4898 64.539 72.1198 64.369C72.6058 64.232 73.1147 64.1959 73.6152 64.263C74.1156 64.3301 74.5971 64.4989 75.0298 64.759C76.8463 65.8468 78.5251 67.1495 80.0298 68.639L82.2298 70.709C82.9898 71.409 83.6998 72.149 84.3998 72.909C86.0798 74.719 87.9798 76.429 89.7098 78.269C90.7098 79.269 91.5898 80.269 92.4898 81.379C92.9398 81.919 93.3798 82.469 93.7998 83.039C94.2645 83.6362 94.6666 84.2796 94.9998 84.959C95.1414 85.2736 95.2163 85.6141 95.2198 85.959C95.179 86.8233 94.946 87.6676 94.5377 88.4305C94.1295 89.1933 93.5563 89.8556 92.8598 90.369C92.3136 90.8096 91.7159 91.1823 91.0798 91.479C90.4268 91.8132 89.7188 92.0266 88.9898 92.109C88.6045 92.154 88.2152 92.154 87.8298 92.109C87.4905 92.0262 87.1565 91.9227 86.8298 91.799C86.1841 91.529 85.5676 91.1939 84.9898 90.799C84.1236 90.2519 83.295 89.6472 82.5098 88.989C81.7319 88.3619 80.9876 87.6943 80.2798 86.989C79.9798 86.669 79.6798 86.359 79.3998 85.989C78.3098 84.779 78.3198 84.099 78.3998 83.589C78.4076 83.4706 78.4277 83.3533 78.4598 83.239C78.4598 83.089 78.6898 83.099 78.9998 83.239C79.4563 83.3929 79.8851 83.6191 80.2698 83.909L82.2698 85.559C82.9298 86.129 83.5798 86.709 84.2698 87.239C84.9598 87.769 85.6098 88.289 86.2698 88.719C86.8506 89.1341 87.5008 89.4423 88.1898 89.629C88.2998 89.679 88.3798 89.629 88.4798 89.629C88.5798 89.629 88.6698 89.629 88.7398 89.629C88.8161 89.6187 88.8935 89.6187 88.9698 89.629C89.0886 89.6036 89.2056 89.5702 89.3198 89.529C89.8422 89.359 90.3424 89.1274 90.8098 88.839C91.7119 88.3651 92.4196 87.5903 92.8098 86.649L92.8298 86.659Z" fill="#0F172A"/>
<path d="M77.7999 93.739C78.7211 94.4508 79.7292 95.0423 80.7999 95.499C81.1681 95.624 81.5461 95.7177 81.9299 95.779C82.4983 95.9391 83.1052 95.8894 83.6399 95.639C84.3366 95.2686 85.0051 94.8475 85.6399 94.379C86.1876 93.9718 86.6727 93.4866 87.0799 92.939C87.5454 92.2393 87.9727 91.5149 88.3599 90.769C88.4899 90.539 88.8199 90.629 89.1099 90.969C89.2883 91.1822 89.4117 91.4359 89.4692 91.7079C89.5267 91.9799 89.5167 92.2618 89.4399 92.529C89.0463 93.5448 88.4314 94.4603 87.6399 95.209C86.913 95.9285 86.08 96.5322 85.1699 96.999C84.5555 97.3899 83.8793 97.6739 83.1699 97.839C82.477 97.9799 81.7629 97.9799 81.0699 97.839C79.7389 97.5052 78.472 96.9545 77.3199 96.209C76.6199 95.779 75.9599 95.309 75.3199 94.829C74.3199 94.099 73.4199 93.289 72.4899 92.519C71.7699 91.919 70.9899 91.389 70.2699 90.759C70.1006 90.6336 69.9402 90.4966 69.7899 90.349C69.2399 89.779 69.2199 89.449 69.6599 88.919C69.7599 88.799 69.8599 88.669 69.9699 88.559C70.1425 88.3873 70.3718 88.2844 70.6148 88.2697C70.8579 88.2549 71.0979 88.3294 71.2899 88.479C72.5985 89.3951 73.8445 90.3974 75.0199 91.479C75.9167 92.2847 76.8582 93.0393 77.8399 93.739H77.7999Z" fill="#0F172A"/>
<path d="M69.5201 99.629C70.4902 100.379 71.5359 101.026 72.6401 101.559C73.0212 101.714 73.412 101.845 73.8101 101.949C74.1084 102.042 74.4177 102.096 74.7301 102.109C74.8498 102.12 74.9703 102.12 75.0901 102.109C75.2401 102.109 75.4501 101.969 75.6201 101.909C76.3574 101.634 77.059 101.271 77.7101 100.829C78.2656 100.434 78.7465 99.9427 79.1301 99.379C79.5651 98.6618 79.9237 97.901 80.2001 97.109C80.2801 96.899 80.6801 96.869 81.0701 97.179C81.3059 97.3709 81.4813 97.6267 81.5753 97.9159C81.6693 98.205 81.6779 98.5151 81.6001 98.809C81.2519 99.9134 80.6046 100.9 79.7301 101.659C78.934 102.393 78.0083 102.973 77.0001 103.369L76.1201 103.729L75.8901 103.829L75.5801 103.939C75.3701 104.009 75.1701 104.019 74.9601 104.069C74.2347 104.127 73.5049 104.045 72.8101 103.829C71.4866 103.368 70.2369 102.718 69.1001 101.899C68.4101 101.439 67.7401 100.899 67.1001 100.429C66.1001 99.659 65.1901 98.809 64.2501 97.999C63.5301 97.359 62.7401 96.819 62.0501 96.119C61.8901 95.969 61.7301 95.819 61.5901 95.659C61.0701 95.029 61.0401 94.659 61.3801 94.269C61.452 94.1659 61.5323 94.069 61.6201 93.979C61.9301 93.719 62.3601 93.789 62.7801 94.109C64.0701 95.039 65.3101 96.169 66.6101 97.259C67.6101 98.069 68.5501 98.879 69.6101 99.589L69.5201 99.629Z" fill="#0F172A"/>
<path d="M53.1299 97.319C54.3899 98.469 55.6699 99.6189 57.0199 100.659C57.4999 101.059 58.0199 101.359 58.5399 101.739C59.4052 102.381 60.3031 102.979 61.2299 103.529C62.1385 104.046 63.1194 104.423 64.1399 104.649C65.0395 104.87 65.9734 104.914 66.8899 104.779C67.9633 104.583 68.9237 103.991 69.5799 103.119C69.8099 102.849 70.0999 102.999 70.2399 103.479C70.3268 103.841 70.311 104.22 70.1944 104.573C70.0778 104.926 69.865 105.24 69.5799 105.479C68.9498 105.992 68.1996 106.336 67.3999 106.479C66.6629 106.627 65.9084 106.668 65.1599 106.599C64.4606 106.546 63.7677 106.429 63.0899 106.249C62.748 106.167 62.4136 106.056 62.0899 105.919C61.7417 105.796 61.4067 105.638 61.0899 105.449C59.6383 104.67 58.2326 103.809 56.8799 102.869C55.4299 101.869 54.0599 100.699 52.7299 99.539C51.8999 98.829 51.1099 98.079 50.3099 97.349C49.1099 96.219 47.9499 95.039 46.8099 93.869C45.9099 92.959 44.9899 92.109 44.1199 91.159C43.9299 90.939 43.7399 90.739 43.5599 90.509C42.8999 89.659 42.8699 89.2189 43.2099 88.7989C43.2793 88.6909 43.3597 88.5904 43.4499 88.499C43.7599 88.229 44.2699 88.419 44.7099 88.939C46.1799 90.459 47.7799 92.089 49.4199 93.699C50.6399 94.899 51.8899 96.089 53.1699 97.239L53.1299 97.319Z" fill="#0F172A"/>
<path d="M27.0797 92.309L31.6297 90.729C32.1897 90.539 32.7197 90.289 33.2897 90.109C35.2897 89.459 37.2897 88.919 39.2897 88.439C40.1997 88.239 41.1097 87.989 42.0297 87.809C42.6341 87.6698 43.25 87.5861 43.8697 87.559C44.5307 87.5651 45.1825 87.7153 45.7797 87.999C46.1597 88.199 45.9497 88.469 45.5697 88.759C45.1404 89.1156 44.6534 89.3963 44.1297 89.589C42.0797 89.849 39.7997 90.429 37.4897 90.929C36.1007 91.3091 34.735 91.7699 33.3997 92.309L28.8497 93.919L26.0397 94.919L21.7797 96.459C20.6797 96.869 19.6297 97.389 18.4797 97.749C18.2241 97.832 17.9636 97.8988 17.6997 97.949C16.6997 98.129 16.2597 97.949 16.0797 97.429C16.0264 97.3182 15.9893 97.2003 15.9697 97.079C15.9621 96.982 15.9772 96.8845 16.0136 96.7943C16.05 96.7041 16.1069 96.6235 16.1797 96.559C16.3722 96.3949 16.5922 96.2662 16.8297 96.179C18.5397 95.399 20.5397 94.709 22.5397 93.929L27.0497 92.249L27.0797 92.309Z" fill="#0F172A"/>
<path d="M25.1302 83.729C24.4581 82.3362 23.8899 80.8956 23.4302 79.419C23.2502 78.889 23.0502 78.359 22.9202 77.809C22.4481 75.8463 22.2861 73.8218 22.4402 71.809C22.5002 70.929 22.6102 70.039 22.7502 69.169C22.8433 68.6035 22.977 68.0453 23.1502 67.499C23.3457 66.9541 23.6332 66.4467 24.0002 65.999C24.2202 65.709 24.5602 65.999 24.8402 66.409C25.1599 66.8898 25.3111 67.4631 25.2702 68.039C24.7115 69.9695 24.4287 71.9693 24.4302 73.979C24.4692 75.2697 24.7018 76.5473 25.1202 77.769C25.5042 79.1584 25.9957 80.5158 26.5902 81.829C26.9602 82.649 27.3702 83.449 27.8102 84.229C28.4721 85.4212 29.2385 86.5523 30.1002 87.609C30.7752 88.3883 31.5293 89.0954 32.3502 89.719L32.8702 90.089C33.4902 90.569 33.5202 90.779 33.4702 91.299C33.4702 91.419 33.4702 91.549 33.4702 91.659C33.5302 92.049 32.8502 92.269 32.1302 91.959C31.1704 91.4907 30.2978 90.8616 29.5502 90.099C28.813 89.3678 28.1436 88.5712 27.5502 87.719C26.6414 86.4483 25.8291 85.1112 25.1202 83.719L25.1302 83.729Z" fill="#0F172A"/>
<path d="M105.751 37.8089C105.506 37.2478 105.218 36.7062 104.891 36.1889L104.401 35.3989L103.811 34.6689C103.504 34.3096 103.17 33.9752 102.811 33.6689L101.961 32.7889L101.021 31.9889C100.395 31.4333 99.7263 30.9283 99.0205 30.4789C98.3831 30.0902 97.714 29.7557 97.0205 29.4789C96.1105 29.1646 95.2304 28.7697 94.3905 28.2989C94.1305 28.1389 94.2605 27.8189 94.6205 27.5489C94.8445 27.3868 95.0997 27.2729 95.3699 27.2144C95.6401 27.1559 95.9196 27.154 96.1905 27.2089C96.7066 27.2983 97.2125 27.439 97.7005 27.6289C98.1805 27.8289 98.7005 28.0389 99.1405 28.2589C99.6226 28.4739 100.084 28.7316 100.521 29.0289C100.974 29.3068 101.408 29.6141 101.821 29.9489C102.311 30.3689 102.821 30.7589 103.351 31.1389C103.881 31.5189 104.351 31.9989 104.821 32.4389C105.291 32.8789 105.821 33.5189 106.231 34.0789C106.641 34.6389 107.071 35.2489 107.401 35.8889C107.601 36.2789 107.821 36.6689 108.011 37.0589L108.521 38.2789C108.986 39.531 109.321 40.8279 109.521 42.1489C109.721 43.1638 109.832 44.1945 109.851 45.2289C109.851 45.4689 109.851 45.6989 109.851 45.9289C109.82 46.1139 109.77 46.295 109.701 46.4689C109.626 46.5936 109.531 46.7051 109.421 46.7989C109.234 46.9489 109 47.027 108.761 47.0189C108.647 47.0286 108.534 47.0286 108.421 47.0189C108.071 47.0189 107.811 46.5589 107.631 46.0189C107.431 44.4289 107.221 42.8889 106.921 41.2989C106.678 40.1131 106.292 38.9613 105.771 37.8689L105.751 37.8089Z" fill="#0F172A"/>
<path d="M104.831 96.099C104.691 96.099 104.691 95.919 104.831 95.569C104.897 95.4176 104.985 95.2763 105.091 95.149C105.184 95.0992 105.281 95.0558 105.381 95.019C105.431 95.019 106.021 95.129 106.231 95.139C106.42 95.1616 106.606 95.2122 106.781 95.289C107.141 95.429 107.511 95.539 107.881 95.659C107.965 95.6861 108.044 95.7304 108.111 95.789C108.351 95.9782 108.637 96.0991 108.941 96.139C108.965 96.1513 108.993 96.1577 109.021 96.1577C109.048 96.1577 109.076 96.1513 109.101 96.139C109.448 96.1301 109.792 96.2092 110.101 96.369C110.316 96.5564 110.543 96.7301 110.781 96.889C110.781 96.889 110.861 96.889 110.871 96.989C110.881 97.089 110.991 97.169 111.071 97.209C111.18 97.2652 111.28 97.3359 111.371 97.419C111.415 97.4953 111.452 97.5756 111.481 97.659C111.487 97.7727 111.455 97.8854 111.391 97.979C111.321 98.039 111.331 98.159 111.311 98.259V98.359C111.037 98.5019 110.744 98.603 110.441 98.659L109.921 98.589L109.311 98.529C109.251 98.529 109.201 98.529 109.151 98.439L108.301 98.279C108.151 98.199 107.971 98.199 107.861 97.999C107.861 97.999 107.811 97.999 107.771 97.999C107.496 97.8994 107.235 97.7686 106.991 97.609C106.861 97.539 106.721 97.489 106.581 97.429C106.441 97.369 106.581 97.429 106.521 97.369C106.461 97.309 106.521 97.309 106.441 97.299C106.111 97.169 105.831 96.949 105.441 96.839C105.361 96.839 105.091 96.479 105.001 96.449C104.911 96.419 104.891 96.089 104.831 96.099Z" fill="#FCEAD9"/>
<path d="M92.25 107.739C92.13 107.639 92.35 107.549 92.76 107.459C92.9589 107.429 93.1612 107.429 93.36 107.459C93.4636 107.509 93.5638 107.566 93.66 107.629C93.7903 107.902 93.9038 108.182 94 108.469C94.0687 108.658 94.0993 108.858 94.09 109.059C94.09 109.459 94.09 109.859 94.09 110.249C94.0857 110.34 94.0618 110.428 94.02 110.509C93.8852 110.782 93.8265 111.086 93.85 111.389C93.8378 111.412 93.8314 111.438 93.8314 111.464C93.8314 111.49 93.8378 111.516 93.85 111.539C93.9384 111.866 93.9384 112.211 93.85 112.539C93.7032 112.775 93.5696 113.018 93.45 113.269C93.45 113.269 93.45 113.339 93.37 113.359C93.29 113.379 93.2 113.499 93.18 113.579C93.1509 113.691 93.1 113.797 93.03 113.889C93.03 113.889 92.89 113.979 92.8 114.029C92.6749 114.057 92.5451 114.057 92.42 114.029C92.33 113.969 92.2 114.029 92.09 114.029H92C91.799 113.804 91.6368 113.547 91.52 113.269V112.779C91.52 112.539 91.52 112.279 91.52 112.229C91.52 112.179 91.52 112.119 91.59 112.069C91.66 112.019 91.52 111.309 91.53 111.289C91.54 111.269 91.53 110.989 91.69 110.859C91.6964 110.845 91.6996 110.829 91.6996 110.814C91.6996 110.798 91.6964 110.783 91.69 110.769C91.7017 110.514 91.7489 110.261 91.83 110.019C91.84 109.889 91.84 109.759 91.83 109.629V109.569C91.8376 109.539 91.8376 109.508 91.83 109.479C91.8652 109.177 91.8652 108.871 91.83 108.569C91.83 108.499 92.01 108.169 91.99 108.089C91.97 108.009 92.3 107.779 92.25 107.739Z" fill="#FCEAD9"/>
<path d="M31.7192 35.359C31.5792 35.359 31.5992 35.189 31.7192 34.879C31.773 34.7375 31.8546 34.6083 31.9592 34.499C32.0443 34.4513 32.135 34.4143 32.2292 34.389C32.2292 34.389 32.8292 34.529 33.0292 34.569C33.2105 34.6022 33.3837 34.6701 33.5392 34.769L34.5392 35.299C34.6116 35.3406 34.6759 35.3947 34.7292 35.459C34.9159 35.6785 35.1525 35.8499 35.4192 35.959C35.4192 35.959 35.4992 35.959 35.5592 35.959C35.867 36.0479 36.1507 36.2052 36.3892 36.419C36.5392 36.639 36.7092 36.829 36.8792 37.039C36.8792 37.039 36.9392 37.039 36.9392 37.139C36.9392 37.239 36.9992 37.329 37.0592 37.389C37.1425 37.4593 37.2164 37.5399 37.2792 37.629C37.2915 37.7119 37.2915 37.7961 37.2792 37.879C37.2576 37.9872 37.2014 38.0854 37.1192 38.159C37.0392 38.159 37.0192 38.309 36.9692 38.399V38.489C36.6978 38.5343 36.4207 38.5343 36.1492 38.489L35.7192 38.299L35.2092 38.099C35.1592 38.099 35.1292 38.019 35.0992 37.979C35.0692 37.939 34.4092 37.699 34.3892 37.669C34.3692 37.639 34.1192 37.549 34.0692 37.349C34.0692 37.349 34.0692 37.349 34.0092 37.279C33.7925 37.1449 33.5913 36.9873 33.4092 36.809C33.3056 36.7266 33.1952 36.653 33.0792 36.589C33.0792 36.589 33.0792 36.589 33.0792 36.529C33.0651 36.4984 33.0446 36.4711 33.0192 36.449C32.7742 36.2651 32.5169 36.0981 32.2492 35.949C32.1892 35.949 31.9792 35.609 31.8992 35.579C31.8192 35.549 31.7692 35.349 31.7192 35.359Z" fill="#FCEAD9"/>
<path d="M49.93 20.209C49.84 20.029 50.1 19.939 50.56 19.899C50.7768 19.8981 50.9913 19.9424 51.19 20.029C51.2921 20.1322 51.3826 20.2462 51.46 20.369C51.46 20.429 51.54 21.369 51.57 21.699C51.5932 22.0041 51.5696 22.311 51.5 22.609L51.21 24.409C51.191 24.5427 51.1469 24.6717 51.08 24.789C50.8824 25.2054 50.7735 25.6583 50.76 26.119C50.7435 26.1568 50.735 26.1977 50.735 26.239C50.735 26.2803 50.7435 26.3211 50.76 26.359C50.7891 26.8605 50.7385 27.3634 50.61 27.849C50.4239 28.2154 50.2603 28.5928 50.12 28.979C50.12 29.039 50.12 29.099 50.04 29.139C49.96 29.179 49.86 29.369 49.83 29.489C49.7986 29.6596 49.7518 29.8269 49.69 29.989C49.6262 30.0865 49.5448 30.1713 49.45 30.239C49.3283 30.289 49.1917 30.289 49.07 30.239C48.98 30.159 48.85 30.239 48.74 30.239C48.6968 30.244 48.6532 30.244 48.61 30.239C48.3818 29.8722 48.2067 29.4749 48.09 29.059L48 27.319C48.0056 27.2257 48.0367 27.1358 48.09 27.059C48.09 27.009 48.09 25.799 48.09 25.749C48.15 25.509 48.09 25.249 48.34 25.039C48.3595 24.9909 48.3595 24.9371 48.34 24.889C48.4125 24.4709 48.5195 24.0595 48.66 23.659C48.7139 23.4513 48.7573 23.241 48.79 23.029C48.8039 22.9924 48.8242 22.9585 48.85 22.929C48.8773 22.8844 48.9007 22.8376 48.92 22.789C49.0464 22.302 49.1433 21.8077 49.21 21.309C49.21 21.189 49.53 20.689 49.53 20.559C49.53 20.429 50 20.299 49.93 20.209Z" fill="#FCEAD9"/>
<path d="M63.7209 68.949C63.2409 69.669 62.7209 70.369 62.1809 71.039C61.9909 71.289 61.7909 71.529 61.5809 71.769C60.8342 72.5859 60.0359 73.3542 59.1909 74.069L58.0709 75.069C57.589 75.463 57.0738 75.8143 56.5309 76.119C56.3609 76.209 56.3309 76.119 56.4109 75.959C56.5353 75.7015 56.7085 75.4705 56.9209 75.279C57.3709 74.829 57.8409 74.429 58.3109 74.029C58.7809 73.629 59.2509 73.209 59.7109 72.779C60.2615 72.2496 60.7698 71.6779 61.2309 71.069C61.7642 70.4279 62.2648 69.7604 62.7309 69.069C63.0209 68.639 63.3009 68.189 63.5609 67.739C63.9572 67.0564 64.3144 66.352 64.6309 65.629C64.8609 65.059 65.0409 64.489 65.2309 63.919L65.3509 63.539C65.5309 63.079 65.6509 62.959 65.8609 62.909H66.0009C66.1409 62.909 66.1909 63.139 66.1409 63.519C66.0457 64.0818 65.9087 64.6366 65.7309 65.179C65.5344 65.7261 65.3039 66.2605 65.0409 66.779C64.6528 67.5671 64.2187 68.3317 63.7409 69.069L63.7209 68.949Z" fill="#0F172A"/>
</svg>
