<svg width="209" height="182" viewBox="0 0 209 182" fill="none" xmlns="http://www.w3.org/2000/svg">
<path d="M208.626 130.663C204.304 170.577 194.964 182 119.847 182C44.7295 182 14.0112 148.727 14.0112 120.132C14.0112 91.5369 57.7074 88.776 96.2304 83.7132C165.525 74.6063 213.761 83.2394 208.626 130.663Z" fill="white" fill-opacity="0.08"/>
<path d="M24.437 103.293C24.4224 103.566 24.4636 103.838 24.558 104.094C24.6524 104.35 24.7981 104.584 24.9861 104.782C25.1741 104.98 25.4006 105.138 25.6516 105.245C25.9026 105.353 26.1729 105.408 26.4459 105.407C26.7138 105.407 36.6782 105.054 38.8211 104.757C39.2895 104.692 39.7201 104.464 40.0375 104.114C40.3548 103.764 40.5387 103.313 40.5568 102.841C40.5756 102.351 40.6184 91.0429 40.5033 90.5665C40.3775 90.0493 40.0519 89.6029 39.5976 89.325C39.1433 89.0471 38.5973 88.9604 38.0791 89.0837C34.9639 89.8278 28.8353 88.9017 25.3504 90.992C25.0692 91.1615 24.8338 91.3972 24.6648 91.6785C24.4958 91.9599 24.3982 92.2783 24.3807 92.6059C24.2013 95.9997 24.6057 100.162 24.437 103.293ZM36.4987 93.3446C36.488 95.9622 36.5979 98.3684 36.5791 100.967C33.9889 101.189 31.313 101.109 28.4978 101.246C28.487 98.8742 28.3263 96.2299 28.3531 94.0432C30.4263 93.4303 33.8925 93.54 36.4987 93.3446ZM46.8783 102.038C46.8638 102.31 46.905 102.583 46.9994 102.839C47.0938 103.095 47.2395 103.329 47.4275 103.527C47.6155 103.725 47.8419 103.882 48.0929 103.99C48.3439 104.097 48.6142 104.153 48.8873 104.152C49.1552 104.152 59.1196 103.796 61.2625 103.502C61.7313 103.437 62.1623 103.209 62.4797 102.858C62.7971 102.507 62.9807 102.055 62.9982 101.583C63.0705 99.5514 62.95 89.3326 62.9446 89.3085C62.8183 88.7918 62.4924 88.3461 62.0382 88.0688C61.5839 87.7914 61.0383 87.705 60.5205 87.8284C57.4106 88.5698 51.2713 87.6438 47.7917 89.7341C47.5099 89.9031 47.2739 90.1386 47.1044 90.42C46.9348 90.7014 46.837 91.02 46.8194 91.348C46.6426 94.6829 47.0471 98.901 46.8783 102.038ZM58.9401 92.0867C58.9294 94.7043 59.0392 97.1131 59.0205 99.712C56.4195 99.9314 53.7784 99.8458 50.9391 99.9876C50.9284 97.6752 50.7677 95.0629 50.7945 92.7879C52.857 92.1723 56.3231 92.2847 58.9401 92.0867ZM70.1581 101.829C70.1436 102.101 70.1847 102.374 70.2789 102.63C70.3732 102.885 70.5186 103.119 70.7063 103.317C70.8941 103.515 71.1202 103.673 71.3709 103.78C71.6215 103.888 71.8915 103.943 72.1644 103.943C72.4323 103.943 82.3967 103.59 84.5449 103.29C85.0131 103.225 85.4434 102.998 85.7603 102.647C86.0772 102.297 86.2605 101.846 86.278 101.374C86.3128 100.397 86.286 89.3567 86.2244 89.0998C86.0993 88.5828 85.7741 88.1364 85.3203 87.8585C84.8664 87.5806 84.3208 87.4937 83.8029 87.617C80.7118 88.3557 74.5537 87.435 71.0742 89.5226C70.792 89.6915 70.5556 89.9269 70.3856 90.2083C70.2156 90.4897 70.1173 90.8084 70.0992 91.1365C69.9197 94.5437 70.3269 98.6842 70.1581 101.829ZM82.2199 91.8753C82.2092 94.4259 82.3217 97.0515 82.3002 99.5032C79.7047 99.7227 77.0609 99.637 74.2162 99.7789C74.2055 97.4129 74.0475 94.7632 74.0742 92.5765C76.1368 91.9636 79.6324 92.0706 82.2199 91.8753Z" fill="white"/>
<path d="M10.9368 168.505H14.7886C36.0568 172.63 173.697 173.572 176.394 172.758C178.939 171.987 177.626 167.02 175.465 165.773C176.252 164.689 176.732 163.364 176.732 161.926V159.234C176.728 157.554 176.08 155.939 174.921 154.722C173.762 153.505 172.18 152.778 170.501 152.69C170.566 151.389 170.726 161.308 169.127 98.9384C169.117 98.573 169.007 98.2174 168.81 97.9095C168.613 97.6016 168.335 97.3532 168.008 97.1907C162.527 94.4928 157.714 92.1322 153.364 90.0178C149.71 61.5856 152.081 76.9352 149.515 41.0303C149.935 40.5967 149.94 40.1096 149.94 39.6118C149.94 35.3616 131.994 36.475 129.342 37.3984C127.654 37.8534 127.14 39.5716 127.772 40.7225L125.683 76.7077C117.066 72.7947 109.582 69.8024 99.0897 65.2417V44.6248C99.0899 44.3119 99.0169 44.0033 98.8765 43.7236C98.7361 43.4439 98.5322 43.2008 98.2811 43.0139C98.03 42.8269 97.7386 42.7012 97.4302 42.6468C97.1218 42.5924 96.8049 42.6107 96.5049 42.7004C67.3938 51.407 59.0151 57.049 12.9645 77.3072C12.6043 77.4665 12.2989 77.7279 12.086 78.0591C11.8732 78.3902 11.7623 78.7765 11.7672 79.17L12.6163 152.655H10.9368C9.19104 152.657 7.5172 153.35 6.28276 154.584C5.04833 155.817 4.3542 157.49 4.35278 159.234V161.926C4.3542 163.671 5.04833 165.343 6.28276 166.577C7.5172 167.81 9.19104 168.504 10.9368 168.505ZM165.142 100.255L166.508 152.653H159.289C159.374 149.789 155.973 110.437 153.974 94.7819C157.387 96.4466 161.073 98.2506 165.142 100.255ZM131.704 42.3311C135.173 42.7754 142.231 42.663 145.558 42.2642L146.003 50.133C141.672 51.2063 135.412 51.0109 131.279 49.67L131.704 42.3311ZM131.04 53.8105C135.468 55.0095 141.401 55.2424 146.236 54.2173L151.807 152.658H125.305C127.491 117.254 128.921 90.3389 131.037 53.8105H131.04ZM103.333 71.4457C111.754 75.0376 117.109 77.1948 125.434 81.0114L121.279 152.658H105.462C104.064 121.683 103.185 102.774 103.333 71.4457ZM95.0718 47.3307C95.0986 169.124 94.97 150.798 95.0986 152.658H71.8537C71.8001 140.801 72.1081 133.561 70.0188 127.151C65.3447 112.819 51.3811 110.811 44.6471 122.574C40.1041 130.521 39.9595 143.603 40.2247 152.658H16.6342L15.8011 80.4521C59.966 60.9888 68.5054 55.4538 95.0718 47.3307ZM67.8358 152.655H45.9703C46.0748 146.606 47.0739 130.232 50.1757 124.994C52.5007 121.059 56.6258 119.678 60.6089 122.229C63.475 124.062 65.2536 125.489 66.1991 128.39C68.1277 134.305 67.7876 141.746 67.8358 152.655ZM8.37069 159.234C8.37069 157.818 9.52249 156.67 10.9368 156.67H170.148C171.562 156.67 172.714 157.821 172.714 159.234V161.926C172.714 163.34 171.562 164.491 170.148 164.491H10.9368C10.2564 164.49 9.60416 164.219 9.12307 163.739C8.64199 163.258 8.3714 162.606 8.37069 161.926V159.234ZM141.706 12.8846C141.956 12.7997 142.187 12.6665 142.385 12.4926C142.583 12.3186 142.745 12.1074 142.862 11.8709C142.978 11.6344 143.047 11.3773 143.064 11.1143C143.081 10.8513 143.046 10.5874 142.961 10.3379C142.876 10.0883 142.743 9.85796 142.569 9.65989C142.395 9.46182 142.184 9.29994 141.947 9.1835C141.71 9.06707 141.453 8.99835 141.19 8.98127C140.926 8.96419 140.662 8.99909 140.413 9.08397C137.901 9.9507 135.783 11.686 134.439 13.9766C132.744 16.9126 132.961 19.7738 136.47 21.9739C137.557 22.6537 138.591 23.4486 138.222 25.8467C137.988 27.3562 137.188 28.8711 136.411 30.3325C136.161 30.8031 136.109 31.3534 136.266 31.8624C136.423 32.3714 136.775 32.7973 137.246 33.0464C137.717 33.2956 138.268 33.3476 138.778 33.191C139.287 33.0344 139.713 32.682 139.963 32.2114C140.849 30.5359 141.856 28.6356 142.191 26.4569C142.697 23.1702 141.631 20.4563 138.602 18.5721C137.549 17.911 136.955 17.6567 137.922 15.9866C138.752 14.5493 140.134 13.4199 141.706 12.8846Z" fill="white"/>
</svg>
