<svg width="32" height="33" viewBox="0 0 32 33" fill="none" xmlns="http://www.w3.org/2000/svg">
<rect y="0.208984" width="32" height="32" rx="8" fill="#F9D2AE"/>
<g clip-path="url(#clip0_81_893)">
<path d="M22.8156 8.20898H9.18125C8.52812 8.20898 8 8.72461 8 9.36211V23.0527C8 23.6902 8.52812 24.209 9.18125 24.209H22.8156C23.4688 24.209 24 23.6902 24 23.0559V9.36211C24 8.72461 23.4688 8.20898 22.8156 8.20898ZM12.7469 21.8434H10.3719V14.2059H12.7469V21.8434ZM11.5594 13.1652C10.7969 13.1652 10.1813 12.5496 10.1813 11.7902C10.1813 11.0309 10.7969 10.4152 11.5594 10.4152C12.3188 10.4152 12.9344 11.0309 12.9344 11.7902C12.9344 12.5465 12.3188 13.1652 11.5594 13.1652ZM21.6344 21.8434H19.2625V18.1309C19.2625 17.2465 19.2469 16.1059 18.0281 16.1059C16.7937 16.1059 16.6062 17.0715 16.6062 18.0684V21.8434H14.2375V14.2059H16.5125V15.2496H16.5437C16.8594 14.6496 17.6344 14.0152 18.7875 14.0152C21.1906 14.0152 21.6344 15.5965 21.6344 17.6527V21.8434Z" fill="black"/>
</g>
<defs>
<clipPath id="clip0_81_893">
<rect width="16" height="16" fill="white" transform="translate(8 8.20898)"/>
</clipPath>
</defs>
</svg>
