<svg width="148" height="149" viewBox="0 0 148 149" fill="none" xmlns="http://www.w3.org/2000/svg">
<path d="M13.2165 89.3096L9.18115 89.9109L44.8052 136.855L134.877 127.119L136.577 123.222L46.979 131.374L13.2165 89.3096Z" fill="#231F20"/>
<path d="M78.0705 55.5587C78.0017 57.3522 77.2405 59.0492 75.9469 60.2932C74.6532 61.5373 72.9278 62.2316 71.133 62.2303C69.8568 62.1581 68.6294 61.715 67.6013 60.9554C66.5733 60.1958 65.7892 59.1527 65.3453 57.954C64.9014 56.7553 64.8169 55.4532 65.1023 54.2072C65.3876 52.9612 66.0304 51.8255 66.9517 50.9395C67.8731 50.0535 69.0329 49.4556 70.2891 49.2191C71.5453 48.9827 72.8432 49.1179 74.0237 49.6083C75.2041 50.0987 76.2158 50.923 76.9346 51.9799C77.6535 53.0369 78.0482 54.2807 78.0705 55.5587Z" fill="#231F20"/>
<path d="M44.2275 45.3722C43.5727 47.848 43.319 50.4127 43.4759 52.9687C43.6557 55.5447 44.1688 58.0865 45.0022 60.5306C45.2899 61.4359 45.6296 62.3239 46.0197 63.19C46.3665 64.0687 46.8059 64.9128 47.1759 65.7684C50.3119 71.7544 54.2058 77.3116 58.7615 82.3028C60.7387 84.6153 62.8315 86.7544 64.9359 88.8819C67.63 91.6337 70.4397 94.2931 72.9025 97.2878C73.6656 98.2128 73.4806 98.1665 72.6481 97.5653C71.2465 96.5765 69.9066 95.5031 68.6359 94.3509C65.7607 91.7147 62.9664 88.9474 60.2531 86.0491C57.5158 83.1617 54.9558 80.1114 52.5872 76.9147C49.6082 73.0222 47.0574 68.82 44.979 64.3809C42.6686 59.4184 41.7036 53.9356 42.1809 48.4825C42.5784 45.1461 43.6189 41.9184 45.245 38.9781C46.4886 36.7786 47.9614 34.7167 49.6387 32.8269C51.3445 30.988 53.2889 29.3859 55.42 28.0631C58.7086 26.0364 62.3172 24.582 66.0922 23.7619C66.9247 23.5537 67.7456 23.4266 68.5781 23.2762C69.4106 23.1259 70.0234 23.0912 70.5668 23.0566C71.1103 23.0219 71.5728 23.0566 71.9312 23.0566C72.4436 23.0705 72.9507 23.1641 73.4343 23.3341C73.5874 23.3754 73.738 23.4256 73.8853 23.4844C74.1859 23.6809 72.914 23.8312 70.694 24.2822C64.115 25.1841 57.2584 27.5891 52.1247 32.2834C50.2551 34.0793 48.6441 36.1261 47.3378 38.3653C45.9422 40.5396 44.9075 42.9253 44.2737 45.43L44.2275 45.3722Z" fill="#231F20"/>
<path d="M67.6184 93.0559C67.6184 93.0559 59.2819 96.1778 62.6928 97.8659C66.1037 99.554 73.7234 98.4093 73.7234 98.4093L67.6184 93.0559Z" fill="#231F20"/>
<path d="M83.7819 91.0325C84.0016 90.6856 88.1525 90.7203 89.7944 91.599C91.4363 92.4778 89.9562 93.9115 88.7653 94.6053C85.9428 96.0071 82.9066 96.9293 79.7812 97.334L83.7819 91.0325Z" fill="#231F20"/>
<path d="M29.9357 82.4415C32.1211 82.3028 34.3179 82.1409 36.5032 81.9443L38.8851 81.6784C41.7064 81.4471 44.5161 81.2275 47.3373 80.9615C48.5861 80.8343 49.8348 80.6609 51.0604 80.4875L53.4423 80.1406C54.2579 80.0712 55.0779 80.0712 55.8936 80.1406C56.4139 80.1984 56.3561 80.5568 55.9745 81.0193C55.4624 81.6416 54.791 82.1131 54.032 82.3837C52.4364 82.7075 50.8176 82.9618 49.1989 83.1815C47.5801 83.4012 45.9267 83.459 44.2732 83.5168C42.2961 83.5168 40.2726 83.9446 38.2723 84.1528C36.0639 84.3725 33.8439 84.5575 31.6354 84.754L27.5539 85.0778C25.4842 85.2512 23.4145 85.3553 21.3679 85.5518C19.7723 85.6906 18.2229 86.0143 16.6273 86.13C16.2804 86.13 15.9451 86.2225 15.5867 86.234C14.2686 86.234 13.8523 86.0953 13.5632 85.494C13.5054 85.3553 13.4245 85.2165 13.3782 85.0778C13.2626 84.6153 13.7829 84.2106 14.7195 84.0256C17.5637 83.4711 20.4412 83.1042 23.3336 82.9271L29.9242 82.3837L29.9357 82.4415Z" fill="#231F20"/>
<path d="M124.505 125.084C113.39 126.317 102.271 127.474 91.1475 128.553C87.089 128.969 83.0537 129.443 78.9837 129.825C71.815 130.461 64.6578 131.073 57.4659 131.536C55.6737 131.652 53.87 131.756 52.0662 131.825C51.1528 131.825 50.2509 131.894 49.3375 131.894C48.875 131.894 48.4125 131.894 47.9384 131.894H47.5453H47.025C46.8488 131.881 46.6745 131.85 46.5047 131.802L46.1462 131.42L44.2847 129.223L42.5618 127.154L39.0931 122.98L27.0797 108.145C21.9459 101.832 16.789 95.5072 12.0484 88.8587C10.5915 86.7543 11.1581 86.8006 12.7884 88.2459C15.4636 90.6644 17.9527 93.2811 20.2347 96.0737L35.925 115.418L43.8106 125.084L47.6147 129.628C47.6147 129.628 47.684 129.628 47.7303 129.628H48.2968C48.7825 129.628 49.2912 129.628 49.8 129.628C50.829 129.628 51.8581 129.628 52.8987 129.547C62.8425 129.085 73.2025 127.847 83.3775 126.853C94.57 125.735 105.747 124.556 116.909 123.315L127.222 122.159L136.611 121.002H136.958H137.132H137.201V120.933L136.796 120.39L119.915 97.97L112.642 88.3384C111.44 86.7351 110.253 85.1086 109.081 83.459C108.48 82.6497 107.925 81.8172 107.335 80.9847C107.057 80.5915 106.745 80.0943 106.526 79.759L106.364 79.5278C106.264 79.5164 106.163 79.5164 106.063 79.5278H105.589H104.953H103.67L101.057 79.6203C94.4775 79.8053 92.3268 79.5509 90.9278 78.8918C90.6092 78.768 90.3001 78.6211 90.0028 78.4525C89.4015 77.9784 92.0493 77.6431 96.8478 77.2962C98.6284 77.1922 100.421 77.0303 102.236 76.9609C103.149 76.9609 104.074 76.88 105.022 76.8684H106.179C106.377 76.8757 106.574 76.8989 106.768 76.9378C107.16 76.9945 107.547 77.0835 107.925 77.2037C108.199 77.5139 108.446 77.8465 108.665 78.1981L109.474 79.3543L110.249 80.5106L111.844 82.7306L115.117 87.2053C119.545 93.1715 124.101 99.1956 128.668 105.231L140.23 120.54L140.381 121.696L140.45 122.286L139.802 122.02V122.089V122.182L139.733 122.378L139.583 122.876C139.583 123.095 139.363 123.246 139.109 123.35C138.484 123.465 137.814 123.546 137.166 123.627L132.622 124.205L124.598 125.153L124.505 125.084Z" fill="#231F20"/>
<path d="M89.2866 28.8725C81.0541 23.1953 69.8731 22.6056 60.2878 25.6465C56.7954 26.7724 53.5555 28.5671 50.7487 30.9306C49.5221 31.9726 48.4027 33.1346 47.4072 34.3993L45.9503 36.3534C45.4994 37.024 45.1062 37.7293 44.6784 38.4231C43.0761 41.2212 42.0647 44.3182 41.7069 47.5228C41.0016 53.9631 43.1869 60.4843 46.4591 66.2309C49.4976 71.3398 53.1007 76.0909 57.2006 80.395C59.7906 83.1815 62.4731 85.8987 65.1787 88.6159C67.9382 91.299 70.5475 94.1323 72.995 97.1028C74.4519 99.0453 74.0703 98.895 72.5094 97.6C71.6884 96.9293 70.5322 96.039 69.1909 95.0215C68.4972 94.4896 67.7341 93.9346 66.9594 93.2871C66.1847 92.6396 65.3984 91.9459 64.6469 91.1943C61.8025 88.5118 58.8656 85.8756 56.1947 82.9734C53.453 80.0925 50.8817 77.0541 48.494 73.8737C46.059 70.6565 43.9628 67.1963 42.2387 63.5484C40.4296 59.8189 39.3578 55.775 39.0822 51.639C39.0416 51.0192 39.0416 50.3973 39.0822 49.7775C39.0822 49.1531 39.0822 48.5171 39.1516 47.8928C39.2635 46.6329 39.4566 45.3815 39.7297 44.1465C40.0285 42.9104 40.4149 41.6972 40.8859 40.5159C41.0941 39.9262 41.3947 39.3596 41.6491 38.7931C41.897 38.2085 42.1828 37.6408 42.5047 37.0934C43.1162 35.9922 43.7959 34.9303 44.5397 33.9137C44.9212 33.405 45.2797 32.8962 45.6959 32.399C46.1122 31.9018 46.5169 31.4162 46.9447 30.9537C48.6796 29.1044 50.6598 27.5015 52.83 26.19C57.5698 23.4383 62.8704 21.794 68.3353 21.38C71.053 21.143 73.7876 21.1778 76.4984 21.484C79.2005 21.8131 81.8548 22.4572 84.4072 23.4034C90.8189 25.7652 96.1911 30.3145 99.5772 36.2493C101.995 40.7756 103.164 45.8639 102.965 50.9915C102.748 56.0248 101.645 60.9803 99.7044 65.6296C96.7559 72.8446 92.2581 78.9959 88.1419 85.2859C87.2284 86.6618 86.3612 88.0262 85.4825 89.4253C84.6037 90.8243 83.9794 91.7609 83.4359 92.709C82.8925 93.6571 82.2797 94.2931 81.9559 94.8943C81.4179 95.7155 80.8105 96.4892 80.1406 97.2068C79.9324 97.4414 79.7125 97.6652 79.4815 97.8775C79.204 98.0856 79.2503 97.5768 79.5509 96.4668C79.7329 95.7514 79.9607 95.0485 80.2331 94.3625C80.5675 93.3906 80.9534 92.4373 81.3894 91.5065C84.569 85.4246 88.7431 79.7937 92.3622 73.92C94.2023 71.022 95.8107 67.9831 97.1722 64.8318C98.4829 61.682 99.4107 58.3863 99.9356 55.0153C100.753 50.0688 100.263 44.9946 98.5134 40.2962C96.6541 35.6571 93.4281 31.6931 89.2634 28.9303L89.2866 28.8725Z" fill="#231F20"/>
<path d="M67.572 50.5637C66.7889 51.2512 66.1733 52.1088 65.7725 53.0707C65.3717 54.0327 65.1962 55.0735 65.2595 56.1137C65.4238 57.8956 66.2875 59.5397 67.6615 60.6861C69.0354 61.8325 70.8076 62.3877 72.5901 62.2303C73.8404 62.1125 75.0372 61.6657 76.0589 60.9353C77.3075 59.9447 78.276 58.6455 78.8685 57.1659C79.0882 56.7265 79.6317 56.8653 80.0248 57.4781C80.24 57.8642 80.359 58.2965 80.3717 58.7384C80.367 59.2995 80.2155 59.8496 79.9323 60.334C78.7183 62.1082 76.9244 63.4042 74.8586 63.9992C72.7928 64.5943 70.5843 64.4512 68.6126 63.5947C67.4522 63.0813 66.4087 62.3366 65.5458 61.4062C64.683 60.4758 64.019 59.3792 63.5945 58.1834C63.1806 56.8626 63.0885 55.4619 63.3259 54.0982C63.5632 52.7346 64.1231 51.4474 64.9589 50.344C65.9405 48.9997 67.2667 47.9451 68.7976 47.2915C69.953 46.804 71.1976 46.5638 72.4514 46.5862C73.6988 46.6235 74.9226 46.9353 76.0357 47.4997C77.7868 48.3437 79.2301 49.7143 80.1635 51.4193C80.3658 51.7912 80.5397 52.1777 80.6839 52.5756C81.1348 54.1481 80.892 54.7147 80.3485 55.0268C80.2291 55.1162 80.0965 55.1865 79.9554 55.235C79.5045 55.3622 79.1923 54.784 78.9148 53.9168C78.5268 52.6155 77.7871 51.4465 76.7773 50.5386C75.7674 49.6308 74.5265 49.0193 73.1914 48.7715C72.185 48.6401 71.162 48.7338 70.1963 49.0457C69.2305 49.3576 68.346 49.8801 67.6067 50.5753L67.572 50.5637Z" fill="#231F20"/>
<path d="M112.342 109.116L109.624 109.324C109.289 109.324 108.977 109.428 108.642 109.451C107.485 109.544 106.329 109.648 105.173 109.798C104.663 109.87 104.157 109.97 103.658 110.099C103.035 110.278 102.396 110.398 101.75 110.457C101.565 110.457 101.473 110.226 101.554 109.914C101.604 109.729 101.694 109.557 101.818 109.411C101.941 109.265 102.096 109.149 102.271 109.07C103.566 108.616 104.915 108.332 106.283 108.226C107.104 108.226 107.913 107.914 108.746 107.775C109.578 107.636 110.561 107.486 111.474 107.382L113.163 107.185C114.018 107.081 114.885 107.012 115.729 106.873C116.389 106.781 117.013 106.561 117.684 106.422C117.822 106.422 117.973 106.341 118.111 106.33C118.678 106.26 118.874 106.399 118.99 106.919C118.99 107.035 118.99 107.151 119.071 107.278C119.098 107.463 119.059 107.652 118.962 107.812C118.865 107.973 118.716 108.094 118.539 108.156C117.413 108.521 116.249 108.758 115.07 108.862L112.365 109.162L112.342 109.116Z" fill="#F39F51"/>
<path d="M27.1612 91.784H28.6412C28.8262 91.784 28.9996 91.784 29.1846 91.784H31.104C31.3815 91.784 31.6706 91.784 31.9481 91.784C32.3109 91.7147 32.6837 91.7147 33.0465 91.784C33.2662 91.8418 32.9771 92.6281 32.5956 92.709C31.8963 92.8547 31.1817 92.913 30.4681 92.8825C30.0254 92.8886 29.5842 92.935 29.1499 93.0212L27.6815 93.1831L26.7681 93.264C26.3056 93.264 25.8431 93.345 25.3921 93.4143C24.9412 93.4837 24.6984 93.5878 24.3399 93.6687H24.1087C23.8081 93.6687 23.7156 93.6687 23.6346 93.2987C23.61 93.2309 23.5907 93.1613 23.5768 93.0906C23.5544 92.9817 23.5683 92.8685 23.6164 92.7683C23.6644 92.6681 23.7439 92.5863 23.8428 92.5356C24.4286 92.2648 25.0525 92.0854 25.6928 92.0037C26.1784 91.9343 26.664 91.8881 27.1612 91.8418V91.784Z" fill="#231F20"/>
<path d="M115.059 113.66H113.903C113.764 113.66 113.625 113.73 113.475 113.73C112.966 113.73 112.458 113.73 111.949 113.799C111.728 113.826 111.511 113.876 111.301 113.949C111.04 114.078 110.748 114.134 110.457 114.111C110.261 114.111 110.203 112.793 110.527 112.701C111.114 112.542 111.724 112.487 112.33 112.539C112.696 112.54 113.06 112.502 113.417 112.423L114.574 112.319L115.314 112.25C115.702 112.226 116.088 112.175 116.47 112.099C116.747 112.018 117.002 111.903 117.268 111.799L117.441 111.729C117.661 111.729 117.765 111.729 117.869 112.053L117.938 112.365C117.975 112.464 117.983 112.571 117.96 112.673C117.938 112.776 117.886 112.87 117.811 112.943C117.38 113.293 116.859 113.513 116.308 113.579C115.915 113.66 115.51 113.695 115.152 113.741L115.059 113.66Z" fill="#F39F51"/>
<path d="M103.75 12.2456C103.904 12.0541 104.094 11.895 104.31 11.7777C104.526 11.6605 104.763 11.5873 105.007 11.5626C105.251 11.5378 105.498 11.562 105.733 11.6336C105.968 11.7052 106.186 11.8228 106.375 11.9797C109.647 15.1709 99.7729 16.3965 103.75 12.2456Z" fill="#F39F51" stroke="#231F20" stroke-width="1.2" stroke-miterlimit="10"/>
<path d="M112.908 26.4328C113.223 26.0605 113.67 25.8248 114.155 25.7752C114.64 25.7256 115.126 25.866 115.509 26.1669C118.805 29.3581 108.93 30.5606 112.908 26.4328Z" fill="#F39F51"/>
<path d="M27.6698 48.1587C27.4347 47.8734 27.0971 47.6917 26.7295 47.6528C26.3619 47.6139 25.9937 47.7208 25.7041 47.9506C23.2066 50.3671 30.6876 51.269 27.6698 48.1587Z" fill="#F39F51"/>
</svg>
