<svg width="166" height="188" viewBox="0 0 166 188" fill="none" xmlns="http://www.w3.org/2000/svg">
<rect y="33.1289" width="128" height="160" rx="16" transform="rotate(-15 0 33.1289)" fill="#FCEAD9"/>
<g clip-path="url(#clip0_1_1165)">
<path d="M104.884 65.082C104.498 64.8983 104.077 64.7993 103.649 64.7917C103.196 64.7584 102.741 64.766 102.289 64.8146C101.365 64.9043 100.449 65.0589 99.5475 65.2773C97.7309 65.7183 95.9477 66.2869 94.2111 66.9789C93.9349 67.1073 93.2776 65.2336 93.6002 65.1627C95.4791 64.6446 97.3927 64.2617 99.3262 64.0166C100.3 63.8902 101.282 63.8348 102.263 63.8508C102.765 63.8558 103.265 63.901 103.759 63.9857C104.281 64.064 104.78 64.2502 105.226 64.5323C105.642 64.84 105.185 65.2498 104.884 65.082Z" fill="#231F20"/>
<path d="M55.7439 108.585L52.6206 98.5518L51.4476 94.8984C50.1452 90.5886 48.8864 86.2672 47.642 81.9419C47.1256 80.0148 46.4967 78.1024 45.9152 76.1929C45.0645 73.7842 44.4167 71.3086 43.9787 68.7919C43.8671 67.9988 44.1189 68.04 44.6235 68.6192C44.946 68.9975 45.2466 69.394 45.524 69.8066C45.8722 70.3775 46.1483 70.9895 46.346 71.6284C47.8902 76.5799 49.3329 81.5587 50.6825 86.6245C51.492 89.6454 52.5445 92.7332 53.4966 95.7936L56.6571 105.879L58.6767 112.054C59.6988 115.174 60.7123 118.319 61.7847 121.393C62.6272 123.784 63.5503 126.099 64.4502 128.444C64.6571 128.955 64.8529 129.454 65.0545 129.974C65.7168 131.924 65.8152 132.581 65.5608 133.139C65.5102 133.269 65.4819 133.424 65.4341 133.506C65.3118 133.803 64.6071 133.115 63.9962 131.733C62.1206 127.631 60.6026 123.154 59.0518 118.67C57.9096 115.335 56.8195 111.962 55.726 108.606L55.7439 108.585Z" fill="#231F20"/>
<path d="M112.123 100.474C110.468 91.3986 108.812 82.3228 107.029 73.2891C106.697 71.6464 106.342 70.0023 105.962 68.3805C105.746 67.5763 105.58 66.7514 105.368 65.9617C105.261 65.5633 105.156 65.1721 105.054 64.7881C105.003 64.5998 104.949 64.3969 104.912 64.2593C104.911 64.206 104.897 64.1538 104.871 64.1072L104.781 64.0614L104.606 64.0152C104.391 63.9681 104.173 63.9383 103.953 63.9261C103.461 63.8947 102.967 63.9024 102.476 63.9492C101.417 64.0651 100.366 64.2456 99.3287 64.4897C98.2937 64.7127 97.2611 64.9738 96.229 65.2659L94.6903 65.7247C93.9224 65.9305 92.9789 66.292 92.1468 66.5771L91.963 65.1666L91.8549 64.4735L91.7595 63.8856L91.4556 62.2589C91.2446 61.1818 91.01 60.1032 90.7609 59.0286C90.5117 57.954 90.2534 56.874 89.97 55.8163L89.7584 55.0267L89.576 54.3457C89.5534 54.2328 89.5235 54.1215 89.4867 54.0125C89.4459 53.8603 89.3001 53.9538 89.1968 53.9737L88.9649 54.0358L88.4433 54.1756L87.2703 54.521L85.0884 55.2453L80.7121 56.7052C75.7148 58.3393 70.6406 59.9474 65.5728 61.2898C62.306 62.1931 58.9899 62.9079 55.641 63.4308C53.9441 63.6845 52.2314 63.8191 50.5156 63.8336C48.7203 63.9015 46.9333 63.5569 45.2919 62.8262C45.065 62.7099 44.8474 62.5761 44.6412 62.426C44.5095 62.3045 44.3864 62.1741 44.2726 62.0356C44.096 61.8112 44.0683 61.6788 44.1619 61.6227C44.2556 61.5665 44.43 61.5509 44.7026 61.6409L45.1395 61.7645L45.7251 61.8638C46.858 62.054 48.0094 62.1104 49.1554 62.0317C50.5984 61.9401 52.2944 61.7497 54.1537 61.531C57.0954 61.1512 60.0132 60.6053 62.8932 59.8958C65.8124 59.1991 68.7063 58.4081 71.5866 57.5665C74.4669 56.7248 77.3317 55.8252 80.1906 54.9038L84.4732 53.5001L86.6136 52.7946L87.7011 52.4488L88.3024 52.2877L89.2949 52.0218C89.6112 51.9376 89.947 51.9656 90.245 52.1008C90.5431 52.2361 90.7852 52.4703 90.9302 52.7638C91.0779 53.0973 91.2081 53.4382 91.3203 53.7851L91.4873 54.4082C91.7066 55.2268 91.9221 56.0309 92.1375 56.8351C92.5005 58.1898 92.7602 59.5644 93.0473 60.955C93.1863 61.6476 93.32 62.3494 93.461 63.0493L93.5899 63.7912L93.6318 64.1216L94.6199 63.8102C95.3444 63.6161 95.9775 63.3999 96.6729 63.2135C98.0589 62.8235 99.465 62.509 100.885 62.2713C101.617 62.148 102.357 62.0717 103.099 62.043C103.49 62.0234 103.882 62.0326 104.271 62.0706C104.737 62.1002 105.196 62.2056 105.628 62.3825C105.765 62.4377 105.898 62.5005 106.028 62.5704L106.219 62.6746C106.288 62.7025 106.297 62.7933 106.336 62.8527C106.476 63.1004 106.595 63.3595 106.691 63.6272C106.792 64.0039 106.929 64.34 107.031 64.693C107.225 65.4175 107.404 66.0839 107.588 66.7722C108.648 71.3335 109.505 75.8945 110.388 80.4642L112.9 94.1866C113.942 99.8161 114.976 105.44 116.081 111.045C116.501 113.161 116.922 115.284 117.373 117.4C117.602 118.457 117.83 119.513 118.079 120.557L118.289 121.34L118.65 122.687C118.661 122.731 118.602 122.77 118.581 122.806L118.225 123.275C118.112 123.422 117.985 123.558 117.844 123.679C117.731 123.78 117.622 123.894 117.505 123.98C115.621 125.409 113.505 126.061 111.426 126.735C109.347 127.408 107.217 127.862 105.113 128.325C101.821 129.021 98.5593 129.6 95.3052 130.177L90.4247 130.972C89.621 131.102 88.7863 131.232 88.0396 131.401C87.2929 131.57 86.4821 131.819 85.7297 132.083C84.3654 132.526 83.0621 133.022 81.7433 133.578C79.3068 134.627 77.7952 135.505 76.6895 136.073C75.945 136.511 75.1411 136.839 74.3026 137.047C74.03 137.125 73.7518 137.181 73.4704 137.215C73.1429 137.21 73.3637 136.817 74.1068 136.113C75.26 135.081 76.5237 134.18 77.8748 133.426C80.5469 131.924 83.3831 130.734 86.3275 129.88C86.7043 129.779 87.052 129.686 87.4649 129.575C87.8779 129.465 88.2735 129.405 88.6652 129.332L90.9402 128.955L95.4744 128.229C98.4952 127.738 101.53 127.212 104.536 126.578C107.526 125.993 110.467 125.176 113.331 124.136C114.313 123.773 115.248 123.293 116.116 122.706L116.394 122.499L116.505 122.392L116.579 122.318L116.495 122.007L116.264 121.144C115.713 118.854 115.239 116.566 114.773 114.276C113.85 109.702 112.98 105.121 112.119 100.545L112.123 100.474Z" fill="#231F20"/>
<path d="M106.44 62.8634C102.451 58.497 96.3632 54.5533 90.9215 52.2689C90.4488 52.0694 89.0371 53.263 89.2991 53.3714C95.0904 55.7732 100.327 59.3384 104.684 63.8463C105.016 64.2155 106.628 63.0458 106.432 62.8345L106.44 62.8634Z" fill="#231F20"/>
<path d="M59.4534 83.715C59.7257 83.3445 60.0701 83.033 60.4659 82.7992C60.8141 82.592 61.1949 82.4454 61.592 82.3655C64.1537 81.7256 66.7284 80.9892 69.2919 80.2402L75.9495 78.4563C79.759 77.3734 83.553 76.2326 87.3509 75.1062L90.718 74.1108C91.7858 73.7781 92.8681 73.4416 93.9417 73.1306C94.1187 73.0598 94.3035 73.0103 94.4923 72.9831C94.5911 72.9673 94.6924 72.9819 94.7828 73.0249C94.8732 73.068 94.9484 73.1374 94.9985 73.224C95.0487 73.3107 95.0713 73.4105 95.0636 73.5103C95.0558 73.6101 95.018 73.7052 94.9551 73.783C94.8967 73.8841 94.8409 74.0233 94.7631 74.0519C93.9228 74.2771 93.4266 75.0622 92.5447 75.3063C90.9074 75.745 89.3148 76.3503 87.7081 76.874C87.0489 77.0506 86.3969 77.2253 85.7376 77.402L83.2005 77.9886C82.0559 78.2953 76.698 79.8009 71.5221 81.2033C68.9358 81.8963 66.4075 82.5737 64.4683 83.0157C63.5048 83.2738 62.674 83.4188 62.0887 83.5524C61.5033 83.6859 61.1144 83.7125 61.0473 83.7227C60.5167 83.763 59.9836 83.7604 59.4534 83.715Z" fill="#231F20"/>
<path d="M63.4898 93.5038C63.704 93.1391 63.988 92.8203 64.3255 92.5655C64.6037 92.3648 64.9182 92.2199 65.2516 92.1388C67.4113 91.5057 69.5497 90.793 71.7432 90.1121C73.6127 89.5257 75.5126 89.0244 77.3879 88.4598C80.6227 87.4921 83.8555 86.5172 87.1464 85.6432L90.0578 84.9174C90.9923 84.667 91.9196 84.4185 92.8866 84.2604C93.0428 84.2102 93.2052 84.1823 93.3692 84.1777C93.4643 84.1837 93.5558 84.2163 93.6333 84.2717C93.7108 84.3271 93.7713 84.4032 93.8078 84.4912C93.8443 84.5792 93.8555 84.6757 93.8399 84.7697C93.8244 84.8638 93.7828 84.9516 93.7199 85.0232C93.6669 85.115 93.6183 85.2523 93.5439 85.2645C92.8194 85.4586 92.3555 86.1031 91.6015 86.2741C90.2025 86.5869 88.8208 86.9727 87.4621 87.4298C86.9115 87.5774 86.3537 87.7268 85.7959 87.8763L83.6311 88.3166C82.6506 88.5405 78.0891 89.8016 73.7305 91.1247C71.5727 91.765 69.411 92.3908 67.7593 92.8334C66.798 93.1129 65.823 93.3431 64.8382 93.5229C64.3891 93.5585 63.9377 93.5521 63.4898 93.5038Z" fill="#231F20"/>
<path d="M67.2314 103.845C67.473 103.486 67.7793 103.175 68.1347 102.928C68.4362 102.727 68.7687 102.578 69.1187 102.486C71.42 101.83 73.7178 101.075 76.0291 100.37C78.0184 99.767 80.0362 99.2418 82.0366 98.6515C85.4781 97.6439 88.9229 96.6199 92.4022 95.6954C93.4309 95.4198 94.4713 95.1876 95.5019 94.9192C96.5326 94.6508 97.4796 94.3893 98.5066 94.2228C98.6723 94.1701 98.8443 94.1397 99.0181 94.1324C99.1152 94.135 99.2096 94.1653 99.2901 94.2197C99.3706 94.2742 99.4338 94.3505 99.4724 94.4397C99.511 94.5289 99.5233 94.6272 99.5079 94.7232C99.4924 94.8191 99.4499 94.9087 99.3853 94.9812C99.3231 95.0678 99.2672 95.207 99.1928 95.2192C98.4684 95.4133 97.9319 96.0772 97.1418 96.2579C95.6518 96.5757 94.1792 96.9703 92.7299 97.4401C92.1359 97.5992 91.5491 97.7565 90.955 97.9156L88.6492 98.4093C87.6132 98.6868 82.7522 99.9893 78.1106 101.357C75.7896 102.026 73.51 102.675 71.7694 103.134C70.7547 103.427 69.726 103.669 68.687 103.859C68.2025 103.901 67.715 103.896 67.2314 103.845Z" fill="#231F20"/>
<path d="M77.9338 112.927C78.1309 112.098 78.3423 111.902 78.621 111.811C79.5338 111.567 80.4431 111.222 81.3645 110.952C82.1686 110.737 82.9844 110.565 83.7769 110.306C85.1606 109.935 86.5268 109.499 87.9061 109.083C88.3118 108.974 88.7247 108.863 89.1188 108.711C89.5128 108.559 89.8818 108.429 90.2691 108.31C90.3343 108.292 90.3951 108.229 90.4647 108.257C90.6696 108.327 90.8348 108.741 90.8063 109.098C90.8257 109.17 90.8007 109.309 90.7718 109.316C90.4675 109.398 90.3987 110.069 90.0819 110.161C89.4894 110.341 88.9106 110.564 88.3503 110.827C88.1164 110.918 87.8735 110.983 87.6258 111.021C87.3215 111.103 86.9901 111.083 86.6728 111.145C86.3554 111.206 84.2966 111.781 82.4028 112.219C81.461 112.471 80.5221 112.676 79.8097 112.828C79.3904 112.933 78.9643 113.008 78.5345 113.054C78.3298 113.036 78.1281 112.994 77.9338 112.927Z" fill="#231F20"/>
<path d="M77.4867 134.702C83.3069 131.603 89.7073 129.745 96.2827 129.247C107.416 128.345 117.971 122.589 117.971 122.589C117.971 122.589 117.005 129.619 97.9059 131.219C86.9185 132.144 79.4407 137.3 77.5788 137.799C76.5212 138.083 77.4867 134.702 77.4867 134.702Z" fill="#231F20"/>
</g>
<defs>
<clipPath id="clip0_1_1165">
<rect width="96" height="96" fill="white" transform="translate(23.737 59.8975) rotate(-15)"/>
</clipPath>
</defs>
</svg>
