<svg width="128" height="129" viewBox="0 0 128 129" fill="none" xmlns="http://www.w3.org/2000/svg">
<path d="M84.3698 48.0854C83.9894 47.864 83.7072 47.5067 83.5798 47.0854C83.5717 47.0567 83.5724 47.0262 83.5818 46.9978C83.5912 46.9695 83.6089 46.9446 83.6325 46.9263C83.6561 46.9081 83.6847 46.8973 83.7145 46.8953C83.7443 46.8934 83.774 46.9004 83.7998 46.9154C84.0298 47.0354 84.2698 47.1454 84.5198 47.2554C85.5483 47.8026 86.6397 48.2223 87.7698 48.5054C88.5217 48.673 89.2894 48.7602 90.0598 48.7654C90.3089 48.7619 90.557 48.7318 90.7998 48.6754C90.9159 48.6573 91.0299 48.6272 91.1398 48.5854C91.415 48.4757 91.6767 48.3348 91.9198 48.1654C92.0933 48.0275 92.2985 47.9351 92.5168 47.8967C92.7351 47.8583 92.9596 47.875 93.1698 47.9454C93.2559 47.9807 93.3367 48.0278 93.4098 48.0854L93.5698 48.2454L93.7098 48.4954C93.7423 48.6107 93.769 48.7275 93.7898 48.8454C93.7898 49.3454 93.7898 49.8454 93.7198 50.3954L93.6298 51.2654C93.5801 51.6654 93.51 52.0626 93.4198 52.4554C93.0898 53.8854 92.8098 55.1354 92.5198 56.4554C92.4475 56.6806 92.394 56.9114 92.3598 57.1454C92.3273 57.319 92.2805 57.4896 92.2198 57.6554C92.2198 57.7954 92.1098 57.9454 92.0298 58.1254C91.9805 58.2378 91.9202 58.345 91.8498 58.4454C91.7999 58.5325 91.7394 58.6131 91.6698 58.6854C91.6168 58.7395 91.56 58.7896 91.4998 58.8354C91.3985 58.9077 91.2874 58.965 91.1698 59.0054L91.5198 58.7954C91.4068 58.9003 91.2743 58.9819 91.1298 59.0354C91.0361 59.0663 90.9384 59.0832 90.8398 59.0854C90.663 59.0945 90.487 59.0566 90.3298 58.9754C90.2548 58.9464 90.1867 58.9022 90.1298 58.8454L89.9998 58.7454L89.9198 58.6054C89.8622 58.5194 89.8183 58.4249 89.7898 58.3254C89.7461 58.1819 89.7159 58.0346 89.6998 57.8854C89.6998 57.6754 89.6998 57.4954 89.6998 57.3254V56.3854C89.6998 55.8254 89.6998 55.3854 89.6998 55.2354C89.7363 54.7365 89.7026 54.235 89.5998 53.7454C89.5198 53.5154 89.5998 53.5454 89.4798 53.4654C89.3598 53.3854 89.3898 53.3954 89.2198 53.4654C89.111 53.5198 88.9971 53.5633 88.8798 53.5954C88.5611 53.6849 88.2736 53.8616 88.0498 54.1054C87.6873 54.4582 87.3068 54.792 86.9098 55.1054C86.6976 55.2393 86.4772 55.3596 86.2498 55.4654C86.0498 55.5654 86.0298 55.4054 86.0598 55.3254C86.0898 55.2454 85.9898 55.1954 85.9298 55.1754C85.8698 55.1554 85.9298 55.1754 85.8698 55.1754C86.0917 54.7019 86.3965 54.2718 86.7698 53.9054C87.1421 53.4191 87.5682 52.9763 88.0398 52.5854C88.2849 52.3914 88.5625 52.2424 88.8598 52.1454C89.2465 51.9996 89.6731 51.9996 90.0598 52.1454C90.5111 52.335 90.8702 52.694 91.0598 53.1454C91.2973 53.7259 91.4424 54.34 91.4898 54.9654C91.5498 55.4654 91.5598 55.8254 91.5698 55.9654C91.5899 56.2217 91.5899 56.4792 91.5698 56.7354V57.2554C91.5598 57.4119 91.5598 57.5689 91.5698 57.7254C91.5698 57.8154 91.5698 57.8754 91.5698 57.9154C91.5698 57.9554 91.4098 57.9154 91.2498 57.9754L90.9998 57.9054C90.957 57.8952 90.9125 57.8952 90.8698 57.9054C90.7698 57.9954 90.7798 57.9754 90.7698 57.9954C90.7678 57.9548 90.7545 57.9156 90.7316 57.8821C90.7087 57.8485 90.6769 57.822 90.6398 57.8054L90.8098 57.8954C90.7925 57.8284 90.7539 57.7687 90.6998 57.7254C90.6291 57.6332 90.5448 57.5522 90.4498 57.4854C90.389 57.4477 90.3321 57.4042 90.2798 57.3554L90.3598 57.1554C90.3598 56.9854 90.4698 56.8154 90.5098 56.6454L90.6698 56.0354C90.8698 55.3954 90.9698 54.7254 91.2398 54.0354C91.2836 53.9084 91.3171 53.7779 91.3398 53.6454C91.5498 52.5154 91.7998 51.2754 91.9498 50.2354C91.9547 50.1989 91.9547 50.1619 91.9498 50.1254C91.9498 50.1254 91.9498 49.9854 91.9498 50.0354H91.8898C91.8252 50.0699 91.7584 50.1 91.6898 50.1254L91.0598 50.2754C90.6488 50.3301 90.234 50.3502 89.8198 50.3354C89.0356 50.2768 88.2606 50.1292 87.5098 49.8954C86.7525 49.5968 86.023 49.2321 85.3298 48.8054C85.0598 48.7354 84.5398 48.1854 84.3698 48.0854Z" fill="#0F172A"/>
<path d="M91.8395 42.1055C91.2853 42.5577 90.5795 42.7815 89.866 42.7313C89.1525 42.6811 88.485 42.3608 87.9995 41.8355C85.7295 39.4655 88.7595 35.3455 91.6895 38.5255C92.1756 38.9853 92.4633 39.6165 92.4913 40.285C92.5193 40.9536 92.2855 41.6066 91.8395 42.1055Z" fill="#F39F51"/>
<path d="M26.7191 85.8154C28.6933 78.2464 30.2126 70.566 31.2691 62.8154C31.6491 59.9854 31.8891 57.1354 32.1591 54.2954C32.6191 49.2954 32.8791 44.2954 32.8591 39.2054C32.8711 34.181 32.4698 29.164 31.6591 24.2054C31.3035 22.0093 30.7479 19.8503 29.9991 17.7554C29.636 16.7409 29.1773 15.7631 28.6291 14.8354C28.1392 13.9645 27.4547 13.2184 26.6291 12.6554C26.1399 12.3658 25.5724 12.2361 25.0059 12.2845C24.4394 12.3329 23.9021 12.557 23.4691 12.9254C22.4537 13.7482 21.6482 14.8004 21.1191 15.9954C20.5179 17.237 20.0357 18.5328 19.6791 19.8654C19.2872 21.2041 18.9832 22.567 18.7691 23.9454C18.5791 25.6354 18.1991 25.4754 17.8291 23.9454C17.365 21.2936 17.6632 18.5644 18.6891 16.0754C19.2714 14.5317 20.1476 13.1155 21.2691 11.9054C21.9255 11.2201 22.7196 10.6817 23.5991 10.3254C24.5875 9.95551 25.6707 9.92385 26.6791 10.2354C27.6042 10.5485 28.4361 11.0883 29.0991 11.8054C29.6837 12.4091 30.194 13.0805 30.6191 13.8054C31.3899 15.1757 32.0134 16.6238 32.4791 18.1254C33.362 21.0168 33.9812 23.9823 34.3291 26.9854C34.7029 29.9623 34.9265 32.9561 34.9991 35.9554C35.2004 43.2231 34.9633 50.4963 34.2891 57.7354C33.4679 65.6876 32.1621 73.5823 30.3791 81.3754C29.2591 86.1654 27.9991 90.9254 26.5691 95.6054C25.4891 99.1654 24.3091 102.705 23.0191 106.195C22.3645 107.867 21.8885 109.604 21.5991 111.375C21.3386 113.037 21.6942 114.737 22.5991 116.155C23.2867 117.192 24.3402 117.932 25.5491 118.225C26.7886 118.51 28.0827 118.448 29.2891 118.045C31.7591 117.365 33.5791 115.315 34.9491 113.045C35.5348 112.012 36.0558 110.943 36.5091 109.845C37.3891 107.775 37.8691 106.335 38.3191 105.365C38.5897 104.643 39.0284 103.995 39.5991 103.475C39.7891 103.292 39.9968 103.128 40.2191 102.985C40.8091 102.705 40.7191 104.625 39.7391 107.985C39.0094 110.569 37.9186 113.037 36.4991 115.315C35.7113 116.558 34.7326 117.668 33.5991 118.605C32.3913 119.581 30.9905 120.29 29.4891 120.685C27.9243 121.086 26.2839 121.086 24.7191 120.685C23.8963 120.451 23.1164 120.087 22.4091 119.605C21.7057 119.1 21.0879 118.486 20.5791 117.785C19.6245 116.4 19.0771 114.776 18.9991 113.095C18.9616 111.576 19.1641 110.061 19.5991 108.605C20.1391 106.545 20.9091 104.665 21.5391 102.835C22.1691 101.005 22.8191 99.1054 23.4091 97.2254C24.6091 93.4654 25.6891 89.6554 26.6591 85.8254L26.7191 85.8154Z" fill="#0F172A"/>
<path d="M90.9192 8.08547C93.0027 7.88772 95.1014 7.91454 97.1792 8.16547C99.374 8.44331 101.481 9.20128 103.349 10.3855C104.261 10.998 105.106 11.7053 105.869 12.4955C106.059 12.6955 106.249 12.8855 106.429 13.0955L106.939 13.7755L107.449 14.4655C107.589 14.7055 107.709 14.9555 107.839 15.1955C108.816 17.0735 109.471 19.1014 109.779 21.1955C110.256 24.1171 110.467 27.0758 110.409 30.0355C110.244 35.1623 109.773 40.2747 108.999 45.3455C108.289 50.3455 107.429 55.3455 106.549 60.3455C105.759 64.7655 105.019 69.2255 104.349 73.6255C103.909 76.4455 103.529 79.2855 103.209 82.1155C103.049 83.5255 102.919 84.9455 102.819 86.3455C102.683 87.7377 102.636 89.1372 102.679 90.5355C102.849 92.2055 102.469 92.1455 101.789 90.6755C100.921 88.1901 100.614 85.5436 100.889 82.9255C101.389 77.0055 102.309 71.2155 103.309 65.4355C104.309 59.6555 105.309 53.8955 106.309 48.1055C107.514 41.0692 108.027 33.9317 107.839 26.7955C107.639 22.9655 107.139 18.9955 105.309 15.8955L104.529 14.8455C104.229 14.5055 103.899 14.1755 103.529 13.8455C102.865 13.2299 102.13 12.6961 101.339 12.2555C99.724 11.3734 97.9357 10.8546 96.0992 10.7355C93.7269 10.5924 91.3464 10.6727 88.9892 10.9755L81.7092 11.7655C74.3792 12.6055 66.9992 13.3055 59.5692 13.5355C53.8618 13.7893 48.1432 13.5819 42.4692 12.9155C41.2192 12.7855 39.9992 12.5355 38.7392 12.3055C34.0992 11.3055 32.7392 10.4455 32.0492 9.45547C31.877 9.24074 31.7263 9.00963 31.5992 8.76547C31.4992 8.42547 31.9292 8.30547 32.7892 8.37547C33.6492 8.44547 34.8892 8.78547 36.5292 9.08547C46.1492 11.2155 56.6792 11.1855 67.2092 10.4155C75.0692 9.83547 82.8892 8.82547 90.9092 8.01547L90.9192 8.08547Z" fill="#0F172A"/>
<path d="M84.3899 99.2654L73.5499 100.265C72.2399 100.395 70.9199 100.585 69.5499 100.705C64.8999 101.125 60.2199 101.455 55.5499 101.705C53.4699 101.705 51.3799 101.845 49.3199 101.865C47.9899 101.865 46.6599 101.865 45.3199 101.865C43.9799 101.865 42.6699 101.585 41.3199 101.395C40.4999 101.265 40.6199 101.155 41.3199 100.965C42.0199 100.775 43.3199 100.425 44.8199 100.195C50.1699 100.015 55.4699 99.5054 60.8899 99.3554C64.1199 99.2254 67.4699 98.7354 70.7699 98.3554L81.6799 97.2154L88.3999 96.5354C91.7799 96.1754 95.1899 95.8454 98.5499 95.4254C101.209 94.951 103.921 94.8433 106.61 95.1054C107.226 95.1864 107.835 95.3168 108.43 95.4954C110.68 96.2954 111.16 97.0554 111.15 97.8454C111.166 98.0284 111.166 98.2124 111.15 98.3954C110.97 98.9354 110.07 98.7154 108.78 98.2354C104.91 96.7754 100.22 97.7654 95.2599 98.2354L84.3999 99.3254L84.3899 99.2654Z" fill="#0F172A"/>
<path d="M89.1991 118.485C85.1991 118.605 81.1991 118.555 77.2791 118.635L72.9491 118.755C67.8591 118.815 62.7791 118.875 57.7191 119.245L54.3191 119.525L50.9291 119.705C48.09 119.779 45.2596 120.053 42.4591 120.525C41.6191 120.705 41.5891 120.316 42.2191 119.726C43.2866 118.871 44.5785 118.343 45.9391 118.205C48.9391 117.815 51.9391 117.775 54.7691 117.595C57.5991 117.415 60.6791 117.135 63.6491 117.075C67.2091 117.005 70.8991 116.755 74.5291 116.645L86.5291 116.336C88.9691 116.266 91.4091 116.145 93.8291 115.915C95.6577 115.747 97.4766 115.486 99.2791 115.135L100.619 114.845C101.037 114.743 101.448 114.612 101.849 114.455C102.654 114.137 103.411 113.71 104.099 113.185C106.168 111.495 107.582 109.137 108.099 106.516C108.249 105.956 108.289 105.395 108.389 104.815C108.649 102.675 108.729 101.975 109.279 101.435C109.386 101.3 109.507 101.176 109.639 101.065C109.849 100.925 110.059 101.065 110.269 101.505C110.403 101.774 110.511 102.056 110.589 102.345C110.68 102.744 110.747 103.149 110.789 103.555C111.006 106.442 110.261 109.318 108.669 111.735C107.024 114.373 104.441 116.288 101.439 117.095C97.4281 117.966 93.3426 118.448 89.2391 118.535L89.1991 118.485Z" fill="#0F172A"/>
<path d="M60.38 29.4955C59 29.4955 57.61 29.4355 56.23 29.4455L54.72 29.5055C52.94 29.5055 51.16 29.5055 49.4 29.6755C48.6188 29.7315 47.841 29.8283 47.07 29.9655C46.58 30.0655 46.07 30.1455 45.62 30.2755C45.38 30.2755 45.14 30.3855 44.9 30.4255C44.66 30.4655 44.45 30.5555 44.21 30.6055C43.97 30.6555 43.83 30.4355 43.98 30.1055C44.0931 29.8708 44.2523 29.6613 44.4482 29.4895C44.6441 29.3177 44.8725 29.1871 45.12 29.1055C47.1376 28.4593 49.2414 28.1221 51.36 28.1055C52.62 28.1055 53.91 27.9055 55.19 27.8255C56.47 27.7455 57.99 27.7155 59.39 27.6755H61.98C63.29 27.6755 64.6 27.6755 65.9 27.6155C66.9 27.6155 67.9 27.4155 68.9 27.3655C69.12 27.3655 69.33 27.3655 69.55 27.3655C70.37 27.3655 70.6399 27.5255 70.8099 27.9555C70.8099 28.0455 70.9 28.1455 70.93 28.2355C70.9421 28.3168 70.9317 28.3998 70.9 28.4756C70.8682 28.5514 70.8164 28.6171 70.75 28.6655C70.5615 28.843 70.3251 28.9613 70.07 29.0055C69.1754 29.1972 68.2706 29.3374 67.36 29.4255C66.44 29.4955 65.51 29.5255 64.57 29.5455L60.39 29.5955L60.38 29.4955Z" fill="#0F172A"/>
<path d="M59.0793 49.8855C57.8593 49.7955 56.6393 49.6855 55.4193 49.6255C54.9793 49.6255 54.5293 49.6255 54.0893 49.6255C52.5193 49.5455 50.9493 49.4655 49.3793 49.4855C48.6844 49.4903 47.9902 49.5304 47.2993 49.6055C46.4193 49.6955 45.5493 49.8355 44.6593 49.8455C44.3793 49.8455 44.3693 49.5855 44.5593 49.2955C44.8236 48.921 45.2142 48.6547 45.6593 48.5455C47.4723 48.1351 49.3332 47.977 51.1893 48.0755C52.2993 48.1355 53.4393 48.0155 54.5693 48.0155C55.6993 48.0155 57.0593 48.0155 58.2893 48.0755L60.5793 48.1755C61.7293 48.1755 62.8893 48.2955 64.0393 48.2855C64.9193 48.2855 65.7993 48.1655 66.6793 48.1455H67.2493C67.9693 48.1455 68.1893 48.3155 68.3493 48.7555C68.3493 48.8455 68.4293 48.9455 68.4493 49.0355C68.4607 49.1148 68.452 49.1957 68.424 49.2709C68.3961 49.346 68.3498 49.4129 68.2893 49.4655C68.1233 49.6336 67.9109 49.7485 67.6793 49.7955C66.8817 49.968 66.0731 50.085 65.2593 50.1455C64.4393 50.1455 63.6093 50.1455 62.7793 50.1455L59.0793 50.0155V49.8855Z" fill="#0F172A"/>
<path d="M58.8096 38.7354C57.8096 38.7354 56.8096 38.6554 55.8796 38.6554C55.5296 38.6554 55.1696 38.6554 54.8196 38.6554C53.5596 38.6554 52.3096 38.6554 51.0596 38.6554C50.5043 38.6681 49.9501 38.7115 49.3996 38.7854C48.6996 38.9091 47.9904 38.9726 47.2796 38.9754C47.0596 38.9754 47.0396 38.7254 47.1896 38.4354C47.2735 38.263 47.3924 38.1098 47.5387 37.9859C47.6851 37.8619 47.8557 37.7698 48.0396 37.7154C49.4623 37.3233 50.9341 37.138 52.4096 37.1654C53.2996 37.1654 54.2096 37.0254 55.1096 36.9754C56.0096 36.9254 57.1096 36.8954 58.1096 36.8754H59.9296C60.8496 36.8754 61.7796 36.8754 62.6896 36.8754C63.3996 36.8754 64.0996 36.6754 64.7996 36.6254C64.9528 36.6151 65.1064 36.6151 65.2596 36.6254C65.8396 36.6254 66.0196 36.7754 66.1496 37.2054C66.1496 37.2954 66.2196 37.3954 66.2396 37.4854C66.2514 37.5615 66.2468 37.6393 66.2261 37.7134C66.2054 37.7876 66.1691 37.8565 66.1196 37.9154C66.0083 38.081 65.8417 38.2015 65.6496 38.2554C65.03 38.4563 64.3944 38.6035 63.7496 38.6954C63.0996 38.7654 62.4396 38.7954 61.7496 38.8154H58.8096V38.7354Z" fill="#F39F51"/>
<path d="M55.7492 58.5055L53.9292 58.3855C53.7092 58.3855 53.4892 58.3855 53.2692 58.3855C52.4792 58.3855 51.6992 58.2955 50.9192 58.2855C50.5861 58.2667 50.2523 58.2667 49.9192 58.2855C49.4875 58.3658 49.0479 58.396 48.6092 58.3755C48.4692 58.3755 48.4492 58.1455 48.5292 57.9055C48.5662 57.7757 48.6323 57.656 48.7224 57.5556C48.8125 57.4551 48.9242 57.3764 49.0492 57.3255C49.9349 57.0503 50.864 56.9418 51.7892 57.0055C52.347 57.0135 52.9047 56.9868 53.4592 56.9255C54.0792 56.9255 54.6892 56.9255 55.3092 56.9255H56.4392C57.0092 56.9255 57.5892 56.9255 58.1492 56.9255C58.7092 56.9255 59.0192 56.7455 59.4492 56.6955C59.5423 56.6859 59.6361 56.6859 59.7292 56.6955C60.0892 56.6455 60.2092 56.8055 60.3092 57.1655C60.3092 57.2555 60.3092 57.3255 60.3692 57.4055C60.3911 57.5402 60.37 57.6783 60.309 57.8004C60.248 57.9224 60.1501 58.0222 60.0292 58.0855C59.6541 58.2675 59.2577 58.4019 58.8492 58.4855C58.4452 58.5473 58.0378 58.5841 57.6292 58.5955C57.0092 58.5955 56.3992 58.5955 55.7892 58.5955L55.7492 58.5055Z" fill="#0F172A"/>
<path d="M91.2399 37.6055C90.9714 37.3684 90.6459 37.2051 90.2953 37.1314C89.9448 37.0578 89.5811 37.0764 89.2399 37.1855C88.9808 37.281 88.7379 37.4159 88.5199 37.5855C88.0927 37.8825 87.7675 38.3039 87.5886 38.7925C87.4096 39.281 87.3856 39.8128 87.5199 40.3155C87.6661 40.7708 87.9761 41.1557 88.3899 41.3955C88.9502 41.6565 89.5417 41.8447 90.1499 41.9555C90.3399 42.0155 90.3699 42.4555 90.1499 42.8855C90.0422 43.127 89.8564 43.3253 89.6225 43.4486C89.3886 43.5719 89.12 43.613 88.8599 43.5655C87.8353 43.3253 86.9389 42.7075 86.3499 41.8355C86.0706 41.3941 85.8856 40.8998 85.8065 40.3835C85.7273 39.8673 85.7557 39.3402 85.8899 38.8355C86.1594 37.661 86.8771 36.6383 87.8899 35.9855C88.4448 35.6543 89.073 35.4656 89.7185 35.4359C90.3641 35.4062 91.0069 35.5366 91.5899 35.8155C92.2703 36.1656 92.836 36.7035 93.2199 37.3655C93.7773 38.3495 93.9246 39.5136 93.6299 40.6055C93.4257 41.5019 92.8898 42.2879 92.1299 42.8055C91.9624 42.9209 91.7851 43.0213 91.5999 43.1055C90.8799 43.3655 90.5999 43.2255 90.4399 42.7855C90.4399 42.6855 90.3599 42.5855 90.3299 42.4855C90.3108 42.3191 90.3451 42.151 90.4278 42.0054C90.5105 41.8599 90.6373 41.7443 90.7899 41.6755C91.1998 41.4784 91.5421 41.1642 91.7735 40.7726C92.0049 40.381 92.115 39.9296 92.0899 39.4755C92.085 39.12 92.0049 38.7697 91.855 38.4474C91.705 38.1251 91.4886 37.8382 91.2199 37.6055H91.2399Z" fill="#0F172A"/>
<path d="M92.3896 32.1954C91.2338 31.7545 89.9848 31.6149 88.7602 31.7899C87.5356 31.9648 86.3757 32.4485 85.3896 33.1954C84.6655 33.7602 84.0345 34.4351 83.5196 35.1954C82.5869 36.5498 82.0787 38.1511 82.0596 39.7954C82.0596 40.0054 82.0596 40.2054 82.0596 40.4154L82.1396 41.0254C82.3197 42.2566 82.8006 43.4244 83.5396 44.4254C84.467 45.6028 85.7455 46.454 87.1896 46.8554C89.0505 47.3268 90.9961 47.3542 92.8696 46.9354C93.4496 46.8354 93.5996 47.3654 93.2196 48.0354C92.925 48.507 92.5174 48.8976 92.0337 49.1717C91.55 49.4459 91.0055 49.595 90.4496 49.6054C87.9844 49.7057 85.5595 48.9574 83.5796 47.4854C82.5773 46.7111 81.755 45.7285 81.1696 44.6054C80.8763 44.0607 80.6481 43.4834 80.4896 42.8854L80.2496 42.0154C80.2496 41.7154 80.1796 41.4054 80.1396 41.1054C79.9802 39.6582 80.1131 38.1937 80.5305 36.7988C80.948 35.4039 81.6414 34.1072 82.5696 32.9854C83.3938 32.0062 84.4071 31.2033 85.5487 30.6246C86.6904 30.0459 87.937 29.7034 89.214 29.6175C90.4911 29.5316 91.7723 29.7042 92.9812 30.1248C94.19 30.5453 95.3016 31.2054 96.2496 32.0654C97.3188 33.0288 98.184 34.1969 98.7937 35.5007C99.4035 36.8044 99.7455 38.2172 99.7996 39.6554C99.9103 41.9226 99.1602 44.1479 97.6996 45.8854C97.3795 46.2705 97.0246 46.6253 96.6396 46.9454C95.1296 48.0854 94.4296 48.0754 93.8996 47.7154C93.7699 47.6352 93.6493 47.5413 93.5396 47.4354C93.2396 47.0554 93.7696 46.5454 94.6396 45.8954C95.9467 44.9512 96.9112 43.6074 97.3875 42.0668C97.8637 40.5263 97.8258 38.8726 97.2796 37.3554C96.8904 36.1887 96.2486 35.1222 95.3998 34.232C94.5511 33.3418 93.5164 32.6498 92.3696 32.2054L92.3896 32.1954Z" fill="#0F172A"/>
<path d="M88.2193 52.8555C88.3648 52.7939 88.5213 52.7621 88.6793 52.7621C88.8373 52.7621 88.9938 52.7939 89.1393 52.8555C89.3383 52.9978 89.5109 53.1738 89.6493 53.3755C89.8129 53.6856 89.9116 54.0259 89.9393 54.3755L90.1393 56.0855C90.2193 56.8855 90.3093 57.6955 90.4493 58.4255C90.4698 58.593 90.528 58.7536 90.6193 58.8955C90.6193 58.9455 90.7293 59.0255 90.7793 58.9755C90.874 58.8662 90.9485 58.7409 90.9993 58.6055C90.9993 58.5455 91.2293 57.8755 91.3593 57.4055C91.6293 56.4055 91.8693 55.3455 92.0793 54.2955C92.2893 53.2455 92.4793 52.2155 92.6393 51.1755C92.7841 49.8182 93.0621 48.4784 93.4693 47.1755C93.6293 46.7555 93.8893 46.9055 94.1093 47.3155C94.4018 47.8931 94.5298 48.54 94.4793 49.1855C94.1879 51.9607 93.6661 54.7068 92.9193 57.3955C92.7393 58.0455 92.5593 58.6855 92.3693 59.3355C92.2993 59.5655 92.2093 59.7955 92.1293 60.0255C92.0488 60.2329 91.9518 60.4335 91.8393 60.6255C91.6574 60.9388 91.4202 61.2167 91.1393 61.4455C90.992 61.4854 90.8366 61.4854 90.6893 61.4455C90.5411 61.4167 90.399 61.3626 90.2693 61.2855C90.0086 61.1159 89.7926 60.8861 89.6393 60.6155C89.4572 60.3026 89.3193 59.9661 89.2293 59.6155C89.2293 59.4255 89.1293 59.2455 89.0893 59.0555L88.9993 58.6055C88.9193 58.1155 88.8593 57.6055 88.8093 57.1755L88.6593 55.7655C88.6455 55.5375 88.6187 55.3105 88.5793 55.0855C88.5697 55.0085 88.546 54.9339 88.5093 54.8655C88.4193 54.7455 88.2993 54.8655 88.2293 54.9255C88.1388 55.0013 88.0551 55.0849 87.9793 55.1755L87.8593 55.3055L87.6893 55.5055L87.2393 56.0955L85.9993 57.7055C85.5562 58.339 84.9962 58.8821 84.3493 59.3055C84.151 59.4447 83.911 59.5117 83.6693 59.4955C83.3493 59.4055 83.3093 59.1355 83.2393 58.9355C83.0713 58.1342 83.0713 57.3068 83.2393 56.5055L83.3993 55.3055L83.5193 54.3055L83.5993 53.4555C83.7193 52.4555 83.8193 52.1655 84.2193 51.9055C84.2993 51.8455 84.3793 51.7655 84.4593 51.7155C84.6893 51.5155 85.1593 52.0355 85.1993 52.9255C85.2496 53.5311 85.2496 54.1399 85.1993 54.7455L85.0993 55.6355L85.0493 56.0755V56.1755C85.0493 56.2255 85.1193 56.1755 85.1193 56.1755L85.2093 56.0655L85.6393 55.5155L86.5393 54.3955L86.9393 53.9155C87.0793 53.7355 87.2293 53.5855 87.3793 53.4155C87.6395 53.1396 87.9523 52.9185 88.2993 52.7655L88.2193 52.8555Z" fill="#0F172A"/>
<path d="M79.16 98.3154L70.67 99.1454L67.57 99.4854C63.93 99.8254 60.27 100.095 56.57 100.285L51.7 100.495C50.7 100.495 49.62 100.575 48.58 100.575C47.54 100.575 46.5 100.455 45.47 100.375C44.83 100.315 44.91 100.245 45.47 100.115C46.03 99.9854 47.02 99.7354 48.2 99.5654C52.4 99.3454 56.58 98.9454 60.82 98.7754C63.36 98.6454 65.99 98.2954 68.57 98.0154L77.12 97.0854C78.88 96.9054 80.61 96.7254 82.34 96.4354L90.23 95.1054C92.23 94.7554 94.23 94.3654 96.31 94.1054L97.66 93.9554C99.36 93.8254 99.91 93.9554 100.27 94.3654C100.358 94.4512 100.439 94.5449 100.51 94.6454C100.67 94.9654 99.99 95.2454 98.79 95.3754C95.23 95.7854 91.49 96.3754 87.7 97.0454C84.89 97.5154 82.04 98.0454 79.14 98.3354L79.16 98.3154Z" fill="#0F172A"/>
<path d="M30.9997 46.0354C30.9997 41.6454 30.8397 37.2554 30.4697 32.8954C30.3297 31.3054 30.0997 29.7254 29.8997 28.1454C29.5793 25.3806 29.041 22.6454 28.2897 19.9654C27.9415 18.6897 27.3984 17.4754 26.6797 16.3654C26.3987 15.9324 25.9845 15.6025 25.4997 15.4254C25.0086 15.3778 24.518 15.521 24.1297 15.8254C23.2778 16.553 22.6674 17.5226 22.3797 18.6054C22.0263 19.7679 21.7754 20.9591 21.6297 22.1654C21.5797 22.5554 21.5297 22.9454 21.4897 23.3354V23.8654V23.9854C21.4897 23.9854 21.5597 23.9854 21.5997 23.9854H22.6497C24.3027 23.998 25.9493 24.1925 27.5597 24.5654C28.6297 24.8954 28.2497 25.3654 27.3497 25.7054C26.0002 26.2005 24.5656 26.4215 23.1297 26.3554L21.7697 26.3054C21.3597 26.3054 20.9397 26.3054 20.5497 26.2254C20.3654 26.2078 20.1841 26.1675 20.0097 26.1054L19.8397 25.9554L19.7297 25.7554L19.5997 25.6054V25.5554C19.2497 25.8454 19.4997 25.6354 19.4197 25.6954V25.5754L19.3297 25.0854C19.2412 24.759 19.1908 24.4234 19.1797 24.0854L19.2997 22.9854L19.3897 22.3554C19.5959 20.6074 20.0157 18.8913 20.6397 17.2454C20.993 16.313 21.5226 15.4574 22.1997 14.7254C22.5943 14.3101 23.0621 13.9711 23.5797 13.7254C23.8464 13.5915 24.1285 13.4908 24.4197 13.4254C24.899 13.3016 25.4003 13.2885 25.8855 13.3873C26.3706 13.4861 26.8269 13.694 27.2197 13.9954C27.65 14.3227 28.0277 14.7139 28.3397 15.1554C28.8376 15.9204 29.2406 16.7431 29.5397 17.6054C30.2311 19.563 30.7792 21.5683 31.1797 23.6054C31.5997 25.6054 31.9297 27.6654 32.1797 29.6954C32.6897 34.1554 32.9297 38.6254 33.0297 43.0954C33.0897 45.8454 33.0297 48.6054 33.0297 51.3454C32.9597 55.5154 32.7197 59.6854 32.4197 63.8154C32.1797 67.0154 31.9697 70.1654 31.5097 73.3454C31.4097 74.0354 31.3197 74.7254 31.1797 75.4254C30.6597 78.0254 30.1797 78.8154 29.5197 79.1854C29.368 79.2784 29.2072 79.3554 29.0397 79.4154C28.5297 79.5054 28.5497 78.4154 28.8697 76.5854C29.7506 70.86 30.3281 65.0919 30.5997 59.3054C30.8297 54.9054 30.9497 50.4654 30.8997 46.0454L30.9997 46.0354Z" fill="#0F172A"/>
<path d="M24.1397 114.276C24.5775 114.723 25.105 115.073 25.6875 115.302C26.27 115.531 26.8944 115.635 27.5197 115.606C27.7567 115.607 27.9927 115.574 28.2197 115.506C28.4542 115.455 28.6848 115.389 28.9097 115.306C30.6502 114.691 32.1401 113.521 33.1497 111.976C33.6534 111.266 34.1046 110.521 34.4997 109.746C34.9779 108.705 35.5681 107.719 36.2597 106.806C36.4897 106.526 36.7197 106.726 36.8397 107.136C36.9982 107.684 36.9772 108.269 36.7797 108.806C36.3316 109.89 35.8035 110.939 35.1997 111.946C34.5818 113.022 33.8141 114.005 32.9197 114.866C31.8223 116.043 30.4207 116.895 28.8697 117.326C27.461 117.691 25.9695 117.56 24.6457 116.955C23.3219 116.351 22.2464 115.309 21.5997 114.006C20.9201 112.578 20.6733 110.982 20.8897 109.416C20.9784 108.259 21.193 107.116 21.5297 106.006C21.5997 105.766 21.6697 105.536 21.7497 105.296C22.0997 104.436 22.3597 104.216 22.6497 104.106L22.8397 104.036C23.0397 104.036 23.0697 104.426 23.0197 105.116C22.6386 107.02 22.4975 108.966 22.5997 110.906C22.6857 111.541 22.8538 112.163 23.0997 112.756C23.3644 113.312 23.7268 113.817 24.1697 114.246L24.1397 114.276Z" fill="#0F172A"/>
<path d="M61.3998 119.285C59.8998 119.285 58.3998 119.395 56.8998 119.495L55.2698 119.635C53.3398 119.765 51.3998 119.855 49.4798 120.025C48.6198 120.095 47.7698 120.225 46.9298 120.355C46.3898 120.445 45.8598 120.575 45.3098 120.635C44.7598 120.695 44.2198 120.715 43.6698 120.715C43.3198 120.715 43.3198 120.445 43.5598 120.115C43.8875 119.655 44.3481 119.306 44.8798 119.115C47.092 118.655 49.341 118.394 51.5998 118.335C52.9598 118.335 54.3498 118.065 55.7298 117.955C57.1098 117.845 58.7298 117.735 60.2898 117.645L63.0998 117.605L67.3498 117.435C68.4498 117.435 69.5298 117.215 70.6298 117.205C70.8698 117.205 71.1198 117.205 71.3598 117.205C71.5998 117.205 71.7798 117.205 71.9398 117.275C72.0782 117.315 72.2097 117.376 72.3298 117.455C72.5034 117.551 72.6352 117.708 72.6998 117.895C72.7367 117.969 72.7668 118.046 72.7898 118.125C72.7898 118.345 72.4298 118.525 71.7898 118.665C69.8396 118.957 67.8716 119.115 65.8998 119.135L61.3798 119.345L61.3998 119.285Z" fill="#0F172A"/>
<path d="M25.2196 76.1855C25.9596 72.1855 26.5796 68.0955 26.9896 64.0155C27.1296 62.5155 27.2596 61.0155 27.3696 59.5355C27.8396 54.2755 28.0996 48.9855 28.1296 43.6955C28.1296 41.3455 28.0496 38.9855 27.9296 36.6955C27.7596 33.6955 27.5596 30.6955 27.4796 27.6955C27.4796 26.7655 27.7996 26.8555 28.2196 27.6155C28.83 28.8396 29.2129 30.1645 29.3496 31.5255C29.5196 33.0655 29.6496 34.5955 29.7696 36.1355C29.8896 37.6755 29.8896 39.2255 29.9296 40.7655C29.9696 42.3055 29.9296 43.8555 29.9296 45.4055C29.9296 46.9555 29.8096 48.5055 29.7596 50.0655C29.6196 51.9155 29.5696 53.8155 29.4796 55.7155C29.3896 57.6155 29.2896 59.5355 29.0896 61.4255C28.6696 65.5855 28.1396 69.7455 27.3896 73.8555L26.6996 77.6055L25.8496 81.3655C25.4696 83.2755 24.9196 85.1455 24.4096 87.0255C24.1396 87.9655 23.9296 88.9155 23.6196 89.8355C23.3096 90.7555 22.9996 91.7055 22.7296 92.6055C22.2896 94.0455 21.8696 95.4655 21.3296 96.8555C20.7896 98.2455 20.3296 99.6455 19.7996 101.035L18.9996 102.835C17.8996 105.025 17.4596 105.685 16.9996 106.035C16.9004 106.121 16.7969 106.201 16.6896 106.275C16.4296 106.395 16.6896 105.415 17.2796 103.745C19.1696 98.8255 20.9496 93.6055 22.4496 88.2655C22.9396 86.2655 23.5096 84.2655 23.9496 82.2655C24.3896 80.2655 24.8596 78.2655 25.1896 76.1855H25.2196Z" fill="#0F172A"/>
</svg>
