<svg width="18" height="18" viewBox="0 0 18 18" fill="none" xmlns="http://www.w3.org/2000/svg">
<path d="M10.125 1.5C10.125 1.5 11.8751 1.6591 14.1025 3.88649C16.3299 6.11387 16.489 7.86396 16.489 7.86396" stroke="white" stroke-width="1.5" stroke-linecap="round"/>
<path d="M10.6553 4.15186C10.6553 4.15186 11.3977 4.36399 12.5114 5.47768C13.6251 6.59137 13.8373 7.33384 13.8373 7.33384" stroke="white" stroke-width="1.5" stroke-linecap="round"/>
<path d="M11.3255 11.2704L10.7817 10.7539L10.7817 10.7539L11.3255 11.2704ZM11.6671 10.9108L12.2109 11.4273L12.2109 11.4273L11.6671 10.9108ZM13.4796 10.6592L13.1055 11.3093L13.1055 11.3093L13.4796 10.6592ZM14.9125 11.484L14.5384 12.134L14.9125 11.484ZM15.3163 14.0688L15.86 14.5853L15.86 14.5853L15.3163 14.0688ZM14.2508 15.1905L13.707 14.674L13.707 14.674L14.2508 15.1905ZM13.2572 15.7223L13.3309 16.4687L13.3309 16.4687L13.2572 15.7223ZM5.86152 12.3564L6.40531 11.8399L5.86152 12.3564ZM2.25217 5.22445L1.50324 5.26465L1.50324 5.26465L2.25217 5.22445ZM7.10814 6.37733L7.65193 6.89385L7.65193 6.89385L7.10814 6.37733ZM7.22568 4.26983L7.83807 3.83684L7.83807 3.83684L7.22568 4.26983ZM6.27994 2.93221L5.66755 3.36519L5.66755 3.36519L6.27994 2.93221ZM3.94609 2.70648L4.48988 3.223L4.48988 3.223L3.94609 2.70648ZM2.76889 3.94585L2.22509 3.42934L2.22509 3.42934L2.76889 3.94585ZM8.29734 9.79193L8.84114 9.27541L8.29734 9.79193ZM11.8693 11.7869L12.2109 11.4273L11.1233 10.3943L10.7817 10.7539L11.8693 11.7869ZM13.1055 11.3093L14.5384 12.134L15.2866 10.834L13.8538 10.0092L13.1055 11.3093ZM14.7725 13.5523L13.707 14.674L14.7946 15.707L15.86 14.5853L14.7725 13.5523ZM13.1835 14.9759C12.1559 15.0774 9.4078 15.0009 6.40531 11.8399L5.31773 12.8729C8.68541 16.4184 11.9144 16.6085 13.3309 16.4687L13.1835 14.9759ZM6.40531 11.8399C3.53035 8.81308 3.05959 6.27419 3.00109 5.18425L1.50324 5.26465C1.57996 6.69399 2.18572 9.57549 5.31773 12.8729L6.40531 11.8399ZM7.43682 7.12032L7.65193 6.89385L6.56435 5.86082L6.34923 6.08729L7.43682 7.12032ZM7.83807 3.83684L6.89233 2.49923L5.66755 3.36519L6.61329 4.70281L7.83807 3.83684ZM3.40229 2.18997L2.22509 3.42934L3.31268 4.46237L4.48988 3.223L3.40229 2.18997ZM6.89303 6.60381C6.34923 6.08729 6.34854 6.08802 6.34785 6.08875C6.34761 6.089 6.34692 6.08974 6.34645 6.09024C6.3455 6.09125 6.34455 6.09227 6.34358 6.09331C6.34164 6.09539 6.33966 6.09755 6.33762 6.09979C6.33355 6.10426 6.32929 6.10904 6.32486 6.11414C6.31599 6.12434 6.30643 6.13579 6.29634 6.14854C6.27616 6.17404 6.25384 6.20474 6.23073 6.24085C6.18437 6.3133 6.13533 6.4068 6.09419 6.52239C6.01032 6.75809 5.96782 7.06177 6.02201 7.43161C6.12804 8.15526 6.59557 9.08931 7.75355 10.3084L8.84114 9.27541C7.78286 8.16124 7.54823 7.50123 7.50617 7.21415C7.49595 7.14443 7.49696 7.09658 7.49966 7.06795C7.50236 7.03942 7.50712 7.02603 7.50739 7.02527C7.50775 7.02426 7.50482 7.03275 7.4942 7.04933C7.48897 7.05752 7.48193 7.06757 7.47256 7.07941C7.46787 7.08533 7.4626 7.0917 7.45667 7.09852C7.45371 7.10193 7.45058 7.10545 7.44727 7.10908C7.44562 7.1109 7.44393 7.11274 7.44218 7.11462C7.44131 7.11555 7.44043 7.1165 7.43954 7.11745C7.43909 7.11792 7.43841 7.11864 7.43819 7.11888C7.43751 7.1196 7.43682 7.12032 6.89303 6.60381ZM7.75355 10.3084C8.90703 11.5228 9.8048 12.0299 10.5223 12.1465C10.8926 12.2066 11.2001 12.1595 11.4392 12.0652C11.5557 12.0193 11.6489 11.9649 11.7202 11.9143C11.7558 11.8891 11.7858 11.8649 11.8105 11.8432C11.8228 11.8324 11.8339 11.8222 11.8437 11.8127C11.8486 11.808 11.8531 11.8035 11.8574 11.7992C11.8596 11.797 11.8616 11.7949 11.8636 11.7929C11.8646 11.7919 11.8656 11.7909 11.8665 11.7899C11.867 11.7894 11.8677 11.7886 11.8679 11.7884C11.8686 11.7876 11.8693 11.7869 11.3255 11.2704C10.7817 10.7539 10.7824 10.7532 10.7831 10.7524C10.7833 10.7522 10.784 10.7515 10.7845 10.751C10.7854 10.7501 10.7863 10.7492 10.7872 10.7482C10.789 10.7464 10.7907 10.7446 10.7925 10.7428C10.7959 10.7393 10.7993 10.736 10.8026 10.7328C10.8092 10.7265 10.8154 10.7208 10.8213 10.7156C10.833 10.7053 10.8434 10.6972 10.8524 10.6908C10.8706 10.6779 10.8831 10.6721 10.8889 10.6698C10.9064 10.6629 10.8725 10.6837 10.7628 10.6658C10.5202 10.6265 9.90391 10.3943 8.84114 9.27541L7.75355 10.3084ZM6.89234 2.49923C6.06949 1.33543 4.40985 1.1292 3.40229 2.18997L4.48988 3.223C4.79409 2.90272 5.34594 2.91032 5.66755 3.36519L6.89234 2.49923ZM3.00109 5.18426C2.98846 4.94907 3.0897 4.69713 3.31268 4.46237L2.22509 3.42934C1.79765 3.87936 1.46301 4.5151 1.50324 5.26465L3.00109 5.18426ZM13.707 14.674C13.5183 14.8727 13.3384 14.9607 13.1835 14.9759L13.3309 16.4687C13.9491 16.4077 14.4416 16.0787 14.7946 15.707L13.707 14.674ZM7.65193 6.89385C8.44287 6.06114 8.4947 4.76554 7.83807 3.83684L6.61329 4.70281C6.88132 5.08191 6.83324 5.57772 6.56435 5.86082L7.65193 6.89385ZM14.5384 12.134C15.0525 12.4299 15.1455 13.1595 14.7725 13.5523L15.86 14.5853C16.9253 13.4638 16.6128 11.5973 15.2866 10.834L14.5384 12.134ZM12.2109 11.4273C12.439 11.1872 12.7942 11.1301 13.1055 11.3093L13.8538 10.0092C12.9567 9.49288 11.8397 9.64006 11.1233 10.3943L12.2109 11.4273Z" fill="white"/>
</svg>
