<svg width="176" height="156" viewBox="0 0 176 156" fill="none" xmlns="http://www.w3.org/2000/svg">
<path d="M175.679 111.997C171.978 146.209 163.978 156 99.6437 156C35.3089 156 9 127.48 9 102.97C9 78.4602 46.424 76.0937 79.4174 71.7542C138.765 63.9483 180.078 71.348 175.679 111.997Z" fill="#DDE9D2"/>
<path d="M128.054 65.6175C126.282 57.4824 122.768 49.8277 117.755 43.1803C112.805 36.5059 106.26 31.1799 98.7184 27.69C95.9791 26.4365 93.1211 25.4607 90.1872 24.7772C87.2419 24.0656 84.2408 23.6089 81.2172 23.4122C70.4385 22.7364 59.6908 25.1507 50.2366 30.3712C40.6322 35.4163 32.7424 43.2001 27.5678 52.7353C23.3119 61.3734 21.1928 70.9073 21.3888 80.535C21.5255 86.6486 22.6702 92.6977 24.7769 98.4384C26.87 104.145 29.9517 109.438 33.8809 114.075C36.3184 116.927 35.4531 117.232 32.5769 115.355C31.7006 114.807 30.8837 114.17 30.1394 113.453L28.7744 112.125L28.0431 111.382L27.3606 110.553C26.3254 109.341 25.3881 108.049 24.5575 106.689C24.1188 105.958 23.68 105.202 23.2291 104.41C22.7781 103.618 22.4613 102.765 22.0834 101.9C20.7948 98.8304 19.7793 95.6534 19.0488 92.4056C18.7441 90.7725 18.4028 89.1394 18.2078 87.5306C18.0128 85.9219 17.7813 84.24 17.7813 82.5825C17.5043 75.9609 18.2399 69.3358 19.9628 62.9362C20.8554 59.7546 21.9797 56.6425 23.3266 53.625C24.697 50.5776 26.3884 47.685 28.3722 44.9962C32.299 39.6157 37.1324 34.9596 42.6559 31.2366C49.284 26.6802 56.6901 23.3758 64.5081 21.4866C72.4371 19.5995 80.6789 19.4374 88.6759 21.0112C97.4573 22.7396 105.634 26.7353 112.393 32.6016C119.108 38.4364 124.384 45.744 127.81 53.9541C129.943 58.9546 131.417 64.2106 132.198 69.5906C134.148 83.2375 131.278 97.1375 124.081 108.895C119.818 115.93 114.075 121.952 107.25 126.543C96.6953 133.672 83.9106 136.524 71.4306 135.976C70.0413 135.903 68.6884 135.793 67.3113 135.696C65.9341 135.598 64.5934 135.391 63.2163 135.159C59.6075 134.618 56.063 133.712 52.6375 132.454C51.7291 132.099 50.842 131.692 49.9806 131.235C49.3983 130.888 48.8549 130.479 48.3597 130.016C47.951 129.688 47.5718 129.325 47.2263 128.932C46.8972 128.444 47.7625 128.42 49.5419 128.81L57.6222 130.735C68.1156 133.027 79.4013 133.502 90.0653 130.626C100.861 127.815 110.437 121.543 117.329 112.771C122.466 106.201 126.098 98.5832 127.968 90.4556C129.827 82.2929 129.827 73.8168 127.968 65.6541L128.054 65.6175Z" fill="#221F1F"/>
<path d="M50.2369 115.55C45.6909 120.108 41.1084 124.654 36.3431 129.041C34.6003 130.65 32.8941 132.283 31.0659 133.807C27.8688 136.616 24.3747 139.068 20.6456 141.119C18.6585 142.242 16.42 142.846 14.1375 142.874C12.9004 142.871 11.6858 142.544 10.6153 141.923C10.0555 141.577 9.57012 141.123 9.18726 140.587C8.8044 140.052 8.53171 139.445 8.38501 138.803C8.02275 136.808 8.14819 134.755 8.75063 132.819C9.25775 130.995 9.90983 129.214 10.7006 127.493C12.5922 123.062 15.2675 119.007 18.5981 115.525C19.7438 114.489 20.0728 115.221 19.8169 116.586C19.3186 118.604 18.4599 120.516 17.2819 122.228C16.0109 124.147 14.8591 126.141 13.8328 128.2C12.796 130.186 11.9787 132.278 11.3953 134.44C10.8956 136.5 10.9322 138.633 11.895 139.315C12.5688 139.811 13.3865 140.072 14.2228 140.059C15.233 140.103 16.2423 139.954 17.1966 139.62C19.8107 138.64 22.2538 137.254 24.4359 135.513C26.7638 133.794 28.9941 131.857 31.1878 129.943C35.9897 125.69 40.6088 121.156 45.1913 116.537L53.6006 108.006C57.8419 103.691 62.1319 99.4013 66.495 95.2331C69.7843 91.9133 73.2897 88.815 76.9884 85.9585C77.8351 85.3299 78.7182 84.752 79.6331 84.2278C83.1797 82.2778 85.1906 82.6678 85.8731 83.5819C86.047 83.7743 86.1834 83.9975 86.2753 84.24C86.2753 84.5813 85.9706 84.7275 85.4222 84.8738C84.5621 85.0951 83.7222 85.3886 82.9116 85.7513C81.1717 86.5999 79.5359 87.6468 78.0366 88.8713C76.4156 90.09 74.8434 91.455 73.2713 92.8688C70.1147 95.6963 67.0313 98.7188 63.9478 101.753C59.3897 106.299 54.8438 110.906 50.2978 115.598L50.2369 115.55Z" fill="#221F1F"/>
<path d="M80.9863 71.5041L81.5104 72.1257L81.937 72.5766L82.522 73.1616C82.5385 73.5693 82.514 73.9776 82.4489 74.3803C82.3757 74.5753 82.2904 74.7825 82.2051 74.9775L81.8395 75.526C81.4908 75.9584 81.1121 76.3657 80.706 76.7447C80.5993 76.828 80.5013 76.9219 80.4135 77.025C80.3404 77.025 80.4135 77.1591 80.4135 77.1835C80.4813 77.2301 80.5632 77.2517 80.6451 77.2444C80.823 77.2688 81.0034 77.2688 81.1814 77.2444C81.3741 77.2373 81.5658 77.2128 81.7542 77.1713C82.5924 77.0114 83.41 76.7579 84.1917 76.4157C85.8121 75.6795 87.3692 74.8112 88.8473 73.8197C90.6876 72.601 92.5035 71.2238 94.1732 69.8344C97.2445 67.3969 100.182 64.7522 103.021 62.01C105.882 59.3195 108.519 56.4012 110.907 53.2838C111.421 52.7278 111.75 52.0259 111.848 51.2749C111.947 50.5238 111.809 49.7608 111.455 49.0913C110.882 47.8725 109.018 48.421 107.592 49.0913C105.642 50.0953 103.8 51.2959 102.095 52.6744C100.34 54.0272 98.6339 55.4532 96.9276 56.8791C94.8314 58.7072 95.977 54.795 100.133 51.48C101.972 49.9829 103.947 48.6608 106.032 47.5313C107.204 46.8818 108.491 46.4678 109.822 46.3125C110.7 46.2669 111.566 46.5395 112.259 47.0803C112.887 47.6287 113.341 48.349 113.564 49.1522C113.755 49.869 113.801 50.6169 113.699 51.3517C113.596 52.0865 113.347 52.7932 112.966 53.43C112.37 54.4959 111.68 55.5073 110.907 56.4525C109.322 58.2441 107.701 59.9138 106.032 61.5469C102.019 65.5774 97.7698 69.3662 93.3079 72.8935C91.2691 74.4754 89.1139 75.9013 86.8607 77.1591C85.7004 77.8097 84.4749 78.3367 83.2045 78.7313C82.5389 78.9382 81.852 79.069 81.157 79.1213C80.9709 79.1455 80.7824 79.1455 80.5963 79.1213C80.363 79.1186 80.1304 79.0941 79.9017 79.0482C79.4496 78.9149 79.0126 78.7352 78.5976 78.5119C78.2668 78.3053 78.0305 77.977 77.9395 77.5978C77.9183 77.2088 78.0348 76.8248 78.2685 76.5132C78.5124 76.1658 78.7945 75.8469 79.1095 75.5625L79.7554 74.941C79.9993 74.7615 80.2276 74.5617 80.4379 74.3438C80.5232 74.2097 80.6451 74.0025 80.5232 73.8685L80.2185 73.5394L79.6823 72.9179C79.3261 72.4903 79.0003 72.0382 78.7073 71.565C78.3686 71.0463 78.1212 70.4733 77.976 69.871C77.8815 69.5017 77.8894 69.1137 77.9989 68.7487C78.1085 68.3836 78.3154 68.0553 78.5976 67.7991C78.9262 67.6761 79.2712 67.6022 79.6214 67.5797C79.9134 67.5559 80.2068 67.5559 80.4989 67.5797C81.0151 67.6112 81.5284 67.6804 82.0345 67.7869C82.4123 67.8722 82.7779 67.9697 83.1557 68.0794L83.6432 68.2257L83.9235 68.3353C84.021 68.4085 84.0698 68.25 84.1429 68.2135L84.3989 67.9697L85.1789 67.1897L87.7017 64.7522L86.4829 64.155L84.5817 63.1435C83.3257 62.454 82.1054 61.7015 80.9254 60.8888C80.176 60.3677 79.4818 59.7715 78.8535 59.1094C78.4809 58.77 78.1858 58.3543 77.9882 57.8907C77.8834 57.614 77.8575 57.3136 77.9135 57.0231C77.9694 56.7326 78.105 56.4633 78.3051 56.2453C78.8628 55.6668 79.5398 55.2166 80.2891 54.9261C81.0384 54.6357 81.8419 54.5119 82.6438 54.5635C84.0633 54.5789 85.4802 54.6888 86.8851 54.8925C87.8601 55.0144 88.8107 55.1363 89.7857 55.2825C93.442 55.831 94.4901 56.1113 95.1848 56.745C95.3497 56.8753 95.5046 57.0179 95.6479 57.1716C95.9404 57.6225 94.4292 57.7444 91.7601 57.4519C89.5664 57.2082 87.3482 56.8913 85.1667 56.6597C84.1151 56.5377 83.055 56.5051 81.9979 56.5622C81.5556 56.5899 81.12 56.6844 80.706 56.8425C80.5293 56.9166 80.3617 57.0106 80.2063 57.1228L79.9748 57.2935L79.8773 57.4032L80.0114 57.5738C80.1233 57.7127 80.2455 57.8431 80.377 57.9638C80.9982 58.5354 81.6668 59.0532 82.3757 59.5116C83.9016 60.4734 85.4758 61.3561 87.0923 62.1563L88.7254 62.9728L90.9557 64.021L85.3129 69.7003L84.801 70.2122C84.6182 70.3707 84.472 70.6388 84.2282 70.456L82.8754 69.9928C82.4752 69.8585 82.0685 69.7446 81.6567 69.6516C81.2559 69.5586 80.8484 69.4975 80.4379 69.4688H79.9626C79.9626 69.4688 79.9626 69.6638 80.0845 69.7857C80.3693 70.3651 80.7211 70.9091 81.1326 71.4066L80.9863 71.5041Z" fill="#221F1F"/>
<path d="M102.741 76.1841C102.95 75.4395 103.085 74.6761 103.143 73.905C103.229 73.0885 103.265 72.2475 103.29 71.4675C103.29 70.8581 103.29 70.2488 103.29 69.6272C103.29 68.5669 103.29 67.3969 103.192 66.4463C103.209 66.215 103.209 65.9829 103.192 65.7516C103.18 65.6156 103.155 65.4811 103.119 65.3494C103.119 65.3494 103.046 65.2031 102.985 65.2153C102.942 65.25 102.905 65.2911 102.875 65.3372C102.753 65.4957 102.632 65.7028 102.497 65.8978C102.433 66.013 102.36 66.1231 102.278 66.2269C102.117 66.4413 101.942 66.6449 101.754 66.8363C101.518 67.0971 101.257 67.3339 100.974 67.5431C100.728 67.7476 100.472 67.9388 100.206 68.116C99.6832 68.4955 99.1139 68.8068 98.5121 69.0422C98.3415 69.0422 98.1221 69.0422 98.1587 68.835C98.111 68.8101 98.0724 68.7708 98.0483 68.7226C98.0242 68.6745 98.016 68.62 98.0246 68.5669C98.0068 68.4375 98.0068 68.3063 98.0246 68.1769C98.0494 67.8625 98.1418 67.5571 98.2953 67.2816C98.4488 67.006 98.66 66.7669 98.9143 66.5803C99.3865 66.2713 99.8421 65.9377 100.279 65.581C100.472 65.4118 100.648 65.224 100.803 65.0203C101.157 64.5938 101.522 63.9844 101.864 63.4725C102.003 63.2156 102.175 62.978 102.376 62.7656C102.517 62.685 102.669 62.6235 102.827 62.5828C103.095 62.5828 103.29 62.3025 103.692 62.5828C103.853 62.6481 103.999 62.7471 104.118 62.8732C104.238 62.9994 104.33 63.1497 104.387 63.3141C104.566 63.8055 104.685 64.3171 104.74 64.8375C104.923 66.4097 104.911 66.9094 104.984 67.7747C105.057 68.64 105.093 69.3713 105.093 70.2122C105.111 72.002 104.993 73.7906 104.74 75.5625C104.659 76.1607 104.49 76.7438 104.24 77.2931C104.103 77.6556 103.857 77.9669 103.537 78.1849C103.216 78.4029 102.836 78.5171 102.449 78.5119C101.916 78.4267 101.423 78.1799 101.035 77.805C100.71 77.5075 100.412 77.1812 100.145 76.83C99.6514 76.1539 99.2036 75.4455 98.8046 74.7094C98.1591 73.6086 97.6086 72.4547 97.1593 71.2603C97.0539 70.9866 96.9684 70.7055 96.9034 70.4194C96.6475 69.3347 96.9765 68.6278 97.5737 68.6156C97.6973 68.609 97.8202 68.6386 97.9271 68.701C98.1709 69.0544 98.3903 69.0422 98.5121 69.5906C99.136 71.5437 100.026 73.4014 101.157 75.1116C101.361 75.4186 101.585 75.7118 101.827 75.9891C102.005 76.1858 102.201 76.3653 102.412 76.5253C102.412 76.5253 102.522 76.4156 102.607 76.1475L102.741 76.1841Z" fill="#221F1F"/>
<path d="M83.9963 76.0013C83.7431 76.3138 83.443 76.5852 83.1066 76.8057C82.8794 76.946 82.6331 77.0528 82.3753 77.1225C81.8731 77.2443 81.3548 77.2854 80.8397 77.2444C80.4985 77.2444 80.0231 76.7447 80.2303 76.3913L81.2785 74.7338L81.3638 74.6241V74.5266C81.4219 74.4405 81.4748 74.3509 81.5222 74.2585C81.5578 74.2065 81.5798 74.1465 81.5862 74.0838C81.5927 74.0212 81.5834 73.9579 81.5591 73.8998C81.5349 73.8417 81.4966 73.7905 81.4475 73.751C81.3985 73.7115 81.3404 73.6848 81.2785 73.6735C81.2785 73.6735 81.2053 73.6735 81.1688 73.6125H81.1078L80.8763 73.4541C80.5594 73.2347 80.2303 73.0153 79.8891 72.7594C79.6878 72.6139 79.4964 72.4551 79.3163 72.2841C79.19 72.1664 79.0719 72.0401 78.9628 71.9063C78.8767 71.8032 78.7992 71.6931 78.7313 71.5772C78.6745 71.5054 78.6255 71.4278 78.585 71.3457C78.585 71.1994 78.4631 71.0532 78.4144 70.9069V70.6875C78.3952 70.5052 78.3952 70.3214 78.4144 70.1391C78.4259 69.7093 78.5476 69.2896 78.7678 68.9203C79.0168 68.5018 79.3806 68.1635 79.8159 67.9453C80.0048 67.8471 80.2055 67.7733 80.4131 67.726H80.6934H80.8153C81.034 67.7018 81.2547 67.7018 81.4734 67.726C81.6302 67.7457 81.7851 67.7783 81.9366 67.8235C82.1043 67.8428 82.2661 67.8967 82.4119 67.9819C82.8585 68.2134 83.3283 68.3972 83.8134 68.5303L84.1303 68.6157H84.2156L85.1175 67.7625C85.7756 67.1044 86.4216 66.4097 87.0188 65.7028L87.8597 64.6547L87.4819 64.4841L86.8603 64.2282L86.2509 63.9844L85.5928 63.6797L84.4716 63.1191C83.6348 62.7 82.8211 62.2362 82.0341 61.7297C81.4241 61.3346 80.8845 60.8403 80.4375 60.2672C80.2842 60.0748 80.1457 59.8711 80.0231 59.6578C79.9574 59.553 79.9004 59.4429 79.8525 59.3288C79.7871 59.1832 79.7341 59.0324 79.6941 58.8778C79.6267 58.6773 79.5897 58.4678 79.5844 58.2563C79.56 58.0131 79.56 57.7682 79.5844 57.525C79.6594 57.1147 79.8168 56.7238 80.0473 56.376C80.2777 56.0283 80.5763 55.7309 80.925 55.5019C81.2223 55.3055 81.5466 55.1536 81.8878 55.051C82.4897 54.8777 83.1141 54.7956 83.7403 54.8072C84.2278 54.8072 84.6666 54.8072 85.0931 54.8803C85.9463 54.9535 86.7628 55.051 87.5306 55.1485C88.0555 55.2579 88.5945 55.2826 89.1272 55.2216C91.2835 55.3102 93.4282 55.5834 95.5378 56.0382H95.5988C95.7311 56.002 95.8581 55.9488 95.9766 55.8797C96.2412 55.7269 96.4975 55.5601 96.7444 55.38C97.1466 55.1119 97.7316 54.6244 98.2556 54.1613L99.901 52.8694C101.023 51.9962 102.191 51.1826 103.399 50.4319C103.726 50.1679 104.103 49.9731 104.508 49.8591C105.466 49.6731 106.39 49.3445 107.25 48.8841C108.521 48.2814 109.936 48.0491 111.333 48.2138C112.082 48.3547 112.761 48.7457 113.258 49.3228C113.709 49.7738 113.051 50.0785 112.881 50.0663C112.332 49.9932 112.576 50.4563 112.466 50.6757C112.432 50.7583 112.387 50.8361 112.332 50.9072C112.256 50.9249 112.177 50.9249 112.101 50.9072H111.881H111.577C111.008 50.9533 110.455 51.1194 109.956 51.3947C108.992 51.9772 108.076 52.6332 107.213 53.3569C107.213 53.3569 106.714 53.7225 105.995 54.2588C105.276 54.795 104.41 55.575 103.557 56.416C102.704 57.2569 101.766 58.171 101.01 58.951C100.364 59.6156 99.6444 60.2044 98.865 60.706C98.0201 61.2174 97.0495 61.4833 96.0619 61.4738C95.6092 61.5071 95.154 61.4784 94.7091 61.3885C94.2581 61.3153 92.5275 61.0594 90.8213 60.8766C89.115 60.6938 87.5063 60.5597 87.3722 60.5597C86.6166 60.5597 85.861 60.5597 85.1541 60.5597H84.0938C83.9682 60.5735 83.8415 60.5735 83.716 60.5597H83.6063C83.6063 60.5597 83.6063 60.6328 83.6063 60.4378C83.56 60.1735 83.4948 59.9129 83.4113 59.6578C83.4113 59.475 83.3016 59.3044 83.2528 59.1338C83.1997 58.9786 83.1345 58.8278 83.0578 58.6828C83.0186 58.5661 82.9564 58.4584 82.875 58.366C82.7897 58.2685 82.8019 58.2319 82.7288 58.1832C82.6556 58.1344 82.6313 58.1832 82.7288 58.1832C82.8104 58.1764 82.8896 58.1514 82.9603 58.11L83.5941 57.7566L83.7038 57.6957C84.0596 57.4533 84.3832 57.1666 84.6666 56.8425C84.6666 56.8425 84.6666 56.8425 84.7763 56.8425L85.3125 57.1472C85.7634 57.3788 86.3241 57.6225 86.9578 57.8785L88.0181 58.366L88.8834 58.7803L89.895 59.2922L90.48 59.5969C90.7725 59.7553 91.0284 59.926 91.3088 60.0966C92.3535 60.7209 93.199 61.6298 93.7463 62.7169C93.9786 63.263 94.0828 63.855 94.0509 64.4475C94.0485 64.7401 93.9906 65.0296 93.8803 65.3007C93.7984 65.5928 93.6839 65.8749 93.5391 66.1416C93.3324 66.5491 93.0653 66.923 92.7469 67.2507C92.5649 67.4813 92.3696 67.701 92.1619 67.9088L91.6744 68.4328C90.4623 69.6579 89.1496 70.779 87.75 71.7844L87.1772 72.1866C87.1041 72.2597 86.9091 72.345 86.7628 72.4547L86.2997 72.7472C85.9796 72.8954 85.6498 73.0216 85.3125 73.125C84.9576 73.186 84.5949 73.186 84.24 73.125C82.546 72.8569 81.9731 72.4547 81.1322 72.345H80.8641C80.8641 72.345 80.7666 72.345 80.73 72.345L80.8153 72.0038C81.0141 71.4161 81.0888 70.7936 81.0347 70.1757C81.0748 70.1846 81.1164 70.1846 81.1566 70.1757L81.5831 69.9563C81.7884 69.8288 81.984 69.6862 82.1681 69.5297L82.5338 69.2372C82.6313 69.1397 82.8019 68.9691 82.7531 69.03L82.875 69.1763C83.0822 69.3957 83.4113 69.676 83.7403 69.9685L84.0084 70.2122C84.1393 70.3248 84.2615 70.447 84.3741 70.5778C84.63 70.8094 84.825 71.0532 85.02 71.2603C85.2007 71.5104 85.3598 71.7754 85.4953 72.0525C85.5971 72.2314 85.6828 72.419 85.7513 72.6132C85.8107 72.9472 85.8025 73.2897 85.7271 73.6205C85.6518 73.9512 85.5108 74.2635 85.3125 74.5388C84.9316 75.0754 84.4899 75.5662 83.9963 76.0013Z" fill="#221F1F"/>
<path d="M53.9423 19.0369C55.0578 17.8214 56.4256 16.8643 57.9497 16.2328C59.4739 15.6012 61.1177 15.3104 62.766 15.3806C64.1554 15.4538 65.8616 13.4063 63.8263 13.3088C61.5343 13.1766 59.241 13.5441 57.105 14.3858C54.9691 15.2276 53.0416 16.5234 51.456 18.1838C50.1398 19.4878 53.0404 19.8778 53.8935 18.9881L53.9423 19.0369Z" fill="#221F1F"/>
<path d="M136.097 57.4763C137.569 58.7686 138.628 60.4648 139.144 62.3543C139.66 64.2437 139.609 66.243 138.998 68.1038C138.498 69.4322 140.972 69.4078 141.35 68.3841C142.094 66.3129 142.206 64.0676 141.672 61.9326C141.138 59.7977 139.983 57.8692 138.352 56.3916C137.548 55.6238 135.22 56.6475 136.097 57.4763Z" fill="#221F1F"/>
<path d="M142.131 53.101C143.245 53.7518 144.154 54.7022 144.755 55.844C145.356 56.9858 145.625 58.2734 145.531 59.5603C145.531 60.645 147.968 60.1819 147.968 59.28C148.082 57.7953 147.773 56.3087 147.079 54.9914C146.385 53.674 145.333 52.5794 144.044 51.8335C143.301 51.3581 141.046 52.4063 142.082 53.0522L142.131 53.101Z" fill="#221F1F"/>
<path d="M50.505 49.5056C50.7488 52.7597 44.5453 52.9669 45.106 49.14C45.4838 46.4587 49.6397 46.2881 50.3953 48.9206C50.4532 49.111 50.49 49.3072 50.505 49.5056Z" fill="#221F1F"/>
<path d="M38.2444 61.1691C38.3906 63.1069 34.6734 63.2409 35.0025 60.9375C35.0852 60.5874 35.2804 60.274 35.5582 60.0453C35.836 59.8167 36.181 59.6854 36.5405 59.6716C36.9001 59.6577 37.2542 59.7621 37.5487 59.9688C37.8432 60.1754 38.0619 60.4729 38.1713 60.8156C38.2072 60.9307 38.2317 61.0491 38.2444 61.1691Z" fill="#221F1F"/>
<path d="M98.4506 120.266C98.5969 122.216 94.8675 122.338 95.2088 120.035C95.2914 119.685 95.4866 119.371 95.7644 119.143C96.0422 118.914 96.3873 118.783 96.7468 118.769C97.1063 118.755 97.4604 118.859 97.755 119.066C98.0495 119.273 98.2682 119.57 98.3775 119.913C98.4123 120.028 98.4368 120.147 98.4506 120.266Z" fill="#221F1F"/>
</svg>
