<svg width="70" height="56" viewBox="0 0 70 56" fill="none" xmlns="http://www.w3.org/2000/svg">
<path d="M19.0421 28.2761C19.9124 27.9175 20.7968 27.5967 21.6316 27.1498C22.4978 26.6857 23.2878 26.1171 24.0627 25.521C25.1594 27.3327 26.8969 28.3877 28.6659 29.3981C30.8269 30.6309 32.997 31.8475 34.8025 33.5982C36.0749 34.9286 37.0397 36.4416 37.4164 38.2644C38.0511 41.3393 37.586 44.1441 35.2839 46.4634C35.2372 46.5112 35.2026 46.5711 35.162 46.6249C33.851 47.7288 32.3948 48.5858 30.7315 49.0093C26.9781 49.9659 23.2747 49.8928 19.6463 48.3878C18.2988 47.8293 17.5229 46.9408 17.3178 45.4409C17.0588 43.543 16.8435 41.651 16.8882 39.7348C16.9014 39.1784 17.0934 38.9813 17.6844 38.8951C18.2774 38.8077 18.6786 38.9925 18.8298 39.4708C19.235 40.7493 19.7499 41.978 20.4465 43.1266C21.4802 44.8295 22.7822 46.2371 24.7197 46.9164C25.8733 47.3206 27.0604 47.4322 28.2688 47.2109C31.3163 46.6523 32.934 44.076 32.2039 40.9565C31.7764 39.1296 30.5598 37.8887 29.127 36.8142C27.8657 35.8688 26.4603 35.1499 25.1198 34.3314C23.367 33.2621 21.6976 32.0861 20.3835 30.4766C19.8352 29.8043 19.3701 29.0823 19.0421 28.2761Z" fill="#A1C482"/>
<path d="M28.5161 18.6085C28.6806 17.8358 28.8441 17.062 29.0086 16.2892C30.8771 16.2831 32.7111 16.5167 34.5258 16.9736C35.6286 17.2509 36.3649 17.7485 36.639 18.9661C36.9894 20.5177 37.3722 22.0551 37.4261 23.6525C37.4464 24.2476 37.2626 24.4618 36.6726 24.5919C36.0287 24.734 35.6175 24.5725 35.4052 24.074C34.8183 22.6929 34.079 21.4143 32.9711 20.3755C31.718 19.2027 30.2374 18.6015 28.5161 18.6085Z" fill="#A1C482"/>
<path d="M34.6702 2.82126C34.9149 2.9065 35.0925 2.77657 35.2673 2.69224C36.0603 2.31043 36.8829 2.06372 37.7644 1.96311C38.1675 1.9174 38.5534 1.71639 38.9585 1.60769C40.565 1.17816 42.2092 1.14054 43.8482 1.03094C45.4324 0.924261 46.9972 1.09696 48.5286 1.49495C49.0445 1.62903 49.5248 1.90426 50.0163 2.12762C50.1869 2.20588 50.3189 2.34805 50.4093 2.51357C50.4966 2.67394 50.6367 2.86494 50.4762 3.02228C50.326 3.1695 50.1625 3.01116 50.0295 2.91773C49.1693 2.30942 48.1498 2.18253 47.1607 2.00578C45.2546 1.66563 43.3313 1.72549 41.4222 1.97939C38.853 2.32055 36.3508 2.94311 33.9339 3.89661C32.5498 4.44293 31.1789 5.01473 29.8892 5.76207C29.6414 5.90524 29.4251 6.10231 29.1764 6.24246C28.9651 6.36127 28.7306 6.63033 28.5081 6.23326C28.3355 5.92557 28.2207 5.64942 28.6279 5.42596C29.1458 5.14163 29.6333 4.78722 30.1735 4.55871C31.5719 3.9677 32.9925 3.42845 34.403 2.86798C34.4975 2.82935 34.5909 2.78365 34.6702 2.82126Z" fill="black"/>
<path d="M34.6041 14.1737C34.6092 13.9452 34.7108 13.7523 34.8083 13.5533C35.4044 12.3449 35.8207 11.0612 36.3204 9.81519C37.0352 8.03295 37.6801 6.21421 38.1391 4.34067C38.1635 4.24219 38.1736 4.13349 38.2244 4.05027C38.3503 3.84309 38.2823 3.43995 38.6864 3.50082C38.9901 3.54652 39.2307 4.07049 39.1292 4.41681C38.9687 4.96717 38.7718 5.50743 38.6225 6.06194C37.9655 8.50313 36.8677 10.7789 35.969 13.1288C35.7944 13.5867 35.6379 14.0519 35.4511 14.5048C35.383 14.6693 35.4044 14.9912 35.1373 14.9302C34.8865 14.8724 34.6519 14.6845 34.6041 14.3769C34.595 14.3108 34.6041 14.2418 34.6041 14.1737Z" fill="black"/>
<path fill-rule="evenodd" clip-rule="evenodd" d="M39.1048 27.9612C37.2343 29.5099 35.8349 31.414 34.8021 33.5993C34.6701 33.7557 34.7656 33.8826 34.86 34.0055C35.0134 34.2066 35.1667 34.4078 35.3282 34.6036C37.087 36.7434 37.6393 39.2241 37.3073 41.9203C37.1144 43.4883 36.4178 44.8499 35.3484 46.0169C35.3307 46.0363 35.3123 46.0554 35.294 46.0747C35.149 46.2268 35.003 46.3801 35.1616 46.6262C35.773 47.7401 36.4564 48.8024 37.29 49.769C41.3135 54.4331 48.0645 56.2234 53.8314 54.1397C64.3154 50.3518 67.4166 37.243 59.7396 29.1708C54.3026 23.4545 45.1917 22.9234 39.1048 27.9612ZM50.2143 48.8958C51.5669 48.8805 52.9196 48.8896 54.2722 48.8896C55.6411 48.8907 57.011 48.8774 58.3819 48.8978C58.8104 48.9048 58.909 48.6917 58.9069 48.3402C58.9038 47.8447 58.5444 47.7767 58.1768 47.7635C56.9703 47.7188 56.2635 47.0872 55.8909 45.9599C55.6279 45.1639 55.3439 44.3749 55.0599 43.5858C54.8056 42.8791 54.5512 42.1723 54.3118 41.4603C53.7654 39.8359 53.1975 38.2189 52.6297 36.6019C51.6961 33.9431 50.7624 31.2843 49.9239 28.5929C49.7117 27.9126 49.3968 27.8477 48.8952 28.3603C48.3214 28.9463 47.6928 29.4552 46.9089 29.7325C46.6956 29.8076 46.5686 29.9061 46.5676 30.16C46.5646 30.692 46.391 31.1926 46.2041 31.6821C45.545 33.4123 44.9032 35.1489 44.2611 36.8857C43.1502 39.8911 42.0388 42.8968 40.8393 45.8696C40.3782 47.012 39.7222 47.7869 38.4102 47.8021C37.9959 47.8072 37.7917 48.0022 37.8283 48.4367C37.8669 48.8896 38.1685 48.9202 38.5158 48.9028C40.4595 48.8064 42.4041 48.8246 44.3478 48.8918C44.6606 48.9019 44.891 48.8399 44.9124 48.4804C44.9327 48.128 44.8586 47.8467 44.4311 47.7878C44.0462 47.735 43.6623 47.665 43.2856 47.5706C42.587 47.3949 42.4589 47.2192 42.6712 46.5236C42.9851 45.4958 43.3239 44.4756 43.6627 43.4555C43.7876 43.0796 43.9125 42.7038 44.036 42.3274C44.1295 42.0442 44.3102 41.8625 44.627 41.8625C44.9299 41.8629 45.2327 41.8631 45.5356 41.8634C46.8395 41.8645 48.1439 41.8657 49.4476 41.8757C49.7735 41.8777 50.0467 42.0178 50.1523 42.356C50.6215 43.8569 51.0856 45.3588 51.5487 46.8618C51.6766 47.276 51.4867 47.5197 51.0957 47.6132C50.7677 47.6914 50.4326 47.7462 50.0985 47.794C49.7157 47.8488 49.5116 48.0438 49.5593 48.4398C49.606 48.8278 49.8619 48.8998 50.2143 48.8958Z" fill="#F39F52"/>
<path fill-rule="evenodd" clip-rule="evenodd" d="M25.0152 24.619C26.703 22.9201 27.8089 20.8799 28.5157 18.6083C28.5339 18.5746 28.5505 18.544 28.5662 18.5156C28.6401 18.3807 28.6867 18.2957 28.7279 18.1616C28.8985 17.6041 29.0427 17.0425 29.062 16.4545C29.062 16.3554 29.0508 16.3327 29.0072 16.2889C29.01 16.2296 29.0121 16.1702 29.0143 16.1108C29.0186 15.9845 29.0231 15.8583 29.0356 15.7324C29.2682 13.3521 29.0487 11.0266 28.0576 8.82913C26.3405 5.02107 23.4149 2.90071 19.2036 2.66814C17.2 2.55742 15.3193 3.09262 13.4894 3.85118C12.3946 4.30609 11.3467 4.85454 10.3078 5.4232C9.84677 5.67599 9.57568 5.52573 9.50354 5.00075C9.48545 4.87314 9.48782 4.74341 9.4902 4.61398C9.49062 4.59083 9.49105 4.56778 9.49135 4.54472C9.4996 3.84147 9.58468 3.14561 9.66982 2.44893C9.67902 2.3731 9.68832 2.29716 9.69752 2.22132C9.72695 1.97147 9.70258 1.74406 9.46088 1.6019C9.2253 1.46277 8.99985 1.44143 8.75207 1.60796C6.92114 2.83771 4.97545 3.85421 2.9658 4.75494C2.43875 4.99155 2.36259 5.677 2.8084 6.04667C2.99017 6.19693 3.19022 6.32898 3.39636 6.44476C4.552 7.09361 4.96631 8.07765 4.96226 9.39274C4.94067 16.7521 4.94309 24.1121 4.9455 31.4718C4.94626 33.8053 4.94702 36.1389 4.94702 38.4723C4.94702 39.2847 4.92062 40.0941 4.76119 40.8963C4.60988 41.661 4.16509 42.1414 3.41058 42.3007C3.00898 42.386 2.60227 42.4478 2.19546 42.5097C2.00052 42.5395 1.80557 42.5692 1.61112 42.6013C1.15112 42.6775 0.954106 42.967 1.00894 43.4807C1.06886 44.0413 1.25469 44.2322 1.75431 44.2149C2.16013 44.2013 2.56581 44.1838 2.97144 44.1664C3.61332 44.1388 4.2551 44.1113 4.89726 44.0981C7.87469 44.0383 10.8501 44.1023 13.8255 44.2191C13.8634 44.2206 13.9023 44.2238 13.9416 44.2273C14.1245 44.2429 14.3147 44.2592 14.4409 44.087C14.6867 43.7519 14.7212 43.3752 14.5993 42.9771C14.5007 42.6558 14.2496 42.6266 13.9924 42.5967C13.9636 42.5934 13.9346 42.59 13.9058 42.5861C13.6534 42.5522 13.4004 42.5221 13.1474 42.4917C12.477 42.4117 11.8066 42.3317 11.1467 42.1819C10.4327 42.0204 9.99197 41.5869 9.82442 40.871C9.68124 40.2586 9.62341 39.6351 9.62138 39.0096C9.6137 37.0435 9.61127 35.0779 9.60885 33.1126C9.60773 32.2192 9.60672 31.326 9.6051 30.4327C9.60409 30.0762 9.6142 29.7178 9.74929 29.3837C9.90976 28.9866 10.187 28.748 10.6501 28.8068C13.4803 29.1644 16.285 29.1004 19.0411 28.2758C19.2472 28.4007 19.4514 28.3763 19.6707 28.2971C21.0751 27.7883 22.3851 27.1059 23.5824 26.2062C23.8241 26.0244 23.9946 25.8143 24.0617 25.5207C24.1618 25.4264 24.263 25.3328 24.3641 25.2392C24.5841 25.0356 24.8044 24.8318 25.0152 24.619ZM13.6823 26.5953C15.3203 27.0369 16.9502 27.1142 18.5516 26.4318C18.6857 26.2834 18.8024 26.1108 18.7588 25.9088C18.6645 25.4779 18.7147 25.0532 18.7648 24.6279C18.7758 24.535 18.7868 24.442 18.7964 24.3489C19.0207 22.127 19.952 20.288 21.7118 18.8796C22.2059 18.484 22.7482 18.1691 23.2907 17.8543C23.5129 17.7255 23.7351 17.5964 23.954 17.4619C24.1724 15.2949 23.9906 13.1715 23.1954 11.1293C20.8751 5.16829 15.1456 4.76717 11.3416 6.68238C10.3992 7.1566 9.87619 7.901 9.72897 8.92761C9.72219 8.97443 9.71512 9.02125 9.70814 9.06806C9.66982 9.32267 9.63129 9.57889 9.63048 9.83451C9.62978 10.1311 9.62897 10.4277 9.62826 10.7243C9.61875 14.5874 9.60915 18.451 9.62229 22.3149C9.62644 23.434 10.0894 24.3632 10.9395 25.1187C11.7428 25.8336 12.6557 26.318 13.6823 26.5953Z" fill="#0C72BA"/>
<path d="M18.5519 26.4335C18.3061 24.0613 18.7448 21.8669 20.2589 19.9628C21.1352 18.8599 22.2463 18.0526 23.5155 17.4586C23.6527 17.3946 23.8121 17.2443 23.9543 17.4636C23.737 19.8856 23.1347 22.1776 21.6156 24.1385C20.8093 25.1804 19.8324 26.0162 18.5519 26.4335Z" fill="#A1C482"/>
<path fill-rule="evenodd" clip-rule="evenodd" d="M58.2012 11.0565C58.3161 10.8892 58.4362 10.714 58.6753 10.6113C58.7332 10.9586 58.654 11.2662 58.6053 11.5719C58.4966 12.1711 58.3483 12.7631 58.2651 13.3653C58.1899 13.9035 58.455 14.3422 58.8998 14.5219C59.3543 14.7055 59.6293 14.4109 59.8991 14.1217L59.9 14.1208C60.3275 13.6628 60.7114 13.1683 61.0557 12.6463C61.4771 12.0086 61.9717 11.4318 62.4916 10.8763C62.6277 10.7301 62.7881 10.5503 63.0085 10.6224C63.1964 10.6844 63.1517 10.9128 63.177 11.0672C63.2078 11.2498 63.226 11.4345 63.2442 11.6191C63.2692 11.8731 63.294 12.1267 63.3517 12.3731C63.3669 12.438 63.3816 12.5032 63.3965 12.5684C63.5716 13.3396 63.7486 14.1189 64.613 14.4925C65.2598 14.7718 65.8204 14.5575 66.4043 14.2823C67.177 13.9167 67.7549 13.3368 68.3002 12.7082C68.5348 12.4381 68.6302 12.0279 68.423 11.8319C68.2251 11.645 67.9631 11.9954 67.7863 12.1832C67.7453 12.2269 67.7044 12.2708 67.6634 12.3148C67.2747 12.7308 66.8811 13.1522 66.3951 13.4333C64.9938 14.2448 64.4322 14.1016 64.1478 12.4524C64.0747 12.0317 64.0297 11.606 63.9846 11.1804C63.962 10.967 63.9393 10.7538 63.9133 10.5412C63.8778 10.2539 63.7366 10.0477 63.4755 9.9015C62.7455 9.49219 62.2895 9.56438 61.7808 10.268L61.7737 10.2775C61.1719 11.1101 60.5707 11.9416 59.9143 12.7337C59.7101 12.9804 59.502 13.212 59.1628 13.3227C59.139 13.0297 59.2144 12.7668 59.2885 12.5084C59.3313 12.3593 59.3737 12.2116 59.3964 12.0604C59.4215 11.8923 59.4584 11.7255 59.4955 11.5586C59.5967 11.1021 59.6979 10.6458 59.5537 10.1655C59.3679 9.5481 58.6439 9.32363 58.1665 9.72374C57.9201 9.93072 57.7157 10.1738 57.4921 10.4396C57.4106 10.5364 57.3268 10.6361 57.2374 10.7382C57.2374 10.6859 57.2346 10.6434 57.2323 10.608C57.2283 10.5478 57.2258 10.5082 57.2404 10.4762C57.3975 10.129 57.4292 9.76014 57.4611 9.39158C57.4787 9.18794 57.4963 8.98429 57.535 8.78439C57.5958 8.46861 57.5126 8.18731 57.2425 7.97103C56.8931 7.69175 56.7926 7.71915 56.6911 8.16294C56.5937 8.58853 56.5155 9.01736 56.4374 9.44638C56.3557 9.89472 56.2739 10.3433 56.1701 10.7891C55.8705 12.0777 55.0734 12.7641 53.9686 13.213C52.6718 13.74 51.9691 13.213 52.0351 11.8105C52.0492 11.4897 52.099 11.1708 52.1102 10.851C52.1213 10.532 51.8908 10.3727 51.6461 10.2416C51.4876 10.1573 51.3882 10.266 51.3171 10.3879C50.9503 11.0179 50.4304 11.5088 49.9108 11.9993C49.7427 12.158 49.5748 12.3165 49.412 12.4798C48.9184 12.9744 48.3559 13.3826 47.6471 13.5187C47.2003 13.6049 47.1007 13.4953 47.2835 13.0718C47.7954 11.8908 48.6057 10.9494 49.7136 10.2975C49.9848 10.1381 50.3493 9.92587 50.6874 10.264C50.7261 10.3026 50.8225 10.3341 50.8632 10.3127C50.9687 10.2579 50.9586 10.1381 50.9343 10.0427C50.719 9.1937 50.3483 8.70623 49.3948 9.25154C48.9547 9.50331 48.6039 9.85468 48.2539 10.2051C48.045 10.4143 47.8365 10.6232 47.6095 10.8103C46.3788 11.8248 44.9581 12.5509 43.512 13.212C42.6986 13.5837 41.868 13.9371 40.9438 13.9208C40.098 13.9065 39.6369 13.1013 40.0492 12.3741C40.106 12.2736 40.1588 12.1985 40.2756 12.2849C40.6641 12.5709 40.9632 12.3392 41.2525 12.115L41.2627 12.1071C41.869 11.6359 42.3483 11.0449 42.8072 10.4357C43.0073 10.1685 43.0814 9.85569 43.0967 9.53183C43.1139 9.16013 43.0276 8.82908 42.6823 8.6128C42.3392 8.39753 42.0579 8.58742 41.7927 8.75901C40.5224 9.58056 39.6288 10.7118 39.2215 12.1659C38.8143 13.6222 39.8725 15.2419 41.7308 14.7992C43.0377 14.4874 44.2818 14.0122 45.4354 13.3165C45.686 13.165 45.9379 13.0143 46.2018 12.8565L46.5361 12.6565C46.5361 12.804 46.5339 12.9151 46.5347 13.0166C46.535 13.0542 46.5357 13.0904 46.5372 13.1266C46.59 14.4711 47.4704 14.9759 48.6514 14.3361C49.1165 14.0843 49.5116 13.74 49.8914 13.3765C50.3219 12.9652 50.7535 12.5549 51.2156 12.1162C51.2515 12.2269 51.2858 12.3384 51.3199 12.4495C51.5542 13.2132 51.7824 13.957 52.5794 14.2619C53.4567 14.5981 54.2793 14.2244 55.049 13.7776C55.097 13.916 55.0626 14.0134 55.031 14.1032C55.0163 14.1444 55.0023 14.1841 54.9972 14.2254C54.9424 14.658 55.2501 14.8348 55.5649 14.9596C55.8568 15.075 55.92 14.8599 55.9752 14.6721C55.9869 14.6318 55.9984 14.5927 56.0117 14.5585C56.4931 13.3094 57.2688 12.2452 58.0904 11.2104C58.1292 11.1617 58.1649 11.1095 58.2012 11.0565ZM41.9512 9.92789C41.7318 10.4702 41.3287 10.8469 40.7915 11.2612C40.9803 10.5433 41.4058 10.1838 41.9512 9.92789Z" fill="black"/>
<path d="M47.1515 33.3364C47.2846 33.6949 47.4277 34.0493 47.5476 34.4118C48.0898 36.0468 48.6311 37.6817 49.1592 39.3207C49.3988 40.0661 49.2708 40.2326 48.4879 40.2367C47.4744 40.2427 46.461 40.2407 45.4475 40.2306C45.0637 40.2265 44.7397 40.1006 44.8859 39.6253C45.5318 37.5131 46.2487 35.4232 47.1515 33.3364Z" fill="#F39F52"/>
</svg>
