<svg width="70" height="100" viewBox="0 0 70 100" fill="none" xmlns="http://www.w3.org/2000/svg">
<g clip-path="url(#clip0_4396_2031)">
<path d="M19.3967 41.9757C20.2574 41.6211 21.1321 41.3038 21.9577 40.8619C22.8144 40.4029 23.5957 39.8405 24.362 39.251C25.4466 41.0427 27.165 42.0861 28.9145 43.0854C31.0517 44.3046 33.1979 45.5078 34.9835 47.2392C36.2419 48.5549 37.196 50.0513 37.5686 51.854C38.1963 54.895 37.7363 57.6689 35.4596 59.9627C35.4134 60.0099 35.3792 60.0692 35.339 60.1224C34.0425 61.2141 32.6023 62.0617 30.9573 62.4805C27.2453 63.4266 23.5827 63.3543 19.9943 61.8659C18.6616 61.3135 17.8943 60.4348 17.6914 58.9514C17.4353 57.0744 17.2224 55.2033 17.2666 53.3082C17.2796 52.7579 17.4695 52.563 18.054 52.4777C18.6405 52.3913 19.0372 52.5741 19.1868 53.0471C19.5875 54.3115 20.0967 55.5267 20.7857 56.6626C21.808 58.3468 23.0956 59.7388 25.0118 60.4107C26.1527 60.8104 27.3267 60.9208 28.5218 60.7019C31.5357 60.1495 33.1356 57.6016 32.4135 54.5164C31.9907 52.7097 30.7875 51.4824 29.3705 50.4198C28.1231 49.4848 26.7332 48.7738 25.4075 47.9643C23.674 46.9068 22.023 45.7438 20.7234 44.152C20.1811 43.4871 19.7211 42.7731 19.3967 41.9757Z" fill="#A1C482"/>
<path d="M28.7666 32.415C28.9293 31.6508 29.091 30.8855 29.2537 30.1212C31.1016 30.1152 32.9154 30.3462 34.7101 30.7981C35.8007 31.0723 36.5289 31.5644 36.8 32.7686C37.1465 34.3031 37.5251 35.8236 37.5784 37.4034C37.5985 37.9919 37.4167 38.2038 36.8332 38.3324C36.1964 38.473 35.7897 38.3133 35.5798 37.8202C34.9993 36.4544 34.2682 35.1899 33.1725 34.1625C31.9332 33.0026 30.4689 32.408 28.7666 32.415Z" fill="#A1C482"/>
<path d="M50.3298 76.243C48.9077 76.2349 47.7377 75.4566 47.3199 74.2404C46.8077 72.75 47.2727 71.128 48.4869 70.1719C49.9462 69.023 52.0653 69.1355 53.2955 70.415C53.5325 70.662 53.6028 70.8388 53.2343 71.0065C53.1137 71.0607 53.0013 71.1401 52.8988 71.2255C52.6688 71.4163 52.4991 71.4153 52.2611 71.1863C51.4416 70.3989 50.2334 70.3386 49.3828 71.0035C48.4307 71.7487 48.1033 73.0935 48.6386 74.0596C49.3496 75.3431 51.2739 75.4254 52.1014 74.2112C52.2541 73.9873 52.242 73.8889 51.9467 73.8939C51.545 73.8999 51.1433 73.8818 50.7426 73.8979C50.4242 73.911 50.2947 73.8256 50.3338 73.4711C50.4212 72.6927 50.4031 72.6907 51.1855 72.6897C51.8714 72.6897 52.5584 72.7138 53.2433 72.6807C53.6711 72.6596 53.7957 72.7902 53.7424 73.217C53.5205 75.0167 52.1406 76.252 50.3298 76.243Z" fill="white"/>
<path d="M66.3684 82.5238C65.8492 82.5238 65.355 82.5118 64.8619 82.5288C64.5647 82.5389 64.4492 82.4636 64.4773 82.1342C64.5476 81.3317 64.5315 81.3307 65.351 81.3307C66.0862 81.3307 66.8223 81.3337 67.5575 81.3297C67.7644 81.3287 67.919 81.3478 67.8939 81.622C67.7674 83.032 66.9659 84.3627 65.4434 84.7684C63.8727 85.1872 62.3723 84.5977 61.6421 83.273C60.7985 81.7415 61.3117 79.7339 62.8252 78.6512C64.2383 77.6399 66.3101 77.8387 67.454 79.0841C67.679 79.3291 67.6599 79.4406 67.3807 79.6485C66.9388 79.9759 66.6375 80.0583 66.1575 79.6324C65.3058 78.8792 64.0012 79.069 63.1837 79.9498C62.3642 80.8346 62.2819 82.1894 62.9989 83.0179C63.934 84.1006 65.7618 83.8626 66.3684 82.5238Z" fill="white"/>
<path d="M56.964 82.4947C57.1388 81.2323 57.2984 80.1095 57.4491 78.9866C57.5706 78.0828 57.5666 78.0908 58.4574 78.1591C58.6954 78.1772 58.7828 78.2485 58.7487 78.4925C58.4785 80.464 58.2144 82.4354 57.9492 84.4079C57.9251 84.5876 57.8769 84.7584 57.653 84.7222C57.3205 84.668 56.9158 84.9191 56.6758 84.4521C56.0712 83.278 55.4465 82.114 54.8228 80.9491C54.7385 80.7924 54.6923 80.6056 54.4854 80.464C54.2976 81.173 54.2614 81.881 54.154 82.576C54.0646 83.1545 53.9893 83.735 53.92 84.3155C53.8336 85.0285 53.2893 84.676 52.9458 84.7122C52.5159 84.7574 52.7068 84.4029 52.7309 84.213C52.9689 82.3732 53.2149 80.5333 53.4761 78.6964C53.5042 78.5016 53.4158 78.1571 53.7854 78.1742C54.1519 78.1912 54.5707 77.9874 54.8289 78.5046C55.4405 79.7308 56.1003 80.934 56.7411 82.1452C56.7822 82.2185 56.8304 82.2848 56.964 82.4947Z" fill="white"/>
<path d="M42.8614 73.7007C43.007 72.614 43.1526 71.5274 43.2973 70.4407C43.3063 70.3744 43.3103 70.3072 43.3193 70.2409C43.4178 69.562 43.7693 69.3511 44.4422 69.5459C44.7294 69.6293 44.6109 69.8442 44.5918 69.9968C44.4221 71.3064 44.2373 72.615 44.0575 73.9237C43.9822 74.47 43.9179 75.0183 43.8265 75.5627C43.7924 75.7635 43.9018 76.102 43.5232 76.0799C43.1727 76.0598 42.766 76.2607 42.5189 75.7676C41.9716 74.6769 41.38 73.6083 40.8066 72.5307C40.684 72.3007 40.5605 72.0707 40.3265 71.8558C40.2522 72.3569 40.1729 72.8571 40.1036 73.3582C39.9951 74.1366 39.8836 74.9149 39.7902 75.6942C39.7059 76.3922 39.1806 76.0257 38.8512 76.0749C38.4434 76.1361 38.569 75.7957 38.5961 75.5918C38.8401 73.7348 39.0912 71.8789 39.3493 70.0249C39.3764 69.8341 39.3071 69.5228 39.6466 69.5519C39.9971 69.582 40.4179 69.345 40.668 69.8291C41.2665 70.9881 41.8862 72.136 42.4988 73.2869C42.5762 73.4315 42.6615 73.5721 42.7429 73.7148C42.783 73.7107 42.8222 73.7057 42.8614 73.7007Z" fill="white"/>
<path d="M34.8525 16.8012C35.0945 16.8855 35.2702 16.757 35.443 16.6736C36.2273 16.296 37.0408 16.052 37.9126 15.9525C38.3113 15.9073 38.6929 15.7085 39.0936 15.601C40.6824 15.1762 42.3084 15.139 43.9294 15.0306C45.4961 14.9251 47.0437 15.0959 48.5582 15.4895C49.0684 15.6221 49.5434 15.8943 50.0295 16.1152C50.1982 16.1926 50.3288 16.3332 50.4182 16.4969C50.5045 16.6555 50.6431 16.8444 50.4844 17C50.3358 17.1456 50.1741 16.989 50.0426 16.8966C49.1919 16.295 48.1836 16.1695 47.2054 15.9947C45.3203 15.6583 43.4182 15.7175 41.5301 15.9686C38.9892 16.306 36.5146 16.9217 34.1243 17.8647C32.7555 18.405 31.3997 18.9705 30.1242 19.7096C29.8791 19.8512 29.6652 20.0461 29.4192 20.1847C29.2103 20.3022 28.9783 20.5683 28.7583 20.1756C28.5876 19.8713 28.4741 19.5982 28.8768 19.3772C29.389 19.096 29.8711 18.7455 30.4054 18.5195C31.7883 17.935 33.1933 17.4017 34.5883 16.8474C34.6817 16.8092 34.7741 16.764 34.8525 16.8012Z" fill="white"/>
<path d="M33.0574 84.8705C31.6343 84.8685 30.8369 84.0058 31.0006 82.5968C31.1563 81.252 31.3491 79.9113 31.5329 78.5695C31.5911 78.1477 31.8231 78.0724 32.5503 78.1607C32.9871 78.214 32.7712 78.5143 32.7501 78.691C32.6165 79.8199 32.4538 80.9457 32.3042 82.0725C32.2731 82.3045 32.2439 82.5375 32.2339 82.7705C32.2098 83.357 32.4006 83.6131 32.9098 83.7015C33.4371 83.7939 33.9241 83.5388 34.0416 83.0306C34.1843 82.414 34.2676 81.7813 34.357 81.1536C34.4805 80.2929 34.583 79.4302 34.7005 78.5685C34.7236 78.3958 34.7045 78.1638 34.9757 78.1718C35.3031 78.1828 35.6465 78.0704 35.9478 78.2541C36.0031 78.2883 35.987 78.4741 35.9709 78.5856C35.766 80.0418 35.5943 81.5041 35.3352 82.9513C35.0952 84.3101 34.3721 84.8725 33.0574 84.8705Z" fill="white"/>
<path d="M18.302 84.8688C16.9101 84.8939 15.8565 84.4209 15.2479 83.2167C14.6273 81.9914 14.7538 80.7853 15.5241 79.6615C16.7353 77.8949 19.1948 77.4691 20.8861 78.6963C21.2065 78.9293 21.2958 79.1051 20.9303 79.3572C20.8218 79.4325 20.7274 79.5309 20.636 79.6283C20.4643 79.8121 20.3387 79.8382 20.1017 79.6594C18.6927 78.5979 16.4943 79.4937 16.19 81.2342C15.9409 82.6573 17.0085 83.8153 18.4647 83.6998C18.9367 83.6626 19.3997 83.5662 19.7884 83.286C20.0324 83.1102 20.1469 83.1866 20.3076 83.3904C20.8931 84.1316 20.8931 84.1607 20.0294 84.5293C19.4519 84.7754 18.8494 84.8949 18.302 84.8688Z" fill="white"/>
<path d="M9.95849 84.7298C9.52363 84.7298 9.08776 84.7097 8.65491 84.7358C8.28331 84.7579 8.19996 84.6173 8.24917 84.2678C8.48016 82.6458 8.68604 81.0208 8.91502 79.3998C8.97026 79.0061 8.86682 78.489 9.14702 78.253C9.44529 78.0019 9.95146 78.1776 10.3662 78.1686C10.9678 78.1545 11.5704 78.1777 12.1719 78.1606C12.4953 78.1516 12.6148 78.2409 12.5767 78.5884C12.4923 79.3577 12.5084 79.3598 11.715 79.3598C11.4308 79.3598 11.1455 79.3457 10.8624 79.3648C10.6394 79.3798 10.311 79.2403 10.2176 79.4722C10.0901 79.7856 10.087 80.1561 10.068 80.5046C10.0579 80.6974 10.2517 80.6613 10.3743 80.6633C10.8754 80.6704 11.3775 80.6784 11.8787 80.6644C12.1729 80.6563 12.3236 80.7285 12.2523 81.062C12.0675 81.9226 12.3497 81.8443 11.3584 81.8523C11.258 81.8533 11.1576 81.8523 11.0572 81.8523C9.7044 81.8523 9.69436 81.8684 9.6562 83.2142C9.64917 83.4602 9.72549 83.5437 9.96251 83.5397C10.4476 83.5316 10.9337 83.5578 11.4167 83.5326C11.7863 83.5136 11.9259 83.61 11.8706 84.0097C11.7712 84.7268 11.7923 84.7298 11.0622 84.7298C10.6946 84.7298 10.3261 84.7298 9.95849 84.7298Z" fill="#FFFEFE"/>
<path d="M2.96398 76.2377C2.30114 76.2477 1.7317 75.9736 1.24461 75.4945C1.06283 75.3157 0.930265 75.1038 1.03973 74.8718C1.17732 74.5816 1.46154 74.4038 1.74576 74.2682C1.87331 74.207 1.92051 74.3878 1.99181 74.4711C2.18966 74.7031 2.40558 74.909 2.70587 75.0024C3.03629 75.1048 3.3416 75.0657 3.5756 74.7955C3.82065 74.5133 3.78048 74.1959 3.58665 73.9147C3.39884 73.6406 3.16785 73.3955 2.95092 73.1424C2.66871 72.813 2.35436 72.5067 2.10128 72.1562C1.62424 71.4964 1.6142 70.6849 2.03399 70.0914C2.45982 69.4888 3.21003 69.2377 3.99741 69.4315C4.50358 69.5561 4.90028 69.8483 5.25078 70.2209C5.38937 70.3685 5.42352 70.4971 5.23973 70.6347C5.13327 70.715 5.02581 70.7994 4.94045 70.8998C4.67129 71.2142 4.42624 71.2774 4.15809 70.8888C4.07875 70.7733 3.9271 70.6959 3.79253 70.6337C3.54748 70.5202 3.2954 70.5202 3.09855 70.7321C2.88665 70.9601 2.96599 71.2132 3.1317 71.416C3.44705 71.8047 3.79454 72.1672 4.11792 72.5499C4.3218 72.7919 4.5317 73.035 4.69238 73.3051C5.07603 73.9519 5.15537 74.6318 4.76068 75.3027C4.37 75.9675 3.75436 76.2507 2.96398 76.2377Z" fill="white"/>
<path d="M28.6693 76.0906C27.9402 76.0906 27.94 76.0906 28.0274 75.4458C28.2725 73.6401 28.5257 71.8363 28.7577 70.0286C28.8049 69.662 28.9354 69.5154 29.3241 69.5315C30.0924 69.5616 30.8627 69.5505 31.632 69.5355C31.9684 69.5294 32.097 69.6319 31.9895 69.9734C31.9503 70.0979 31.9503 70.2375 31.9453 70.3711C31.9353 70.6201 31.8187 70.7236 31.5646 70.7165C31.1468 70.7045 30.7281 70.7236 30.3103 70.7115C30.0733 70.7045 29.9638 70.7728 29.9086 71.0279C29.6846 72.0523 29.6726 72.0503 30.705 72.0503C30.7884 72.0503 30.8727 72.0503 30.9561 72.0503C31.7746 72.0503 31.7916 72.0834 31.6178 72.8959C31.5646 73.1439 31.4492 73.2243 31.2092 73.2152C30.8416 73.2012 30.472 73.2313 30.1054 73.2072C29.7388 73.1831 29.564 73.2845 29.5339 73.6913C29.4887 74.3069 29.3331 74.9145 29.294 75.5302C29.2608 76.0193 29.0589 76.186 28.6693 76.0906Z" fill="white"/>
<path d="M22.5032 76.0901C21.758 76.0901 21.772 76.0921 21.8674 75.4243C22.1235 73.6225 22.3746 71.8208 22.6056 70.0161C22.6498 69.6686 22.7532 69.52 23.1268 69.533C23.8941 69.5591 24.6634 69.5511 25.4317 69.536C25.7511 69.53 25.8756 69.6154 25.8345 69.9649C25.7471 70.7121 25.7641 70.7141 25.0089 70.7151C24.8422 70.7151 24.6745 70.7151 24.5078 70.7151C23.8037 70.7151 23.8037 70.7151 23.6883 71.4161C23.5838 72.0488 23.5838 72.0488 24.2225 72.0508C24.5068 72.0518 24.791 72.0377 25.0742 72.0558C25.26 72.0679 25.6055 71.9584 25.5101 72.323C25.4287 72.6343 25.7079 73.1746 25.0732 73.2068C24.6735 73.2279 24.2707 73.2238 23.871 73.2078C23.5758 73.1967 23.4221 73.26 23.393 73.6065C23.3388 74.2372 23.1771 74.8598 23.1409 75.4905C23.1118 76.0007 22.921 76.1905 22.5032 76.0901Z" fill="white"/>
<path d="M44.7886 78.1644C45.3229 78.1644 45.8582 78.1734 46.3915 78.1614C46.6606 78.1553 46.7279 78.2618 46.7128 78.5209C46.6636 79.3545 46.6727 79.3736 45.815 79.3505C45.3942 79.3384 45.2154 79.4318 45.1652 79.9048C45.0146 81.3149 44.7956 82.7179 44.5958 84.1219C44.5666 84.3268 44.6259 84.6401 44.3959 84.6934C44.0795 84.7667 43.722 84.7627 43.4047 84.6924C43.1847 84.6432 43.3052 84.371 43.3273 84.2043C43.5171 82.7651 43.7029 81.3249 43.9269 79.8898C43.9922 79.473 43.9229 79.2852 43.476 79.3575C43.4438 79.3625 43.4097 79.3585 43.3755 79.3585C42.5972 79.3565 42.4214 79.0763 42.7177 78.3421C42.796 78.1493 42.9407 78.1764 43.0853 78.1644C43.1024 78.1634 43.1184 78.1634 43.1355 78.1634C43.6859 78.1634 44.2372 78.1634 44.7886 78.1644Z" fill="#FEFEFE"/>
<path d="M9.74642 69.5403C10.2978 69.5403 10.8502 69.5483 11.4015 69.5373C11.6857 69.5323 11.7952 69.6297 11.739 69.924C11.5713 70.7957 11.8273 70.7384 10.8532 70.6993C10.354 70.6792 10.2375 70.8851 10.1843 71.3129C10.0075 72.738 9.78961 74.1581 9.61586 75.5842C9.56866 75.9729 9.44312 76.1195 9.03136 76.1004C8.29319 76.0673 8.28817 76.0934 8.39061 75.3452C8.5744 74.0044 8.76421 72.6647 8.95001 71.325C9.03437 70.7184 9.03136 70.7163 8.40768 70.7133C8.39061 70.7133 8.37454 70.7133 8.35747 70.7133C7.65345 70.7113 7.44757 70.3508 7.75991 69.692C7.84929 69.5021 8.00295 69.5443 8.14255 69.5423C8.67583 69.5363 9.21113 69.5403 9.74642 69.5403Z" fill="white"/>
<path d="M34.7872 28.0282C34.7922 27.8022 34.8927 27.6114 34.9891 27.4146C35.5786 26.2195 35.9904 24.95 36.4845 23.7177C37.1915 21.9551 37.8293 20.1564 38.2832 18.3035C38.3073 18.2061 38.3173 18.0986 38.3676 18.0163C38.4921 17.8114 38.4248 17.4127 38.8245 17.4729C39.1248 17.5181 39.3628 18.0363 39.2624 18.3788C39.1037 18.9231 38.9089 19.4574 38.7613 20.0058C38.1115 22.4201 37.0258 24.6708 36.137 26.9948C35.9643 27.4477 35.8096 27.9077 35.6248 28.3556C35.5575 28.5183 35.5786 28.8367 35.3145 28.7764C35.0664 28.7192 34.8344 28.5334 34.7872 28.2291C34.7782 28.1638 34.7872 28.0955 34.7872 28.0282Z" fill="#FEFEFE"/>
<path d="M38.8273 84.7283C38.3794 84.8438 38.291 84.6339 38.3653 84.1368C38.6395 82.3039 38.8654 80.4641 39.1185 78.6282C39.1416 78.4635 39.0874 78.2104 39.3415 78.1833C39.6699 78.1481 40.0134 78.0999 40.3307 78.2214C40.4442 78.2646 40.386 78.4354 40.3699 78.5458C40.1007 80.4811 39.8185 82.4134 39.5634 84.3507C39.5012 84.8207 39.1898 84.7223 38.8273 84.7283Z" fill="#FEFEFE"/>
<path d="M48.8841 84.7297C48.2564 84.7297 48.2493 84.7287 48.3317 84.1341C48.5858 82.2832 48.8429 80.4323 49.104 78.5824C49.1633 78.1636 49.4535 78.0561 50.1113 78.1666C50.5221 78.2359 50.3252 78.5301 50.3011 78.7139C50.0511 80.599 49.7678 82.4801 49.5268 84.3661C49.4625 84.8643 49.1301 84.6935 48.8841 84.7297Z" fill="#FEFEFE"/>
<path d="M34.7584 76.0903C34.1106 76.0893 34.1166 76.0904 34.201 75.4777C34.4571 73.6248 34.7072 71.7719 34.9613 69.9189C34.9834 69.7582 34.9683 69.5503 35.2073 69.5524C35.5347 69.5554 35.8752 69.4529 36.1815 69.6287C36.2257 69.6538 36.2076 69.8155 36.1946 69.9109C35.9234 71.8623 35.6402 73.8125 35.3791 75.7649C35.3148 76.2369 34.9743 76.0411 34.7584 76.0903Z" fill="#FEFEFE"/>
<path fill-rule="evenodd" clip-rule="evenodd" d="M39.2383 41.6634C37.3884 43.195 36.0044 45.0781 34.983 47.2393C34.8525 47.394 34.9469 47.5195 35.0403 47.6411C35.192 47.8399 35.3436 48.0389 35.5033 48.2326C37.2427 50.3488 37.789 52.8022 37.4606 55.4687C37.2698 57.0194 36.5809 58.366 35.5233 59.5201C35.5058 59.5393 35.4876 59.5582 35.4695 59.5773C35.3261 59.7277 35.1817 59.8793 35.3386 60.1227C35.9432 61.2243 36.6191 62.2749 37.4435 63.2309C41.4227 67.8436 48.0993 69.6142 53.8027 67.5534C64.1711 63.8073 67.2382 50.8429 59.6458 42.8596C54.2687 37.2063 45.2581 36.6811 39.2383 41.6634ZM50.2254 62.3673C51.5631 62.3522 52.9009 62.3612 54.2386 62.3612C55.5924 62.3623 56.9472 62.3491 58.303 62.3693C58.7268 62.3762 58.8243 62.1654 58.8222 61.8178C58.8192 61.3278 58.4637 61.2605 58.1002 61.2475C56.907 61.2033 56.208 60.5786 55.8395 59.4637C55.5794 58.6765 55.2985 57.8962 55.0176 57.1158C54.7661 56.4169 54.5145 55.7179 54.2778 55.0137C53.7374 53.4072 53.1757 51.808 52.6142 50.2089C51.6909 47.5793 50.7675 44.9498 49.9382 42.2881C49.7283 41.6153 49.4169 41.5511 48.9208 42.0581C48.3534 42.6376 47.7317 43.1409 46.9564 43.4151C46.7455 43.4894 46.6199 43.5868 46.6189 43.8379C46.6159 44.3641 46.4442 44.8592 46.2594 45.3433C45.6076 47.0544 44.9728 48.7719 44.3378 50.4895C43.2391 53.4618 42.14 56.4344 40.9537 59.3744C40.4977 60.5043 39.8489 61.2706 38.5514 61.2856C38.1416 61.2907 37.9397 61.4835 37.9759 61.9133C38.0141 62.3612 38.3123 62.3914 38.6558 62.3742C40.5781 62.2789 42.5013 62.2969 44.4235 62.3633C44.7329 62.3733 44.9608 62.312 44.9819 61.9565C45.002 61.608 44.9287 61.3298 44.5059 61.2715C44.1253 61.2193 43.7456 61.1501 43.373 61.0567C42.6821 60.8829 42.5555 60.7092 42.7654 60.0212C43.0759 59.0048 43.4109 57.9958 43.746 56.9869C43.8695 56.6152 43.993 56.2435 44.1152 55.8713C44.2076 55.5912 44.3864 55.4115 44.6997 55.4115C44.9992 55.4119 45.2987 55.4121 45.5983 55.4124C46.8878 55.4135 48.1778 55.4147 49.4672 55.4245C49.7895 55.4265 50.0597 55.5651 50.1641 55.8996C50.6281 57.3839 51.0871 58.8693 51.5451 60.3557C51.6716 60.7653 51.4838 61.0064 51.0971 61.0988C50.7727 61.1762 50.4413 61.2304 50.1109 61.2776C49.7323 61.3318 49.5304 61.5247 49.5776 61.9163C49.6238 62.3 49.8769 62.3713 50.2254 62.3673Z" fill="#F39F52"/>
<path fill-rule="evenodd" clip-rule="evenodd" d="M25.3043 38.3593C26.9735 36.6791 28.0672 34.6614 28.7662 32.4148C28.7842 32.3815 28.8007 32.3512 28.8162 32.3231C28.8893 32.1897 28.9354 32.1057 28.9761 31.973C29.1448 31.4217 29.2874 30.8663 29.3065 30.2848C29.3065 30.1867 29.2954 30.1643 29.2523 30.121C29.2551 30.0623 29.2572 30.0036 29.2593 29.9448C29.2636 29.8199 29.268 29.6951 29.2804 29.5706C29.5104 27.2165 29.2934 24.9167 28.3132 22.7434C26.615 18.9773 23.7216 16.8803 19.5567 16.6503C17.5752 16.5408 15.7152 17.0701 13.9055 17.8203C12.8228 18.2702 11.7864 18.8126 10.759 19.375C10.303 19.625 10.0349 19.4764 9.96356 18.9572C9.94566 18.831 9.94801 18.7027 9.95036 18.5747C9.95078 18.5518 9.9512 18.529 9.9515 18.5062C9.95966 17.8107 10.0438 17.1225 10.128 16.4335C10.1371 16.3585 10.1463 16.2834 10.1554 16.2084C10.1845 15.9613 10.1604 15.7364 9.92137 15.5958C9.68838 15.4582 9.46542 15.4371 9.22037 15.6018C7.40961 16.818 5.48536 17.8233 3.49785 18.7141C2.97661 18.9481 2.90129 19.626 3.34218 19.9916C3.52195 20.1402 3.7198 20.2708 3.92367 20.3853C5.06657 21.027 5.47632 22.0002 5.47231 23.3008C5.45096 30.5791 5.45335 37.858 5.45574 45.1366C5.45649 47.4444 5.45724 49.7523 5.45724 52.06C5.45724 52.8634 5.43113 53.6639 5.27346 54.4573C5.12381 55.2135 4.68393 55.6886 3.93773 55.8462C3.54055 55.9305 3.13832 55.9917 2.736 56.0529C2.5432 56.0823 2.3504 56.1117 2.1581 56.1435C1.70316 56.2188 1.50832 56.5051 1.56255 57.0132C1.62181 57.5676 1.80559 57.7564 2.29971 57.7393C2.70106 57.7258 3.10227 57.7085 3.50343 57.6913C4.13823 57.664 4.77294 57.6368 5.40803 57.6238C8.35265 57.5646 11.2953 57.6279 14.2379 57.7434C14.2754 57.7449 14.3138 57.7481 14.3527 57.7515C14.5336 57.767 14.7217 57.7831 14.8465 57.6128C15.0896 57.2814 15.1237 56.9088 15.0032 56.5151C14.9057 56.1974 14.6573 56.1685 14.403 56.1389C14.3745 56.1356 14.3458 56.1323 14.3173 56.1284C14.0677 56.0949 13.8175 56.0651 13.5673 56.0351C12.9043 55.956 12.2412 55.8768 11.5886 55.7287C10.8825 55.569 10.4466 55.1402 10.2809 54.4322C10.1393 53.8266 10.0821 53.2099 10.0801 52.5913C10.0725 50.6469 10.0701 48.703 10.0677 46.7593C10.0666 45.8758 10.0656 44.9924 10.064 44.1089C10.063 43.7564 10.073 43.4019 10.2066 43.0715C10.3653 42.6788 10.6395 42.4428 11.0975 42.501C13.8965 42.8546 16.6703 42.7913 19.396 41.9758C19.5999 42.0993 19.8018 42.0752 20.0187 41.9969C21.4076 41.4937 22.7032 40.8188 23.8873 39.929C24.1263 39.7492 24.295 39.5414 24.3613 39.2511C24.4603 39.1578 24.5604 39.0652 24.6604 38.9727C24.878 38.7713 25.0958 38.5698 25.3043 38.3593ZM14.0963 40.3138C15.7162 40.7506 17.3282 40.827 18.9119 40.1521C19.0445 40.0054 19.16 39.8347 19.1168 39.6349C19.0236 39.2087 19.0732 38.7887 19.1228 38.3681C19.1337 38.2762 19.1445 38.1842 19.154 38.0922C19.3759 35.8948 20.2969 34.076 22.0373 32.6831C22.526 32.2919 23.0623 31.9805 23.5988 31.6691C23.8186 31.5417 24.0383 31.4141 24.2548 31.2811C24.4708 29.1379 24.291 27.0379 23.5046 25.0182C21.2098 19.1229 15.5435 18.7262 11.7814 20.6203C10.8493 21.0893 10.3321 21.8255 10.1865 22.8408C10.1798 22.8871 10.1728 22.9334 10.1659 22.9797C10.128 23.2315 10.0899 23.4849 10.0891 23.7377C10.0884 24.031 10.0876 24.3244 10.0869 24.6177C10.0775 28.4382 10.068 32.2593 10.081 36.0806C10.0851 37.1874 10.543 38.1063 11.3837 38.8535C12.1781 39.5605 13.081 40.0396 14.0963 40.3138Z" fill="#0C72BA"/>
<path d="M18.912 40.1527C18.669 37.8067 19.1028 35.6364 20.6002 33.7533C21.4669 32.6626 22.5657 31.8642 23.821 31.2767C23.9566 31.2134 24.1143 31.0648 24.2549 31.2817C24.04 33.677 23.4444 35.9437 21.942 37.883C21.1446 38.9134 20.1784 39.74 18.912 40.1527Z" fill="#A1C482"/>
<path fill-rule="evenodd" clip-rule="evenodd" d="M58.1249 24.9458C58.2385 24.7803 58.3573 24.607 58.5938 24.5055C58.651 24.849 58.5727 25.1532 58.5245 25.4555C58.417 26.0481 58.2704 26.6336 58.1881 27.2291C58.1137 27.7614 58.3759 28.1953 58.8158 28.373C59.2653 28.5546 59.5372 28.2632 59.8041 27.9772L59.805 27.9763C60.2278 27.5234 60.6074 27.0343 60.9479 26.5181C61.3647 25.8874 61.8538 25.3169 62.368 24.7676C62.5026 24.623 62.6612 24.4452 62.8792 24.5165C63.065 24.5778 63.0208 24.8037 63.0459 24.9564C63.0763 25.1369 63.0943 25.3196 63.1123 25.5022C63.137 25.7534 63.1616 26.0042 63.2186 26.2479C63.2337 26.3121 63.2482 26.3765 63.2629 26.441C63.4361 27.2037 63.6112 27.9744 64.466 28.3439C65.1057 28.6201 65.6601 28.4082 66.2376 28.136C67.0018 27.7745 67.5733 27.201 68.1126 26.5793C68.3446 26.3122 68.439 25.9065 68.2341 25.7126C68.0383 25.5278 67.7792 25.8743 67.6044 26.0601C67.5638 26.1033 67.5234 26.1467 67.4828 26.1902C67.0984 26.6016 66.7091 27.0184 66.2285 27.2964C64.8426 28.0989 64.2872 27.9573 64.006 26.3263C63.9337 25.9102 63.8892 25.4892 63.8446 25.0683C63.8222 24.8573 63.7998 24.6464 63.774 24.4362C63.7389 24.152 63.5993 23.9481 63.3411 23.8035C62.6191 23.3987 62.1681 23.4701 61.665 24.166L61.658 24.1754C61.0628 24.9988 60.4683 25.8211 59.8191 26.6045C59.6172 26.8485 59.4113 27.0775 59.0759 27.187C59.0523 26.8972 59.1269 26.6372 59.2002 26.3817C59.2425 26.2342 59.2845 26.0881 59.3069 25.9386C59.3317 25.7724 59.3682 25.6074 59.4049 25.4423C59.505 24.9909 59.6051 24.5396 59.4625 24.0646C59.2787 23.454 58.5627 23.232 58.0906 23.6277C57.8469 23.8324 57.6447 24.0728 57.4236 24.3357C57.343 24.4314 57.2601 24.53 57.1717 24.631C57.1717 24.5793 57.1689 24.5372 57.1667 24.5022C57.1627 24.4427 57.1602 24.4035 57.1747 24.3719C57.33 24.0285 57.3614 23.6637 57.3929 23.2992C57.4103 23.0978 57.4277 22.8964 57.466 22.6987C57.5262 22.3864 57.4439 22.1082 57.1767 21.8943C56.8312 21.6181 56.7318 21.6452 56.6314 22.0841C56.5351 22.505 56.4578 22.9291 56.3805 23.3534C56.2997 23.7968 56.2188 24.2404 56.1162 24.6813C55.8199 25.9557 55.0315 26.6346 53.9389 27.0785C52.6564 27.5997 51.9614 27.0785 52.0267 25.6915C52.0407 25.3742 52.0899 25.0588 52.101 24.7425C52.112 24.4271 51.884 24.2695 51.642 24.1399C51.4853 24.0565 51.3869 24.164 51.3166 24.2845C50.9539 24.9076 50.4397 25.3931 49.9258 25.8782C49.7596 26.0351 49.5935 26.1919 49.4325 26.3534C48.9444 26.8425 48.3881 27.2462 47.6871 27.3808C47.2452 27.4661 47.1467 27.3577 47.3275 26.9389C47.8337 25.7709 48.6351 24.8399 49.7308 24.1951C49.999 24.0375 50.3595 23.8276 50.6939 24.162C50.7321 24.2002 50.8275 24.2313 50.8677 24.2102C50.9721 24.156 50.9621 24.0375 50.938 23.9431C50.7251 23.1035 50.3585 22.6214 49.4155 23.1607C48.9803 23.4097 48.6333 23.7572 48.2872 24.1038C48.0806 24.3107 47.8744 24.5173 47.6499 24.7023C46.4327 25.7056 45.0277 26.4237 43.5975 27.0775C42.7931 27.4451 41.9716 27.7946 41.0576 27.7785C40.2211 27.7644 39.7651 26.968 40.1729 26.2489C40.2291 26.1495 40.2813 26.0752 40.3968 26.1606C40.781 26.4435 41.0768 26.2143 41.3629 25.9926L41.373 25.9848C41.9726 25.5188 42.4466 24.9343 42.9005 24.3318C43.0984 24.0676 43.1717 23.7582 43.1868 23.4379C43.2038 23.0703 43.1185 22.7429 42.777 22.529C42.4376 22.3161 42.1594 22.5039 41.8972 22.6736C40.6409 23.4861 39.7571 24.6049 39.3543 26.043C38.9516 27.4832 39.9981 29.0851 41.836 28.6472C43.1285 28.3389 44.3588 27.8689 45.4997 27.1809C45.7476 27.031 45.9967 26.882 46.2577 26.7259L46.5883 26.5281C46.5883 26.674 46.5861 26.7839 46.5869 26.8843C46.5872 26.9215 46.5879 26.9573 46.5894 26.9931C46.6416 28.3228 47.5123 28.822 48.6803 28.1892C49.1403 27.9402 49.531 27.5997 49.9066 27.2402C50.3324 26.8334 50.7592 26.4277 51.2162 25.9938C51.2518 26.1033 51.2857 26.2136 51.3194 26.3234C51.5511 27.0787 51.7768 27.8143 52.565 28.1159C53.4327 28.4484 54.2462 28.0788 55.0074 27.6369C55.0549 27.7738 55.0209 27.8701 54.9896 27.9589C54.9751 27.9997 54.9612 28.0389 54.9562 28.0798C54.902 28.5076 55.2063 28.6824 55.5176 28.8059C55.8063 28.92 55.8688 28.7073 55.9234 28.5215C55.935 28.4817 55.9464 28.443 55.9595 28.4092C56.4356 27.1739 57.2028 26.1214 58.0153 25.098C58.0537 25.0498 58.089 24.9982 58.1249 24.9458ZM42.0539 23.8296C41.8369 24.3659 41.4383 24.7385 40.907 25.1482C41.0937 24.4382 41.5145 24.0827 42.0539 23.8296Z" fill="white"/>
<path fill-rule="evenodd" clip-rule="evenodd" d="M66.2592 75.9906C66.0802 75.986 65.8989 76.0168 65.7202 76.0472C65.2812 76.1218 64.8576 76.194 64.5207 75.7315C64.419 75.5918 64.3048 75.6639 64.1988 75.7309C64.1729 75.7471 64.1476 75.7631 64.123 75.7757C63.6431 76.0227 63.1449 76.2056 62.5986 76.2327C61.8303 76.2708 61.1735 75.8872 60.8973 75.2354C60.6322 74.6097 60.8048 73.8886 61.3632 73.3644C61.545 73.1936 61.7359 73.0149 61.9558 72.9044C62.3033 72.7286 62.3193 72.5428 62.1687 72.1944C61.6625 71.0184 62.2772 69.9729 63.5336 69.8121C64.6272 69.6716 65.4157 70.5904 65.1124 71.65C64.9728 72.1371 64.6785 72.5168 64.2688 72.799C64.0358 72.9596 64.0026 73.1082 64.1904 73.3182C64.2678 73.4045 64.3391 73.5009 64.3952 73.6034C64.5841 73.9448 64.802 74.0603 65.1164 73.7349C65.4026 73.4377 65.6216 73.4709 65.8475 73.8424C65.8757 73.889 65.9064 73.9343 65.9363 73.9785C66.1043 74.2267 66.249 74.4405 65.8084 74.6579C65.4759 74.8227 65.4326 75.0164 65.723 75.2957C65.8675 75.4339 65.9841 75.6014 66.1008 75.7691C66.1527 75.8439 66.2048 75.9185 66.2592 75.9906ZM62.467 75.0948C62.229 75.0777 61.991 74.9632 61.983 74.6047C61.9769 74.3435 62.6398 73.7058 62.8989 73.7068C62.9943 73.7068 63.623 74.4942 63.624 74.6147C63.626 74.7764 62.8999 75.0998 62.467 75.0948ZM64.0016 71.2614C63.9775 71.0263 63.8128 70.9731 63.6059 70.963C63.2966 71.0124 63.1339 71.194 63.1781 71.5125C63.1813 71.536 63.1839 71.5606 63.1865 71.5856C63.2045 71.7555 63.2247 71.945 63.4532 71.9704C63.6381 71.9915 64.0227 71.4683 64.0016 71.2614Z" fill="white"/>
<path fill-rule="evenodd" clip-rule="evenodd" d="M25.2785 82.6373C25.3122 82.4228 25.346 82.2083 25.3768 81.9935L25.5033 81.9815C25.8227 82.6402 26.1431 83.2991 26.4614 83.9579C26.8554 84.7718 26.86 84.7716 27.7396 84.7367L27.7781 84.7353C28.1015 84.7222 28.0995 84.6138 27.981 84.3758C27.8422 84.0961 27.7067 83.8148 27.5712 83.5335C27.3734 83.1228 27.1756 82.7121 26.9676 82.3068C26.7979 81.9764 26.7507 81.7857 27.1976 81.622C28.0312 81.3167 28.4449 80.5213 28.3124 79.6564C28.1898 78.857 27.5732 78.2966 26.6804 78.2184C26.1652 78.1731 25.6429 78.2053 25.1287 78.1551C24.7029 78.1128 24.5914 78.3078 24.5432 78.6824C24.3953 79.8334 24.238 80.9831 24.0808 82.133C23.9914 82.7871 23.9019 83.4412 23.8141 84.0956C23.7326 84.6992 23.7372 84.6995 24.3074 84.734L24.3936 84.7393C24.8556 84.7684 25.0404 84.6349 25.0785 84.1567C25.1194 83.6484 25.1989 83.143 25.2785 82.6373ZM25.8182 80.7469C25.8628 80.7414 25.9061 80.7359 25.9412 80.7451C26.7396 80.716 27.0911 80.4659 27.0701 79.9577C27.052 79.5189 26.6744 79.2959 26.0065 79.33C25.7414 79.3441 25.5425 79.9236 25.5686 80.5392C25.5788 80.7771 25.7025 80.7615 25.8182 80.7469Z" fill="white"/>
<path fill-rule="evenodd" clip-rule="evenodd" d="M2.83353 82.4856L2.91812 81.863C3.02057 81.9995 3.0567 82.0357 3.07882 82.0809C3.17214 82.2681 3.27061 82.4534 3.36903 82.6388C3.60122 83.0758 3.83342 83.5127 3.99774 83.974C4.22274 84.6077 4.58229 84.7995 5.22503 84.7473C5.66387 84.7112 5.63681 84.5937 5.47611 84.2803C5.32821 83.9928 5.18884 83.7003 5.04947 83.4079C4.86523 83.0211 4.68095 82.6344 4.47681 82.2587C4.281 81.8981 4.34828 81.7726 4.72586 81.629C5.57149 81.3076 5.97223 80.5634 5.8537 79.6686C5.74925 78.8822 5.12357 78.3057 4.22774 78.2234C3.90702 78.194 3.58426 78.1884 3.26144 78.1827C3.03229 78.1787 2.80312 78.1747 2.57465 78.1621C2.27037 78.145 2.12974 78.2374 2.0956 78.5668C2.03583 79.1457 1.95486 79.7225 1.87385 80.2995C1.8433 80.5173 1.8127 80.7351 1.78328 80.9531C1.63361 82.0628 1.47895 83.1716 1.33835 84.2823C1.33487 84.3102 1.32825 84.3399 1.32148 84.3701C1.29304 84.4971 1.2618 84.6367 1.4458 84.7162C1.99517 84.9542 2.53449 84.667 2.61482 84.0885C2.68656 83.5687 2.75718 83.0483 2.83353 82.4856ZM3.36569 80.7489C3.4137 80.7421 3.46058 80.7354 3.49863 80.7452C4.26589 80.705 4.62543 80.4579 4.61941 79.9889C4.61441 79.5531 4.22573 79.309 3.57195 79.3311C3.26664 79.3412 3.0949 79.8132 3.10295 80.5152C3.10657 80.7855 3.24006 80.7667 3.36569 80.7489Z" fill="white"/>
<path fill-rule="evenodd" clip-rule="evenodd" d="M17.774 75.5184C17.8132 75.9633 17.998 76.2123 18.4158 76.0898C19.1379 76.0898 19.1439 76.0888 18.9932 75.4812C18.5363 73.6504 18.0753 71.8195 17.6123 69.9897C17.6043 69.9582 17.5977 69.925 17.591 69.8913C17.5548 69.7102 17.5166 69.5191 17.2499 69.5478C17.1591 69.5575 17.0637 69.5489 16.9682 69.5402C16.7096 69.5167 16.45 69.4932 16.2806 69.835C16.0792 70.242 15.8583 70.6397 15.6374 71.0373C15.5334 71.2245 15.4295 71.4116 15.3275 71.5996C14.5874 72.9655 13.8532 74.3353 13.1071 75.6982C12.9403 76.0015 12.9996 76.0647 13.344 76.1029C14.007 76.1773 14.4789 76.0155 14.6809 75.3296C14.6973 75.2733 14.7303 75.2221 14.7633 75.1708C14.7946 75.1222 14.8259 75.0735 14.8435 75.0203C14.934 74.7491 15.1227 74.6898 15.3879 74.6979C15.9392 74.7139 16.4935 74.727 17.043 74.6939C17.4275 74.6708 17.6456 74.7802 17.6877 75.1799C17.6998 75.2945 17.764 75.4039 17.774 75.5184ZM17.1826 73.2145C17.053 72.6722 16.9205 72.1319 16.7548 71.4519C16.6773 71.5947 16.6069 71.7233 16.5414 71.8428C16.4118 72.0796 16.3018 72.2804 16.1964 72.4834C16.1484 72.5763 16.0792 72.6771 16.0098 72.7782C15.8495 73.0117 15.6882 73.2467 15.7856 73.3882C15.9163 73.578 16.1766 73.5471 16.4444 73.5153C16.5863 73.4985 16.7303 73.4814 16.8582 73.4967C16.8771 73.4991 16.8966 73.498 16.9162 73.4969C16.93 73.4961 16.944 73.4953 16.9576 73.4957C17.1595 73.5027 17.2278 73.4003 17.1826 73.2145Z" fill="white"/>
<path d="M47.1969 46.9805C47.3285 47.335 47.4701 47.6855 47.5886 48.044C48.1249 49.661 48.6602 51.2779 49.1825 52.8988C49.4195 53.636 49.2929 53.8007 48.5186 53.8047C47.5163 53.8107 46.514 53.8087 45.5117 53.7987C45.1321 53.7947 44.8117 53.6701 44.9563 53.2001C45.5951 51.1112 46.3041 49.0443 47.1969 46.9805Z" fill="#F39F52"/>
</g>
<defs>
<clipPath id="clip0_4396_2031">
<rect width="67.3888" height="70" fill="white" transform="translate(1 15)"/>
</clipPath>
</defs>
</svg>
