<svg width="55" height="55" viewBox="0 0 55 55" fill="none" xmlns="http://www.w3.org/2000/svg">
<path d="M41.5249 37.3312C41.7549 37.806 41.9151 38.3116 42.0005 38.8322C42.1265 39.5541 42.1723 40.3505 42.2755 41.2442C42.3094 41.6078 42.363 41.9692 42.4359 42.327C42.4359 42.4244 42.4874 42.5275 42.5275 42.6479C42.5688 42.7733 42.6186 42.8958 42.6765 43.0145C42.7476 43.1608 42.834 43.2991 42.9343 43.427C43.1127 43.6415 43.336 43.8142 43.5885 43.9329C43.8409 44.0517 44.1163 44.1137 44.3952 44.1145C44.7396 44.1128 45.0768 44.0156 45.3692 43.8338C45.75 43.5712 46.0481 43.2055 46.2286 42.7796C46.4551 42.2477 46.6056 41.6864 46.6755 41.1124L46.727 40.7286C46.727 40.677 46.727 40.5854 46.727 40.5624V40.1958C46.727 39.9895 46.727 39.7489 46.727 39.4968C46.7215 39.3861 46.7215 39.2752 46.727 39.1645C46.727 38.8895 46.9963 38.6775 47.1911 38.8494C47.3654 39.0185 47.497 39.2267 47.5749 39.4567C47.6689 39.7261 47.7435 40.0018 47.7984 40.2817L47.8442 40.4536V40.5452L47.9187 40.7458C48.0103 40.9921 48.1077 41.2385 48.1994 41.4906C48.2567 41.6281 48.3885 41.6452 48.5775 41.6739C48.703 41.6848 48.8295 41.6696 48.9488 41.6291C49.0681 41.5887 49.1777 41.524 49.2708 41.439C49.5204 41.2098 49.7161 40.928 49.8437 40.614C49.9338 40.4535 50.0031 40.2821 50.0499 40.1041C50.056 39.7795 50.0292 39.4551 49.9697 39.1359C49.8837 38.659 49.767 38.1883 49.6202 37.7265C49.4858 37.3188 49.2928 36.9328 49.0473 36.5807C48.8633 36.2946 48.6417 36.0344 48.3885 35.8072C48.1857 35.6325 47.9602 35.486 47.7182 35.3718C47.4841 35.2679 47.2343 35.204 46.9791 35.1828C46.6783 35.1553 46.3751 35.1944 46.0911 35.2973C45.955 35.353 45.8229 35.4181 45.6958 35.4921C45.6075 35.5576 45.5233 35.6284 45.4437 35.7041C45.29 35.8672 45.1537 36.0457 45.0369 36.2369C44.9453 36.4222 44.8668 36.6136 44.802 36.8098C44.7278 37.0715 44.6817 37.3404 44.6645 37.6119C44.6072 38.1848 44.6072 38.8437 44.5843 39.4166V39.915L44.5557 40.3218C44.5557 40.4937 44.527 40.6598 44.5041 40.826C44.465 41.1236 44.3919 41.4158 44.2864 41.6968C44.2611 41.7755 44.2224 41.8492 44.1718 41.9145C44.1374 41.9145 44.2291 41.9604 44.2807 42.0234L44.3609 42.1265L44.4067 42.1838C44.4193 42.2061 44.4308 42.2291 44.4411 42.2525V42.1551V42.0864C44.4411 42.052 44.3781 42.3843 44.4124 42.2411C44.4124 42.1953 44.4124 42.2411 44.4755 42.1666L44.5442 42.1036H44.5786L44.6416 42.0578C44.6907 42.0141 44.7469 41.9792 44.8077 41.9546C44.8051 41.926 44.8051 41.8973 44.8077 41.8687C44.725 41.5556 44.6732 41.2351 44.6531 40.9119L44.5614 39.6973C44.5202 38.7964 44.3701 37.9039 44.1145 37.039C43.8842 36.3797 43.4586 35.8061 42.8942 35.3947C42.591 35.1926 42.2499 35.0542 41.8916 34.988C41.528 34.9021 41.1494 34.9021 40.7859 34.988C40.27 35.1237 39.8056 35.4087 39.451 35.8072C39.1503 36.1385 38.8924 36.5061 38.6833 36.9015C38.3058 37.6194 37.9728 38.3599 37.6864 39.1187C37.2378 40.2163 36.731 41.2892 36.1682 42.3328C36.0536 42.5562 35.9104 42.7567 35.8015 42.9572C35.6067 43.3411 35.5093 43.5703 35.5666 43.7765C35.6873 44.0537 35.8582 44.3062 36.0708 44.5213C36.1853 44.6588 36.2827 44.8192 36.3916 44.9624C36.4794 45.0834 36.5999 45.1767 36.7389 45.2316C36.878 45.2864 37.0298 45.3003 37.1765 45.2718C37.3676 45.2429 37.5511 45.1764 37.7163 45.0761C37.8815 44.9758 38.0252 44.8437 38.139 44.6874C38.7779 43.7206 39.2702 42.6646 39.5999 41.5536C39.938 40.5223 40.2072 39.4911 40.5395 38.5973C40.6531 38.2963 40.7831 38.0018 40.9291 37.715C41.0199 37.5462 41.1273 37.3869 41.2499 37.2395C41.2958 37.1937 41.2499 37.165 41.3244 37.2395C41.3989 37.314 41.4333 37.3312 41.4791 37.4114L41.5249 37.3312Z" fill="#F39F51"/>
<path d="M14.6327 26.3542L13.3551 25.4719L12.1176 24.538C11.6937 24.2401 11.3098 23.9078 10.9088 23.5812C10.5077 23.2547 10.1182 22.9281 9.76294 22.5844C9.03189 21.9451 8.35187 21.2498 7.72909 20.5047C7.18427 19.8676 6.76968 19.1299 6.50878 18.3333C6.36905 17.845 6.34745 17.3305 6.44576 16.8323C6.56951 16.3374 6.79378 15.8732 7.10461 15.4687C7.82302 14.5849 8.72142 13.8643 9.74002 13.3547C10.8924 12.7578 12.1091 12.2946 13.3666 11.9739C16.0126 11.3137 18.729 10.9771 21.4562 10.9713C23.9153 10.975 26.3719 11.1281 28.8124 11.4297C31.9405 11.8021 35.0744 12.3177 38.1796 12.9594C39.1478 13.1427 39.0447 13.0167 38.2713 12.6614C37.8874 12.4838 37.3317 12.2489 36.6556 11.9739C35.9796 11.6989 35.1775 11.401 34.2952 11.1432L31.9348 10.4557C31.1442 10.2495 30.3478 10.0318 29.5458 9.83696C27.9298 9.43233 26.2899 9.12999 24.6359 8.93176C21.2979 8.4762 17.9134 8.4762 14.5754 8.93176C12.4671 9.21387 10.3972 9.73277 8.40513 10.4786C7.32336 10.9069 6.3145 11.5002 5.4145 12.2375C4.41025 13.048 3.64083 14.1121 3.18586 15.3198C2.71436 16.6939 2.6903 18.1821 3.11711 19.5708C3.50544 20.8177 4.11906 21.9827 4.92752 23.0083C6.40773 24.7968 8.07698 26.4199 9.90617 27.8495C12.0934 29.5721 14.4154 31.1163 16.8499 32.4672C20.5253 34.4909 24.4021 36.1249 28.4171 37.3427C29.1791 37.6292 29.9583 37.8239 30.7088 38.0646C31.4593 38.3052 32.2385 38.563 33.0004 38.7578C34.553 39.1245 36.0999 39.6057 37.7041 39.8291C38.403 39.9495 39.0848 40.1041 39.801 40.2015C40.3573 40.2762 40.9198 40.2935 41.4796 40.2531C41.8675 40.2427 42.2526 40.183 42.6254 40.0755C42.8983 40.0028 43.1521 39.8719 43.3697 39.692C43.5872 39.512 43.7633 39.2871 43.8859 39.0328C44.0284 38.803 44.151 38.5615 44.2525 38.3109C44.4931 37.4974 43.4619 36.764 41.6687 36.3974C40.3338 36.1739 39.0046 35.8245 37.6583 35.5896C36.9822 35.4807 36.3176 35.3031 35.6473 35.137L33.6364 34.6729C30.9392 33.9819 28.2857 33.1305 25.69 32.1234C21.8049 30.6242 18.1138 28.6642 14.6958 26.2854L14.6327 26.3542Z" fill="#F39F51"/>
<path d="M40.9065 46.4063C43.1089 45.9878 45.2683 45.3684 47.3576 44.5558C48.1864 44.2586 48.9815 43.8745 49.7295 43.41C50.5584 42.89 51.2175 42.1393 51.6258 41.2501C51.8464 40.7055 51.908 40.1095 51.8034 39.5313C51.7038 39.0055 51.4886 38.5085 51.1732 38.0761C50.9363 37.7638 50.6839 37.4636 50.417 37.1766C50.1706 36.9074 49.9013 36.6553 49.6493 36.3975C49.1107 35.899 48.5722 35.4178 48.005 34.9881C47.0138 34.1975 45.9998 33.4871 45.0659 32.748C43.8571 31.7969 42.8201 30.7886 41.6284 29.8834C41.2618 29.6027 40.8493 30.0037 40.6888 30.6969C40.5907 31.1208 40.5979 31.5623 40.7097 31.9827C40.8216 32.4032 41.0347 32.7898 41.3305 33.1089C42.4996 34.2319 43.7397 35.2787 45.043 36.2428C46.2412 37.1003 47.3889 38.0261 48.4805 39.0157C48.7256 39.2211 48.9381 39.4626 49.1107 39.7318C49.1473 39.7996 49.1665 39.8754 49.1665 39.9524C49.1665 40.0294 49.1473 40.1052 49.1107 40.173C48.9837 40.4054 48.8005 40.6024 48.5779 40.7459C48.2555 40.9812 47.9122 41.1864 47.5524 41.3589C45.7285 42.2231 43.8039 42.8563 41.8232 43.2438C41.1987 43.3756 40.5628 43.4959 39.9326 43.6048L38.9758 43.7537L38.3743 43.8397C38.1164 43.8397 37.8414 43.9027 37.5607 43.9084C37.3774 43.9542 37.3487 43.7709 37.3487 43.6506C37.3375 43.5171 37.3375 43.383 37.3487 43.2495C37.3878 42.9616 37.4452 42.6765 37.5206 42.3959C37.6467 41.9318 37.7899 41.462 37.9446 40.998C38.4258 39.56 39.0904 38.2079 39.7206 36.8157C39.8581 36.5063 40.0185 36.2428 40.1388 35.899C40.5914 34.7246 40.5342 34.2548 39.8638 33.7563C39.72 33.6354 39.5667 33.5262 39.4055 33.4298C38.8326 33.149 38.2597 33.4298 37.7784 34.249C37.0623 35.4628 36.4343 36.7265 35.8993 38.0303C35.6243 38.6949 35.355 39.3766 35.1258 40.0813C35.0112 40.4308 34.9024 40.7917 34.7993 41.1584L34.6331 41.76C34.5472 42.1037 34.4555 42.4475 34.3925 42.7969C34.1748 43.8282 34.0888 44.8709 34.444 45.5641L34.5644 45.8334C34.6122 45.9221 34.6678 46.0065 34.7305 46.0855L34.7821 46.1428V46.1772C34.7821 46.1485 34.7248 46.2344 34.8508 46.1199L34.9597 46.2115L35.1602 46.3777C35.2891 46.5107 35.4379 46.6228 35.6013 46.71C35.8111 46.7868 36.0313 46.8312 36.2545 46.8417C36.7655 46.8814 37.2788 46.8814 37.7899 46.8417L38.5805 46.7615L39.205 46.687C39.7779 46.6126 40.3164 46.5266 40.8664 46.435L40.9065 46.4063Z" fill="#F39F51"/>
</svg>
