<svg width="147" height="148" viewBox="0 0 147 148" fill="none" xmlns="http://www.w3.org/2000/svg">
<g clip-path="url(#clip0_255_1586)">
<path d="M45.4632 109.465C45.5969 109.086 45.6869 108.693 45.7316 108.293C45.7773 108.272 45.8263 108.259 45.8765 108.254C46.0097 108.171 46.1359 108.076 46.2538 107.972C46.4314 107.717 46.1565 108.14 46.1512 108.362C46.1512 108.362 45.999 108.325 45.7751 108.359L45.6423 108.395C45.6423 108.395 45.6423 108.395 45.5095 108.43C45.1427 108.618 44.7951 108.841 44.4716 109.097C43.1077 110.195 41.6834 111.216 40.2053 112.155C39.0814 112.833 37.8059 113.219 36.4947 113.279C36.1035 113.267 35.715 113.21 35.3366 113.11C34.7845 112.949 34.2907 112.632 33.9144 112.197C33.1768 111.135 32.857 109.839 33.0162 108.556C33.1006 108.016 33.2506 107.489 33.4629 106.987C33.7183 106.491 33.9891 106.004 34.3467 105.456C35.2879 104.042 36.43 102.772 37.7369 101.687C38.0581 101.414 38.365 101.125 38.6562 100.82C38.8886 100.576 39.2079 100.271 39.1797 100.214C39.2454 100.111 39.2851 99.9936 39.2952 99.8721C39.3031 99.818 39.3197 99.7655 39.3442 99.7166L39.3431 99.471L39.3314 99.1377L39.5487 99.0795C39.6405 99.0245 39.7277 98.9622 39.8094 98.8931C39.7552 99.0367 39.7171 99.1858 39.6956 99.3377C39.7118 99.3981 39.6231 99.3572 39.4903 99.3927C38.4657 99.7021 37.4948 100.167 36.6118 100.772C35.5762 101.399 34.523 102.057 33.3965 102.682C32.6844 103.067 32.3383 102.5 32.3789 101.492C32.4544 100.123 33.0278 98.8275 33.9914 97.8509C34.5294 97.3476 35.0933 96.8725 35.6806 96.4277C36.366 95.8981 37.1208 95.4651 37.924 95.1408C38.5368 94.8923 39.1907 94.761 39.8519 94.7536C40.3611 94.7514 40.8666 94.8394 41.3451 95.0135C41.9334 95.2145 42.4665 95.5502 42.9019 95.994C43.551 96.6702 44.0006 97.5125 44.2012 98.4281C44.2651 98.7282 44.3077 99.0325 44.3287 99.3386C44.3505 99.6286 44.3463 99.9199 44.316 100.209C44.2883 100.54 44.2484 100.874 44.1932 101.2C44.1178 101.505 44.0257 101.806 43.9173 102.102L43.7487 102.535C43.6463 102.394 43.6463 102.394 43.6463 102.394L43.504 102.588L43.1901 102.672C42.7535 102.88 42.3338 103.123 41.9349 103.396C41.2059 103.864 40.9604 104.589 41.2049 105.067C41.3695 105.295 41.7011 105.18 41.9175 105.071L42.5299 104.699C42.9906 104.375 43.4864 104.103 44.008 103.889C44.1046 103.863 44.1167 103.86 44.5514 103.744C44.986 103.627 45.1745 103.654 45.4893 103.622C45.8227 103.596 46.1578 103.602 46.4901 103.638C46.8606 103.654 47.227 103.722 47.579 103.838C47.9621 103.957 48.3286 104.124 48.6698 104.335C49.596 104.983 50.2478 105.953 50.4985 107.055C50.8217 108.437 50.7896 109.88 50.4053 111.247C50.2294 111.927 49.9706 112.583 49.6346 113.2C49.5253 113.372 49.4731 113.515 49.3309 113.709C49.1886 113.902 49.0463 114.095 48.9273 114.231C48.7005 114.476 48.4604 114.709 48.2083 114.928C47.4304 115.551 46.7191 115.987 45.9324 116.625C45.5565 116.915 45.2106 117.242 44.8997 117.601C44.5989 117.927 44.2831 118.439 44.6201 118.827C44.9572 119.216 45.4022 118.993 45.7942 118.862C46.1861 118.731 46.6135 118.539 46.9627 118.394C47.5772 118.117 48.2253 117.921 48.8905 117.812L49.132 117.748L49.4146 117.788C49.8048 117.833 50.1888 117.921 50.5591 118.051C51.0593 118.192 51.5268 118.429 51.9349 118.751C52.343 119.072 52.6837 119.471 52.9375 119.924C53.0292 120.234 53.0476 120.561 52.9914 120.879C52.9352 121.198 52.8059 121.499 52.6136 121.758C52.4615 122.036 52.2853 122.3 52.0872 122.546C51.7294 122.891 51.2525 123.083 50.756 123.084C50.2363 123.14 49.7108 123.077 49.2187 122.901C48.9464 122.777 48.6548 122.702 48.3568 122.679L48.1289 122.649L48.0203 122.678L47.6289 122.667C47.3322 122.625 47.0296 122.661 46.7514 122.773C46.4133 122.863 46.1115 122.944 45.7083 123.13C44.9346 123.447 44.1447 123.724 43.342 123.958C43.0058 124.044 42.6647 124.11 42.3204 124.154C42.0548 124.225 41.715 124.213 41.4936 124.207C41.0955 124.208 40.6984 124.167 40.309 124.085C40.0495 124.05 39.7944 123.988 39.5478 123.9C39.2181 123.8 38.9043 123.653 38.6157 123.464C38.2003 123.181 37.8591 122.802 37.6208 122.359C37.402 121.998 37.2438 121.603 37.1524 121.191L37.024 120.229C36.9082 119.649 36.958 119.048 37.1677 118.495C37.2247 118.244 37.3221 118.003 37.4559 117.783C37.5973 117.539 37.7025 117.303 37.8681 117.052L38.3671 116.258C38.5931 115.991 38.8705 115.722 39.1086 115.451C39.3466 115.18 39.645 114.893 39.9192 114.613C40.202 114.315 40.5031 114.036 40.8208 113.776L42.7907 112.096L43.7769 111.237L44.4099 110.653C44.4909 110.594 44.5761 110.541 44.6649 110.494L45.0832 110.848C45.3668 111.071 45.6639 111.277 45.9729 111.464L46.2058 111.608L44.508 110.536C44.7971 110.19 45.0066 109.785 45.1217 109.35L45.4632 109.465Z" fill="#231F20"/>
<path d="M49.8465 104.188L50.9793 106.822C51.313 107.729 51.6675 108.618 51.9738 109.519C52.1549 110.196 52.5437 110.777 52.737 111.45C53.3664 113.824 53.7617 116.254 53.9172 118.704C54.0385 119.785 54.1565 120.853 54.2866 121.918C54.4972 123.322 54.3568 124.755 53.8778 126.091C53.6939 126.516 52.9722 126.334 52.2164 125.928C51.4477 125.602 50.8264 125.004 50.472 124.247C49.9302 121.856 49.565 119.428 49.3795 116.983C49.0959 115.452 48.6353 113.96 48.007 112.536C47.7113 111.723 47.4277 110.906 47.0869 110.117C46.7462 109.328 46.4231 108.509 46.0429 107.718C45.611 106.734 45.0768 105.803 44.5636 104.853C43.8038 103.418 42.9184 102.053 41.9177 100.774C41.0141 99.8922 40.0369 99.089 38.9968 98.3733C38.7816 98.198 38.5398 98.0686 38.3335 97.8781C37.5999 97.1688 37.6283 96.6953 38.3831 95.6001C38.564 95.3575 38.7142 95.0973 38.9104 94.8635C39.1563 94.497 39.52 94.2254 39.9412 94.0937C40.3625 93.962 40.816 93.9781 41.2269 94.1393C41.8195 94.3779 42.3955 94.6559 42.951 94.9714C43.483 95.3268 43.981 95.7306 44.4389 96.1774C45.3729 97.0703 46.2236 98.0466 46.9803 99.094C48.0965 100.678 49.1031 102.337 49.9929 104.058L49.8465 104.188Z" fill="#231F20"/>
<path d="M69.7028 66.2437C67.0125 73.2907 62.9251 79.721 57.6862 85.148C56.7444 86.125 55.7874 87.0932 54.8272 88.0493C53.8581 88.9946 52.8408 89.8891 51.7795 90.7294C49.0277 92.8955 46.1172 94.8519 43.0726 96.5824C41.5494 97.4176 40.048 98.2858 38.4715 99.0188C37.6925 99.3957 36.9288 99.7815 36.1828 100.137L35.0207 100.629L34.5015 100.768C34.2555 100.858 34.0161 100.966 33.7853 101.09C33.733 101.206 33.7063 101.331 33.7069 101.458C33.7074 101.586 33.7353 101.711 33.7886 101.826C33.8626 102.076 33.9538 102.319 34.0616 102.556L34.1166 102.761L34.3014 103.113L34.7146 103.882C35.6475 105.625 36.735 107.365 37.7839 109.155C38.8328 110.944 39.6596 112.871 40.4864 114.797C41.6199 117.322 42.4199 119.983 42.8664 122.714C43.2926 125.589 42.9399 128.525 41.8451 131.218C41.0033 132.906 40.0675 132.069 39.2676 130.485C38.848 129.691 38.3919 128.714 37.9655 127.702C37.475 126.646 37.1084 125.537 36.8729 124.397C36.453 122.434 35.8885 120.505 35.184 118.625C34.3924 116.633 33.4984 114.682 32.5053 112.782C31.6591 110.783 30.8441 108.659 29.8221 106.487L28.8767 104.359C28.6326 103.878 28.4217 103.381 28.2452 102.872C28.0653 102.395 27.9331 101.902 27.8505 101.399C27.7209 100.471 27.8785 99.5253 28.3022 98.6895C28.8676 97.8956 29.6304 97.263 30.5151 96.8543L32.0651 96.1672L32.8329 95.845L33.2514 95.6681C33.843 95.5096 34.4232 95.2118 34.9286 94.9729C40.6231 92.391 45.859 88.8987 50.4307 84.6333C55.5609 80.0999 59.7285 74.5826 62.6865 68.4084C64.4979 64.5619 65.882 60.5285 66.8141 56.3803C67.3497 54.5156 67.8088 52.6067 68.3097 50.6608C68.563 49.6741 68.8468 48.7051 69.1564 47.6387C69.292 46.9633 69.5893 46.3308 70.0228 45.7955C70.4563 45.2601 71.0132 44.8378 71.6456 44.5647L72.3821 44.3673C72.5679 44.3049 72.7574 44.2541 72.9496 44.2153C73.3624 44.1306 73.7813 44.079 74.2023 44.0608C75.0471 44.0104 75.894 44.1122 76.7028 44.3614C78.2895 44.9172 79.6434 45.99 80.5472 47.4076C82.0098 49.8496 82.868 52.6056 83.0505 55.4461C83.1788 56.7999 83.2148 58.1608 83.1585 59.5195C83.0735 60.8762 82.8853 62.2245 82.5956 63.5526C82.3669 64.7283 82.0592 65.8873 81.6746 67.0217C81.164 68.5785 80.3608 70.0235 79.3084 71.2792C79.0395 71.6072 78.7032 71.8737 78.3224 72.0606C77.9416 72.2475 77.5251 72.3504 77.101 72.3624C76.7622 72.4106 76.4183 72.4113 76.0793 72.3644C75.0926 72.1112 75.4545 70.3707 76.2984 67.7246C77.4431 63.729 77.8991 59.5675 77.6468 55.4188C77.6053 53.6011 77.1621 51.8152 76.349 50.189C76.1006 49.7069 75.7193 49.3061 75.2502 49.034C74.7765 48.8045 74.2399 48.7389 73.7249 48.8475C73.6213 48.8617 73.5199 48.8889 73.423 48.9283C73.423 48.9283 73.423 48.9283 73.4834 48.9122C73.425 49.0408 73.3785 49.1745 73.3446 49.3117L73.1857 49.7813C73.1226 50.1735 73.086 50.5198 73.0381 50.9208L72.5972 55.8919C72.5092 56.7742 72.368 57.6504 72.1744 58.5157C71.9677 59.3864 71.7336 60.2514 71.4995 61.1165C71.004 62.841 70.469 64.5631 69.8365 66.2596L69.7028 66.2437Z" fill="#231F20"/>
<path d="M95.1851 121.597C92.0326 122.196 88.9669 122.538 85.8086 122.971C84.6646 123.096 83.5626 123.378 82.4274 123.488C78.4187 123.838 74.4019 124.06 70.393 124.215C68.6079 124.267 66.8367 124.418 65.059 124.545C63.9294 124.627 62.7756 124.716 61.6178 124.742L60.7321 124.721L59.9121 124.461C59.3169 124.29 58.7355 124.073 58.1729 123.815C57.4639 123.487 57.6808 123.041 58.3685 122.468C58.6967 122.147 59.1447 121.742 59.6048 121.334C59.8589 121.124 60.134 120.895 60.4156 120.69L60.8412 120.395C60.977 120.34 61.1189 120.302 61.2638 120.282C65.5584 119.985 70.0554 119.285 74.6177 119.408C77.4003 119.258 80.1675 118.897 82.8955 118.329C85.9343 117.886 88.9529 117.383 91.9513 116.821L94.7068 116.238L97.3993 115.517C98.6766 115.142 99.9297 114.69 101.152 114.162C101.429 114.049 101.695 113.908 101.945 113.742C102.191 113.603 102.425 113.445 102.647 113.27C102.881 113.079 103.102 112.872 103.309 112.652C103.479 112.478 103.637 112.293 103.782 112.098C103.961 111.876 104.095 111.62 104.174 111.345C104.254 111.07 104.279 110.783 104.246 110.499C104.196 110.238 104.063 110 103.868 109.82C103.673 109.639 103.426 109.525 103.162 109.495C102.96 109.478 102.757 109.48 102.556 109.502C102.423 109.496 102.294 109.46 102.178 109.396C102.041 109.269 101.923 109.122 101.828 108.96C101.495 108.411 101.271 107.803 101.167 107.17C101.077 106.832 100.989 106.506 100.909 106.204C100.866 105.933 100.883 105.657 100.958 105.393C101.032 105.13 101.163 104.886 101.341 104.677C101.574 104.382 101.835 104.108 102.118 103.861C102.292 103.736 102.416 103.522 102.664 103.482L103.487 103.416C105.271 103.296 107.035 103.848 108.432 104.964C109.106 105.542 109.679 106.228 110.127 106.995C110.465 107.829 110.654 108.715 110.687 109.614C110.914 111.429 109.742 113.284 108.645 114.936C108.136 115.652 107.56 116.317 106.926 116.924L106.161 117.595C105.851 117.837 105.525 118.058 105.186 118.257C104.328 118.823 103.404 119.283 102.435 119.628C102.027 119.813 101.604 119.965 101.172 120.083L99.9649 120.407C99.1318 120.63 98.3591 120.837 97.5501 121.054C96.7411 121.271 95.9563 121.481 95.1159 121.628L95.1851 121.597Z" fill="#231F20"/>
<path d="M111.175 91.2494C111.421 91.4423 111.634 91.657 111.871 91.8653L112.201 92.1781C112.291 92.3218 112.363 92.4765 112.415 92.6384C112.593 93.3025 112.924 93.9125 113.099 94.5645L113.355 95.5183C113.48 95.8195 113.565 96.1363 113.607 96.4601L113.672 97.4263C113.666 97.7129 113.625 97.9977 113.549 98.2743C113.477 98.6818 113.426 99.0708 113.347 99.4026C113.294 99.753 113.199 100.096 113.064 100.423C112.618 101.492 111.956 102.458 111.12 103.261C110.369 104.019 109.505 104.657 108.559 105.15C107.767 105.612 106.921 105.974 106.039 106.227C105.479 106.447 104.88 106.551 104.279 106.532C103.677 106.512 103.086 106.371 102.541 106.116C102.199 105.948 102.441 105.405 102.823 104.849C103.114 104.338 103.528 103.907 104.027 103.595C104.728 103.394 105.397 103.097 106.017 102.713C106.689 102.337 107.332 101.909 107.939 101.434C108.283 101.126 108.561 100.751 108.756 100.331C108.951 99.9122 109.058 99.4576 109.071 98.9954C109.127 98.5276 109.072 98.1798 109.108 97.9245C109.098 97.6007 109.047 97.2795 108.955 96.9689C108.913 96.7477 108.806 96.544 108.648 96.3836C108.489 96.2233 108.287 96.1135 108.067 96.0682C107.893 96.0452 107.717 96.036 107.542 96.0406C107.414 96.0637 107.289 96.0973 107.167 96.1409L106.709 96.2638C106.032 96.445 105.288 96.5151 104.501 96.6224C103.239 96.9072 101.952 97.07 100.658 97.1085C100.36 97.1245 100.062 97.1224 99.7639 97.1023C99.5512 97.0251 99.3563 96.9057 99.191 96.7511C99.0816 96.5373 99.0187 96.3028 99.0066 96.0629C98.9961 95.4799 99.0954 94.9002 99.2992 94.3539C99.3971 94.043 99.4829 93.7353 99.5993 93.4453C99.7875 92.9839 100.049 92.5557 100.372 92.177C100.688 91.7501 101.034 91.346 101.407 90.968C101.749 90.7719 102.107 90.6065 102.478 90.4739C102.739 90.3869 103.006 90.3156 103.275 90.2604C103.765 90.0808 104.27 89.9455 104.784 89.856C105.292 89.7201 106.012 89.993 107.58 89.8575L109.567 90.0757L110.451 90.5247L111.24 91.1027L111.175 91.2494Z" fill="#231F20"/>
<path d="M97.0446 77.0995C99.3567 77.3729 101.771 77.593 104.341 78.0562C105.341 78.1487 106.326 78.3581 107.277 78.6799C109.26 79.3774 110.97 80.6864 112.161 82.4182C112.622 83.2474 112.984 84.1277 113.239 85.0411C113.377 85.529 113.468 86.0291 113.51 86.5344C113.543 87.0771 113.506 87.6219 113.401 88.1554C113.201 89.0969 112.768 89.9735 112.143 90.7053C111.577 91.3276 110.914 91.8547 110.18 92.2665C108.562 93.3608 106.58 93.7803 104.657 93.4358C104.067 93.3093 104.153 92.6651 104.531 91.9037C104.901 91.0369 105.494 90.2839 106.25 89.722C107.304 89.4005 108.235 88.7675 108.921 87.9063C109.028 87.7301 109.081 87.5272 109.075 87.3215C109.022 86.8255 108.892 86.3407 108.69 85.8847C108.624 85.7059 108.543 85.5328 108.448 85.3673C108.383 85.2534 108.302 85.1487 108.209 85.0559C107.994 84.8322 107.731 84.6595 107.44 84.5504C106.682 84.2464 105.893 84.0238 105.088 83.8865C102.913 83.414 100.703 83.1146 98.4809 82.991L94.0125 82.6871C91.7305 82.4674 89.4668 82.0881 87.2378 81.5519C85.3012 81.2577 83.4126 80.7062 81.622 79.912C81.2113 79.7241 80.8179 79.5004 80.4464 79.2434C79.1182 78.15 79.1888 77.3028 79.9928 76.2462C80.1719 75.9929 80.3663 75.7507 80.5748 75.5209C80.9151 75.1975 81.3309 74.9644 81.7844 74.843C82.2378 74.7215 82.7144 74.7154 83.1708 74.8253C84.4104 75.1531 85.4624 75.5054 86.639 75.6948C87.8156 75.8842 89.0632 76.1452 90.4362 76.2949C92.4624 76.5156 94.6569 76.8334 96.9905 76.9457L97.0446 77.0995Z" fill="#231F20"/>
<path d="M87.1967 38.6119C87.453 38.8926 87.0274 39.1878 86.217 39.4956C85.8308 39.5878 85.4302 39.6028 85.0382 39.5397C84.8046 39.413 84.5803 39.2698 84.367 39.1113C84.2654 39.022 83.6025 37.4656 83.2999 36.9643C83.0487 36.4934 82.8695 35.9874 82.7683 35.4633C82.4933 34.437 82.2216 33.4227 81.8838 32.4521C81.8151 32.2331 81.7886 32.0031 81.8057 31.7742C81.8859 30.981 81.7433 30.1812 81.3939 29.4646C81.3583 29.3318 81.326 29.211 81.1367 29.1323C80.642 28.4385 80.2944 27.6509 80.1153 26.8178C80.1603 26.0681 80.0274 25.379 80.0869 24.5867C80.061 24.4901 80.0351 24.3935 80.1477 24.2339C80.253 24.138 80.3239 24.0102 80.3495 23.87C80.375 23.7299 80.3539 23.5853 80.2893 23.4583C80.2504 23.3134 80.2084 23.1565 80.1663 22.9995C80.1645 22.821 80.1819 22.6428 80.218 22.468C80.2915 22.2479 80.3811 22.0336 80.4862 21.8268C80.5607 21.7371 80.6521 21.6631 80.7553 21.6088C80.8584 21.5545 80.9712 21.5211 81.0873 21.5104C81.2943 21.5585 81.4575 21.3465 81.6257 21.2497C81.6907 21.2204 81.76 21.2019 81.8309 21.1947C82.2413 21.3298 82.643 21.4902 83.0336 21.6748C83.4248 21.8719 83.7929 22.1118 84.1312 22.3901L84.4255 22.7641C84.653 23.0235 84.8576 23.3021 85.0369 23.5968C85.4177 24.2453 85.7994 24.9454 85.8986 25.0741C85.9978 25.2028 85.9859 25.4001 85.9467 25.5918C85.9075 25.7835 87.0282 27.6961 87.0178 27.8024C87.1375 28.2491 87.3933 28.6723 87.1266 29.2226C87.1187 29.2715 87.1212 29.3216 87.134 29.3694C87.1468 29.4173 87.1697 29.4619 87.201 29.5003C87.4124 30.2778 87.5017 31.0833 87.4656 31.8882C87.4814 32.2851 87.5881 32.6836 87.628 33.0741C87.6475 33.1465 87.5944 33.2384 87.5865 33.3052C87.5523 33.3967 87.5345 33.4935 87.5337 33.5911C87.6918 34.5193 87.5899 35.4913 87.8172 36.388C87.8754 36.6054 87.5506 37.663 87.6274 37.9012C87.7042 38.1395 87.0886 38.4985 87.1967 38.6119Z" fill="#F39F51"/>
<path d="M102.251 53.1614C102.201 53.4593 101.807 53.4357 101.234 53.2785C100.986 53.1801 100.771 53.0134 100.613 52.7978C100.575 52.5858 100.553 52.3713 100.545 52.1561C100.516 52.0474 101.151 50.5055 101.351 49.9473C101.534 49.4147 101.791 48.9104 102.114 48.4487C102.712 47.5077 103.411 46.6348 104.199 45.8454C104.378 45.6654 104.589 45.5209 104.822 45.4195C105.602 45.073 106.319 44.6011 106.945 44.0224C107.066 43.99 107.188 43.8667 107.224 43.6629C107.863 42.9224 108.674 42.3497 109.586 41.995C110.003 41.9607 110.375 41.8483 110.835 41.8284L112.041 41.7899C112.15 41.7608 112.259 41.7317 112.406 41.8475C112.763 42.1659 112.949 42.0385 113.176 42.0164C113.498 41.9539 113.829 41.9576 114.149 42.0274C114.353 42.1026 114.541 42.2146 114.704 42.3576C114.875 42.4669 114.879 43.0096 114.895 43.07C114.911 43.1304 115.001 43.4684 115.06 43.6858L115.118 43.9031C114.752 44.5367 114.333 45.1382 113.866 45.701L113.563 45.9244L112.923 46.4324C112.468 46.813 111.942 47.0705 111.835 47.2027C111.728 47.3349 111.582 47.2706 111.449 47.3062C111.316 47.3418 110.039 48.4215 109.982 48.4498C109.632 48.5436 109.435 48.9198 108.93 48.8222C108.892 48.812 108.852 48.812 108.814 48.8222C108.776 48.8324 108.741 48.8525 108.713 48.8804C108.197 49.2552 107.657 49.5945 107.096 49.8961C106.82 50.0736 106.584 50.305 106.308 50.4824C106.308 50.4824 106.175 50.518 106.115 50.5342C106.031 50.537 105.948 50.5591 105.873 50.5989C105.212 51.0417 104.598 51.5531 104.043 52.1245C103.924 52.26 103.055 52.6869 102.949 52.8706C102.843 53.0544 102.27 53.0397 102.251 53.1614Z" fill="#F39F51"/>
</g>
<defs>
<clipPath id="clip0_255_1586">
<rect width="120" height="120" fill="white" transform="translate(0 31.2673) rotate(-15)"/>
</clipPath>
</defs>
</svg>
