<svg width="130" height="130" viewBox="0 0 130 130" fill="none" xmlns="http://www.w3.org/2000/svg">
<g clip-path="url(#clip0_511_4242)">
<path d="M41.3481 108.936C41.4418 108.638 41.6487 108.389 41.9243 108.243C42.1998 108.097 42.5218 108.065 42.8208 108.154C45.888 109.108 40.3528 112.145 41.3481 108.936Z" stroke="#F39F51" stroke-miterlimit="10"/>
<path d="M34.6862 115.568C34.7314 115.421 34.8051 115.285 34.9031 115.166C35.0011 115.048 35.1215 114.95 35.2573 114.878C35.3932 114.807 35.5418 114.763 35.6948 114.748C35.8478 114.734 36.002 114.75 36.1487 114.796C39.2159 115.781 33.6909 118.828 34.6862 115.568Z" stroke="#F39F51" stroke-miterlimit="10"/>
<path d="M21.6745 117.812C21.7197 117.666 21.7934 117.529 21.8914 117.411C21.9894 117.293 22.1098 117.195 22.2456 117.123C22.3815 117.051 22.5301 117.007 22.6831 116.993C22.836 116.979 22.9903 116.995 23.137 117.041C26.2042 118.005 20.6792 121.052 21.6745 117.812Z" stroke="#F39F51" stroke-miterlimit="10"/>
<path d="M12.4734 48.7498C17.0031 47.0334 21.5429 45.5404 26.0827 44.0475L39.7226 39.6092C43.0335 38.5936 46.3343 37.4256 49.6554 36.3998C61.3757 32.7943 73.1265 29.1483 84.6945 25.2076C89.8538 23.4608 94.9929 21.6123 100.03 19.6826C103.27 18.4436 106.48 17.1233 109.659 15.7623C112.832 14.4213 115.934 12.9161 118.951 11.2529C120.709 10.1154 120.668 10.4303 119.348 11.7709C117.001 13.8286 114.34 15.4983 111.466 16.717C104.966 19.6826 98.3343 22.2115 91.6617 24.6694C84.989 27.1272 78.2046 29.4529 71.4304 31.6061C63.3054 34.2467 54.896 37.1615 46.5984 39.9037C37.4577 42.9506 28.3171 45.7943 19.2374 48.9529L15.0734 50.4459L13.0421 51.2381L12.0976 51.624C11.9249 51.6951 11.7624 51.7561 11.5999 51.8373L11.1023 52.0608C11.0109 52.2334 11.214 52.3858 11.3156 52.5178C11.4401 52.6507 11.5724 52.7762 11.7117 52.8936L11.9351 53.0764L12.3413 53.4014C13.4788 54.2748 14.6874 55.0873 15.9163 55.8693C17.7851 57.0576 19.7249 58.1037 21.7054 59.1397L27.6163 62.3795L39.4077 68.7881L39.9968 69.0928L40.789 69.5397C40.8499 69.5397 40.9515 69.6006 40.9617 69.6819L41.0226 69.8951L41.1546 70.342C41.1948 70.4888 41.2254 70.6381 41.246 70.7889L41.3171 71.1342L41.7843 73.6834L42.6882 78.7615C43.2976 82.1131 43.907 85.4545 44.5062 88.8162L45.3288 93.224C46.2734 98.749 46.4867 100.486 46.3445 101.755C46.343 102.044 46.3227 102.332 46.2835 102.619C46.2023 102.933 45.9179 102.619 45.4406 101.603C44.8151 100.14 44.2991 98.6328 43.8968 97.0936C43.064 94.1279 42.3937 91.0811 41.764 88.0139C41.1343 84.9467 40.5452 81.8287 40.007 78.6904L39.1945 73.9779L38.7781 71.642L38.7171 71.3373L38.3312 71.1342L29.8304 66.5639L17.1148 59.6373C14.9515 58.4177 12.8686 57.0607 10.8788 55.5748L10.4929 55.2803L9.97493 54.8436C9.53001 54.4859 9.11244 54.0955 8.72572 53.6756C8.39353 53.3198 8.1408 52.8975 7.98431 52.4365C7.91989 52.2295 7.88903 52.0135 7.8929 51.7967C7.8929 51.5936 7.8929 51.3092 8.07572 51.1873L9.09134 50.3139L9.59915 49.8772C9.84372 49.7338 10.0983 49.6082 10.3609 49.5014L11.5796 49.0037L12.4327 48.6584L12.4734 48.7498Z" fill="#0F172A"/>
<path d="M69.3887 85.8708C70.9426 86.7137 72.4355 87.5973 73.9996 88.4809C74.5582 88.8059 75.1473 89.07 75.6754 89.4254L81.3426 93.1934C82.1754 93.7419 83.0387 94.209 83.8918 94.7575C85.0253 95.3226 86.0974 96.0033 87.091 96.7887C87.3855 97.0833 87.223 97.2559 86.766 97.3575C86.1485 97.5282 85.4897 97.463 84.9176 97.1747C82.6223 96.0168 80.3473 94.8083 78.2043 93.4372C76.8434 92.6183 75.4398 91.8724 73.9996 91.2028C72.4559 90.37 70.9527 89.5168 69.3785 88.7145C68.4238 88.227 67.4691 87.6989 66.4941 87.2825C65.0166 86.5462 63.5012 85.8885 61.9543 85.3122C60.7762 84.8551 59.5473 84.6723 58.3691 84.2965C58.1045 84.241 57.8433 84.1698 57.5871 84.0833C56.6527 83.6973 56.4191 83.3419 56.3379 82.8239C56.3118 82.7069 56.2948 82.588 56.2871 82.4684C56.2871 82.1129 56.7746 81.9098 57.5973 81.8489C59.9975 81.9285 62.3555 82.5024 64.5238 83.5348C66.1895 84.2051 67.8043 85.0176 69.3887 85.8301V85.8708Z" fill="#0F172A"/>
<path d="M67.0324 49.9077L78.3464 42.2803L82.4089 39.4569L96.9933 29.717C99.1464 28.2749 101.289 26.7819 103.392 25.2991C106.103 23.3999 108.775 21.4295 111.639 19.7639C111.799 19.665 111.969 19.5833 112.146 19.5202C112.146 19.5811 112.035 19.2866 112.512 20.028C112.499 20.0336 112.485 20.0365 112.471 20.0365C112.457 20.0365 112.444 20.0336 112.431 20.028C112.421 19.9949 112.421 19.9595 112.431 19.9264C112.431 19.9975 112.289 19.8452 112.35 19.8147V19.9061C112.262 20.0713 112.163 20.2307 112.055 20.3835C111.182 21.5966 110.115 22.657 108.896 23.5217C103.402 27.4217 97.8464 31.2202 92.1488 34.9577C88.7363 37.1717 85.3136 39.6092 81.8707 42.0061L70.516 49.7655L63.5386 54.5389C60.0246 56.9663 56.4292 59.3733 53.0371 61.8311C50.3558 63.7405 47.7964 65.721 45.1761 67.6608L43.4699 68.9303C41.2964 70.5046 40.5347 70.8905 39.7628 70.8092C39.5916 70.8116 39.4208 70.7911 39.255 70.7483C38.8183 70.5858 39.5191 69.7327 41.0425 68.4428C45.5722 64.7561 50.5792 61.2014 55.6371 57.6772L66.9714 49.8772L67.0324 49.9077Z" fill="#0F172A"/>
<path d="M75.0361 54.6201L83.9127 47.135L87.1017 44.3522L98.5174 34.7037C100.193 33.2717 101.828 31.7686 103.443 30.2959C105.474 28.3764 107.506 26.3858 109.74 24.6694C110.461 24.1514 110.553 24.4155 110.258 25.1873C109.781 26.3893 109.054 27.4762 108.125 28.3764C104.002 32.4389 99.6955 36.2272 95.2267 39.9342C92.5455 42.1381 89.8947 44.5959 87.2135 46.9116L78.3166 54.5389L72.8525 59.2209C70.0799 61.5975 67.3275 63.9842 64.6564 66.3913C62.6252 68.2803 60.6447 70.2303 58.6541 72.16L57.3642 73.4397C55.7189 75.0037 55.1197 75.41 54.3681 75.3389C54.1973 75.3355 54.0272 75.3151 53.8603 75.278C53.3931 75.1256 53.8603 74.2623 54.9369 72.9522C58.4536 69.1738 62.1837 65.5997 66.1088 62.2475C69.0338 59.678 72.0197 57.1694 74.9853 54.5897L75.0361 54.6201Z" fill="#0F172A"/>
<path d="M97.949 71.4998C96.8522 75.2271 95.7959 78.9748 94.9022 82.7428C94.4248 84.6318 93.9678 86.5107 93.592 88.4099L93.2873 89.8217L93.0537 91.2435L92.81 92.6553C92.7439 93.0142 92.7032 93.3773 92.6881 93.742L92.5764 95.0318L92.5154 95.1435L91.967 96.1592L91.8959 96.2912V96.3521C91.7842 96.1287 92.1396 96.8599 91.6521 95.8545H91.4693L91.0225 95.9865C90.7076 96.3014 90.1186 95.8139 89.6107 95.4685L88.2498 94.5545L84.685 92.1881C80.3889 89.4967 76.174 86.8053 71.7865 84.2967C67.4764 81.7574 62.9492 79.606 58.2584 77.8677C57.7404 77.6951 57.2428 77.5224 56.6943 77.3701L55.8615 77.1873L55.3842 77.0654C55.2623 77.0654 55.0896 76.9638 55.0186 77.0654L54.9272 77.4615L54.6021 78.8631C54.0876 81.0094 53.5527 83.1592 52.9975 85.3123C52.2662 88.0748 51.5147 90.8474 50.6615 93.5998C49.8474 96.3921 48.7976 99.1102 47.5232 101.725C46.5686 103.36 46.3654 102.832 46.66 101.339C47.0839 98.8598 47.6536 96.4079 48.3662 93.9959C50.0521 88.4709 51.5553 82.824 52.9061 77.2076L53.3936 75.1763L53.5154 74.6584C53.5154 74.5365 53.6373 74.6584 53.7084 74.6584L53.9725 74.7193L54.9881 74.9326L56.0037 75.1662L56.6537 75.3388L57.7404 75.6537C59.1928 76.1006 60.5943 76.6693 61.9756 77.1974C64.7433 78.3212 67.4487 79.5926 70.0803 81.006C76.2959 84.4287 82.6131 88.1865 88.5951 92.1779L89.7123 92.9396L90.0881 93.2037C90.2086 93.3 90.3378 93.385 90.474 93.4576V92.9904V92.6045L90.6568 91.4873C90.7889 90.7154 90.9006 89.9537 91.0529 89.192C91.3779 87.6888 91.6623 86.1451 92.0686 84.6826L93.1654 80.2342L94.3436 75.7857C95.674 71.0935 97.0654 66.442 98.5178 61.8006C100.783 54.7623 103.271 47.7748 105.922 40.9295C107.953 35.6279 109.984 30.3873 112.472 25.299C113.001 24.1717 113.488 23.0646 114.158 21.9779L115.601 19.4084C115.971 18.8327 116.371 18.2767 116.799 17.7427C117.226 17.1241 117.751 16.5788 118.353 16.1279C118.541 15.9822 118.742 15.8531 118.952 15.742C119.46 15.5592 118.647 17.2857 117.053 20.2209L115.408 23.5927C114.839 24.7201 114.392 25.9185 113.854 27.0763C112.767 29.3818 111.822 31.799 110.807 34.1857C108.887 39.0302 106.998 43.9662 105.272 48.9732C103.951 52.6803 102.722 56.4279 101.514 60.1451C100.305 63.8623 99.117 67.6709 98.01 71.4592L97.949 71.4998Z" fill="#0F172A"/>
<path d="M56.643 93.5185C55.9118 94.3209 55.1704 95.1232 54.4188 95.9052C54.1446 96.1896 53.9008 96.5044 53.6266 96.7787C52.611 97.7943 51.5954 98.7185 50.5797 99.663L49.2391 100.963C48.6813 101.534 48.0534 102.032 47.3704 102.446C46.9337 102.7 46.8524 101.552 47.3704 100.912C48.4432 99.7407 49.5826 98.6318 50.7829 97.5912C51.479 96.9243 52.1336 96.2154 52.743 95.4685L54.8962 93.0513C55.3329 92.5537 55.7797 92.0357 56.2063 91.5482C56.8462 90.7763 57.5063 90.0044 58.0954 89.1919C58.5626 88.5724 58.918 87.8818 59.3547 87.2521C59.4462 87.1201 59.5274 86.9677 59.629 86.8357C60.0047 86.3279 60.2079 86.2263 60.5938 86.338C60.6836 86.3591 60.7718 86.3862 60.8579 86.4193C61.1219 86.531 61.1727 86.8865 60.9899 87.3334C60.4327 88.6769 59.6835 89.9324 58.7657 91.0607C58.0954 91.924 57.3844 92.7466 56.6735 93.5794L56.643 93.5185Z" fill="#0F172A"/>
<path d="M19.9977 63.3546C21.2875 64.1975 22.6281 64.9796 23.9789 65.7311C24.4766 66.0054 24.9945 66.1983 25.5125 66.4725C27.2729 67.434 29.0536 68.365 30.8547 69.2655C31.657 69.6718 32.4797 69.9764 33.343 70.2811C33.9398 70.5073 34.5008 70.8186 35.0086 71.2053C35.5439 71.6179 35.9608 72.1644 36.2172 72.7897C36.3594 73.1858 35.9531 73.3178 35.425 73.328C34.8775 73.3629 34.328 73.3045 33.8 73.1553C33.3753 72.9852 32.9413 72.8394 32.5 72.7186L30.9055 72.1093C29.8098 71.6553 28.7533 71.1118 27.7469 70.4843C26.518 69.7225 25.1164 69.235 23.8266 68.5647C22.5367 67.8944 20.993 67.0311 19.6117 66.2085C18.7586 65.7007 17.9156 65.1928 17.0828 64.6546C15.8031 63.8624 14.5844 62.9585 13.3656 62.085C12.9086 61.7296 12.4008 61.435 11.9234 61.0694C11.4486 60.7127 10.9943 60.3295 10.5625 59.9218C10.3797 59.7389 10.1766 59.5663 9.99375 59.3733C9.35391 58.5913 9.32344 58.1952 9.64844 57.728C9.72053 57.6189 9.79851 57.5138 9.88203 57.4132C10.1867 57.1186 10.7047 57.21 11.2125 57.5757C11.9844 58.1241 12.8273 58.5913 13.6703 59.1296C14.5133 59.6679 15.3055 60.2366 16.1586 60.785C17.418 61.6178 18.6875 62.4913 20.0281 63.2632L19.9977 63.3546Z" fill="#0F172A"/>
<path d="M48.152 64.289C52.0926 61.4047 56.0941 58.6625 60.0957 55.9203L64.4426 52.8734L79.9816 42.4937C82.2668 40.95 84.5316 39.3453 86.7559 37.7406C89.6098 35.7093 92.4027 33.5258 95.3988 31.6468C96.3535 31.0781 96.4145 31.3929 95.8965 32.2664C95.0628 33.6391 93.9733 34.839 92.6871 35.8008C86.959 40.1781 81.0379 44.2711 74.9645 48.2422C71.3285 50.6492 67.6723 53.3 63.9855 55.8593C59.9738 58.632 55.9621 61.3945 52.0215 64.2383C49.6043 65.9953 47.1668 67.7726 44.9121 69.6922C44.4957 70.0578 44.0895 70.4336 43.7238 70.8195C43.3582 71.2054 43.1043 71.4289 43.1652 71.7742C43.1652 72.7898 43.2871 73.9781 43.3887 75.0953C43.6223 77.3398 43.927 79.5844 44.252 81.8086C44.7699 85.282 45.4605 88.6539 45.9785 92.0968C46.1004 92.8586 46.2324 93.6 46.3238 94.3718C46.6691 97.2359 46.5371 98.2109 45.9379 98.8406C45.8182 98.9939 45.6819 99.1335 45.5316 99.257C45.0441 99.5109 44.6785 98.414 44.3434 96.3828C43.3277 90.289 42.1293 83.9109 41.2965 77.35C41.1543 76.1211 41.0121 74.9023 40.9207 73.6429L40.8496 72.6883V71.5914C40.8726 70.9907 41.082 70.4121 41.4488 69.9359C41.6835 69.6318 41.938 69.3434 42.2105 69.0726C44.0554 67.3546 46.0058 65.7535 48.0504 64.2789L48.152 64.289Z" fill="#0F172A"/>
<path d="M8.56339 45.2315C8.4058 45.2858 8.26129 45.2756 8.12984 45.201C8.00252 45.1179 7.8875 44.9989 7.78477 44.8439C7.68618 44.6804 7.59802 44.5063 7.5203 44.3215C7.44258 44.1368 7.3755 43.9625 7.31907 43.7986C7.26047 43.6284 7.21174 43.4971 7.17288 43.4047C7.12751 43.2934 7.06224 43.196 6.97709 43.1125C6.89193 43.029 6.76255 42.9502 6.58894 42.876C6.52528 42.8345 6.47531 42.7917 6.43904 42.7478C6.40907 42.7017 6.38649 42.6566 6.37129 42.6125C6.34742 42.5432 6.33822 42.4653 6.34369 42.3788C6.35154 42.3197 6.36471 42.2658 6.38321 42.2171C6.40801 42.1662 6.44975 42.1237 6.50844 42.0894L6.56455 42.0066C6.58542 41.9853 6.60619 41.9535 6.62686 41.9111C6.46324 41.354 6.35946 40.8786 6.31552 40.4847C6.27571 40.0825 6.31662 39.7405 6.43823 39.4589C6.55984 39.1773 6.7788 38.9327 7.0951 38.7251C7.41554 38.509 7.85311 38.3054 8.40781 38.1144L8.73874 38.0005C8.88372 37.9506 9.0362 37.9122 9.19616 37.8853C9.35613 37.8584 9.50064 37.8686 9.62971 37.9158C9.75662 37.9567 9.85045 38.0654 9.91123 38.2419C9.95246 38.3617 9.95578 38.4839 9.92117 38.6086C9.88439 38.7271 9.81035 38.809 9.69906 38.8543L7.86569 39.5808C7.63463 39.6674 7.49472 39.8037 7.44595 39.9897C7.39502 40.1694 7.39167 40.3645 7.43591 40.5749C7.48015 40.7853 7.53375 40.9819 7.59669 41.1647L7.65855 41.3443L7.76675 41.4128L9.57269 40.791C9.69245 40.7498 9.80762 40.7771 9.9182 40.873C10.0288 40.9689 10.1025 41.0704 10.1394 41.1776C10.1676 41.2595 10.1643 41.3523 10.1295 41.4559C10.0925 41.5533 10.0397 41.6455 9.97095 41.7326C9.90007 41.8135 9.82789 41.87 9.75442 41.9024L8.1985 42.5439L8.10132 42.6302L8.12736 42.7059C8.20767 42.9391 8.30059 43.168 8.40611 43.3925C8.51163 43.6171 8.60454 43.846 8.68485 44.0792C8.72392 44.1927 8.76743 44.3293 8.81539 44.489C8.86117 44.6425 8.87317 44.7899 8.85137 44.9314C8.82958 45.0729 8.73358 45.1729 8.56339 45.2315ZM11.8525 37.7427C11.6634 37.8078 11.4789 37.8043 11.299 37.7323C11.1191 37.6603 10.989 37.5077 10.9086 37.2745C10.8283 37.0412 10.8539 36.8491 10.9852 36.6982C11.1165 36.5472 11.2673 36.4424 11.4375 36.3838C11.6329 36.3165 11.8174 36.3199 11.991 36.3941C12.1709 36.4661 12.3021 36.6219 12.3846 36.8614C12.4627 37.0884 12.4361 37.2773 12.3048 37.4283C12.1798 37.5771 12.029 37.6819 11.8525 37.7427ZM13.431 43.5555C13.3112 43.5967 13.1981 43.5652 13.0916 43.4608C12.9852 43.3564 12.8945 43.2466 12.8196 43.1314L12.3996 41.9117C12.3888 41.8802 12.3668 41.7961 12.3339 41.6594C12.305 41.5142 12.2686 41.3469 12.2246 41.1576C12.1847 40.9598 12.1449 40.7726 12.1052 40.5959C12.0696 40.4107 12.0408 40.2655 12.0187 40.1603C11.9942 40.0277 11.9685 39.8815 11.9416 39.7215C11.921 39.5594 11.929 39.4085 11.9656 39.269C12.0022 39.1295 12.0898 39.0359 12.2285 38.9881C12.3798 38.936 12.4999 38.937 12.589 38.9909C12.6822 39.0364 12.7536 39.1105 12.8031 39.2133C12.8526 39.3161 12.8969 39.4243 12.9359 39.5377L13.0499 39.8687C13.0542 39.8813 13.0609 39.9107 13.0697 39.957C13.0765 39.997 13.0822 40.0444 13.087 40.0992C13.1188 40.335 13.1406 40.5108 13.1522 40.6267C13.1681 40.734 13.1827 40.8277 13.1961 40.9077C13.2137 40.9792 13.2442 41.078 13.2876 41.204C13.3136 41.2797 13.3462 41.3742 13.3853 41.4877C13.4306 41.599 13.4848 41.746 13.5477 41.9288C13.576 42.0108 13.6073 42.0916 13.6418 42.1714C13.6742 42.2449 13.7056 42.3257 13.7359 42.414C13.7685 42.5085 13.7938 42.6127 13.8118 42.7263C13.8408 42.8926 13.834 43.0571 13.7913 43.2199C13.7465 43.3763 13.6264 43.4882 13.431 43.5555ZM15.9271 42.6431C15.7695 42.6974 15.6377 42.6934 15.5317 42.6312C15.4235 42.5627 15.3371 42.4655 15.2727 42.3396C15.206 42.2075 15.151 42.0784 15.1075 41.9523C15.0077 41.6623 14.9142 41.3702 14.8269 41.0759C14.746 40.7794 14.66 40.4988 14.5688 40.2341C14.4711 39.9504 14.3463 39.6902 14.1943 39.4535C14.0422 39.2168 13.9217 38.9692 13.8327 38.7107L13.7058 38.342C13.7169 38.1901 13.7464 38.0812 13.7943 38.0154C13.8399 37.9432 13.9163 37.8887 14.0235 37.8518C14.2189 37.7845 14.3824 37.7987 14.5141 37.8944C14.6436 37.9838 14.7502 38.1092 14.8341 38.2708C14.922 38.4238 14.9962 38.5675 15.0565 38.7018C15.0867 38.769 15.146 38.9002 15.2343 39.0954C15.329 39.2884 15.4099 39.4721 15.4769 39.6464L15.5148 39.6334L15.5396 39.5825C15.5986 39.3648 15.6595 39.1323 15.7224 38.885C15.7854 38.6377 15.8652 38.3987 15.962 38.1679C16.0651 37.935 16.196 37.7313 16.3545 37.5569C16.5108 37.3761 16.7119 37.2434 16.9577 37.1588C17.2729 37.0503 17.5723 37.0494 17.8558 37.1562C18.1372 37.2568 18.4035 37.426 18.6546 37.6638C18.9036 37.8954 19.1328 38.162 19.3424 38.4635C19.552 38.765 19.7394 39.0636 19.9047 39.3592C20.0699 39.6549 20.2137 39.9085 20.336 40.1203L20.4173 40.3567C20.4651 40.4953 20.475 40.647 20.4471 40.8118C20.4171 40.9702 20.3201 41.0776 20.1562 41.134C19.986 41.1926 19.8447 41.1919 19.7324 41.1319C19.6264 41.0697 19.5369 40.9736 19.4639 40.8436C19.4318 40.7912 19.3846 40.7052 19.3222 40.5857C19.2577 40.4598 19.1869 40.3256 19.1095 40.183C19.0301 40.0341 18.9581 39.8967 18.8936 39.7708C18.8269 39.6387 18.7765 39.5432 18.7421 39.4845C18.6798 39.365 18.5847 39.232 18.4568 39.0857C18.3329 38.9309 18.221 38.8003 18.1208 38.6937C18.0185 38.5809 17.8983 38.4672 17.7601 38.3526C17.6219 38.238 17.4678 38.21 17.2976 38.2686C17.1463 38.3207 17.0261 38.422 16.9369 38.5726C16.854 38.721 16.7903 38.884 16.7456 39.0615C16.7073 39.2369 16.673 39.3932 16.6427 39.5305C16.572 39.8369 16.517 40.1379 16.4777 40.4335C16.4385 40.729 16.3974 41.0499 16.3544 41.3961C16.3389 41.5354 16.3331 41.6925 16.3369 41.8674C16.3386 42.0361 16.3148 42.1923 16.2656 42.3362C16.2164 42.48 16.1036 42.5823 15.9271 42.6431ZM22.8944 40.6142C22.551 40.6408 22.2386 40.5933 21.957 40.4717C21.6795 40.3416 21.4405 40.1595 21.24 39.9253C21.0458 39.689 20.8977 39.4227 20.7957 39.1264C20.6546 38.7167 20.6072 38.2924 20.6535 37.8534C20.6976 37.4081 20.8168 36.9863 21.011 36.5881C21.2094 36.1813 21.4673 35.8246 21.7848 35.5178C22.1085 35.209 22.4752 34.984 22.885 34.8429C23.0299 34.793 23.1762 34.7673 23.3238 34.7658C23.4755 34.7559 23.6217 34.7302 23.7626 34.6888L23.7581 34.5528C23.7253 34.4372 23.6859 34.2921 23.6399 34.1176C23.594 33.943 23.5489 33.7611 23.5049 33.5718C23.465 33.374 23.4284 33.1857 23.395 33.0068C23.3679 32.8258 23.3559 32.6783 23.359 32.5644C23.3595 32.4021 23.3897 32.2542 23.4495 32.1208C23.5071 31.9811 23.6148 31.8841 23.7723 31.8298C23.9299 31.7756 24.0481 31.7913 24.127 31.8769C24.2122 31.9604 24.2808 32.0778 24.3329 32.2291L24.4143 32.4655C24.5756 33.2208 24.7526 33.9601 24.9453 34.6834C25.1421 35.3983 25.3609 36.1056 25.6019 36.8053C25.7126 37.1267 25.8368 37.4365 25.9747 37.7345C26.1104 38.0262 26.2358 38.3391 26.3508 38.6732C26.392 38.793 26.4144 38.9192 26.4178 39.052C26.4253 39.1763 26.3503 39.2656 26.1927 39.3199C26.0288 39.3763 25.8876 39.3756 25.769 39.3177C25.6481 39.2536 25.545 39.1587 25.4594 39.033C25.3738 38.9074 25.2967 38.7858 25.2281 38.6685C25.1829 38.5782 25.154 38.5353 25.1414 38.5397L25.1036 38.5527C24.8996 39.0248 24.66 39.4246 24.3849 39.752C24.1162 40.0772 23.758 40.3169 23.3105 40.471L22.8944 40.6142ZM22.9217 39.5261C23.1675 39.4414 23.3811 39.2939 23.5624 39.0834C23.7438 38.8728 23.8858 38.63 23.9885 38.355C24.0975 38.0777 24.1601 37.7988 24.1763 37.5182C24.1967 37.2292 24.1678 36.9712 24.0896 36.7443C24.0701 36.6875 24.0282 36.6068 23.9639 36.502C23.8996 36.3972 23.8269 36.2883 23.7456 36.1753C23.6644 36.0622 23.5876 35.9723 23.5153 35.9056C23.4471 35.8303 23.3972 35.7982 23.3657 35.809C23.0631 35.9132 22.798 36.075 22.5704 36.2944C22.3406 36.5075 22.1543 36.7549 22.0116 37.0367C21.8752 37.3164 21.7896 37.6103 21.7547 37.9184C21.7261 38.2244 21.7617 38.5224 21.8615 38.8123L21.9918 39.1906C22.1051 39.356 22.2401 39.4717 22.3968 39.5376C22.5513 39.5972 22.7262 39.5934 22.9217 39.5261ZM29.1121 38.3252C28.9986 38.3643 28.8805 38.3592 28.7578 38.3098C28.6413 38.2582 28.5559 38.1536 28.5017 37.9961C28.43 37.788 28.4325 37.6109 28.5091 37.4647C28.5919 37.3163 28.7027 37.2182 28.8414 37.1705C28.9612 37.1292 29.0835 37.1365 29.2085 37.1921C29.3334 37.2478 29.4231 37.365 29.4776 37.5437C29.5322 37.7434 29.5171 37.9144 29.432 38.0564C29.3511 38.1901 29.2445 38.2797 29.1121 38.3252ZM35.5673 36.1977C35.3845 36.2607 35.2242 36.2559 35.0865 36.1835C34.9466 36.1048 34.8263 35.991 34.7258 35.8423C34.6293 35.6852 34.5444 35.5205 34.4711 35.3484C34.404 35.174 34.3487 35.0238 34.3053 34.8978L33.97 33.9239C33.8267 33.5079 33.7012 33.0716 33.5934 32.6152C33.4856 32.1588 33.3491 31.6805 33.184 31.1803C32.9464 31.248 32.7484 31.2668 32.59 31.2368C32.4357 31.1982 32.3162 31.0561 32.2316 30.8102C32.1665 30.6211 32.1964 30.4522 32.3214 30.3033C32.4443 30.1482 32.5959 30.0255 32.7764 29.9352C33.0027 29.7938 33.2523 29.6691 33.5253 29.5609C33.8025 29.4444 34.0606 29.3238 34.2997 29.1991L34.3375 29.1861C34.596 29.0971 34.8799 29.0205 35.1891 28.9563C35.4963 28.8858 35.8059 28.8533 36.1179 28.8586C36.4341 28.8555 36.7288 28.9127 37.0019 29.0302C37.2729 29.1413 37.4994 29.3383 37.6814 29.6212L37.7921 29.9426C37.9136 30.2956 37.9404 30.6601 37.8724 31.036C37.8044 31.412 37.6678 31.7728 37.4625 32.1185C37.2613 32.4557 37.0144 32.7522 36.7218 33.0081C36.4354 33.2618 36.1284 33.4451 35.8006 33.558C35.706 33.5905 35.6104 33.6199 35.5137 33.6462C35.4148 33.6661 35.2918 33.6979 35.1446 33.7415C35.2573 34.0482 35.3579 34.3097 35.4465 34.526C35.535 34.7423 35.6151 34.9544 35.6868 35.1624C35.7258 35.2759 35.7598 35.4052 35.7886 35.5504C35.8238 35.6934 35.8272 35.8262 35.7989 35.9488C35.7769 36.0692 35.6997 36.1521 35.5673 36.1977ZM34.7474 32.588L35.6173 32.2885C35.7371 32.2472 35.8711 32.1553 36.0194 32.0125C36.1718 31.8613 36.3135 31.6892 36.4444 31.496C36.5794 31.2944 36.6808 31.0973 36.7485 30.9048C36.8203 30.7038 36.8323 30.534 36.7845 30.3953C36.7325 30.244 36.6292 30.1386 36.4747 30.079C36.3265 30.0172 36.1681 29.9871 35.9994 29.9888C35.8308 29.9904 35.6929 30.0097 35.5857 30.0466L34.3282 30.4796L34.2724 30.594C34.3233 30.8444 34.3678 31.0759 34.4057 31.2884C34.4415 31.4947 34.4846 31.7019 34.5352 31.9102C34.592 32.1162 34.6628 32.3422 34.7474 32.588ZM41.2105 34.2017C41.0655 34.2517 40.9389 34.2424 40.8307 34.1739C40.7266 34.0969 40.637 33.9903 40.5619 33.854C40.4931 33.7155 40.4326 33.5706 40.3805 33.4193C40.3545 33.3437 40.3295 33.2712 40.3057 33.2019C40.2859 33.124 40.2652 33.0536 40.2435 32.9906C40.1914 32.8393 40.1142 32.605 40.012 32.2876C39.9098 31.9703 39.7955 31.6078 39.6692 31.2C39.5408 30.7859 39.41 30.355 39.277 29.9073C39.144 29.4595 39.0227 29.0253 38.9131 28.6048C38.8099 28.182 38.7271 27.8086 38.6649 27.4846C38.6113 27.1857 38.612 26.9316 38.6669 26.7224C38.728 26.511 38.8185 26.3846 38.9383 26.3434C39.0454 26.3065 39.1661 26.3601 39.3004 26.5043C39.4346 26.6484 39.5595 26.9191 39.6752 27.3165C39.805 28.0826 39.9577 28.8127 40.1332 29.5067C40.3087 30.2007 40.5202 30.907 40.7676 31.6256C40.8718 31.9281 40.9918 32.2253 41.1275 32.517C41.2632 32.8087 41.3831 33.1058 41.4873 33.4084C41.5546 33.6038 41.5668 33.7724 41.5239 33.914C41.4788 34.0494 41.3744 34.1453 41.2105 34.2017ZM44.5715 33.0974C44.2815 33.1972 43.9877 33.2243 43.6899 33.1788C43.3922 33.1332 43.1203 33.0294 42.8741 32.8674C42.6258 32.6991 42.4276 32.4818 42.2795 32.2155L42.1134 31.7333C41.9919 31.3803 41.9323 31.0024 41.9347 30.5997C41.937 30.197 42.0027 29.8042 42.1318 29.4214C42.2586 29.0322 42.4513 28.6909 42.7099 28.3974C42.9662 28.0976 43.2867 27.8815 43.6712 27.7491C43.8288 27.6948 43.9741 27.6765 44.1071 27.6942C44.2464 27.7097 44.3741 27.7327 44.4904 27.7631C44.6108 27.7851 44.7204 27.7862 44.8193 27.7662C44.7807 27.4904 44.7915 27.2963 44.8515 27.184C44.9094 27.0654 45.014 26.98 45.1652 26.9279C45.348 26.865 45.4916 26.8825 45.5958 26.9806C45.7043 27.0702 45.7888 27.2032 45.8496 27.3797C45.969 27.7264 46.0767 28.0701 46.1729 28.4106C46.2753 28.7491 46.3873 29.0948 46.5088 29.4478C46.6043 29.7251 46.7188 30.0065 46.8524 30.2919C46.9859 30.5773 47.1004 30.8587 47.1959 31.1361L47.2643 31.3346C47.312 31.4733 47.3282 31.6123 47.3127 31.7516C47.3013 31.8824 47.2042 31.9793 47.0214 32.0422C46.8512 32.1008 46.7109 32.0927 46.6006 32.0179C46.4943 31.9346 46.4037 31.8249 46.3285 31.6886C46.2575 31.5438 46.1919 31.4148 46.1318 31.3015L46.081 31.2767C45.9404 31.5648 45.8155 31.8264 45.706 32.0615C45.6029 32.2945 45.469 32.4992 45.3041 32.6758C45.1372 32.8462 44.8929 32.9867 44.5715 33.0974ZM44.1481 32.1749C44.3687 32.099 44.5539 31.9612 44.7038 31.7615C44.8577 31.5534 44.9766 31.315 45.0604 31.0464C45.142 30.7716 45.1857 30.4992 45.1915 30.2292C45.1972 29.9593 45.1643 29.7204 45.0927 29.5123C45.0384 29.3548 44.9621 29.2048 44.8637 29.0624C44.7632 28.9137 44.6398 28.801 44.4935 28.7245C44.3536 28.6457 44.1891 28.6389 44 28.704C43.792 28.7757 43.6121 28.9187 43.4603 29.1331C43.3148 29.3454 43.2023 29.5921 43.1229 29.8733C43.0413 30.1482 42.9955 30.4248 42.9856 30.7032C42.9735 30.9753 43.0011 31.2091 43.0684 31.4045C43.1227 31.5621 43.199 31.712 43.2974 31.8544C43.4021 31.9947 43.5264 32.0999 43.6705 32.1702C43.8124 32.2341 43.9716 32.2357 44.1481 32.1749ZM50.5733 30.7664C50.1194 30.9226 49.7001 30.9436 49.3153 30.8294C48.9346 30.7066 48.6036 30.4927 48.3223 30.1877C48.0451 29.8742 47.8349 29.5094 47.6916 29.0934C47.5288 28.6206 47.4831 28.1499 47.5544 27.6811C47.6319 27.2102 47.8155 26.791 48.1049 26.4234C48.3984 26.0473 48.7847 25.7768 49.2638 25.6119C49.4088 25.5619 49.575 25.5223 49.7623 25.4931C49.9538 25.4554 50.1476 25.445 50.3439 25.4621C50.538 25.4728 50.7092 25.5196 50.8576 25.6025C51.0123 25.6832 51.1222 25.8181 51.1873 26.0072C51.2351 26.1458 51.2215 26.2704 51.1467 26.3807C51.0719 26.4911 50.962 26.5712 50.817 26.6212C50.6657 26.6733 50.5172 26.6821 50.3714 26.6477C50.2234 26.607 50.0765 26.5694 49.9307 26.535C49.7827 26.4943 49.6331 26.5 49.4818 26.5521C49.2738 26.6237 49.1064 26.7519 48.9796 26.9366C48.8528 27.1212 48.7632 27.3319 48.7107 27.5685C48.6582 27.8052 48.6353 28.0457 48.6419 28.2902C48.6527 28.5263 48.6906 28.7388 48.7557 28.9279C48.8664 29.2494 49.0152 29.4767 49.202 29.6098C49.393 29.7344 49.6108 29.7934 49.8552 29.7868C50.1039 29.7717 50.3669 29.7164 50.6442 29.6209C50.9027 29.5319 51.1248 29.399 51.3107 29.2221C51.5029 29.0431 51.694 28.861 51.8841 28.6757L52.0732 28.6106C52.3568 28.5129 52.5475 28.6059 52.6452 28.8896C52.7038 29.0598 52.6875 29.2275 52.5964 29.3929C52.5115 29.5561 52.3824 29.7133 52.2089 29.8647C52.0332 30.0098 51.8395 30.1435 51.6278 30.2658C51.416 30.388 51.2157 30.4923 51.0268 30.5785C50.8379 30.6647 50.6868 30.7273 50.5733 30.7664ZM56.572 29.0181C56.1181 29.1744 55.6751 29.2494 55.2428 29.2431C54.8147 29.2284 54.4308 29.1067 54.0912 28.8781C53.7495 28.6433 53.4929 28.2769 53.3214 27.7789C53.1912 27.4007 53.1241 27.0113 53.1201 26.6108C53.1225 26.2081 53.1904 25.8216 53.3238 25.4513C53.455 25.0747 53.6552 24.7449 53.9243 24.4619C54.1914 24.1725 54.5297 23.9573 54.9394 23.8162C55.2168 23.7207 55.4948 23.6885 55.7734 23.7194C56.0561 23.742 56.3069 23.8354 56.5256 23.9998C56.7485 24.1557 56.9121 24.385 57.0163 24.6875C57.1161 24.9775 57.1517 25.2755 57.1231 25.5815C57.0945 25.8874 57.012 26.1803 56.8756 26.4599C56.7392 26.7395 56.5593 26.9848 56.3358 27.1957C56.1164 27.3982 55.8649 27.5482 55.5812 27.6459C55.5371 27.6611 55.4362 27.6853 55.2784 27.7185C55.1184 27.7454 54.9899 27.7614 54.893 27.7666C54.8256 27.7757 54.7665 27.7678 54.7157 27.743C54.7009 27.741 54.6756 27.7392 54.6397 27.7374C54.6017 27.7294 54.5764 27.7275 54.5638 27.7319C54.6708 27.8995 54.8154 28.0224 54.9975 28.1007C55.1837 28.1706 55.378 28.2024 55.5803 28.1962C55.789 28.1878 55.9784 28.1543 56.1486 28.0957C56.2683 28.0545 56.3859 28.0069 56.5014 27.9531C56.6209 27.8908 56.75 27.8357 56.8887 27.788C57.0274 27.7402 57.1602 27.7368 57.2871 27.7777C57.414 27.8186 57.5067 27.9242 57.5653 28.0944C57.6131 28.2331 57.6059 28.3554 57.5437 28.4614C57.4878 28.5653 57.398 28.6526 57.2743 28.7234C57.1569 28.792 57.032 28.8491 56.8996 28.8947C56.7757 28.9444 56.6665 28.9856 56.572 29.0181ZM55.2036 26.5491C55.3927 26.484 55.5667 26.3853 55.7256 26.253C55.8887 26.1123 56.0051 25.9488 56.075 25.7626C56.1511 25.5742 56.1523 25.3728 56.0785 25.1585C56.0156 24.9757 55.9089 24.8503 55.7586 24.7822C55.6145 24.7119 55.4511 24.7082 55.2683 24.7712C55.1044 24.8276 54.9462 24.9314 54.7938 25.0826C54.6414 25.2338 54.5071 25.407 54.391 25.6021C54.2811 25.795 54.204 25.9908 54.1596 26.1894C54.113 26.3817 54.1157 26.5535 54.1678 26.7048L54.1809 26.7426C54.3534 26.7114 54.5282 26.6865 54.7051 26.6679C54.8798 26.643 55.046 26.6034 55.2036 26.5491ZM60.5894 27.4868C60.4759 27.5258 60.3578 27.5207 60.235 27.4713C60.1186 27.4197 60.0332 27.3151 59.9789 27.1576C59.9073 26.9495 59.9098 26.7724 59.9864 26.6262C60.0692 26.4778 60.18 26.3797 60.3187 26.332C60.4384 26.2907 60.5608 26.298 60.6857 26.3537C60.8107 26.4093 60.9004 26.5265 60.9548 26.7052C61.0095 26.9049 60.9943 27.0759 60.9093 27.218C60.8284 27.3516 60.7217 27.4412 60.5894 27.4868ZM68.2144 25.0093C68.0694 25.0592 67.9002 25.1105 67.7068 25.163C67.5218 25.2196 67.3386 25.2404 67.1571 25.2253C66.9756 25.2102 66.8189 25.1338 66.6868 24.9959L66.5566 24.6177C66.5088 24.479 66.4665 24.3561 66.4296 24.249C66.399 24.1396 66.3725 24.0113 66.3499 23.8639L65.4481 21.2448C65.4416 21.2259 65.4115 21.1693 65.3579 21.075C65.3084 20.9721 65.276 20.8987 65.2608 20.8546C65.2304 20.7663 65.1843 20.6835 65.1224 20.6061C65.0668 20.5265 65.0249 20.4458 64.9967 20.3638C64.9901 20.3449 64.9741 20.3187 64.9484 20.2852C64.927 20.2433 64.8876 20.211 64.8305 20.1884C64.7594 20.2481 64.6987 20.2972 64.6485 20.3356C64.5961 20.3678 64.529 20.3979 64.447 20.4262C64.3336 20.4652 64.1996 20.455 64.0451 20.3953C63.8947 20.3272 63.7989 20.2333 63.7577 20.1136C63.6861 19.9055 63.6958 19.7189 63.7869 19.5535C63.8759 19.3819 64.0072 19.2309 64.1809 19.1006C64.3588 18.9618 64.5431 18.8419 64.734 18.7409C64.9311 18.6378 65.1032 18.5539 65.2501 18.4892C65.3321 18.4609 65.4413 18.4198 65.5778 18.3658C65.7122 18.3054 65.8381 18.2514 65.9557 18.2039C66.0796 18.1542 66.1479 18.1272 66.1605 18.1228C66.5998 17.9857 67.0524 17.918 67.5183 17.9197C67.9821 17.9151 68.4266 17.9877 68.8518 18.1374C69.2812 18.2786 69.6576 18.5016 69.9811 18.8062C70.3109 19.1086 70.5561 19.4931 70.7167 19.9595C70.886 20.4512 70.9405 20.9577 70.8803 21.4791C70.8264 21.9982 70.6774 22.4972 70.4333 22.9761C70.1956 23.4528 69.8845 23.8702 69.5001 24.2282C69.122 24.584 68.6935 24.8444 68.2144 25.0093ZM67.7699 23.8721C68.0977 23.7592 68.3994 23.5707 68.6751 23.3065C68.9571 23.0402 69.1934 22.7333 69.3839 22.3856C69.5723 22.0317 69.6962 21.6647 69.7557 21.2846C69.8152 20.9045 69.7874 20.5474 69.6724 20.2133C69.5617 19.8919 69.378 19.6449 69.1212 19.4724C68.8644 19.3 68.5723 19.189 68.2451 19.1395C67.9219 19.0816 67.594 19.0711 67.2612 19.1081C66.9263 19.1388 66.6233 19.2009 66.3523 19.2942C66.3208 19.305 66.2829 19.3181 66.2388 19.3333C66.1988 19.34 66.1536 19.352 66.1032 19.3694C66.0465 19.3889 65.9951 19.4137 65.949 19.4436C65.9029 19.4736 65.8706 19.5129 65.8521 19.5616C66.1051 19.9892 66.3169 20.4098 66.4875 20.8235C66.6645 21.235 66.8322 21.6708 66.9906 22.1309C67.0774 22.3831 67.157 22.6448 67.2292 22.916C67.3056 23.1788 67.3915 23.4489 67.487 23.7262L67.5456 23.8964C67.6132 23.9084 67.688 23.9003 67.7699 23.8721ZM71.9723 17.0418C71.7832 17.1069 71.5987 17.1034 71.4188 17.0314C71.2389 16.9594 71.1088 16.8068 71.0285 16.5736C70.9482 16.3403 70.9737 16.1482 71.105 15.9972C71.2364 15.8462 71.3871 15.7415 71.5573 15.6829C71.7527 15.6156 71.9372 15.619 72.1108 15.6932C72.2908 15.7652 72.4219 15.921 72.5044 16.1605C72.5826 16.3875 72.556 16.5764 72.4246 16.7274C72.2996 16.8762 72.1488 16.981 71.9723 17.0418ZM73.5508 22.8546C73.431 22.8958 73.3179 22.8642 73.2115 22.7599C73.105 22.6555 73.0144 22.5457 72.9394 22.4305L72.5194 21.2108C72.5086 21.1793 72.4867 21.0951 72.4537 20.9584C72.4249 20.8132 72.3884 20.646 72.3444 20.4567C72.3045 20.2589 72.2647 20.0717 72.225 19.895C72.1895 19.7098 72.1606 19.5646 72.1385 19.4594C72.114 19.3268 72.0883 19.1805 72.0614 19.0206C72.0409 18.8584 72.0489 18.7076 72.0854 18.5681C72.122 18.4286 72.2096 18.335 72.3483 18.2872C72.4996 18.2351 72.6198 18.2361 72.7088 18.29C72.8021 18.3355 72.8734 18.4096 72.9229 18.5124C72.9724 18.6152 73.0167 18.7234 73.0558 18.8368L73.1697 19.1678C73.1741 19.1804 73.1807 19.2098 73.1896 19.2561C73.1963 19.2961 73.202 19.3435 73.2068 19.3983C73.2386 19.6341 73.2604 19.8099 73.2721 19.9257C73.2879 20.0331 73.3025 20.1268 73.316 20.2068C73.3335 20.2783 73.364 20.3771 73.4074 20.5031C73.4335 20.5788 73.466 20.6733 73.5051 20.7868C73.5505 20.8981 73.6046 21.0451 73.6676 21.2279C73.6958 21.3099 73.7272 21.3907 73.7617 21.4705C73.794 21.544 73.8254 21.6248 73.8558 21.7131C73.8883 21.8076 73.9136 21.9117 73.9316 22.0254C73.9606 22.1917 73.9538 22.3562 73.9112 22.519C73.8663 22.6754 73.7462 22.7873 73.5508 22.8546ZM77.2955 21.8824C77.119 21.9432 76.9119 21.9969 76.6741 22.0435C76.4385 22.0965 76.2005 22.122 75.9601 22.1201C75.7198 22.1183 75.5011 22.0667 75.304 21.9653C75.1132 21.8618 74.9755 21.6871 74.8909 21.4413C74.8344 21.2774 74.8266 21.1215 74.8673 20.9735C74.9058 20.8192 75.0165 20.7106 75.1993 20.6476C75.3128 20.6086 75.4108 20.6065 75.4933 20.6416C75.5759 20.6766 75.6534 20.7275 75.7257 20.7942C75.8043 20.8588 75.8904 20.9244 75.9838 20.9909C76.0813 21.049 76.1966 21.0869 76.3296 21.1045C76.4689 21.12 76.6394 21.093 76.8411 21.0236C76.9861 20.9737 77.1383 20.9036 77.2976 20.8135C77.4611 20.7149 77.5896 20.5966 77.6831 20.4587C77.7766 20.3207 77.7951 20.1698 77.7387 20.0059C77.6888 19.8609 77.5898 19.7681 77.4419 19.7274C77.2917 19.6804 77.1112 19.6579 76.9004 19.66C76.6896 19.6621 76.4694 19.6674 76.2396 19.676C76.0077 19.6783 75.7799 19.6615 75.5561 19.6258C75.3322 19.5901 75.1322 19.5109 74.956 19.3882C74.7776 19.2593 74.6429 19.0624 74.5517 18.7977C74.4671 18.5518 74.4542 18.32 74.5132 18.1023C74.5722 17.8846 74.6767 17.6864 74.8268 17.5078C74.9809 17.3208 75.1597 17.1641 75.3629 17.0377C75.5703 16.9028 75.778 16.7996 75.986 16.7279C76.1058 16.6867 76.2499 16.6547 76.4183 16.632C76.5846 16.6029 76.7542 16.5939 76.9272 16.6048C77.1002 16.6158 77.2567 16.6606 77.3966 16.7393C77.5343 16.8118 77.6314 16.9299 77.6879 17.0938C77.7877 17.3838 77.6926 17.5787 77.4027 17.6785L77.2798 17.7208C77.0538 17.6788 76.8648 17.6522 76.7129 17.641C76.561 17.6299 76.3999 17.6536 76.2298 17.7122C76.1541 17.7383 76.0502 17.7846 75.918 17.8513C75.79 17.9095 75.6822 17.9854 75.5946 18.079C75.5069 18.1726 75.4848 18.2825 75.5282 18.4085C75.5651 18.5157 75.6554 18.5833 75.799 18.6114C75.9427 18.6395 76.1199 18.6525 76.3307 18.6505C76.5415 18.6484 76.764 18.6494 76.998 18.6534C77.2321 18.6574 77.4643 18.6867 77.6946 18.7414C77.9228 18.7897 78.1271 18.8815 78.3077 19.0168C78.4882 19.152 78.6241 19.352 78.7152 19.6168C78.8476 20.0013 78.8563 20.3438 78.7412 20.6443C78.6324 20.9427 78.4451 21.1975 78.1795 21.4088C77.9179 21.6117 77.6233 21.7696 77.2955 21.8824ZM82.1706 19.8865C81.7168 20.0428 81.2974 20.0638 80.9126 19.9495C80.5319 19.8268 80.2009 19.6129 79.9196 19.3079C79.6424 18.9944 79.4322 18.6296 79.2889 18.2136C79.1262 17.7408 79.0804 17.27 79.1517 16.8013C79.2293 16.3304 79.4128 15.9111 79.7022 15.5436C79.9957 15.1675 80.3821 14.897 80.8611 14.732C81.0061 14.6821 81.1723 14.6425 81.3596 14.6133C81.5511 14.5755 81.745 14.5652 81.9412 14.5822C82.1353 14.593 82.3065 14.6398 82.4549 14.7226C82.6096 14.8033 82.7195 14.9382 82.7846 15.1273C82.8324 15.266 82.8188 15.3905 82.744 15.5009C82.6692 15.6113 82.5593 15.6914 82.4143 15.7413C82.2631 15.7934 82.1145 15.8023 81.9687 15.7679C81.8207 15.7272 81.6738 15.6896 81.528 15.6552C81.38 15.6145 81.2304 15.6202 81.0791 15.6723C80.8711 15.7439 80.7037 15.8721 80.5769 16.0567C80.4501 16.2414 80.3605 16.4521 80.308 16.6887C80.2555 16.9253 80.2326 17.1659 80.2392 17.4104C80.25 17.6464 80.2879 17.859 80.353 18.0481C80.4637 18.3696 80.6125 18.5969 80.7993 18.7299C80.9903 18.8546 81.2081 18.9136 81.4526 18.9069C81.7012 18.8918 81.9642 18.8365 82.2415 18.741C82.5 18.652 82.7221 18.5191 82.908 18.3423C83.1002 18.1633 83.2913 17.9812 83.4814 17.7959L83.6705 17.7308C83.9541 17.6331 84.1448 17.7261 84.2425 18.0097C84.3011 18.1799 84.2848 18.3477 84.1937 18.5131C84.1088 18.6762 83.9797 18.8335 83.8062 18.9849C83.6305 19.13 83.4368 19.2637 83.2251 19.3859C83.0133 19.5082 82.813 19.6124 82.6241 19.6986C82.4352 19.7848 82.2841 19.8475 82.1706 19.8865ZM88.1677 17.9802C87.7139 18.1365 87.2579 18.1842 86.7998 18.1234C86.3417 18.0625 85.931 17.8937 85.5678 17.6169C85.2045 17.34 84.9404 16.9621 84.7755 16.483C84.6626 16.1553 84.6246 15.8299 84.6615 15.507C84.7025 15.1756 84.7847 14.8511 84.908 14.5337C85.0377 14.214 85.1728 13.9102 85.3133 13.6221C85.3877 13.4695 85.495 13.3409 85.6353 13.2362C85.7733 13.1252 85.9243 13.0415 86.0882 12.9851C86.4979 12.844 86.907 12.7525 87.3156 12.7105C87.7242 12.6685 88.1114 12.6974 88.4771 12.7971C88.847 12.8883 89.1766 13.0674 89.4659 13.3344C89.7531 13.5951 89.977 13.9587 90.1376 14.4252C90.27 14.8097 90.3085 15.1877 90.2532 15.5593C90.1978 15.931 90.0705 16.278 89.8713 16.6004C89.6784 16.9206 89.4334 17.2024 89.1365 17.4457C88.8436 17.6805 88.5207 17.8587 88.1677 17.9802ZM87.6172 16.9958C87.9639 16.8764 88.2711 16.7037 88.5387 16.4775C88.8042 16.2451 88.9923 15.9724 89.103 15.6592C89.2179 15.3376 89.2124 14.994 89.0865 14.6284C88.9759 14.307 88.7891 14.0716 88.5262 13.9224C88.2696 13.7711 87.9821 13.6938 87.6637 13.6906C87.3431 13.6811 87.0347 13.7274 86.7385 13.8294C86.5872 13.8815 86.4719 13.9459 86.3925 14.0225C86.3131 14.0992 86.2487 14.1884 86.1991 14.2901C86.1495 14.3918 86.0916 14.5104 86.0255 14.646C85.9119 14.8896 85.8238 15.1455 85.7611 15.4139C85.6962 15.676 85.7115 15.9457 85.807 16.223C85.9589 16.6643 86.2009 16.937 86.533 17.0413C86.865 17.1455 87.2264 17.1304 87.6172 16.9958ZM94.0148 15.6496C93.7816 15.7299 93.5582 15.7363 93.3446 15.6688C93.1288 15.5951 92.9232 15.479 92.7276 15.3207C92.5384 15.1603 92.3617 14.9849 92.1975 14.7947C92.0333 14.6044 91.8861 14.433 91.756 14.2804C91.5342 14.0254 91.308 13.7472 91.0773 13.4459C90.853 13.1424 90.6844 12.8268 90.5715 12.499C90.5563 12.4549 90.5369 12.4087 90.5132 12.3604C90.4958 12.31 90.4785 12.2595 90.4611 12.2091C90.4134 12.0704 90.392 11.9368 90.3971 11.8081C90.4 11.6732 90.4897 11.5753 90.6662 11.5145C90.8111 11.4646 90.9409 11.4728 91.0554 11.5391C91.1762 11.6033 91.2814 11.694 91.3711 11.8112C91.4671 11.9262 91.5494 12.0318 91.6178 12.1281C91.6629 12.2184 91.7198 12.3222 91.7885 12.4395C91.8634 12.5548 91.9341 12.6679 92.0005 12.779C92.0711 12.8816 92.1194 12.9707 92.1455 13.0464C92.1672 13.1094 92.2015 13.1681 92.2484 13.2224C92.3016 13.2746 92.3391 13.3322 92.3608 13.3953C92.3673 13.4142 92.4068 13.4676 92.4794 13.5554C92.5498 13.6369 92.6319 13.732 92.7257 13.8407C92.8174 13.9431 92.8995 14.0383 92.972 14.1261C93.0509 14.2118 93.102 14.2682 93.1255 14.2953C93.2106 14.3788 93.2894 14.454 93.3617 14.5207C93.4382 14.579 93.4985 14.6005 93.5426 14.5853C93.6057 14.5636 93.6505 14.5094 93.677 14.4227C93.7077 14.3276 93.7268 14.2293 93.7342 14.1281C93.7479 14.0246 93.7567 13.9476 93.7604 13.8969L93.8938 11.3973C93.9198 11.2474 93.9617 11.1131 94.0195 10.9944C94.0815 10.8673 94.1913 10.7766 94.3489 10.7224C94.5002 10.6703 94.6355 10.7048 94.7547 10.8259L94.8589 11.1285C94.9305 11.3365 94.9801 11.5521 95.0076 11.7753C95.0351 11.9985 95.0341 12.2209 95.0047 12.4426L94.7194 14.6243C94.6878 14.8397 94.615 15.0481 94.5011 15.2495C94.3849 15.4446 94.2229 15.578 94.0148 15.6496ZM99.6097 14.1991C99.1558 14.3553 98.7128 14.4303 98.2805 14.4241C97.8524 14.4093 97.4685 14.2876 97.1289 14.0591C96.7872 13.8242 96.5306 13.4578 96.3591 12.9598C96.2289 12.5816 96.1618 12.1922 96.1579 11.7917C96.1602 11.389 96.2281 11.0025 96.3615 10.6322C96.4927 10.2557 96.6929 9.92586 96.9621 9.64281C97.2291 9.35345 97.5674 9.13823 97.9772 8.99715C98.2545 8.90165 98.5325 8.86939 98.8111 8.90037C99.0938 8.92289 99.3446 9.01634 99.5633 9.18074C99.7862 9.33666 99.9498 9.5659 100.054 9.86847C100.154 10.1584 100.189 10.4564 100.161 10.7624C100.132 11.0684 100.05 11.3612 99.9133 11.6408C99.7769 11.9205 99.597 12.1657 99.3735 12.3767C99.1541 12.5791 98.9026 12.7292 98.6189 12.8268C98.5748 12.842 98.4739 12.8662 98.3161 12.8994C98.1561 12.9263 98.0277 12.9423 97.9307 12.9475C97.8634 12.9566 97.8042 12.9487 97.7534 12.9239C97.7386 12.922 97.7133 12.9201 97.6774 12.9184C97.6394 12.9103 97.6141 12.9084 97.6015 12.9128C97.7086 13.0804 97.8531 13.2034 98.0352 13.2817C98.2214 13.3515 98.4157 13.3833 98.618 13.3771C98.8267 13.3687 99.0161 13.3352 99.1863 13.2766C99.3061 13.2354 99.4237 13.1879 99.5391 13.134C99.6586 13.0717 99.7878 13.0167 99.9264 12.9689C100.065 12.9212 100.198 12.9177 100.325 12.9587C100.452 12.9996 100.544 13.1051 100.603 13.2753C100.651 13.414 100.644 13.5363 100.581 13.6424C100.525 13.7462 100.436 13.8336 100.312 13.9044C100.195 13.973 100.07 14.0301 99.9373 14.0757C99.8134 14.1254 99.7042 14.1665 99.6097 14.1991ZM98.2413 11.73C98.4304 11.6649 98.6044 11.5662 98.7633 11.434C98.9264 11.2932 99.0428 11.1297 99.1127 10.9435C99.1888 10.7551 99.19 10.5538 99.1162 10.3394C99.0533 10.1566 98.9466 10.0312 98.7963 9.9631C98.6522 9.89284 98.4888 9.88918 98.306 9.95212C98.1421 10.0086 97.9839 10.1124 97.8315 10.2636C97.6791 10.4147 97.5448 10.5879 97.4287 10.783C97.3189 10.9759 97.2417 11.1717 97.1973 11.3703C97.1507 11.5627 97.1535 11.7344 97.2055 11.8857L97.2186 11.9236C97.3911 11.8923 97.5659 11.8674 97.7428 11.8488C97.9175 11.8239 98.0837 11.7843 98.2413 11.73ZM102.815 13.0425C102.701 13.0816 102.603 13.0731 102.521 13.017C102.438 12.9609 102.37 12.8856 102.316 12.7913C102.26 12.6907 102.209 12.6026 102.161 12.5272L101.921 11.8275C101.799 11.4745 101.692 11.1129 101.6 10.7428C101.506 10.3663 101.399 10.0048 101.279 9.65807C101.223 9.49418 101.153 9.34202 101.069 9.20159C100.986 9.06116 100.917 8.91215 100.862 8.75456L100.775 8.49927C100.792 8.38735 100.835 8.29523 100.902 8.22289C100.975 8.14838 101.058 8.09484 101.153 8.06229C101.292 8.01454 101.41 8.0197 101.507 8.07777C101.603 8.12953 101.681 8.20465 101.744 8.30313C101.812 8.39944 101.874 8.48737 101.93 8.56694C101.983 8.6402 102.04 8.67337 102.101 8.66644C102.243 8.48374 102.376 8.30743 102.501 8.13754C102.632 7.96548 102.777 7.8133 102.936 7.68102C103.099 7.54027 103.294 7.43082 103.521 7.35268C103.634 7.31362 103.763 7.29759 103.906 7.30461C104.056 7.30946 104.194 7.34288 104.322 7.40487C104.446 7.46057 104.532 7.5546 104.577 7.68697C104.634 7.85086 104.609 7.99342 104.502 8.11464C104.402 8.23369 104.296 8.31275 104.182 8.35182C104.107 8.37786 104.029 8.38706 103.948 8.37942C103.868 8.37178 103.79 8.38098 103.715 8.40703C103.494 8.48299 103.306 8.61135 103.149 8.79209C102.997 8.96437 102.875 9.1511 102.782 9.35231C102.689 9.55351 102.621 9.73549 102.578 9.89825C102.573 9.96366 102.586 10.0647 102.619 10.2014C102.652 10.3382 102.695 10.4927 102.747 10.6651C102.797 10.8311 102.846 10.994 102.894 11.1538C102.949 11.3114 102.992 11.448 103.025 11.5636C103.09 11.7738 103.138 11.9831 103.167 12.1915C103.201 12.3915 103.195 12.5697 103.15 12.7261C103.103 12.8763 102.991 12.9818 102.815 13.0425ZM107.459 11.3482C107.346 11.3873 107.227 11.3822 107.105 11.3328C106.988 11.2812 106.903 11.1766 106.849 11.019C106.777 10.811 106.779 10.6339 106.856 10.4877C106.939 10.3393 107.05 10.2412 107.188 10.1935C107.308 10.1522 107.43 10.1595 107.555 10.2151C107.68 10.2708 107.77 10.388 107.824 10.5667C107.879 10.7664 107.864 10.9374 107.779 11.0794C107.698 11.2131 107.591 11.3027 107.459 11.3482Z" fill="#0F172A"/>
</g>
<defs>
<clipPath id="clip0_511_4242">
<rect width="130" height="130" fill="white"/>
</clipPath>
</defs>
</svg>
