<svg width="25" height="25" viewBox="0 0 25 25" fill="none" xmlns="http://www.w3.org/2000/svg">
<g clip-path="url(#clip0_1_1156)">
<path d="M4.79127 10.9142C6.81926 7.74254 8.83539 4.5709 10.8278 1.37593C11.4089 0.466418 10.3416 0 9.5351 0C8.49146 0 6.99715 0.349813 6.38045 1.28265C4.29317 4.45429 2.2296 7.62593 0.177892 10.8092C-0.426947 11.7537 0.711573 12.2435 1.51803 12.2435C2.58539 12.2435 4.17457 11.882 4.79127 10.9142V10.9142Z" fill="#0F172A"/>
<path d="M10.5669 15.5902C13.7927 14.1676 17.0066 12.7334 20.2206 11.2875C20.8136 11.0193 22.2011 10.2031 21.4777 9.42183C20.7543 8.64058 19.1176 9.0487 18.3468 9.37519C15.0973 10.7744 11.8596 12.1854 8.61006 13.6079C8.14753 13.8062 7.57827 14.121 7.29364 14.5524C7.10389 14.8439 7.00901 15.2754 7.29364 15.5436C8.07638 16.2782 9.68928 15.975 10.5432 15.5902H10.5669Z" fill="#0F172A"/>
<path d="M14.6347 24.9769C17.1845 24.7203 19.7462 24.4638 22.296 24.1956C22.9008 24.1257 23.5768 23.9158 24.0868 23.6009C24.3952 23.4144 24.9288 23.0179 24.9881 22.6215C25.1305 21.572 23.6243 21.5604 22.9364 21.6187C20.3866 21.8402 17.8368 22.0851 15.287 22.3416C14.6703 22.3999 13.9706 22.6331 13.4488 22.9596C13.1404 23.1462 12.583 23.5543 12.5237 23.9741C12.3814 25.0468 13.9231 25.0701 14.6229 25.0002L14.6347 24.9769Z" fill="#0F172A"/>
</g>
<defs>
<clipPath id="clip0_1_1156">
<rect width="25" height="25" fill="white"/>
</clipPath>
</defs>
</svg>
