<svg width="44" height="44" viewBox="0 0 44 44" fill="none" xmlns="http://www.w3.org/2000/svg">
<path d="M10.7378 32.353C10.6741 32.8267 10.1968 32.9788 9.48618 32.9469C9.17698 32.8872 8.90172 32.713 8.71543 32.459C8.67671 32.1756 8.66016 31.8895 8.66594 31.6034C8.68361 31.4373 9.50032 29.2134 9.70538 28.4427C9.92866 27.7037 10.1991 26.9798 10.515 26.2754C11.1231 24.8329 11.6747 23.3692 12.1873 21.8949C12.3081 21.5702 12.4547 21.2557 12.6257 20.9544C13.2127 19.913 13.654 18.7959 13.9374 17.6345C14.0158 17.4458 14.0414 17.2393 14.0117 17.037C14.0802 16.3845 14.2129 15.7403 14.4076 15.1137C14.5624 14.4608 14.7548 13.8175 14.9839 13.1868C15.4506 12.2393 15.8113 11.2635 16.232 10.2912C16.2921 10.1534 16.285 9.99072 16.4476 9.88466C16.5863 9.78072 16.7012 9.64846 16.7847 9.49666C16.8682 9.34487 16.9184 9.17703 16.932 9.00431C17.0502 8.56718 17.1943 8.13745 17.3634 7.71738C17.4977 7.49782 17.6633 7.29894 17.8548 7.12694C18.0245 6.95724 18.4629 7.12694 18.4947 7.19412C18.6079 7.42039 18.8518 7.28958 19.0498 7.30372C19.1187 7.30461 19.1873 7.31171 19.2549 7.32493C19.3984 7.80304 19.492 8.29476 19.5342 8.79218C19.6238 9.35115 19.671 9.91608 19.6756 10.4822L19.6084 11.1221C19.5518 11.5039 19.4988 12.0166 19.4104 12.5363L18.9897 14.8733C18.9352 15.1042 18.8419 15.3241 18.7139 15.5238C18.6856 15.6299 18.0068 18.7129 17.9467 18.8296C17.7894 19.482 17.5007 20.0956 17.0982 20.6327C17.0163 20.7366 16.9616 20.8594 16.9391 20.9898C16.5631 22.0466 16.1081 23.0736 15.5779 24.0621C15.3269 24.5748 15.1254 25.1087 14.8955 25.6284C14.8423 25.719 14.782 25.8053 14.7152 25.8865C14.6359 25.9915 14.565 26.1026 14.5031 26.2188C13.9728 27.4563 13.2586 28.6088 12.7424 29.8534C12.6257 30.1468 11.6605 31.31 11.5226 31.6388C11.459 31.8085 10.766 32.1691 10.7378 32.353Z" fill="#231F20"/>
<path d="M21.7934 36.5715C21.6484 37.0346 21.1605 37.1265 20.4569 37.0169C20.2342 36.978 19.7675 36.6033 19.7816 36.4477C19.8032 36.1486 19.8493 35.8518 19.9195 35.5603C20.1559 35.0996 20.4155 34.6512 20.6973 34.2168C21.1216 33.5663 21.5848 32.8203 21.8358 32.4561C22.3097 31.7403 22.8494 31.0703 23.448 30.455C24.6312 29.1681 25.8675 27.9318 27.1568 26.7462C27.4491 26.4884 27.7625 26.2554 28.0937 26.0497C28.6594 25.6891 29.218 25.3285 29.7483 24.9254C30.2786 24.5224 30.816 24.1335 31.3464 23.695C31.5362 23.5726 31.6977 23.4111 31.8201 23.2213C32.3428 22.7115 32.923 22.2641 33.549 21.8884C34.1698 21.4559 34.8222 21.0706 35.5006 20.7358C36.6108 20.3328 37.675 19.8767 38.7745 19.4984C38.9301 19.4418 39.068 19.3251 39.2589 19.3746C39.6289 19.4332 40.0076 19.3539 40.3231 19.1519C40.7766 18.9587 41.2463 18.8061 41.7267 18.6958C41.992 18.6662 42.2602 18.6769 42.5222 18.7276C42.7661 18.7524 42.8404 19.2155 42.7909 19.2862C42.6495 19.5054 42.8934 19.6292 42.9889 19.7954C43.0264 19.8494 43.055 19.9091 43.0737 19.9721C42.7426 20.3491 42.3729 20.6904 41.9707 20.9904C41.5608 21.3624 41.13 21.7107 40.6802 22.0333C40.6802 22.0333 40.4327 22.1606 40.1004 22.3586C39.768 22.5566 39.3261 22.8147 38.8771 23.0799C38.428 23.345 37.9826 23.6491 37.6184 23.8789C37.2543 24.1087 36.9926 24.3067 36.9042 24.3739C36.7052 24.4999 36.4882 24.5953 36.2608 24.6567C36.2042 24.6709 35.5501 25.1552 34.896 25.6325C34.242 26.1098 33.6233 26.6295 33.5667 26.6578C33.0771 27.0837 32.5235 27.4297 31.9262 27.6831C31.805 27.7319 31.6945 27.804 31.6009 27.8953C30.7489 28.6059 29.8296 29.2423 28.9528 29.9353C28.5109 30.2994 28.0972 30.6919 27.6906 31.0914C27.6091 31.1556 27.5228 31.2135 27.4325 31.2646C27.3194 31.3323 27.2129 31.4104 27.1143 31.498C26.1058 32.418 25.1597 33.4042 24.2824 34.4501C24.0632 34.6693 22.9071 35.6558 22.6949 35.9527C22.5959 36.1366 21.8535 36.3911 21.7934 36.5715Z" fill="#231F20"/>
</svg>
