<svg width="258" height="199" viewBox="0 0 258 199" fill="none" xmlns="http://www.w3.org/2000/svg">
<g clip-path="url(#clip0_255_1569)">
<path d="M5.93997 -87.1142C6.03971 -83.9219 6.53842 -81.5276 7.03714 -81.7271C7.43611 -82.0264 7.73534 -80.4303 7.43611 -78.2355C7.23663 -76.0408 7.53586 -74.4446 7.93483 -74.7439C8.43355 -75.0432 8.73278 -73.447 8.43355 -71.2523C8.23406 -69.0575 8.53329 -67.4613 9.032 -67.7606C9.43098 -68.0599 9.73021 -66.763 9.43098 -64.7678C9.23149 -62.7726 9.43098 -61.4757 9.92969 -61.775C10.5282 -62.0743 10.7276 -60.7774 10.4284 -58.7822C10.2289 -56.7869 10.3287 -55.3903 10.7276 -55.5898C11.6253 -56.1884 12.8222 -43.3192 12.0243 -41.9226C11.5256 -41.2242 11.8248 -41.1245 12.6228 -41.6233C13.5204 -42.2219 13.7199 -41.4238 13.4207 -38.3312C13.2212 -36.1364 13.321 -34.4405 13.7199 -34.64C14.6176 -35.2386 16.812 -16.3838 16.014 -15.0869C15.5153 -14.2888 15.7148 -14.1891 16.6125 -14.6879C17.5102 -15.2864 17.7097 -14.4883 17.4104 -11.3958C17.2109 -9.20101 17.3107 -7.50508 17.7097 -7.80436C18.5076 -8.20341 19.8043 1.27388 20.0038 8.45666C20.0038 11.25 20.4027 13.3449 20.9014 13.0457C21.3004 12.8461 21.5997 13.8437 21.5997 15.4399C21.5997 16.9363 21.9986 19.7296 22.4973 21.5253C23.0958 23.321 23.0958 24.5182 22.7966 24.3186C22.3976 24.0193 21.9986 24.7177 21.9986 25.7153C21.9986 26.7129 22.3976 27.3114 22.9961 27.0122C23.4948 26.6131 23.6943 28.3091 23.395 31.2021C22.9961 34.0952 23.1955 35.3921 23.6943 34.594C24.2927 33.5964 24.5919 34.1949 24.5919 36.3897C24.5919 38.0856 24.9909 39.8813 25.5894 40.1806C26.0881 40.4799 26.5868 41.278 26.5868 41.7768C26.5868 42.3753 25.9884 42.4751 25.3899 42.076C24.3925 41.4775 24.3925 41.5773 25.2901 42.8741C25.9884 43.6722 26.1878 44.7696 25.7889 45.1686C25.3899 45.6674 25.6891 45.6674 26.4871 45.1686C27.5842 44.5701 27.7837 44.8694 27.3848 46.4655C26.9858 47.8622 27.1853 48.4607 27.7837 48.0617C28.4819 47.5629 28.6814 48.2612 28.3822 49.9572C28.083 51.5533 28.2824 52.3514 28.8809 51.9524C29.4794 51.5533 29.6789 52.3514 29.3796 54.0473C29.0804 55.5438 29.0804 56.4416 29.3796 56.1423C29.8783 55.6435 31.574 58.2373 33.6686 62.6268C34.267 64.0234 35.1647 65.9189 35.6634 66.8167C36.1622 67.9141 36.1622 69.61 35.464 71.306C34.5663 73.7002 34.7658 74.2988 36.9601 76.0945C38.3565 77.2916 39.5534 78.5885 39.5534 79.1871C39.5534 79.7856 37.6583 81.8806 35.2645 83.8758C31.0753 87.3675 30.5765 88.6644 30.5765 94.9493C30.4768 96.5455 29.5791 99.4385 28.4819 101.234C26.9858 103.529 26.4871 105.823 26.7863 108.417C26.9858 110.612 26.6866 112.108 26.2876 111.809C25.7889 111.51 25.8886 112.208 26.4871 113.206C27.0855 114.303 27.285 115.5 26.9858 115.799C26.6866 116.099 26.9858 116.597 27.684 117.096C28.4819 117.595 28.6814 117.395 28.083 116.398C27.4845 115.301 27.5842 115.201 28.5817 116.198C29.3796 116.897 29.9781 118.992 29.9781 120.887C30.0778 122.783 30.4768 124.079 30.9755 123.68C31.4742 123.381 31.574 124.179 31.2747 125.576C30.8758 126.873 30.5765 128.369 30.5765 128.768C30.5765 129.267 30.1776 129.367 29.7786 129.068C29.3796 128.868 28.8809 129.566 28.8809 130.763C28.6814 132.559 28.8809 132.659 29.6789 131.462C30.5765 130.265 30.6763 130.364 30.0778 131.961C28.7812 136.051 27.7837 142.635 28.3822 144.63C28.7812 146.226 28.5817 146.526 27.4845 145.827C26.5868 145.329 26.6866 145.827 27.8835 147.424C30.9755 151.813 35.9627 163.984 37.2593 170.368C38.556 177.052 38.556 177.052 53.8167 177.851C61.5967 178.25 69.2769 178.748 70.9725 178.848C72.6682 178.948 79.351 179.447 85.934 179.746C92.5171 180.145 99.4991 180.644 101.394 180.843C103.289 181.043 110.271 181.542 116.854 181.841C123.437 182.14 134.21 182.839 140.793 183.337C151.166 184.135 167.624 185.133 180.69 185.831C183.383 185.931 184.58 186.43 184.381 187.328C184.181 188.026 184.58 189.922 185.278 191.518C186.176 193.713 186.176 194.61 185.079 196.007C184.081 197.104 184.081 197.404 184.979 196.905C185.677 196.506 186.176 196.705 186.176 197.603C186.176 198.501 187.373 199 189.667 199C192.56 199 193.158 198.601 193.258 196.905C193.258 195.708 193.657 192.515 194.056 189.622C194.554 186.33 194.455 184.634 193.856 185.033C193.258 185.432 193.058 184.734 193.357 183.537C193.756 182.34 193.557 181.542 193.058 181.941C192.56 182.24 192.161 181.542 192.161 180.345C192.161 178.948 192.56 178.449 193.457 178.948C194.255 179.547 194.255 179.247 193.357 178.05C191.163 175.357 193.058 171.665 196.45 172.264C196.848 172.264 197.148 171.665 197.148 170.867C197.148 169.969 198.145 169.371 199.741 169.371C201.137 169.371 202.035 169.77 201.736 170.169C201.536 170.568 202.235 171.067 203.432 171.067C204.628 171.167 205.726 171.765 205.925 172.364C206.125 172.863 206.723 173.062 207.222 172.763C207.82 172.464 208.718 172.663 209.416 173.162C211.511 174.858 220.388 176.354 221.784 175.157C222.482 174.558 222.782 173.661 222.383 173.162C221.186 171.067 221.385 165.181 222.782 163.784C224.078 162.587 223.979 162.388 222.682 162.388C220.388 162.388 220.687 161.091 223.58 158.397C225.475 156.601 225.774 155.803 224.876 155.205C223.879 154.606 223.879 154.407 224.876 154.407C225.575 154.407 225.874 153.908 225.575 153.409C223.879 150.616 224.178 145.628 226.273 141.238C228.467 136.749 232.058 133.357 230.661 137.148C230.063 138.545 230.262 138.645 231.16 137.747C232.357 136.55 231.459 134.056 230.063 134.953C229.564 135.253 229.365 133.557 229.564 131.262C229.764 128.868 230.462 126.873 231.06 126.673C231.858 126.374 231.858 125.875 231.06 124.977C229.764 123.481 231.459 121.984 234.452 121.984C235.748 121.984 236.447 121.186 236.646 119.191C236.746 117.695 236.447 116.498 235.948 116.498C235.349 116.498 235.25 115.999 235.649 115.4C236.048 114.602 236.546 114.702 237.145 115.6C237.643 116.398 238.042 116.498 238.042 115.999C238.042 115.4 237.544 114.403 236.945 113.804C235.549 112.407 239.439 109.614 242.431 109.913C245.922 110.312 245.623 106.621 242.032 105.424C238.541 104.127 237.444 101.733 239.539 99.6381C240.636 98.5407 241.035 98.4409 241.035 99.3388C241.035 100.037 241.434 100.436 241.932 100.137C242.431 99.8376 244.027 100.237 245.623 101.035C248.715 102.631 251.209 101.833 248.715 100.037C246.421 98.4409 246.62 96.8448 249.014 96.0467C250.111 95.7474 250.909 94.9493 250.71 94.3507C250.311 92.0562 247.518 89.5622 245.324 89.5622C242.132 89.5622 239.738 86.7689 240.237 83.4768C240.536 81.9804 240.337 80.883 239.838 81.1823C239.439 81.4816 239.04 80.5837 239.04 79.1871C239.04 77.7904 239.539 76.3938 240.037 76.0945C240.636 75.6955 240.237 74.7976 239.14 73.8C238.042 72.9022 236.945 70.8072 236.746 69.3108C236.347 65.9189 231.659 60.7313 227.869 59.4344C224.577 58.2373 223.779 55.843 223.679 47.0641C223.58 42.8741 223.181 41.0784 222.482 41.3777C221.485 41.7768 218.393 35.2923 218.792 33.6962C219.59 30.005 219.49 29.2069 217.595 29.2069C216.498 29.2069 215.7 28.6084 215.899 27.91C215.999 27.1119 215.7 26.8127 215.201 27.2117C213.107 28.5086 206.125 23.6203 202.235 18.1335C200.04 15.0409 198.444 12.1478 198.644 11.7488C198.943 11.3497 198.345 11.0504 197.347 11.1502C196.051 11.25 195.552 10.3521 195.352 7.35928C195.153 5.16454 194.255 2.87005 193.457 2.27148C192.56 1.57316 192.161 0.675308 192.46 0.0767441C192.759 -0.422058 191.063 -1.91847 188.57 -3.11561C186.176 -4.31274 184.381 -5.80914 184.68 -6.30795C185.079 -6.80676 184.68 -6.90652 183.882 -6.60723C182.186 -6.00867 178.795 -11.7948 179.892 -13.4907C180.191 -14.0893 179.992 -14.1891 179.393 -13.79C178.695 -13.391 178.196 -13.5905 178.196 -14.1891C178.196 -15.5857 173.509 -19.9752 169.918 -21.7709C168.322 -22.6687 167.424 -23.7661 167.823 -24.3647C168.222 -25.063 168.122 -25.1628 167.424 -24.7637C166.128 -23.9656 161.041 -28.0558 161.839 -29.3527C162.138 -29.8515 161.938 -30.051 161.44 -29.9513C160.841 -29.7517 160.342 -30.051 160.243 -30.6496C160.143 -31.2482 159.245 -33.0439 158.148 -34.7398C157.151 -36.4357 156.652 -38.1317 157.051 -38.5307C157.45 -38.9297 157.35 -39.229 156.752 -39.1293C154.358 -38.6305 153.161 -39.229 153.36 -40.925C153.66 -43.0199 152.463 -46.0128 150.468 -48.3073C149.67 -49.3049 149.271 -50.7015 149.67 -51.5994C149.969 -52.4972 149.869 -52.8963 149.271 -52.597C148.074 -51.8987 145.979 -55.8891 146.678 -57.585C147.276 -59.1812 144.284 -60.4781 139.795 -60.5778C137.9 -60.5778 136.903 -61.0767 137.102 -61.8747C137.202 -62.6728 136.903 -62.9721 136.404 -62.6728C135.905 -62.3735 134.21 -63.3711 132.614 -65.0671C131.118 -66.6633 129.522 -68.0599 129.123 -68.0599C127.228 -68.0599 120.445 -73.7463 120.345 -75.3425C120.345 -78.7343 123.038 -83.5228 127.028 -87.1142C129.223 -89.1094 131.317 -91.3042 131.716 -91.9028C132.215 -92.7008 115.857 -93.0001 69.0774 -93.0001H5.74048L5.93997 -87.1142Z" fill="#AFCC94"/>
<path d="M252.641 95.7792C252.641 96.5792 253.041 97.2792 253.641 97.2792C254.241 97.2792 254.641 96.5792 254.641 95.7792C254.641 94.9792 254.241 94.2792 253.641 94.2792C253.041 94.2792 252.641 94.9792 252.641 95.7792Z" fill="#DDE9D2"/>
<path d="M239.14 118.179C238.84 118.679 238.94 119.379 239.44 119.679C239.94 119.979 240.34 119.579 240.34 118.779C240.34 117.079 240.04 116.879 239.14 118.179Z" fill="#DDE9D2"/>
<path d="M234.44 128.479C232.34 130.979 232.24 131.879 233.64 132.779C234.24 133.079 234.64 132.779 234.64 131.979C234.64 131.179 235.34 129.979 236.14 129.279C237.74 127.979 238.14 126.279 236.94 126.279C236.44 126.279 235.34 127.279 234.44 128.479Z" fill="#DDE9D2"/>
<path d="M228.641 142.379C228.641 143.379 228.141 144.279 227.541 144.279C226.941 144.279 226.641 145.279 226.841 146.479C227.041 147.779 227.541 148.779 228.141 148.779C228.741 148.779 229.541 147.779 230.141 146.479C230.641 145.279 231.441 144.279 231.841 144.279C233.541 144.279 232.541 141.479 230.641 140.979C229.141 140.579 228.641 140.979 228.641 142.379Z" fill="#DDE9D2"/>
<path d="M224.741 165.579C224.041 166.479 223.741 168.079 224.141 168.979C224.741 170.679 224.841 170.679 225.741 168.979C226.341 167.979 226.641 166.479 226.441 165.579C226.141 164.079 226.041 164.079 224.741 165.579Z" fill="#DDE9D2"/>
</g>
<defs>
<clipPath id="clip0_255_1569">
<rect width="258" height="300" fill="white" transform="translate(0 -101.291)"/>
</clipPath>
</defs>
</svg>
