<svg width="24" height="25" viewBox="0 0 24 25" fill="none" xmlns="http://www.w3.org/2000/svg">
<path d="M8.5 12.9634L10.5 14.9634L15.5 9.96338" stroke="#F39F51" stroke-width="1.5" stroke-linecap="round" stroke-linejoin="round"/>
<path d="M3.02907 13.541C2.7032 12.8592 2.7032 12.0666 3.02907 11.3848C3.16997 11.09 3.41023 10.8081 3.89076 10.2442C4.08201 10.0198 4.17764 9.90759 4.25796 9.78774C4.44209 9.51303 4.56988 9.20452 4.63393 8.88007C4.66188 8.73853 4.6736 8.59157 4.69706 8.29764C4.75599 7.55914 4.78546 7.18989 4.89427 6.88182C5.14594 6.16929 5.7064 5.60883 6.41893 5.35716C6.72699 5.24835 7.09625 5.21888 7.83475 5.15995C8.12868 5.13649 8.27564 5.12477 8.41718 5.09682C8.74163 5.03277 9.05014 4.90498 9.32485 4.72085C9.4447 4.64053 9.55691 4.5449 9.78133 4.35365C10.3452 3.87312 10.6271 3.63286 10.9219 3.49196C11.6037 3.16609 12.3963 3.16609 13.0781 3.49196C13.3729 3.63286 13.6548 3.87312 14.2187 4.35365C14.4431 4.5449 14.5553 4.64053 14.6752 4.72085C14.9499 4.90498 15.2584 5.03277 15.5828 5.09682C15.7244 5.12477 15.8713 5.13649 16.1653 5.15995C16.9038 5.21888 17.273 5.24835 17.5811 5.35716C18.2936 5.60883 18.8541 6.16929 19.1058 6.88182M4.89427 18.044C5.14594 18.7565 5.7064 19.317 6.41893 19.5686C6.72699 19.6775 7.09625 19.7069 7.83475 19.7659C8.12868 19.7893 8.27564 19.801 8.41718 19.829C8.74163 19.893 9.05014 20.0208 9.32485 20.205C9.44469 20.2853 9.55691 20.3809 9.78133 20.5722C10.3452 21.0527 10.6271 21.2929 10.9219 21.4338C11.6037 21.7597 12.3963 21.7597 13.0781 21.4338C13.3729 21.2929 13.6548 21.0527 14.2187 20.5722C14.4431 20.3809 14.5553 20.2853 14.6752 20.205C14.9499 20.0208 15.2584 19.893 15.5828 19.829C15.7244 19.801 15.8713 19.7893 16.1653 19.7659C16.9038 19.7069 17.273 19.6775 17.5811 19.5686C18.2936 19.317 18.8541 18.7565 19.1058 18.044C19.2146 17.7359 19.244 17.3667 19.303 16.6282C19.3264 16.3342 19.3381 16.1873 19.3661 16.0457C19.4301 15.7213 19.5579 15.4128 19.7421 15.1381C19.8224 15.0182 19.918 14.906 20.1093 14.6816C20.5898 14.1177 20.8301 13.8358 20.971 13.541C21.2968 12.8592 21.2968 12.0666 20.971 11.3848" stroke="#F39F51" stroke-width="1.5" stroke-linecap="round"/>
</svg>
