<svg width="55" height="56" viewBox="0 0 55 56" fill="none" xmlns="http://www.w3.org/2000/svg">
<path d="M13.4751 37.5402C13.2451 38.015 13.0849 38.5206 12.9995 39.0412C12.8735 39.7631 12.8277 40.5594 12.7245 41.4532C12.6906 41.8168 12.637 42.1782 12.5641 42.536C12.5641 42.6334 12.5126 42.7365 12.4725 42.8568C12.4312 42.9823 12.3814 43.1048 12.3235 43.2235C12.2524 43.3698 12.166 43.508 12.0657 43.636C11.8873 43.8504 11.664 44.0231 11.4115 44.1419C11.1591 44.2607 10.8837 44.3227 10.6048 44.3235C10.2604 44.3218 9.92324 44.2246 9.6308 44.0428C9.25002 43.7802 8.95193 43.4145 8.77142 42.9886C8.54487 42.4566 8.39443 41.8954 8.32455 41.3214L8.27298 40.9376C8.27298 40.886 8.27298 40.7943 8.27298 40.7714V40.4048C8.27298 40.1985 8.27298 39.9579 8.27298 39.7058C8.27855 39.5951 8.27855 39.4842 8.27298 39.3735C8.27298 39.0985 8.00371 38.8865 7.80892 39.0584C7.63457 39.2275 7.50299 39.4357 7.42507 39.6657C7.33114 39.9351 7.25647 40.2107 7.20163 40.4907L7.1558 40.6626V40.7542L7.08132 40.9548C6.98965 41.2011 6.89226 41.4475 6.80059 41.6995C6.7433 41.837 6.61153 41.8542 6.42246 41.8829C6.29695 41.8938 6.17054 41.8786 6.05122 41.8381C5.9319 41.7977 5.82226 41.7329 5.72923 41.648C5.47961 41.4187 5.28393 41.137 5.15632 40.823C5.06618 40.6625 4.99687 40.4911 4.95007 40.3131C4.94396 39.9885 4.97083 39.6641 5.03028 39.3449C5.11629 38.868 5.23302 38.3973 5.37976 37.9355C5.51418 37.5278 5.70717 37.1418 5.95267 36.7897C6.13672 36.5035 6.35831 36.2434 6.61153 36.0162C6.81426 35.8415 7.03975 35.695 7.28184 35.5808C7.5159 35.4769 7.76571 35.413 8.0209 35.3917C8.32173 35.3643 8.62492 35.4034 8.90892 35.5063C9.04505 35.562 9.17714 35.6271 9.30423 35.7011C9.39251 35.7666 9.47669 35.8374 9.55632 35.9131C9.70998 36.0761 9.8463 36.2547 9.96309 36.4459C10.0547 36.6312 10.1332 36.8226 10.198 37.0188C10.2722 37.2805 10.3183 37.5494 10.3355 37.8209C10.3928 38.3938 10.3928 39.0527 10.4157 39.6256V40.124L10.4443 40.5308C10.4443 40.7027 10.473 40.8688 10.4959 41.035C10.535 41.3326 10.6081 41.6248 10.7136 41.9058C10.7389 41.9845 10.7776 42.0582 10.8282 42.1235C10.8626 42.1235 10.7709 42.1693 10.7193 42.2324L10.6391 42.3355L10.5933 42.3928C10.5807 42.4151 10.5692 42.438 10.5589 42.4615V42.3641V42.2954C10.5589 42.261 10.6219 42.5933 10.5876 42.4501C10.5876 42.4042 10.5876 42.4501 10.5245 42.3756L10.4558 42.3126H10.4214L10.3584 42.2667C10.3093 42.2231 10.2531 42.1882 10.1923 42.1636C10.1949 42.135 10.1949 42.1063 10.1923 42.0777C10.275 41.7646 10.3268 41.4441 10.3469 41.1209L10.4386 39.9063C10.4798 39.0054 10.6299 38.1128 10.8855 37.248C11.1158 36.5887 11.5414 36.0151 12.1058 35.6037C12.409 35.4015 12.7501 35.2631 13.1084 35.1969C13.472 35.1111 13.8506 35.1111 14.2141 35.1969C14.73 35.3327 15.1944 35.6177 15.549 36.0162C15.8497 36.3474 16.1076 36.7151 16.3167 37.1105C16.6942 37.8284 17.0272 38.5688 17.3136 39.3277C17.7622 40.4253 18.269 41.4981 18.8318 42.5417C18.9464 42.7652 19.0896 42.9657 19.1985 43.1662C19.3933 43.5501 19.4907 43.7792 19.4334 43.9855C19.3127 44.2627 19.1418 44.5152 18.9292 44.7303C18.8147 44.8678 18.7173 45.0282 18.6084 45.1714C18.5206 45.2924 18.4001 45.3857 18.2611 45.4405C18.122 45.4953 17.9702 45.5093 17.8235 45.4808C17.6324 45.4519 17.4489 45.3854 17.2837 45.2851C17.1185 45.1848 16.9748 45.0527 16.861 44.8964C16.2221 43.9296 15.7298 42.8735 15.4001 41.7626C15.062 40.7313 14.7928 39.7001 14.4605 38.8063C14.3469 38.5053 14.2169 38.2107 14.0709 37.924C13.9801 37.7552 13.8727 37.5959 13.7501 37.4485C13.7042 37.4027 13.7501 37.374 13.6756 37.4485C13.6011 37.523 13.5667 37.5402 13.5209 37.6204L13.4751 37.5402Z" fill="#0F172A"/>
<path d="M40.3678 26.5631L41.6454 25.6808L42.8829 24.747C43.3068 24.4491 43.6907 24.1168 44.0917 23.7902C44.4928 23.4637 44.8823 23.1371 45.2375 22.7933C45.9686 22.1541 46.6486 21.4588 47.2714 20.7137C47.8162 20.0766 48.2308 19.3389 48.4917 18.5423C48.6314 18.054 48.653 17.5395 48.5547 17.0413C48.431 16.5464 48.2067 16.0822 47.8959 15.6777C47.1775 14.7939 46.2791 14.0732 45.2605 13.5637C44.1081 12.9668 42.8914 12.5036 41.6339 12.1829C38.9879 11.5227 36.2715 11.1861 33.5443 11.1803C31.0852 11.184 28.6286 11.3371 26.1881 11.6387C23.0599 12.0111 19.9261 12.5267 16.8209 13.1683C15.8527 13.3517 15.9558 13.2256 16.7292 12.8704C17.1131 12.6928 17.6688 12.4579 18.3448 12.1829C19.0209 11.9079 19.823 11.61 20.7053 11.3522L23.0657 10.6647C23.8563 10.4584 24.6527 10.2407 25.4547 10.0459C27.0707 9.64131 28.7106 9.33898 30.3646 9.14074C33.7026 8.68518 37.087 8.68518 40.425 9.14074C42.5334 9.42285 44.6033 9.94175 46.5954 10.6876C47.6771 11.1158 48.686 11.7092 49.586 12.4465C50.5902 13.257 51.3597 14.3211 51.8146 15.5288C52.2861 16.9029 52.3102 18.3911 51.8834 19.7798C51.495 21.0266 50.8814 22.1917 50.073 23.2173C48.5928 25.0058 46.9235 26.6289 45.0943 28.0584C42.9071 29.7811 40.5851 31.3253 38.1506 32.6762C34.4752 34.6999 30.5984 36.3339 26.5834 37.5517C25.8214 37.8381 25.0422 38.0329 24.2917 38.2736C23.5412 38.5142 22.762 38.772 22 38.9668C20.4474 39.3334 18.9006 39.8147 17.2964 40.0381C16.5974 40.1584 15.9157 40.3131 15.1995 40.4105C14.6432 40.4852 14.0807 40.5025 13.5209 40.4621C13.133 40.4516 12.7479 40.392 12.375 40.2845C12.1022 40.2118 11.8484 40.0809 11.6308 39.901C11.4133 39.721 11.2372 39.4961 11.1146 39.2418C10.9721 39.012 10.8495 38.7705 10.748 38.5199C10.5073 37.7064 11.5386 36.973 13.3318 36.6064C14.6667 36.3829 15.9959 36.0334 17.3422 35.7986C18.0183 35.6897 18.6829 35.5121 19.3532 35.3459L21.3641 34.8819C24.0612 34.1909 26.7147 33.3395 29.3105 32.3324C33.1956 30.8332 36.8867 28.8732 40.3047 26.4944L40.3678 26.5631Z" fill="#0F172A"/>
<path d="M14.0937 46.6153C11.8913 46.1968 9.73197 45.5773 7.64265 44.7648C6.81382 44.4676 6.01876 44.0835 5.27078 43.6189C4.44183 43.099 3.78274 42.3483 3.37442 41.4591C3.15381 40.9145 3.09222 40.3185 3.19682 39.7403C3.29642 39.2145 3.51168 38.7175 3.82703 38.2851C4.06394 37.9728 4.31634 37.6726 4.58328 37.3856C4.82963 37.1163 5.0989 36.8643 5.35099 36.6065C5.88953 36.108 6.42807 35.6268 6.99526 35.1971C7.9864 34.4065 9.00047 33.696 9.93432 32.957C11.1432 32.0059 12.1802 30.9976 13.3718 30.0924C13.7385 29.8117 14.151 30.2127 14.3114 30.9059C14.4095 31.3298 14.4024 31.7713 14.2905 32.1917C14.1786 32.6122 13.9655 32.9988 13.6697 33.3179C12.5006 34.4409 11.2605 35.4877 9.95724 36.4518C8.75909 37.3093 7.61135 38.2351 6.51974 39.2247C6.2746 39.4301 6.06211 39.6716 5.88953 39.9408C5.85292 40.0086 5.83376 40.0844 5.83376 40.1614C5.83376 40.2384 5.85292 40.3142 5.88953 40.382C6.01654 40.6144 6.19971 40.8114 6.42234 40.9549C6.74472 41.1902 7.088 41.3954 7.44786 41.5679C9.27174 42.4321 11.1963 43.0653 13.177 43.4528C13.8015 43.5846 14.4374 43.7049 15.0677 43.8137L16.0244 43.9627L16.626 44.0486C16.8838 44.0486 17.1588 44.1117 17.4395 44.1174C17.6229 44.1632 17.6515 43.9799 17.6515 43.8596C17.6627 43.7261 17.6627 43.592 17.6515 43.4585C17.6125 43.1706 17.5551 42.8855 17.4796 42.6049C17.3536 42.1408 17.2104 41.671 17.0557 41.207C16.5744 39.7689 15.9098 38.4169 15.2796 37.0247C15.1421 36.7153 14.9817 36.4518 14.8614 36.108C14.4088 34.9335 14.4661 34.4637 15.1364 33.9653C15.2802 33.8444 15.4335 33.7352 15.5947 33.6387C16.1677 33.358 16.7406 33.6387 17.2218 34.458C17.938 35.6718 18.566 36.9355 19.101 38.2393C19.376 38.9038 19.6453 39.5856 19.8744 40.2903C19.989 40.6398 20.0979 41.0007 20.201 41.3674L20.3671 41.969C20.4531 42.3127 20.5447 42.6564 20.6078 43.0059C20.8255 44.0372 20.9114 45.0799 20.5562 45.7731L20.4359 46.0424C20.388 46.1311 20.3324 46.2155 20.2697 46.2945L20.2182 46.3518V46.3861C20.2182 46.3575 20.2755 46.4434 20.1494 46.3288L20.0406 46.4205L19.8401 46.5867C19.7112 46.7197 19.5623 46.8318 19.3989 46.9189C19.1891 46.9958 18.9689 47.0402 18.7458 47.0507C18.2347 47.0904 17.7214 47.0904 17.2104 47.0507L16.4197 46.9705L15.7953 46.896C15.2223 46.8216 14.6838 46.7356 14.1338 46.644L14.0937 46.6153Z" fill="#0F172A"/>
</svg>
