<svg width="40" height="40" viewBox="0 0 40 40" fill="none" xmlns="http://www.w3.org/2000/svg">
<g clip-path="url(#clip0_81_490)">
<path d="M24.9025 38.6649C28.1516 36.2958 29.3572 32.3147 29.7242 28.5049C30.0652 24.9339 29.7446 21.2894 28.7848 17.849C27.825 14.4086 26.26 10.4709 23.3154 8.2029C20.7971 6.26302 17.1435 5.85483 14.1942 7.12148C10.4977 8.70973 7.79757 12.667 7.57543 16.6511C7.542 17.2648 7.97389 17.4712 8.47743 17.1707C9.06403 16.8259 9.48355 16.0002 9.54163 15.3425C10.0597 9.38949 17.2111 7.35391 21.6685 10.5268C24.2266 12.3496 25.6842 15.621 26.633 18.5308C27.5819 21.4406 28.0346 24.2759 28.0143 27.2265C27.9941 30.177 27.7842 34.497 25.0489 36.4973C24.54 36.8708 24.0826 37.541 24.0635 38.1886C24.0502 38.7145 24.4181 39.0236 24.9025 38.6649Z" fill="black"/>
<path d="M15.2153 15.1037L10.8546 15.5768C9.4027 15.7328 7.9317 15.8305 6.48904 16.0547C5.83103 16.1615 5.33489 16.8027 5.10684 17.3982C4.99281 17.696 4.88826 18.0326 4.94938 18.3487C4.99189 18.5383 5.13125 18.8051 5.37006 18.7694C5.58939 18.7338 5.80389 18.6933 6.01839 18.6529C6.73018 18.5117 7.97731 16.2782 6.86357 16.1057C6.73711 16.0871 6.61549 16.0733 6.48413 16.0596L5.36516 18.7743C6.81655 18.6961 8.27385 18.467 9.72578 18.311L14.0865 17.8379C14.7442 17.7701 15.2554 17.0655 15.4785 16.4846C15.5876 16.1917 15.8828 15.0358 15.2104 15.1086L15.2153 15.1037Z" fill="black"/>
<path d="M6.42689 16.6296C7.76494 13.9183 8.78305 11.0047 9.28552 8.02654C9.35656 7.60735 9.33701 6.91126 8.71238 7.12004C8.13168 7.31391 7.65408 8.09131 7.53334 8.6569C7.37762 9.35419 7.21223 10.0418 7.03219 10.7344C6.93717 11.1002 6.83241 11.4661 6.72282 11.8271C6.66803 12.0076 6.61323 12.1881 6.55843 12.3686C6.52862 12.4565 6.50364 12.5492 6.47382 12.637C6.42413 12.7834 6.41419 12.8127 6.44394 12.7346C6.46885 12.6516 6.45885 12.6907 6.41406 12.8322C6.38424 12.92 6.35442 13.0078 6.31971 13.1006C6.25517 13.2812 6.1907 13.452 6.12617 13.6326C6.0022 13.9597 5.87334 14.2916 5.73964 14.6187C5.46236 15.2925 5.16077 15.9616 4.83494 16.6162C4.66208 16.9728 4.47547 17.9138 5.09359 17.9436C5.7117 17.9734 6.20945 17.0985 6.43656 16.6393L6.42689 16.6296Z" fill="black"/>
</g>
<defs>
<clipPath id="clip0_81_490">
<rect width="21" height="34" fill="white" transform="translate(39.4812 24.2506) rotate(135)"/>
</clipPath>
</defs>
</svg>
