<svg width="313" height="21" viewBox="0 0 313 21" fill="none" xmlns="http://www.w3.org/2000/svg">
<path d="M0.731183 1.37171C103.22 -3.68522 208.853 9.7871 312.16 3.29554C313.213 3.22958 313.308 4.58176 312.262 4.68619C209.511 14.8385 103.944 1.09688 0.848192 2.74587C-0.197607 2.77885 -0.32193 1.42668 0.731183 1.37171Z" fill="#0772BA"/>
<path d="M159.744 17.3835C193.129 17.2461 227.524 17.5869 260.945 17.8563C262.064 17.8563 262.188 18.6917 261.084 18.7632C227.604 20.9289 193.334 20.5716 159.678 18.2905C158.567 18.219 158.625 17.389 159.744 17.3835Z" fill="#0772BA"/>
<path d="M151.041 17.4221C146.307 17.489 141.573 17.2592 136.89 16.735C135.127 16.5371 135.347 15.5807 137.16 15.5532C141.892 15.4865 146.623 15.7164 151.304 16.2403C153.067 16.4382 152.855 17.3946 151.041 17.4221Z" fill="#0772BA"/>
</svg>
