<svg width="166" height="166" viewBox="0 0 166 166" fill="none" xmlns="http://www.w3.org/2000/svg">
<g clip-path="url(#clip0_81_768)">
<path d="M114.18 42.2557C113.636 41.9973 113.044 41.858 112.442 41.8472C111.805 41.8004 111.164 41.8111 110.528 41.8794C109.229 42.0057 107.94 42.2233 106.671 42.5305C104.115 43.1511 101.606 43.9512 99.1623 44.9249C98.7737 45.1055 97.8488 42.469 98.3028 42.3692C100.947 41.6404 103.639 41.1015 106.36 40.7567C107.73 40.5788 109.111 40.5008 110.492 40.5233C111.198 40.5304 111.902 40.5939 112.597 40.7132C113.331 40.8234 114.034 41.0853 114.661 41.4823C115.246 41.9153 114.603 42.4918 114.18 42.2557Z" fill="#0F172A"/>
<path d="M45.0361 103.468L40.6414 89.35L38.9909 84.2094C37.1584 78.1452 35.3871 72.0647 33.6362 65.9787C32.9096 63.2672 32.0247 60.5763 31.2065 57.8894C30.0094 54.5002 29.098 51.0169 28.4817 47.4757C28.3247 46.3597 28.6789 46.4178 29.3889 47.2326C29.8427 47.765 30.2657 48.3228 30.656 48.9034C31.146 49.7068 31.5345 50.5678 31.8126 51.4668C33.9854 58.434 36.0154 65.4395 37.9144 72.5674C39.0534 76.8181 40.5344 81.1628 41.874 85.469L46.3211 99.6602L49.1628 108.349C50.601 112.738 52.0271 117.163 53.5359 121.49C54.7214 124.854 56.0203 128.111 57.2866 131.41C57.5777 132.129 57.8532 132.831 58.1369 133.564C59.0687 136.308 59.2071 137.232 58.8492 138.016C58.778 138.199 58.7382 138.417 58.671 138.534C58.4988 138.951 57.5072 137.982 56.6477 136.039C54.0087 130.267 51.8727 123.967 49.6906 117.658C48.0834 112.965 46.5496 108.219 45.011 103.496L45.0361 103.468Z" fill="#0F172A"/>
<path d="M124.366 92.0553C122.037 79.285 119.707 66.5147 117.197 53.8037C116.731 51.4923 116.231 49.179 115.696 46.8969C115.393 45.7654 115.158 44.6046 114.861 43.4935C114.711 42.9329 114.563 42.3825 114.418 41.8422C114.347 41.5772 114.271 41.2918 114.219 41.0981C114.217 41.0231 114.198 40.9497 114.162 40.884L114.035 40.8196L113.788 40.7546C113.486 40.6883 113.179 40.6464 112.87 40.6293C112.177 40.585 111.482 40.5959 110.792 40.6617C109.301 40.8248 107.822 41.0788 106.363 41.4222C104.907 41.736 103.454 42.1035 102.002 42.5144L99.8365 43.1601C98.756 43.4496 97.4283 43.9583 96.2575 44.3594L95.9989 42.3748L95.8468 41.3995L95.7126 40.5723L95.285 38.2833C94.9881 36.7678 94.658 35.2502 94.3074 33.7381C93.9569 32.226 93.5934 30.7065 93.1947 29.2182L92.897 28.1072L92.6402 27.149C92.6084 26.9901 92.5664 26.8335 92.5146 26.6801C92.4572 26.466 92.2521 26.5975 92.1066 26.6255L91.7804 26.7129L91.0465 26.9096L89.3959 27.3955L86.3259 28.4148L80.1682 30.469C73.1365 32.7683 65.9968 35.031 58.8661 36.9198C54.2694 38.1907 49.6034 39.1966 44.8913 39.9323C42.5036 40.2893 40.0938 40.4787 37.6796 40.499C35.1534 40.5946 32.6389 40.1097 30.3294 39.0817C30.0101 38.9179 29.7039 38.7297 29.4138 38.5185C29.2285 38.3475 29.0552 38.164 28.8951 37.9692C28.6466 37.6534 28.6076 37.4672 28.7394 37.3882C28.8712 37.3092 29.1166 37.2871 29.5001 37.4138L30.1149 37.5878L30.9389 37.7275C32.533 37.9951 34.153 38.0744 35.7656 37.9637C37.796 37.8348 40.1824 37.5669 42.7985 37.2592C46.9377 36.7248 51.0433 35.9566 55.0957 34.9584C59.2031 33.978 63.2751 32.8651 67.3279 31.6808C71.3807 30.4965 75.4116 29.2307 79.4344 27.9343L85.4603 25.9591L88.4719 24.9664L90.0022 24.4799L90.8482 24.2532L92.2447 23.879C92.6898 23.7606 93.1622 23.7999 93.5816 23.9902C94.0011 24.1806 94.3417 24.5102 94.5457 24.9231C94.7535 25.3923 94.9367 25.872 95.0946 26.3602L95.3295 27.2368C95.6382 28.3887 95.9413 29.5202 96.2445 30.6516C96.7553 32.5578 97.1206 34.492 97.5247 36.4486C97.7203 37.4232 97.9084 38.4107 98.1067 39.3955L98.2881 40.4394L98.3471 40.9043L99.7374 40.4662C100.757 40.1931 101.648 39.8888 102.626 39.6266C104.576 39.0778 106.555 38.6352 108.553 38.3008C109.583 38.1273 110.624 38.02 111.668 37.9796C112.218 37.952 112.769 37.965 113.317 38.0184C113.973 38.0601 114.618 38.2084 115.227 38.4573C115.419 38.535 115.607 38.6233 115.789 38.7217L116.058 38.8682C116.156 38.9076 116.168 39.0353 116.223 39.1189C116.42 39.4674 116.587 39.832 116.723 40.2087C116.865 40.7387 117.057 41.2116 117.201 41.7084C117.474 42.7277 117.726 43.6655 117.985 44.6339C119.475 51.052 120.681 57.4697 121.924 63.8996L125.458 83.208C126.925 91.1291 128.379 99.0427 129.935 106.929C130.526 109.906 131.119 112.894 131.752 115.871C132.074 117.358 132.396 118.845 132.746 120.313L133.041 121.414L133.549 123.31C133.565 123.371 133.482 123.426 133.452 123.478L132.951 124.137C132.793 124.345 132.613 124.536 132.415 124.706C132.257 124.847 132.103 125.009 131.939 125.129C129.287 127.14 126.31 128.058 123.385 129.005C120.46 129.953 117.463 130.592 114.501 131.244C109.869 132.223 105.28 133.037 100.702 133.849L93.8345 134.968C92.7035 135.151 91.5291 135.334 90.4784 135.572C89.4278 135.81 88.2869 136.159 87.2282 136.53C85.3086 137.154 83.4747 137.853 81.6191 138.634C78.1907 140.11 76.0638 141.346 74.5081 142.145C73.4605 142.762 72.3293 143.223 71.1495 143.515C70.766 143.625 70.3745 143.704 69.9786 143.752C69.5177 143.745 69.8283 143.192 70.874 142.202C72.4966 140.75 74.2747 139.482 76.1759 138.421C79.9356 136.307 83.9265 134.632 88.0695 133.431C88.5995 133.289 89.0888 133.158 89.6698 133.003C90.2509 132.847 90.8075 132.763 91.3587 132.659L94.5598 132.129L100.94 131.108C105.19 130.417 109.46 129.677 113.69 128.784C117.898 127.962 122.035 126.813 126.065 125.348C127.447 124.838 128.763 124.163 129.984 123.337L130.375 123.046L130.532 122.895L130.635 122.791L130.517 122.353L130.192 121.14C129.416 117.917 128.75 114.698 128.095 111.476C126.796 105.039 125.571 98.5933 124.36 92.1552L124.366 92.0553Z" fill="#0F172A"/>
<path d="M116.369 39.1342C110.757 32.9903 102.19 27.4413 94.5334 24.2269C93.8683 23.9463 91.8819 25.6257 92.2506 25.7782C100.399 29.1577 107.768 34.1743 113.899 40.5171C114.366 41.0366 116.634 39.3909 116.358 39.0934L116.369 39.1342Z" fill="#0F172A"/>
<path d="M50.2555 68.474C50.6386 67.9527 51.1232 67.5144 51.6802 67.1854C52.1701 66.8939 52.7058 66.6876 53.2647 66.5751C56.8692 65.6749 60.4919 64.6386 64.0989 63.5847L73.4667 61.0746C78.8269 59.551 84.1654 57.9457 89.5093 56.3609L94.247 54.9603C95.7495 54.4922 97.2723 54.0186 98.7829 53.581C99.032 53.4814 99.2921 53.4117 99.5576 53.3734C99.6967 53.3513 99.8393 53.3718 99.9665 53.4324C100.094 53.4929 100.199 53.5906 100.27 53.7125C100.341 53.8344 100.372 53.9748 100.362 54.1153C100.351 54.2557 100.297 54.3895 100.209 54.4991C100.127 54.6412 100.048 54.8371 99.9388 54.8773C98.7563 55.1942 98.0581 56.299 96.8173 56.6424C94.5136 57.2597 92.2727 58.1114 90.0119 58.8483C89.0843 59.0968 88.1669 59.3426 87.2393 59.5912L83.6694 60.4166C82.0588 60.8482 74.5199 62.9666 67.237 64.9399C63.5979 65.9149 60.0404 66.8682 57.3119 67.49C55.9561 67.8533 54.7871 68.0573 53.9635 68.2452C53.1398 68.4331 52.5926 68.4705 52.4982 68.4849C51.7515 68.5415 51.0016 68.5379 50.2555 68.474Z" fill="#0F172A"/>
<path d="M55.9351 82.2475C56.2365 81.7344 56.6361 81.2858 57.1109 80.9273C57.5024 80.6448 57.945 80.4409 58.414 80.3268C61.453 79.4361 64.4618 78.4332 67.5482 77.4751C70.1787 76.6501 72.8521 75.9447 75.4908 75.1502C80.0423 73.7886 84.5911 72.4168 89.2217 71.187L93.3182 70.1658C94.6331 69.8135 95.9379 69.4639 97.2985 69.2413C97.5182 69.1707 97.7468 69.1315 97.9775 69.1249C98.1113 69.1335 98.2401 69.1793 98.3492 69.2573C98.4583 69.3353 98.5433 69.4422 98.5947 69.5661C98.6461 69.69 98.6618 69.8257 98.6399 69.958C98.6181 70.0903 98.5596 70.2139 98.4711 70.3146C98.3965 70.4439 98.328 70.637 98.2234 70.6541C97.204 70.9273 96.5512 71.8342 95.4903 72.0748C93.5218 72.515 91.5777 73.0578 89.6659 73.701C88.8912 73.9086 88.1063 74.1189 87.3214 74.3292L84.2753 74.9487C82.8957 75.2637 76.4773 77.0382 70.3445 78.9C67.3084 79.8009 64.2667 80.6815 61.9426 81.3042C60.59 81.6975 59.2181 82.0213 57.8324 82.2744C57.2005 82.3245 56.5654 82.3155 55.9351 82.2475Z" fill="#0F172A"/>
<path d="M61.1998 96.7987C61.5399 96.2933 61.9709 95.8555 62.4708 95.5076C62.8951 95.2256 63.3629 95.0154 63.8555 94.8853C67.0936 93.9631 70.3267 92.9001 73.5789 91.9085C76.3779 91.0602 79.2172 90.3212 82.0318 89.4906C86.8743 88.0729 91.7214 86.6321 96.617 85.3312C98.0645 84.9434 99.5283 84.6167 100.979 84.239C102.429 83.8614 103.761 83.4934 105.206 83.2592C105.439 83.1849 105.682 83.1421 105.926 83.1319C106.063 83.1355 106.195 83.1782 106.309 83.2548C106.422 83.3314 106.511 83.4388 106.565 83.5643C106.62 83.6898 106.637 83.8282 106.615 83.9632C106.593 84.0982 106.534 84.2242 106.443 84.3263C106.355 84.4481 106.277 84.6439 106.172 84.6611C105.153 84.9342 104.398 85.8684 103.286 86.1227C101.189 86.5698 99.1173 87.125 97.0781 87.786C96.2422 88.01 95.4166 88.2312 94.5807 88.4552L91.3363 89.1497C89.8786 89.5403 83.0388 91.373 76.5077 93.2979C73.2418 94.2385 70.0343 95.1526 67.5852 95.7979C66.1574 96.2103 64.7099 96.5507 63.248 96.818C62.5663 96.8768 61.8804 96.8703 61.1998 96.7987Z" fill="#0F172A"/>
<path d="M76.2589 109.578C76.5362 108.411 76.8336 108.135 77.2257 108.008C78.5101 107.664 79.7895 107.179 81.0861 106.798C82.2176 106.495 83.3655 106.253 84.4805 105.889C86.4275 105.367 88.3498 104.754 90.2906 104.168C90.8614 104.015 91.4425 103.86 91.9969 103.646C92.5514 103.431 93.0705 103.249 93.6155 103.081C93.7072 103.056 93.7928 102.968 93.8907 103.007C94.179 103.105 94.4115 103.687 94.3714 104.189C94.3987 104.291 94.3636 104.486 94.3228 104.497C93.8947 104.612 93.7979 105.556 93.3521 105.686C92.5184 105.939 91.7041 106.252 90.9155 106.623C90.5865 106.75 90.2448 106.842 89.8962 106.896C89.4681 107.011 89.0017 106.983 88.5552 107.07C88.1087 107.156 85.2117 107.965 82.5471 108.581C81.2219 108.936 79.9008 109.225 78.8983 109.439C78.3084 109.586 77.7088 109.692 77.1041 109.756C76.8161 109.731 76.5322 109.672 76.2589 109.578Z" fill="#0F172A"/>
<path d="M75.6298 140.217C83.8193 135.855 92.8251 133.241 102.077 132.54C117.742 131.271 132.594 123.172 132.594 123.172C132.594 123.172 131.235 133.064 104.361 135.315C88.901 136.617 78.3792 143.872 75.7595 144.574C74.2712 144.973 75.6298 140.217 75.6298 140.217Z" fill="#0F172A"/>
</g>
<defs>
<clipPath id="clip0_81_768">
<rect width="135.079" height="135.079" fill="white" transform="translate(0 34.9609) rotate(-15)"/>
</clipPath>
</defs>
</svg>
