<svg width="32" height="33" viewBox="0 0 32 33" fill="none" xmlns="http://www.w3.org/2000/svg">
<rect y="0.208984" width="32" height="32" rx="8" fill="#F9D2AE"/>
<g clip-path="url(#clip0_81_889)">
<path d="M24 16.209C24 11.7907 20.4183 8.20898 16 8.20898C11.5817 8.20898 8 11.7907 8 16.209C8 20.202 10.9255 23.5116 14.75 24.1118V18.5215H12.7188V16.209H14.75V14.4465C14.75 12.4415 15.9444 11.334 17.7717 11.334C18.6467 11.334 19.5625 11.4902 19.5625 11.4902V13.459H18.5538C17.56 13.459 17.25 14.0757 17.25 14.709V16.209H19.4688L19.1141 18.5215H17.25V24.1118C21.0745 23.5116 24 20.202 24 16.209Z" fill="black"/>
</g>
<defs>
<clipPath id="clip0_81_889">
<rect width="16" height="16" fill="white" transform="translate(8 8.20898)"/>
</clipPath>
</defs>
</svg>
