<svg width="179" height="156" viewBox="0 0 179 156" fill="none" xmlns="http://www.w3.org/2000/svg">
<path d="M178.679 111.997C174.978 146.209 166.978 156 102.644 156C38.3089 156 12 127.48 12 102.97C12 78.4602 49.424 76.0937 82.4174 71.7542C141.765 63.9483 183.078 71.348 178.679 111.997Z" fill="#DDE9D2"/>
<path d="M32.4553 23.851C32.4829 23.6376 32.5568 23.4328 32.672 23.251C32.7872 23.0692 32.9407 22.9148 33.1219 22.7987C33.3031 22.6825 33.5075 22.6075 33.7208 22.5787C33.9341 22.55 34.151 22.5682 34.3565 22.6323C38.3174 24.1313 31.1634 28.8723 32.4553 23.851Z" stroke="#231F20" stroke-miterlimit="10"/>
<path d="M44.325 27.3854C44.3549 27.1743 44.4298 26.972 44.5448 26.7924C44.6597 26.6128 44.8119 26.4601 44.9911 26.3445C45.1703 26.2289 45.3722 26.1531 45.5832 26.1225C45.7942 26.0918 46.0094 26.1068 46.214 26.1666C50.1872 27.6657 43.0331 32.4066 44.325 27.3854Z" fill="#231F20"/>
<path d="M125.531 136.695C125.4 136.862 125.234 137 125.045 137.097C124.856 137.195 124.648 137.251 124.435 137.261C124.222 137.272 124.01 137.236 123.812 137.158C123.615 137.079 123.436 136.958 123.289 136.805C120.534 133.563 129.102 132.966 125.531 136.695Z" stroke="#231F20" stroke-miterlimit="10"/>
<path d="M127.224 30.615C127.366 30.7729 127.473 30.9591 127.537 31.1612C127.602 31.3634 127.623 31.577 127.598 31.7878C127.574 31.9987 127.506 32.2019 127.397 32.3843C127.288 32.5666 127.142 32.7237 126.968 32.8454C123.336 35.0147 124.116 26.4713 127.224 30.615Z" stroke="#231F20" stroke-miterlimit="10"/>
<path d="M111.734 131.089C111.627 131.221 111.493 131.329 111.342 131.406C111.19 131.484 111.024 131.528 110.854 131.537C110.684 131.547 110.514 131.52 110.355 131.46C110.196 131.399 110.052 131.306 109.931 131.186C107.761 128.59 114.562 128.115 111.734 131.089Z" fill="#231F20"/>
<path d="M119.741 35.2707C119.853 35.3986 119.937 35.5485 119.987 35.7106C120.038 35.8728 120.054 36.0436 120.034 36.2123C120.014 36.381 119.96 36.5437 119.874 36.6901C119.788 36.8365 119.672 36.9632 119.534 37.0623C116.634 38.7929 117.255 31.9557 119.741 35.2707Z" fill="#231F20"/>
<path d="M52.3326 39.7679C52.2031 37.9765 52.3511 36.1759 52.7713 34.4297C53.2172 32.734 53.8636 31.0974 54.697 29.5547C56.3992 26.5657 58.6628 23.9338 61.3635 21.8035C63.2972 20.2147 65.4581 18.9248 67.7742 17.9766C71.8912 16.4349 76.3498 16.0412 80.6732 16.8377C84.9967 17.6341 89.0224 19.5907 92.3198 22.4982C95.2594 25.0436 97.3797 28.4022 98.4135 32.1507C99.0296 34.5362 99.2641 37.0043 99.1082 39.4632C99.0405 40.7074 98.8069 41.9371 98.4135 43.1194C98.0601 44.3382 97.6213 45.3619 97.1948 46.4344C96.7438 47.7751 96.4879 47.5801 96.3173 46.2638C96.2421 44.2312 96.295 42.196 96.4757 40.1701C96.5848 37.9511 96.3838 35.7278 95.8785 33.5644C95.352 31.4753 94.4384 29.5034 93.1851 27.751C90.2383 23.6773 85.9107 20.8141 81.0089 19.6952C76.1072 18.5763 70.9659 19.278 66.5432 21.6694C63.8319 23.1559 61.4221 25.1358 59.4379 27.5072C57.4168 29.8303 56.0053 32.6197 55.3307 35.6241C54.9772 37.4639 54.9772 39.3541 55.3307 41.1938C55.6477 43.073 56.2477 44.8934 57.1101 46.5929C58.429 49.1437 60.456 51.2596 62.9479 52.6866C65.5022 54.1074 68.3167 54.9986 71.2232 55.3069C75.7679 55.692 80.3432 55.4913 84.8367 54.7097C85.3363 54.7097 85.8482 54.5757 86.3845 54.5269C86.9207 54.4782 88.0907 54.3807 88.6148 55.0144C88.6865 55.0813 88.7518 55.1548 88.8098 55.2338C89.3217 55.9407 89.4679 56.2088 89.6873 56.5622C89.9066 56.9157 90.0773 57.2204 90.2235 57.5129C90.4887 57.9928 90.713 58.4943 90.8938 59.0119C91.0241 59.3643 91.1021 59.7338 91.1254 60.1088C91.1147 60.4074 91.0614 60.7029 90.967 60.9863C90.9165 61.2103 90.8387 61.4272 90.7354 61.6322C90.4795 61.9857 89.5167 60.9497 88.0298 58.6707L87.4326 57.8054L87.1279 57.3666C87.006 57.2082 87.0304 57.2691 86.9817 57.2082C86.9329 57.1472 86.7745 57.2082 86.6891 57.2082L85.4704 57.3666L82.6063 57.7566C80.6248 58.0116 78.6316 58.1662 76.6345 58.2197C72.4269 58.4105 68.223 57.7685 64.2641 56.3307C60.864 55.0433 57.9297 52.7629 55.8426 49.786C54.8033 48.2846 53.9826 46.6432 53.4051 44.911C53.1268 44.0754 52.8949 43.225 52.7104 42.3638C52.6007 41.9372 52.5398 41.4985 52.4545 41.0719L52.296 39.7191L52.3326 39.7679Z" fill="#231F20"/>
<path d="M43.9603 91.126C41.425 89.7686 38.5972 89.0492 35.7215 89.0297C32.804 88.9971 29.9075 89.5267 27.1903 90.5897C25.1892 91.3902 23.3006 92.4471 21.5718 93.7341C18.4373 95.8693 15.9935 98.8722 14.5396 102.375C13.8571 104.112 13.5297 105.969 13.5768 107.835C13.6548 109.725 14.0674 111.586 14.7956 113.332C15.1473 114.115 15.5546 114.873 16.0143 115.598C16.423 116.336 16.9004 117.034 17.4403 117.683C18.5538 118.954 19.8375 120.065 21.255 120.985C23.0927 122.17 25.0861 123.092 27.1781 123.728C29.2676 124.402 31.4336 124.812 33.6253 124.946C34.9903 124.946 34.844 125.3 33.6984 125.836C31.6696 126.64 29.4501 126.835 27.3121 126.397C24.876 125.854 22.5401 124.933 20.3896 123.667C18.1275 122.424 16.161 120.707 14.625 118.633C13.1442 116.552 12.054 114.219 11.4075 111.747C10.7682 109.236 10.7306 106.61 11.2978 104.081C11.9952 101.082 13.3525 98.2758 15.2709 95.8669C18.3304 92.0881 22.4004 89.256 27.0069 87.7004C31.6134 86.1447 36.5671 85.9295 41.2912 87.0797C42.2778 87.3596 43.2431 87.7099 44.1796 88.1279C45.1071 88.5618 45.9994 89.0671 46.8487 89.6391C48.5424 90.7738 50.058 92.1538 51.3459 93.7341C53.3242 96.0876 54.782 98.833 55.6237 101.79C56.0384 103.275 56.2596 104.807 56.2818 106.348C56.2635 107.894 56.0213 109.43 55.5628 110.906C54.988 113.169 54.115 115.345 52.9668 117.378C51.7903 119.396 50.3152 121.225 48.5915 122.801C48.2622 123.114 47.949 123.444 47.6531 123.788C47.519 123.959 47.4337 124.081 47.4703 124.264C47.4916 124.34 47.5201 124.413 47.5556 124.483C47.5991 124.613 47.6606 124.736 47.7384 124.849C47.8606 125.064 48.0079 125.265 48.1771 125.446C48.4819 125.744 48.8034 126.025 49.14 126.287C49.423 126.491 49.6808 126.729 49.9078 126.994C50.084 127.229 50.2275 127.488 50.3343 127.762C50.4296 127.97 50.4913 128.192 50.5171 128.42C50.5171 128.688 50.1881 128.639 49.5543 128.603C49.1337 128.579 48.7208 128.48 48.3356 128.31C47.6648 128.056 47.0424 127.689 46.4953 127.225C45.9869 126.784 45.5725 126.245 45.2765 125.641C45.0885 125.255 44.9533 124.845 44.8743 124.422C44.814 123.987 44.86 123.544 45.0084 123.13C45.1679 122.716 45.3989 122.332 45.6909 121.997C45.9103 121.753 46.1053 121.522 46.3003 121.339L47.385 120.242C48.7354 118.922 49.8962 117.421 50.834 115.781C51.7832 114.081 52.5121 112.267 53.0034 110.382C53.1131 109.907 53.2593 109.407 53.3446 108.944C53.4352 108.497 53.5003 108.046 53.5396 107.591C53.6133 106.665 53.5888 105.734 53.4665 104.813C53.0365 101.977 51.9424 99.2837 50.2734 96.9516C48.6559 94.5604 46.4808 92.5987 43.9359 91.2357L43.9603 91.126Z" fill="#231F20"/>
<path d="M114.148 69.2251C116.087 70.2658 118.129 71.1031 120.241 71.7235C121.679 72.1623 123.483 72.9423 125.019 72.5523C125.524 72.4623 125.991 72.2224 126.358 71.8638C126.726 71.5052 126.976 71.0444 127.079 70.5413C127.606 68.1369 127.912 65.6891 127.993 63.2288C128.078 62.1198 125.409 62.6073 125.336 63.5457C125.226 64.9716 125.08 66.3976 124.885 67.8235C124.799 68.4816 124.714 69.1276 124.604 69.7735C124.531 70.2123 124.105 71.1873 124.604 70.9923C124.032 71.2726 121.667 70.2123 121.07 70.0173C119.387 69.4633 117.755 68.7618 116.195 67.921C115.403 67.4944 112.978 68.6279 114.099 69.2373L114.148 69.2251Z" fill="#231F20"/>
<path d="M70.2112 126.47C67.8991 126.677 65.6588 127.38 63.6421 128.529C62.3381 129.151 59.4984 130.345 59.4252 132.088C59.3521 133.831 61.7165 135.415 62.8499 136.305C64.0481 137.262 65.3059 138.141 66.6159 138.938C67.5421 139.498 70.589 138.072 69.9309 137.719C67.7256 136.503 65.713 134.967 63.959 133.161C62.9352 131.942 62.5818 131.259 63.959 130.309C65.3652 129.222 67.0195 128.502 68.7731 128.213C69.8577 128.213 72.5877 126.543 70.2356 126.567L70.2112 126.47Z" fill="#231F20"/>
<path d="M48.2498 61.3885C49.2858 59.4085 49.8411 57.2124 49.8707 54.9779C49.9926 53.357 50.1632 51.1754 48.2741 50.6026C45.1785 49.652 40.8641 51.9188 38.1341 53.2351C36.6107 53.9663 37.9635 55.3679 39.2432 54.7463C41.3516 53.7348 43.9963 52.3088 46.3851 52.3088C47.9329 52.3088 47.4332 54.4538 47.3235 55.5629C47.299 57.3039 46.9043 59.0197 46.1657 60.5963C45.3004 61.9126 47.6038 62.3392 48.2498 61.3642V61.3885Z" fill="#231F20"/>
<path d="M119.888 78.4144C123.3 78.2471 126.712 78.7694 129.918 79.95C133.137 81.0942 136.068 82.9239 138.51 85.3126C140.281 87.07 141.719 89.1348 142.751 91.4063C144.612 95.3087 145.451 99.6198 145.189 103.935C145.03 106.101 144.49 108.222 143.592 110.199C142.677 112.166 141.38 113.93 139.778 115.391C136.929 117.923 133.398 119.559 129.625 120.096C124.856 120.892 119.958 119.995 115.78 117.561C114.562 116.768 114.903 116.586 116.17 116.72C117.438 116.854 119.619 117.219 122.069 117.609C126.388 118.451 130.864 117.86 134.817 115.928C136.716 114.952 138.379 113.576 139.692 111.893C141.008 110.16 141.927 108.159 142.386 106.031C143.604 100.852 141.923 94.9772 139.046 90.3582C137.334 87.8709 135.105 85.7828 132.512 84.2367C129.918 82.6906 127.021 81.7231 124.019 81.4004C120.288 80.8527 116.478 81.3988 113.05 82.9726C110.495 84.1813 108.332 86.0864 106.81 88.4691C105.331 90.9107 104.391 93.6411 104.056 96.4763C103.532 100.876 105.153 105.008 107.139 109.042L107.81 110.382L107.98 111.04V111.211C107.907 111.211 108.139 111.211 107.822 111.211V111.345L107.761 111.674C107.723 111.908 107.622 112.127 107.469 112.308L107.03 112.893C104.592 115.988 103.093 116.549 102.021 116.293C101.779 116.266 101.543 116.196 101.326 116.086C101.082 115.903 101.265 115.611 101.655 115.123C102.045 114.636 102.642 113.904 103.495 112.917C103.91 112.43 104.312 111.918 104.714 111.394L104.86 111.187V111.113C104.865 111.073 104.865 111.032 104.86 110.992C104.86 110.992 104.86 110.992 104.86 110.894L104.97 110.906C104.873 110.784 104.361 109.688 104.019 108.981C103.678 108.274 103.288 107.36 102.959 106.543C102.256 104.799 101.757 102.979 101.472 101.12C100.96 97.2394 101.525 93.293 103.105 89.7122C104.498 86.3844 106.859 83.5521 109.882 81.5832C112.887 79.695 116.33 78.616 119.875 78.451L119.888 78.4144Z" fill="#231F20"/>
<path d="M33.8558 80.6813C35.4671 70.9576 40.1227 61.9962 47.1524 55.0875C47.7496 54.4904 44.9586 54.8194 44.4346 55.3313C37.3041 62.3162 32.5648 71.3768 30.8943 81.2175C30.7846 81.8757 33.7339 81.3882 33.8558 80.6813Z" fill="#231F20"/>
<path d="M97.4999 130.15C88.0113 134.209 77.4038 134.83 67.5065 131.905C66.2877 131.589 63.3506 133.295 65.3493 133.855C76.4552 137.01 88.3109 136.222 98.9015 131.625C101.156 130.662 99.1087 129.456 97.4999 130.138V130.15Z" fill="#231F20"/>
<path d="M102.692 50.3711C110.48 54.6245 116.756 60.0236 120.851 68.0064C121.241 68.7742 123.861 67.8479 123.569 67.2873C119.437 59.2314 113.112 53.6982 105.288 49.3961C104.556 48.9939 102.265 50.1029 102.74 50.3711H102.692Z" fill="#231F20"/>
<path d="M69.6388 34.5151C70.5071 36.8043 71.1361 39.1772 71.5157 41.596C71.7595 42.7416 73.5145 42.2541 73.2829 41.1085C72.858 38.5362 72.1635 36.0157 71.211 33.5888C70.7479 32.5163 69.1757 33.4426 69.6388 34.5151Z" fill="#231F20"/>
<path d="M75.757 33.7229C76.4718 35.6273 76.9705 37.6059 77.2438 39.6216C77.4998 40.7673 79.267 40.2798 79.011 39.1341C78.6908 36.9651 78.1266 34.8391 77.3291 32.7966C76.8295 31.7363 75.2573 32.6626 75.757 33.7229Z" fill="#231F20"/>
<path d="M73.4535 37.5985C74.2724 37.2678 75.1273 37.0346 76.0007 36.9038C76.2351 36.8392 76.4341 36.6841 76.5541 36.4727C76.6741 36.2613 76.7052 36.0108 76.6406 35.7765C76.5759 35.5421 76.4208 35.3431 76.2094 35.2231C75.998 35.1031 75.7476 35.072 75.5132 35.1366C74.4867 35.3161 73.4846 35.6147 72.5273 36.0263C71.4913 36.5748 72.4176 38.1591 73.4535 37.5985Z" fill="#231F20"/>
<path d="M80.9972 33.1135C81.4847 34.6126 81.9234 36.136 82.3743 37.6472C82.439 37.8816 82.5941 38.0807 82.8055 38.2006C83.0169 38.3206 83.2674 38.3517 83.5017 38.2871C83.736 38.2224 83.9351 38.0673 84.0551 37.8559C84.1751 37.6445 84.2062 37.3941 84.1415 37.1597C83.6906 35.6485 83.2397 34.1251 82.7522 32.626C82.3865 31.5047 80.6194 31.9922 80.9972 33.1135Z" fill="#231F20"/>
<path d="M26.361 105.629C24.3745 107.993 26.6048 112.613 29.7613 112.442C31.687 112.344 32.4792 110.187 32.3085 108.53C32.077 106.446 30.6388 104.386 28.3598 104.471C27.7857 104.453 27.218 104.597 26.7223 104.887C26.2265 105.177 25.8228 105.601 25.5578 106.111C25.2928 106.621 25.1773 107.195 25.2245 107.767C25.2718 108.34 25.4798 108.887 25.8248 109.346C26.5195 110.285 28.1038 109.346 27.4092 108.42C26.9826 107.835 26.7876 107.201 27.4092 106.689C27.7087 106.472 28.0691 106.356 28.439 106.356C28.8089 106.356 29.1693 106.472 29.4688 106.689C30.3707 107.372 31.102 109.736 29.9929 110.565C29.3348 111.04 28.4451 110.151 28.0795 109.675C27.531 108.993 26.9948 107.774 27.6407 106.994C28.2867 106.214 27.1167 104.8 26.3488 105.702L26.361 105.629Z" fill="#231F20"/>
<path d="M33.7228 105.166C34.4401 106.23 35.0992 107.333 35.6972 108.469C35.8273 108.662 36.0262 108.798 36.2533 108.849C36.4803 108.901 36.7185 108.864 36.9191 108.745C37.1197 108.627 37.2676 108.437 37.3327 108.213C37.3978 107.99 37.3751 107.75 37.2694 107.543C36.6875 106.408 36.0447 105.305 35.3437 104.24C34.649 103.301 33.0647 104.24 33.7594 105.166H33.7228Z" fill="#231F20"/>
<path d="M36.6843 102.204C37.4335 104.028 38.2881 105.806 39.2437 107.53C39.9018 108.493 41.4862 107.53 40.8281 106.604C39.8589 104.885 39 103.106 38.2565 101.278C37.7202 100.23 36.1481 101.156 36.6843 102.204Z" fill="#231F20"/>
<path d="M37.147 106.872L38.5242 106.275C38.7252 106.153 38.8716 105.959 38.9329 105.732C38.9942 105.505 38.9656 105.263 38.8532 105.056C38.7274 104.86 38.5328 104.717 38.3074 104.656C38.0821 104.595 37.8422 104.621 37.6345 104.727L36.2573 105.312C36.0585 105.436 35.914 105.631 35.853 105.857C35.7919 106.083 35.8188 106.324 35.9282 106.531C36.0541 106.728 36.2486 106.87 36.474 106.931C36.6993 106.992 36.9393 106.967 37.147 106.86V106.872Z" fill="#231F20"/>
<path d="M117.389 100.718C119.096 98.28 120.241 95.5257 121.838 93.0272C122.472 92.0279 120.887 91.1138 120.254 92.101C118.657 94.5994 117.511 97.3538 115.817 99.8035C115.147 100.766 116.731 101.68 117.389 100.718Z" fill="#231F20"/>
<path d="M120.509 102.972C121.838 100.949 122.976 98.807 123.91 96.5738C124.446 95.5379 122.874 94.6116 122.325 95.6476C121.289 97.6463 120.619 99.8888 119.218 101.741C118.498 102.668 119.79 103.959 120.509 103.033V102.972Z" fill="#231F20"/>
<path d="M118.925 97.6463C119.532 98.1496 120.185 98.5944 120.875 98.9747C121.911 99.5354 122.837 97.9632 121.801 97.4025C121.241 97.1047 120.71 96.7537 120.217 96.3544C120.043 96.189 119.811 96.0967 119.571 96.0967C119.331 96.0967 119.099 96.189 118.925 96.3544C118.754 96.5258 118.658 96.7581 118.658 97.0004C118.658 97.2426 118.754 97.4749 118.925 97.6463Z" fill="#231F20"/>
<path d="M126.871 104.569C127.431 103.35 128.321 102.241 128.943 101.022C129.564 99.8035 127.895 99.0356 127.358 100.096C126.822 101.156 125.847 102.375 125.286 103.594C124.811 104.666 126.383 105.593 126.871 104.52V104.569Z" fill="#231F20"/>
<path d="M94.6969 132.393C86.5977 135.387 77.7594 135.746 69.4444 133.417C68.5791 133.185 66.3244 134.477 67.8234 134.879C77.042 137.377 86.8141 136.9 95.745 133.514C97.4878 132.893 95.9034 131.954 94.6969 132.393Z" fill="#231F20"/>
<path d="M32.369 78.9873C34.4896 70.1879 39.5475 62.5829 45.7753 56.0991C46.1896 55.6726 44.2153 55.9041 43.8618 56.282C37.5975 62.8145 32.4421 70.4804 30.2971 79.3651C30.1996 79.7916 32.2593 79.5113 32.3934 78.9873H32.369Z" fill="#231F20"/>
<path d="M105.117 50.3832C112.173 54.3076 117.304 60.1332 121.35 67.0313C121.716 67.6529 123.532 67.0313 123.081 66.2635C118.913 59.3044 113.721 53.3691 106.579 49.396C105.958 49.0426 104.264 49.9079 105.117 50.3832Z" fill="#231F20"/>
<path d="M69.4682 17.7451C50.3216 22.6201 45.727 40.9013 53.9901 52.0529C59.8401 59.9504 69.8338 60.6694 78.9379 59.7554L81.8629 57.1838C81.8629 57.1838 62.5579 60.0601 56.6226 47.7019C56.6226 47.7019 51.4185 41.1207 55.4038 31.7119C59.3891 22.3032 69.4682 17.7451 69.4682 17.7451Z" fill="#231F20"/>
<path d="M23.497 89.1638C8.53071 93.8438 4.95977 113.344 16.0382 122.972C18.7484 125.578 22.3128 127.111 26.0685 127.286L29.6151 125.97C29.6151 125.97 17.2082 122.411 14.8926 115.842C12.577 109.273 10.4807 99.2185 23.497 89.1638Z" fill="#231F20"/>
<path d="M140.521 89.1638C145.749 95.1235 148.455 105.422 144.677 112.43C141.094 119.096 133.818 123.106 124.555 121.814L120.899 119.438C120.899 119.438 131.392 120.827 137.45 116.074C143.287 111.54 147.236 104.703 140.521 89.1638Z" fill="#231F20"/>
</svg>
