<svg width="180" height="156" viewBox="0 0 180 156" fill="none" xmlns="http://www.w3.org/2000/svg">
<path d="M179.679 111.997C175.978 146.209 167.978 156 103.644 156C39.3089 156 13 127.48 13 102.97C13 78.4602 50.424 76.0937 83.4174 71.7542C142.765 63.9483 184.078 71.348 179.679 111.997Z" fill="#FCEAD9"/>
<path d="M82.478 41.3892C70.9719 42.9804 59.9605 59.1865 56.2923 79.9234C50.4757 112.804 65.7816 136.17 83.5856 123.844C92.2793 117.825 99.4174 104.255 102.212 88.4388C106.431 64.5039 99.6581 43.874 86.797 41.4716C85.3715 41.2086 83.9125 41.1808 82.478 41.3892ZM98.9182 87.8549C96.2751 102.831 89.6696 115.565 81.6846 121.094C65.9799 131.958 54.6253 108.547 59.5861 80.5073C62.9513 61.4686 72.991 46.0759 82.9416 44.6986C84.0159 44.5383 85.1095 44.5579 86.1774 44.7565C96.8523 46.7533 102.687 66.4873 98.9182 87.8549Z" fill="#0F172A"/>
<path d="M31.5039 124.978C35.0362 134.528 39.763 140.884 49.3681 145.098C51.4095 146.381 54.0838 146.858 56.1875 147.48C63.9653 149.776 72.1419 151.378 79.8995 148.882C88.5152 146.11 95.143 138.648 99.8787 130.503C106.29 119.476 112.122 101.643 112.671 88.5166C118.204 54.161 108.104 23.7811 89.7766 20.3536C87.5168 19.9234 85.3863 19.948 83.0909 20.3157C73.4055 14.4902 58.4429 16.5204 46.3127 31.882C26.757 56.6191 20.8847 96.1762 31.5039 124.978ZM48.7085 34.2643C52.7867 34.1774 57.1481 35.5858 60.0296 37.9102C54.369 46.1782 49.6667 56.8442 46.6025 68.8874C42.464 66.8037 37.55 66.2733 32.997 67.3697C36.2285 54.7449 41.6015 43.3636 48.7085 34.2643ZM32.0945 71.1226C36.5717 69.5002 41.7308 69.8902 45.8046 72.2236C43.2262 83.7118 42.1899 96.0069 43.2752 107.823C39.2147 106.608 34.5593 106.958 30.8242 108.681C28.8965 96.7133 29.3199 83.8099 32.0945 71.1226ZM31.4192 112.119C34.6417 110.314 39.1635 109.893 42.8228 111.159C43.0886 111.244 43.3717 111.259 43.6451 111.203C44.697 119.342 46.7763 126.59 49.7715 132.48C46.6899 132.628 43.7055 133.606 41.1335 135.31C35.9031 129.509 32.899 119.821 31.4192 112.119ZM43.6474 137.719C47.8438 135.281 50.6339 136.041 51.5833 135.698C53.8832 139.379 56.5909 142.383 59.6998 144.505C54.0437 143.821 48.2226 141.525 43.6474 137.719ZM89.1548 23.6385C106.018 26.7919 114.957 56.443 109.085 89.7379C105.053 112.572 94.9424 132.023 82.6964 140.503C76.082 145.078 68.5494 146.399 61.8526 141.951C48.8154 133.371 42.9833 106.617 47.9864 78.3365C53.1344 49.2269 68.6096 25.6754 83.9934 23.5471C85.7078 23.291 87.4528 23.3219 89.157 23.6385H89.1548ZM78.2125 21.6929C72.4606 24.0106 66.9159 28.7129 61.9885 35.1981C59.1671 32.9695 55.363 31.4853 51.4518 31.0485C60.7004 21.0689 70.7178 19.1301 78.2125 21.6929Z" fill="#0F172A"/>
<path d="M74.4641 135.33C71.2577 135.621 68.0488 134.801 65.3759 133.006C65.0095 132.756 64.5588 132.662 64.1231 132.745C63.6874 132.827 63.3024 133.079 63.0527 133.446C62.8029 133.812 62.709 134.263 62.7916 134.699C62.8741 135.134 63.1263 135.519 63.4928 135.769C66.8124 138.004 70.8021 139.024 74.7872 138.657C75.0057 138.636 75.2178 138.572 75.4115 138.469C75.6053 138.366 75.7768 138.225 75.9162 138.056C76.0557 137.886 76.1604 137.691 76.2244 137.481C76.2884 137.271 76.3105 137.051 76.2893 136.832C76.268 136.614 76.204 136.402 76.1008 136.208C75.9976 136.014 75.8572 135.843 75.6877 135.703C75.5183 135.564 75.323 135.459 75.113 135.395C74.903 135.331 74.6825 135.309 74.4641 135.33ZM78.8031 35.4923C79.0443 35.8639 79.4233 36.1246 79.8566 36.2169C80.29 36.3093 80.7423 36.2258 81.1141 35.9848C83.9689 34.1373 88.2611 34.8995 90.3047 37.6183C90.5707 37.973 90.9667 38.2074 91.4055 38.2701C91.8443 38.3328 92.2901 38.2186 92.6447 37.9526C93.4961 37.313 93.4715 36.3614 92.8431 35.3898C91.0781 32.662 84.5506 29.7738 79.2956 33.1813C78.9239 33.4225 78.6633 33.8015 78.5709 34.2348C78.4786 34.6682 78.5621 35.1205 78.8031 35.4923ZM119.33 32.8581C119.704 32.8581 118.971 32.9762 129.452 30.4557C131.593 29.9342 130.822 26.6939 128.663 27.2065L118.937 29.5621C117.025 30.0256 117.364 32.8581 119.33 32.8581ZM113.551 22.0941L119.483 14.4501C120.838 12.7007 118.195 10.6549 116.84 12.3998L110.91 20.0461C110.638 20.3963 110.517 20.8401 110.572 21.28C110.627 21.7199 110.855 22.1197 111.205 22.3916C111.379 22.5263 111.577 22.6254 111.789 22.6834C112 22.7414 112.222 22.7572 112.439 22.7298C112.879 22.6744 113.279 22.4465 113.551 22.0963V22.0941ZM104.039 17.0932C104.461 17.0926 104.868 16.9324 105.176 16.6447C105.485 16.357 105.674 15.9631 105.704 15.5421L106.277 7.63515C106.437 5.42441 103.101 5.19932 102.943 7.39223L102.37 15.2992C102.354 15.5286 102.385 15.759 102.461 15.9758C102.538 16.1927 102.658 16.3915 102.815 16.5597C102.972 16.7279 103.162 16.8619 103.373 16.9533C103.584 17.0447 103.812 17.0916 104.042 17.091L104.039 17.0932ZM81.0071 65.9524C81.0138 64.408 81.0071 62.8614 81.0205 61.317C81.022 61.0975 80.9802 60.8798 80.8976 60.6765C80.8149 60.4731 80.693 60.2881 80.5389 60.1318C80.3847 59.9756 80.2012 59.8512 79.999 59.7659C79.7968 59.6805 79.5797 59.6359 79.3602 59.6344H79.3491C78.9077 59.6344 78.4843 59.809 78.1711 60.12C77.858 60.4311 77.6806 60.8533 77.6777 61.2947C77.6643 63.2848 77.6665 65.2771 77.6598 67.2673C72.416 70.2892 66.2941 79.2614 68.7389 84.1866C70.3813 87.4893 74.1855 86.7405 77.72 85.907C77.7713 90.6985 77.8515 95.4676 77.9495 100.221C76.004 100.901 72.933 101.224 72.211 99.2851C72.0485 98.8813 71.7349 98.5568 71.3368 98.3807C70.9388 98.2045 70.4877 98.1905 70.0796 98.3418C69.6714 98.493 69.3384 98.7975 69.1513 99.1905C68.9641 99.5835 68.9377 100.034 69.0776 100.446C70.3991 104.012 74.2479 104.631 78.0275 103.649C78.0721 105.476 78.1033 107.319 78.1546 109.138C78.1662 109.573 78.3471 109.986 78.6588 110.29C78.9705 110.594 79.3885 110.764 79.8238 110.765H79.8683C80.0879 110.759 80.3041 110.71 80.5047 110.62C80.7053 110.531 80.8863 110.403 81.0373 110.244C81.1884 110.084 81.3066 109.897 81.3852 109.692C81.4637 109.487 81.5011 109.268 81.4952 109.049C81.4328 106.815 81.3905 104.562 81.3392 102.318C88.1965 98.5051 92.0363 89.9541 91.0781 85.5861C90.483 82.8762 87.8422 80.7568 85.3462 80.924C83.9087 81.0287 82.4624 81.3162 81.0339 81.6527C81.0049 77.5766 80.9915 73.4961 80.9982 69.4134C83.8575 68.4595 86.1239 69.5917 87.314 71.9718C87.4075 72.1759 87.5411 72.359 87.7069 72.5104C87.8727 72.6617 88.0673 72.7781 88.279 72.8526C88.4908 72.927 88.7153 72.9581 88.9394 72.9439C89.1634 72.9297 89.3823 72.8705 89.5829 72.7699C89.7836 72.6693 89.9619 72.5293 90.1073 72.3582C90.2526 72.1872 90.3621 71.9886 90.429 71.7743C90.496 71.5601 90.5191 71.3345 90.4969 71.1112C90.4748 70.8878 90.4079 70.6711 90.3003 70.4742C88.484 66.8438 84.867 65.1167 81.0071 65.9524ZM85.5869 84.2579C86.2621 84.2155 87.5369 85.0424 87.8154 86.3037C88.1051 87.6409 87.5926 89.8382 86.4716 92.0401C85.179 94.5829 83.2892 96.8516 81.2523 98.3915C81.165 93.9555 81.0989 89.5191 81.0539 85.0825C82.6251 84.6947 84.1338 84.3649 85.5869 84.2579ZM77.6977 82.4706C73.2094 83.5804 70.7267 84.2824 71.7519 80.1016C72.3625 77.6078 74.6111 73.8126 77.6487 71.3433C77.6487 75.0561 77.6687 78.7645 77.6977 82.4706Z" fill="#0F172A"/>
</svg>
