<svg width="209" height="182" viewBox="0 0 209 182" fill="none" xmlns="http://www.w3.org/2000/svg">
<path d="M208.626 130.663C204.304 170.577 194.964 182 119.847 182C44.7295 182 14.0112 148.727 14.0112 120.132C14.0112 91.5369 57.7074 88.776 96.2304 83.7132C165.525 74.6063 213.761 83.2394 208.626 130.663Z" fill="#FCEAD9"/>
<path d="M23.304 92.3382C23.304 93.6765 24.1076 94.4794 25.179 94.4794C27.054 94.4794 27.8576 92.6059 27.054 91.2677C26.7862 90.4647 23.304 90.1971 23.304 92.3382ZM25.179 144.529C24.1076 144.529 23.0361 145.332 23.0361 146.671V146.938C23.0361 148.009 23.8397 149.079 25.179 149.079C26.5183 149.079 27.3219 148.276 27.3219 146.938V146.671C27.3219 145.6 26.5183 144.529 25.179 144.529ZM160.449 86.45H160.181C159.109 86.45 158.038 87.253 158.038 88.5912C158.038 89.9294 158.841 90.7324 160.181 90.7324H160.449C161.52 90.7324 162.592 89.9294 162.592 88.5912C162.592 87.253 161.52 86.45 160.449 86.45ZM157.502 141.318C156.699 140.515 155.359 140.782 154.556 141.585C153.752 142.388 154.02 143.726 154.824 144.529H155.359C156.163 145.332 157.502 145.065 158.306 144.262C159.109 143.459 158.841 142.121 158.038 141.318H157.502Z" fill="#0F172A"/>
<path d="M155.895 36.1324C157.502 33.7235 160.181 31.85 162.859 31.0471C163.931 30.7794 164.466 29.7088 164.198 28.6382C163.931 27.5677 162.859 27.0324 161.788 27.3C157.77 28.3706 154.02 31.3147 151.877 34.7941C138.752 32.1177 123.752 38.5412 119.198 52.7265L118.394 51.9235C116.251 50.05 113.573 48.9794 110.894 48.4441C114.376 41.753 113.305 32.1177 107.948 27.3C101.787 21.9471 91.6082 22.2147 85.9832 27.8353C81.4295 32.3853 80.0902 39.3441 82.2331 45.5C76.3402 45.7677 70.983 48.1765 67.7686 53.5294C66.1615 48.4441 61.34 45.7677 56.2506 44.1618C57.3221 37.4706 60.5364 31.0471 65.6258 26.4971C66.4293 25.6941 66.4293 24.3559 65.8936 23.553C65.09 22.75 63.7507 22.75 62.9471 23.2853C60.2685 25.6941 57.8578 28.9059 55.9828 32.1177C56.5185 29.1735 57.0542 26.2294 58.1257 23.553C58.6614 22.4824 58.1257 21.4118 57.0542 20.8765C55.9828 20.6088 54.9113 20.8765 54.3756 21.9471C53.3042 24.8912 52.5006 28.103 51.9649 31.0471C50.8934 27.5677 49.2863 24.3559 47.4112 21.4118C46.8755 20.3412 45.5362 20.0735 44.7326 20.6088C43.6612 21.1441 43.3933 22.4824 43.929 23.2853C47.4112 28.9059 49.5541 35.3294 50.0898 42.0206C45.8041 40.95 41.2504 41.2177 38.0361 44.4294C36.1611 40.4147 32.1432 38.5412 27.8574 38.5412C24.9109 38.5412 22.2323 39.3441 19.5537 40.1471C19.5537 35.3294 20.0894 30.5118 21.6966 25.9618C22.2323 25.1588 21.6966 24.0882 20.6252 23.8206C19.5537 23.553 18.4823 24.0882 18.2144 25.1588C17.4108 27.5677 16.8751 30.2441 16.6073 32.653C16.0715 29.9765 15.8037 27.0324 15.8037 24.0882C15.8037 23.0177 15.0001 21.9471 13.9286 21.9471C12.5893 22.2147 11.7858 23.0177 11.7858 24.0882C11.7858 27.3 12.0536 30.2441 12.5893 33.4559C11.5179 32.3853 10.4465 31.3147 9.10716 30.2441C8.30358 29.7088 6.96427 29.7088 6.42855 30.7794C5.89283 31.5824 5.89283 32.9206 6.96427 33.4559C10.1786 35.8647 12.5893 39.0765 14.1965 43.0912C9.64288 45.2324 7.49999 48.4441 7.23213 51.6559C6.96427 54.3324 7.49999 56.7412 8.30358 58.6147C10.7143 65.5735 13.9286 72.2647 17.6787 78.6882C16.8751 79.2235 16.3394 80.2941 16.0715 81.3647C12.0536 88.3235 15.0001 99.2971 15.0001 101.438C15.0001 103.044 15.5358 104.382 16.0715 105.453C17.9466 111.876 21.9645 111.074 28.3931 110.538L27.0538 126.865C22.5002 126.865 17.6787 127.4 15.268 129.809C14.1965 130.879 13.6608 132.485 13.3929 134.359C11.7858 139.979 10.9822 145.6 11.25 151.488C11.25 154.7 12.0536 158.179 14.4644 160.053C16.6073 161.659 19.8216 161.659 22.5002 161.659C153.216 157.109 158.306 159.785 163.931 157.109C169.02 154.7 169.288 149.347 169.556 146.671L170.627 133.288C170.627 131.682 170.895 128.471 168.216 126.597C166.341 125.259 163.931 125.259 162.056 124.991C162.323 118.835 162.591 112.144 162.591 106.524C169.02 105.721 171.163 101.438 171.699 95.0147C172.77 80.5618 173.306 79.2235 172.234 77.0824C181.342 65.3059 173.841 43.0912 155.895 36.1324ZM150.002 38.5412C149.466 40.4147 149.198 42.5559 149.198 44.6971C148.663 43.8941 147.323 43.3588 146.52 44.1618C142.502 46.5706 151.877 54.6 159.109 50.05C159.913 49.5147 160.181 48.1765 159.645 47.3735C159.109 46.5706 157.77 46.303 156.966 46.8382C156.163 47.3735 155.091 47.6412 154.02 47.6412C153.216 45.2324 153.484 42.5559 154.02 40.1471C169.824 45.7677 176.252 65.0382 169.824 74.4059C168.216 73.6029 166.073 73.6029 164.734 73.6029C151.609 73.3353 138.216 73.0677 124.287 73.0677C126.966 70.1235 127.769 65.8412 126.698 62.0941C125.894 58.3471 124.287 55.9382 123.484 52.9941C128.037 41.4853 139.823 36.9353 150.002 38.5412ZM118.394 58.6147C120.805 63.1647 120.001 68.25 117.591 71.7294C117.323 71.9971 117.323 72.2647 117.323 72.2647H98.5726C101.519 67.4471 101.787 61.0235 99.3762 55.403C104.466 50.3177 115.18 51.3882 118.394 58.6147ZM88.6618 30.7794C92.9475 26.4971 100.715 26.4971 105.269 30.5118C109.555 34.5265 110.358 43.3588 106.608 48.4441V48.7118C103.126 48.9794 99.9119 50.3177 97.2333 52.4588C94.8226 49.2471 91.6082 47.1059 86.7868 46.0353C83.8403 40.95 84.6439 34.5265 88.6618 30.7794ZM72.858 52.9941C78.4831 47.3735 90.2689 47.6412 94.8226 56.2059C97.5012 61.0235 97.2333 67.1794 94.2868 71.1941C94.2868 71.1941 94.019 71.4618 94.019 71.7294C94.019 71.9971 93.7511 72.2647 93.7511 72.5324C81.6974 72.8 72.5901 73.0677 72.0544 73.0677C72.0544 72.8 71.7865 72.5324 71.7865 72.2647C67.2329 66.9118 67.7686 57.8118 72.858 52.9941ZM64.8222 64.2353C64.8222 67.4471 65.8936 70.6588 67.5008 73.3353C60.2685 73.6029 60.0007 73.6029 58.1257 73.6029C60.5364 70.6588 62.6793 67.4471 64.8222 64.2353ZM64.0186 56.2059C64.0186 58.6147 62.4114 60.7559 53.3042 73.8706C47.1434 74.1382 40.9826 74.4059 34.5539 74.9412C35.0896 70.1235 37.7682 51.1206 40.9826 47.6412C43.929 44.6971 49.0184 46.0353 53.0363 47.3735C55.447 48.1765 58.3935 48.9794 60.5364 50.5853C62.4114 51.6559 64.0186 53.7971 64.0186 56.2059ZM10.7143 52.1912C11.25 47.9088 16.3394 46.0353 20.3573 44.6971C23.0359 43.8941 25.7145 42.8235 28.3931 42.8235C30.536 42.8235 33.2146 43.6265 34.2861 45.5C34.8218 46.0353 35.0896 46.8382 35.0896 47.6412C32.411 51.1206 28.661 62.6294 29.4646 75.2088C26.5181 75.2088 23.3038 75.4765 20.6252 76.2794C17.143 70.3912 13.9286 63.9677 11.5179 57.0088C11.25 55.4029 10.7143 53.7971 10.7143 52.1912ZM67.2329 108.129L158.841 106.524C159.109 111.876 158.573 118.568 158.306 124.724C114.376 123.653 77.1438 123.653 30.8039 126.865L32.1432 110.538C44.1969 109.468 55.7149 108.932 67.2329 108.129ZM166.073 146.135C165.538 153.362 163.127 154.165 157.234 154.165C147.591 154.432 198.753 153.362 25.1788 156.574C17.9466 156.841 17.4108 156.306 17.143 153.094C16.8751 149.882 17.4108 146.403 17.6787 142.924C17.9466 140.515 17.4108 134.091 18.7501 132.753C20.3573 130.879 28.9288 131.147 32.1432 130.879C44.7326 129.809 80.6259 128.203 113.841 128.203C130.716 128.203 147.055 128.471 162.859 129.006C164.198 129.006 165.806 129.006 166.877 129.809C167.681 130.344 166.877 132.485 166.073 146.135ZM168.216 94.4794C167.681 101.706 165.27 102.509 159.377 102.509C149.734 102.776 200.36 101.706 27.3217 104.918C20.0894 104.918 19.5537 104.65 19.2859 101.438C19.018 95.55 19.8216 93.6765 19.8216 88.0559C19.8216 85.9147 19.8216 82.1677 20.6252 81.0971C22.5002 79.2235 30.8039 79.4912 34.0182 79.2235C46.3398 78.1529 82.501 76.5471 115.716 76.5471C132.591 76.5471 148.93 76.8147 164.734 77.35C166.073 77.35 167.681 77.35 168.752 78.153C169.824 78.6882 169.02 80.8294 168.216 94.4794Z" fill="#0F172A"/>
<path d="M85.1794 59.4176C86.2508 59.4176 87.0544 58.6147 87.0544 57.2765V56.7412C87.0544 55.6706 86.2508 54.6 85.1794 54.6C84.1079 54.6 83.0365 55.4029 83.0365 56.7412V57.2765C83.0365 58.6147 84.1079 59.4176 85.1794 59.4176ZM98.5724 33.9912C99.6439 33.9912 100.715 33.1882 100.715 31.85V31.3147C100.715 30.2441 99.9117 29.1735 98.5724 29.1735C95.8938 29.4412 95.8938 33.9912 98.5724 33.9912ZM106.876 64.5029V65.0382C106.876 66.1088 107.68 67.1794 109.019 67.1794C110.358 67.1794 111.162 66.3765 111.162 65.0382V64.5029C111.162 63.4323 110.358 62.3618 109.019 62.3618C107.68 62.3618 106.876 63.4323 106.876 64.5029ZM82.7686 89.1265C73.1257 89.3941 63.4827 89.1265 53.8397 88.5912C52.7682 88.5912 51.6968 89.3941 51.6968 90.4647C51.6968 91.5353 52.5004 92.6059 53.5718 92.6059C63.4827 93.4088 73.1257 93.4088 83.0365 93.1412C84.1079 93.1412 84.9115 92.0706 84.9115 91C84.6437 89.9294 83.8401 88.8588 82.7686 89.1265ZM127.769 82.9706L124.019 82.4353C122.948 82.1676 121.876 82.9706 121.608 84.0412C121.341 85.1118 122.144 86.1823 123.216 86.45C126.966 87.2529 126.966 87.2529 127.234 87.2529C128.305 87.2529 129.109 86.45 129.109 85.6471C129.376 84.3088 128.841 83.2382 127.769 82.9706ZM61.8755 139.176L51.9647 138.909C50.8932 138.909 49.8218 139.712 49.8218 140.782C49.8218 141.853 50.6254 142.924 51.6968 142.924C52.7682 142.924 47.9468 142.924 61.8755 143.191C62.9469 143.191 63.7505 142.388 63.7505 141.318C63.7505 140.247 62.9469 139.176 61.8755 139.176ZM100.447 138.374H94.8224C93.7509 138.374 92.6795 139.176 92.6795 140.515C92.6795 141.853 93.4831 142.656 94.8224 142.656H100.447C101.519 142.656 102.59 141.853 102.59 140.515C102.59 139.176 101.519 138.374 100.447 138.374ZM136.609 140.247L134.734 140.782C132.591 141.585 133.126 144.797 135.269 144.797C135.805 144.797 136.073 144.529 137.948 143.994C139.019 143.726 139.555 142.388 139.287 141.318C139.019 140.515 137.68 139.979 136.609 140.247Z" fill="#0F172A"/>
</svg>
