<svg width="209" height="182" viewBox="0 0 209 182" fill="none" xmlns="http://www.w3.org/2000/svg">
<path d="M208.626 130.663C204.304 170.577 194.964 182 119.847 182C44.7295 182 14.0112 148.727 14.0112 120.132C14.0112 91.5369 57.7074 88.776 96.2304 83.7132C165.525 74.6063 213.761 83.2394 208.626 130.663Z" fill="#FCEAD9"/>
<path d="M24.4367 103.293C24.4222 103.565 24.4634 103.838 24.5578 104.094C24.6522 104.35 24.7979 104.584 24.9859 104.782C25.1739 104.98 25.4003 105.138 25.6513 105.245C25.9023 105.353 26.1726 105.408 26.4457 105.407C26.7136 105.407 36.678 105.054 38.8209 104.757C39.2893 104.692 39.7199 104.464 40.0373 104.114C40.3546 103.764 40.5384 103.313 40.5566 102.841C40.5753 102.351 40.6182 91.0428 40.503 90.5664C40.3773 90.0492 40.0516 89.6028 39.5973 89.3249C39.143 89.0471 38.597 88.9603 38.0789 89.0836C34.9637 89.8277 28.835 88.9016 25.3501 90.992C25.069 91.1615 24.8336 91.3972 24.6646 91.6785C24.4955 91.9598 24.398 92.2782 24.3805 92.6059C24.201 95.9996 24.6055 100.162 24.4367 103.293ZM36.4985 93.3446C36.4878 95.9622 36.5976 98.3683 36.5789 100.967C33.9887 101.189 31.3127 101.109 28.4975 101.246C28.4868 98.8742 28.3261 96.2298 28.3529 94.0431C30.4261 93.4302 33.8922 93.54 36.4985 93.3446ZM46.8781 102.038C46.8635 102.31 46.9047 102.583 46.9991 102.839C47.0936 103.095 47.2392 103.329 47.4272 103.527C47.6153 103.725 47.8417 103.882 48.0927 103.99C48.3437 104.097 48.614 104.153 48.8871 104.152C49.1549 104.152 59.1193 103.796 61.2622 103.502C61.7311 103.437 62.1621 103.209 62.4795 102.858C62.7969 102.507 62.9804 102.055 62.998 101.583C63.0703 99.5513 62.9497 89.3325 62.9444 89.3085C62.818 88.7918 62.4921 88.346 62.0379 88.0687C61.5837 87.7914 61.038 87.7049 60.5202 87.8284C57.4104 88.5697 51.271 87.6437 47.7915 89.734C47.5097 89.903 47.2736 90.1385 47.1041 90.4199C46.9346 90.7013 46.8367 91.02 46.8192 91.3479C46.6424 94.6828 47.0469 98.9009 46.8781 102.038ZM58.9399 92.0866C58.9292 94.7042 59.039 97.113 59.0202 99.7119C56.4193 99.9314 53.7782 99.8457 50.9389 99.9876C50.9282 97.6751 50.7674 95.0629 50.7942 92.7879C52.8568 92.1723 56.3229 92.2847 58.9399 92.0866ZM70.1579 101.829C70.1433 102.101 70.1844 102.374 70.2787 102.629C70.3729 102.885 70.5184 103.119 70.7061 103.317C70.8938 103.515 71.1199 103.673 71.3706 103.78C71.6213 103.888 71.8913 103.943 72.1642 103.943C72.432 103.943 82.3964 103.59 84.5447 103.29C85.0128 103.225 85.4431 102.998 85.76 102.647C86.0769 102.297 86.2602 101.846 86.2777 101.374C86.3125 100.397 86.2858 89.3566 86.2242 89.0997C86.099 88.5827 85.7739 88.1363 85.32 87.8584C84.8661 87.5805 84.3205 87.4937 83.8027 87.6169C80.7116 88.3556 74.5535 87.4349 71.074 89.5226C70.7918 89.6914 70.5553 89.9269 70.3854 90.2082C70.2154 90.4896 70.117 90.8083 70.0989 91.1365C69.9195 94.5436 70.3266 98.6841 70.1579 101.829ZM82.2196 91.8752C82.2089 94.4259 82.3214 97.0515 82.3 99.5031C79.7044 99.7226 77.0606 99.637 74.216 99.7788C74.2053 97.4128 74.0472 94.7631 74.074 92.5764C76.1365 91.9635 79.6321 92.0706 82.2196 91.8752Z" fill="#0F172A"/>
<path d="M10.9366 168.505H14.7884C36.0565 172.63 173.697 173.572 176.394 172.758C178.939 171.987 177.626 167.02 175.465 165.773C176.252 164.689 176.732 163.364 176.732 161.926V159.234C176.728 157.554 176.08 155.939 174.921 154.722C173.762 153.505 172.18 152.778 170.501 152.69C170.565 151.389 170.726 161.308 169.127 98.9384C169.117 98.573 169.007 98.2173 168.81 97.9095C168.612 97.6016 168.335 97.3531 168.007 97.1907C162.527 94.4928 157.713 92.1321 153.363 90.0177C149.71 61.5856 152.08 76.9351 149.514 41.0303C149.935 40.5967 149.94 40.1096 149.94 39.6118C149.94 35.3615 131.994 36.4749 129.342 37.3983C127.654 37.8533 127.14 39.5716 127.772 40.7225L125.683 76.7076C117.066 72.7946 109.582 69.8023 99.0895 65.2416V44.6248C99.0897 44.3119 99.0167 44.0032 98.8763 43.7235C98.7359 43.4438 98.532 43.2008 98.2808 43.0138C98.0297 42.8269 97.7383 42.7012 97.4299 42.6468C97.1215 42.5923 96.8047 42.6107 96.5046 42.7004C67.3935 51.407 59.0149 57.049 12.9643 77.3072C12.6041 77.4665 12.2986 77.7279 12.0858 78.059C11.8729 78.3902 11.7621 78.7765 11.7669 79.17L12.616 152.655H10.9366C9.1908 152.657 7.51695 153.35 6.28252 154.584C5.04808 155.817 4.35396 157.49 4.35254 159.234V161.926C4.35396 163.671 5.04808 165.343 6.28252 166.577C7.51695 167.81 9.1908 168.504 10.9366 168.505ZM165.141 100.255L166.507 152.652H159.289C159.374 149.789 155.972 110.437 153.974 94.7818C157.387 96.4466 161.072 98.2505 165.141 100.255ZM131.704 42.3311C135.173 42.7754 142.231 42.6629 145.558 42.2641L146.003 50.133C141.671 51.2062 135.411 51.0109 131.278 49.6699L131.704 42.3311ZM131.04 53.8104C135.468 55.0095 141.401 55.2424 146.236 54.2173L151.807 152.658H125.305C127.491 117.253 128.921 90.3389 131.037 53.8104H131.04ZM103.332 71.4457C111.754 75.0375 117.108 77.1948 125.434 81.0114L121.279 152.658H105.462C104.064 121.683 103.185 102.774 103.332 71.4457ZM95.0716 47.3307C95.0984 169.124 94.9698 150.798 95.0984 152.658H71.8534C71.7999 140.801 72.1079 133.561 70.0186 127.151C65.3444 112.819 51.3808 110.811 44.6468 122.574C40.1039 130.521 39.9593 143.603 40.2244 152.658H16.634L15.8009 80.452C59.9658 60.9887 68.5052 55.4538 95.0716 47.3307ZM67.8355 152.655H45.9701C46.0745 146.606 47.0736 130.232 50.1755 124.994C52.5005 121.059 56.6256 119.678 60.6086 122.229C63.4748 124.062 65.2533 125.489 66.1989 128.39C68.1275 134.305 67.7873 141.746 67.8355 152.655ZM8.37045 159.234C8.37045 157.818 9.52225 156.67 10.9366 156.67H170.148C171.562 156.67 172.714 157.821 172.714 159.234V161.926C172.714 163.34 171.562 164.491 170.148 164.491H10.9366C10.2562 164.49 9.60391 164.219 9.12283 163.739C8.64174 163.258 8.37116 162.606 8.37045 161.926V159.234ZM141.706 12.8845C141.956 12.7996 142.186 12.6664 142.385 12.4925C142.583 12.3186 142.745 12.1074 142.861 11.8709C142.978 11.6344 143.047 11.3773 143.064 11.1143C143.081 10.8512 143.046 10.5874 142.961 10.3379C142.876 10.0883 142.743 9.85793 142.569 9.65986C142.395 9.46179 142.183 9.29991 141.947 9.18347C141.71 9.06703 141.453 8.99832 141.189 8.98124C140.926 8.96416 140.662 8.99906 140.412 9.08394C137.901 9.95067 135.782 11.6859 134.439 13.9765C132.744 16.9126 132.96 19.7738 136.469 21.9738C137.557 22.6536 138.591 23.4486 138.221 25.8467C137.988 27.3562 137.187 28.8711 136.411 30.3324C136.161 30.8031 136.109 31.3534 136.266 31.8624C136.423 32.3713 136.775 32.7972 137.246 33.0464C137.717 33.2955 138.268 33.3475 138.777 33.1909C139.287 33.0343 139.713 32.6819 139.962 32.2113C140.849 30.5359 141.856 28.6356 142.191 26.4569C142.697 23.1702 141.631 20.4563 138.602 18.572C137.549 17.9109 136.954 17.6567 137.921 15.9866C138.752 14.5493 140.134 13.4198 141.706 12.8845Z" fill="#0F172A"/>
</svg>
