<svg width="424" height="24" viewBox="0 0 424 24" fill="none" xmlns="http://www.w3.org/2000/svg">
<path d="M0.990484 1.5463C139.825 -4.26997 282.918 11.2253 422.862 3.75902C424.289 3.68315 424.417 5.23837 423.001 5.35849C283.81 17.0353 140.805 1.2302 1.14899 3.12681C-0.267685 3.16475 -0.436097 1.60952 0.990484 1.5463Z" fill="#F39F51"/>
<path d="M216.394 19.9625C261.619 19.8044 308.21 20.1964 353.485 20.5062C355 20.5062 355.169 21.4671 353.673 21.5493C308.319 24.0402 261.896 23.6293 216.305 21.0056C214.799 20.9234 214.878 19.9688 216.394 19.9625Z" fill="#F39F51"/>
<path d="M204.605 20.0067C198.192 20.0836 191.78 19.8193 185.435 19.2164C183.048 18.9888 183.345 17.8888 185.802 17.8572C192.212 17.7805 198.621 18.0448 204.962 18.6474C207.349 18.875 207.062 19.9751 204.605 20.0067Z" fill="#F39F51"/>
</svg>
