<svg width="274" height="200" viewBox="0 0 274 200" fill="none" xmlns="http://www.w3.org/2000/svg">
<path d="M249.854 175.767L250.032 176.095L250.493 176.585L250.572 176.712L250.617 176.869L250.608 177.276L250.558 177.521L250.464 177.781L250.395 177.905L250.314 178.024L249.785 178.507L249.686 178.641L249.621 178.828L249.604 179.031L249.614 179.206L249.654 179.371L249.728 179.544L250.391 180.494L250.833 181.245L250.972 181.561L251.004 181.72L250.998 181.789L250.863 182.452L250.636 182.998L250.493 183.182L250.324 183.332L250.137 183.449L249.893 183.534L249.624 183.567L249.023 183.522L248.197 183.299L247.461 183.269L247.261 183.305L247.066 183.392L246.865 183.602L246.711 183.918L246.693 184.233L246.732 184.343L247.022 184.905L247.878 185.497L248.092 185.665L248.319 185.907L249.262 186.417L249.46 186.369L249.562 186.287L249.632 186.287L249.839 186.436L249.909 186.536L249.993 186.765L250.033 187.186L250.023 187.631L249.849 187.813L249.755 187.857L249.634 187.877L249.47 187.842L249.29 187.739L249.118 187.706L248.954 187.712L248.845 187.752L248.497 188.053L248.356 188.129L247.975 188.263L247.389 188.329L247.228 188.318L247.048 188.273L246.531 188.079L246.049 187.848L245.839 187.78L245.436 187.722L244.442 187.838L244.124 187.779L243.926 187.655L243.773 187.622L243.643 187.727L243.594 187.834L243.45 188.073L243.38 188.243L243.371 188.328L243.383 188.403L243.414 188.456L243.6 188.68L243.874 188.963L244.384 189.399L244.984 189.852L245.345 190.092L245.737 190.45L246.045 190.699L246.335 190.871L246.555 190.979L246.772 191.131L247.209 191.555L247.448 191.874L247.7 192.312L247.785 192.569L247.809 192.859L247.789 193.267L247.752 193.553L247.715 193.673L247.523 193.934L247.406 194.045L246.893 194.317L246.505 194.591L246.379 194.652L245.806 194.808L245.234 195.024L244.888 195.184L244.66 195.375L244.412 195.722L244.365 195.825L244.29 196.314L244.193 197.305L244.084 198.155L244.032 198.387L243.882 198.807L243.448 199.406L243.366 199.551L243.317 199.745L242.298 199.763L242.124 199.767L242.121 199.765L240.862 199.767L240.851 199.767L237.005 199.81L236.788 199.813L236.768 199.813L236.749 199.814L235.934 199.82L235.752 199.823L233.485 199.84H233.465L233.419 199.834L233.254 199.85L232.972 199.841L227.859 199.882L226.982 199.908L226.944 199.906L225.718 199.919L220.656 199.965L220.516 199.966L218.684 199.983L218.56 199.99L217.543 199.994L217.186 200L217.71 199.137L217.984 198.915L218.205 198.574L218.221 198.5L218.201 198.425L218.234 198.275L218.338 198.106L218.308 197.863L218.354 197.776L218.687 197.527L218.773 197.496L218.838 196.825L218.924 196.546L219.411 196.362L219.499 196.161L219.504 196.106L219.489 195.978L219.438 195.885L219.415 195.601L219.473 195.465L219.738 195.247L219.976 195.235L220.223 195.067L220.298 194.828L220.302 194.75L220.281 194.658L220.434 194.359L220.488 194.291L221.048 194.144L221.295 194.112L221.534 193.993L221.752 193.663L221.826 193.654L221.949 193.678L222.042 193.664L222.213 193.546L222.324 193.401L222.388 193.225L222.522 193.186L222.728 193.082L222.892 192.703L222.889 192.389L222.736 192.134L222.933 191.753L222.896 191.648L222.971 191.436L223.319 190.9L223.501 190.909L223.588 190.974L223.675 190.966L223.941 190.795L224.091 190.543L224.047 190.494L224.05 190.355L224.118 190.318L224.224 190.359L224.299 190.154L224.338 190.133L224.386 190.145L224.501 190.094L224.574 189.908L224.667 189.941L224.782 189.92L224.905 189.768L225.155 189.67L225.37 189.524L225.626 189.406L225.695 189.423L225.774 189.5L225.822 189.505L225.964 189.415L226.006 189.242L226.364 188.839L226.525 188.853L226.654 188.894L226.749 188.892L226.982 188.751L227.048 188.537L227.048 188.452L226.947 188.414L226.836 188.223L226.818 188.137L226.851 188.082L226.998 188.073L227.055 188.035L227.299 187.587L227.427 187.004L227.505 186.957L227.607 186.937L227.805 186.944L228.002 186.84L228.35 186.73L228.536 186.717L228.642 186.679L228.946 186.237L228.873 185.906L229.174 185.599L229.412 185.197L229.206 184.709L228.924 184.415L228.893 184.411L228.824 184.455L228.788 184.445L228.711 184.277L228.732 184.106L228.831 183.993L228.905 183.858L228.96 183.701L228.948 183.645L228.856 183.581L228.897 183.348L228.98 183.327L229.018 183.273L228.995 183.182L228.877 183.004L228.876 182.955L228.968 182.923L229.152 182.636L229.321 182.481L229.415 181.82L229.391 181.381L229.22 181.063L229.064 180.853L229.012 180.839L228.917 180.715L228.839 180.558L228.771 180.478L228.229 180.324L227.867 180.287L227.639 180.318L227.437 180.223L227.392 180.117L227.173 179.987L226.89 179.952L226.8 179.787L226.645 179.852L226.509 179.841L226.503 179.812L226.598 179.774L226.649 179.698L226.675 179.412L226.653 179.392L226.623 179.409L226.538 179.49L226.47 179.478L226.305 179.334L226.29 179.268L226.303 179.139L226.345 179.009L226.488 179.004L226.546 178.973L226.679 178.746L226.685 178.683L226.605 178.44L226.555 177.837L226.449 177.717L226.396 177.621L226.39 177.578L226.408 177.528L226.391 177.47L226.354 177.449L226.328 177.437L226.301 177.458L226.271 177.48L225.835 177.443L225.839 177.32L225.949 177.086L226.204 177.155L226.364 177.105L226.362 177.028L226.307 176.84L226.241 176.817L226.126 176.833L225.717 176.669L225.696 176.644L225.693 176.583L225.783 176.439L225.699 176.366L225.693 176.28L225.813 176.273L225.828 176.145L225.728 176.088L225.699 176.046L225.709 175.983L225.775 175.96L225.866 175.988L225.911 175.906L225.89 175.834L225.965 175.779L224.35 175.786L223.439 175.787L223.308 175.784L222.987 175.788L218.666 175.767L212.641 175.759L212.624 175.759L212.424 175.758L209.466 175.755L209.106 175.753L208.758 175.755H208.323L208.047 175.75L206.647 175.755L206.462 175.753L204.913 175.752L204.204 175.762L202.083 175.753L201.43 175.752L198.782 175.751L197.873 175.773L197.764 175.762L197.753 175.757L197.661 175.759L194.49 175.756L194.396 175.757L192.624 175.764L192.257 175.774L189.223 175.783L189.207 175.782L188.029 175.791L184.492 175.801L184.442 175.798L184.101 175.796L177.187 175.82L177.178 175.817L177.101 175.82L177.096 175.819L176.082 175.813L175.957 175.807L175.576 175.803L173.478 175.738L172.324 175.728L172.048 175.721L171.951 175.723L171.569 175.721L169.737 175.721L169.538 175.712L168.365 175.719L167.931 175.712L166.772 175.706L166.239 175.711L166.177 175.709L164.656 175.719L163.12 175.723L162.395 175.725L161.819 175.731L161.721 175.73L161.567 175.729L159.292 175.739L159.23 175.739L154.564 175.756L154.449 175.753L153.256 175.752L152.887 175.746L151.838 175.745H151.784L151.092 175.74L150.18 175.738L149.325 175.735L148.646 175.743L146.245 175.76L145.776 175.758L145.671 175.759L145.582 175.757L141.96 175.782L141.61 175.791L140.369 175.787L139.4 175.816L139.019 175.785L137.638 175.781L136.714 175.752L133.882 175.741L132.036 175.765L123.931 175.788L121.35 175.773L121.34 175.775L119.193 175.784L119.18 175.783L112.398 175.765L112.357 175.765L111.651 175.765L111.599 175.768L110.158 175.784L102.783 175.757L99.6916 175.752L99.6386 175.745L98.4348 175.749L95.3028 175.733L95.0261 175.734L92.3088 175.734L87.7954 175.722L87.4143 175.72L87.0662 175.72L86.729 175.726L86.7107 175.727L79.7741 175.742H79.1622L77.7075 175.742H77.5233L73.1158 175.742L72.2785 175.744L72.2137 175.745L71.8078 175.749L71.7767 175.748L62.0506 175.7L55.8864 175.718L54.3359 175.705L52.0525 175.709L52.0541 174.955L52.0539 174.819L52.0494 174.021L52.0545 173.934L52.0533 173.891L52.0566 171.918L52.0551 170.882L52.0546 170.507L52.0565 170.229L52.0484 167.474L52.0443 165.923L52.0374 162.762L52.0345 158.839L52.0237 157.248L52.0399 156.423L52.0383 155.72L52.0413 155.002L52.0378 154.836L52.0429 154.45L52.0451 154.013L52.0483 153.838L52.0481 151.67L52.0474 151.596L52.0462 151.503L52.0495 150.973L52.0507 149.437L52.0542 148.645L52.05 147.754L52.0447 147.225L52.0461 147.201L52.0458 146.856L52.0459 146.848L52.047 146.701L52.0434 146.346L52.0411 145.897L52.0464 145.088L52.0465 144.962L52.0357 143.602L52.0309 142.891L52.0297 142.578L52.0369 142.208L52.0374 141.302L52.0408 141.28L52.0435 140.287L52.0445 140.227L52.0432 139.824L52.0464 139.685L52.063 135.621L52.0612 134.973L52.0635 134.895L52.0674 133.627L52.0639 133.475L52.0639 133.469L52.0666 132.059L52.0684 131.348L52.078 130.632L52.0831 129.932L52.0805 129.199L52.0803 128.925L52.0796 128.92L52.0813 128.689L52.0811 128.47L52.0874 127.779L52.0965 125.929L52.0919 125.62L52.081 124.36L52.082 124.173L52.0851 123.697L52.076 123.477L52.0773 123.457L52.0716 121.611L52.0766 121.563L52.0697 120.253L52.0658 119.443L52.0597 118.487L52.0538 118.04L52.0615 117.822L52.0629 117.772L52.0569 117.649L52.0503 116.076L52.0568 115.706L52.0602 113.578L52.0937 111.29L52.1097 110.398L52.1106 110.018L52.1272 109.139L52.1337 108.677L52.1303 108.39L52.1387 107.971L52.1479 107.235L52.1509 107.007L52.1591 106.537L52.1748 105.636L52.1726 105.513L52.1757 105.313L52.1813 105.135L52.182 104.858L52.1832 104.783L52.1834 103.82L52.187 102.993L52.1969 102.763L52.2059 100.567L52.203 99.4239L52.2016 99.1367L52.2027 99.0655L52.2107 94.9915L52.2149 94.4542L52.2276 94.0944L52.2412 92.9741L52.25 92.4713L52.251 92.3127L52.2574 91.6331L52.2573 91.5538L52.2583 91.1708L52.2591 90.6372L52.2561 89.0213L52.2499 88.0542L52.2501 87.9794L52.2568 87.4292V86.8194L52.2523 86.5561L52.2509 86.3457L52.2441 85.7799L52.2319 84.3613L52.2312 84.1028L52.2337 82.9713L52.2298 82.4256L52.2493 78.744L52.2559 78.4666L52.2547 78.4064L52.2579 78.0448L52.2724 75.2477L52.2769 75.1532L52.2762 73.8238L52.2868 73.6465L52.2874 73.645L52.2866 72.1954L52.2885 71.6373L52.3038 71.412L52.2985 70.8956L52.3821 65.6484L52.3843 65.5617L52.4372 62.1384L52.4534 61.315L52.4375 60.334V59.9445V59.6349L52.4391 59.332L52.4375 59.2902V59.2353V58.506L52.4396 55.8539L52.444 55.8275L52.4336 55.6971V55.5971L52.4258 53.6065L52.4686 49.4067L52.4647 48.6052L52.4686 48.2093L52.464 47.0146L52.4764 46.7159L52.527 46.5755L52.7335 46.2597L53.0412 45.8887L53.1424 45.6631L53.0645 44.931L52.9049 44.7955L52.6829 44.7002L52.4063 44.6551L52.1337 44.6802L51.8182 44.8507L51.1911 45.0262L50.7744 44.9761L50.3188 44.8006L50.4013 44.2765L50.2642 43.7221L50.0578 43.5766L49.6216 43.4612L49.3528 43.5013L48.9986 43.7492L48.3052 44.1585L47.9352 44.2287L47.4328 44.2187L47.2224 44.1686L46.8174 44.0181L46.3967 43.6819L46.1163 43.1752L45.9138 42.6433L45.8242 42.4968L45.6809 42.3651L45.5906 42.3145L45.454 42.2888L44.9742 42.3715L44.5069 42.3426L44.1554 42.2406L44.0345 42.178L43.7273 41.8736L43.6544 41.7804L43.5958 41.6367L43.602 41.4768L43.8787 40.9668L43.9442 40.7515L43.9616 40.5788L43.8906 40.169L43.7354 39.8484L43.4868 39.5398L43.1571 39.2352L42.7384 38.9667L42.3296 38.765L41.9108 38.5994L41.7451 38.4893L41.5706 38.3309L41.2528 37.9426L41.0646 37.6419L40.9443 37.3363L40.8589 37.0508L40.7524 36.4621L40.652 35.2215L40.6764 35.0099L40.7 34.9238L40.7823 34.7991L40.9692 34.6156L41.1045 34.5126L41.1899 34.4772L41.4198 34.4321L41.6423 34.2872L41.7924 34.1126L41.8809 33.8449L41.8734 33.6398L41.8073 33.4326L41.6497 33.1356L41.496 33.0032L41.3841 32.9588L41.262 32.9462L40.9955 32.9848L40.6933 33.1827L40.4488 33.3093L40.3177 33.3684L40.1664 33.4027L39.7559 33.3497L39.6193 33.3001L39.5204 33.2287L39.4292 33.1508L39.2914 32.9318L39.2661 32.8413L39.2492 32.6366L39.2635 32.3382L39.2024 32.1893L39.0721 32.0331L38.9316 31.9255L38.4934 31.7521L38.2253 31.5298L38.083 31.2782L37.9976 30.7979L37.8673 30.5808L37.5546 30.2968L37.3367 30.197L36.5555 29.9635L36.062 29.6876L35.8707 29.5572L35.7114 29.4155L35.5836 29.2796L35.3914 28.9737L35.3362 28.8471L35.288 28.5726L35.2306 27.8674L35.203 27.7112L35.1397 27.5861L34.9761 27.3857L34.8561 27.2763L34.1558 26.9028L33.9504 26.7435L33.5614 26.3639L33.1647 25.9048L33.0203 25.6875L32.9149 25.4541L32.7492 24.8662L32.7679 24.6043L32.9869 23.8622L33.0277 23.7911L33.1515 23.6634L33.3125 23.5672L33.4433 23.5204L33.6856 23.4997L34.1851 23.7148L34.3615 23.7472L34.4723 23.7424L34.6591 23.6971L34.8538 23.5954L34.9559 23.5229L35.0374 23.426L35.2527 23.068L35.3349 22.7887L35.3663 22.5646L35.363 22.4612L35.3059 22.2249L35.1072 21.8373L35.0239 21.449L35.0327 21.2804L35.0934 21.0102L35.2433 20.63L35.4366 20.302L35.651 20.0359L35.7128 19.871L36.0952 19.237L36.214 19.0839L36.4584 18.8624L36.5756 18.792L36.8204 18.7161L37.1181 18.68L37.4228 18.6754L37.7892 18.6107L37.8901 18.5711L38.0939 18.4328L38.2889 18.1782L38.3438 18.0447L38.3799 17.8474L38.4005 17.1171L38.2982 16.3212L38.2933 16.0097L38.3238 15.8673L38.5226 15.5162L38.7264 15.3139L38.9133 15.1811L39.0167 15.1674L39.1688 15.186L39.324 15.2475L39.539 15.3891L39.8979 15.703L40.3528 16.0356L40.6744 16.1877L40.9647 16.2678L41.0931 16.2759L41.388 16.2328L41.684 16.1367L42.0151 15.9496L42.2293 15.7423L42.5097 15.3174L42.6099 14.9869L42.646 14.7762L42.5954 14.3007L42.5019 14.0882L42.4201 13.9465L42.3461 13.8656L42.2487 13.8048L42.1903 13.7998L41.79 13.8876H41.7885L41.6926 13.9419L41.3139 14.2443L41.3109 14.2467L41.3033 14.2528L41.2974 14.2576L41.2596 14.2877L41.2508 14.2948L41.0993 14.3936L40.8233 14.4867L40.5877 14.4907L40.4126 14.4098L40.045 14.1289L39.9116 13.9969L39.7321 13.767L39.6916 13.6674L39.6729 13.5006L39.6953 13.2869L39.7919 13.1274L39.9116 13.0261L40.0693 12.9516L41.3405 12.8836L41.4446 12.8569L41.6863 12.7249L41.8091 12.5678L41.9878 12.084L42.0034 11.76L41.98 11.3904L41.9605 11.2304L41.8969 11.0902L41.8059 10.9687L41.5754 10.7572L41.4757 10.7102L41.3517 10.6924L40.9435 10.7191L40.6793 10.69L40.4076 10.6033L40.048 10.3407L39.6 9.91197L39.5177 9.80336L39.4086 9.56668L39.4149 9.34052L39.4797 9.17109L39.5557 9.04219L39.8411 8.756L39.9578 8.56638L40.0051 8.36803L40.0009 8.18011L39.98 8.07135L39.9147 7.93744L39.7231 7.70367L39.358 7.46218L39.0592 7.34037L38.7579 7.28268L38.5994 7.3098L38.0384 7.49554L37.6791 7.53619L37.5502 7.51896L37.0231 7.34706L36.8431 7.33717L36.6596 7.36977L36.4419 7.50061L36.222 7.81336L36.1888 7.88949L36.1613 8.03916L36.1936 8.44025L36.1818 8.54778L36.084 8.81073L35.9235 8.97212L35.701 9.11374L35.5306 9.15108L35.1258 9.17292L33.9964 9.30748L33.8613 9.29913L33.6605 9.23544L33.047 8.93021L32.1803 8.6768L31.924 8.54064L31.8326 8.46467L31.696 8.29556L31.6135 8.08265L31.5868 7.90693L31.6241 7.59956L31.6195 7.46918L31.5713 7.27016L31.4835 7.15533L31.3433 7.06585L31.0953 7.0002L30.9469 7.01333L30.4616 7.26468L30.1828 7.36425L29.789 7.36946L29.6234 7.33241L29.408 7.23006L29.3072 7.16192L29.1593 6.94788L29.1413 6.88288L29.1362 6.75288L29.1588 6.59834L29.3043 6.22975L29.3557 5.93983L29.3329 5.63355L29.2101 5.39237L28.8476 5.17645L28.7423 5.13855L28.5954 5.1142L28.1708 5.14713L27.9509 5.13967L27.7709 5.08803L27.4254 4.90059L27.1373 4.58392L26.9736 4.2931L26.6608 3.84769L26.4711 3.70972L25.8885 3.42598L25.3903 3.08842L25.211 2.84697L25.185 2.77062L25.1607 2.61123L25.1651 2.29446L25.1581 2.18297L25.0532 1.89804L25.0124 1.81736L24.8932 1.68154L24.7863 1.62335L24.378 1.4994L24.0765 1.32436L23.6741 0.858763L23.5883 0.806704L23.2729 0.693695L22.9961 0.694916L22.2571 0.917675L22.092 0.935045L21.9233 0.920418L21.7546 0.870646L21.4895 0.742201L21.3106 0.612938L21.0641 0.343119L20.9381 0.098732L20.8409 -0.165792L20.7505 -0.699778L20.7894 -0.885092L20.8789 -1.08378L21.0195 -1.25204L21.2095 -1.48074L21.264 -1.72663L21.2334 -1.98117L21.1788 -2.35556L21.2977 -2.68595L21.5879 -2.95074L21.7045 -3.04963L21.8186 -3.20624L21.8635 -3.35432L21.8722 -3.59393L21.8524 -3.76303L21.7737 -3.94606L21.6452 -4.12957L21.4222 -4.26176L21.2241 -4.31435L20.8461 -4.34151L20.6282 -4.45235L20.4737 -4.59539L20.3851 -4.73955L20.3406 -4.87253L20.2935 -5.13143L20.2761 -5.47848L20.2373 -5.6353L20.1777 -5.77284L20.0085 -5.9541L19.9257 -6.00392L19.4544 -6.17267L19.2275 -6.30479L18.826 -6.69858L18.6217 -6.95706L18.5091 -7.14357L18.4379 -7.28978L18.3787 -7.48115L18.3703 -7.73892L18.3873 -7.90801L18.5575 -8.31415L18.732 -8.56058L18.8128 -8.75671L18.8647 -8.96929L18.8781 -9.29533L18.8535 -9.44361L18.7679 -9.71152L18.575 -10.0499L18.3694 -10.2309L18.2442 -10.31L18.0752 -10.3681L17.6886 -10.4019L17.0968 -10.3447L16.8448 -10.3938L15.862 -10.8828L15.6551 -11.0274L15.583 -11.1034L15.5051 -11.3236L15.507 -11.4789L15.6934 -12.0039L15.7138 -12.253L15.6883 -12.3916L15.6232 -12.5187L15.4113 -12.754L15.2779 -12.8348L15.0449 -12.9251L14.5134 -12.9481L14.2959 -13.0536L14.1871 -13.1326L13.8564 -13.4697L13.6051 -13.61L13.3975 -13.6819L13.2791 -13.6953L13.1057 -13.6696L12.9 -13.6054L12.3899 -13.3609L12.1581 -13.2767L12.0387 -13.2598L11.7981 -13.3103L11.6895 -13.3727L11.5714 -13.5231L11.5442 -13.6172L11.5544 -13.7747L11.5992 -13.9622L11.7115 -14.1212L11.9373 -14.2729L12.4874 -14.4637L12.6382 -14.5503L12.8225 -14.7184L12.9012 -14.9265L12.9198 -15.0535L12.88 -15.3449L12.8376 -15.4799L12.7477 -15.6629L12.578 -15.8931L12.3634 -16.0998L12.2062 -16.357L12.1522 -16.5321L12.1419 -16.7961L12.1626 -16.9616L12.093 -17.401L11.8794 -17.8758L11.501 -18.5163L11.4103 -18.887L11.4392 -19.0348L11.5331 -19.3258L11.6119 -19.5418L11.6375 -19.8468L11.5378 -20.2119L11.2565 -20.6872L11.01 -20.969L10.7984 -21.146L10.5184 -21.31L10.1769 -21.6182L10.1178 -21.7233L10.051 -21.9506L10.0358 -22.1015L10.0572 -22.2684L10.0946 -22.4972L10.1148 -22.8559L10.0674 -23.1345L9.91065 -23.4529L10.0807 -23.5141L10.2178 -23.5991L11.1565 -23.9483L11.4016 -24.0684L11.6358 -24.3881L11.7687 -25.1329L11.724 -25.3263L11.629 -25.5677L11.3856 -25.7391L11.2536 -26.0834L11.0095 -26.3875L10.7383 -26.3841L10.4115 -26.2871L10.1374 -26.0965L10.1088 -25.7781L10.039 -25.4923L10.0153 -25.0752L10.1022 -24.8776L10.0181 -24.6398L9.57486 -24.2855L9.52099 -24.4004L9.35286 -24.5749L9.03533 -24.6214L8.92745 -24.6038L8.69514 -24.4842L8.45869 -24.4072L8.01354 -24.4248L7.68522 -24.5126L7.4614 -24.6344L7.30316 -24.7977L7.2341 -24.9278L7.21121 -25.0583L7.24505 -25.2472L7.38978 -25.5222L7.43153 -25.6541L7.44157 -25.782L7.42338 -25.9395L7.37677 -26.0955L7.11403 -26.567L7 -26.948L7.04498 -27.1851L7.24057 -27.4458L7.35281 -27.5437L8.10066 -27.5297L10.3963 -27.5014L10.3985 -27.5013L12.1746 -27.4938L13.373 -27.456L14.8149 -27.4288L15.5583 -27.4117L16.4064 -27.3922L16.6595 -27.3864L16.7098 -27.3841L18.8936 -27.3559L20.9933 -27.329L22.6101 -27.3027L23.2368 -27.2822L24.1019 -27.2704L28.5443 -27.217L28.6511 -27.2146L28.7028 -27.2135L28.8635 -27.2099L28.8874 -27.2094L28.9312 -27.2081L28.9383 -27.2079L30.7824 -27.1755L31.1547 -27.1675L32.466 -27.1446L32.8012 -27.1351L32.8619 -27.134L32.876 -27.1316L32.9963 -27.1294L33.3704 -27.132L34.0662 -27.1238L34.4876 -27.1173L37.4966 -27.0564L38.4769 -27.064L38.9192 -27.0553L40.4863 -27.0245L41.01 -27.0147L41.1911 -27.0076L44.0358 -26.9668L44.183 -26.9552L44.5254 -26.9459L45.9742 -26.9174L48.2067 -26.8777H48.2745L49.5334 -26.8565L51.5028 -26.8257L52.984 -26.8145L55.0032 -26.8064H55.0159L55.1527 -26.8041H55.2017L55.3256 -26.8029L57.0625 -26.8012L57.7661 -26.8073L57.7881 -26.8075L58.1994 -26.8135L59.3819 -26.8183L62.1634 -26.8348L63.0047 -26.8394L63.0105 -26.8405L63.4697 -26.8406L64.0166 -26.843L64.6363 -26.8337L64.9269 -26.8429L72.5707 -26.9133L72.6444 -26.9087L72.9844 -26.9134H72.9938L74.7887 -26.9486L75.5148 -26.9654L77.023 -27.0023L77.5255 -27.0084L78.4605 -27.0308L78.5084 -27.0356L78.568 -27.0426L78.5984 -27.0356L78.6229 -27.0379L79.469 -27.0554L79.9786 -27.0658L80.0394 -27.0692L80.0779 -27.0728L81.8177 -27.1032L82.3133 -27.1127L83.1781 -27.1278L83.3043 -27.1377L85.0668 -27.1549L85.846 -27.1603L86.1367 -27.1499L86.3509 -27.1512L86.6977 -27.1514L86.9279 -27.1562L88.1785 -27.1682L88.6939 -27.1811L89.0154 -27.187L89.2854 -27.1927L89.3882 -27.1915L89.5074 -27.1926L91.7998 -27.2512L93.0135 -27.283L93.0282 -27.2809L93.0504 -27.2844L93.2234 -27.2926L93.2959 -27.2867L93.3753 -27.2891L93.4887 -27.2925L93.7108 -27.2984L94.4939 -27.2958L94.5161 -27.2994L94.6517 -27.3017L96.8809 -27.2807L96.9428 -27.2854L97.8592 -27.2727L101.611 -27.3034L102.695 -27.3114L104.915 -27.3178L109.775 -27.4232L111.228 -27.4805L111.275 -27.4826L111.734 -27.5025L116.71 -27.6575L117.339 -27.6735L118.821 -27.6795L119.356 -27.6887L119.77 -27.7042L120.399 -27.6957L120.619 -27.7051L121.488 -27.7115L121.763 -27.7131L121.761 -27.7171L124.513 -27.7332L125.104 -27.7485L127.143 -27.7832L127.267 -27.7793L129.115 -27.8314L129.167 -27.8328L131.411 -27.8993L135.138 -28.0413L135.223 -28.0398L135.251 -28.0422L136.033 -28.0634L136.339 -28.0599L139.223 -28.1225L140.349 -28.1617L141.102 -28.1842L141.112 -28.1889L142.375 -28.2229L144.801 -28.2773L145.536 -28.2927L146.156 -28.3003L146.371 -28.3048L147.009 -28.3284L150.257 -28.395L150.394 -28.4079L150.77 -28.4162L150.804 -28.4127L151.303 -28.4433L151.366 -28.4369L152.856 -28.4915L154.062 -28.5284L155.141 -28.5631L156.047 -28.5815L156.375 -28.6163L159.136 -28.7141L160.535 -28.8031L160.833 -28.8233L161.256 -28.8405L161.795 -28.8623L161.98 -28.8699L162.348 -28.8898L164.561 -29L164.913 -28.3795L165.042 -28.226L165.226 -28.0475L165.836 -27.6943L166.13 -27.4516L166.226 -27.3218L166.264 -27.2203L166.251 -27.1124L166.023 -26.5022L166.022 -26.3668L166.053 -26.2476L166.135 -26.1195L166.407 -25.8966L166.824 -25.7892L167.473 -25.6997L168.106 -25.513L168.609 -25.4086L168.736 -25.3467L168.808 -25.2713L168.849 -25.1826L168.887 -24.9239L168.857 -24.5277L168.725 -24.0547L168.718 -23.9177L168.758 -23.6982L168.83 -23.548L168.929 -23.4283L169.09 -23.3046L169.264 -23.1851L169.798 -22.9272L169.947 -22.7889L170.1 -22.5302L170.239 -22.1153L170.273 -21.8895L170.309 -21.7961L170.354 -21.701L170.573 -21.4275L170.846 -21.255L170.997 -21.1884L171.432 -21.075L171.779 -21.0433L172.37 -21.0869L172.465 -21.0677L172.507 -21.0278L172.554 -20.9504L172.585 -20.742L172.578 -20.63L172.547 -20.547L172.467 -20.4548L172.241 -20.2553L172.177 -20.1569L172.174 -20.03L172.206 -19.9515L172.349 -19.8231L172.51 -19.7828L172.707 -19.7925L172.739 -19.7491L172.743 -19.6712L172.651 -19.4254L172.45 -19.0875L172.43 -18.9249L172.455 -18.7571L172.525 -18.6223L172.614 -18.5652L172.768 -18.5159L172.939 -18.5085L173.131 -18.4185L173.195 -18.3546L173.221 -18.2939L173.279 -18.2519L173.558 -18.1709L173.731 -18.1967L173.88 -18.293H173.932L173.958 -18.2699L173.953 -18.1984L173.928 -18.073L173.842 -17.8287L173.835 -17.7398L174.087 -17.2504L174.172 -17.1563L174.253 -17.1423L174.576 -17.1985L174.842 -17.3197L174.859 -17.0997L174.812 -16.9678L174.847 -16.8585L174.89 -16.8297L175.335 -16.8216L175.492 -16.9958L175.772 -17.3706L176.379 -17.1785L176.509 -17.0992L176.622 -16.9627L176.341 -16.6423L176.232 -16.5605L175.846 -16.3657L175.632 -16.1922L175.575 -16.1234L175.516 -15.9859L175.344 -15.7073L174.958 -15.133L174.785 -14.7272L174.666 -14.1124L174.581 -13.8538L174.026 -12.6343L173.878 -12.2581L173.767 -11.8589L173.754 -11.7083L173.761 -11.4361L173.853 -11.1758L173.875 -11.0497L173.853 -10.9048L173.558 -10.2895L173.451 -10.2029L173.358 -10.0883L173.257 -9.85218L173.231 -9.72303L173.251 -9.6212L173.317 -9.4891L173.317 -9.1115L173.213 -8.6659L173.201 -8.34954L173.224 -8.11632L173.31 -7.78556L173.27 -7.65033L173.112 -7.43303L173.053 -7.30352L172.979 -6.90992L172.974 -6.78139L173.018 -6.36933L173.164 -5.71916L173.16 -5.65102L173.032 -5.29195L173.026 -5.18114L173.082 -4.20967L173.124 -3.89851L173.25 -3.19928L173.452 -2.32633L173.575 -1.68083L173.664 -1.30952L173.889 -0.622698L173.683 0.443235L173.977 1.1163L174.105 1.31278L174.368 1.83778L174.682 2.53158L174.758 2.76996L174.781 2.94143L174.835 3.10679L174.898 3.21592L175.06 3.31504L175.086 3.35955L175.25 3.75077L175.439 4.05666L175.539 4.34973L175.76 4.7659L175.934 5.01356L176.247 5.30148L176.374 5.45243L176.528 5.69548L176.624 5.96204L176.646 6.24557L176.604 6.52917L176.565 6.61375L176.251 6.97556L175.684 7.69267L175.551 8.22734L175.515 8.48494L175.572 8.86789L175.974 10.1286L176.096 10.3796L176.229 10.519L176.813 10.9149L177.136 11.0928L177.462 11.3637L177.933 11.6456L178.236 11.8623L178.346 11.9845L178.626 12.4126L178.802 12.7973L178.875 13.0633L178.868 13.1882L178.748 13.4762L178.715 13.7028L178.706 14.2065L178.737 14.5218L178.701 14.6618L178.648 14.7668L178.549 15.2139L178.547 15.8469L178.634 16.0237L179.219 16.7189L179.509 17.016L180.042 17.4694L180.579 17.8658L181.065 18.3021L181.176 18.5207L181.515 18.7665L181.922 19.0006L182.202 19.2216L182.567 19.6645L182.812 20.067L183.268 20.4783L183.38 20.6585L183.471 20.873L183.562 21.0243L184.026 21.4896L184.259 21.6537L184.52 21.7788L185.716 22.2839L185.871 22.4071L186.024 22.6333L186.155 22.8797L186.171 22.9473L186.272 23.4557L186.343 24.0786L186.398 24.312L186.584 24.6329L186.78 24.9113L186.974 25.1533L187.182 25.2769L188.025 25.457L188.505 25.5139L189.05 25.6351L189.34 26.1101L189.596 26.7219L189.85 27.1964L190.024 27.4425L190.453 27.8559L190.526 28.8899L190.642 29.155L190.891 29.4945L191.467 30.1838L192.037 30.6744L192.491 30.9782L192.813 31.2328L193.199 31.4666L193.618 31.5924L193.829 31.7017L194.029 31.9104L194.224 32.0209L194.614 32.1695L194.971 32.2447L195.264 32.4218L195.332 32.4842L195.394 32.5819L195.46 32.7566L195.527 33.0185L195.732 33.2491L195.894 33.3703L196.035 33.4432L196.281 33.5303L196.54 33.5879L196.662 33.6588L196.738 33.7528L196.748 33.8619L196.848 34.0134L197.094 34.2655L198.444 35.0689L198.896 35.3756L199.184 35.6187L199.916 36.4623L200.09 36.6213L200.772 36.9938L201.001 37.1741L201.07 37.3019L201.109 37.5054L201.378 37.794L201.694 38.0128L201.763 38.1267L202.006 38.6552L202.631 39.3883L202.737 39.4539L203.119 39.5661L203.318 39.7065L203.474 39.8674L203.59 40.1045L203.8 41.0306L203.816 41.1588L203.79 41.4635L203.974 41.9753L203.995 42.1509L203.991 42.3361L203.962 42.5335L203.963 42.8033L204.081 43.4108L204.233 43.8594L204.253 44.0321L204.285 44.9255L204.333 45.1387L204.44 45.5253L204.527 45.746L204.623 45.912L204.838 46.2007L205.184 46.797L205.244 47.0084L205.378 47.6588L205.342 48.1862L205.313 48.2723L204.624 49.102L204.595 49.171L204.558 49.4135L204.152 49.8394L204.112 49.9144L204.11 49.994L204.19 50.3535L204.334 50.5807L204.618 51.2409L204.937 51.8626L205.03 52.0871L205.077 52.3287L205.119 52.4272L205.276 52.6937L205.339 52.7573L205.49 53.1039L205.56 53.4919L205.559 54.4066L205.578 54.5903L205.737 55.0826L205.839 55.2886L205.982 55.9885L206.067 56.2953L206.144 56.4479L206.306 56.6838L206.465 56.8902L206.667 57.0918L206.981 57.2835L207.137 57.4999L207.426 58.1157L207.557 58.2638L208.716 58.9434L209.182 59.2441L209.442 59.2788L209.838 59.2533L210.261 59.1565L210.644 58.9955L210.715 58.9434L211.218 58.3425L211.77 57.7559L212.14 57.5586L212.426 57.1767L212.937 56.3983L213.103 55.9618L213.075 55.6756L213.079 55.5908L213.115 55.4744L213.516 54.7554L213.685 54.6068L213.894 54.4811L214.347 54.309L214.764 54.329L215.011 54.4209L215.362 54.508L215.814 54.5307L216.077 54.5695L216.488 54.6954L216.982 54.9247L218.411 55.6579L218.913 56.023L219.278 56.206L219.535 56.3018L219.851 56.4913L219.981 56.5211L220.27 56.5276L220.854 56.4949L221.097 56.5115L221.393 56.5695L221.669 56.6801L221.894 56.6591L222.01 56.6728L222.157 56.7301L222.49 56.9558L222.933 57.1541L223.217 57.3276L223.588 57.6742L224.207 58.3141L224.301 58.359L224.491 58.384L224.624 58.444L225.422 58.8786L226.003 59.3381L227.49 60.2292L227.642 60.5167L227.654 60.8213L227.436 61.9395L227.319 62.4037L227.109 62.7879L226.19 63.5363L225.422 64.0551L225.231 64.3594L225.083 64.6736L225.037 64.9628L224.76 65.3418L224.453 65.5363L223.911 66.0747L223.728 66.3788L223.67 66.6131L223.65 66.7826L223.646 67.0916L223.755 67.5401L224.028 68.0035L224.301 68.2975L224.643 68.9352L224.791 69.4034L224.85 69.6923L224.982 70.5289L224.97 70.977L224.939 71.206L224.717 72.082L224.433 72.709L224.269 72.933L224.016 73.2215L223.72 73.4554L223.463 73.7141L223.253 73.8285L223.171 73.8981L222.209 75.405L221.765 76.2204L221.629 76.6082L221.434 77.3239L221.337 77.8258L221.196 78.3127L221.157 78.6455L221.029 78.9982L220.842 80.0611L220.795 80.4385L220.655 80.6867L220.402 81.2676L219.35 82.5085L219.109 82.6871L218.54 83.3173L218.423 83.4959L218.282 83.7064L218.026 84.5623L217.563 85.5591L217.461 85.8913L217.395 86.3969L217.426 87.3387L217.344 87.8293L217.34 88.4536L217.42 88.8463L217.458 89.1675L217.58 89.7438L217.61 90.0287L217.73 90.707L217.9 91.2927L218.032 91.6404L218.12 91.8209L218.885 93.0048L218.99 93.1212L219.349 93.4174L219.564 93.5231L219.805 93.5668L220.2 93.7314L220.579 93.9685L220.878 94.2656L221.196 94.6035L222.07 96.0891L222.162 96.2136L222.435 96.8258L223.385 97.7304L225.196 98.9522L225.539 98.7195L225.611 98.6927L225.729 98.7003L226.273 98.9825L226.81 99.3126L226.912 99.4458L226.981 99.6802L226.996 99.8939L226.972 100.219L226.989 100.381L227.33 100.825L227.599 101.08L228.251 101.51L228.466 101.612L228.75 101.629L229.088 101.551L229.37 101.558L229.591 101.623L229.673 101.682L229.746 101.801L229.818 101.974L229.844 102.099L229.903 102.214L229.991 102.306L230.115 102.388L230.641 102.625L231.578 103.862L231.899 104.139L232.016 104.205L232.437 104.256L232.724 104.226L233.659 104.036L234.158 103.865L234.328 104.118L234.36 104.313L234.4 104.385L234.482 104.406L234.821 104.363L234.832 104.57L234.809 104.654L234.533 104.981L234.321 105.045L233.951 105.334L233.475 105.341L233.373 105.628L233.135 105.772L232.88 106.005L232.907 106.375L232.93 106.452L233.007 106.57L233.753 108.149L233.827 108.233L234.342 108.569L234.895 108.768L235.279 108.818L235.727 108.809L235.903 108.722L236.519 108.328L236.71 108.146L237.084 107.642L237.241 107.475L237.704 107.126L237.948 107.048L238.032 107.066L238.281 107.234L239.161 107.928L239.54 108.161L239.719 108.233L239.769 108.325L239.783 108.594L239.699 108.733L239.679 108.868L239.845 109.318L239.937 109.438L240.223 109.7L240.392 109.535L240.478 109.594L240.693 109.681L241.047 109.698L241.173 109.753L241.353 109.903L241.48 109.965L241.641 109.934L242.034 109.937L242.168 110.106L242.312 110.352L242.441 110.521L242.906 110.981L243.476 111.42L243.721 111.542L244.255 111.864L244.459 111.998L244.769 112.251L244.99 112.7L245.094 112.828L245.13 112.922L245.136 113.181L245.099 113.442L244.984 113.797L244.893 114.009L244.834 114.241L244.929 114.605L245.015 114.705L245.205 114.82L245.553 114.929L245.713 114.899L246.182 114.915L246.391 114.799L246.546 114.751L246.809 114.721L246.844 114.749L246.861 114.797L246.851 114.989L246.875 115.084L246.996 115.198L247.141 115.215L247.388 115.372L247.616 115.549L247.821 116.006L247.98 116.305L248.132 116.514L248.513 116.721L248.779 116.813L249.871 117.114L250.152 117.15L250.374 117.243L250.522 117.339L250.727 117.522L250.821 117.661L250.909 117.877L250.908 118.101L250.834 118.317L250.748 118.74L250.721 119.324L250.757 119.583L250.759 119.841L250.709 119.928L250.686 120.054L250.767 120.289L250.966 120.519L251.121 120.848L251.93 121.727L252.218 122.133L252.291 122.296L252.314 122.422L252.31 122.558L252.251 122.771L252.112 122.914L251.919 123.018L251.608 123.054L251.005 122.856L250.833 122.823L250.732 122.839L250.605 122.925L250.566 123.003L250.548 123.11L250.523 124.005L250.555 124.345L250.712 125.155L250.736 125.24L250.894 125.522L251.086 125.791L251.263 126.107L251.367 126.348L251.466 126.741L251.686 127.277L252.33 128.386L252.498 128.626L253.286 129.43L253.577 129.819L253.722 130.06L253.942 130.567L254.261 131.516L254.396 132.022L254.441 132.27L254.451 132.486L254.413 132.835L254.173 134.028L254.113 134.233L253.992 134.473L253.867 134.601L253.419 134.795L253.14 134.853L252.367 134.908L251.991 135.031L251.805 135.142L251.719 135.241L251.565 135.562L251.412 135.723L251.058 136.008L250.999 136.077L250.915 136.245L250.83 136.59L250.808 136.807L250.763 137.001L250.687 137.163L250.66 137.295L250.662 137.483L250.713 137.658L250.835 137.89L251.113 138.312L251.287 138.547L251.517 138.804L251.769 139.154L252.186 139.069L252.524 139.054L252.831 139.144L252.907 139.19L252.98 139.283L253.003 139.361L253.019 139.58L253 139.688L252.642 140.593L252.637 140.771L252.83 141.496L252.862 141.683L253.086 142.24L253.78 143.549L253.9 143.998L254.275 144.674L254.708 145.317L254.814 145.441L254.981 145.598L255.527 145.993L255.736 146.174L255.887 146.38L256.1 146.803L256.221 147.225L256.217 147.489L256.093 147.977L255.848 148.599L255.838 148.726L255.868 149.061L255.897 149.15L255.986 149.317L256.117 149.483L256.736 149.943L257.374 150.169L257.952 150.441L258.271 150.628L258.497 150.79L259.472 151.792L259.998 151.963L260.171 151.875L260.351 151.733L260.48 151.592L260.586 151.409L260.817 150.657L260.723 150.278L260.479 150.015L260.034 149.652L259.509 149.444L259.112 149.221L258.981 149.095L258.878 148.955L258.8 148.793L258.744 148.591L258.843 148.081L258.865 148.018L259.398 148.131L259.801 148.161L259.809 148.206L259.93 148.234L260.549 148.254L260.726 148.291L260.921 147.903L261.283 148.597L261.57 149.324L261.734 149.596L262.068 149.898L262.864 150.435L263.029 150.625L263.119 150.841L263.254 151.409L263.254 151.91L263.368 152.386L263.625 152.701L263.947 152.829L264.228 152.858L264.549 152.738L265.012 152.501L265.237 152.428L265.365 152.414L265.682 152.278L265.831 152.227L265.979 152.215L266.242 152.294L266.37 152.369L266.585 152.553L266.843 152.887L266.971 153.138L266.994 153.292L267 153.464L266.925 154.139L266.872 154.374L266.59 155.302L266.271 156.893L266.183 157.115L265.915 157.636L265.711 158.348L265.476 158.838L265.098 158.848L264.871 158.874L264.722 159.034L264.639 159.073L264.352 159.072L264.213 159.121L264.096 159.204L263.949 159.4L263.911 159.458L263.883 159.614L263.895 160.334L263.869 160.511L263.888 160.656L263.94 160.785L264.187 161.23L264.289 161.353L264.584 161.579L264.778 161.666L265.233 161.704L265.662 161.71L265.829 161.737L266.039 161.852L266.159 162.009L266.299 162.323L266.329 162.477L266.31 162.714L266.207 163.09L266.081 163.331L265.937 163.482L265.771 163.483L265.572 163.471L265.307 163.305L264.939 163.262L264.735 163.276L264.35 163.098L264.264 163.106L263.857 163.268L263.663 163.389L263.389 163.701L263.146 164.08L263.068 164.332L263.02 164.742L263.032 165.015L263.081 165.214L263.215 165.409L263.67 165.932L264.04 166.285L264.247 166.531L264.306 166.694L264.308 167.05L264.249 167.224L264.155 167.324L264.278 167.355L264.654 167.624L264.439 167.925L264.044 168.396L263.71 168.673L263.537 168.847L263.351 169.095L263.152 169.437L263.094 169.596L263.025 169.959L262.959 170.763L262.532 171.802L262.381 171.994L261.996 172.322L261.637 172.446L260.789 172.537L260.724 172.527L260.41 172.345L260.268 172.225L259.986 171.919L259.375 171.143L259.107 170.639L258.644 169.864L258.459 169.625L258.125 169.28L257.84 169.277L257.462 169.338L256.965 169.461L256.613 169.625L256.4 169.83L256.227 170.078L256.191 170.167L256.127 170.447L256.025 171.269L255.942 171.633L255.43 172.793L255.402 172.949L255.395 173.165L255.322 173.632L255.051 174.317L254.598 175.727L254.501 175.976L254.378 176.194L254.13 176.557L253.839 176.917L253.383 177.401L253.204 177.553L252.917 177.705L252.773 177.751L252.478 177.76L252.29 177.719L251.913 177.537L251.74 177.348L251.641 177.125L251.607 176.975L251.6 176.843L251.63 176.711L251.894 175.924L251.956 175.792L252.059 175.577L252.265 175.338L252.449 175.015L252.597 174.65L252.705 174.231L252.722 173.93L252.632 173.413L252.415 172.78L252.191 172.379L252.121 172.303L251.967 172.204L251.374 171.987L250.813 171.914L250.648 171.871L250.506 171.799L250.302 171.752L249.723 171.78L249.581 171.808L249.326 171.945L249.114 172.122L248.916 172.353L248.774 172.572L248.658 172.867L248.591 173.136L248.602 173.389L248.647 173.532L248.814 173.89L249.026 174.449L249.104 174.611L249.261 174.857L249.703 175.44L249.854 175.767Z" fill="#EFCB91"/>
</svg>
