<svg width="209" height="182" viewBox="0 0 209 182" fill="none" xmlns="http://www.w3.org/2000/svg">
<path d="M208.626 130.663C204.304 170.577 194.964 182 119.847 182C44.7295 182 14.0112 148.727 14.0112 120.132C14.0112 91.5369 57.7074 88.776 96.2304 83.7132C165.525 74.6063 213.761 83.2394 208.626 130.663Z" fill="#FCEAD9"/>
<path d="M43.6225 153.382C33.7017 153.101 31.0715 153.421 30.4133 152.319C30.0005 151.625 30.2968 149.893 30.4911 143.816C30.5061 143.334 30.3289 142.865 29.9983 142.513C29.6678 142.161 29.2108 141.954 28.7279 141.938C27.7322 141.965 26.8822 142.7 26.8482 143.702C26.7753 146.221 26.6733 147.345 26.5761 150.359C26.4474 154.508 28.1207 156.68 33.4564 156.799L43.5837 157.022C44.0667 157.027 44.5321 156.841 44.8773 156.503C45.2225 156.165 45.4194 155.704 45.4245 155.222C45.4297 154.739 45.2427 154.274 44.9048 153.929C44.5668 153.584 44.1056 153.387 43.6225 153.382Z" fill="#0F172A"/>
<path d="M164.732 44.7623C166.342 36.9145 167.195 32.3208 159.212 28.3144C155.185 26.3148 150.746 25.6741 146.438 25.0796C146.28 19.3551 145.141 15.4263 137.651 13.5093C133.192 12.3372 128.616 12.6696 124.192 12.99C119.288 13.3491 120.145 13.3151 110.951 13.2011C91.2426 12.9341 64.5596 13.5772 64.3094 13.5942C63.4646 13.6099 62.6328 13.8044 61.8687 14.165C61.1047 14.5256 60.426 15.044 59.8772 15.686C21.0536 53.0566 39.46 35.0823 34.2943 40.1249C33.721 40.6821 33.2658 41.3489 32.9558 42.0856C32.6458 42.8222 32.4873 43.6137 32.4899 44.4129C32.4899 78.6046 32.2786 61.5306 32.1984 103.772H21.9303C20.4993 103.773 19.1272 104.341 18.1151 105.352C17.1029 106.363 16.5334 107.734 16.5315 109.164C16.5315 109.678 16.5072 110.775 16.4781 112.18C16.1769 125.849 16.4052 126.716 16.9857 127.478C17.4471 128.113 18.1538 128.492 18.9383 128.74C18.6517 139.077 18.3554 147.109 18.064 157.695C17.9717 161.592 19.4288 163.387 23.6886 163.727C36.2129 164.644 74.699 164.826 89.7053 163.727C90.8006 163.637 92.7654 163.436 94.0574 162.058C104.015 164.271 111.56 165.95 120.32 167.792C126.319 169.039 131.407 170.67 136.971 167.355C141.52 164.467 143.164 160.439 144.266 155.27L144.618 154.29C149.308 149.386 149.607 146.02 149.459 138.376C149.393 135.342 149.451 136.609 149.451 129.39C149.495 129.118 159.382 71.2057 164.732 44.7623ZM20.1768 109.164C20.1768 108.198 20.9661 107.412 21.9327 107.412H92.5905C93.5571 107.412 94.344 108.198 94.344 109.164L94.1108 123.614C94.089 124.386 92.4545 125.417 91.4029 125.633C82.065 127.548 73.0937 129.555 64.1929 131.436C64.205 130.004 64.1734 130.344 64.2171 129.856C64.4479 127.06 63.3914 126.065 60.5888 125.978C58.3278 125.859 53.269 125.519 51.2217 126.184L51.2168 126.187C49.4051 127.029 49.2909 129.565 49.2059 131.423C7.34654 122.457 30.5737 127.279 20.0918 125.354C19.8126 122.491 20.1768 111.056 20.1768 109.164ZM45.3906 103.772C45.427 101.597 45.7112 99.5734 46.9765 98.5785C48.7105 97.2098 51.3577 97.8942 60.4625 97.7122C65.2056 97.6054 66.7987 98.3528 66.8886 103.772H45.3906ZM89.4309 160.094C74.6019 161.184 36.3173 161 23.9679 160.094C23.4093 160.053 22.2484 159.959 21.9449 159.59C21.4446 158.964 21.7676 157.906 22.5593 129.657L23.6473 129.64L49.1234 135.131C49.1282 136.451 49.1744 137.944 49.3638 138.691C49.9467 141.084 51.6613 140.754 53.5313 140.81C61.4777 141.052 62.7964 140.907 63.78 139.703C64.6591 138.592 64.205 137.09 64.1929 136.578V135.158C72.3578 133.433 82.6235 131.161 91.3398 129.361L91.6749 157.957H91.6798C91.6846 158.265 91.7114 159.262 91.4369 159.595C91.1504 159.959 89.8899 160.056 89.4309 160.094ZM118.149 154.319H95.2741C95.2158 149.24 95.0143 132.316 94.9681 127.995C96.4496 127.024 97.7027 125.558 97.7537 123.716L97.9869 109.164C97.9849 107.734 97.4158 106.364 96.4042 105.353C95.3926 104.342 94.0211 103.773 92.5905 103.772H70.5509C70.5315 101.33 70.2109 97.8068 67.5565 95.7199C64.5134 93.3223 61.0502 94.2881 51.8968 94.0697C49.9345 94.0309 46.9546 93.963 44.7227 95.7199C42.0659 97.8068 41.7477 101.33 41.7283 103.772H35.8462C35.9191 62.7221 36.1352 79.1409 36.1352 44.4129C36.1352 43.7674 36.3659 43.1413 37.0192 42.6171C48.0426 42.6899 48.1738 42.4618 51.8313 42.7797C57.2568 43.2578 62.5293 39.4697 62.6313 33.7768L62.9227 17.7948C63.3356 17.4623 63.8529 17.2366 64.4479 17.2293C64.6907 17.2124 90.5505 16.5766 110.907 16.8386C119.47 16.9527 119.237 17.0012 124.459 16.6202C128.772 16.3048 132.849 16.0063 136.738 17.0328C141.775 18.3189 142.629 20.2942 142.787 24.5676L142.727 24.5579C142.736 24.8005 145.782 126.611 145.796 129.317H145.811C145.811 136.524 145.748 135.124 145.818 138.449C146.185 157.032 137.177 154.319 118.149 154.319Z" fill="#0F172A"/>
<path d="M109.615 41.86H109.824C116.84 41.86 120.5 33.4104 115.65 28.3071C110.722 23.1237 101.984 26.5453 101.795 33.6263C101.743 35.753 102.537 37.8134 104.003 39.3562C105.469 40.899 107.487 41.8009 109.615 41.86ZM127.04 67.4492L127.166 62.6056C127.238 59.632 126.127 56.7513 124.077 54.5941C122.027 52.437 119.206 51.1791 116.23 51.0959L102.523 50.7392C96.3182 50.5645 91.0821 55.5149 90.9194 61.749L90.798 66.5077C90.7627 67.8594 91.2661 69.1698 92.1974 70.1509C93.1287 71.1319 94.4117 71.7034 95.7645 71.7396L121.806 72.4142C124.91 72.4142 126.972 70.0603 127.04 67.4492ZM73.4407 51.5667H50.5002C50.0171 51.5667 49.5538 51.7584 49.2122 52.0997C48.8706 52.4411 48.6787 52.904 48.6787 53.3867C48.6787 53.8694 48.8706 54.3323 49.2122 54.6736C49.5538 55.0149 50.0171 55.2067 50.5002 55.2067H73.4407C73.9238 55.2067 74.3871 55.0149 74.7287 54.6736C75.0703 54.3323 75.2622 53.8694 75.2622 53.3867C75.2622 52.904 75.0703 52.4411 74.7287 52.0997C74.3871 51.7584 73.9238 51.5667 73.4407 51.5667ZM73.4407 64.2096H50.5002C50.0171 64.2096 49.5538 64.4014 49.2122 64.7427C48.8706 65.084 48.6787 65.5469 48.6787 66.0296C48.6787 66.5123 48.8706 66.9752 49.2122 67.3165C49.5538 67.6579 50.0171 67.8496 50.5002 67.8496H73.4407C73.9238 67.8496 74.3871 67.6579 74.7287 67.3165C75.0703 66.9752 75.2622 66.5123 75.2622 66.0296C75.2622 65.5469 75.0703 65.084 74.7287 64.7427C74.3871 64.4014 73.9238 64.2096 73.4407 64.2096ZM130.974 91.1262H108.034C107.551 91.1262 107.087 91.318 106.746 91.6593C106.404 92.0006 106.212 92.4635 106.212 92.9462C106.212 93.4289 106.404 93.8918 106.746 94.2331C107.087 94.5744 107.551 94.7662 108.034 94.7662H130.974C131.457 94.7662 131.921 94.5744 132.262 94.2331C132.604 93.8918 132.796 93.4289 132.796 92.9462C132.796 92.4635 132.604 92.0006 132.262 91.6593C131.921 91.318 131.457 91.1262 130.974 91.1262ZM130.974 104.706H108.034C107.551 104.706 107.087 104.898 106.746 105.239C106.404 105.58 106.212 106.043 106.212 106.526C106.212 107.009 106.404 107.471 106.746 107.813C107.087 108.154 107.551 108.346 108.034 108.346H130.974C131.457 108.346 131.921 108.154 132.262 107.813C132.604 107.471 132.796 107.009 132.796 106.526C132.796 106.043 132.604 105.58 132.262 105.239C131.921 104.898 131.457 104.706 130.974 104.706ZM130.974 118.283H108.034C107.551 118.283 107.087 118.475 106.746 118.816C106.404 119.157 106.212 119.62 106.212 120.103C106.212 120.586 106.404 121.049 106.746 121.39C107.087 121.731 107.551 121.923 108.034 121.923H130.974C131.457 121.923 131.921 121.731 132.262 121.39C132.604 121.049 132.796 120.586 132.796 120.103C132.796 119.62 132.604 119.157 132.262 118.816C131.921 118.475 131.457 118.283 130.974 118.283ZM130.974 131.865H108.034C107.551 131.865 107.087 132.057 106.746 132.398C106.404 132.739 106.212 133.202 106.212 133.685C106.212 134.168 106.404 134.631 106.746 134.972C107.087 135.313 107.551 135.505 108.034 135.505H130.974C131.457 135.505 131.921 135.313 132.262 134.972C132.604 134.631 132.796 134.168 132.796 133.685C132.796 133.202 132.604 132.739 132.262 132.398C131.921 132.057 131.457 131.865 130.974 131.865Z" fill="#0F172A"/>
</svg>
