<svg width="128" height="129" viewBox="0 0 128 129" fill="none" xmlns="http://www.w3.org/2000/svg">
<path d="M103.36 68.949C104.934 71.9823 106.577 74.9823 108.29 77.949C108.93 79.019 109.6 80.069 110.29 81.129C112.55 84.899 114.94 88.599 117.51 92.129C118.64 93.719 119.88 95.239 121.08 96.759C121.86 97.759 122.7 98.639 123.49 99.599C123.89 100.079 124.29 100.539 124.68 101.099C124.96 101.605 125.295 102.078 125.68 102.509C126.18 102.919 126.07 103.159 125.3 103.029C124.802 102.883 124.342 102.63 123.95 102.289L123.25 101.719C122.976 101.517 122.725 101.285 122.5 101.029C121.64 100.029 120.76 99.139 119.91 98.169C119.06 97.199 118.25 96.169 117.45 95.169C115.91 93.109 114.45 91.009 113.02 88.829C111.35 86.229 109.5 83.599 107.82 80.919C106 77.919 104.24 74.919 102.58 71.919C101.58 70.049 100.58 68.149 99.5803 66.259C98.0904 63.389 96.7003 60.449 95.2903 57.569C94.2756 55.3905 92.9519 53.3697 91.3603 51.569C91.0639 51.2535 90.7278 50.9779 90.3603 50.749C90.2467 50.6933 90.1219 50.6644 89.9954 50.6644C89.8688 50.6644 89.744 50.6933 89.6303 50.749L89.2503 50.859L88.7503 50.959C88.5785 50.9946 88.405 51.0214 88.2304 51.039C87.9704 51.039 87.8303 50.809 87.8403 50.339C87.8494 50.1985 87.8798 50.0603 87.9303 49.929C87.9801 49.7426 88.0687 49.5688 88.1904 49.419C88.4802 48.9589 88.9342 48.6264 89.4603 48.489C89.913 48.3741 90.3895 48.395 90.8304 48.549C91.0611 48.6148 91.2827 48.7088 91.4903 48.829C91.6721 48.939 91.8429 49.0662 92.0003 49.209C92.5357 49.592 93.0226 50.0386 93.4503 50.539C94.2407 51.4571 94.9468 52.4444 95.5603 53.489C96.1703 54.489 96.7303 55.579 97.2403 56.639L98.7403 59.759C100.25 62.849 101.74 65.939 103.41 68.969L103.36 68.949Z" fill="#0F172A"/>
<path d="M84.3108 50.0889C83.9479 49.3238 83.5371 48.5823 83.0808 47.8689C82.9108 47.6189 82.6908 47.3989 82.5108 47.1389L82.0008 46.4689C81.8955 46.3157 81.7592 46.1862 81.6008 46.0889C81.1919 45.7818 80.7405 45.5358 80.2608 45.3589C79.8586 45.2096 79.4267 45.1581 79.0008 45.2089C78.8123 45.2355 78.6354 45.3153 78.4908 45.4389C78.3766 45.5694 78.2854 45.7181 78.2208 45.8789C78.1408 46.0089 77.7608 46.0389 77.4108 45.8189C77.2022 45.695 77.0459 45.4996 76.9708 45.2689C76.9281 45.1147 76.9231 44.9524 76.9561 44.7958C76.9892 44.6392 77.0594 44.4928 77.1608 44.3689C77.3572 44.1218 77.6023 43.9176 77.8808 43.7689C78.1186 43.6529 78.3708 43.5688 78.6308 43.5189C79.0676 43.4441 79.5139 43.4441 79.9508 43.5189C80.7087 43.6347 81.4361 43.8998 82.0908 44.2989C82.5507 44.5445 82.9804 44.8433 83.3708 45.1889C83.6729 45.4808 83.9599 45.7878 84.2308 46.1089C84.8132 46.8227 85.3477 47.5744 85.8308 48.3589C86.1308 48.8289 86.4108 49.3589 86.6908 49.8089C87.1108 50.5589 87.4508 51.3489 87.8408 52.0989C88.1508 52.6889 88.5508 53.2289 88.8408 53.8189C88.9108 53.9489 88.9908 54.0789 89.0508 54.2189C89.2408 54.7389 89.0508 54.9689 88.5208 55.2189L88.1408 55.3889C87.9612 55.459 87.7661 55.4792 87.576 55.4475C87.3859 55.4159 87.2079 55.3334 87.0608 55.2089C86.3703 54.3512 85.8078 53.398 85.3908 52.3789C85.0208 51.6489 84.6608 50.8889 84.2608 50.1489L84.3108 50.0889Z" fill="#0F172A"/>
<path d="M76.6202 46.8689C76.1696 45.8613 75.6274 44.8972 75.0002 43.9889C74.7602 43.6989 74.4902 43.3989 74.2302 43.1389C74.0147 42.8884 73.7807 42.6544 73.5302 42.4389C73.3035 42.22 73.0518 42.0287 72.7802 41.8689C72.245 41.5429 71.6266 41.3796 71.0002 41.3989C70.4511 41.4214 69.9259 41.6294 69.5102 41.9889C69.0082 42.5076 68.6438 43.1435 68.4502 43.8389C68.3602 44.0589 68.0402 44.0289 67.7602 43.7489C67.5661 43.5703 67.4285 43.3388 67.3645 43.0828C67.3005 42.8269 67.3129 42.5579 67.4002 42.3089C67.5863 41.758 67.8903 41.2543 68.291 40.8329C68.6916 40.4115 69.1794 40.0826 69.7202 39.8689C70.784 39.4898 71.9516 39.5255 72.9902 39.9689C74.1326 40.4348 75.1573 41.1487 75.9902 42.0589C76.8112 42.9977 77.5162 44.0318 78.0902 45.1389C78.4502 45.7889 78.7802 46.4689 79.0902 47.1389C79.5602 48.1389 79.9702 49.1989 80.4302 50.2089C80.7802 50.9889 81.2402 51.7089 81.6302 52.4689C81.7202 52.6389 81.8202 52.7889 81.8902 52.9589C82.1702 53.5989 82.1202 53.8489 81.6002 54.1989C81.495 54.2822 81.3848 54.3591 81.2702 54.4289C81.0697 54.5325 80.8373 54.5561 80.6201 54.4948C80.4029 54.4335 80.217 54.292 80.1002 54.0989C79.2682 52.804 78.5648 51.4308 78.0002 49.9989C77.5502 48.9389 77.1002 47.8889 76.5902 46.8889L76.6202 46.8689Z" fill="#0F172A"/>
<path d="M64.52 55.7789L66.44 59.0689L67.44 60.6989L68.01 61.6289C68.31 62.1289 68.63 62.6289 69.01 63.1389C69.15 63.4489 69.31 63.7789 69.42 64.0589V64.7089C69.3939 64.9452 69.304 65.1699 69.16 65.3589C68.9983 65.5432 68.801 65.6928 68.58 65.7989C68.0262 66.0253 67.4216 66.0979 66.83 66.0089C66.47 66.0089 66.1 65.9189 65.72 65.8489C65.53 65.8489 65.35 65.7689 65.16 65.7289L64.67 65.6089C62.98 65.1889 61.36 64.6789 59.75 64.1289C58.96 63.8589 58.12 63.5489 57.37 63.2689C56.62 62.9889 55.84 62.7589 55.05 62.5389C53.5115 62.0716 51.9357 61.737 50.34 61.5389C49.6135 61.4377 48.8765 61.4377 48.15 61.5389C47.8982 61.5769 47.6567 61.6653 47.44 61.7989C47.3902 61.8298 47.3487 61.8723 47.3191 61.9229C47.2894 61.9734 47.2726 62.0304 47.27 62.0889C47.09 63.1489 47.88 64.4389 48.99 65.5089C51.097 67.4429 53.4549 69.0843 56 70.3889C58.59 71.7789 61.26 72.9989 64 74.3889C64.7346 74.7425 65.4344 75.1643 66.09 75.6489C66.6785 76.1693 67.2362 76.7235 67.76 77.3089L70.76 80.6189C72.7013 82.7708 74.7861 84.7888 77 86.6589C77.9814 87.4529 79.0401 88.1464 80.16 88.7289C80.7164 89.0089 81.2872 89.2593 81.87 89.4789C82.5201 89.7161 83.1576 89.9865 83.78 90.2889C86.1897 91.5161 88.4398 93.0341 90.48 94.8089C93.0737 97.0162 95.5035 99.4092 97.75 101.969C99.9987 104.488 102.112 107.125 104.08 109.869C105.31 111.569 104.86 111.579 103.38 110.509C102.64 109.969 101.64 109.159 100.47 108.149C99.3 107.139 98.08 105.859 96.79 104.449C94.5427 101.94 92.1626 99.5533 89.66 97.2989C87.2799 95.0808 84.5411 93.282 81.56 91.9789C80.93 91.6989 79.85 91.3389 79.05 90.9089C78.2223 90.4825 77.4239 90.0014 76.66 89.4689C75.1934 88.4201 73.8124 87.2564 72.53 85.9889C70 83.5089 67.89 80.6789 65.62 78.2089C65.3079 77.8551 64.9739 77.5211 64.62 77.2089C64.2542 76.9369 63.8661 76.6961 63.46 76.4889C62.58 76.0089 61.64 75.5489 60.7 75.0889C58.82 74.2089 56.89 73.2689 55 72.2589C53.0619 71.2611 51.2001 70.1213 49.43 68.8489C48.5148 68.1839 47.6673 67.4303 46.9 66.5989C46.03 65.6982 45.4127 64.5841 45.11 63.3689C45.0378 63.0202 45.001 62.6651 45 62.3089C45 62.1289 45 61.9589 45 61.7689C45.0442 61.548 45.1147 61.3331 45.21 61.1289C45.3984 60.7253 45.692 60.3799 46.06 60.1289C46.3644 59.9122 46.7022 59.7467 47.06 59.6389C48.2616 59.3484 49.5087 59.2974 50.73 59.4889C52.9756 59.7875 55.1863 60.3067 57.33 61.0389C59.45 61.8089 61.44 62.5089 63.54 63.1089C64.06 63.2589 64.54 63.3989 65.09 63.5189C65.33 63.5789 65.55 63.6289 65.79 63.6689C65.9064 63.6792 66.0236 63.6792 66.14 63.6689C66.25 63.6689 66.43 63.6689 66.44 63.5389C66.3469 63.323 66.2294 63.1183 66.09 62.9289L65.58 62.0989C62.73 57.2089 59.91 52.2089 57 47.2089C54.7355 43.4479 52.9547 39.416 51.7 35.2089C51.37 34.1589 51.07 33.1089 50.81 32.0489C50.5127 30.9708 50.3021 29.8706 50.18 28.7589C50.0254 27.6242 50.0254 26.4737 50.18 25.3389C50.2354 25.0275 50.3225 24.7226 50.44 24.4289C50.5783 24.0755 50.7896 23.7552 51.06 23.4889C51.3478 23.2396 51.6967 23.0712 52.0709 23.0009C52.4452 22.9306 52.8313 22.961 53.19 23.0889C54.0867 23.3889 54.9038 23.888 55.58 24.5489C56.2194 25.1615 56.8018 25.8309 57.32 26.5489C58.3018 27.9252 59.1968 29.3613 60 30.8489C61.56 33.6989 63.41 36.4489 65.19 39.2189L67.57 42.8589C70.57 47.4489 71.27 49.0489 71.35 50.3589C71.3734 50.6518 71.3734 50.9461 71.35 51.2389C71.2 51.9289 69.77 50.2389 67.55 46.9089C65.91 44.4589 64.22 41.9789 62.55 39.4289C61.7233 38.1623 60.9 36.8723 60.08 35.5589C59.27 34.2789 58.45 32.8489 57.74 31.5589C57.0465 30.2528 56.2681 28.9934 55.41 27.7889C54.7182 26.7328 53.7636 25.8747 52.64 25.2989H52.51C52.4318 25.4845 52.378 25.6795 52.35 25.8789C52.2973 26.1897 52.2672 26.5038 52.26 26.8189C52.2463 28.2463 52.4246 29.6691 52.79 31.0489C53.8467 35.4546 55.442 39.7133 57.54 43.7289L64.54 55.8089L64.52 55.7789Z" fill="#0F172A"/>
<path d="M112.181 101.839C111.621 102.299 110.991 102.679 110.391 103.089C109.762 103.456 109.115 103.79 108.451 104.089C107.961 104.279 107.451 104.549 107.001 104.709C106.115 104.967 105.208 105.147 104.291 105.249C103.841 105.249 103.391 105.379 102.941 105.379H101.591C100.791 105.379 100.011 105.289 99.2211 105.289C98.2133 105.306 97.2139 105.104 96.2911 104.699C96.0011 104.569 96.1111 104.239 96.4411 103.899C96.8071 103.493 97.3012 103.225 97.8411 103.139L100.631 103.259C101.101 103.259 101.551 103.259 102.011 103.259C102.477 103.289 102.945 103.289 103.411 103.259C104.549 103.187 105.665 102.905 106.701 102.429C107.287 102.214 107.856 101.953 108.401 101.649C108.671 101.489 108.961 101.349 109.231 101.179L110.001 100.639C110.327 100.418 110.635 100.17 110.921 99.899C111.224 99.6508 111.512 99.3836 111.781 99.099C112.633 98.245 113.378 97.2914 114.001 96.259C114.406 95.4286 114.741 94.5656 115.001 93.679C115.071 93.479 115.111 93.279 115.191 93.089C115.551 92.419 115.881 92.289 116.441 92.339H116.761C117.001 92.339 117.361 92.849 117.361 93.499C117.102 95.3859 116.346 97.1701 115.171 98.669C114.301 99.8505 113.294 100.925 112.171 101.869L112.181 101.839Z" fill="#0F172A"/>
<path d="M116.42 104.209C116.371 104.078 116.3 103.957 116.21 103.849C116.163 103.78 116.092 103.73 116.01 103.709C115.977 103.711 115.945 103.721 115.916 103.736C115.887 103.752 115.861 103.773 115.84 103.799C115.794 103.851 115.762 103.915 115.748 103.983C115.734 104.052 115.738 104.123 115.76 104.189C115.787 104.27 115.824 104.347 115.87 104.419L115.93 104.539V104.639V104.709L116.01 104.929C116.211 105.434 116.3 105.976 116.27 106.519C116.27 106.779 116.19 107.059 116.13 107.299C116.06 107.568 115.956 107.827 115.82 108.069C115.605 108.503 115.254 108.854 114.82 109.069C114.325 109.264 113.775 109.264 113.28 109.069C112.797 108.863 112.361 108.56 112 108.179C111.87 108.049 111.76 107.919 111.65 107.799L111.49 107.609C111.49 107.549 111.49 107.609 111.49 107.549L111.36 107.349L111.07 106.869C110.957 106.684 110.826 106.51 110.68 106.349C110.594 106.277 110.491 106.229 110.38 106.21C110.269 106.19 110.156 106.2 110.05 106.239C109.96 106.277 109.885 106.344 109.837 106.429C109.788 106.514 109.768 106.612 109.78 106.709C109.821 106.907 109.889 107.099 109.98 107.279L110.28 107.909L110.35 108.089L110.46 108.389C110.52 108.598 110.56 108.812 110.58 109.029C110.595 109.162 110.595 109.296 110.58 109.429C110.549 109.603 110.502 109.773 110.44 109.939C110.288 110.239 110.042 110.481 109.74 110.629C109.614 110.685 109.483 110.731 109.35 110.769H109.06C108.848 110.799 108.633 110.799 108.42 110.769C108.217 110.725 108.019 110.658 107.83 110.569C107.286 110.269 106.799 109.877 106.39 109.409C105.99 108.999 105.74 108.659 105.39 108.329C105.271 108.191 105.133 108.07 104.98 107.969C104.911 107.92 104.825 107.898 104.74 107.909C104.64 107.909 104.59 108.049 104.54 108.119C104.456 108.457 104.502 108.814 104.67 109.119L105.07 109.989C105.087 110.027 105.096 110.068 105.096 110.109C105.096 110.15 105.087 110.191 105.07 110.229C105.069 110.274 105.055 110.317 105.03 110.354C105.005 110.391 104.971 110.42 104.93 110.439C104.75 110.439 104.53 110.439 104.01 110.159C103.224 109.624 102.545 108.945 102.01 108.159C101.715 107.744 101.485 107.285 101.33 106.799C101.228 106.438 101.207 106.059 101.27 105.689C101.393 105.158 101.651 104.669 102.02 104.269C102.155 104.145 102.298 104.031 102.45 103.929C102.605 103.842 102.769 103.775 102.94 103.729C103.181 103.676 103.43 103.676 103.67 103.729C104.301 103.842 104.879 104.154 105.32 104.619C106.101 105.409 106.839 106.24 107.53 107.109L108.08 107.699L108.35 107.979C108.479 108.095 108.616 108.202 108.76 108.299C108.76 108.349 108.85 108.199 108.76 108.589C108.76 108.709 108.76 108.839 108.7 108.889V108.969C108.7 109.579 108.7 108.139 108.7 108.289C108.716 108.405 108.743 108.518 108.78 108.629C108.792 108.722 108.792 108.816 108.78 108.909C108.78 108.969 108.78 109.039 108.85 109.109C108.887 109.177 108.93 109.24 108.98 109.299C108.98 109.299 108.91 109.249 108.88 109.249C108.834 109.24 108.786 109.24 108.74 109.249H108.67H108.5C108.294 109.234 108.087 109.258 107.89 109.319C107.89 109.319 107.89 109.259 107.89 109.169C107.799 108.924 107.688 108.687 107.56 108.459L107.16 107.699C106.666 106.889 106.327 105.993 106.16 105.059C106.099 104.516 106.161 103.965 106.34 103.449C106.503 103.028 106.768 102.653 107.11 102.359C107.483 102.037 107.942 101.832 108.43 101.769C108.839 101.715 109.255 101.777 109.63 101.949C109.983 102.11 110.318 102.308 110.63 102.539C111.56 103.426 112.397 104.404 113.13 105.459L113.46 105.849L113.64 106.039C113.76 106.159 113.88 106.289 113.98 106.369C114.045 106.426 114.115 106.476 114.19 106.519C114.108 106.705 114.048 106.899 114.01 107.099C114.01 107.229 114.01 107.279 114.01 107.219L113.9 107.089C113.822 107.013 113.738 106.943 113.65 106.879L113.47 106.769C113.504 106.668 113.531 106.564 113.55 106.459C113.565 106.37 113.565 106.278 113.55 106.189C113.562 106.14 113.562 106.088 113.55 106.039V105.949L113.43 105.759C113.041 105.175 112.684 104.571 112.36 103.949C112.128 103.445 111.973 102.909 111.9 102.359C111.775 101.317 111.997 100.263 112.53 99.359C112.653 99.1326 112.822 98.9351 113.028 98.7799C113.233 98.6246 113.469 98.5152 113.72 98.459C114.164 98.4307 114.606 98.5352 114.99 98.759C115.528 99.0637 116.014 99.4518 116.43 99.909C116.968 100.503 117.463 101.134 117.91 101.799L118.61 102.799C118.82 103.089 118.94 103.249 119.1 103.449C119.158 103.53 119.221 103.607 119.29 103.679C119.29 103.599 119.15 103.829 119.07 103.989C118.991 104.084 118.936 104.198 118.91 104.319C118.91 104.319 118.91 104.319 118.91 104.379C118.881 104.371 118.85 104.371 118.82 104.379C118.717 104.366 118.613 104.366 118.51 104.379C118.447 104.376 118.384 104.376 118.32 104.379H118.13L118.03 104.119C117.84 103.699 117.56 103.219 117.29 102.749L116.29 101.099C115.522 99.8952 114.935 98.5844 114.55 97.209C114.405 96.6884 114.374 96.1425 114.46 95.609C114.521 95.3031 114.66 95.0181 114.863 94.7815C115.066 94.545 115.327 94.365 115.62 94.259C115.947 94.1629 116.294 94.1629 116.62 94.259C116.855 94.3282 117.076 94.4401 117.27 94.589C117.867 94.8863 118.428 95.2521 118.94 95.679C119.62 96.319 120.33 97.019 121.07 97.679C121.5 98.059 121.7 98.219 121.94 98.419L122.67 99.019L123.97 100.019C125.58 101.289 125.97 101.779 125.88 102.669C125.891 102.872 125.891 103.076 125.88 103.279C125.78 103.889 124.65 103.859 123.29 102.989C121.48 101.909 118.71 99.479 119.29 100.169C119.22 100.169 119.29 100.359 119.29 100.339L119.42 100.579L120.09 101.809C120.357 102.296 120.591 102.8 120.79 103.319L120.88 103.629C120.922 103.783 120.952 103.94 120.97 104.099C120.98 104.239 120.98 104.379 120.97 104.519V104.629C120.97 104.699 120.97 104.769 120.97 104.839C120.97 104.909 120.88 105.109 120.83 105.239C120.665 105.581 120.409 105.872 120.09 106.079C119.678 106.333 119.188 106.429 118.71 106.349C118.49 106.308 118.278 106.234 118.08 106.129C118.016 106.1 117.955 106.063 117.9 106.019L117.78 105.939C117.669 105.851 117.562 105.758 117.46 105.659C117.339 105.533 117.225 105.399 117.12 105.259C116.93 105.019 116.8 104.829 116.66 104.619L116.54 104.449V104.379L116.42 104.209Z" fill="#0F172A"/>
<path d="M8.70016 42.2089L8.14016 42.3889C7.84806 42.477 7.55083 42.5472 7.25016 42.5989C6.94016 42.5989 6.63016 42.5989 6.31016 42.6689C6.02438 42.6615 5.73987 42.628 5.46016 42.5689C5.32927 42.5091 5.20522 42.4354 5.09016 42.3489L4.91016 42.2089L5.00016 42.1289L4.92016 42.0589C4.69016 41.8889 4.70016 41.5789 4.68016 41.2589C4.70063 40.8976 4.77131 40.5408 4.89016 40.1989C4.91431 39.9902 4.95105 39.7832 5.00016 39.5789L5.15016 39.1289C5.45016 38.3089 5.78016 37.5289 6.15016 36.7389L7.15016 34.4089L7.60016 33.2089L7.76016 32.8889L7.58016 32.7789L6.87016 32.3589C6.12016 31.9089 5.36016 31.4489 4.62016 30.9289C4.25016 30.6589 3.88016 30.3889 3.52016 30.0689C3.33808 29.9187 3.16448 29.7584 3.00016 29.5889C2.90858 29.4968 2.8218 29.4 2.74016 29.2989C2.6412 29.1789 2.55097 29.0519 2.47016 28.9189C2.14196 28.435 1.94866 27.8724 1.91016 27.2889C1.92543 27.0303 2.00444 26.7796 2.14016 26.5589C2.31292 26.3501 2.52753 26.1798 2.77016 26.0589C3.02481 25.9218 3.29289 25.8112 3.57016 25.7289L3.78016 25.6589H3.91016L4.18016 25.5889C4.89016 25.3989 5.58016 25.2689 6.27016 25.1389C6.96016 25.0089 7.66016 24.8989 8.35016 24.7989L9.35016 24.6489L9.97016 24.5689C10.0115 24.5173 10.0451 24.4601 10.0702 24.3989L10.2902 23.9889L10.8002 22.9889C11.1502 22.3289 11.5002 21.6789 11.8702 20.9889C12.2402 20.2989 12.6102 19.6889 13.0202 19.0489C13.2202 18.7289 13.4302 18.4089 13.6502 18.0489L14.0002 17.5789C14.1302 17.4289 14.2302 17.2789 14.4502 17.0589C14.7592 16.6797 15.1844 16.4127 15.6602 16.2989C15.899 16.2799 16.1368 16.3474 16.3302 16.4889C16.5416 16.614 16.7365 16.7652 16.9102 16.9389C17.2001 17.2189 17.4613 17.5271 17.6902 17.8589C17.9102 18.1489 18.1002 18.4389 18.2902 18.7289C19.0178 19.8837 19.6854 21.0753 20.2902 22.2989C20.6902 23.0689 21.0702 23.8489 21.4402 24.6389L21.6802 25.1589C21.6802 25.2289 21.7302 25.3489 21.8102 25.3789L22.7302 25.5289C24.4202 25.8189 26.1102 26.1489 27.7302 26.5289C29.8202 27.0289 26.8202 28.3189 22.9302 27.6289L21.6302 27.3889L20.4402 27.2089C20.2232 26.8356 20.0392 26.4441 19.8902 26.0389C19.5102 25.1489 19.1902 24.4489 18.8102 23.6489C18.0933 22.1211 17.2782 20.6414 16.3702 19.2189L16.0002 18.7889L15.8202 18.5689C15.8202 18.5689 15.8202 18.4989 15.7502 18.5189C15.6802 18.5389 15.8002 18.4089 15.4602 18.8289C15.1202 19.2489 14.9802 19.4789 14.7402 19.8289C13.8202 21.2289 12.9602 22.7589 12.1202 24.2889L11.7402 24.9989L11.4602 25.5389C11.3502 25.7489 11.2402 25.9489 11.1202 26.1489L9.64016 26.3389L8.64016 26.4889C7.96016 26.5889 7.29016 26.7089 6.64016 26.8389C5.99016 26.9689 5.31016 27.1189 4.64016 27.2889L4.24016 27.4089L4.07016 27.4689C3.98016 27.4689 3.83016 27.5789 3.89016 27.6989C3.9132 27.7753 3.95053 27.8465 4.00016 27.9089L4.07016 28.0089L4.24016 28.2189C4.5445 28.5527 4.87928 28.8573 5.24016 29.1289C5.87814 29.6322 6.54603 30.0964 7.24016 30.5189L8.34016 31.2089L10.0902 32.2089L8.85016 34.9089L7.94016 36.9889C7.64016 37.6889 7.36016 38.3889 7.08016 39.0789L6.74016 39.9889C6.74016 40.1389 6.63016 40.3089 6.59016 40.4789C6.55016 40.6489 6.59016 40.6389 6.59016 40.6789H6.80016C6.94616 40.6987 7.09416 40.6987 7.24016 40.6789H7.47016C7.61574 40.6434 7.75928 40.6 7.90016 40.5489C8.48792 40.345 9.06237 40.1045 9.62016 39.8289C10.7594 39.2463 11.8525 38.5777 12.8902 37.8289C14.0034 37.0693 15.0444 36.209 16.0002 35.2589C16.4202 35.6689 16.8902 36.1089 17.2902 36.4689L18.1902 37.2589C18.8002 37.7889 19.4302 38.2589 20.0702 38.7589C20.7112 39.2396 21.379 39.6837 22.0702 40.0889C22.4002 40.2989 22.7502 40.4589 23.0702 40.6389L23.5902 40.8689C23.7404 40.9308 23.894 40.9842 24.0502 41.0289C24.2751 41.1051 24.5138 41.1323 24.7502 41.1089C24.8502 41.1089 25.0202 41.1089 25.0102 40.9589C25.0082 40.8373 24.9915 40.7164 24.9602 40.5989L24.8702 40.2689L24.7102 39.8289C24.5802 39.4389 24.4302 39.0489 24.2802 38.6589C23.9702 37.8889 23.6502 37.1189 23.2802 36.3489L22.1202 33.6489C21.9202 33.1689 21.7002 32.6489 21.5202 32.1689L23.5202 31.8489L25.4202 31.4989L26.5702 31.3189C27.0468 31.228 27.5387 31.2589 28.0002 31.4089C28.1697 31.4488 28.3367 31.4988 28.5002 31.5589C28.7202 31.6489 28.6002 31.9489 28.1302 32.2789C27.4314 32.7077 26.6684 33.0217 25.8702 33.2089L24.4402 33.5589L24.1602 33.6689C24.1602 33.7289 24.2402 33.7889 24.2702 33.8389L24.3202 33.9089C24.3229 33.9288 24.3229 33.949 24.3202 33.9689L24.4202 34.1889L25.2002 35.9889C25.4602 36.5889 25.7102 37.1989 25.9502 37.8289L26.3102 38.8289L26.4802 39.3189L26.5602 39.5689L26.6802 39.9789C27.0702 41.2289 27.1502 42.5289 26.0302 42.8489L25.6802 42.9989C25.5404 43.0094 25.4 43.0094 25.2602 42.9989C24.9638 43.0189 24.6665 43.0189 24.3702 42.9989C24.0292 42.9604 23.6937 42.8832 23.3702 42.7689C23.1816 42.7176 22.9976 42.6507 22.8202 42.5689C21.4968 41.9908 20.2478 41.2555 19.1002 40.3789C18.3902 39.8589 17.7102 39.3789 17.0502 38.7689L16.0502 37.9189L16.0002 37.8189C15.7002 38.0889 15.3802 38.3289 15.0602 38.5889C14.4202 39.0789 13.7702 39.5889 13.0602 39.9789C11.6982 40.8768 10.2431 41.6245 8.72016 42.2089H8.70016Z" fill="#0F172A"/>
<path d="M90.4304 38.839L90.6504 39.619C90.7632 39.9891 90.8501 40.3667 90.9104 40.749C90.9885 41.0471 90.9967 41.3593 90.9342 41.6611C90.8718 41.963 90.7404 42.2463 90.5504 42.489C90.2995 42.6414 90.0308 42.7623 89.7504 42.849C89.4174 42.8698 89.0834 42.8698 88.7504 42.849C88.4126 42.7931 88.0786 42.7163 87.7504 42.619C87.4443 42.5512 87.1485 42.4436 86.8704 42.299C86.2603 42.0354 85.6718 41.7245 85.1104 41.369C84.1877 40.7345 83.3028 40.0466 82.4604 39.309C82.0204 38.969 81.6004 38.6023 81.2004 38.209L80.6004 37.649L80.4104 37.449L80.2704 37.309C80.2022 37.2275 80.1287 37.1507 80.0504 37.079L79.6604 37.449L79.2804 37.789L78.8504 38.159C77.9371 39.031 76.8821 39.7412 75.7304 40.259C74.9904 40.519 74.8604 38.329 75.9304 37.599C76.4904 37.209 77.0304 36.809 77.5704 36.399L77.9604 36.099C78.1104 35.979 78.1604 35.949 78.4904 35.659L80.0004 34.209L82.0004 36.209L83.1004 37.339C84.1805 38.3802 85.3905 39.2776 86.7004 40.009C87.0224 40.2061 87.3564 40.3832 87.7004 40.539L87.9704 40.669C88.0451 40.6982 88.122 40.7216 88.2004 40.739C88.2897 40.7543 88.381 40.7543 88.4704 40.739C88.5404 40.739 88.6904 40.739 88.7004 40.669C88.7293 40.5002 88.7293 40.3277 88.7004 40.159V39.989C88.7004 39.919 88.7004 39.899 88.6304 39.749L88.4104 39.019C88.2604 38.529 88.0904 38.019 87.9204 37.559L87.1104 35.349L85.9704 32.489C85.9704 32.489 85.9004 32.359 85.9204 32.319C86.7304 32.189 87.5604 32.039 88.3904 31.839C88.9404 31.689 89.4804 31.519 90.0204 31.359L90.7404 31.109C91.6304 30.819 91.8704 30.849 92.2804 31.259C92.3704 31.359 92.4904 31.439 92.5804 31.539C92.9004 31.839 92.5804 32.429 91.8804 32.789C91.1132 33.157 90.313 33.4516 89.4904 33.669L88.8704 33.829H88.7304C89.3604 35.379 89.9704 36.989 90.5104 38.659L90.4304 38.839Z" fill="#0F172A"/>
<path d="M71.8901 24.539L73.1601 24.369L73.7601 24.289H73.8801L73.9401 24.219L74.2101 23.699L74.8201 22.569C75.2201 21.809 75.6401 21.059 76.0801 20.319C76.5399 19.4741 77.0474 18.6561 77.6001 17.869C77.7301 17.689 77.8801 17.499 78.0301 17.319C78.1801 17.139 78.2101 17.109 78.3401 16.979C78.4635 16.8452 78.5972 16.7215 78.7401 16.609C78.9897 16.3799 79.2977 16.2242 79.6301 16.159C79.954 16.1124 80.284 16.1833 80.5601 16.359C80.7601 16.509 80.9401 16.689 81.1301 16.849C81.292 17.001 81.4424 17.1647 81.5801 17.339C81.7901 17.609 81.9701 17.879 82.1501 18.139C82.5001 18.679 82.8101 19.219 83.1001 19.759C83.6901 20.849 84.2201 21.959 84.7301 23.069L85.6301 25.069L85.7701 25.389V25.509C85.7701 25.509 85.8501 25.509 85.8901 25.509L86.7201 25.639C88.5602 25.8515 90.3842 26.1856 92.1801 26.639C93.2901 26.969 91.5301 28.479 89.4301 28.119L86.6401 27.609L84.7601 27.249L84.4701 27.209C84.4134 27.107 84.3665 26.9998 84.3301 26.889L84.0601 26.239L83.7401 25.449C83.0301 23.749 82.2801 22.029 81.4601 20.379C81.2211 19.9035 80.9539 19.4427 80.6601 18.999C80.5206 18.7881 80.3704 18.5845 80.2101 18.389C80.1463 18.3221 80.0759 18.2618 80.0001 18.209C79.9833 18.1914 79.9631 18.1774 79.9408 18.1679C79.9184 18.1584 79.8944 18.1535 79.8701 18.1535C79.8458 18.1535 79.8218 18.1584 79.7994 18.1679C79.7771 18.1774 79.7569 18.1914 79.7401 18.209C79.6547 18.2691 79.5803 18.3435 79.5201 18.429C79.1637 18.8717 78.8299 19.3323 78.5201 19.809C77.9301 20.729 77.3701 21.709 76.8301 22.689L75.0501 26.009L73.8201 26.169C72.2801 26.379 70.7201 26.609 69.2201 26.939L68.3801 27.159C68.2063 27.2034 68.0359 27.2602 67.8701 27.329C67.7201 27.379 67.5501 27.489 67.6201 27.669C67.6404 27.8334 67.6986 27.9908 67.7901 28.129C67.9122 28.3249 68.0565 28.5061 68.2201 28.669C68.409 28.8707 68.613 29.0579 68.8301 29.229C69.2684 29.5958 69.733 29.93 70.2201 30.229C70.6001 30.479 70.9901 30.699 71.3901 30.919L72.6801 31.589L73.6201 32.069L73.8501 32.199L74.0001 32.209C74.0001 32.209 74.0001 32.289 74.0001 32.329L73.8101 32.809L73.1801 34.469C73.0401 34.849 72.9201 35.219 72.7701 35.589C72.2101 36.969 71.9101 37.359 71.3201 37.469C71.1887 37.502 71.055 37.5254 70.9201 37.539C70.5101 37.539 70.4501 36.849 70.7801 35.789C71.0301 34.999 71.2901 34.209 71.5701 33.419L71.6801 33.129V33.039C71.6801 33.039 71.5901 33.039 71.5701 33.039H71.5001L71.3501 32.959L71.0001 32.759L70.4301 32.439C70.0401 32.219 69.6601 31.999 69.2801 31.759C68.4607 31.2689 67.6963 30.6923 67.0001 30.039C66.8701 29.899 66.7301 29.769 66.6001 29.609L66.4001 29.359C66.3099 29.2369 66.2265 29.1101 66.1501 28.979C65.8177 28.4731 65.634 27.8841 65.6201 27.279V26.869C65.7001 26.759 65.7001 26.599 65.7801 26.489C65.9313 26.2576 66.1288 26.0601 66.3601 25.909C66.6284 25.7551 66.9094 25.6246 67.2001 25.519L67.6201 25.369L67.8901 25.299C69.1789 24.9654 70.4839 24.6984 71.8001 24.499L71.8901 24.539Z" fill="#0F172A"/>
<path d="M36.7208 28.2889L36.5208 28.3489H36.4208C36.4208 28.3489 36.3308 28.3489 36.3408 28.4189C36.3316 28.4482 36.3316 28.4796 36.3408 28.5089V28.5689L36.5208 28.7989C36.8278 29.1391 37.1622 29.4535 37.5208 29.7389C38.3283 30.3603 39.1732 30.9313 40.0508 31.4489L40.4308 31.6689L40.9908 31.9889L42.3808 32.7589L41.5108 34.6789C40.7708 36.2689 40.0308 37.8689 39.3508 39.4789L39.0008 40.6089C38.9239 40.7804 38.8604 40.9576 38.8108 41.1389C38.8011 41.1885 38.8011 41.2394 38.8108 41.2889C38.8108 41.3389 38.8908 41.2889 38.9308 41.3389C39.0201 41.3542 39.1114 41.3542 39.2008 41.3389C39.2974 41.3438 39.3942 41.3438 39.4908 41.3389L39.9108 41.2389C41.3442 40.7559 42.7167 40.1082 44.0008 39.3089C45.6708 38.3089 47.2608 37.0989 48.7908 35.9689C49.2508 35.6189 49.5608 35.9689 49.4908 36.6989C49.4066 37.1917 49.2243 37.6625 48.9545 38.0833C48.6848 38.5042 48.3333 38.8666 47.9208 39.1489C46.1961 40.3947 44.342 41.4508 42.3908 42.2989C41.8908 42.4989 41.3908 42.6989 40.8508 42.8689C40.7208 42.8689 40.5908 42.9589 40.4508 42.9889L39.9508 43.1189C39.4966 43.2175 39.035 43.2777 38.5708 43.2989C38.3773 43.2978 38.1852 43.2675 38.0008 43.2089C37.8108 43.2089 37.5808 43.2089 37.4708 43.0489L37.2508 42.9089L37.1508 42.8389C37.0908 42.8389 37.2208 42.7689 37.1508 42.7789H37.1008C37.0358 42.7297 36.9811 42.6682 36.94 42.5978C36.8988 42.5275 36.8719 42.4497 36.8608 42.3689C36.8316 41.5306 37.0139 40.6984 37.3908 39.9489L38.8808 36.4389L39.6308 34.6889L39.9708 33.9089L40.1108 33.6189L39.8208 33.4489L39.0008 32.9089C38.4108 32.5489 37.8308 32.1689 37.2508 31.7689C36.6587 31.3567 36.0972 30.9022 35.5708 30.4089C35.2737 30.1088 35.0151 29.7729 34.8008 29.4089C34.5149 28.9901 34.3426 28.5043 34.3008 27.9989V27.8389C34.3008 27.1889 34.9908 26.9089 35.5808 26.6789L36.0108 26.5389L36.3408 26.4489L36.9808 26.2989C37.8408 26.0989 38.6908 25.9489 39.5308 25.8089L41.0708 25.5689L42.3308 25.3989L43.4208 23.6389L44.6908 21.6389C45.2408 20.7889 45.7808 19.9489 46.3808 19.1289C46.5308 18.9289 46.6908 18.7189 46.8608 18.5189L47.1308 18.1989C47.2608 18.0589 47.4008 17.9389 47.5408 17.7989C47.8079 17.5513 48.1251 17.3637 48.4708 17.2489C48.6339 17.2002 48.8068 17.1939 48.973 17.2306C49.1393 17.2674 49.2934 17.3459 49.4208 17.4589C49.6693 17.6889 49.8938 17.9436 50.0908 18.2189L50.5408 18.7789C51.5408 20.0589 51.7208 20.5389 51.5408 21.1289C51.5064 21.265 51.463 21.3986 51.4108 21.5289C51.2008 21.8989 50.5608 21.5289 49.7508 20.6689L48.8708 19.6689C48.6708 19.4389 48.6908 19.4889 48.6508 19.4589C48.6108 19.4289 48.5908 19.4589 48.5608 19.4589C48.5308 19.4589 48.4608 19.5589 48.4408 19.5989L48.3508 19.7089L48.1508 19.9389L47.7608 20.4489C46.7608 21.8389 45.7608 23.3989 44.7608 24.9589L43.4608 27.1189L41.2908 27.4289L39.7308 27.6789C38.7207 27.8377 37.7194 28.0479 36.7308 28.3089L36.7208 28.2889Z" fill="#FCEAD9"/>
<path d="M12.3603 41.119C11.4491 41.6922 10.504 42.2098 9.53031 42.669C9.04031 42.889 8.53031 43.109 8.02031 43.289C7.75031 43.379 7.49031 43.469 7.21031 43.539L6.79031 43.649C6.64031 43.649 6.55031 43.649 6.28031 43.739C5.80256 43.8046 5.31807 43.8046 4.84031 43.739L4.41031 43.509C4.41031 43.409 4.41031 43.439 4.35031 43.389L4.26031 43.299C4.26031 43.229 4.17031 43.179 4.16031 43.099C4.07009 42.7345 4.07009 42.3535 4.16031 41.989C4.23179 41.5725 4.33203 41.1615 4.46031 40.759L4.75031 39.759L5.38031 37.849L6.70031 34.109L6.83031 33.759C6.64031 33.639 5.57031 33.059 4.83031 32.609C4.14229 32.2165 3.48982 31.7648 2.88031 31.259C2.16852 30.6984 1.69949 29.8857 1.57031 28.989C1.57031 28.359 2.00031 28.559 2.43031 28.839C2.95828 29.1127 3.45175 29.4484 3.90031 29.839C4.49748 30.3529 5.14012 30.8114 5.82031 31.209L6.91031 31.879L8.78031 32.979L8.16031 34.709L7.80031 35.629L7.09031 37.469C6.75066 38.3362 6.45692 39.2208 6.21031 40.119C6.08031 40.569 5.96031 41.029 5.86031 41.469L5.78031 41.839C5.76995 41.9186 5.76995 41.9993 5.78031 42.079C5.78031 42.149 5.87031 42.129 5.91031 42.149C5.99332 42.1594 6.07731 42.1594 6.16031 42.149C6.31565 42.1303 6.46939 42.1002 6.62031 42.059C7.05329 41.9542 7.47781 41.8171 7.89031 41.649C8.74863 41.3067 9.58084 40.9023 10.3803 40.439C11.4736 39.824 12.5198 39.1287 13.5103 38.359C13.7703 38.159 13.9903 37.969 14.2503 37.749C14.5103 37.529 14.9403 37.109 15.2503 36.799L16.2503 37.799L16.9803 38.449C17.4603 38.869 17.9803 39.279 18.4603 39.669C19.613 40.5435 20.861 41.2849 22.1803 41.879C22.4603 42.019 22.7403 42.079 23.0203 42.199C23.3003 42.319 23.4903 42.329 23.6603 42.399C23.7996 42.4335 23.9366 42.4769 24.0703 42.529C24.2625 42.6227 24.4277 42.7638 24.5503 42.939C24.6203 43.029 24.7203 43.119 24.7803 43.209C24.8403 43.299 24.8303 43.519 24.5703 43.669C24.1881 43.8636 23.7533 43.9302 23.3303 43.859C21.8984 43.5602 20.5392 42.9825 19.3303 42.159C18.1241 41.3822 16.9776 40.5165 15.9003 39.569L15.2503 39.009L15.1603 39.089C14.8703 39.349 14.5603 39.579 14.2603 39.819C13.6503 40.289 13.0203 40.729 12.3803 41.149L12.3603 41.119Z" fill="#0F172A"/>
<path d="M39.3098 38.079L38.3098 40.159L37.8398 41.159L37.6198 41.679L37.5098 41.939V41.999C37.5098 42.109 37.3898 42.309 37.5698 42.299H37.7498H37.9998H38.3398C38.8144 42.2482 39.2853 42.1681 39.7498 42.059C40.7045 41.86 41.6436 41.5927 42.5598 41.259C43.3689 40.9777 44.1519 40.6264 44.8998 40.209C45.8998 39.649 46.7198 38.979 47.5898 38.409C47.8598 38.229 48.1398 38.539 48.1898 39.029C48.2165 39.3409 48.1614 39.6544 48.0298 39.9385C47.8983 40.2226 47.6949 40.4675 47.4398 40.649C45.4191 42.0153 43.1438 42.9608 40.7498 43.429L38.8698 43.799C38.5298 43.799 38.2298 43.909 37.8698 43.929C37.3718 43.9689 36.8707 43.942 36.3798 43.849L35.9998 43.659L35.8398 43.569C35.8398 43.469 35.7698 43.459 35.7498 43.399C35.4998 42.979 35.7498 42.319 35.9198 41.719C36.0398 41.359 36.0898 41.269 36.1698 41.059L36.4098 40.509C36.7198 39.779 37.0598 39.059 37.4098 38.349L38.6798 35.729L39.1198 34.849L39.3698 34.359L37.6898 33.359C36.6583 32.8206 35.6747 32.195 34.7498 31.489C34.5328 31.3104 34.332 31.113 34.1498 30.899C33.8711 30.5983 33.6959 30.2164 33.6498 29.809C33.6388 29.685 33.6665 29.5607 33.7292 29.4532C33.7919 29.3457 33.8865 29.2603 33.9998 29.209C34.0829 29.1418 34.1779 29.0909 34.2798 29.059C34.6198 28.999 34.8498 29.269 35.1398 29.619C35.752 30.253 36.4526 30.7953 37.2198 31.229C37.6298 31.489 38.0598 31.739 38.5098 31.989L40.0098 32.849L41.4898 33.669L39.3698 38.059L39.3098 38.079Z" fill="#FCEAD9"/>
<path d="M70.5907 33.5489C70.8107 33.6089 69.9307 33.0489 69.4307 32.6989C69.2207 32.5489 68.9907 32.4489 68.7907 32.2989C68.0649 31.7561 67.3767 31.1647 66.7307 30.5289C66.4407 30.2389 66.1207 29.9689 65.8307 29.6389C65.5919 29.4383 65.4033 29.1846 65.2801 28.8981C65.1568 28.6116 65.1022 28.3003 65.1207 27.9889C65.1207 27.7689 65.5807 27.8489 65.9907 27.9289C66.4007 28.0089 66.8007 28.0089 66.8607 28.1289C67.3107 28.82 67.8301 29.4633 68.4107 30.0489C68.8457 30.4596 69.3293 30.8156 69.8507 31.1089L70.6807 31.6689L71.1007 31.9589L71.3107 32.0889L71.6407 32.2989L72.4407 32.7889L72.5407 32.8489V32.9089L72.4407 33.1289L72.2407 33.5589L71.7407 34.6289C71.6107 34.9189 71.4807 35.2089 71.3707 35.4989C71.2218 35.972 71.0983 36.4527 71.0007 36.9389C71.0007 37.0389 71.0007 37.1489 70.9307 37.2489C70.8007 37.6289 70.6507 37.6989 70.2207 37.6189H69.9307C69.7844 37.5879 69.6542 37.5051 69.5641 37.3856C69.474 37.2662 69.4302 37.1182 69.4407 36.9689C69.5449 36.0627 69.7912 35.1785 70.1707 34.3489L70.3807 33.8789L70.4807 33.6489L70.5907 33.5489Z" fill="#0F172A"/>
</svg>
