<svg width="173" height="156" viewBox="0 0 173 156" fill="none" xmlns="http://www.w3.org/2000/svg">
<path d="M172.679 111.997C168.978 146.209 160.978 156 96.6437 156C32.3089 156 6 127.48 6 102.97C6 78.4602 43.424 76.0937 76.4174 71.7542C135.765 63.9483 177.078 71.348 172.679 111.997Z" fill="#DDE9D2"/>
<path d="M125.97 83.7768C127.888 87.4737 129.891 91.13 131.979 94.7456C132.759 96.0496 133.575 97.3293 134.416 98.6212C137.171 103.216 140.084 107.725 143.216 112.027C144.593 113.965 146.104 115.818 147.567 117.67C148.517 118.889 149.541 119.962 150.504 121.132C150.991 121.717 151.479 122.277 151.954 122.96C152.295 123.576 152.704 124.153 153.173 124.678C153.782 125.178 153.648 125.47 152.71 125.312C152.103 125.134 151.541 124.826 151.064 124.41L150.211 123.715C149.877 123.469 149.571 123.187 149.297 122.874C148.249 121.656 147.177 120.571 146.141 119.389C145.105 118.207 144.118 116.951 143.143 115.732C141.266 113.222 139.486 110.662 137.744 108.006C135.708 104.837 133.454 101.632 131.406 98.3653C129.188 94.709 127.043 91.0528 125.02 87.3965C123.801 85.1175 122.582 82.8018 121.364 80.4984C119.548 77.0006 117.854 73.4175 116.135 69.9075C114.898 67.2524 113.285 64.7896 111.345 62.595C110.984 62.2105 110.574 61.8746 110.127 61.5956C109.988 61.5278 109.836 61.4925 109.682 61.4925C109.528 61.4925 109.375 61.5278 109.237 61.5956L108.774 61.7297L108.164 61.8515C107.955 61.895 107.743 61.9275 107.531 61.949C107.214 61.949 107.043 61.6687 107.055 61.0959C107.066 60.9247 107.103 60.7563 107.165 60.5962C107.226 60.369 107.334 60.1572 107.482 59.9746C107.835 59.4139 108.389 59.0087 109.03 58.8412C109.581 58.7012 110.162 58.7267 110.699 58.9143C110.981 58.9945 111.251 59.1091 111.504 59.2556C111.725 59.3897 111.934 59.5447 112.125 59.7187C112.778 60.1855 113.371 60.7298 113.893 61.3397C114.856 62.4586 115.716 63.6619 116.464 64.935C117.208 66.1537 117.89 67.4822 118.512 68.774L120.34 72.5765C122.18 76.3425 123.996 80.1084 126.031 83.8012L125.97 83.7768Z" fill="#231F20"/>
<path d="M102.754 60.7912C102.312 59.8587 101.811 58.955 101.255 58.0856C101.047 57.7809 100.779 57.5128 100.56 57.1959L99.9384 56.3793C99.8101 56.1926 99.644 56.0348 99.4509 55.9162C98.9527 55.5418 98.4025 55.2421 97.8178 55.0265C97.3277 54.8445 96.8013 54.7818 96.2822 54.8437C96.0525 54.8761 95.8369 54.9733 95.6606 55.124C95.5215 55.283 95.4103 55.4643 95.3316 55.6603C95.2341 55.8187 94.7709 55.8553 94.3444 55.5871C94.0902 55.4361 93.8997 55.1979 93.8081 54.9168C93.7561 54.7288 93.75 54.5311 93.7903 54.3402C93.8306 54.1493 93.9161 53.9709 94.0397 53.82C94.2791 53.5188 94.5778 53.2699 94.9172 53.0887C95.2071 52.9473 95.5144 52.8448 95.8312 52.784C96.3636 52.6928 96.9076 52.6928 97.44 52.784C98.3637 52.9251 99.2503 53.2482 100.048 53.7346C100.609 54.034 101.132 54.398 101.608 54.8193C101.976 55.175 102.326 55.5492 102.656 55.9406C103.366 56.8105 104.018 57.7266 104.606 58.6828C104.972 59.2556 105.313 59.9015 105.654 60.45C106.166 61.364 106.581 62.3268 107.056 63.2409C107.434 63.96 107.921 64.6181 108.275 65.3371C108.36 65.4956 108.457 65.654 108.531 65.8246C108.762 66.4584 108.531 66.7387 107.885 67.0434L107.422 67.2506C107.203 67.3359 106.965 67.3606 106.733 67.322C106.502 67.2834 106.285 67.1829 106.105 67.0312C105.264 65.9858 104.578 64.8241 104.07 63.5821C103.619 62.6924 103.18 61.7662 102.693 60.8643L102.754 60.7912Z" fill="#231F20"/>
<path d="M93.381 56.8668C92.8319 55.6388 92.171 54.4638 91.4066 53.3568C91.1141 53.0034 90.7851 52.6378 90.4682 52.3209C90.2056 52.0156 89.9204 51.7304 89.6151 51.4678C89.3388 51.201 89.032 50.9678 88.701 50.7731C88.0488 50.3757 87.295 50.1767 86.5316 50.2003C85.8624 50.2277 85.2223 50.4812 84.7157 50.9193C84.1039 51.5515 83.6598 52.3265 83.4238 53.174C83.3141 53.4421 82.9241 53.4056 82.5829 53.0643C82.3463 52.8467 82.1786 52.5644 82.1007 52.2525C82.0227 51.9406 82.0378 51.6127 82.1441 51.3093C82.371 50.6379 82.7414 50.0241 83.2298 49.5105C83.7181 48.9969 84.3125 48.5959 84.9716 48.3356C86.2681 47.8736 87.6911 47.9171 88.9569 48.4575C90.3493 49.0253 91.5981 49.8953 92.6132 51.0046C93.6138 52.1487 94.4731 53.409 95.1726 54.7584C95.6113 55.5506 96.0135 56.3793 96.3913 57.1959C96.9641 58.4146 97.4638 59.7065 98.0244 60.9375C98.451 61.8881 99.0116 62.7656 99.4869 63.6918C99.5966 63.899 99.7185 64.0818 99.8038 64.289C100.145 65.069 100.084 65.3737 99.4504 65.8003C99.3222 65.9018 99.1878 65.9954 99.0482 66.0806C98.8038 66.2068 98.5206 66.2355 98.2559 66.1609C97.9911 66.0862 97.7646 65.9137 97.6223 65.6784C96.6082 64.1002 95.751 62.4266 95.0629 60.6815C94.5144 59.3896 93.966 58.11 93.3444 56.8912L93.381 56.8668Z" fill="#231F20"/>
<path d="M78.6337 67.7259L80.9738 71.7356L82.1925 73.7221L82.8872 74.8556C83.2528 75.4649 83.6428 76.0743 84.1059 76.6959C84.2766 77.0737 84.4716 77.4759 84.6056 77.8171V78.6093C84.5738 78.8972 84.4643 79.1711 84.2888 79.4015C84.0916 79.626 83.8512 79.8084 83.5819 79.9378C82.907 80.2137 82.1701 80.3021 81.4491 80.1937C81.0103 80.1937 80.5594 80.084 80.0963 79.9987C79.8647 79.9987 79.6453 79.9012 79.4138 79.8524L78.8166 79.7062C76.7569 79.1943 74.7825 78.5728 72.8203 77.9024C71.8575 77.5734 70.8337 77.1956 69.9197 76.8543C69.0056 76.5131 68.055 76.2328 67.0922 75.9646C65.2171 75.395 63.2966 74.9873 61.3519 74.7459C60.4665 74.6224 59.5682 74.6224 58.6828 74.7459C58.376 74.7921 58.0816 74.8999 57.8175 75.0628C57.7568 75.1004 57.7062 75.1522 57.6701 75.2138C57.634 75.2754 57.6135 75.3449 57.6103 75.4162C57.3909 76.7081 58.3538 78.2803 59.7066 79.5843C62.2745 81.9413 65.1481 83.9418 68.25 85.5318C71.4066 87.2259 74.6606 88.7128 78 90.4068C78.8953 90.8377 79.7482 91.3518 80.5472 91.9425C81.2645 92.5766 81.9441 93.2521 82.5825 93.9656L86.2388 97.9996C88.6047 100.622 91.1455 103.082 93.8438 105.361C95.0399 106.329 96.3301 107.174 97.695 107.884C98.3731 108.225 99.0687 108.53 99.7791 108.798C100.571 109.087 101.348 109.416 102.107 109.785C105.044 111.281 107.786 113.131 110.273 115.294C113.434 117.984 116.395 120.9 119.133 124.02C121.873 127.09 124.449 130.304 126.848 133.648C128.347 135.72 127.798 135.732 125.994 134.428C125.092 133.77 123.874 132.783 122.448 131.552C121.022 130.321 119.535 128.761 117.963 127.042C115.224 123.985 112.323 121.076 109.273 118.328C106.372 115.625 103.034 113.433 99.4012 111.845C98.6334 111.503 97.3172 111.065 96.3422 110.541C95.3334 110.021 94.3603 109.435 93.4294 108.786C91.642 107.507 89.9588 106.089 88.3959 104.544C85.3125 101.522 82.7409 98.0728 79.9744 95.0624C79.5939 94.6312 79.1869 94.2241 78.7556 93.8437C78.3098 93.5122 77.8368 93.2186 77.3419 92.9662C76.2694 92.3812 75.1238 91.8206 73.9781 91.2599C71.6869 90.1874 69.3347 89.0418 67.0312 87.8109C64.6691 86.5947 62.4001 85.2056 60.2428 83.6549C59.1274 82.8445 58.0946 81.9259 57.1594 80.9128C56.0991 79.8149 55.3467 78.4572 54.9778 76.9762C54.8898 76.5512 54.8449 76.1184 54.8438 75.6843C54.8438 75.4649 54.8438 75.2578 54.8438 75.0262C54.8976 74.7569 54.9835 74.495 55.0997 74.2462C55.3293 73.7543 55.6871 73.3333 56.1356 73.0274C56.5066 72.7633 56.9183 72.5616 57.3544 72.4303C58.8188 72.0761 60.3387 72.014 61.8272 72.2474C64.564 72.6114 67.2583 73.2441 69.8709 74.1365C72.4547 75.075 74.88 75.9281 77.4394 76.6593C78.0731 76.8421 78.6581 77.0128 79.3284 77.159C79.6209 77.2321 79.8891 77.2931 80.1816 77.3418C80.3235 77.3543 80.4662 77.3543 80.6081 77.3418C80.7422 77.3418 80.9616 77.3418 80.9738 77.1834C80.8602 76.9202 80.7171 76.6708 80.5472 76.4399L79.9256 75.4284C76.4522 69.4687 73.0153 63.3749 69.4688 57.2812C66.7088 52.6974 64.5386 47.7836 63.0094 42.6562C62.6072 41.3765 62.2416 40.0968 61.9247 38.8049C61.5624 37.491 61.3056 36.1501 61.1569 34.7953C60.9685 33.4123 60.9685 32.0101 61.1569 30.6271C61.2243 30.2476 61.3305 29.876 61.4737 29.5181C61.6423 29.0873 61.8998 28.697 62.2294 28.3724C62.5801 28.0686 63.0053 27.8633 63.4614 27.7777C63.9175 27.692 64.3882 27.729 64.8253 27.8849C65.9182 28.2505 66.914 28.8588 67.7381 29.6643C68.5174 30.4109 69.2272 31.2267 69.8587 32.1018C71.0553 33.7792 72.1461 35.5294 73.125 37.3424C75.0262 40.8159 77.2809 44.1674 79.4503 47.5434L82.3509 51.9796C86.0072 57.5737 86.8603 59.5237 86.9578 61.1203C86.9864 61.4772 86.9864 61.8358 86.9578 62.1928C86.775 63.0337 85.0322 60.974 82.3266 56.9156C80.3278 53.9296 78.2681 50.9071 76.2328 47.7993C75.2253 46.2556 74.2219 44.6834 73.2225 43.0828C72.2353 41.5228 71.2359 39.7799 70.3706 38.2078C69.5254 36.6158 68.5768 35.081 67.5309 33.6131C66.6878 32.3259 65.5244 31.2801 64.155 30.5784H63.9966C63.9013 30.8046 63.8357 31.0422 63.8016 31.2853C63.7374 31.664 63.7007 32.0469 63.6919 32.4309C63.6752 34.1705 63.8925 35.9045 64.3378 37.5862C65.6256 42.9556 67.57 48.1459 70.1269 53.0399L78.6581 67.7624L78.6337 67.7259Z" fill="#231F20"/>
<path d="M136.72 123.862C136.038 124.422 135.27 124.885 134.539 125.385C133.772 125.832 132.983 126.239 132.174 126.604C131.577 126.835 130.955 127.164 130.407 127.359C129.327 127.673 128.222 127.893 127.104 128.018C126.556 128.018 126.007 128.176 125.459 128.176H123.814C122.839 128.176 121.888 128.066 120.925 128.066C119.697 128.086 118.479 127.841 117.354 127.347C117.001 127.189 117.135 126.787 117.537 126.372C117.983 125.877 118.585 125.55 119.243 125.446L122.644 125.592C123.216 125.592 123.765 125.592 124.325 125.592C124.894 125.629 125.463 125.629 126.032 125.592C127.419 125.504 128.778 125.161 130.041 124.581C130.756 124.319 131.449 124.001 132.113 123.63C132.442 123.435 132.796 123.264 133.125 123.057L134.063 122.399C134.461 122.129 134.836 121.828 135.184 121.497C135.554 121.195 135.904 120.869 136.233 120.522C137.27 119.481 138.179 118.319 138.938 117.061C139.432 116.049 139.84 114.997 140.157 113.917C140.242 113.673 140.291 113.429 140.389 113.198C140.827 112.381 141.229 112.223 141.912 112.283H142.302C142.594 112.283 143.033 112.905 143.033 113.697C142.717 115.997 141.796 118.171 140.364 119.998C139.304 121.438 138.077 122.747 136.708 123.898L136.72 123.862Z" fill="#231F20"/>
<path d="M141.887 126.75C141.827 126.591 141.74 126.442 141.631 126.311C141.573 126.227 141.487 126.166 141.388 126.141C141.347 126.144 141.308 126.155 141.273 126.174C141.237 126.193 141.205 126.219 141.18 126.25C141.124 126.314 141.085 126.392 141.068 126.475C141.051 126.558 141.056 126.645 141.083 126.726C141.115 126.824 141.16 126.919 141.217 127.006L141.29 127.152V127.274V127.359L141.388 127.628C141.632 128.243 141.74 128.904 141.704 129.565C141.704 129.882 141.607 130.223 141.534 130.516C141.449 130.844 141.322 131.159 141.156 131.454C140.894 131.983 140.466 132.411 139.937 132.673C139.334 132.911 138.663 132.911 138.06 132.673C137.472 132.422 136.941 132.053 136.5 131.588C136.342 131.43 136.208 131.272 136.074 131.125L135.879 130.894C135.879 130.821 135.879 130.894 135.879 130.821L135.72 130.577L135.367 129.992C135.228 129.766 135.069 129.554 134.892 129.358C134.787 129.27 134.66 129.212 134.526 129.188C134.391 129.165 134.252 129.177 134.124 129.224C134.014 129.271 133.923 129.352 133.863 129.455C133.804 129.559 133.78 129.679 133.795 129.797C133.845 130.038 133.927 130.272 134.039 130.492L134.404 131.259L134.489 131.479L134.624 131.844C134.697 132.099 134.745 132.36 134.77 132.624C134.788 132.786 134.788 132.95 134.77 133.112C134.731 133.324 134.674 133.532 134.599 133.733C134.414 134.099 134.114 134.394 133.746 134.574C133.592 134.642 133.433 134.699 133.271 134.745H132.917C132.659 134.781 132.396 134.781 132.137 134.745C131.889 134.692 131.648 134.61 131.418 134.501C130.755 134.136 130.161 133.658 129.663 133.087C129.176 132.588 128.871 132.173 128.444 131.771C128.299 131.603 128.131 131.455 127.945 131.333C127.86 131.272 127.755 131.246 127.652 131.259C127.53 131.259 127.469 131.43 127.409 131.515C127.306 131.927 127.362 132.362 127.567 132.734L128.054 133.794C128.075 133.84 128.086 133.89 128.086 133.941C128.086 133.991 128.075 134.041 128.054 134.087C128.053 134.141 128.036 134.194 128.005 134.239C127.975 134.284 127.933 134.32 127.884 134.343C127.664 134.343 127.396 134.343 126.763 134.002C125.804 133.349 124.977 132.522 124.325 131.564C123.965 131.058 123.685 130.499 123.496 129.907C123.371 129.467 123.346 129.004 123.423 128.554C123.572 127.907 123.887 127.311 124.337 126.823C124.501 126.672 124.676 126.533 124.861 126.409C125.049 126.303 125.25 126.221 125.459 126.165C125.752 126.101 126.055 126.101 126.348 126.165C127.117 126.302 127.822 126.683 128.359 127.25C129.311 128.212 130.21 129.225 131.053 130.284L131.723 131.003L132.052 131.345C132.209 131.486 132.376 131.617 132.552 131.735C132.552 131.796 132.661 131.613 132.552 132.088C132.552 132.234 132.552 132.393 132.479 132.454V132.551C132.479 133.295 132.479 131.54 132.479 131.723C132.498 131.863 132.531 132.002 132.576 132.137C132.591 132.25 132.591 132.365 132.576 132.478C132.576 132.551 132.576 132.637 132.661 132.722C132.706 132.805 132.759 132.882 132.82 132.953C132.82 132.953 132.734 132.893 132.698 132.893C132.642 132.881 132.584 132.881 132.527 132.893H132.442H132.235C131.984 132.874 131.732 132.903 131.491 132.978C131.491 132.978 131.491 132.905 131.491 132.795C131.38 132.497 131.245 132.207 131.089 131.93L130.602 131.003C129.999 130.016 129.586 128.925 129.383 127.786C129.309 127.124 129.383 126.453 129.602 125.824C129.801 125.31 130.123 124.854 130.541 124.495C130.995 124.103 131.554 123.853 132.149 123.776C132.648 123.71 133.155 123.786 133.612 123.996C134.042 124.192 134.451 124.433 134.831 124.715C135.963 125.795 136.984 126.988 137.878 128.273L138.28 128.749L138.499 128.98C138.645 129.127 138.792 129.285 138.914 129.383C138.992 129.452 139.078 129.513 139.169 129.565C139.069 129.792 138.996 130.029 138.95 130.272C138.95 130.431 138.95 130.492 138.95 130.418L138.816 130.26C138.72 130.168 138.619 130.082 138.511 130.004L138.292 129.87C138.333 129.746 138.366 129.62 138.389 129.492C138.408 129.383 138.408 129.272 138.389 129.163C138.403 129.103 138.403 129.04 138.389 128.98V128.871L138.243 128.639C137.769 127.928 137.334 127.191 136.939 126.433C136.656 125.819 136.467 125.166 136.379 124.495C136.226 123.225 136.496 121.94 137.146 120.839C137.296 120.563 137.502 120.323 137.752 120.133C138.003 119.944 138.291 119.811 138.597 119.742C139.137 119.708 139.676 119.835 140.144 120.108C140.8 120.479 141.392 120.952 141.899 121.509C142.555 122.233 143.158 123.003 143.703 123.813L144.556 125.032C144.812 125.385 144.959 125.58 145.154 125.824C145.223 125.923 145.301 126.017 145.385 126.104C145.385 126.007 145.214 126.287 145.117 126.482C145.021 126.598 144.954 126.736 144.922 126.884C144.922 126.884 144.922 126.884 144.922 126.957C144.886 126.948 144.848 126.948 144.812 126.957C144.687 126.941 144.56 126.941 144.434 126.957C144.357 126.953 144.28 126.953 144.203 126.957H143.971L143.849 126.64C143.618 126.128 143.277 125.543 142.948 124.971L141.729 122.96C140.792 121.493 140.077 119.895 139.608 118.219C139.431 117.584 139.394 116.919 139.499 116.269C139.572 115.896 139.741 115.549 139.989 115.26C140.237 114.972 140.555 114.753 140.912 114.623C141.31 114.506 141.733 114.506 142.131 114.623C142.417 114.708 142.686 114.844 142.923 115.026C143.651 115.388 144.334 115.834 144.959 116.354C145.787 117.134 146.653 117.987 147.554 118.792C148.079 119.255 148.322 119.45 148.615 119.693L149.504 120.425L151.089 121.643C153.051 123.191 153.526 123.788 153.417 124.873C153.429 125.121 153.429 125.369 153.417 125.617C153.295 126.36 151.918 126.323 150.26 125.263C148.054 123.947 144.678 120.985 145.385 121.826C145.3 121.826 145.385 122.058 145.385 122.033L145.544 122.326L146.36 123.825C146.686 124.419 146.971 125.033 147.213 125.665L147.323 126.043C147.373 126.231 147.41 126.423 147.433 126.616C147.445 126.786 147.445 126.957 147.433 127.128V127.262C147.433 127.347 147.433 127.432 147.433 127.518C147.433 127.603 147.323 127.847 147.262 128.005C147.061 128.423 146.749 128.777 146.36 129.029C145.858 129.339 145.26 129.456 144.678 129.358C144.41 129.308 144.151 129.218 143.91 129.09C143.832 129.055 143.758 129.01 143.691 128.956L143.545 128.858C143.409 128.751 143.279 128.638 143.155 128.517C143.007 128.363 142.869 128.2 142.74 128.03C142.509 127.737 142.35 127.506 142.18 127.25L142.034 127.042V126.957L141.887 126.75Z" fill="#231F20"/>
<path d="M10.6035 51.1875L9.92101 51.4069C9.56501 51.5142 9.20277 51.5997 8.83632 51.6628C8.45851 51.6628 8.08069 51.6628 7.69069 51.7481C7.3424 51.739 6.99565 51.6982 6.65476 51.6262C6.49523 51.5533 6.34405 51.4634 6.20382 51.3581L5.98444 51.1875L6.09413 51.09L5.99663 51.0047C5.71632 50.7975 5.72851 50.4197 5.70413 50.0297C5.72908 49.5893 5.81522 49.1545 5.96007 48.7378C5.98951 48.4835 6.03428 48.2311 6.09413 47.9822L6.27694 47.4337C6.64257 46.4344 7.04476 45.4837 7.49569 44.5209L8.71444 41.6812L9.26288 40.2187L9.45788 39.8287L9.23851 39.6947L8.37319 39.1828C7.45913 38.6344 6.53288 38.0737 5.63101 37.44C5.18007 37.1109 4.72913 36.7819 4.29038 36.3919C4.06847 36.2087 3.85689 36.0134 3.65663 35.8069C3.54502 35.6946 3.43925 35.5766 3.33976 35.4534C3.21916 35.3071 3.10919 35.1523 3.01069 34.9903C2.61071 34.4005 2.37512 33.7148 2.32819 33.0037C2.34681 32.6886 2.44311 32.3829 2.60851 32.114C2.81906 31.8595 3.08062 31.6519 3.37632 31.5047C3.68668 31.3376 4.01339 31.2028 4.35132 31.1025L4.60726 31.0172H4.76569L5.09476 30.9319C5.96007 30.7003 6.80101 30.5419 7.64194 30.3834C8.48288 30.225 9.33601 30.0909 10.1769 29.969L11.3957 29.7862L12.1513 29.6887C12.2017 29.6259 12.2427 29.5561 12.2732 29.4815L12.5413 28.9819L13.1629 27.7631C13.5894 26.9587 14.016 26.1665 14.4669 25.3256C14.9179 24.4847 15.3688 23.7412 15.8685 22.9612C16.1123 22.5712 16.3682 22.1812 16.6363 21.7425L17.0629 21.1697C17.2213 20.9869 17.3432 20.804 17.6113 20.5359C17.988 20.0738 18.5062 19.7483 19.086 19.6097C19.3771 19.5865 19.6669 19.6687 19.9026 19.8412C20.1603 19.9937 20.3977 20.1779 20.6094 20.3897C20.9628 20.7309 21.2812 21.1065 21.5601 21.5109C21.8282 21.8644 22.0598 22.2178 22.2913 22.5712C23.1782 23.9786 23.9917 25.4309 24.7288 26.9222C25.2163 27.8606 25.6794 28.8112 26.1304 29.774L26.4229 30.4078C26.4229 30.4931 26.4838 30.6394 26.5813 30.6759L27.7026 30.8587C29.7623 31.2122 31.8219 31.6144 33.7963 32.0775C36.3435 32.6869 32.6873 34.259 27.9463 33.4181L26.3619 33.1256L24.9116 32.9062C24.6472 32.4513 24.423 31.9742 24.2413 31.4803C23.7782 30.3956 23.3882 29.5425 22.9251 28.5675C22.0514 26.7055 21.058 24.902 19.9513 23.1684L19.5004 22.6444L19.281 22.3762C19.281 22.3762 19.281 22.2909 19.1957 22.3153C19.1104 22.3397 19.2566 22.1812 18.8423 22.6931C18.4279 23.205 18.2573 23.4853 17.9648 23.9119C16.8435 25.6181 15.7954 27.4828 14.7716 29.3475L14.3085 30.2128L13.9673 30.8709C13.8332 31.1269 13.6991 31.3706 13.5529 31.6144L11.7491 31.8459L10.5304 32.0287C9.70163 32.1506 8.88507 32.2969 8.09288 32.4553C7.30069 32.6137 6.47194 32.7965 5.65538 33.0037L5.16788 33.15L4.96069 33.2231C4.85101 33.2231 4.66819 33.3572 4.74132 33.5034C4.76941 33.5964 4.8149 33.6833 4.87538 33.7594L4.96069 33.8812L5.16788 34.1372C5.5388 34.5439 5.94681 34.9152 6.38663 35.2462C7.16417 35.8596 7.97817 36.4253 8.82413 36.9403L10.1648 37.7812L12.2976 39L10.7863 42.2906L9.67726 44.8256C9.31163 45.6787 8.97038 46.5319 8.62913 47.3728L8.21476 48.4819C8.21476 48.6647 8.08069 48.8719 8.03194 49.079C7.98319 49.2862 8.03194 49.274 8.03194 49.3228H8.28788C8.46582 49.3469 8.64619 49.3469 8.82413 49.3228H9.10444C9.28187 49.2795 9.45681 49.2266 9.62851 49.1644C10.3448 48.9158 11.045 48.6227 11.7248 48.2869C13.1132 47.5768 14.4455 46.7619 15.7101 45.8494C17.0668 44.9236 18.3355 43.8751 19.5004 42.7172C20.0123 43.2169 20.5851 43.7531 21.0726 44.1919L22.1694 45.1547C22.9129 45.8006 23.6807 46.3734 24.4607 46.9828C25.242 47.5686 26.0558 48.1098 26.8982 48.6037C27.3004 48.8597 27.7269 49.0547 28.1169 49.274L28.7507 49.5544C28.9338 49.6297 29.121 49.6948 29.3113 49.7494C29.5855 49.8422 29.8764 49.8754 30.1644 49.8469C30.2863 49.8469 30.4935 49.8469 30.4813 49.664C30.479 49.5159 30.4585 49.3685 30.4204 49.2253L30.3107 48.8231L30.1157 48.2869C29.9573 47.8115 29.7744 47.3362 29.5916 46.8609C29.2138 45.9225 28.8238 44.984 28.3729 44.0456L26.9591 40.755C26.7154 40.17 26.4473 39.5362 26.2279 38.9512L28.6654 38.5612L30.981 38.1347L32.3826 37.9153C32.9635 37.8045 33.563 37.8422 34.1254 38.025C34.332 38.0735 34.5355 38.1346 34.7348 38.2078C35.0029 38.3175 34.8566 38.6831 34.2838 39.0853C33.4322 39.6079 32.5022 39.9906 31.5294 40.2187L29.7866 40.6453L29.4454 40.7794C29.4454 40.8525 29.5429 40.9256 29.5794 40.9865L29.6404 41.0719C29.6437 41.0961 29.6437 41.1207 29.6404 41.145L29.7623 41.4131L30.7129 43.6069C31.0298 44.3381 31.3344 45.0815 31.6269 45.8494L32.0657 47.0681L32.2729 47.6653L32.3704 47.97L32.5166 48.4697C32.9919 49.9931 33.0894 51.5775 31.7244 51.9675L31.2979 52.1503C31.1275 52.163 30.9564 52.163 30.786 52.1503C30.4249 52.1747 30.0625 52.1747 29.7013 52.1503C29.2858 52.1033 28.8769 52.0093 28.4826 51.87C28.2528 51.8075 28.0285 51.7259 27.8123 51.6262C26.1994 50.9216 24.6772 50.0255 23.2785 48.9572C22.4132 48.3234 21.5844 47.7384 20.7801 46.995L19.5613 45.959L19.5004 45.8372C19.1348 46.1662 18.7448 46.4587 18.3548 46.7756C17.5748 47.3728 16.7826 47.9944 15.9173 48.4697C14.2574 49.5639 12.484 50.4752 10.6279 51.1875H10.6035Z" fill="#231F20"/>
<path d="M110.212 47.0803L110.48 48.0309C110.618 48.482 110.724 48.9422 110.797 49.4081C110.892 49.7715 110.902 50.152 110.826 50.5198C110.75 50.8877 110.59 51.233 110.358 51.5287C110.052 51.7145 109.725 51.8619 109.383 51.9675C108.977 51.9929 108.57 51.9929 108.164 51.9675C107.753 51.8994 107.346 51.8058 106.946 51.6872C106.573 51.6046 106.212 51.4734 105.873 51.2972C105.13 50.976 104.412 50.597 103.728 50.1637C102.604 49.3904 101.525 48.5521 100.499 47.6531C99.9623 47.2387 99.4504 46.7919 98.9629 46.3125L98.2316 45.63L98.0001 45.3862L97.8294 45.2156C97.7464 45.1163 97.6568 45.0227 97.5613 44.9353L97.086 45.3862L96.6229 45.8006L96.0988 46.2515C94.9858 47.3144 93.6999 48.1799 92.2963 48.8109C91.3944 49.1278 91.236 46.4587 92.5401 45.569C93.2226 45.0937 93.8807 44.6062 94.5388 44.1065L95.0141 43.7409C95.1969 43.5947 95.2579 43.5581 95.6601 43.2047L97.5004 41.4375L99.9379 43.875L101.279 45.2522C102.595 46.5212 104.07 47.6149 105.666 48.5062C106.059 48.7465 106.466 48.9623 106.885 49.1522L107.214 49.3106C107.305 49.3463 107.399 49.3748 107.494 49.3959C107.603 49.4146 107.714 49.4146 107.823 49.3959C107.909 49.3959 108.091 49.3959 108.104 49.3106C108.139 49.1049 108.139 48.8947 108.104 48.689V48.4819C108.104 48.3965 108.104 48.3722 108.018 48.1894L107.75 47.2997C107.567 46.7025 107.36 46.0809 107.153 45.5203L106.166 42.8269L104.776 39.3412C104.776 39.3412 104.691 39.1828 104.715 39.134C105.703 38.9756 106.714 38.7928 107.726 38.549C108.396 38.3662 109.054 38.159 109.712 37.964L110.59 37.6594C111.674 37.3059 111.967 37.3425 112.467 37.8422C112.576 37.964 112.723 38.0615 112.832 38.1834C113.222 38.549 112.832 39.2681 111.979 39.7069C111.044 40.1554 110.069 40.5145 109.066 40.7794L108.311 40.9744H108.14C108.908 42.8634 109.651 44.8256 110.309 46.8609L110.212 47.0803Z" fill="#231F20"/>
<path d="M87.6163 29.6522L89.1641 29.445L89.8954 29.3475H90.0416L90.1148 29.2622L90.4438 28.6284L91.1873 27.2512C91.6748 26.325 92.1866 25.4109 92.7229 24.509C93.2833 23.4794 93.9018 22.4825 94.5754 21.5231C94.7338 21.3037 94.9166 21.0722 95.0994 20.8528C95.2823 20.6334 95.3188 20.5969 95.4773 20.4384C95.6276 20.2755 95.7906 20.1247 95.9648 19.9875C96.2689 19.7083 96.6443 19.5185 97.0494 19.439C97.4442 19.3823 97.8463 19.4688 98.1829 19.6828C98.4266 19.8656 98.646 20.085 98.8776 20.28C99.0749 20.4652 99.2582 20.6648 99.426 20.8772C99.6819 21.2062 99.9013 21.5353 100.121 21.8522C100.547 22.5103 100.925 23.1684 101.279 23.8265C101.998 25.155 102.644 26.5078 103.265 27.8606L104.362 30.2981L104.533 30.6881V30.8344C104.533 30.8344 104.63 30.8344 104.679 30.8344L105.69 30.9928C107.933 31.2519 110.156 31.659 112.345 32.2115C113.698 32.6137 111.553 34.454 108.993 34.0153L105.593 33.3937L103.302 32.955L102.948 32.9062C102.879 32.782 102.822 32.6514 102.778 32.5162L102.449 31.724L102.059 30.7612C101.193 28.6894 100.279 26.5931 99.2798 24.5822C98.9884 24.0027 98.6628 23.4411 98.3048 22.9003C98.1348 22.6433 97.9517 22.3951 97.7563 22.1569C97.6785 22.0754 97.5928 22.0019 97.5004 21.9375C97.4799 21.9161 97.4553 21.8991 97.4281 21.8875C97.4009 21.8758 97.3716 21.8698 97.3419 21.8698C97.3123 21.8698 97.283 21.8758 97.2558 21.8875C97.2286 21.8991 97.204 21.9161 97.1835 21.9375C97.0794 22.0108 96.9887 22.1015 96.9154 22.2056C96.481 22.7453 96.0742 23.3066 95.6966 23.8875C94.9776 25.0087 94.2951 26.2031 93.6369 27.3975L91.4676 31.4437L89.9685 31.6387C88.0916 31.8947 86.1904 32.175 84.3623 32.5772L83.3385 32.8453C83.1267 32.8995 82.9189 32.9687 82.7169 33.0525C82.5341 33.1134 82.3269 33.2475 82.4123 33.4669C82.437 33.6672 82.5079 33.8592 82.6194 34.0275C82.7682 34.2663 82.9441 34.4871 83.1435 34.6856C83.3738 34.9315 83.6223 35.1597 83.8869 35.3681C84.4211 35.8152 84.9873 36.2226 85.581 36.5869C86.0441 36.8915 86.5194 37.1597 87.0069 37.4278L88.5791 38.2444L89.7248 38.8294L90.0051 38.9878L90.1879 39C90.1879 39 90.1879 39.0975 90.1879 39.1462L89.9563 39.7312L89.1885 41.7544C89.0179 42.2175 88.8716 42.6684 88.6888 43.1194C88.0063 44.8012 87.6407 45.2765 86.9216 45.4106C86.7614 45.4508 86.5985 45.4794 86.4341 45.4959C85.9344 45.4959 85.8613 44.655 86.2635 43.3631C86.5682 42.4003 86.8851 41.4375 87.2263 40.4747L87.3604 40.1212V40.0115C87.3604 40.0115 87.2507 40.0115 87.2263 40.0115H87.141L86.9582 39.914L86.5316 39.6703L85.8369 39.2803C85.3616 39.0122 84.8985 38.744 84.4354 38.4515C83.4367 37.8543 82.5051 37.1515 81.6566 36.3553C81.4982 36.1847 81.3276 36.0262 81.1691 35.8312L80.9254 35.5265C80.8155 35.3778 80.7138 35.2232 80.6207 35.0634C80.2155 34.447 79.9917 33.729 79.9748 32.9915V32.4919C80.0723 32.3578 80.0723 32.1628 80.1698 32.0287C80.354 31.7468 80.5947 31.5061 80.8766 31.3219C81.2036 31.1343 81.5461 30.9753 81.9004 30.8465L82.4123 30.6637L82.7413 30.5784C84.312 30.1719 85.9025 29.8464 87.5066 29.6034L87.6163 29.6522Z" fill="#231F20"/>
<path d="M44.7535 34.2224L44.5097 34.2956H44.3878C44.3878 34.2956 44.2781 34.2956 44.2903 34.3809C44.2791 34.4166 44.2791 34.4549 44.2903 34.4906V34.5637L44.5097 34.844C44.8839 35.2586 45.2915 35.6418 45.7285 35.9896C46.7126 36.7469 47.7423 37.4429 48.8119 38.0737L49.275 38.3418L49.9575 38.7318L51.6516 39.6702L50.5913 42.0102C49.6894 43.9481 48.7875 45.8981 47.9588 47.8602L47.5322 49.2374C47.4385 49.4465 47.3611 49.6624 47.3006 49.8834C47.2888 49.9437 47.2888 50.0058 47.3006 50.0662C47.3006 50.1271 47.3981 50.0662 47.4469 50.1271C47.5558 50.1458 47.6671 50.1458 47.776 50.1271C47.8937 50.1331 48.0117 50.1331 48.1294 50.1271L48.6413 50.0052C50.3882 49.4165 52.0609 48.6272 53.626 47.6531C55.6613 46.4343 57.5991 44.9596 59.4638 43.5824C60.0244 43.1559 60.4022 43.5824 60.3169 44.4721C60.2143 45.0726 59.9921 45.6464 59.6634 46.1594C59.3347 46.6723 58.9062 47.114 58.4035 47.4581C56.3014 48.9763 54.0418 50.2634 51.6638 51.2971C51.0544 51.5409 50.445 51.7846 49.7869 51.9918C49.6285 51.9918 49.47 52.1015 49.2994 52.1381L48.69 52.2965C48.1365 52.4166 47.5739 52.49 47.0081 52.5159C46.7724 52.5145 46.5382 52.4775 46.3135 52.4062C46.0819 52.4062 45.8016 52.4062 45.6675 52.2112L45.3994 52.0406L45.2775 51.9552C45.2044 51.9552 45.3628 51.8699 45.2775 51.8821H45.2166C45.1374 51.8221 45.0708 51.7471 45.0206 51.6614C44.9704 51.5757 44.9376 51.4809 44.9241 51.3824C44.8886 50.3607 45.1107 49.3464 45.57 48.4331L47.386 44.1552L48.3 42.0224L48.7144 41.0718L48.885 40.7184L48.5316 40.5112L47.5322 39.8531C46.8131 39.4143 46.1063 38.9512 45.3994 38.4637C44.6778 37.9613 43.9935 37.4074 43.3519 36.8062C42.9898 36.4404 42.6746 36.031 42.4135 35.5874C42.065 35.077 41.8551 34.4849 41.8041 33.869V33.674C41.8041 32.8818 42.645 32.5406 43.3641 32.2602L43.8881 32.0896L44.2903 31.9799L45.0703 31.7971C46.1185 31.5534 47.1544 31.3706 48.1781 31.1999L50.055 30.9074L51.5906 30.7002L52.9191 28.5552L54.4669 26.1177C55.1372 25.0818 55.7953 24.0581 56.5266 23.0587C56.7094 22.8149 56.9044 22.559 57.1116 22.3152L57.4406 21.9252C57.5991 21.7546 57.7697 21.6084 57.9403 21.4377C58.2659 21.1359 58.6524 20.9073 59.0738 20.7674C59.2726 20.708 59.4833 20.7003 59.6859 20.7451C59.8885 20.7899 60.0763 20.8857 60.2316 21.0234C60.5344 21.3037 60.808 21.614 61.0481 21.9496L61.5966 22.6321C62.8153 24.1921 63.0347 24.7771 62.8153 25.4962C62.7735 25.662 62.7205 25.8249 62.6569 25.9837C62.401 26.4346 61.621 25.9837 60.6338 24.9356L59.5613 23.7168C59.3175 23.4365 59.3419 23.4974 59.2931 23.4609C59.2444 23.4243 59.22 23.4609 59.1835 23.4609C59.1469 23.4609 59.0616 23.5827 59.0372 23.6315L58.9275 23.7656L58.6838 24.0459L58.2085 24.6674C56.9897 26.3615 55.771 28.2627 54.5522 30.164L52.9678 32.7965L50.3231 33.1743L48.4219 33.479C47.1909 33.6725 45.9705 33.9287 44.7656 34.2468L44.7535 34.2224Z" fill="#231F20"/>
<path d="M15.0641 49.859C13.9536 50.5577 12.8018 51.1885 11.6151 51.7481C11.0179 52.0162 10.3963 52.2844 9.77476 52.5037C9.44569 52.6134 9.12882 52.7231 8.78757 52.8084L8.27569 52.9425C8.09288 52.9425 7.98319 52.9425 7.65413 53.0522C7.07187 53.1322 6.4814 53.1322 5.89913 53.0522L5.37507 52.7719C5.37507 52.65 5.37507 52.6865 5.30194 52.6256L5.19226 52.5159C5.19226 52.4306 5.08257 52.3697 5.07038 52.2722C4.96043 51.8279 4.96043 51.3636 5.07038 50.9194C5.1575 50.4118 5.27967 49.9109 5.43601 49.4203L5.78944 48.2015L6.55726 45.8737L8.16601 41.3156L8.32444 40.889C8.09288 40.7428 6.78882 40.0359 5.88694 39.4875C5.04842 39.0092 4.25322 38.4587 3.51038 37.8422C2.64288 37.159 2.07126 36.1685 1.91382 35.0756C1.91382 34.3078 2.43788 34.5515 2.96194 34.8928C3.6054 35.2265 4.20682 35.6356 4.75351 36.1115C5.4813 36.7379 6.26452 37.2967 7.09351 37.7812L8.42194 38.5978L10.701 39.9384L9.94538 42.0469L9.50663 43.1681L8.64132 45.4106C8.22737 46.4676 7.86938 47.5457 7.56882 48.6403C7.41038 49.1887 7.26413 49.7494 7.14226 50.2856L7.04476 50.7365C7.03212 50.8336 7.03212 50.932 7.04476 51.029C7.04476 51.1144 7.15444 51.09 7.20319 51.1144C7.30436 51.1271 7.40672 51.1271 7.50788 51.1144C7.69719 51.0916 7.88457 51.0549 8.06851 51.0047C8.5962 50.877 9.11358 50.71 9.61632 50.505C10.6624 50.0879 11.6766 49.595 12.651 49.0303C13.9835 48.2808 15.2586 47.4334 16.4657 46.4953C16.7826 46.2515 17.0507 46.02 17.3676 45.7519C17.6844 45.4837 18.2085 44.9719 18.5863 44.594L19.8051 45.8128L20.6948 46.605C21.2798 47.1169 21.9135 47.6165 22.4985 48.0919C23.9034 49.1577 25.4243 50.0613 27.0323 50.7853C27.3735 50.9559 27.7148 51.029 28.056 51.1753C28.3973 51.3215 28.6288 51.3337 28.836 51.419C29.0058 51.4612 29.1727 51.5141 29.3357 51.5775C29.5699 51.6917 29.7713 51.8637 29.9207 52.0772C30.006 52.1869 30.1279 52.2965 30.201 52.4062C30.2741 52.5159 30.2619 52.784 29.9451 52.9669C29.4792 53.2041 28.9494 53.2853 28.4338 53.1984C26.6886 52.8343 25.0322 52.1303 23.5588 51.1265C22.0887 50.1799 20.6914 49.1248 19.3785 47.97L18.5863 47.2875L18.4766 47.385C18.1232 47.7019 17.7454 47.9822 17.3798 48.2747C16.6363 48.8475 15.8685 49.3837 15.0885 49.8956L15.0641 49.859Z" fill="#231F20"/>
<path d="M47.9089 46.1541L46.6901 48.6891L46.1173 49.9078L45.8492 50.5416L45.7151 50.8585V50.9316C45.7151 51.0657 45.5689 51.3094 45.7883 51.2972H46.0076H46.3123H46.7267C47.305 51.2353 47.8789 51.1377 48.4451 51.0047C49.6086 50.7623 50.7531 50.4364 51.8698 50.0297C52.8559 49.6869 53.8101 49.2588 54.7217 48.75C55.9404 48.0675 56.9398 47.251 58.0001 46.5563C58.3292 46.3369 58.6704 46.7147 58.7314 47.3119C58.7639 47.6921 58.6967 48.0741 58.5364 48.4204C58.3761 48.7666 58.1282 49.0651 57.8173 49.2863C55.3545 50.9515 52.5816 52.1038 49.6639 52.6744L47.3726 53.1253C46.9583 53.1253 46.5926 53.2594 46.1539 53.2838C45.5469 53.3324 44.9362 53.2996 44.3379 53.1863L43.8748 52.9547L43.6798 52.845C43.6798 52.7232 43.5945 52.711 43.5701 52.6378C43.2654 52.126 43.5701 51.3216 43.7773 50.5903C43.9236 50.1516 43.9845 50.0419 44.082 49.786L44.3745 49.1157C44.7523 48.226 45.1667 47.3485 45.5933 46.4832L47.1411 43.29L47.6773 42.2175L47.982 41.6203L45.9345 40.4016C44.6773 39.7455 43.4786 38.983 42.3514 38.1225C42.0868 37.905 41.8421 37.6643 41.6201 37.4035C41.2804 37.0371 41.0668 36.5715 41.0108 36.075C40.9972 35.924 41.031 35.7724 41.1075 35.6414C41.1839 35.5104 41.2992 35.4064 41.4373 35.3438C41.5386 35.2619 41.6543 35.1999 41.7786 35.161C42.1929 35.0878 42.4733 35.4169 42.8267 35.8435C43.5728 36.6162 44.4266 37.2771 45.3617 37.8057C45.8614 38.1225 46.3854 38.4272 46.9339 38.7319L48.762 39.78L50.5658 40.7794L47.982 46.1297L47.9089 46.1541Z" fill="#231F20"/>
<path d="M86.0324 40.6331C86.3005 40.7062 85.2281 40.0237 84.6187 39.5971C84.3627 39.4143 84.0824 39.2924 83.8387 39.1096C82.9541 38.448 82.1153 37.7273 81.3281 36.9524C80.9746 36.599 80.5846 36.2699 80.2312 35.8677C79.9401 35.6232 79.7103 35.3141 79.5601 34.9649C79.4098 34.6157 79.3433 34.2363 79.3659 33.8568C79.3659 33.5887 79.9265 33.6862 80.4262 33.7837C80.9259 33.8812 81.4134 33.8812 81.4865 34.0274C82.0349 34.8697 82.6679 35.6537 83.3756 36.3674C83.9057 36.868 84.4951 37.3018 85.1305 37.6593L86.1421 38.3418L86.654 38.6952L86.9099 38.8537L87.3121 39.1096L88.2871 39.7068L88.409 39.7799V39.8531L88.2871 40.1212L88.0434 40.6452L87.434 41.9493C87.2755 42.3027 87.1171 42.6562 86.9831 43.0096C86.8016 43.5862 86.6511 44.172 86.5321 44.7646C86.5321 44.8865 86.5321 45.0206 86.4468 45.1424C86.2884 45.6056 86.1056 45.6909 85.5815 45.5934H85.2281C85.0497 45.5556 84.891 45.4546 84.7812 45.309C84.6715 45.1634 84.6181 44.9831 84.6309 44.8012C84.7578 43.6967 85.058 42.6191 85.5205 41.6081L85.7765 41.0352L85.8984 40.7549L86.0324 40.6331Z" fill="#231F20"/>
</svg>
