<svg width="209" height="182" viewBox="0 0 209 182" fill="none" xmlns="http://www.w3.org/2000/svg">
<path d="M208.626 130.663C204.304 170.577 194.964 182 119.847 182C44.7295 182 14.0112 148.727 14.0112 120.132C14.0112 91.5369 57.7074 88.776 96.2304 83.7132C165.525 74.6063 213.761 83.2394 208.626 130.663Z" fill="#FCEAD9"/>
<path d="M170.397 113.966C165.813 111.449 160.644 110.188 155.415 110.312C154.798 105.264 154.12 100.211 153.11 95.2144C173.248 88.5316 172.654 66.6831 158.48 53.9004C156.255 51.7847 149.905 44.5047 146.863 47.4963C146.572 47.3738 146.26 47.31 145.944 47.3086C144.595 38.9764 150.492 27.1692 140.272 22.2893C136.02 20.2589 130.732 20.3897 126.141 20.0285C107.679 18.6351 89.1429 18.2 70.6353 18.5612C64.5448 18.6882 58.4543 18.9109 52.3638 19.2294C47.2922 19.4967 41.438 19.11 36.5855 20.8049C26.6472 24.2742 29.5814 35.7971 30.4096 44.4251C20.6905 51.9439 1.86121 76.0021 7.33126 88.7506C10.274 96.0476 18.6812 99.8497 26.2231 99.5028C25.9519 99.7724 25.795 100.136 25.7849 100.518C25.333 110.193 24.9999 119.873 24.7859 129.556C24.0545 142.984 21.6297 162.097 40.0064 163.445C52.2187 164.087 64.6046 161.818 76.8709 162.506C76.4308 162.121 76.0163 161.708 75.63 161.269C82.9557 163.288 90.8762 162.876 98.4266 162.981C112.551 163.578 117.91 160.041 119.484 145.637C120.301 135.562 127.243 121.223 117.185 113.966C112.196 110.619 105.032 110.377 99.2463 110.201C92.2017 110.058 85.157 110.48 78.1801 111.464C74.6425 111.927 74.3892 117.373 78.1801 117.197C80.1694 117.103 82.1702 116.978 84.1738 116.853C78.7863 129.533 89.1572 133.534 100.032 131.398C101.525 131.08 102.939 130.461 104.186 129.58C105.432 128.698 106.487 127.573 107.285 126.272C108.083 124.97 108.607 123.521 108.827 122.01C109.046 120.5 108.956 118.961 108.561 117.487C112.682 118.34 116.058 120.009 116.055 124.698C115.736 129.592 115.022 134.451 113.92 139.23C113.572 143.781 112.656 148.271 111.194 152.596C109.335 156.708 104.674 156.5 100.777 156.742C95.6034 157.073 90.414 157.087 85.2382 156.784C81.6095 156.565 75.4934 156.91 74.0903 152.633C73.0259 147.568 74.2412 142.222 74.0163 137.043C74.1245 131.049 73.7317 125.094 73.6947 119.11C73.6862 117.347 71.2272 117.45 71.028 119.11C70.2482 125.574 69.1013 131.961 68.5235 138.459C68.0397 144.403 66.2467 151.626 69.7245 156.989C62.7992 157.232 55.8834 157.651 48.9771 158.246C43.0602 158.764 34.6474 159.932 31.0728 153.853C27.3872 146.169 29.5644 137.091 29.0948 128.847C29.1517 119.398 29.0265 109.965 28.8557 100.518C28.8597 100.282 28.8045 100.05 28.6951 99.8411C28.5857 99.6324 28.4256 99.4545 28.2296 99.3236C34.3041 98.4121 40.1262 96.2623 45.3342 93.0077C56.5589 105.827 78.7834 107.275 90.8619 94.9329C96.5634 98.5585 103.268 100.285 110.013 99.863C116.758 99.4414 123.196 96.894 128.401 92.5868C133.894 95.865 140.306 97.2666 146.667 96.5794C147.429 101.09 148.297 105.611 148.872 110.187C143.026 110.251 137.189 110.678 131.395 111.466C127.854 111.927 127.604 117.373 131.395 117.197C133.381 117.103 135.382 116.978 137.386 116.853C131.998 129.533 142.369 133.534 153.244 131.398C154.737 131.08 156.151 130.461 157.398 129.58C158.644 128.698 159.699 127.573 160.497 126.272C161.295 124.97 161.819 123.521 162.039 122.01C162.258 120.5 162.168 118.961 161.773 117.487C165.894 118.34 169.27 120.009 169.267 124.696C168.948 129.591 168.234 134.452 167.132 139.233C166.784 143.783 165.868 148.272 164.406 152.596C162.547 156.708 157.886 156.5 153.989 156.742C148.815 157.073 143.626 157.087 138.45 156.784C129.926 156.651 125.802 155.638 126.989 146.012C127.462 137.04 127.092 128.074 126.91 119.11C126.898 117.347 124.439 117.45 124.24 119.11C123.463 125.574 122.313 131.961 121.736 138.459C120.219 149.285 119.123 160.979 133.233 162.23C139.346 162.864 145.492 163.114 151.636 162.978C156.87 162.921 163.305 163.331 167.451 159.546C171.293 156.034 171.899 150.474 172.696 145.64C173.513 135.559 180.455 121.223 170.397 113.966ZM101.953 124.053C99.5508 127.136 94.3796 126.308 90.9103 126.342C85.8615 125.879 87.5719 120.077 87.9362 116.631C92.6839 116.296 97.4491 116.291 102.198 116.614C102.528 119.244 103.66 121.681 101.953 124.053ZM38.7912 24.7492C68.0929 22.3018 97.5505 22.3655 126.841 24.9397C145.841 25.0108 141.789 32.1998 141.111 46.9503C105.937 47.2517 70.7861 46.2678 35.6178 46.2849C36.133 39.4599 29.6127 28.0593 38.7912 24.7492ZM43.1399 85.0537C41.6258 86.7002 37.3625 88.9496 39.2095 91.5232C30.4381 96.9178 14.2044 98.1947 10.9542 85.8898C9.58246 78.843 14.9159 71.0795 18.5645 65.4773C21.9177 60.3865 25.724 55.6085 29.9372 51.2017C30.4174 51.644 31.0459 51.8905 31.6989 51.8927C43.1313 52.0776 54.5638 52.0662 65.9934 52.0065C60.6349 64.4216 52.8674 75.6555 43.1399 85.0537ZM130.077 90.2293C130.135 89.6665 130.017 89.0996 129.742 88.6056C129.466 88.1115 129.045 87.7142 128.535 87.4674C128.026 87.2206 127.452 87.1363 126.893 87.226C126.334 87.3156 125.816 87.5749 125.41 87.9686C121.062 92.308 115.427 95.1256 109.345 96.0005C103.263 96.8754 97.0603 95.7607 91.6645 92.8228C91.5902 92.4393 91.4278 92.0783 91.19 91.7682C90.9522 91.4581 90.6456 91.2074 90.2943 91.0359C89.9431 90.8644 89.5567 90.7768 89.1658 90.7799C88.7749 90.7831 88.39 90.8769 88.0415 91.054C85.2194 93.4959 82.1163 95.5933 78.7977 97.3017C73.5516 99.5958 67.7396 100.272 62.1062 99.245C56.4729 98.2175 51.2749 95.5327 47.1784 91.5346C47.887 90.2947 47.2638 88.4179 45.7468 88.5572C55.5304 78.3349 63.3023 66.3651 68.6573 53.272C68.7454 53.058 68.7686 52.823 68.7241 52.5959C68.6795 52.3689 68.5692 52.16 68.4068 51.9951C75.3208 51.9572 82.2356 51.9155 89.1515 51.87C87.3499 62.6108 86.0778 73.4256 84.8141 84.2432C84.4522 85.8203 84.4551 87.4592 84.8227 89.035C84.9069 89.3065 85.0673 89.5483 85.2849 89.7316C85.5024 89.9149 85.768 90.032 86.0501 90.0691C86.3323 90.1062 86.6191 90.0618 86.8767 89.941C87.1343 89.8202 87.3519 89.6281 87.5036 89.3876C89.0006 87.0586 88.7758 83.2621 89.0689 80.572C90.176 71.0227 91.1266 61.462 91.7442 51.8672C99.6134 51.8416 107.483 51.8956 115.352 51.9326C116.317 60.1055 117.526 68.2415 118.83 76.3661C119.248 79.0449 119.151 82.4716 121.112 84.5333C121.265 84.6827 121.449 84.7955 121.652 84.8633C121.854 84.9311 122.07 84.9521 122.281 84.9247C122.493 84.8973 122.696 84.8223 122.875 84.7052C123.053 84.5882 123.203 84.4321 123.312 84.2489C124.542 81.6611 123.455 78.5842 123.013 75.8883C121.738 67.886 120.395 59.8951 118.801 51.9496L132.556 52.0065C137.28 51.7506 143.243 53.1241 147.555 51.1903C151.34 55.6437 156.497 59.0277 159.405 64.2943C166.503 75.3025 161.967 87.8747 149.217 91.3469C142.642 93.1556 136.484 91.5119 130.077 90.2293ZM155.165 124.053C152.766 127.136 147.592 126.308 144.122 126.342C139.073 125.879 140.784 120.077 141.148 116.631C145.896 116.296 150.661 116.291 155.41 116.614C155.74 119.244 156.872 121.681 155.165 124.053Z" fill="#0F172A"/>
<path d="M147.589 140.68C144.171 138.05 138.447 140.271 134.577 141.01C134.236 141.116 133.944 141.339 133.752 141.639C133.56 141.94 133.481 142.298 133.528 142.652C133.576 143.005 133.748 143.33 134.013 143.569C134.278 143.808 134.619 143.945 134.975 143.956C137.713 143.444 150.674 146.456 147.589 140.68ZM139.008 147.397C137.022 147.852 133.43 147.852 133.712 150.696C133.778 151.24 134.041 151.74 134.452 152.103C134.863 152.465 135.392 152.665 135.94 152.664C138.681 152.192 141.661 153.17 144.231 151.902C144.578 151.691 144.866 151.395 145.065 151.042C145.264 150.688 145.369 150.289 145.369 149.883C145.369 149.477 145.264 149.078 145.065 148.724C144.866 148.37 144.578 148.074 144.231 147.864C142.604 147.079 140.748 146.913 139.008 147.397ZM94.3768 140.68C90.9587 138.05 85.2354 140.271 81.3648 141.01C81.024 141.116 80.7316 141.339 80.5396 141.639C80.3477 141.94 80.2685 142.298 80.3163 142.652C80.3641 143.005 80.5357 143.33 80.8006 143.569C81.0655 143.808 81.4066 143.945 81.7632 143.956C84.5011 143.444 97.4619 146.456 94.3768 140.68ZM85.7932 147.397C83.8095 147.852 80.215 147.852 80.4996 150.696C80.5657 151.239 80.8287 151.739 81.2387 152.102C81.6488 152.464 82.1776 152.664 82.7252 152.664C85.4688 152.192 88.4485 153.17 91.0185 151.902C91.3661 151.691 91.6535 151.395 91.853 151.042C92.0524 150.688 92.1572 150.289 92.1572 149.883C92.1572 149.477 92.0524 149.078 91.853 148.724C91.6535 148.37 91.3661 148.074 91.0185 147.864C89.3915 147.078 87.5338 146.913 85.7932 147.397Z" fill="#0F172A"/>
</svg>
