<svg width="128" height="129" viewBox="0 0 128 129" fill="none" xmlns="http://www.w3.org/2000/svg">
<path d="M85.8298 79.439C85.7631 76.8298 86.0252 74.2227 86.6098 71.679C87.2265 69.1689 88.1256 66.7367 89.2898 64.429C89.7098 63.599 90.1298 62.759 90.5698 61.949L91.2398 60.749C91.4598 60.349 91.7698 59.879 92.0198 59.519C93.1398 57.949 94.2499 56.469 95.2299 54.929C95.717 54.1888 96.1482 53.4133 96.5198 52.609C96.8449 52.0437 97.0108 51.401 96.9998 50.749C96.9784 50.6903 96.9439 50.6372 96.8988 50.5939C96.8538 50.5505 96.7994 50.5181 96.7398 50.499L96.5499 50.429L96.1798 50.369C95.6028 50.32 95.0221 50.3402 94.4498 50.429C93.2435 50.6126 92.0709 50.9732 90.9698 51.499C89.7624 52.0587 88.6677 52.8349 87.7398 53.789C86.8346 54.7842 86.0585 55.8896 85.4298 57.079C83.6998 60.159 82.4998 63.589 80.5898 66.759C79.9698 67.759 79.5898 67.339 79.5898 66.279C79.6473 64.6418 80.0138 63.0301 80.6698 61.529C81.3998 59.829 82.1599 58.109 83.0499 56.409C83.5031 55.5422 84.0142 54.707 84.5798 53.909C85.168 53.0475 85.8636 52.2645 86.6498 51.579C88.2024 50.2299 90.027 49.2307 91.9998 48.649C92.9946 48.3489 94.0221 48.1709 95.0598 48.119C95.6185 48.0892 96.1787 48.1227 96.7299 48.219C97.1148 48.2868 97.4884 48.4079 97.8398 48.579C98.1974 48.7595 98.5061 49.0237 98.7398 49.349C98.7998 49.469 98.8698 49.569 98.9198 49.689C99.0866 50.1363 99.1647 50.6118 99.1498 51.089C99.1394 51.4468 99.0891 51.8023 98.9998 52.149C98.9198 52.469 98.8098 52.769 98.7098 53.069L98.3498 53.919C97.839 54.9748 97.2612 55.9969 96.6199 56.979C95.9899 57.979 95.3398 58.879 94.6898 59.799L93.7498 61.209C93.4698 61.619 93.1998 62.089 92.9198 62.579C91.6702 64.679 90.6061 66.884 89.7398 69.169C88.9133 71.4371 88.3888 73.8041 88.1798 76.209C87.9616 79.2062 88.1908 82.2192 88.8598 85.149C89.9454 89.6196 91.6769 93.908 93.9998 97.879C95.784 100.925 97.7894 103.836 99.9998 106.589L101.45 108.389C103.28 110.649 103.73 111.479 103.67 112.339C103.687 112.532 103.687 112.726 103.67 112.919C103.5 113.419 102.43 112.749 100.96 111.149C96.4373 106.154 92.6585 100.533 89.7398 94.459C88.6421 92.1161 87.7261 89.6923 86.9998 87.209C86.3141 84.6759 85.8918 82.0788 85.7398 79.459L85.8298 79.439Z" fill="#0F172A"/>
<path d="M69.59 24.049C69.8591 23.3361 70.3828 22.7482 71.06 22.399C71.3888 22.2508 71.7483 22.1835 72.1084 22.2026C72.4685 22.2218 72.8188 22.3268 73.13 22.509C73.3018 22.5864 73.4577 22.6949 73.59 22.829C73.7379 22.9429 73.8752 23.0701 74 23.209C74.24 23.529 74.53 23.829 74.73 24.159C74.9954 24.5865 75.239 25.027 75.46 25.479C76.2702 27.1732 76.8713 28.9596 77.25 30.799C77.5777 32.1115 77.7918 33.4498 77.89 34.799C78.16 39.439 78.04 44.009 77.95 48.579C77.95 50.579 77.95 52.639 77.95 54.649V58.509C77.95 59.779 77.83 61.089 77.95 62.289C77.95 62.649 77.95 62.719 77.88 62.799C77.81 62.879 77.57 62.799 77.34 62.439C77.0523 62.0086 76.8173 61.5453 76.64 61.059C76.3736 60.4213 76.205 59.747 76.14 59.059C75.8182 53.7817 75.7715 48.4912 76 43.209C76.0546 40.0094 75.8674 36.8103 75.44 33.639C75.1735 31.9354 74.7449 30.2611 74.16 28.639C73.8763 27.8355 73.5423 27.0506 73.16 26.289C73.0733 26.1006 72.9765 25.917 72.87 25.739L72.73 25.499L72.65 25.359C72.5468 25.1876 72.4109 25.0381 72.25 24.919C72.1939 24.8907 72.1326 24.8742 72.0699 24.8705C72.0071 24.8669 71.9443 24.8761 71.8853 24.8977C71.8262 24.9192 71.7722 24.9526 71.7266 24.9958C71.681 25.0391 71.6447 25.0912 71.62 25.149C71.5509 25.2542 71.497 25.3686 71.46 25.489C71.3979 25.662 71.3478 25.8391 71.31 26.019C71.0812 27.069 70.9374 28.1358 70.88 29.209C70.64 32.489 70.59 35.849 70.48 39.209C70.476 41.773 70.3157 44.3344 70 46.879C69.9103 47.4623 69.7867 48.04 69.63 48.609C68.98 50.799 67.93 51.409 67.24 51.209C67.093 51.2008 66.948 51.1705 66.81 51.119C66.65 51.019 66.75 50.829 66.81 50.479C66.87 50.129 67.11 49.729 67.35 49.119C67.6986 48.1259 67.9301 47.0956 68.04 46.049C68.19 44.949 68.28 43.819 68.34 42.659C68.46 40.349 68.49 37.979 68.52 35.579C68.52 33.799 68.58 31.999 68.66 30.179C68.66 29.269 68.77 28.349 68.87 27.419C68.87 26.949 68.96 26.469 69.04 25.979C69.04 25.739 69.12 25.499 69.17 25.229C69.2618 24.8178 69.3821 24.4135 69.53 24.019L69.59 24.049Z" fill="#0F172A"/>
<path d="M71.9099 67.999C71.0761 65.7641 70.1042 63.5833 68.9999 61.469C68.5999 60.689 68.1099 59.969 67.6699 59.219C66.2457 56.5449 64.3756 54.1336 62.1399 52.089C61.1399 51.309 59.9099 50.739 59.0199 51.239C58.3903 51.6014 57.9008 52.1649 57.6299 52.839C57.3033 53.5364 57.1391 54.2989 57.1499 55.069C57.1499 55.519 56.8699 55.649 56.3799 55.229C56.0444 54.8633 55.8113 54.4155 55.7041 53.9309C55.597 53.4463 55.6197 52.942 55.7699 52.469C56.0861 51.3185 56.7933 50.3143 57.7699 49.629C58.3493 49.2585 59.0135 49.0417 59.6999 48.999C60.0358 48.9805 60.3727 49.0108 60.6999 49.089C60.9951 49.1343 61.2839 49.2149 61.5599 49.329C63.4498 50.1586 65.0681 51.5031 66.2299 53.209C67.666 55.0209 69.0013 56.9104 70.2299 58.869C71.5019 61.0313 72.6277 63.2763 73.5999 65.589C74.1899 67.009 74.7299 68.459 75.2099 69.929C75.5805 71.0545 75.8745 72.2038 76.0899 73.369C76.3666 74.6138 76.3666 75.9042 76.0899 77.149C75.9022 77.7035 75.5831 78.2044 75.1599 78.609C74.7003 79.053 74.0977 79.3188 73.4599 79.359C72.3576 79.3721 71.2818 79.0205 70.3999 78.359C70.0503 78.1205 69.7163 77.86 69.3999 77.579C68.9664 77.2126 68.6241 76.7504 68.3999 76.229C68.353 76.0626 68.3394 75.8886 68.36 75.717C68.3806 75.5454 68.4349 75.3795 68.5199 75.229C68.5711 75.0934 68.6347 74.9629 68.7099 74.839C68.8299 74.659 69.0499 74.649 69.3699 74.719C69.779 74.8042 70.1604 74.9897 70.4799 75.259C71.0261 75.6814 71.6008 76.0657 72.1999 76.409C72.5553 76.6621 72.9838 76.792 73.4199 76.779C73.4799 76.779 73.4199 76.779 73.5399 76.669C73.591 76.615 73.6347 76.5545 73.6699 76.489C73.7599 76.399 73.6699 76.399 73.7399 76.369C73.8385 75.8167 73.8385 75.2513 73.7399 74.699C73.3698 72.4101 72.7355 70.1718 71.8499 68.029L71.9099 67.999Z" fill="#0F172A"/>
<path d="M65.4598 71.679C64.1985 68.9302 62.6031 66.3474 60.7098 63.989C60.0098 63.119 59.2498 62.299 58.4998 61.479C57.1909 60.0182 55.7808 58.6515 54.2798 57.389C53.535 56.7827 52.7424 56.2376 51.9098 55.759C51.1657 55.297 50.3149 55.0351 49.4398 54.999C49.134 55.0132 48.8418 55.1293 48.6098 55.329C48.4888 55.4521 48.3752 55.5823 48.2698 55.719C48.1998 55.889 48.0898 56.029 48.0298 56.209C47.7636 56.9696 47.6448 57.7739 47.6798 58.579C47.7317 59.6689 47.8925 60.751 48.1598 61.809C48.4398 62.879 48.6398 63.969 48.9498 65.039C49.1398 65.689 48.7998 65.769 48.2098 65.359C47.3257 64.677 46.6756 63.7369 46.3498 62.669C46.0281 61.4626 45.8337 60.2259 45.7698 58.979C45.6535 57.5957 45.9345 56.208 46.5798 54.979C46.7828 54.6075 47.0426 54.2701 47.3498 53.979C47.7026 53.6713 48.1193 53.4459 48.5698 53.319C48.9787 53.2204 49.4 53.1833 49.8198 53.209C50.1904 53.2413 50.5581 53.3015 50.9198 53.389C52.162 53.7645 53.3294 54.3533 54.3698 55.129C56.7809 56.831 59.0034 58.7854 60.9998 60.959C63.1722 63.35 65.0706 65.9763 66.6598 68.789C67.7058 70.5603 68.4271 72.5041 68.7898 74.529C68.9299 75.3944 68.8367 76.2815 68.5198 77.099C68.4462 77.3251 68.3309 77.5354 68.1798 77.719C68.0573 77.9231 67.9018 78.1056 67.7198 78.259C67.3563 78.6218 66.8935 78.8689 66.3898 78.969C65.4922 79.0694 64.5858 78.8839 63.7998 78.439C63.1002 78.0889 62.4312 77.6808 61.7998 77.219C59.9412 75.8604 58.1771 74.377 56.5198 72.779C56.1698 72.419 55.8198 72.089 55.5198 71.709C54.2598 70.339 54.1098 69.709 54.2398 69.049C54.2604 68.8931 54.2938 68.7393 54.3398 68.589C54.5198 68.169 55.3398 68.469 56.4498 69.279L58.7398 71.209L60.9998 73.209C61.7698 73.869 62.5098 74.529 63.2698 75.119C63.932 75.668 64.6695 76.1193 65.4598 76.459C65.5999 76.5164 65.7486 76.5502 65.8998 76.559C65.8998 76.559 65.8998 76.559 66.0198 76.469C66.1497 76.3378 66.2514 76.1814 66.3184 76.0094C66.3855 75.8374 66.4166 75.6535 66.4098 75.469C66.3481 74.1332 66.0075 72.8252 65.4098 71.629L65.4598 71.679Z" fill="#0F172A"/>
<path d="M43.7302 75.259C41.2872 70.9332 38.5752 66.765 35.6102 62.779C34.6102 61.259 33.4902 59.779 32.4802 58.229C31.5787 56.8459 30.767 55.4062 30.0502 53.919C29.6837 53.1511 29.3696 52.3593 29.1102 51.549C28.8108 50.7124 28.6356 49.8364 28.5902 48.949C28.5702 48.7127 28.5702 48.4752 28.5902 48.239C28.5902 48.119 28.5902 47.999 28.5902 47.879L28.7102 47.409C28.768 47.0972 28.8951 46.8024 29.082 46.5463C29.2689 46.2902 29.5109 46.0792 29.7902 45.929C30.3729 45.6702 31.0288 45.6276 31.6402 45.809C32.0907 45.9572 32.5234 46.1551 32.9302 46.399C34.345 47.2931 35.6681 48.3247 36.8802 49.479C39.0106 51.4481 40.9833 53.5813 42.7802 55.859C45.1562 58.7075 47.0481 61.927 48.3802 65.389C48.7402 66.499 48.4602 66.389 47.8102 65.659C46.7648 64.4433 45.7867 63.1714 44.8802 61.849C42.8119 58.8657 40.5114 56.0503 38.0002 53.429C36.7481 52.123 35.4119 50.9004 34.0002 49.769C33.3353 49.2169 32.63 48.7155 31.8902 48.269C31.7253 48.1725 31.5551 48.0857 31.3802 48.009L31.0302 47.869C30.9838 47.8397 30.93 47.8241 30.8752 47.8241C30.8203 47.8241 30.7665 47.8397 30.7202 47.869C30.5602 47.869 30.4102 49.109 30.6402 50.049C30.8744 51.0913 31.2407 52.0994 31.7302 53.049C32.7596 55.0619 33.9292 57 35.2302 58.849C38.0002 63.029 41.0502 67.069 43.7002 71.429C44.5202 72.769 45.2902 74.139 45.9902 75.559C46.6902 76.979 47.3102 78.449 47.9902 79.819C49.9111 84.065 52.4969 87.9774 55.6502 91.409C58.0578 94.005 60.7402 96.332 63.6502 98.349C64.2802 98.799 64.9101 99.229 65.5602 99.649C67.9701 101.259 68.7302 101.749 69.1702 102.329C69.2749 102.453 69.3717 102.583 69.4602 102.719C69.6502 103.049 68.3802 102.889 66.3302 101.989C64.8228 101.287 63.3747 100.465 62.0002 99.529C60.6089 98.5511 59.2735 97.4961 58.0002 96.369C55.4112 94.0763 53.0654 91.5228 51.0002 88.749C49.4463 86.6604 48.0746 84.4423 46.9002 82.119C46.5902 81.549 46.3502 80.939 46.0702 80.349C45.7902 79.759 45.5402 79.159 45.3002 78.609C44.8102 77.479 44.3002 76.379 43.6802 75.289L43.7302 75.259Z" fill="#0F172A"/>
<path d="M73.5203 114.719C72.8503 113.529 72.1903 112.349 71.5203 111.179C71.2703 110.749 70.9703 110.369 70.7203 109.939C69.8403 108.429 68.9703 106.939 68.0103 105.489C67.5867 104.852 67.1259 104.241 66.6303 103.659C65.9903 102.929 65.3203 102.229 64.7603 101.499C64.5903 101.259 64.8503 100.969 65.3103 100.849C65.5805 100.772 65.8655 100.764 66.1397 100.825C66.4138 100.886 66.6683 101.015 66.8803 101.199C67.6381 101.922 68.3401 102.7 68.9804 103.529C69.591 104.358 70.152 105.223 70.6604 106.119C71.2604 107.199 72.0704 108.179 72.7604 109.219C73.4503 110.259 74.2504 111.529 74.9804 112.689L76.3203 114.829C77.0103 115.889 77.6603 116.999 78.4003 118.029C78.9703 118.819 79.6604 119.519 80.3004 120.249C80.4404 120.419 80.5903 120.569 80.7203 120.739C80.8275 120.887 80.9212 121.044 81.0003 121.209C81.0295 121.337 81.0295 121.471 81.0003 121.599C80.9631 121.85 80.8556 122.086 80.6904 122.279C80.6252 122.376 80.5551 122.469 80.4804 122.559C80.2704 122.809 79.7003 122.799 79.1103 122.499C77.7402 121.285 76.5633 119.868 75.6204 118.299C74.8604 117.169 74.2004 115.959 73.4804 114.799L73.5203 114.719Z" fill="#0F172A"/>
<path d="M86.0995 109.979L83.8195 110.379C83.0595 110.479 82.3095 110.599 81.5395 110.679C80.9895 110.679 80.4395 110.829 79.8795 110.879C77.9205 111.005 75.9548 110.982 73.9995 110.809C73.1295 110.809 72.2595 110.649 71.3995 110.599L69.7295 110.349C69.1754 110.235 68.6356 110.061 68.1195 109.829C67.7995 109.689 67.9595 109.369 68.3395 109.119C68.7833 108.805 69.3333 108.679 69.8695 108.769C71.9952 109.059 74.1349 109.236 76.2795 109.299C76.9467 109.334 77.6156 109.314 78.2795 109.239C78.9495 109.179 79.6195 109.109 80.2795 109.009C80.9395 108.909 81.7495 108.839 82.4795 108.709C83.2095 108.579 83.9395 108.479 84.6595 108.309C85.5595 108.139 86.4395 107.899 87.3195 107.659C87.9795 107.459 88.6295 107.219 89.3195 107.019C90.0095 106.819 90.5995 106.519 91.1995 106.199C92.0981 105.714 92.9287 105.112 93.6695 104.409C93.8068 104.25 93.9573 104.103 94.1195 103.969C94.7095 103.459 94.8995 103.329 95.3995 103.429C95.5061 103.423 95.6129 103.423 95.7195 103.429C96.0495 103.519 96.0695 103.969 95.7195 104.679C95.4517 105.171 95.1149 105.622 94.7195 106.019C94.3211 106.379 93.9003 106.713 93.4595 107.019C92.5644 107.614 91.6132 108.12 90.6195 108.529C89.1617 109.122 87.6563 109.59 86.1195 109.929L86.0995 109.979Z" fill="#0F172A"/>
<path d="M88.18 113.479C88.13 113.369 88.02 113.199 87.84 113.209C87.66 113.219 87.75 113.369 87.76 113.489C87.7555 113.556 87.7555 113.622 87.76 113.689V113.799V113.949L87.86 114.259C88.13 115.099 88.43 115.939 88.7 116.899C88.76 117.149 88.82 117.399 88.87 117.699C88.87 117.839 88.87 118.009 88.92 118.209C88.931 118.322 88.931 118.436 88.92 118.549C88.9102 118.715 88.8834 118.879 88.84 119.039C88.8093 119.148 88.7726 119.254 88.73 119.359C88.6478 119.52 88.5471 119.671 88.43 119.809C88.167 120.1 87.8157 120.297 87.43 120.369C87.185 120.41 86.935 120.41 86.69 120.369C86.51 120.369 86.43 120.289 86.29 120.249C86.1077 120.174 85.9306 120.087 85.76 119.989L85.33 119.689C85.24 119.689 85.18 119.549 85.09 119.489C84.7042 119.058 84.3687 118.585 84.09 118.079L83.42 116.919L82.16 114.649C81.79 113.999 81.41 113.349 81.03 112.759C80.856 112.488 80.6656 112.227 80.46 111.979C80.4254 111.937 80.3887 111.897 80.35 111.859C80.4085 111.803 80.459 111.739 80.5 111.669C80.6611 111.454 80.7675 111.204 80.81 110.939C80.8246 110.964 80.8452 110.984 80.87 110.999L80.99 111.079C81.1054 111.167 81.2385 111.228 81.38 111.259C81.4795 111.283 81.5766 111.317 81.67 111.359H81.75V111.439C81.7385 111.579 81.7385 111.719 81.75 111.859C81.75 112.009 81.75 112.189 81.75 112.359C81.7592 112.49 81.7759 112.62 81.8 112.749C81.9537 113.453 82.1474 114.147 82.38 114.829L83.07 117.029C83.3317 117.831 83.5257 118.654 83.65 119.489C83.6981 119.8 83.6981 120.117 83.65 120.429C83.6152 120.566 83.5683 120.7 83.51 120.829C83.414 121.011 83.2851 121.174 83.13 121.309C82.9716 121.433 82.7898 121.523 82.5956 121.574C82.4014 121.626 82.1988 121.638 82 121.609C81.8813 121.592 81.7643 121.565 81.65 121.529L81.42 121.439C81.2876 121.38 81.1605 121.309 81.04 121.229C80.7951 121.085 80.5699 120.911 80.37 120.709C80.0485 120.332 79.7825 119.911 79.58 119.459C79.41 119.079 79.26 118.709 79.11 118.349C78.59 117.059 78.11 115.789 77.56 114.589C77.3061 114.017 77.0086 113.465 76.67 112.939C76.5548 112.765 76.4131 112.609 76.25 112.479C76.25 112.479 76.25 112.479 76.25 112.379C76.2834 112.327 76.3071 112.269 76.32 112.209C76.3174 112.176 76.3174 112.142 76.32 112.109C76.32 112.029 76.32 112.109 76.32 112.109V112.169C76.342 112.23 76.3723 112.287 76.41 112.339C76.4307 112.365 76.4542 112.388 76.48 112.409C76.39 112.509 76.36 112.639 76.38 112.919C76.4232 113.239 76.5178 113.549 76.66 113.839C77.0013 114.541 77.4063 115.211 77.87 115.839C78.34 116.519 78.87 117.179 79.38 117.839C79.89 118.499 80.38 119.219 80.91 119.899C81.55 120.759 81.16 120.969 80.13 120.689C79.4361 120.496 78.7654 120.228 78.13 119.889C77.3019 119.394 76.5701 118.754 75.97 117.999C75.3396 117.232 74.7869 116.405 74.32 115.529C74.0539 115.014 73.8459 114.47 73.7 113.909C73.4938 113.134 73.5252 112.316 73.79 111.559C73.9626 111.093 74.2437 110.675 74.61 110.339C74.7383 110.221 74.8791 110.117 75.03 110.029C75.2094 109.908 75.4093 109.819 75.62 109.769C76.0528 109.632 76.5171 109.632 76.95 109.769C77.4503 109.933 77.8963 110.23 78.24 110.629C78.4482 110.864 78.6419 111.111 78.82 111.369C79.3586 112.198 79.8269 113.071 80.22 113.979C80.61 114.819 80.95 115.649 81.29 116.449L81.8 117.619C81.97 117.979 82.16 118.379 82.26 118.559V118.619H82.32L82.24 118.789L82.12 119.159C82.0451 119.312 82.0042 119.479 82 119.649C81.9679 119.74 81.9679 119.838 82 119.929C82 119.929 82 119.979 82 119.929C81.9085 119.875 81.8112 119.831 81.71 119.799C81.62 119.799 81.34 119.699 81.15 119.699C81.0335 119.708 80.9165 119.708 80.8 119.699H81C81 119.699 81 119.609 81 119.569C80.9023 118.783 80.7383 118.007 80.51 117.249C80.21 116.209 79.91 115.159 79.61 114.099C79.4144 113.486 79.2935 112.851 79.25 112.209C79.228 111.876 79.228 111.542 79.25 111.209C79.2566 111.015 79.2766 110.821 79.31 110.629L79.4 110.259C79.4599 110.07 79.5476 109.892 79.66 109.729C79.7646 109.585 79.8892 109.457 80.03 109.349C80.1824 109.23 80.3604 109.148 80.55 109.109C80.7449 109.072 80.945 109.072 81.14 109.109C81.2724 109.136 81.4027 109.173 81.53 109.219C81.807 109.326 82.0589 109.49 82.27 109.699C82.5293 109.938 82.7639 110.203 82.97 110.489C83.3284 110.961 83.6622 111.452 83.97 111.959C84.56 112.959 85.1 113.899 85.64 114.849L86.48 116.299C86.62 116.529 86.76 116.769 86.89 116.969C87.02 117.169 87.05 117.229 87.15 117.309L87.3 117.409L87.41 117.469L87.35 117.639C87.35 117.739 87.35 117.909 87.28 117.969C87.2465 118.097 87.2465 118.231 87.28 118.359C87.28 118.359 87.35 118.479 87.28 118.359C87.21 118.239 87.28 118.359 87.2 118.359C87.1336 118.324 87.063 118.297 86.99 118.279C86.89 118.279 86.6 118.219 86.36 118.219C86.3653 118.156 86.3653 118.092 86.36 118.029C86.36 117.879 86.28 117.679 86.23 117.489C86.02 116.699 85.72 115.849 85.45 114.989L85.21 114.239C85.1033 113.899 85.0033 113.566 84.91 113.239C84.7354 112.61 84.615 111.968 84.55 111.319C84.4663 110.814 84.4946 110.297 84.6328 109.805C84.7711 109.312 85.0159 108.856 85.35 108.469C85.4503 108.432 85.5542 108.405 85.66 108.389C86.0758 108.291 86.5077 108.284 86.9268 108.366C87.3459 108.449 87.7424 108.621 88.09 108.869C88.8674 109.523 89.5153 110.316 90 111.209L90.47 111.899L90.8 112.419L91.4 113.329C91.7592 113.889 92.1783 114.409 92.65 114.879C92.831 115.054 93.0407 115.196 93.27 115.299C93.35 115.329 93.4345 115.346 93.52 115.349H93.7C93.51 114.629 93.97 116.349 93.92 116.159C93.92 116.159 93.84 116.159 93.73 116.159C93.6186 116.17 93.5082 116.19 93.4 116.219H93.2H93.1V116.159L93.01 115.979L92.76 115.529L92.17 114.599L90.94 112.699C90.73 112.379 90.53 112.049 90.33 111.699C90.095 111.316 89.9069 110.907 89.77 110.479C89.68 110.119 89.58 109.759 89.49 109.349C89.4402 109.119 89.4134 108.884 89.41 108.649C89.3931 108.296 89.4875 107.946 89.68 107.649C89.824 107.44 90.0254 107.277 90.26 107.179C90.4342 107.105 90.6208 107.064 90.81 107.059C91.0758 107.046 91.3422 107.072 91.6 107.139C91.807 107.186 92.0108 107.246 92.21 107.319C92.4486 107.402 92.6767 107.513 92.89 107.649C93.6 108.139 94.14 108.579 94.74 108.989C95.2988 109.395 95.8909 109.753 96.51 110.059C97.0151 110.331 97.5766 110.481 98.15 110.499C98.3367 110.491 98.518 110.434 98.6759 110.334C98.8338 110.234 98.9628 110.094 99.05 109.929L99.41 111.639L98.17 110.949C97.5 110.559 96.84 110.199 96.17 109.769C95.2655 109.239 94.4546 108.563 93.77 107.769C93.5709 107.512 93.4216 107.221 93.33 106.909C93.2793 106.631 93.2793 106.347 93.33 106.069C93.3566 105.868 93.4438 105.679 93.58 105.529C93.68 105.469 93.77 105.529 93.92 105.529H94.11H94.42C94.7116 105.57 94.9893 105.679 95.23 105.849C95.53 106.019 95.9 106.239 96.31 106.499C97.72 107.379 99.31 108.249 100.84 109.099L102.7 110.099L101.38 111.639C101.097 112.019 100.76 112.356 100.38 112.639C100.175 112.788 99.9614 112.925 99.74 113.049C99.5026 113.149 99.2587 113.232 99.01 113.299C98.1495 113.5 97.2504 113.462 96.41 113.189C95.1727 112.758 94.0116 112.134 92.97 111.339L91.61 110.339C91.43 110.199 91.17 110.039 91.17 110.039H91.1L90.86 109.979H90.79V109.759C90.8457 109.382 90.8253 108.998 90.73 108.629C90.7243 108.593 90.7243 108.555 90.73 108.519C90.73 108.519 90.73 108.519 90.86 108.599H91.02C91.1076 108.628 91.1981 108.649 91.29 108.659C91.5398 108.673 91.7902 108.673 92.04 108.659H92.24C92.2383 108.689 92.2383 108.719 92.24 108.749C92.2339 108.839 92.2339 108.929 92.24 109.019L92.45 109.769C92.45 109.769 92.45 109.769 92.45 109.819C92.6687 110.264 92.9159 110.695 93.19 111.109L94.19 112.589C94.53 113.099 94.86 113.589 95.19 114.199L95.45 114.679C95.5928 114.929 95.7069 115.194 95.79 115.469C95.8441 115.668 95.8743 115.873 95.88 116.079C95.8849 116.159 95.8849 116.239 95.88 116.319C95.8672 116.493 95.8302 116.665 95.77 116.829C95.7085 117.016 95.6173 117.191 95.5 117.349C95.3463 117.565 95.1486 117.745 94.92 117.879C94.8061 117.957 94.6814 118.017 94.55 118.059H94.39H94.31H94.19L94 118.209C93.6686 118.26 93.3314 118.26 93 118.209C91.9877 118.019 91.0686 117.494 90.39 116.719C89.9133 116.195 89.4755 115.637 89.08 115.049L88.17 113.639C88.1665 113.609 88.1665 113.579 88.17 113.549L88.18 113.479Z" fill="#0F172A"/>
<path d="M34.6101 77.849C34.6343 77.7119 34.6869 77.5814 34.7645 77.4659C34.8421 77.3503 34.9429 77.2522 35.0606 77.1778C35.1782 77.1035 35.3101 77.0545 35.4478 77.034C35.5855 77.0136 35.7259 77.0221 35.8601 77.059C38.4901 78.029 33.7601 81.209 34.6101 77.849Z" fill="#0F172A"/>
<path d="M110.751 66.259C110.78 66.082 110.847 65.9132 110.947 65.7641C111.046 65.6149 111.177 65.4888 111.329 65.3941C111.482 65.2994 111.652 65.2384 111.83 65.2151C112.008 65.1918 112.189 65.2068 112.361 65.259C115.731 66.499 109.651 70.519 110.751 66.259Z" fill="#0F172A"/>
<path d="M40.5502 104.049C40.8147 103.886 41.013 103.634 41.1102 103.339C41.1303 103.233 41.1303 103.125 41.1102 103.019C41.1081 102.815 41.0438 102.617 40.9258 102.451C40.8078 102.284 40.6419 102.158 40.4502 102.089C40.3806 102.062 40.3041 102.059 40.2322 102.078C40.1602 102.098 40.0965 102.14 40.0502 102.199C39.9522 102.409 39.8816 102.631 39.8402 102.859C39.8402 102.939 39.5602 102.949 39.3302 102.859C39.2025 102.826 39.0908 102.748 39.0156 102.64C38.9403 102.532 38.9065 102.4 38.9202 102.269C38.9672 101.999 39.0923 101.749 39.2802 101.549C39.483 101.313 39.763 101.157 40.0702 101.109C40.3267 101.077 40.5871 101.108 40.8292 101.198C41.0712 101.289 41.2878 101.436 41.4602 101.629C41.8322 102.021 42.0673 102.522 42.1302 103.059C42.1446 103.347 42.0967 103.634 41.9897 103.902C41.8827 104.169 41.7191 104.411 41.5102 104.609C41.2888 104.838 41.0322 105.031 40.7502 105.179C40.5233 105.317 40.2711 105.408 40.0084 105.448C39.7457 105.487 39.4778 105.474 39.2202 105.409C38.9992 105.329 38.8066 105.186 38.6661 104.998C38.5257 104.809 38.4437 104.584 38.4302 104.349C38.4204 104.256 38.4204 104.162 38.4302 104.069C38.4902 103.759 38.6002 103.679 38.8702 103.689H39.0002C39.0951 103.705 39.184 103.745 39.2578 103.807C39.3316 103.868 39.3877 103.949 39.4202 104.039C39.4902 104.309 39.5902 104.439 39.6202 104.399C39.6502 104.359 39.6202 104.399 39.6802 104.399C39.9813 104.356 40.2648 104.231 40.5002 104.039L40.5502 104.049Z" fill="#0F172A"/>
<path d="M17.4196 71.629C17.6846 71.4663 17.8831 71.2147 17.9796 70.919C17.9996 70.8133 17.9996 70.7048 17.9796 70.599C17.9775 70.3952 17.9131 70.1969 17.7951 70.0307C17.6772 69.8645 17.5113 69.7383 17.3196 69.669C17.2505 69.6441 17.1756 69.6403 17.1044 69.6582C17.0331 69.676 16.9688 69.7146 16.9196 69.769C16.8215 69.9791 16.751 70.2009 16.7096 70.429C16.7096 70.509 16.4296 70.519 16.1996 70.429C15.9696 70.339 15.7296 70.129 15.7896 69.849C15.8471 69.5796 15.9709 69.3287 16.1496 69.119C16.3534 68.8863 16.6335 68.7338 16.9396 68.689C17.1962 68.6544 17.4574 68.6837 17.6999 68.7744C17.9424 68.8651 18.1587 69.0145 18.3296 69.209C18.7034 69.5995 18.9388 70.1019 18.9996 70.639C19.0112 70.9286 18.963 71.2174 18.858 71.4875C18.7531 71.7576 18.5936 72.0033 18.3896 72.209C18.1623 72.4358 17.9028 72.6279 17.6196 72.779C17.3932 72.9141 17.1424 73.003 16.8815 73.0407C16.6207 73.0785 16.3549 73.0643 16.0996 72.999C15.8835 72.9281 15.6927 72.7958 15.5506 72.6182C15.4085 72.4406 15.3213 72.2254 15.2996 71.999C15.2947 71.9058 15.2947 71.8123 15.2996 71.719C15.3696 71.409 15.4696 71.329 15.7496 71.339H15.9296C16.0248 71.3537 16.1142 71.394 16.1882 71.4557C16.2622 71.5174 16.318 71.598 16.3496 71.689C16.4196 71.949 16.5196 72.079 16.5496 72.039C16.5796 71.999 16.5496 72.039 16.6196 72.039C16.915 71.9935 17.1939 71.873 17.4296 71.689L17.4196 71.629Z" fill="#0F172A"/>
<path d="M65.8001 7.97901C65.6701 7.86901 65.8001 7.70901 66.0301 7.50901C66.1552 7.43668 66.2958 7.39552 66.4401 7.38901C66.5379 7.43418 66.6316 7.48771 66.7201 7.54901C66.7201 7.54901 67.1601 8.24901 67.3201 8.45901C67.4633 8.66557 67.584 8.88682 67.6801 9.11901C67.8901 9.57901 68.1201 10.039 68.3601 10.489C68.4116 10.59 68.4486 10.6977 68.4701 10.809C68.5686 11.1885 68.7273 11.5497 68.9401 11.879C68.9628 11.9437 69.0093 11.9973 69.0701 12.029C69.3402 12.3905 69.5589 12.7876 69.7201 13.209C69.8101 13.549 69.8501 13.919 69.9401 14.269C69.9401 14.319 69.9401 14.359 69.9401 14.419C69.9401 14.479 69.9401 14.659 69.9401 14.769C70.0017 14.907 70.0486 15.0512 70.0801 15.199C70.0949 15.285 70.0949 15.373 70.0801 15.459C70.0801 15.539 69.9301 15.579 69.9001 15.569C69.8701 15.559 69.7901 15.569 69.7401 15.649C69.4517 15.455 69.1746 15.2446 68.9101 15.019L68.4701 14.499C68.3024 14.3079 68.1455 14.1076 68.0001 13.899C67.9574 13.8326 67.9301 13.7574 67.9201 13.679L67.3101 12.769C67.1864 12.589 67.117 12.3773 67.1101 12.159C67.1188 12.1195 67.1188 12.0785 67.1101 12.039C66.9433 11.7188 66.8061 11.3841 66.7001 11.039C66.6401 10.859 66.5501 10.699 66.4801 10.529C66.4101 10.359 66.4801 10.459 66.4801 10.429C66.4907 10.3863 66.4907 10.3417 66.4801 10.299C66.3001 9.89901 66.1901 9.46901 65.9901 9.06901C65.9401 8.97901 65.9101 8.47901 65.8501 8.36901C65.7901 8.25901 65.8501 8.02901 65.8001 7.97901Z" fill="#FCEAD9"/>
<path d="M82.4899 6.07898C82.4899 5.93898 82.6399 5.89898 82.9499 5.91898C83.0933 5.94262 83.2298 5.99722 83.3499 6.07898C83.3982 6.16851 83.4384 6.26223 83.4699 6.35898C83.4699 6.35898 83.3699 7.10898 83.3299 7.35898C83.2928 7.58893 83.229 7.81378 83.1399 8.02898C82.9599 8.45898 82.7899 8.89898 82.5899 9.32898C82.5502 9.42333 82.4962 9.51102 82.4299 9.58898C82.2015 9.86454 82.0191 10.1752 81.8899 10.509C81.8685 10.5671 81.8685 10.6309 81.8899 10.689C81.7748 11.0495 81.599 11.3877 81.3699 11.689C81.1499 11.919 80.8699 12.119 80.6399 12.339C80.6399 12.339 80.6399 12.419 80.5199 12.419C80.3999 12.419 80.3299 12.529 80.2699 12.599L79.9899 12.899C79.9218 12.9362 79.8517 12.9696 79.7799 12.999C79.7099 12.999 79.5999 12.919 79.5999 12.899C79.5999 12.879 79.4999 12.829 79.4399 12.799H79.3799C79.3799 12.799 79.3799 11.959 79.4499 11.879L79.6099 11.309C79.6652 11.0944 79.7354 10.8839 79.8199 10.679C79.8199 10.609 79.8999 10.569 79.9399 10.519C79.9799 10.469 80.2599 9.67898 80.2799 9.64898C80.2999 9.61898 80.4099 9.31898 80.6099 9.21898C80.6386 9.19584 80.6596 9.16442 80.6699 9.12898C80.8106 8.85442 80.9711 8.5904 81.1499 8.33898C81.2299 8.20898 81.2899 8.05898 81.3599 7.91898C81.4299 7.77898 81.3599 7.91898 81.4199 7.85898L81.4899 7.76898C81.6656 7.4464 81.8193 7.1123 81.9499 6.76898C81.9499 6.67898 82.2699 6.35898 82.2899 6.26898C82.3099 6.17898 82.4999 6.13898 82.4899 6.07898Z" fill="#FCEAD9"/>
<path d="M19.4698 28.419C19.3098 28.369 19.3498 28.179 19.4698 27.899C19.55 27.7791 19.6604 27.6826 19.7898 27.619C19.8964 27.6136 20.0032 27.6136 20.1098 27.619C20.1698 27.619 20.8198 28.129 21.0398 28.299C21.2533 28.4563 21.4449 28.6413 21.6098 28.849C21.9598 29.259 22.3098 29.659 22.6098 30.079C22.6865 30.1717 22.7473 30.2764 22.7898 30.389C22.9669 30.7464 23.1851 31.082 23.4398 31.389C23.4898 31.439 23.5198 31.499 23.5998 31.529C23.911 31.8543 24.1706 32.2252 24.3698 32.629C24.4898 32.969 24.5598 33.339 24.6698 33.679C24.6698 33.679 24.7198 33.769 24.6698 33.839C24.6434 33.8918 24.6296 33.95 24.6296 34.009C24.6296 34.068 24.6434 34.1262 24.6698 34.179C24.7335 34.3217 24.787 34.4687 24.8298 34.619C24.8402 34.702 24.8402 34.786 24.8298 34.869C24.8298 34.949 24.6798 34.999 24.6598 34.989C24.6398 34.979 24.5498 34.989 24.4998 35.079H24.4498C24.1545 34.9002 23.8706 34.7031 23.5998 34.489L23.1298 34.009C22.8798 33.779 22.6798 33.499 22.6198 33.449C22.578 33.3883 22.5475 33.3205 22.5298 33.249C22.5298 33.249 21.8698 32.469 21.8498 32.429C21.8298 32.389 21.5898 32.119 21.5798 31.879C21.5678 31.8385 21.5473 31.801 21.5198 31.769C21.319 31.4834 21.1354 31.1862 20.9698 30.879C20.8798 30.729 20.7598 30.599 20.6498 30.449C20.5398 30.299 20.6498 30.389 20.6498 30.359C20.6358 30.3193 20.6156 30.2822 20.5898 30.249C20.3557 29.8962 20.095 29.5619 19.8098 29.249C19.7398 29.179 19.5498 28.739 19.4598 28.669C19.3698 28.599 19.5298 28.439 19.4698 28.419Z" fill="#FCEAD9"/>
<path d="M14.8899 42.209C14.7599 42.279 14.6699 42.109 14.6199 41.799C14.6085 41.6554 14.6326 41.5111 14.6899 41.379C14.7574 41.308 14.8349 41.2474 14.9199 41.199C14.9699 41.199 15.6499 41.099 15.9199 41.049C16.1392 41.024 16.3607 41.024 16.5799 41.049H17.9199C18.0194 41.0339 18.1205 41.0339 18.2199 41.049C18.545 41.1399 18.8839 41.1704 19.2199 41.139C19.2754 41.1554 19.3345 41.1554 19.3899 41.139C19.7675 41.0786 20.1523 41.0786 20.5299 41.139C20.8399 41.219 21.1399 41.369 21.4399 41.449C21.4899 41.449 21.5299 41.449 21.5699 41.509C21.6099 41.569 21.7599 41.619 21.8599 41.639C21.992 41.6594 22.1223 41.6895 22.2499 41.729C22.3198 41.7618 22.384 41.8057 22.4399 41.859C22.4999 41.859 22.4399 42.049 22.4399 42.069C22.4399 42.089 22.4399 42.179 22.4399 42.249C22.4446 42.2687 22.4446 42.2893 22.4399 42.309C22.1703 42.4689 21.8896 42.6092 21.5999 42.729L21.0199 42.879C20.8027 42.9351 20.5823 42.9785 20.3599 43.009C20.2941 43.024 20.2258 43.024 20.1599 43.009L19.1599 43.119C18.9799 43.119 18.7899 43.119 18.6099 43.019C18.574 43.0087 18.5359 43.0087 18.4999 43.019C18.1809 43.0154 17.8628 42.9819 17.5499 42.919C17.3868 42.9087 17.2231 42.9087 17.0599 42.919H16.9799H16.8699C16.4799 42.919 16.0999 42.799 15.7199 42.809C15.6299 42.809 15.2199 42.629 15.1199 42.639C15.0199 42.649 14.9999 42.209 14.8899 42.209Z" fill="#FCEAD9"/>
<path d="M103.1 80.9889C102.989 81.2787 102.989 81.5992 103.1 81.8889C103.225 82.1102 103.418 82.2852 103.651 82.3879C103.883 82.4906 104.142 82.5155 104.39 82.4589C104.462 82.4345 104.524 82.3889 104.568 82.3281C104.613 82.2673 104.638 82.1943 104.64 82.1189C104.587 81.8965 104.507 81.6815 104.4 81.4789C104.4 81.3889 104.55 81.2289 104.79 81.1589C104.909 81.1068 105.042 81.0982 105.167 81.1348C105.291 81.1714 105.399 81.2508 105.47 81.3589C105.597 81.6023 105.659 81.8745 105.65 82.1489C105.639 82.4591 105.514 82.7543 105.3 82.9789C105.123 83.1681 104.901 83.3095 104.654 83.3899C104.408 83.4703 104.145 83.4872 103.89 83.4389C103.354 83.3698 102.856 83.1275 102.47 82.7489C102.286 82.5287 102.148 82.2733 102.066 81.9982C101.983 81.7232 101.958 81.4342 101.99 81.1489C102.02 80.8281 102.101 80.514 102.23 80.2189C102.323 79.9723 102.463 79.7464 102.643 79.5542C102.824 79.362 103.04 79.2073 103.28 79.0989C103.502 79.0213 103.742 79.0111 103.97 79.0699C104.198 79.1286 104.403 79.2536 104.56 79.4289C104.634 79.4879 104.701 79.555 104.76 79.6289C104.9 79.9089 104.87 80.0389 104.65 80.1989C104.601 80.2412 104.547 80.2781 104.49 80.3089C104.408 80.3554 104.315 80.3798 104.22 80.3798C104.126 80.3798 104.033 80.3554 103.95 80.3089C103.73 80.1389 103.57 80.1089 103.57 80.1489C103.57 80.1889 103.57 80.1489 103.57 80.2089C103.367 80.4323 103.226 80.7045 103.16 80.9989L103.1 80.9889Z" fill="#0F172A"/>
</svg>
