<svg width="133" height="134" viewBox="0 0 133 134" fill="none" xmlns="http://www.w3.org/2000/svg">
<path d="M45.2305 28.8037C46.0305 27.2036 46.4981 26.8295 47.0177 26.7984C48.7009 26.7256 50.4258 26.6217 52.1402 26.6009C53.6157 26.6009 55.1016 26.7464 56.5874 26.7568C59.1435 26.7568 61.71 26.6944 64.2765 26.6321C65.035 26.6321 65.7935 26.6321 66.5416 26.5801C67.2898 26.5282 67.9963 26.4451 68.7237 26.4139C68.838 26.4139 68.973 26.3308 69.0873 26.4139C69.2587 26.7141 69.3632 27.0478 69.3937 27.3921C69.4242 27.7364 69.3799 28.0833 69.264 28.4089C69.264 28.5751 69.1601 28.8557 69.0977 28.8557C68.5366 28.9076 68.0587 30.2376 67.4976 30.2376C66.3874 30.2733 65.2821 30.4019 64.1934 30.6221C63.7515 30.6739 63.3052 30.6739 62.8634 30.6221C62.3023 30.5494 61.7412 30.3727 61.1801 30.3C60.4008 30.2065 56.7745 30.1441 53.2832 30.0194C51.5376 29.9571 49.8231 29.874 48.5139 29.7701C47.7397 29.7392 46.9688 29.6524 46.2072 29.5103C45.8537 29.3159 45.5257 29.0786 45.2305 28.8037Z" fill="#231F20"/>
<path d="M48.8359 38.9866C49.4905 37.3553 49.875 36.9916 50.2387 36.9085C51.4024 36.9085 52.5662 36.763 53.7507 36.7423C54.7898 36.7423 55.8288 36.8981 56.8679 36.8981C58.6551 36.8981 60.4423 36.815 62.2398 36.7526C62.7698 36.7526 63.2789 36.7526 63.8296 36.7526C64.3217 36.6695 64.8176 36.6105 65.3155 36.576C65.3986 36.576 65.4921 36.4929 65.5752 36.576C65.8224 37.212 65.866 37.9091 65.6999 38.571C65.6999 38.7373 65.6272 39.0178 65.5856 39.0282C65.1908 39.0282 64.8894 40.3998 64.4738 40.3998C63.689 40.4286 62.9107 40.5542 62.1567 40.7738C61.8506 40.8258 61.538 40.8258 61.2319 40.7738C60.8371 40.7011 60.4423 40.5244 60.037 40.4517C59.6318 40.379 56.9198 40.3166 54.4884 40.1919C53.252 40.1296 52.0259 40.0361 51.0907 39.9218C50.5352 39.8792 49.9853 39.7817 49.449 39.6308C49.262 39.5373 49.0957 39.2672 48.8359 38.9866Z" fill="#231F20"/>
<path d="M14.9001 23.8166C14.9911 23.5218 15.1955 23.2752 15.4683 23.131C15.7411 22.9868 16.0599 22.9568 16.3548 23.0477C19.3889 23.9829 13.913 26.9961 14.9001 23.8166Z" stroke="#231F20" stroke-width="0.95" stroke-miterlimit="10"/>
<path d="M88.5075 33.0227C88.5985 32.7278 88.8029 32.4812 89.0757 32.337C89.3485 32.1928 89.6674 32.1629 89.9622 32.2538C92.9963 33.1993 87.5204 36.2126 88.5075 33.0227Z" stroke="#231F20" stroke-width="0.95" stroke-miterlimit="10"/>
<path d="M100.945 39.7453C101.036 39.4505 101.24 39.2039 101.513 39.0597C101.785 38.9155 102.104 38.8855 102.399 38.9764C105.433 39.922 99.9574 42.9352 100.945 39.7453Z" fill="#231F20"/>
<path d="M47.7344 72.0807C47.8045 71.9448 47.9009 71.8242 48.018 71.7259C48.1352 71.6276 48.2707 71.5536 48.4167 71.5082C48.5627 71.4627 48.7163 71.4468 48.8685 71.4612C49.0207 71.4757 49.1686 71.5203 49.3034 71.5924C52.1193 73.0575 46.1862 75.0213 47.7344 72.0807Z" stroke="#231F20" stroke-width="0.95" stroke-miterlimit="10"/>
<path d="M22.8595 57.4406C23.0034 57.1683 23.2485 56.9634 23.542 56.8701C23.8354 56.7768 24.1538 56.8026 24.4285 56.9418C27.2132 58.3965 21.2905 60.3915 22.8595 57.4406Z" fill="#231F20"/>
<path d="M79.1456 77.7959L75.6751 72.4239C75.2491 71.7797 74.7711 71.1667 74.3659 70.5017C72.9216 68.1742 71.5188 65.8259 70.0538 63.5192C69.4095 62.4801 68.6926 61.5138 67.9756 60.5578C67.0147 59.3425 66.1726 58.0377 65.4611 56.6614C65.2637 56.225 65.5546 56.0587 66.1261 56.121C66.4825 56.1608 66.832 56.2482 67.1652 56.3808C67.5895 56.5122 67.9702 56.7564 68.2666 57.0874C68.7965 57.69 69.3056 58.2927 69.8356 58.9057C70.3655 59.5188 70.7499 60.1942 71.1967 60.8488C72.0695 62.1788 72.8904 63.5296 73.6697 64.9323C74.6568 66.6052 75.8517 68.1638 76.9635 69.8263L80.4756 75.1878C81.2029 76.2892 81.9302 77.3906 82.6784 78.4609C83.8109 80.1026 84.9331 81.7547 86.1696 83.2821C87.1333 84.436 88.1748 85.5226 89.2868 86.5344C89.5246 86.7428 89.7501 86.9648 89.9622 87.1994C90.1368 87.3624 90.2935 87.5435 90.4298 87.7397C90.5324 87.8637 90.6132 88.0043 90.6688 88.1553C90.7096 88.4066 90.7374 88.6597 90.7519 88.9139C90.774 89.0282 90.8088 89.1398 90.8558 89.2464C91.1363 89.5581 89.9726 89.9217 89.0166 89.3814C87.7125 88.6192 86.5577 87.6264 85.6085 86.4513C84.5695 85.4122 83.7174 84.2277 82.8446 83.0743C81.5354 81.3495 80.3197 79.5623 79.0936 77.7959H79.1456Z" fill="#231F20"/>
<path d="M91.1567 83.4068C91.5587 84.454 91.8784 85.5309 92.1126 86.6279C92.2501 87.2518 92.2887 87.8935 92.2269 88.5294C92.1957 88.7365 92.1506 88.9413 92.0919 89.1424C91.9974 89.3724 91.879 89.5918 91.7386 89.797C91.4702 90.1621 91.1124 90.452 90.6995 90.6387C90.2761 90.8149 89.8117 90.8689 89.3591 90.7945C88.9989 90.7384 88.6489 90.6298 88.3201 90.4724C87.7709 90.189 87.258 89.8401 86.7926 89.4334C85.9463 88.7169 85.1608 87.9314 84.4444 87.0851C83.4053 85.8798 82.4286 84.6641 81.5246 83.4068C78.3035 79.0843 75.363 74.4605 72.5055 69.899C71.2379 67.8208 69.9183 65.857 68.5883 63.8828C66.905 61.3371 65.1802 58.8122 63.7047 56.1314C63.2579 55.2794 63.4553 55.2898 64.1723 55.7677C65.3503 56.5317 66.402 57.4748 67.2895 58.5628C69.2131 61.0389 70.9928 63.6235 72.6198 66.3038C74.2477 68.9638 75.8894 71.6273 77.545 74.2942C79.4776 77.4945 81.8987 80.5286 84.1223 83.6458C85.2923 85.3209 86.6637 86.8459 88.2058 88.1865C88.9643 88.7891 89.8579 89.1216 90.1177 88.7787C90.5437 88.5917 90.4294 87.5111 90.1904 86.5655C89.458 84.1212 88.4797 81.7574 87.2706 79.5103C85.4938 76.0191 83.5508 72.5694 81.5246 69.2236C79.9556 66.6259 78.2204 64.1945 76.5683 61.6904L75.4565 60.0487C74.1057 57.9705 73.9083 57.1705 74.0849 56.4327C74.1104 56.2629 74.1522 56.0958 74.2096 55.934C74.4382 55.508 75.2487 56.1522 76.4644 57.5653C79.8349 62.0756 82.8934 66.8109 85.6185 71.7381C87.7368 75.4932 89.6042 79.3843 91.2087 83.386L91.1567 83.4068Z" fill="#231F20"/>
<path d="M62.8842 55.1337C66.2054 54.3978 69.3017 52.8763 71.9137 50.6969C74.5357 48.4934 76.6215 45.7218 78.013 42.5922C79.0143 40.2783 79.6589 37.826 79.9248 35.3188C80.1242 33.1195 80.0579 30.9042 79.7274 28.7207C79.3141 26.5431 78.6154 24.4294 77.6493 22.4344C76.6176 20.4854 75.3125 18.6939 73.7736 17.1144C72.1713 15.5647 70.3553 14.2526 68.3809 13.2179C66.6082 12.3022 64.7311 11.6044 62.7907 11.1398C60.8525 10.7084 58.8744 10.4821 56.8888 10.4644C51.8134 10.4947 46.8538 11.9844 42.6017 14.7557C41.2925 15.6078 41.0639 15.0779 41.864 13.7998C43.3219 11.7729 45.4071 10.283 47.797 9.56044C53.1799 7.77892 58.9762 7.67024 64.422 9.24872C69.9375 10.7463 74.7313 14.1757 77.9298 18.912C79.8292 21.7736 81.1299 24.99 81.7536 28.3675C82.4016 31.929 82.2895 35.5872 81.4246 39.1023C80.5597 42.6175 78.9615 45.9101 76.7349 48.7643C75.5551 50.2298 74.2209 51.564 72.7553 52.7439C71.2713 53.9021 69.6609 54.8886 67.9548 55.6844C63.7235 57.586 59.0418 58.2558 54.447 57.6171C48.2804 56.8692 42.6183 53.8365 38.5786 49.1178C34.5388 44.399 32.4151 38.3371 32.6267 32.1289C32.6534 30.9547 32.768 29.7842 32.9696 28.6272C33.2236 27.0824 33.6959 25.5815 34.3723 24.1697C34.6592 23.5032 35.1317 22.9333 35.7335 22.5279C35.9289 22.3866 36.1377 22.2648 36.357 22.1643C36.9804 22.0396 36.357 23.6605 35.6296 26.5283C34.4961 30.8766 34.5824 35.4531 35.879 39.7556C37.1886 44.1238 39.834 47.972 43.4434 50.7593C46.1687 52.8535 49.3195 54.3257 52.6744 55.0725C56.0294 55.8192 59.5071 55.8224 62.8634 55.0818L62.8842 55.1337Z" fill="#231F20"/>
<path d="M94.2742 72.3823C93.7405 71.2317 93.0745 70.1472 92.2896 69.1508C91.9953 68.8284 91.6794 68.5264 91.3441 68.2468C90.8542 67.76 90.2506 67.4029 89.5881 67.2078C88.8964 67.0372 88.1684 67.0918 87.5099 67.3636C86.8604 67.6218 86.2752 68.019 85.7955 68.5274C85.1305 69.1612 84.6421 69.9613 83.9148 70.6055C83.6966 70.7718 83.1978 70.4393 82.8757 69.8782C82.6957 69.6072 82.5996 69.2891 82.5996 68.9638C82.5996 68.6385 82.6957 68.3204 82.8757 68.0494C83.6104 67.105 84.5076 66.2992 85.5253 65.67C86.6456 64.9969 87.9578 64.7155 89.2556 64.8699C90.0406 64.9809 90.8023 65.2196 91.5103 65.5765C91.8428 65.7531 92.1338 65.9609 92.4455 66.1583C92.7572 66.3558 92.9962 66.6155 93.256 66.8441C94.2852 67.9015 95.1566 69.1019 95.8432 70.4081C96.2692 71.177 96.6433 71.9667 96.9966 72.7564C97.5369 73.9617 97.9733 75.1982 98.4305 76.4139C98.7838 77.3594 99.2306 78.2634 99.5735 79.2193C99.6604 79.4266 99.7367 79.6381 99.802 79.8532C100.031 80.6636 99.8956 80.9754 99.3241 81.2455C99.1938 81.3149 99.0583 81.374 98.9188 81.4222C98.6847 81.4844 98.4356 81.4545 98.223 81.3385C98.0103 81.2225 97.8503 81.0293 97.7759 80.7987C97.0277 79.2609 96.4563 77.6088 95.812 75.9567C95.3481 74.737 94.8174 73.5437 94.2223 72.3823H94.2742Z" fill="#231F20"/>
<path d="M104.196 77.0164C103.792 75.9986 103.313 75.0123 102.762 74.0655C102.554 73.7226 102.295 73.4316 102.066 73.1095C101.386 71.9803 100.423 71.0488 99.2711 70.4079C98.7831 70.1993 98.2439 70.1414 97.7229 70.2417C97.0721 70.4751 96.434 70.7421 95.811 71.0418C95.5824 71.1041 95.2083 70.6262 95.0628 70.0027C94.9484 69.7087 94.9364 69.3847 95.0288 69.0831C95.1212 68.7814 95.3125 68.5197 95.572 68.3402C96.6327 67.7887 97.851 67.6199 99.0217 67.8622C100.098 68.1161 101.074 68.6839 101.827 69.4936C102.675 70.2953 103.457 71.164 104.165 72.0912C104.861 73.1041 105.47 74.1748 105.983 75.2915C106.295 75.9669 106.565 76.6527 106.835 77.3697C107.241 78.4087 107.563 79.4478 107.874 80.4869C108.145 81.3077 108.519 82.0766 108.789 82.9287C108.855 83.1123 108.911 83.2996 108.955 83.4897C109.111 84.2171 108.955 84.5288 108.332 84.6847C108.186 84.6847 108.051 84.7678 107.906 84.7886C107.691 84.8081 107.476 84.7606 107.29 84.6526C107.104 84.5447 106.956 84.3816 106.867 84.1859C106.306 82.939 105.828 81.5467 105.35 80.144C104.986 79.1049 104.612 78.0658 104.155 77.0268L104.196 77.0164Z" fill="#231F20"/>
<path d="M116.271 99.2212C116.126 97.0912 115.918 94.9715 115.585 92.8622C115.461 92.1037 115.274 91.3451 115.128 90.5866C114.711 87.9198 113.931 85.3224 112.811 82.8664C112.343 81.8538 111.629 80.9749 110.733 80.3103C110.228 79.9843 109.64 79.8111 109.039 79.8115C108.741 79.8312 108.445 79.8799 108.156 79.957C108.011 79.957 107.855 80.0194 107.699 80.0713L107.221 80.248C106.816 80.3726 106.483 79.8739 106.587 79.2089C106.642 78.7774 106.831 78.374 107.127 78.0555C107.521 77.6344 108.059 77.3782 108.634 77.3386C109.788 77.2343 110.941 77.5356 111.897 78.1906C112.336 78.4911 112.74 78.8396 113.102 79.2297C113.42 79.5848 113.715 79.9596 113.985 80.3519C114.946 81.8256 115.649 83.4526 116.063 85.1627C116.572 87.1162 117.196 89.08 117.57 91.075C117.975 93.257 118.245 95.4598 118.453 97.6523C118.567 99.003 118.671 100.354 118.744 101.705C118.858 103.783 118.879 105.861 118.931 107.856C118.931 109.435 119.108 110.973 119.118 112.573C119.118 112.926 119.118 113.259 119.118 113.612C119.056 114.921 118.817 115.327 118.173 115.524C118.03 115.575 117.884 115.617 117.736 115.649C117.248 115.649 116.915 115.14 116.874 114.225C116.708 111.503 116.676 108.646 116.583 105.767C116.5 103.627 116.417 101.466 116.219 99.3251L116.271 99.2212Z" fill="#231F20"/>
<path d="M86.5225 104.468C83.9982 101.831 81.6941 98.9923 79.6335 95.9791C78.8818 94.8802 78.1881 93.7426 77.5554 92.571C76.3525 90.4515 75.5859 88.1127 75.3006 85.6924C75.2097 85.0114 75.2546 84.3192 75.433 83.6557C75.6114 82.9922 75.9195 82.3707 76.3397 81.8271C76.8536 81.2574 77.5534 80.8891 78.3139 80.7881C79.0332 80.7277 79.7546 80.8756 80.3921 81.2141C81.358 81.7322 82.2493 82.3789 83.0417 83.1363C83.821 83.8533 84.5587 84.5806 85.2445 85.3184C86.1485 86.2743 87.0317 87.2199 87.9149 88.1238C88.372 88.5706 88.8085 89.007 89.2553 89.4019C89.6348 89.7675 90.0787 90.0599 90.5645 90.2643C90.6553 90.2822 90.7429 90.3137 90.8242 90.3578C90.8912 90.4033 90.9421 90.4688 90.9697 90.5449C90.9697 90.6695 90.9697 91.002 90.5021 91.1787C89.9134 91.3638 89.279 91.3418 88.7045 91.1163C87.9855 90.8773 87.3238 90.4917 86.7615 89.9838C84.6834 88.0927 83.0209 86.0769 81.2233 84.3728C80.5385 83.6216 79.6564 83.078 78.6776 82.8038C78.5146 82.794 78.3515 82.8228 78.2017 82.8878C78.0518 82.9528 77.9194 83.0522 77.8152 83.1779C77.5107 83.5135 77.3056 83.9273 77.2229 84.3728C77.057 85.8242 77.3018 87.2931 77.9295 88.6122C78.5019 90.0745 79.197 91.4858 80.0076 92.8308C81.8668 95.8217 84.0366 98.608 86.481 101.143C87.9769 102.741 89.5549 104.26 91.2087 105.694C93.7115 107.891 96.3717 109.902 99.1679 111.711C101.456 113.296 103.143 115.605 103.958 118.267C104.14 118.835 104.283 119.415 104.384 120.002C104.543 120.761 104.574 121.54 104.478 122.309C104.448 122.523 104.381 122.731 104.28 122.922C104.173 123.079 104.051 123.225 103.916 123.358C103.792 123.473 103.688 123.618 103.594 123.691C103.314 123.961 102.555 123.099 102.306 121.613C101.943 119.537 101.139 117.563 99.9472 115.825C99.3302 115.011 98.5987 114.29 97.7756 113.685L97.1313 113.228L96.3728 112.708C95.8533 112.369 95.3442 112.022 94.8454 111.669C91.8455 109.522 89.0428 107.112 86.4706 104.468H86.5225Z" fill="#231F20"/>
<path d="M36.1184 51.0292C38.5247 53.9673 41.6191 56.2659 45.1271 57.7208C45.7609 58.0117 46.4363 58.1884 47.0909 58.417C47.7455 58.6456 48.4313 58.7807 49.1067 58.9469C53.9467 60.1101 59.028 59.7472 63.6536 57.9078C65.6969 57.0794 67.6 55.9403 69.2957 54.5309C71.4046 52.6525 73.316 50.5636 75.0001 48.2965C75.5716 47.6211 76.0392 48.016 76.0392 48.9615C76.0352 49.5636 75.9298 50.1608 75.7275 50.7279C75.434 51.4802 75.0238 52.1816 74.5118 52.806C70.4035 57.6802 64.5846 60.796 58.2505 61.5134C54.4708 61.9747 50.6375 61.6924 46.9662 60.6821C42.9482 59.5046 39.2781 57.3646 36.2743 54.4478C34.4381 52.6602 32.9046 50.5863 31.7336 48.3069C30.8407 46.5708 30.1871 44.7218 29.7905 42.8103C29.673 42.3454 29.5862 41.8734 29.5308 41.3971C29.4684 40.9192 29.3853 40.4412 29.3333 39.9632C29.2468 39.0029 29.2225 38.0381 29.2606 37.0746C29.3626 34.098 30.0511 31.1708 31.2868 28.4608C31.5599 27.8644 31.8687 27.2849 32.2115 26.7256C33.5104 24.6475 34.2897 24.1799 35.0066 24.1799C35.1791 24.1581 35.3537 24.1581 35.5262 24.1799C36.0145 24.3461 35.6093 25.2189 34.7572 26.6425C32.0712 30.848 30.9665 35.8709 31.6401 40.8153C32.1876 44.5476 33.7472 48.0585 36.1496 50.9669L36.1184 51.0292Z" fill="#231F20"/>
</svg>
