<svg width="128" height="129" viewBox="0 0 128 129" fill="none" xmlns="http://www.w3.org/2000/svg">
<path d="M40.9993 35.6655L42.8593 34.9155C43.4693 34.6555 44.0693 34.3455 44.6693 34.0655C45.8993 33.5155 47.0593 32.8455 48.2293 32.1855C49.0993 31.7255 49.8693 31.1155 50.7093 30.5955C53.6374 28.7291 56.4098 26.6289 58.9993 24.3155C60.1393 23.2655 61.2693 22.1955 62.2993 21.0655C62.9893 20.3555 63.6293 19.6055 64.2993 18.8655C64.9693 18.1255 65.6693 17.4355 66.3893 16.7455C66.8393 16.3155 66.9693 16.5355 66.8593 17.1155C66.65 18.0189 66.2512 18.8677 65.6893 19.6055C63.1025 22.8207 60.1302 25.7056 56.8393 28.1955C56.3493 28.5655 55.8393 28.9555 55.3593 29.3455L53.8393 30.5055C52.8393 31.2955 51.7793 32.0055 50.7293 32.7055C49.6793 33.4055 48.3293 34.1355 47.1393 34.8455C45.9493 35.5555 44.6593 36.1255 43.3893 36.6955C41.8093 37.3655 40.2293 38.0555 38.5993 38.5755C37.9793 38.7755 37.3793 39.0055 36.7493 39.1955L34.8693 39.6955C34.2393 39.8555 33.6293 40.0555 32.9893 40.1855L31.0993 40.6055L29.6393 40.9355C29.1493 41.0455 28.6393 41.1055 28.1693 41.1955C27.1693 41.3655 26.1693 41.5455 25.2393 41.6855C24.7993 41.6855 24.3793 41.7755 23.9293 41.7955C22.2993 41.8955 21.7693 41.7955 21.4193 41.2355C21.3301 41.1275 21.253 41.0102 21.1893 40.8855C21.0393 40.4955 21.6893 40.1355 22.8393 39.8855L25.4193 39.6055C26.2893 39.4355 27.1493 39.2855 28.0293 39.1655C28.9149 39.0236 29.7927 38.8367 30.6593 38.6055C31.5393 38.4155 32.4293 38.2955 33.2993 38.0555C35.9216 37.4253 38.495 36.6065 40.9993 35.6055V35.6655Z" fill="#221F1F"/>
<path d="M44.8497 103.115C43.2046 100.969 41.7269 98.6987 40.4297 96.3255C39.1097 94.0155 37.9097 91.6455 36.7597 89.2655C35.9197 87.5255 35.0497 85.7955 34.2697 84.0455L26.2697 65.4155C25.0897 62.6555 23.8697 59.8955 22.7297 57.1355C21.9997 55.3655 21.2197 53.6055 20.5397 51.7955C20.1997 50.8955 19.8797 49.9955 19.5397 49.0855C19.1997 48.1755 19.0197 47.2255 18.7897 46.2955C18.5197 45.1255 18.8597 45.1855 19.5697 46.0055C19.9297 46.4155 20.3897 47.0055 20.9097 47.7355C21.4486 48.5722 21.9041 49.4598 22.2697 50.3855C23.7097 53.9855 25.2697 57.5455 26.7697 61.1255L31.2797 71.9655C33.0697 76.3255 35.1197 80.7755 37.1297 85.1155C39.2863 89.9069 41.7514 94.5533 44.5097 99.0255C46.2264 101.696 48.3758 104.061 50.8697 106.025C54.6925 109.08 58.894 111.628 63.3697 113.605C66.7845 115.106 70.3206 116.313 73.9397 117.215L76.2997 117.795C79.2997 118.495 80.1697 118.795 80.7597 119.435C80.8897 119.575 81.0697 119.715 81.1497 119.825C81.2297 119.935 81.0097 120.155 80.4297 120.235C79.5479 120.367 78.6515 120.367 77.7697 120.235C74.2802 119.79 70.8561 118.93 67.5697 117.675C64.1754 116.439 60.885 114.934 57.7297 113.175C52.8973 110.588 48.5334 107.207 44.8197 103.175L44.8497 103.115Z" fill="#231F20"/>
<path d="M106.829 74.9756C106.489 79.1156 106.209 83.2556 106.019 87.4056C106.019 88.1656 106.019 88.8856 105.909 89.7356C105.834 90.5543 105.683 91.3643 105.459 92.1556C103.869 97.6056 100.699 102.156 97.3595 106.366C95.8695 108.256 94.2995 110.086 92.6895 111.836C90.6422 114.134 88.3294 116.182 85.7995 117.936C84.9895 118.456 84.8594 118.036 85.2394 117.206C85.8622 115.997 86.6836 114.902 87.6694 113.966C92.0281 109.722 95.9818 105.082 99.4795 100.106C99.9795 99.3356 100.479 98.5656 100.919 97.7556C101.139 97.3456 101.369 96.9456 101.579 96.5256L102.159 95.2656C102.569 94.4256 102.809 93.5356 103.159 92.6756C103.411 91.8155 103.608 90.9404 103.749 90.0556C103.843 89.5745 103.89 89.0856 103.889 88.5956L103.949 87.0156L104.089 83.8656C104.203 81.7656 104.326 79.6656 104.459 77.5656C104.629 74.9856 104.839 72.3956 105.049 69.8256C105.389 65.9156 105.849 62.0056 106.319 58.1356C106.749 55.1356 107.049 52.1356 107.739 49.1956C107.86 48.52 108.02 47.8521 108.219 47.1956C109.059 44.8156 109.769 44.1956 110.319 43.8756C110.445 43.8067 110.575 43.7465 110.709 43.6956C111.079 43.6956 110.859 44.6956 110.469 46.3156C109.399 51.3756 108.739 56.8956 108.069 62.4456C107.609 66.5856 107.209 70.7556 106.909 74.9256L106.829 74.9756Z" fill="#221F1F"/>
<path d="M92.9993 24.7756C91.9993 24.3656 90.9393 23.9356 89.9493 23.4456C88.9593 22.9556 87.9493 22.4456 87.0093 21.9356C86.2893 21.5756 85.5893 21.1956 84.8993 20.7756C82.5088 19.2749 80.2295 17.6039 78.0793 15.7756C77.0793 14.9956 76.1593 14.1756 75.2093 13.3956L73.4093 11.8456C72.8316 11.2978 72.2936 10.7096 71.7993 10.0856C71.1893 9.31556 73.2593 9.08556 74.5793 10.1856C76.9493 12.1856 79.3793 14.1856 81.8293 16.1856C82.5703 16.7999 83.3633 17.3486 84.1993 17.8256C85.0193 18.3456 85.8893 18.8256 86.7293 19.2656C87.5693 19.7056 88.6093 20.2656 89.5493 20.7456C90.4893 21.2256 91.4793 21.6456 92.4593 22.0356L94.2993 22.7356C94.9093 22.9556 95.5393 23.1356 96.1693 23.3256C97.1093 23.6456 98.0893 23.8256 99.0493 24.0656C100.009 24.3056 101.049 24.3956 101.969 24.5256C102.729 24.5256 103.489 24.5256 104.239 24.5256C104.989 24.5256 105.739 24.4156 106.479 24.3856C106.809 24.3856 107.129 24.3156 107.479 24.2756C108.699 24.1556 109.099 24.2756 109.479 24.9056C109.566 25.04 109.643 25.1804 109.709 25.3256C109.889 25.7956 109.419 26.2456 108.469 26.4756C107.029 26.8303 105.553 27.0182 104.069 27.0356C103.319 27.0356 102.569 26.9656 101.809 26.9156C101.049 26.8656 100.299 26.7056 99.5493 26.5856C98.4393 26.3956 97.3393 26.0956 96.2493 25.8156C95.1593 25.5356 93.9993 25.2656 92.9993 24.8356V24.7756Z" fill="#221F1F"/>
<path d="M40.3296 32.8455C43.1449 31.4621 45.8496 29.864 48.4196 28.0655C49.3596 27.3955 50.2396 26.6555 51.1496 25.9555C54.4106 23.5001 57.4672 20.7845 60.2896 17.8355C61.5434 16.5259 62.7187 15.1435 63.8096 13.6955C64.5096 12.7755 65.1696 11.8255 65.8096 10.8855C66.4496 9.94553 67.2296 9.06553 67.9096 8.15553C68.3396 7.59553 68.6596 7.82553 68.7996 8.61553C68.871 9.11968 68.871 9.63138 68.7996 10.1355C68.7448 10.7955 68.5505 11.4362 68.2296 12.0155C66.9304 14.1132 65.4869 16.118 63.9096 18.0155C62.3191 19.886 60.5801 21.625 58.7096 23.2155C56.4796 25.1355 54.3096 27.2855 51.9396 29.1355C49.336 31.1559 46.5887 32.984 43.7196 34.6055C41.9396 35.6055 40.1296 36.5255 38.2696 37.3455C35.4468 38.5812 32.5395 39.6138 29.5696 40.4355C27.3042 41.1423 25.0005 41.7199 22.6696 42.1655C22.1496 42.2455 21.6696 42.3555 21.1196 42.4155C20.4124 42.5363 19.6868 42.4918 18.9996 42.2855C18.7919 42.2175 18.6013 42.1054 18.4408 41.957C18.2803 41.8086 18.1537 41.6273 18.0696 41.4255C17.9592 41.2389 17.8687 41.0411 17.7996 40.8355C17.6196 40.1855 18.3796 39.5855 19.6996 39.3055C20.6996 39.1255 21.6996 38.8555 22.6996 38.6755C23.6996 38.4955 24.6996 38.2355 25.6996 37.9855C27.6996 37.5455 29.6996 36.9855 31.6996 36.3555C34.6706 35.3989 37.5599 34.2051 40.3396 32.7855L40.3296 32.8455Z" fill="#221F1F"/>
<path d="M53.2693 56.6055C52.6207 59.2198 52.5168 61.9396 52.9641 64.5958C53.4114 67.252 54.4003 69.7878 55.8693 72.0455C56.9407 73.7181 58.2173 75.25 59.6693 76.6055C62.2021 79.0423 65.2915 80.8239 68.6693 81.7955C72.0639 82.7617 75.6755 82.6428 78.9993 81.4555C81.9277 80.2943 84.5293 78.4375 86.5793 76.0455C89.0858 72.9064 90.6714 69.1328 91.1593 65.1455C91.2793 63.9155 91.7293 64.0255 92.2193 65.1455C92.5231 65.9324 92.6987 66.763 92.7393 67.6055C92.8208 68.7878 92.6504 69.974 92.2393 71.0855C91.4734 73.2559 90.3513 75.2837 88.9193 77.0855C88.2043 77.9994 87.404 78.8432 86.5293 79.6055L85.2193 80.7255L83.7993 81.7255C81.8429 82.9801 79.6793 83.8774 77.4093 84.3755C75.1409 84.8862 72.7966 84.9642 70.4993 84.6055C64.9847 83.6411 59.9665 80.8179 56.2793 76.6055C54.2295 74.3536 52.6444 71.7192 51.6148 68.8535C50.5852 65.9878 50.1314 62.947 50.2793 59.9055C50.5396 56.1597 51.8266 52.5579 53.9993 49.4955C55.7544 47.2914 57.9428 45.4706 60.4293 44.1455C61.6351 43.4623 62.8922 42.8739 64.1893 42.3855C65.4717 41.8824 66.7884 41.4714 68.1293 41.1555C70.2058 40.6377 72.3392 40.3824 74.4793 40.3955C76.6771 40.3942 78.8519 40.8434 80.8693 41.7155C81.3193 41.9155 81.7393 42.1655 82.1793 42.3955C82.6078 42.6547 83.0187 42.942 83.4093 43.2555C84.4607 44.0705 85.2811 45.146 85.7893 46.3755C85.9236 46.6953 86.0144 47.0316 86.0593 47.3755C86.0587 47.6381 86.0285 47.8997 85.9693 48.1555C85.9359 48.3476 85.8925 48.5379 85.8393 48.7255C85.7493 48.9455 85.4893 48.7255 85.0293 48.3155C84.5693 47.9055 84.0293 47.1655 83.2493 46.3755C82.0954 45.195 80.7003 44.2774 79.1593 43.6855C77.555 43.1079 75.8643 42.807 74.1593 42.7955C70.5182 42.7954 66.921 43.5906 63.6193 45.1255C61.1529 46.229 58.9093 47.7745 56.9993 49.6855C56.5582 50.1584 56.1442 50.6559 55.7593 51.1755C55.5793 51.4455 55.4293 51.7155 55.2493 51.9755L54.8093 52.8655L54.3593 53.7555L53.9993 54.6955C53.7543 55.3206 53.5538 55.9622 53.3993 56.6155L53.2693 56.6055Z" fill="#221F1F"/>
<path d="M85.4694 58.4356C84.0951 60.4944 82.8654 62.6462 81.7894 64.8755C81.3794 65.6955 81.0794 66.5656 80.6894 67.4056L79.6894 69.6355C79.3048 70.8258 78.7086 71.937 77.9294 72.9155C77.7759 73.0898 77.5793 73.2208 77.3594 73.2956H77.1794H77.1094H76.9994C76.8841 73.2829 76.7703 73.2594 76.6594 73.2256C76.1581 73.0504 75.6961 72.7786 75.2994 72.4255C74.8352 72.017 74.4008 71.5759 73.9994 71.1055L73.4494 70.4356L72.9994 69.9455C72.0811 68.8172 71.1065 67.7358 70.0794 66.7055C69.4294 66.0555 68.7494 65.4456 68.0794 64.8256L67.5994 64.3755L67.3594 64.1656L67.2394 64.0555C67.2154 64.0022 67.1852 63.9519 67.1494 63.9055C67.042 63.7198 66.8993 63.5567 66.7294 63.4255C66.5807 63.3016 66.4237 63.188 66.2594 63.0855C65.9594 62.9055 65.8194 62.5555 66.4794 62.2455C66.9191 62.0933 67.3881 62.0454 67.8494 62.1055C68.1623 62.081 68.4766 62.081 68.7894 62.1055C69.0702 62.1968 69.3363 62.3281 69.5794 62.4955C71.2071 63.6515 72.6938 64.994 74.0094 66.4955L74.9994 67.6055L75.4694 68.1455L75.6994 68.4155C75.7694 68.4955 75.6994 68.4756 75.7594 68.5156C75.8329 68.7662 75.9478 69.0028 76.0994 69.2155C76.1794 69.3356 76.2394 69.2155 76.2894 69.2155C76.3398 69.1647 76.3835 69.1075 76.4194 69.0456C76.5161 68.8769 76.5964 68.6994 76.6594 68.5156C77.0594 67.4056 77.4394 66.2556 77.9094 65.1455C78.9306 62.6902 80.1443 60.3195 81.5394 58.0555C82.4003 56.656 83.3315 55.3009 84.3294 53.9955C85.868 52.0109 87.6221 50.2032 89.5594 48.6055C91.004 47.3058 92.5947 46.1783 94.2994 45.2455C94.674 45.0349 95.0614 44.8478 95.4594 44.6856C95.9927 44.4465 96.576 44.3401 97.1594 44.3755C97.3323 44.3893 97.5008 44.4371 97.6552 44.516C97.8096 44.5949 97.947 44.7035 98.0594 44.8355C98.1767 44.9457 98.2838 45.0662 98.3794 45.1955C98.6394 45.6055 98.1394 46.1955 97.2594 46.7755C94.5933 48.4576 92.1535 50.474 89.9994 52.7755C88.3519 54.5415 86.8629 56.4488 85.5494 58.4755L85.4694 58.4356Z" fill="#F39F51"/>
<path d="M77.5296 119.776C64.9796 116.076 50.1196 110.656 44.4296 102.206C39.1296 94.3655 35.2896 85.3955 31.4296 76.7655C27.0396 67.0555 22.5296 57.2655 19.1196 47.1855L17.3496 50.6055C20.7496 60.7055 25.2696 70.5055 29.6596 80.2055C33.5696 88.8355 37.4096 97.8055 42.7096 105.656C47.6296 112.946 69.6496 122.266 73.7996 121.106L77.5296 119.776Z" fill="#231F20"/>
<path d="M95.1196 28.2956C93.3204 27.8187 91.5535 27.2275 89.8296 26.5256C89.1996 26.2856 88.5596 26.0356 87.9496 25.7556C85.7976 24.7198 83.7513 23.4773 81.8396 22.0456C81.4096 21.7456 81.0196 21.3856 80.5996 21.0456C80.1796 20.7056 79.7496 20.4156 79.3696 20.0456C78.9896 19.6756 78.3696 19.1756 77.8596 18.7056C77.3936 18.218 76.9562 17.7038 76.5496 17.1656C76.0596 16.4956 77.7596 16.4256 78.7996 17.4356C80.7495 19.2023 82.8213 20.8297 84.9996 22.3056C85.66 22.7656 86.3594 23.1672 87.0896 23.5056L88.1996 24.0256L89.3296 24.4856C90.9866 25.1751 92.6829 25.7662 94.4096 26.2556C95.4896 26.5156 96.5596 26.8056 97.6596 26.9856C99.3095 27.3164 100.98 27.5335 102.66 27.6356C103.96 27.6356 105.23 27.6356 106.51 27.5256L107.35 27.4656C108.41 27.4156 108.74 27.5356 109 28.0256C109.061 28.1315 109.114 28.2418 109.16 28.3556C109.29 28.7356 108.86 29.0656 108.07 29.2156C106.871 29.4329 105.657 29.5533 104.44 29.5756C103.186 29.5851 101.934 29.515 100.69 29.3656C98.8233 29.1521 96.9728 28.818 95.1496 28.3656L95.1196 28.2956Z" fill="#221F1F"/>
</svg>
