<svg width="21" height="20" viewBox="0 0 21 20" fill="none" xmlns="http://www.w3.org/2000/svg">
<path d="M10.3145 8.33337L14.3391 9.41179" stroke="#F39F51" stroke-width="1.5" stroke-linecap="round"/>
<path d="M9.66602 10.748L12.0808 11.3951" stroke="#F39F51" stroke-width="1.5" stroke-linecap="round"/>
<path d="M17.427 10.5394C16.9235 12.4186 16.6717 13.3582 16.1009 13.9676C15.6502 14.4488 15.067 14.7855 14.425 14.9352C14.3447 14.9539 14.2633 14.9683 14.1798 14.9786C13.4173 15.0727 12.4868 14.8234 10.793 14.3695C8.91373 13.866 7.97411 13.6142 7.36471 13.0434C6.88353 12.5928 6.5468 12.0095 6.39709 11.3675C6.20749 10.5543 6.45926 9.61471 6.9628 7.73548L7.39417 6.1256C7.46658 5.85534 7.53379 5.60451 7.59749 5.3713C7.97672 3.98294 8.23156 3.21911 8.72024 2.69735C9.17092 2.21617 9.75416 1.87944 10.3962 1.72973C11.2093 1.54013 12.149 1.7919 14.0282 2.29544C15.9074 2.79898 16.8471 3.05075 17.4565 3.62152C17.9376 4.07219 18.2744 4.65543 18.4241 5.29748C18.5582 5.87253 18.4715 6.51082 18.2312 7.49996" stroke="#F39F51" stroke-width="1.5" stroke-linecap="round"/>
<path d="M3.2262 13.8725C3.72974 15.7517 3.98151 16.6913 4.55228 17.3007C5.00295 17.7819 5.58619 18.1186 6.22824 18.2683C7.04138 18.4579 7.981 18.2062 9.86023 17.7026C11.7395 17.1991 12.6791 16.9473 13.2885 16.3766C13.6993 15.9918 14.0048 15.5105 14.1785 14.9784M7.59619 5.37109C7.30242 5.44705 6.98052 5.5333 6.62499 5.62857C4.74576 6.13211 3.80614 6.38387 3.19674 6.95464C2.71556 7.40532 2.37883 7.98856 2.22912 8.6306C2.09503 9.2057 2.18171 9.84405 2.42209 10.8333" stroke="#F39F51" stroke-width="1.5" stroke-linecap="round" stroke-linejoin="round"/>
</svg>
