<svg width="180" height="156" viewBox="0 0 180 156" fill="none" xmlns="http://www.w3.org/2000/svg">
<path d="M179.679 111.997C175.978 146.209 167.978 156 103.644 156C39.3089 156 13 127.48 13 102.97C13 78.4602 50.424 76.0937 83.4174 71.7542C142.765 63.9483 184.078 71.348 179.679 111.997Z" fill="#FCEAD9"/>
<path d="M57.6665 136.506H57.6793L59.5962 140.58C79.2672 142.191 121.376 142.231 144.439 142.157L145.811 138.541C146.041 138.53 146.265 138.47 146.47 138.365C146.674 138.259 146.853 138.111 146.996 137.93C147.138 137.749 147.239 137.54 147.293 137.317C147.347 137.093 147.353 136.86 147.309 136.635C145.847 129.245 143.375 119.898 137.184 113.132C131.232 106.629 125.362 102.783 117.558 100.274C111.232 98.2544 104.855 97.7544 98.5919 98.8036C95.4207 99.3528 91.2236 100.535 87.1933 102.075C87.0907 102.101 86.9881 102.105 86.8898 102.152C86.8492 102.174 86.8257 102.208 86.7872 102.231C83.7869 103.4 80.902 104.762 78.6389 106.24C68.063 113.098 60.8378 121.725 55.9462 133.29C55.8065 133.568 55.7292 133.872 55.72 134.183C55.7108 134.494 55.7698 134.802 55.8928 135.088C56.1963 135.874 56.9015 136.427 57.6665 136.506ZM99.1283 101.964C104.877 101.007 110.747 101.464 116.579 103.328C117.506 103.627 118.404 103.945 119.276 104.289C118.654 107.867 117.718 111.773 114.709 113.376C113.22 114.166 111.333 114.322 109.531 114.412C106.294 114.572 103.05 114.558 99.8143 114.369C98.0556 114.267 96.0746 114.077 94.771 113.119C92.7302 111.615 91.3967 108.424 90.2192 105.612C90.0683 105.25 89.9159 104.888 89.7619 104.526C92.9097 103.394 96.2113 102.466 99.1283 101.964ZM80.387 108.927C82.0816 107.82 84.3126 106.7 86.768 105.676C86.9325 106.057 87.095 106.445 87.2638 106.847C88.5994 110.044 90.1145 113.671 92.8712 115.699C94.88 117.177 97.4102 117.44 99.6241 117.571C102.976 117.765 106.336 117.779 109.689 117.613C111.76 117.511 114.143 117.31 116.216 116.205C120.481 113.936 121.699 108.897 122.295 105.629C126.881 107.877 130.831 110.94 134.82 115.295C139.981 120.936 142.355 128.766 143.781 135.395C138.761 135.536 133.572 135.682 128.493 135.682H128.458C124.954 135.754 121.257 135.806 117.385 135.806C116.06 135.827 114.735 135.827 113.384 135.827H113.117C100.97 135.827 78.1303 135.562 61.5558 133.769C61.5077 133.759 61.4592 133.75 61.4105 133.743L60.0899 133.581C59.8433 133.552 59.5968 133.522 59.3505 133.491C64.0091 123.022 70.7192 115.194 80.387 108.927ZM81.1157 67.2425C81.3977 69.8624 83.7741 72.2088 85.9217 72.9781C86.4923 77.1025 87.7296 81.603 90.4265 85.4795C94.2346 90.9502 100.928 94.6002 107.629 93.2859C117.716 91.5998 120.415 83.8319 122.161 73.7646C127.781 72.9333 128.172 64.9067 124.821 62.9022C127.634 52.9225 122.904 43.3146 114.696 40.2929C109.557 38.4081 103.03 39.857 99.0428 43.663C91.401 41.5773 82.821 48.6849 84.6289 61.8444C83.601 62.0517 80.8186 64.5199 81.1157 67.2425ZM93.0593 83.646C90.4094 79.8379 89.0268 74.8309 88.7233 68.0417C96.0553 68.5033 107.213 63.3168 112.269 56.6323C113.354 61.2226 115.254 65.5863 119.075 68.2362C119.09 68.3409 119.133 68.4349 119.167 68.5353C118.874 72.8136 118.404 77.2884 116.684 81.3252C114.829 85.6718 111.54 88.9008 107.89 89.9586C102.193 91.6298 96.113 88.0375 93.0593 83.646ZM87.657 56.4528C87.9775 53.1982 89.2555 50.4094 91.2578 48.6015C93.3991 46.674 96.5298 46.0115 98.8698 46.9838C99.1785 47.1136 99.5202 47.1435 99.8467 47.0691C100.173 46.9947 100.468 46.8199 100.69 46.5693C103.687 43.1779 109.352 41.7418 113.589 43.2997C121.902 46.3577 124.727 57.0469 120.451 65.2636C116.733 62.3573 115.408 57.0426 114.583 51.6296C114.32 49.9158 111.933 49.8239 111.461 51.4159C109.335 58.6496 95.816 65.6055 88.4776 64.8149C87.6933 61.4897 87.4219 58.8527 87.657 56.4528ZM44.6971 86.3065H45.5883C46.4644 86.3065 47.176 85.5949 47.176 84.7188V79.1519C61.4319 78.3655 72.525 66.6206 73.6426 53.2431H80.5301C80.7443 53.2431 80.9563 53.2009 81.1541 53.119C81.3519 53.037 81.5317 52.9169 81.6831 52.7655C81.8345 52.6141 81.9546 52.4343 82.0365 52.2365C82.1185 52.0387 82.1607 51.8267 82.1607 51.6126V50.6979C82.1607 50.2655 81.9889 49.8507 81.6831 49.545C81.3773 49.2392 80.9626 49.0674 80.5301 49.0674H73.6854C73.243 41.7269 70.0674 34.5338 64.5989 29.608C59.9616 25.4323 53.8028 23.0902 47.5821 22.806V15.7283C47.5815 15.224 47.3809 14.7406 47.0244 14.384C46.6678 14.0275 46.1844 13.8269 45.6802 13.8264L44.6117 13.8242C44.107 13.8248 43.6233 14.0256 43.2667 14.3827C42.9101 14.7397 42.7097 15.2237 42.7097 15.7283L42.7055 22.9727C29.0758 24.3617 18.9593 35.4014 18.3438 49.0695H11.2918C10.8593 49.0695 10.4446 49.2413 10.1388 49.5471C9.83304 49.8529 9.66125 50.2676 9.66125 50.7001V51.6147C9.66125 52.5144 10.39 53.2452 11.2918 53.2452H18.4357C18.4934 53.8072 18.6003 54.3564 18.69 54.9121C19.9145 68.8602 30.2383 77.936 43.1115 79.0921L43.1094 84.7188C43.1094 85.5949 43.821 86.3065 44.6971 86.3065ZM42.7055 26.1867V29.343C42.7055 30.3965 43.5581 31.2492 44.6074 31.2492H45.6759C45.9259 31.2492 46.1735 31.2 46.4045 31.1043C46.6355 31.0086 46.8454 30.8683 47.0223 30.6915C47.1991 30.5147 47.3393 30.3048 47.435 30.0738C47.5307 29.8428 47.5799 29.5952 47.5799 29.3452V26.129C58.859 27.268 68.36 37.3888 69.4669 49.0674H66.364C65.9316 49.0674 65.5169 49.2392 65.2111 49.545C64.9053 49.8507 64.7335 50.2655 64.7335 50.6979V51.6126C64.7335 52.5122 65.4622 53.2431 66.364 53.2431H69.4969C68.5716 64.146 59.3505 73.9676 47.1782 74.5424V70.4693C47.1785 70.2606 47.1376 70.0539 47.0579 69.861C46.9783 69.6682 46.8614 69.4929 46.7139 69.3452C46.5664 69.1975 46.3913 69.0804 46.1985 69.0005C46.0057 68.9205 45.7991 68.8794 45.5904 68.8794H44.7014C44.4927 68.8791 44.286 68.92 44.0931 68.9996C43.9003 69.0793 43.725 69.1962 43.5773 69.3437C43.4296 69.4912 43.3125 69.6663 43.2326 69.8591C43.1526 70.0518 43.1115 70.2585 43.1115 70.4672V74.4356C31.8218 73.1363 23.0238 65.4752 21.6433 53.2431H25.4557C25.8882 53.2431 26.3029 53.0713 26.6087 52.7655C26.9145 52.4597 27.0862 52.045 27.0862 51.6126V50.6979C27.0862 50.2655 26.9145 49.8507 26.6087 49.545C26.3029 49.2392 25.8882 49.0674 25.4557 49.0674H21.5493C22.1541 37.5127 30.5503 27.5843 42.7055 26.1867Z" fill="#0F172A"/>
<path d="M39.6795 57.3546C40.3329 58.0684 41.2418 58.4951 42.2084 58.542C43.175 58.5888 44.121 58.2519 44.8403 57.6046L61.6477 42.4085C61.8039 42.2673 61.9307 42.0968 62.021 41.9066C62.1113 41.7164 62.1632 41.5103 62.1738 41.3001C62.1844 41.0898 62.1535 40.8796 62.0829 40.6813C62.0122 40.483 61.9032 40.3005 61.762 40.1443C61.6209 39.9882 61.4503 39.8613 61.2602 39.7711C61.07 39.6808 60.8639 39.6289 60.6536 39.6183C60.4434 39.6076 60.2331 39.6385 60.0348 39.7092C59.8365 39.7798 59.6541 39.8888 59.4979 40.03L42.6905 55.224C42.6468 55.2647 42.5953 55.2963 42.5392 55.3169C42.4831 55.3375 42.4234 55.3467 42.3637 55.3439C42.3039 55.3411 42.2454 55.3264 42.1914 55.3007C42.1374 55.275 42.0892 55.2387 42.0494 55.1941L35.397 47.9005C35.1051 47.6074 34.7113 47.4383 34.2978 47.4285C33.8842 47.4187 33.4829 47.569 33.1774 47.848C32.872 48.1269 32.6861 48.5131 32.6585 48.9258C32.6308 49.3385 32.7637 49.746 33.0292 50.0632L39.6795 57.3546Z" fill="#0F172A"/>
</svg>
